<svg width="44" height="49" viewBox="0 0 44 49" fill="none" xmlns="http://www.w3.org/2000/svg">
<path fill-rule="evenodd" clip-rule="evenodd" d="M1.091 13.4089L22.0001 1.90894L42.9092 13.4089L42.9092 36.4089L22.0001 47.9089L1.091 36.4089L1.091 13.4089Z" stroke="white" stroke-width="2" stroke-linecap="round" stroke-linejoin="round"/>
<path d="M30.58 33.5797C31.0189 33.1408 31.0189 32.4369 30.58 31.998L23.4918 24.9089L30.58 17.8199C31.0189 17.381 31.0189 16.6771 30.58 16.2381C30.1412 15.7992 29.4373 15.7992 28.9984 16.2381L21.9102 23.3272L14.822 16.2381C14.3831 15.7992 13.6793 15.7992 13.2404 16.2381C13.0251 16.4534 12.9092 16.7433 12.9092 17.0249C12.9092 17.3065 13.0168 17.5963 13.2404 17.8116L20.3286 24.9007L13.2404 31.9897C13.0251 32.205 12.9092 32.4949 12.9092 32.7764C12.9092 33.0663 13.0168 33.3479 13.2404 33.5632C13.6793 34.0021 14.3831 34.0021 14.822 33.5632L21.9102 26.4907L28.9984 33.5797C29.4373 34.0187 30.1412 34.0187 30.58 33.5797Z" fill="white"/>
</svg>
