<svg width="20" height="24" viewBox="0 0 20 24" fill="none" xmlns="http://www.w3.org/2000/svg">
<path fill-rule="evenodd" clip-rule="evenodd" d="M12.6813 1.875C13.1229 1.87989 13.5292 2.11748 13.75 2.5L17.9437 7.5C18.0583 7.68868 18.1208 7.90432 18.125 8.125V20.625C18.125 21.3154 17.5654 21.875 16.875 21.875H3.125C2.43464 21.875 1.875 21.3154 1.875 20.625V3.125C1.875 2.43464 2.43464 1.875 3.125 1.875H12.6813ZM12.6813 7.95047e-08H3.125C1.39911 7.95047e-08 0 1.39911 0 3.125V20.625C0 22.3509 1.39911 23.75 3.125 23.75H16.875C18.6009 23.75 20 22.3509 20 20.625V8.125C20.0002 7.55929 19.8468 7.00413 19.5563 6.51875C19.5065 6.43317 19.4501 6.35167 19.3875 6.275L15.2625 1.3625C14.6801 0.509731 13.7139 -0.000232477 12.6813 7.95047e-08Z" fill="#333333"/>
<path fill-rule="evenodd" clip-rule="evenodd" d="M6.72158 12.9625C6.56486 12.7789 6.33789 12.6699 6.09658 12.6625C5.8635 12.6605 5.639 12.7503 5.47158 12.9125C5.09365 13.2663 5.07406 13.8595 5.42783 14.2375L9.17783 18.3C9.74264 18.6337 10.4443 18.6337 11.0091 18.3L15.0716 14.1625C15.4371 13.7965 15.4371 13.2035 15.0716 12.8375C14.6755 12.4683 14.0614 12.4683 13.6653 12.8375L11.1341 15.3375V7.1875C11.1341 6.66973 10.7143 6.25 10.1966 6.25C9.67881 6.25 9.25908 6.66973 9.25908 7.1875V15.775L6.72158 12.9625Z" fill="#333333"/>
</svg>
