<svg width="38" height="38" viewBox="0 0 38 38" fill="none" xmlns="http://www.w3.org/2000/svg">
<path fill-rule="evenodd" clip-rule="evenodd" d="M32.7143 9.69048H25.8571V7.40476C25.8571 6.1424 24.8338 5.11905 23.5714 5.11905H14.4286C13.1662 5.11905 12.1429 6.1424 12.1429 7.40476V9.69048H5.28571C4.02335 9.69048 3 10.7138 3 11.9762V31.0238C3 32.2862 4.02335 33.3095 5.28571 33.3095H32.7143C33.9767 33.3095 35 32.2862 35 31.0238V11.9762C35 10.7138 33.9767 9.69048 32.7143 9.69048V9.69048ZM14.4286 7.40476H23.5715V9.69048H14.4286V7.40476ZM32.7143 11.9762V17.6981C32.5376 17.6959 32.3628 17.7351 32.2038 17.8124C29.1436 19.231 25.9407 20.3191 22.6496 21.0581C22.3103 20.1789 21.4662 19.598 20.5238 19.5952H17.4762C16.5099 19.598 15.6497 20.208 15.3277 21.119C11.9852 20.4124 8.74114 19.302 5.6667 17.8124C5.53575 17.7475 5.39343 17.7087 5.24766 17.6981V11.9762H32.7143ZM20.5239 21.8809V24.1667H17.4763V21.8809H20.5239ZM5.28581 31.0238V20.1971C8.45072 21.6621 11.7744 22.7564 15.1906 23.4581V24.1667C15.1906 25.429 16.2139 26.4524 17.4763 26.4524H20.5239C21.7863 26.4524 22.8096 25.429 22.8096 24.1667V23.3438C26.2423 22.6743 29.5722 21.5575 32.7144 20.0219V31.0238H5.28581Z" fill="black"/>
</svg>
