<?xml version="1.0" encoding="utf-8"?>
<svg xmlns="http://www.w3.org/2000/svg" width="21.086" height="14.994" viewBox="0 0 21.086 14.994">
  <g transform="translate(0.1 0.1)">
    <path
      d="M19.145,80.8v-3.96a2.179,2.179,0,0,0-2.176-2.176H3.916A2.179,2.179,0,0,0,1.74,76.843V80.8A2.179,2.179,0,0,0,0,82.934v6.092a.435.435,0,0,0,.87,0V87.72H20.015v1.305a.435.435,0,0,0,.87,0V82.934A2.179,2.179,0,0,0,19.145,80.8ZM2.611,76.843a1.307,1.307,0,0,1,1.305-1.305H16.97a1.307,1.307,0,0,1,1.305,1.305v3.916h-1.2a1.293,1.293,0,0,0,.044-.752l-.435-1.74a1.3,1.3,0,0,0-1.266-.989h-2.8a1.307,1.307,0,0,0-1.305,1.305v1.74a1.29,1.29,0,0,0,.08.435h-1.9a1.29,1.29,0,0,0,.08-.435v-1.74a1.307,1.307,0,0,0-1.305-1.305h-2.8a1.3,1.3,0,0,0-1.266.989l-.435,1.74a1.293,1.293,0,0,0,.044.752h-1.2ZM16.2,80.592a.432.432,0,0,1-.343.167H12.618a.435.435,0,0,1-.435-.435v-1.74a.435.435,0,0,1,.435-.435h2.8a.435.435,0,0,1,.422.33l.435,1.74A.43.43,0,0,1,16.2,80.592ZM8.7,78.582v1.74a.435.435,0,0,1-.435.435H5.03a.435.435,0,0,1-.422-.54l.435-1.74a.438.438,0,0,1,.422-.33h2.8A.435.435,0,0,1,8.7,78.582ZM20.015,86.85H.87v-.87H20.015v.87Zm0-1.74H.87V82.934a1.307,1.307,0,0,1,1.305-1.305H18.71a1.307,1.307,0,0,1,1.305,1.305V85.11Z"
      transform="translate(0 -74.667)" fill="#fff" stroke="#fff" stroke-width="0.2"/>
  </g>
</svg>
