<svg width="52" height="52" viewBox="0 0 52 52" fill="none" xmlns="http://www.w3.org/2000/svg">
<path fill-rule="evenodd" clip-rule="evenodd" d="M25.8977 29.4679C24.7121 29.4679 23.7553 28.5111 23.7553 27.3255C23.7553 26.1399 24.7121 25.1623 25.8977 25.1623C27.0833 25.1623 28.0609 26.1399 28.0609 27.3255C28.0609 28.5111 27.0833 29.4679 25.8977 29.4679ZM16.1633 29.4679C14.9777 29.4679 14.0001 28.5111 14.0001 27.3255C14.0001 26.1399 14.9777 25.1623 16.1633 25.1623C17.3489 25.1623 18.3057 26.1399 18.3057 27.3255C18.3057 28.5111 17.3489 29.4679 16.1633 29.4679ZM29.4961 14.5959H13.2097C9.4241 14.5959 6.3457 17.6743 6.3457 21.4599V32.5879C6.3457 36.3527 9.4241 39.4311 13.2097 39.4311H14.9153C15.7057 39.4311 16.4545 39.7431 17.0161 40.3047L19.3041 42.5927C19.8449 43.1335 20.5729 43.4455 21.3425 43.4455C22.1121 43.4455 22.8401 43.1335 23.4017 42.5927L25.6897 40.3047C26.2305 39.7431 26.9793 39.4311 27.7697 39.4311H29.4961C33.2609 39.4311 36.3393 36.3527 36.3393 32.5879V21.4599C36.3393 17.6743 33.2609 14.5959 29.4961 14.5959Z" fill="#07C8CC"/>
<path fill-rule="evenodd" clip-rule="evenodd" d="M25.8977 29.4682C24.7121 29.4682 23.7553 28.5114 23.7553 27.3258C23.7553 26.1402 24.7121 25.1626 25.8977 25.1626C27.0833 25.1626 28.0609 26.1402 28.0609 27.3258C28.0609 28.5114 27.0833 29.4682 25.8977 29.4682ZM16.1632 29.4682C14.9776 29.4682 14 28.5114 14 27.3258C14 26.1402 14.9776 25.1626 16.1632 25.1626C17.3488 25.1626 18.3056 26.1402 18.3056 27.3258C18.3056 28.5114 17.3488 29.4682 16.1632 29.4682Z" fill="#DAF7F7"/>
<path fill-rule="evenodd" clip-rule="evenodd" d="M37.9833 6.65039H21.6969C18.6119 6.65039 15.9909 8.69235 15.1493 11.4961C15.073 11.7503 15.271 11.996 15.5364 11.996H29.4969C34.6969 11.996 38.9401 16.2392 38.9401 21.4601V30.9253C38.9401 31.1776 39.1635 31.3727 39.4104 31.3207C42.5061 30.6699 44.8265 27.9099 44.8265 24.6217V13.4936C44.8265 9.72879 41.7481 6.65039 37.9833 6.65039Z" fill="#00877D"/>
</svg>
