<?xml version="1.0" encoding="utf-8"?>
<svg xmlns="http://www.w3.org/2000/svg" width="12.617" height="18.149" viewBox="0 0 12.617 18.149">
  <path d="M105.257,105.827a2.691,2.691,0,1,1,1.9-.787A2.683,2.683,0,0,1,105.257,105.827Zm0-4.317a1.626,1.626,0,1,0,1.151.476A1.622,1.622,0,0,0,105.257,101.51Zm0,0" transform="translate(-98.949 -96.884)" fill="#fff"/>
  <path
    d="M6.815,18.149,6.4,17.665C6.163,17.382.5,10.68.5,6.308a6.309,6.309,0,0,1,12.617,0c0,4.157-5.657,11.059-5.9,11.351ZM6.809,1.064A5.25,5.25,0,0,0,1.565,6.308c0,1.625.969,3.977,2.8,6.8.951,1.466,1.909,2.707,2.436,3.364.527-.675,1.494-1.957,2.452-3.45,1.831-2.855,2.8-5.177,2.8-6.714A5.25,5.25,0,0,0,6.809,1.064Zm0,0"
    transform="translate(-0.501 0.001)" fill="#fff"/>
</svg>
