<svg width="40" height="40" viewBox="0 0 40 40" fill="none" xmlns="http://www.w3.org/2000/svg">
<path fill-rule="evenodd" clip-rule="evenodd" d="M9.63479 18.1008C9.63479 12.9046 13.7951 8.67776 18.9079 8.67776C24.0194 8.67776 28.1797 12.9046 28.1797 18.1008C28.1797 23.297 24.0194 27.5252 18.9079 27.5252C13.7951 27.5252 9.63479 23.297 9.63479 18.1008ZM34 32.1041L27.9413 25.9627C29.7277 23.8459 30.8145 21.1026 30.8145 18.1008C30.8145 11.4292 25.4725 6 18.9079 6C12.342 6 7 11.4292 7 18.1008C7 24.7738 12.342 30.2029 18.9079 30.2029C21.5717 30.2029 24.026 29.2978 26.0113 27.7889L32.1398 34L34 32.1041Z" fill="black"/>
</svg>
