<svg xmlns="http://www.w3.org/2000/svg" style="display: none;">
  <symbol id="arrow-right" viewBox="0 0 17 16">
    <path d="M8.73326 1.97778L9.79172 0.914917L16.9068 8.00058L9.79163 15.0852L8.73326 14.0222L14.0283 8.75002H0.09375V7.25002H14.0274L8.73326 1.97778Z" fill="currentColor" />
  </symbol>
  <symbol id="search" viewBox="0 0 24 24">
    <path fill-rule="evenodd" clip-rule="evenodd" d="M17.3236 18.6057C15.7601 19.8456 13.7828 20.586 11.6324 20.586C6.56899 20.586 2.46484 16.4807 2.46484 11.4175C2.46484 6.35425 6.5691 2.25 11.6324 2.25C16.6956 2.25 20.7999 6.35425 20.7999 11.4175C20.7999 13.7902 19.8987 15.9525 18.4198 17.5805L21.3159 20.4692C21.6091 20.7617 21.6097 21.2366 21.3172 21.5298C21.0247 21.8231 20.5498 21.8237 20.2566 21.5312L17.3236 18.6057ZM3.96484 11.4175C3.96484 7.18269 7.39752 3.75 11.6324 3.75C15.8672 3.75 19.2999 7.18268 19.2999 11.4175C19.2999 13.6221 18.3696 15.6096 16.8802 17.0085C16.863 17.0229 16.8463 17.0382 16.8302 17.0543C16.8277 17.0568 16.8253 17.0593 16.8229 17.0618C15.4573 18.3185 13.6345 19.086 11.6324 19.086C7.39764 19.086 3.96484 15.6525 3.96484 11.4175Z" fill="currentColor" />
  </symbol>
  <symbol id="search2" viewBox="0 0 40 40">
    <path fill-rule="evenodd" clip-rule="evenodd" d="M9.63479 18.1008C9.63479 12.9046 13.7951 8.67776 18.9079 8.67776C24.0194 8.67776 28.1797 12.9046 28.1797 18.1008C28.1797 23.297 24.0194 27.5252 18.9079 27.5252C13.7951 27.5252 9.63479 23.297 9.63479 18.1008ZM34 32.1041L27.9413 25.9627C29.7277 23.8459 30.8145 21.1026 30.8145 18.1008C30.8145 11.4292 25.4725 6 18.9079 6C12.342 6 7 11.4292 7 18.1008C7 24.7738 12.342 30.2029 18.9079 30.2029C21.5717 30.2029 24.026 29.2978 26.0113 27.7889L32.1398 34L34 32.1041Z" fill="currentColor" />
  </symbol>
  <symbol id="close" viewBox="0 0 40 40">
    <path d="M32 10.2461L22.2051 20.0771L31.8457 29.7539L29.6084 32L19.9678 22.3232L10.3916 31.9365L8.1543 29.6895L17.7295 20.0771L8 10.3105L10.2383 8.06348L19.9678 17.8301L29.7617 8L32 10.2461Z" fill="currentColor" />
  </symbol>
  <symbol id="back" viewBox="0 0 24 24">
    <path d="M14.985 6L9.01492 12L14.985 18" stroke="#07C8CC" stroke-width="3" stroke-linecap="square" fill="none"/>
  </symbol>
  <symbol id="forward" viewBox="0 0 24 24">
    <path d="M9.01501 18L14.9851 12L9.01501 6" stroke="#07C8CC" stroke-width="3" stroke-linecap="square" fill="none"/>
  </symbol>
</svg>


