<svg xmlns="http://www.w3.org/2000/svg" style="display: none;">
  <!-- Arrow Right -->
  <symbol id="arrow-right" viewBox="0 0 17 16">
    <path
      d="M8.73326 1.97778L9.79172 0.914917L16.9068 8.00058L9.79163 15.0852L8.73326 14.0222L14.0283 8.75002H0.09375V7.25002H14.0274L8.73326 1.97778Z"
      fill="currentColor" />
  </symbol>

  <!-- Arrow Left -->
  <svg id="arrow-left" viewBox="0 0 32 32">
    <path
      d="M15.6896 24.0296L14.2783 25.4468L4.7915 15.9992L14.2784 6.55308L15.6896 7.97033L8.62961 15L27.209 15L27.209 17L8.63072 17L15.6896 24.0296Z"
      fill="currentColor" />
  </svg>


  <!-- Search -->
  <symbol id="search" viewBox="0 0 24 24">
    <path fill-rule="evenodd" clip-rule="evenodd"
      d="M17.3236 18.6057C15.7601 19.8456 13.7828 20.586 11.6324 20.586C6.56899 20.586 2.46484 16.4807 2.46484 11.4175C2.46484 6.35425 6.5691 2.25 11.6324 2.25C16.6956 2.25 20.7999 6.35425 20.7999 11.4175C20.7999 13.7902 19.8987 15.9525 18.4198 17.5805L21.3159 20.4692C21.6091 20.7617 21.6097 21.2366 21.3172 21.5298C21.0247 21.8231 20.5498 21.8237 20.2566 21.5312L17.3236 18.6057ZM3.96484 11.4175C3.96484 7.18269 7.39752 3.75 11.6324 3.75C15.8672 3.75 19.2999 7.18268 19.2999 11.4175C19.2999 13.6221 18.3696 15.6096 16.8802 17.0085C15.4573 18.3185 13.6345 19.086 11.6324 19.086C7.39764 19.086 3.96484 15.6525 3.96484 11.4175Z"
      fill="currentColor" />
  </symbol>

  <symbol id="search-black" viewBox="0 0 24 24">
    <path fill-rule="evenodd" clip-rule="evenodd"
      d="M17.3236 18.6057C15.7601 19.8456 13.7828 20.586 11.6324 20.586C6.56899 20.586 2.46484 16.4807 2.46484 11.4175C2.46484 6.35425 6.5691 2.25 11.6324 2.25C16.6956 2.25 20.7999 6.35425 20.7999 11.4175C20.7999 13.7902 19.8987 15.9525 18.4198 17.5805L21.3159 20.4692C21.6091 20.7617 21.6097 21.2366 21.3172 21.5298C21.0247 21.8231 20.5498 21.8237 20.2566 21.5312L17.3236 18.6057ZM3.96484 11.4175C3.96484 7.18269 7.39752 3.75 11.6324 3.75C15.8672 3.75 19.2999 7.18268 19.2999 11.4175C19.2999 13.6221 18.3696 15.6096 16.8802 17.0085C15.4573 18.3185 13.6345 19.086 11.6324 19.086C7.39764 19.086 3.96484 15.6525 3.96484 11.4175Z"
      fill="black" />
  </symbol>

  <symbol id="search-strong" viewBox="0 0 24 24">
    <path
      d="M11.6318 2C16.8329 2.00022 21.0488 6.21679 21.0488 11.418C21.0487 13.7688 20.1851 15.9173 18.7607 17.5674L21.4912 20.292C21.8822 20.682 21.8831 21.315 21.4932 21.7061C21.1031 22.0971 20.4701 22.098 20.0791 21.708L17.2998 18.9365C15.7227 20.1275 13.7602 20.8358 11.6318 20.8359C6.43047 20.8359 2.21412 16.619 2.21387 11.418C2.21387 6.21665 6.43047 2 11.6318 2ZM11.6318 4C7.53503 4 4.21387 7.32123 4.21387 11.418C4.21412 15.5147 7.53533 18.8359 11.6318 18.8359C13.4473 18.8358 15.1101 18.1838 16.3994 17.1006L16.6523 16.8779C16.6704 16.8599 16.6889 16.8426 16.708 16.8262C18.1491 15.4726 19.0487 13.5506 19.0488 11.418C19.0488 7.32136 15.7284 4.00022 11.6318 4Z"
      fill="currentColor" stroke="currentColor" stroke-width="0.5" stroke-linecap="round" stroke-linejoin="round" />
  </symbol>

  <!-- Search 2 -->
  <symbol id="search2" viewBox="0 0 40 40">
    <path fill-rule="evenodd" clip-rule="evenodd"
      d="M9.63479 18.1008C9.63479 12.9046 13.7951 8.67776 18.9079 8.67776C24.0194 8.67776 28.1797 12.9046 28.1797 18.1008C28.1797 23.297 24.0194 27.5252 18.9079 27.5252C13.7951 27.5252 9.63479 23.297 9.63479 18.1008ZM34 32.1041L27.9413 25.9627C29.7277 23.8459 30.8145 21.1026 30.8145 18.1008C30.8145 11.4292 25.4725 6 18.9079 6C12.342 6 7 11.4292 7 18.1008C7 24.7738 12.342 30.2029 18.9079 30.2029C21.5717 30.2029 24.026 29.2978 26.0113 27.7889L32.1398 34L34 32.1041Z"
      fill="currentColor" />
  </symbol>

  <!-- Close -->
  <symbol id="close" viewBox="0 0 40 40">
    <path
      d="M32 10.2461L22.2051 20.0771L31.8457 29.7539L29.6084 32L19.9678 22.3232L10.3916 31.9365L8.1543 29.6895L17.7295 20.0771L8 10.3105L10.2383 8.06348L19.9678 17.8301L29.7617 8L32 10.2461Z"
      fill="currentColor" />
  </symbol>

  <!-- Back -->
  <symbol id="back" viewBox="0 0 24 24">
    <path d="M14.985 6L9.01492 12L14.985 18" stroke="#07C8CC" stroke-width="3" stroke-linecap="square" fill="none" />
  </symbol>

  <!-- Forward -->
  <symbol id="forward" viewBox="0 0 24 24">
    <path d="M9.01501 18L14.9851 12L9.01501 6" stroke="#07C8CC" stroke-width="3" stroke-linecap="square" fill="none" />
  </symbol>

  <!-- Chevron Right Icon -->
  <symbol id="chevron-right" viewBox="0 0 16 17">
    <path fill-rule="evenodd" clip-rule="evenodd"
      d="M6.23137 13.6187C5.97444 13.8864 5.54641 13.8864 5.28949 13.6187C5.04697 13.3661 5.04697 12.9671 5.28949 12.7145L9.33544 8.49996L5.28949 4.2854C5.04697 4.03278 5.04697 3.63381 5.28949 3.38119C5.54641 3.11356 5.97444 3.11356 6.23137 3.38119L10.7021 8.03827C10.9498 8.29625 10.9498 8.70367 10.7021 8.96165L6.23137 13.6187Z"
      fill="currentColor" />
  </symbol>

  <symbol id="ciclo-1" viewBox="0 0 80 80">
    <path
      d="M40 -1.74846e-06C48.4472 -2.11769e-06 56.6775 2.6742 63.5114 7.63932L45.8779 31.9098C44.1694 30.6685 42.1118 30 40 30L40 -1.74846e-06Z"
      fill="#07C8CC" />
    <path
      d="M63.5114 7.63932C71.2166 13.2375 76.6714 21.4012 78.8948 30.6622C81.1182 39.9232 79.9641 49.6736 75.6403 58.1596C71.3164 66.6457 64.1065 73.3105 55.3073 76.9552C46.5082 80.5999 36.6973 80.9854 27.6393 78.0423C18.5813 75.0991 10.8707 69.0206 5.89439 60.8999C0.918049 52.7793 -0.997437 43.1495 0.492465 33.7426C1.98237 24.3358 6.77988 15.7692 14.0221 9.58375C21.2643 3.39833 30.4759 -1.33214e-06 40 -1.74846e-06L40 30C37.619 30 35.3161 30.8496 33.5055 32.3959C31.695 33.9423 30.4956 36.0839 30.1231 38.4357C29.7506 40.7874 30.2295 43.1948 31.4736 45.225C32.7177 47.2551 34.6453 48.7748 36.9098 49.5106C39.1743 50.2463 41.627 50.15 43.8268 49.2388C46.0266 48.3276 47.8291 46.6614 48.9101 44.5399C49.991 42.4184 50.2795 39.9808 49.7237 37.6655C49.1679 35.3503 47.8041 33.3094 45.8779 31.9098L63.5114 7.63932Z"
      fill="#07C8CC" fill-opacity="0.15" />
    <circle cx="40" cy="40" r="30" fill="white" />
    <path d="M31.9701 28.186V25.05C34.4341 25.05 35.6661 24.21 36.3101 22.362H40.0341V40.002H35.2741V28.186H31.9701Z"
      fill="black" />
    <path
      d="M47.3987 25.282C47.3987 26.1886 47.1587 26.8926 46.6787 27.394C46.1987 27.8846 45.548 28.13 44.7267 28.13C43.9587 28.13 43.324 27.8846 42.8227 27.394C42.332 26.8926 42.0867 26.1886 42.0867 25.282C42.0867 24.3753 42.3267 23.6766 42.8067 23.186C43.2867 22.6953 43.9373 22.45 44.7587 22.45C45.26 22.45 45.708 22.562 46.1027 22.786C46.508 22.9993 46.8227 23.3193 47.0467 23.746C47.2813 24.162 47.3987 24.674 47.3987 25.282Z"
      fill="black" />
    <path
      d="M20.6628 54.592C20.6628 51.876 22.6088 50.014 25.1848 50.014C27.8868 50.014 29.3288 51.736 29.4968 53.934L27.2148 54.018C27.0748 53.038 26.5428 52.128 25.1708 52.128C23.8688 52.128 23.1128 53.094 23.1128 54.592C23.1128 56.09 23.8688 57.056 25.1708 57.056C26.5428 57.056 27.0748 56.146 27.2148 55.166L29.4968 55.264C29.3288 57.462 27.8868 59.17 25.1848 59.17C22.6088 59.17 20.6628 57.308 20.6628 54.592Z"
      fill="black" />
    <path d="M30.42 50.182H32.8V59.002H30.42V50.182Z" fill="black" />
    <path
      d="M33.7468 54.592C33.7468 51.876 35.6928 50.014 38.2688 50.014C40.9708 50.014 42.4128 51.736 42.5808 53.934L40.2988 54.018C40.1588 53.038 39.6268 52.128 38.2548 52.128C36.9528 52.128 36.1968 53.094 36.1968 54.592C36.1968 56.09 36.9528 57.056 38.2548 57.056C39.6268 57.056 40.1588 56.146 40.2988 55.166L42.5808 55.264C42.4128 57.462 40.9708 59.17 38.2688 59.17C35.6928 59.17 33.7468 57.308 33.7468 54.592Z"
      fill="black" />
    <path d="M43.504 50.182H45.884V57.042H50.252V59.002H43.504V50.182Z" fill="black" />
    <path
      d="M59.6098 54.592C59.6098 57.308 57.5938 59.17 55.0318 59.17C52.4698 59.17 50.4538 57.308 50.4538 54.592C50.4538 51.876 52.4698 50.014 55.0318 50.014C57.5938 50.014 59.6098 51.876 59.6098 54.592ZM57.1598 54.592C57.1598 53.094 56.3338 52.114 55.0318 52.114C53.7298 52.114 52.9038 53.094 52.9038 54.592C52.9038 56.09 53.7298 57.07 55.0318 57.07C56.3338 57.07 57.1598 56.09 57.1598 54.592Z"
      fill="black" />
  </symbol>

  <symbol id="arrow-down" viewBox="0 0 16 19">
    <path fill-rule="evenodd" clip-rule="evenodd"
      d="M9.0005 0.958008L9.0005 14.536L14.0215 9.49401L15.4385 10.905L7.9995 18.375L0.561496 10.905L1.9785 9.49401L7.0005 14.538L7.0005 0.958007L9.0005 0.958008Z"
      fill="black" />
  </symbol>

  <symbol id="chevron-down-2" viewBox="0 0 18 12" fill="none">
    <path d="M3 3.01501L9 8.98508L15 3.01501" stroke="currentColor" stroke-width="3" stroke-linecap="square" />
  </symbol>

  <!-- Player Icon -->
  <symbol id="player" viewBox="0 0 145 145" fill="none">
    <circle opacity="0.8" cx="72.2037" cy="72.2757" r="69.4702" stroke="currentColor" stroke-width="5.34386" />
    <path opacity="0.8" d="M51.6003 35.4525L112.47 70.5957L51.6003 105.739L51.6003 35.4525Z" fill="currentColor" />
  </symbol>

  <!-- Share Icon -->
  <symbol id="share" viewBox="0 0 25 24" fill="none">
    <path
      d="M16.2593 8.09455C16.8243 8.59544 17.5671 8.9 18.3799 8.9C20.1449 8.9 21.5799 7.464 21.5799 5.7C21.5799 3.936 20.1449 2.5 18.3799 2.5C16.6149 2.5 15.1799 3.936 15.1799 5.7C15.1799 5.92878 15.2041 6.15204 15.2499 6.36736L9.70071 9.60433C9.1359 9.10397 8.39346 8.79977 7.5811 8.79977C5.8161 8.79977 4.3811 10.2358 4.3811 11.9998C4.3811 13.7638 5.8161 15.1988 7.5811 15.1988C8.39389 15.1988 9.1367 14.8945 9.70161 14.3939L15.2509 17.6284C15.2044 17.8451 15.1799 18.0698 15.1799 18.3001C15.1799 20.0641 16.6149 21.5001 18.3799 21.5001C20.1449 21.5001 21.5799 20.0641 21.5799 18.3001C21.5799 16.5361 20.1449 15.1001 18.3799 15.1001C17.5685 15.1001 16.8268 15.4036 16.2622 15.903L10.7112 12.6668C10.757 12.4516 10.7811 12.2284 10.7811 11.9998C10.7811 11.7705 10.7569 11.5468 10.7108 11.3311L16.2593 8.09455Z"
      fill="currentColor" />
  </symbol>

  <!-- Unw (W) Icon -->
  <symbol id="unw-w" viewBox="0 0 505 266" fill="none">
    <path
      d="M14.9866 143.695C15.7837 143.96 16.8465 144.492 18.4407 144.492C20.3007 144.492 22.692 143.96 24.8176 141.835L85.6637 80.7231L11.5324 6.5918C10.7353 5.79469 9.14111 6.3261 9.14111 7.65462V129.347V134.927C9.14111 140.506 13.1267 142.898 14.9866 143.695Z"
      fill="currentColor" />
    <path
      d="M224.361 165.746C213.733 159.369 207.356 148.21 207.356 135.19V18.812C207.356 13.2322 203.37 11.1065 201.776 10.3094C200.979 10.0437 199.916 9.51233 198.322 9.51233C196.462 9.51233 194.07 10.0437 191.945 12.1694L43.6823 160.432C36.774 167.34 27.7401 171.06 18.7061 171.06C18.4404 171.06 18.1747 171.06 17.909 171.06C17.6433 171.06 17.3776 171.06 17.1119 171.06C16.5805 171.06 16.0491 171.06 15.252 171.06C14.7206 171.06 14.1891 171.06 13.6577 170.794C13.392 170.794 13.1263 170.794 12.8606 170.794C12.3292 170.794 11.7978 170.529 11.2664 170.529C8.87508 169.997 6.48374 169.466 4.35812 168.403C3.2953 167.872 2.4982 167.606 1.43539 167.075C0.638279 166.809 -0.158831 167.606 0.638279 168.403L86.992 254.757C100.809 268.573 123.128 268.573 136.944 254.757C136.944 254.757 224.095 167.606 224.361 167.34C224.892 166.277 224.892 166.012 224.361 165.746Z"
      fill="currentColor" />
    <path
      d="M233.661 18.5475V99.587V101.447V134.66C233.661 140.24 237.647 142.631 239.507 143.428C241.101 143.959 244.555 145.022 248.275 142.631C248.54 142.365 249.072 142.1 249.337 141.568L309.919 80.9877C310.185 80.722 310.185 80.4563 309.919 80.1906L229.941 0.213908C229.41 -0.317499 228.613 0.213908 229.144 1.01102C232.067 6.05939 233.661 12.1706 233.661 18.5475Z"
      fill="currentColor" />
    <path
      d="M427.092 6.32622C425.764 4.9977 423.373 4.9977 422.044 6.32622L270.859 157.512L268.467 159.903C267.405 160.966 266.608 161.763 265.544 162.56L265.278 162.826C265.013 163.091 264.747 163.357 264.216 163.623C258.104 168.405 250.665 170.797 242.959 170.797C238.442 170.797 233.66 170 229.143 167.874C228.08 167.343 227.283 167.077 226.486 166.546C225.689 166.28 225.157 167.077 225.954 167.608C226.751 168.405 312.309 253.962 312.309 253.962C326.125 267.779 348.444 267.779 362.261 253.962L493.518 122.704C507.601 108.622 507.601 86.0374 493.518 72.2208L427.092 6.32622Z"
      fill="currentColor" />
  </symbol>

  <!-- Question Mark -->
  <svg id="question-mark" viewBox="0 0 32 32" fill="none">
    <path
      d="M15.999 3.8335C22.7068 3.83367 28.165 9.29144 28.165 16.0005C28.1649 22.7081 22.7066 28.1663 15.999 28.1665C9.29127 28.1665 3.83221 22.7082 3.83203 16.0005C3.83203 9.29133 9.29113 3.8335 15.999 3.8335Z"
      fill="#FAC93D" stroke="black" />
    <path fill-rule="evenodd" clip-rule="evenodd"
      d="M18.2796 17.0606L18.0916 17.166C17.2276 17.6486 16.9223 17.8966 16.929 18.3206C16.9356 18.8726 16.4943 19.326 15.9423 19.334H15.929C15.3823 19.334 14.9356 18.8953 14.929 18.3473C14.9063 16.6566 16.289 15.8833 17.1143 15.422L17.3023 15.3153C18.061 14.898 18.4396 14.3193 18.4396 13.5913C18.4396 12.3874 17.4596 11.4087 16.2556 11.4087C15.0303 11.4087 14.0703 12.3674 14.0703 13.5913C14.0703 14.1433 13.6223 14.5913 13.0703 14.5913C12.5183 14.5913 12.0703 14.1433 12.0703 13.5913C12.0703 11.2847 13.9476 9.40869 16.2556 9.40869C18.5623 9.40869 20.4396 11.2847 20.4396 13.5913C20.4396 15.062 19.6716 16.294 18.2796 17.0606ZM15.9303 22.614C15.3783 22.614 14.9303 22.186 14.9303 21.634V21.594C14.9303 21.042 15.3783 20.594 15.9303 20.594C16.4823 20.594 16.9303 21.042 16.9303 21.594C16.9303 22.146 16.4823 22.614 15.9303 22.614Z"
      fill="black" />
  </svg>

  <!-- Facebook Fill -->
  <svg id="facebook-fill" viewBox="0 0 24 24" fill="none">
    <path
      d="M20 3H4C3.73478 3 3.48043 3.10536 3.29289 3.29289C3.10536 3.48043 3 3.73478 3 4V20C3 20.2652 3.10536 20.5196 3.29289 20.7071C3.48043 20.8946 3.73478 21 4 21H12.615V14.04H10.277V11.315H12.615V9.315C12.615 6.99 14.035 5.723 16.115 5.723C16.814 5.721 17.514 5.757 18.21 5.83V8.25H16.775C15.647 8.25 15.427 8.788 15.427 9.575V11.31H18.124L17.774 14.035H15.426V21H20C20.2652 21 20.5196 20.8946 20.7071 20.7071C20.8946 20.5196 21 20.2652 21 20V4C21 3.73478 20.8946 3.48043 20.7071 3.29289C20.5196 3.10536 20.2652 3 20 3Z"
      fill="currentColor" />
  </svg>

  <!-- Instagram Fill -->
  <svg id="instagram-fill" viewBox="0 0 24 24" fill="none">
    <path
      d="M20.9469 8.30502C20.9369 7.54764 20.7951 6.79779 20.5279 6.08902C20.2963 5.49117 19.9425 4.94822 19.4891 4.49485C19.0358 4.04148 18.4928 3.68767 17.8949 3.45602C17.1953 3.19338 16.4561 3.05136 15.7089 3.03602C14.7469 2.99302 14.4419 2.98102 11.9999 2.98102C9.55795 2.98102 9.24495 2.98102 8.28995 3.03602C7.54311 3.05147 6.8043 3.19349 6.10495 3.45602C5.50701 3.68751 4.96397 4.04126 4.51058 4.49465C4.05719 4.94804 3.70344 5.49108 3.47195 6.08902C3.20878 6.78815 3.06707 7.52713 3.05295 8.27402C3.00995 9.23702 2.99695 9.54202 2.99695 11.984C2.99695 14.426 2.99695 14.738 3.05295 15.694C3.06795 16.442 3.20895 17.18 3.47195 17.881C3.70383 18.4788 4.05784 19.0216 4.51138 19.4748C4.96492 19.928 5.50801 20.2816 6.10595 20.513C6.80338 20.7862 7.54232 20.9384 8.29095 20.963C9.25395 21.006 9.55895 21.019 12.0009 21.019C14.4429 21.019 14.7559 21.019 15.7109 20.963C16.4581 20.9483 17.1973 20.8066 17.8969 20.544C18.4946 20.3121 19.0375 19.9582 19.4908 19.5049C19.9441 19.0515 20.298 18.5087 20.5299 17.911C20.7929 17.211 20.9339 16.473 20.9489 15.724C20.9919 14.762 21.0049 14.457 21.0049 12.014C21.0029 9.57202 21.0029 9.26202 20.9469 8.30502ZM11.9939 16.602C9.43995 16.602 7.37095 14.533 7.37095 11.979C7.37095 9.42502 9.43995 7.35602 11.9939 7.35602C13.22 7.35602 14.3959 7.84308 15.2629 8.71006C16.1299 9.57704 16.6169 10.7529 16.6169 11.979C16.6169 13.2051 16.1299 14.381 15.2629 15.248C14.3959 16.115 13.22 16.602 11.9939 16.602ZM16.8009 8.26302C16.6593 8.26315 16.5191 8.23536 16.3883 8.18123C16.2574 8.1271 16.1385 8.0477 16.0384 7.94757C15.9383 7.84745 15.8589 7.72855 15.8047 7.59771C15.7506 7.46686 15.7228 7.32662 15.7229 7.18502C15.7229 7.04352 15.7508 6.90341 15.805 6.77268C15.8591 6.64195 15.9385 6.52317 16.0385 6.42311C16.1386 6.32306 16.2574 6.24369 16.3881 6.18954C16.5188 6.13539 16.6589 6.10752 16.8004 6.10752C16.9419 6.10752 17.0821 6.13539 17.2128 6.18954C17.3435 6.24369 17.4623 6.32306 17.5624 6.42311C17.6624 6.52317 17.7418 6.64195 17.7959 6.77268C17.8501 6.90341 17.8779 7.04352 17.8779 7.18502C17.8779 7.78102 17.3959 8.26302 16.8009 8.26302Z"
      fill="currentColor" />
    <path
      d="M11.994 14.982C13.6525 14.982 14.997 13.6375 14.997 11.979C14.997 10.3205 13.6525 8.97601 11.994 8.97601C10.3355 8.97601 8.99097 10.3205 8.99097 11.979C8.99097 13.6375 10.3355 14.982 11.994 14.982Z"
      fill="currentColor" />
  </svg>

  <!-- Linkedin Fill -->
  <svg id="linkedin-fill" viewBox="0 0 24 24" fill="none">
    <path
      d="M20 3H4C3.73478 3 3.48043 3.10536 3.29289 3.29289C3.10536 3.48043 3 3.73478 3 4V20C3 20.2652 3.10536 20.5196 3.29289 20.7071C3.48043 20.8946 3.73478 21 4 21H20C20.2652 21 20.5196 20.8946 20.7071 20.7071C20.8946 20.5196 21 20.2652 21 20V4C21 3.73478 20.8946 3.48043 20.7071 3.29289C20.5196 3.10536 20.2652 3 20 3ZM8.339 18.337H5.667V9.747H8.339V18.337ZM7.003 8.574C6.59244 8.574 6.1987 8.41091 5.9084 8.1206C5.61809 7.8303 5.455 7.43655 5.455 7.026C5.455 6.61544 5.61809 6.22171 5.9084 5.9314C6.1987 5.64109 6.59244 5.478 7.003 5.478C7.41356 5.478 7.80729 5.64109 8.0976 5.9314C8.38791 6.22171 8.551 6.61544 8.551 7.026C8.551 7.43655 8.38791 7.8303 8.0976 8.1206C7.80729 8.41091 7.41356 8.574 7.003 8.574ZM18.338 18.337H15.669V14.16C15.669 13.164 15.651 11.883 14.281 11.883C12.891 11.883 12.68 12.969 12.68 14.09V18.338H10.013V9.748H12.573V10.922H12.61C12.965 10.247 13.837 9.535 15.134 9.535C17.838 9.535 18.337 11.313 18.337 13.627V18.337H18.338Z"
      fill="currentColor" />
  </svg>

  <!-- Youtube Fill -->
  <svg id="youtube-fill" viewBox="0 0 24 24" fill="none">
    <path
      d="M21.5933 7.20301C21.4794 6.78041 21.2568 6.39501 20.9477 6.08518C20.6386 5.77534 20.2537 5.55187 19.8313 5.43701C18.2653 5.00701 12.0003 5.00001 12.0003 5.00001C12.0003 5.00001 5.73633 4.99301 4.16933 5.40401C3.74725 5.52415 3.36315 5.75078 3.0539 6.06214C2.74464 6.3735 2.52062 6.75913 2.40333 7.18201C1.99033 8.74801 1.98633 11.996 1.98633 11.996C1.98633 11.996 1.98233 15.26 2.39233 16.81C2.62233 17.667 3.29733 18.344 4.15533 18.575C5.73733 19.005 11.9853 19.012 11.9853 19.012C11.9853 19.012 18.2503 19.019 19.8163 18.609C20.2388 18.4943 20.6241 18.2714 20.934 17.9622C21.2439 17.653 21.4677 17.2682 21.5833 16.846C21.9973 15.281 22.0003 12.034 22.0003 12.034C22.0003 12.034 22.0203 8.76901 21.5933 7.20301ZM9.99633 15.005L10.0013 9.00501L15.2083 12.01L9.99633 15.005Z"
      fill="currentColor" />
  </svg>

  <!-- TikTok Fill -->
  <svg id="tiktok-fill" viewBox="0 0 24 24" fill="none">
    <path fill-rule="evenodd" clip-rule="evenodd"
      d="M16.308 10.2516C15.175 10.2516 14.281 9.84076 13.612 9.29739V14.4948C13.612 16.2574 12.116 17.6916 10.277 17.6916C8.437 17.6916 6.941 16.2574 6.941 14.4948C6.941 12.7265 8.437 11.2884 10.277 11.2884C10.691 11.2884 11.027 11.611 11.027 12.0084C11.027 12.4059 10.691 12.7284 10.277 12.7284C9.265 12.7284 8.441 13.5204 8.441 14.4948C8.441 15.4635 9.265 16.2516 10.277 16.2516C11.288 16.2516 12.112 15.4635 12.112 14.4948V7.04523C12.112 6.69195 12.378 6.39147 12.741 6.33483C13.104 6.27435 13.456 6.48171 13.573 6.81771C13.58 6.83691 14.29 8.81163 16.308 8.81163C16.722 8.81163 17.058 9.13419 17.058 9.53163C17.058 9.92908 16.722 10.2516 16.308 10.2516ZM16.217 2.88843H7.782C4.622 2.88843 2.5 5.02251 2.5 8.19723V15.8196C2.5 18.9944 4.622 21.1284 7.782 21.1284H16.216C19.376 21.1284 21.5 18.9944 21.5 15.8196V8.19723C21.5 5.02251 19.377 2.88843 16.217 2.88843Z"
      fill="currentColor" />
  </svg>

</svg>
