<svg xmlns="http://www.w3.org/2000/svg" style="display: none;">
  <!-- Arrow Right -->
  <symbol id="arrow-right" viewBox="0 0 17 16">
    <path
      d="M8.73326 1.97778L9.79172 0.914917L16.9068 8.00058L9.79163 15.0852L8.73326 14.0222L14.0283 8.75002H0.09375V7.25002H14.0274L8.73326 1.97778Z"
      fill="currentColor" />
  </symbol>

  <!-- Arrow Left -->
  <svg id="arrow-left" viewBox="0 0 32 32">
    <path
      d="M15.6896 24.0296L14.2783 25.4468L4.7915 15.9992L14.2784 6.55308L15.6896 7.97033L8.62961 15L27.209 15L27.209 17L8.63072 17L15.6896 24.0296Z"
      fill="currentColor" />
  </svg>


  <!-- Search -->
  <symbol id="search" viewBox="0 0 24 24">
    <path fill-rule="evenodd" clip-rule="evenodd"
      d="M17.3236 18.6057C15.7601 19.8456 13.7828 20.586 11.6324 20.586C6.56899 20.586 2.46484 16.4807 2.46484 11.4175C2.46484 6.35425 6.5691 2.25 11.6324 2.25C16.6956 2.25 20.7999 6.35425 20.7999 11.4175C20.7999 13.7902 19.8987 15.9525 18.4198 17.5805L21.3159 20.4692C21.6091 20.7617 21.6097 21.2366 21.3172 21.5298C21.0247 21.8231 20.5498 21.8237 20.2566 21.5312L17.3236 18.6057ZM3.96484 11.4175C3.96484 7.18269 7.39752 3.75 11.6324 3.75C15.8672 3.75 19.2999 7.18268 19.2999 11.4175C19.2999 13.6221 18.3696 15.6096 16.8802 17.0085C15.4573 18.3185 13.6345 19.086 11.6324 19.086C7.39764 19.086 3.96484 15.6525 3.96484 11.4175Z"
      fill="currentColor" />
  </symbol>

  <symbol id="search-black" viewBox="0 0 24 24">
    <path fill-rule="evenodd" clip-rule="evenodd"
      d="M17.3236 18.6057C15.7601 19.8456 13.7828 20.586 11.6324 20.586C6.56899 20.586 2.46484 16.4807 2.46484 11.4175C2.46484 6.35425 6.5691 2.25 11.6324 2.25C16.6956 2.25 20.7999 6.35425 20.7999 11.4175C20.7999 13.7902 19.8987 15.9525 18.4198 17.5805L21.3159 20.4692C21.6091 20.7617 21.6097 21.2366 21.3172 21.5298C21.0247 21.8231 20.5498 21.8237 20.2566 21.5312L17.3236 18.6057ZM3.96484 11.4175C3.96484 7.18269 7.39752 3.75 11.6324 3.75C15.8672 3.75 19.2999 7.18268 19.2999 11.4175C19.2999 13.6221 18.3696 15.6096 16.8802 17.0085C15.4573 18.3185 13.6345 19.086 11.6324 19.086C7.39764 19.086 3.96484 15.6525 3.96484 11.4175Z"
      fill="black" />
  </symbol>

  <symbol id="search-strong" viewBox="0 0 24 24">
    <path
      d="M11.6318 2C16.8329 2.00022 21.0488 6.21679 21.0488 11.418C21.0487 13.7688 20.1851 15.9173 18.7607 17.5674L21.4912 20.292C21.8822 20.682 21.8831 21.315 21.4932 21.7061C21.1031 22.0971 20.4701 22.098 20.0791 21.708L17.2998 18.9365C15.7227 20.1275 13.7602 20.8358 11.6318 20.8359C6.43047 20.8359 2.21412 16.619 2.21387 11.418C2.21387 6.21665 6.43047 2 11.6318 2ZM11.6318 4C7.53503 4 4.21387 7.32123 4.21387 11.418C4.21412 15.5147 7.53533 18.8359 11.6318 18.8359C13.4473 18.8358 15.1101 18.1838 16.3994 17.1006L16.6523 16.8779C16.6704 16.8599 16.6889 16.8426 16.708 16.8262C18.1491 15.4726 19.0487 13.5506 19.0488 11.418C19.0488 7.32136 15.7284 4.00022 11.6318 4Z"
      fill="currentColor" stroke="currentColor" stroke-width="0.5" stroke-linecap="round" stroke-linejoin="round" />
  </symbol>

  <!-- Search 2 -->
  <symbol id="search2" viewBox="0 0 40 40">
    <path fill-rule="evenodd" clip-rule="evenodd"
      d="M9.63479 18.1008C9.63479 12.9046 13.7951 8.67776 18.9079 8.67776C24.0194 8.67776 28.1797 12.9046 28.1797 18.1008C28.1797 23.297 24.0194 27.5252 18.9079 27.5252C13.7951 27.5252 9.63479 23.297 9.63479 18.1008ZM34 32.1041L27.9413 25.9627C29.7277 23.8459 30.8145 21.1026 30.8145 18.1008C30.8145 11.4292 25.4725 6 18.9079 6C12.342 6 7 11.4292 7 18.1008C7 24.7738 12.342 30.2029 18.9079 30.2029C21.5717 30.2029 24.026 29.2978 26.0113 27.7889L32.1398 34L34 32.1041Z"
      fill="currentColor" />
  </symbol>

  <!-- Close -->
  <symbol id="close" viewBox="0 0 40 40">
    <path
      d="M32 10.2461L22.2051 20.0771L31.8457 29.7539L29.6084 32L19.9678 22.3232L10.3916 31.9365L8.1543 29.6895L17.7295 20.0771L8 10.3105L10.2383 8.06348L19.9678 17.8301L29.7617 8L32 10.2461Z"
      fill="currentColor" />
  </symbol>

  <symbol id="remove" viewBox="0 0 12 12">
    <path
      d="M12 1.12305L7.10254 6.03809L11.9229 10.877L10.8037 12L5.9834 7.16113L1.19629 11.9678L0.0771484 10.8447L4.86426 6.03809L0 1.15527L1.11914 0.0322266L5.9834 4.91504L10.8809 0L12 1.12305Z"
      fill="currentColor" />
  </symbol>

  <!-- Back -->
  <symbol id="back" viewBox="0 0 24 24">
    <path d="M14.985 6L9.01492 12L14.985 18" stroke="#07C8CC" stroke-width="3" stroke-linecap="square" fill="none" />
  </symbol>

  <!-- Forward -->
  <symbol id="forward" viewBox="0 0 24 24">
    <path d="M9.01501 18L14.9851 12L9.01501 6" stroke="#07C8CC" stroke-width="3" stroke-linecap="square" fill="none" />
  </symbol>

  <!-- Chevron Right Icon -->
  <symbol id="chevron-right" viewBox="0 0 16 17">
    <path fill-rule="evenodd" clip-rule="evenodd"
      d="M6.23137 13.6187C5.97444 13.8864 5.54641 13.8864 5.28949 13.6187C5.04697 13.3661 5.04697 12.9671 5.28949 12.7145L9.33544 8.49996L5.28949 4.2854C5.04697 4.03278 5.04697 3.63381 5.28949 3.38119C5.54641 3.11356 5.97444 3.11356 6.23137 3.38119L10.7021 8.03827C10.9498 8.29625 10.9498 8.70367 10.7021 8.96165L6.23137 13.6187Z"
      fill="currentColor" />
  </symbol>

  <symbol id="ciclo-1" viewBox="0 0 80 80">
    <path
      d="M40 -1.74846e-06C48.4472 -2.11769e-06 56.6775 2.6742 63.5114 7.63932L45.8779 31.9098C44.1694 30.6685 42.1118 30 40 30L40 -1.74846e-06Z"
      fill="#07C8CC" />
    <path
      d="M63.5114 7.63932C71.2166 13.2375 76.6714 21.4012 78.8948 30.6622C81.1182 39.9232 79.9641 49.6736 75.6403 58.1596C71.3164 66.6457 64.1065 73.3105 55.3073 76.9552C46.5082 80.5999 36.6973 80.9854 27.6393 78.0423C18.5813 75.0991 10.8707 69.0206 5.89439 60.8999C0.918049 52.7793 -0.997437 43.1495 0.492465 33.7426C1.98237 24.3358 6.77988 15.7692 14.0221 9.58375C21.2643 3.39833 30.4759 -1.33214e-06 40 -1.74846e-06L40 30C37.619 30 35.3161 30.8496 33.5055 32.3959C31.695 33.9423 30.4956 36.0839 30.1231 38.4357C29.7506 40.7874 30.2295 43.1948 31.4736 45.225C32.7177 47.2551 34.6453 48.7748 36.9098 49.5106C39.1743 50.2463 41.627 50.15 43.8268 49.2388C46.0266 48.3276 47.8291 46.6614 48.9101 44.5399C49.991 42.4184 50.2795 39.9808 49.7237 37.6655C49.1679 35.3503 47.8041 33.3094 45.8779 31.9098L63.5114 7.63932Z"
      fill="#07C8CC" fill-opacity="0.15" />
    <circle cx="40" cy="40" r="30" fill="white" />
    <path d="M31.9701 28.186V25.05C34.4341 25.05 35.6661 24.21 36.3101 22.362H40.0341V40.002H35.2741V28.186H31.9701Z"
      fill="black" />
    <path
      d="M47.3987 25.282C47.3987 26.1886 47.1587 26.8926 46.6787 27.394C46.1987 27.8846 45.548 28.13 44.7267 28.13C43.9587 28.13 43.324 27.8846 42.8227 27.394C42.332 26.8926 42.0867 26.1886 42.0867 25.282C42.0867 24.3753 42.3267 23.6766 42.8067 23.186C43.2867 22.6953 43.9373 22.45 44.7587 22.45C45.26 22.45 45.708 22.562 46.1027 22.786C46.508 22.9993 46.8227 23.3193 47.0467 23.746C47.2813 24.162 47.3987 24.674 47.3987 25.282Z"
      fill="black" />
    <path
      d="M20.6628 54.592C20.6628 51.876 22.6088 50.014 25.1848 50.014C27.8868 50.014 29.3288 51.736 29.4968 53.934L27.2148 54.018C27.0748 53.038 26.5428 52.128 25.1708 52.128C23.8688 52.128 23.1128 53.094 23.1128 54.592C23.1128 56.09 23.8688 57.056 25.1708 57.056C26.5428 57.056 27.0748 56.146 27.2148 55.166L29.4968 55.264C29.3288 57.462 27.8868 59.17 25.1848 59.17C22.6088 59.17 20.6628 57.308 20.6628 54.592Z"
      fill="black" />
    <path d="M30.42 50.182H32.8V59.002H30.42V50.182Z" fill="black" />
    <path
      d="M33.7468 54.592C33.7468 51.876 35.6928 50.014 38.2688 50.014C40.9708 50.014 42.4128 51.736 42.5808 53.934L40.2988 54.018C40.1588 53.038 39.6268 52.128 38.2548 52.128C36.9528 52.128 36.1968 53.094 36.1968 54.592C36.1968 56.09 36.9528 57.056 38.2548 57.056C39.6268 57.056 40.1588 56.146 40.2988 55.166L42.5808 55.264C42.4128 57.462 40.9708 59.17 38.2688 59.17C35.6928 59.17 33.7468 57.308 33.7468 54.592Z"
      fill="black" />
    <path d="M43.504 50.182H45.884V57.042H50.252V59.002H43.504V50.182Z" fill="black" />
    <path
      d="M59.6098 54.592C59.6098 57.308 57.5938 59.17 55.0318 59.17C52.4698 59.17 50.4538 57.308 50.4538 54.592C50.4538 51.876 52.4698 50.014 55.0318 50.014C57.5938 50.014 59.6098 51.876 59.6098 54.592ZM57.1598 54.592C57.1598 53.094 56.3338 52.114 55.0318 52.114C53.7298 52.114 52.9038 53.094 52.9038 54.592C52.9038 56.09 53.7298 57.07 55.0318 57.07C56.3338 57.07 57.1598 56.09 57.1598 54.592Z"
      fill="black" />
  </symbol>

  <symbol id="arrow-down" viewBox="0 0 16 19">
    <path fill-rule="evenodd" clip-rule="evenodd"
      d="M9.0005 0.958008L9.0005 14.536L14.0215 9.49401L15.4385 10.905L7.9995 18.375L0.561496 10.905L1.9785 9.49401L7.0005 14.538L7.0005 0.958007L9.0005 0.958008Z"
      fill="black" />
  </symbol>

  <symbol id="chevron-down-2" viewBox="0 0 18 12" fill="none">
    <path d="M3 3.01501L9 8.98508L15 3.01501" stroke="currentColor" stroke-width="3" stroke-linecap="square" />
  </symbol>

  <!-- Player Icon -->
  <symbol id="player" viewBox="0 0 145 145" fill="none">
    <circle opacity="0.8" cx="72.2037" cy="72.2757" r="69.4702" stroke="currentColor" stroke-width="5.34386" />
    <path opacity="0.8" d="M51.6003 35.4525L112.47 70.5957L51.6003 105.739L51.6003 35.4525Z" fill="currentColor" />
  </symbol>

  <!-- Share Icon -->
  <symbol id="share" viewBox="0 0 25 24" fill="none">
    <path
      d="M16.2593 8.09455C16.8243 8.59544 17.5671 8.9 18.3799 8.9C20.1449 8.9 21.5799 7.464 21.5799 5.7C21.5799 3.936 20.1449 2.5 18.3799 2.5C16.6149 2.5 15.1799 3.936 15.1799 5.7C15.1799 5.92878 15.2041 6.15204 15.2499 6.36736L9.70071 9.60433C9.1359 9.10397 8.39346 8.79977 7.5811 8.79977C5.8161 8.79977 4.3811 10.2358 4.3811 11.9998C4.3811 13.7638 5.8161 15.1988 7.5811 15.1988C8.39389 15.1988 9.1367 14.8945 9.70161 14.3939L15.2509 17.6284C15.2044 17.8451 15.1799 18.0698 15.1799 18.3001C15.1799 20.0641 16.6149 21.5001 18.3799 21.5001C20.1449 21.5001 21.5799 20.0641 21.5799 18.3001C21.5799 16.5361 20.1449 15.1001 18.3799 15.1001C17.5685 15.1001 16.8268 15.4036 16.2622 15.903L10.7112 12.6668C10.757 12.4516 10.7811 12.2284 10.7811 11.9998C10.7811 11.7705 10.7569 11.5468 10.7108 11.3311L16.2593 8.09455Z"
      fill="currentColor" />
  </symbol>

  <!-- Unw (W) Icon -->
  <symbol id="unw-w" viewBox="0 0 505 266" fill="none">
    <path
      d="M14.9866 143.695C15.7837 143.96 16.8465 144.492 18.4407 144.492C20.3007 144.492 22.692 143.96 24.8176 141.835L85.6637 80.7231L11.5324 6.5918C10.7353 5.79469 9.14111 6.3261 9.14111 7.65462V129.347V134.927C9.14111 140.506 13.1267 142.898 14.9866 143.695Z"
      fill="currentColor" />
    <path
      d="M224.361 165.746C213.733 159.369 207.356 148.21 207.356 135.19V18.812C207.356 13.2322 203.37 11.1065 201.776 10.3094C200.979 10.0437 199.916 9.51233 198.322 9.51233C196.462 9.51233 194.07 10.0437 191.945 12.1694L43.6823 160.432C36.774 167.34 27.7401 171.06 18.7061 171.06C18.4404 171.06 18.1747 171.06 17.909 171.06C17.6433 171.06 17.3776 171.06 17.1119 171.06C16.5805 171.06 16.0491 171.06 15.252 171.06C14.7206 171.06 14.1891 171.06 13.6577 170.794C13.392 170.794 13.1263 170.794 12.8606 170.794C12.3292 170.794 11.7978 170.529 11.2664 170.529C8.87508 169.997 6.48374 169.466 4.35812 168.403C3.2953 167.872 2.4982 167.606 1.43539 167.075C0.638279 166.809 -0.158831 167.606 0.638279 168.403L86.992 254.757C100.809 268.573 123.128 268.573 136.944 254.757C136.944 254.757 224.095 167.606 224.361 167.34C224.892 166.277 224.892 166.012 224.361 165.746Z"
      fill="currentColor" />
    <path
      d="M233.661 18.5475V99.587V101.447V134.66C233.661 140.24 237.647 142.631 239.507 143.428C241.101 143.959 244.555 145.022 248.275 142.631C248.54 142.365 249.072 142.1 249.337 141.568L309.919 80.9877C310.185 80.722 310.185 80.4563 309.919 80.1906L229.941 0.213908C229.41 -0.317499 228.613 0.213908 229.144 1.01102C232.067 6.05939 233.661 12.1706 233.661 18.5475Z"
      fill="currentColor" />
    <path
      d="M427.092 6.32622C425.764 4.9977 423.373 4.9977 422.044 6.32622L270.859 157.512L268.467 159.903C267.405 160.966 266.608 161.763 265.544 162.56L265.278 162.826C265.013 163.091 264.747 163.357 264.216 163.623C258.104 168.405 250.665 170.797 242.959 170.797C238.442 170.797 233.66 170 229.143 167.874C228.08 167.343 227.283 167.077 226.486 166.546C225.689 166.28 225.157 167.077 225.954 167.608C226.751 168.405 312.309 253.962 312.309 253.962C326.125 267.779 348.444 267.779 362.261 253.962L493.518 122.704C507.601 108.622 507.601 86.0374 493.518 72.2208L427.092 6.32622Z"
      fill="currentColor" />
  </symbol>

  <!-- Question Mark -->
  <svg id="question-mark" viewBox="0 0 32 32" fill="none">
    <path
      d="M15.999 3.8335C22.7068 3.83367 28.165 9.29144 28.165 16.0005C28.1649 22.7081 22.7066 28.1663 15.999 28.1665C9.29127 28.1665 3.83221 22.7082 3.83203 16.0005C3.83203 9.29133 9.29113 3.8335 15.999 3.8335Z"
      fill="#FAC93D" stroke="black" />
    <path fill-rule="evenodd" clip-rule="evenodd"
      d="M18.2796 17.0606L18.0916 17.166C17.2276 17.6486 16.9223 17.8966 16.929 18.3206C16.9356 18.8726 16.4943 19.326 15.9423 19.334H15.929C15.3823 19.334 14.9356 18.8953 14.929 18.3473C14.9063 16.6566 16.289 15.8833 17.1143 15.422L17.3023 15.3153C18.061 14.898 18.4396 14.3193 18.4396 13.5913C18.4396 12.3874 17.4596 11.4087 16.2556 11.4087C15.0303 11.4087 14.0703 12.3674 14.0703 13.5913C14.0703 14.1433 13.6223 14.5913 13.0703 14.5913C12.5183 14.5913 12.0703 14.1433 12.0703 13.5913C12.0703 11.2847 13.9476 9.40869 16.2556 9.40869C18.5623 9.40869 20.4396 11.2847 20.4396 13.5913C20.4396 15.062 19.6716 16.294 18.2796 17.0606ZM15.9303 22.614C15.3783 22.614 14.9303 22.186 14.9303 21.634V21.594C14.9303 21.042 15.3783 20.594 15.9303 20.594C16.4823 20.594 16.9303 21.042 16.9303 21.594C16.9303 22.146 16.4823 22.614 15.9303 22.614Z"
      fill="black" />
  </svg>

  <!-- Facebook Fill -->
  <svg id="facebook-fill" viewBox="0 0 24 24" fill="none">
    <path
      d="M20 3H4C3.73478 3 3.48043 3.10536 3.29289 3.29289C3.10536 3.48043 3 3.73478 3 4V20C3 20.2652 3.10536 20.5196 3.29289 20.7071C3.48043 20.8946 3.73478 21 4 21H12.615V14.04H10.277V11.315H12.615V9.315C12.615 6.99 14.035 5.723 16.115 5.723C16.814 5.721 17.514 5.757 18.21 5.83V8.25H16.775C15.647 8.25 15.427 8.788 15.427 9.575V11.31H18.124L17.774 14.035H15.426V21H20C20.2652 21 20.5196 20.8946 20.7071 20.7071C20.8946 20.5196 21 20.2652 21 20V4C21 3.73478 20.8946 3.48043 20.7071 3.29289C20.5196 3.10536 20.2652 3 20 3Z"
      fill="currentColor" />
  </svg>

  <!-- Linkedin Fill -->
  <svg id="linkedin-fill" viewBox="0 0 24 24" fill="none">
    <path
      d="M20 3H4C3.73478 3 3.48043 3.10536 3.29289 3.29289C3.10536 3.48043 3 3.73478 3 4V20C3 20.2652 3.10536 20.5196 3.29289 20.7071C3.48043 20.8946 3.73478 21 4 21H20C20.2652 21 20.5196 20.8946 20.7071 20.7071C20.8946 20.5196 21 20.2652 21 20V4C21 3.73478 20.8946 3.48043 20.7071 3.29289C20.5196 3.10536 20.2652 3 20 3ZM8.339 18.337H5.667V9.747H8.339V18.337ZM7.003 8.574C6.59244 8.574 6.1987 8.41091 5.9084 8.1206C5.61809 7.8303 5.455 7.43655 5.455 7.026C5.455 6.61544 5.61809 6.22171 5.9084 5.9314C6.1987 5.64109 6.59244 5.478 7.003 5.478C7.41356 5.478 7.80729 5.64109 8.0976 5.9314C8.38791 6.22171 8.551 6.61544 8.551 7.026C8.551 7.43655 8.38791 7.8303 8.0976 8.1206C7.80729 8.41091 7.41356 8.574 7.003 8.574ZM18.338 18.337H15.669V14.16C15.669 13.164 15.651 11.883 14.281 11.883C12.891 11.883 12.68 12.969 12.68 14.09V18.338H10.013V9.748H12.573V10.922H12.61C12.965 10.247 13.837 9.535 15.134 9.535C17.838 9.535 18.337 11.313 18.337 13.627V18.337H18.338Z"
      fill="currentColor" />
  </svg>

  <!-- Youtube Fill -->
  <svg id="youtube-fill" viewBox="0 0 24 24" fill="none">
    <path
      d="M21.5933 7.20301C21.4794 6.78041 21.2568 6.39501 20.9477 6.08518C20.6386 5.77534 20.2537 5.55187 19.8313 5.43701C18.2653 5.00701 12.0003 5.00001 12.0003 5.00001C12.0003 5.00001 5.73633 4.99301 4.16933 5.40401C3.74725 5.52415 3.36315 5.75078 3.0539 6.06214C2.74464 6.3735 2.52062 6.75913 2.40333 7.18201C1.99033 8.74801 1.98633 11.996 1.98633 11.996C1.98633 11.996 1.98233 15.26 2.39233 16.81C2.62233 17.667 3.29733 18.344 4.15533 18.575C5.73733 19.005 11.9853 19.012 11.9853 19.012C11.9853 19.012 18.2503 19.019 19.8163 18.609C20.2388 18.4943 20.6241 18.2714 20.934 17.9622C21.2439 17.653 21.4677 17.2682 21.5833 16.846C21.9973 15.281 22.0003 12.034 22.0003 12.034C22.0003 12.034 22.0203 8.76901 21.5933 7.20301ZM9.99633 15.005L10.0013 9.00501L15.2083 12.01L9.99633 15.005Z"
      fill="currentColor" />
  </svg>

  <!-- Instagram Fill -->
  <svg id="instagram-fill" viewBox="0 0 24 25" fill="none">
    <path
      d="M20.9461 8.80886C20.936 8.05149 20.7942 7.30164 20.5271 6.59286C20.2954 5.99502 19.9416 5.45206 19.4883 4.99869C19.0349 4.54533 18.4919 4.19151 17.8941 3.95986C17.1944 3.69722 16.4553 3.5552 15.7081 3.53986C14.7461 3.49686 14.4411 3.48486 11.9991 3.48486C9.55709 3.48486 9.24409 3.48486 8.28909 3.53986C7.54225 3.55532 6.80344 3.69733 6.10409 3.95986C5.50615 4.19135 4.96311 4.54511 4.50973 4.9985C4.05634 5.45188 3.70258 5.99492 3.47109 6.59286C3.20792 7.292 3.06622 8.03097 3.05209 8.77786C3.00909 9.74086 2.99609 10.0459 2.99609 12.4879C2.99609 14.9299 2.99609 15.2419 3.05209 16.1979C3.06709 16.9459 3.20809 17.6839 3.47109 18.3849C3.70297 18.9826 4.05699 19.5254 4.51053 19.9786C4.96407 20.4318 5.50716 20.7854 6.10509 21.0169C6.80253 21.2901 7.54147 21.4422 8.29009 21.4669C9.25309 21.5099 9.55809 21.5229 12.0001 21.5229C14.4421 21.5229 14.7551 21.5229 15.7101 21.4669C16.4572 21.4522 17.1965 21.3105 17.8961 21.0479C18.4938 20.8159 19.0366 20.462 19.4899 20.0087C19.9433 19.5554 20.2972 19.0126 20.5291 18.4149C20.7921 17.7149 20.9331 16.9769 20.9481 16.2279C20.9911 15.2659 21.0041 14.9609 21.0041 12.5179C21.0021 10.0759 21.0021 9.76586 20.9461 8.80886ZM11.9931 17.1059C9.43909 17.1059 7.37009 15.0369 7.37009 12.4829C7.37009 9.92886 9.43909 7.85986 11.9931 7.85986C13.2192 7.85986 14.3951 8.34693 15.262 9.21391C16.129 10.0809 16.6161 11.2568 16.6161 12.4829C16.6161 13.709 16.129 14.8848 15.262 15.7518C14.3951 16.6188 13.2192 17.1059 11.9931 17.1059ZM16.8001 8.76686C16.6585 8.76699 16.5183 8.7392 16.3874 8.68507C16.2566 8.63095 16.1377 8.55155 16.0375 8.45142C15.9374 8.35129 15.858 8.2324 15.8039 8.10155C15.7498 7.9707 15.722 7.83047 15.7221 7.68886C15.7221 7.54736 15.75 7.40725 15.8041 7.27652C15.8583 7.14579 15.9376 7.02701 16.0377 6.92696C16.1377 6.8269 16.2565 6.74753 16.3873 6.69338C16.518 6.63923 16.6581 6.61136 16.7996 6.61136C16.9411 6.61136 17.0812 6.63923 17.2119 6.69338C17.3427 6.74753 17.4614 6.8269 17.5615 6.92696C17.6616 7.02701 17.7409 7.14579 17.7951 7.27652C17.8492 7.40725 17.8771 7.54736 17.8771 7.68886C17.8771 8.28486 17.3951 8.76686 16.8001 8.76686Z"
      fill="currentColor" />
    <path
      d="M11.9952 15.485C13.6537 15.485 14.9982 14.1405 14.9982 12.482C14.9982 10.8235 13.6537 9.479 11.9952 9.479C10.3367 9.479 8.99219 10.8235 8.99219 12.482C8.99219 14.1405 10.3367 15.485 11.9952 15.485Z"
      fill="currentColor" />
  </svg>


  <!-- TikTok Fill -->
  <svg id="tiktok-fill" viewBox="0 0 24 24" fill="none">
    <path fill-rule="evenodd" clip-rule="evenodd"
      d="M16.308 10.2516C15.175 10.2516 14.281 9.84076 13.612 9.29739V14.4948C13.612 16.2574 12.116 17.6916 10.277 17.6916C8.437 17.6916 6.941 16.2574 6.941 14.4948C6.941 12.7265 8.437 11.2884 10.277 11.2884C10.691 11.2884 11.027 11.611 11.027 12.0084C11.027 12.4059 10.691 12.7284 10.277 12.7284C9.265 12.7284 8.441 13.5204 8.441 14.4948C8.441 15.4635 9.265 16.2516 10.277 16.2516C11.288 16.2516 12.112 15.4635 12.112 14.4948V7.04523C12.112 6.69195 12.378 6.39147 12.741 6.33483C13.104 6.27435 13.456 6.48171 13.573 6.81771C13.58 6.83691 14.29 8.81163 16.308 8.81163C16.722 8.81163 17.058 9.13419 17.058 9.53163C17.058 9.92908 16.722 10.2516 16.308 10.2516ZM16.217 2.88843H7.782C4.622 2.88843 2.5 5.02251 2.5 8.19723V15.8196C2.5 18.9944 4.622 21.1284 7.782 21.1284H16.216C19.376 21.1284 21.5 18.9944 21.5 15.8196V8.19723C21.5 5.02251 19.377 2.88843 16.217 2.88843Z"
      fill="currentColor" />
  </svg>


  <!-- Chat -->
  <svg id="chat" viewBox="0 0 52 52" fill="none">
    <path fill-rule="evenodd" clip-rule="evenodd"
      d="M25.8977 29.4679C24.7121 29.4679 23.7553 28.5111 23.7553 27.3255C23.7553 26.1399 24.7121 25.1623 25.8977 25.1623C27.0833 25.1623 28.0609 26.1399 28.0609 27.3255C28.0609 28.5111 27.0833 29.4679 25.8977 29.4679ZM16.1633 29.4679C14.9777 29.4679 14.0001 28.5111 14.0001 27.3255C14.0001 26.1399 14.9777 25.1623 16.1633 25.1623C17.3489 25.1623 18.3057 26.1399 18.3057 27.3255C18.3057 28.5111 17.3489 29.4679 16.1633 29.4679ZM29.4961 14.5959H13.2097C9.4241 14.5959 6.3457 17.6743 6.3457 21.4599V32.5879C6.3457 36.3527 9.4241 39.4311 13.2097 39.4311H14.9153C15.7057 39.4311 16.4545 39.7431 17.0161 40.3047L19.3041 42.5927C19.8449 43.1335 20.5729 43.4455 21.3425 43.4455C22.1121 43.4455 22.8401 43.1335 23.4017 42.5927L25.6897 40.3047C26.2305 39.7431 26.9793 39.4311 27.7697 39.4311H29.4961C33.2609 39.4311 36.3393 36.3527 36.3393 32.5879V21.4599C36.3393 17.6743 33.2609 14.5959 29.4961 14.5959Z"
      fill="#07C8CC" />
    <path fill-rule="evenodd" clip-rule="evenodd"
      d="M25.8977 29.4682C24.7121 29.4682 23.7553 28.5114 23.7553 27.3258C23.7553 26.1402 24.7121 25.1626 25.8977 25.1626C27.0833 25.1626 28.0609 26.1402 28.0609 27.3258C28.0609 28.5114 27.0833 29.4682 25.8977 29.4682ZM16.1632 29.4682C14.9776 29.4682 14 28.5114 14 27.3258C14 26.1402 14.9776 25.1626 16.1632 25.1626C17.3488 25.1626 18.3056 26.1402 18.3056 27.3258C18.3056 28.5114 17.3488 29.4682 16.1632 29.4682Z"
      fill="#DAF7F7" />
    <path fill-rule="evenodd" clip-rule="evenodd"
      d="M37.9833 6.65039H21.6969C18.6119 6.65039 15.9909 8.69235 15.1493 11.4961C15.073 11.7503 15.271 11.996 15.5364 11.996H29.4969C34.6969 11.996 38.9401 16.2392 38.9401 21.4601V30.9253C38.9401 31.1776 39.1635 31.3727 39.4104 31.3207C42.5061 30.6699 44.8265 27.9099 44.8265 24.6217V13.4936C44.8265 9.72879 41.7481 6.65039 37.9833 6.65039Z"
      fill="#00877D" />
  </svg>

  <svg id="hamburguer" viewBox="0 0 40 40" fill="none">
    <path fill-rule="evenodd" clip-rule="evenodd"
      d="M33.3333 33.3334H6.66667C5.74667 33.3334 5 32.5884 5 31.6667C5 30.7451 5.74667 30.0001 6.66667 30.0001H33.3333C34.2533 30.0001 35 30.7451 35 31.6667C35 32.5884 34.2533 33.3334 33.3333 33.3334Z"
      fill="#242424" />
    <path fill-rule="evenodd" clip-rule="evenodd"
      d="M33.3333 10.0001H6.66667C5.74667 10.0001 5 9.25508 5 8.33341C5 7.41175 5.74667 6.66675 6.66667 6.66675H33.3333C34.2533 6.66675 35 7.41175 35 8.33341C35 9.25508 34.2533 10.0001 33.3333 10.0001Z"
      fill="#242424" />
    <path fill-rule="evenodd" clip-rule="evenodd"
      d="M33.3333 21.6667H6.66667C5.74667 21.6667 5 20.9217 5 20.0001C5 19.0784 5.74667 18.3334 6.66667 18.3334H33.3333C34.2533 18.3334 35 19.0784 35 20.0001C35 20.9217 34.2533 21.6667 33.3333 21.6667Z"
      fill="#242424" />
  </svg>

  <!-- Phone -->
  <svg id="phone" viewBox="0 0 24 24" fill="none">
    <path d="M17.4429 21H17.4359C15.5087 20.9929 11.6827 20.4002 7.6943 16.4766C7.6745 16.4638 7.65765 16.447 7.64489 16.4272L7.55312 16.3495C7.54163 16.3396 7.53206 16.3276 7.52488 16.3142C3.60002 12.3201 3.00706 8.5023 3 6.56872C3.00074 6.11824 3.09311 5.67261 3.2715 5.25893C3.44988 4.84525 3.71056 4.47215 4.03769 4.16233C4.61802 3.58575 5.35399 3.1909 6.15542 3.02617C7.30605 2.81447 8.37198 3.88711 9.31084 6.2441C9.60684 6.99201 9.62189 7.82178 9.35319 8.57992L8.73905 10.3159C8.73905 10.323 8.73199 10.33 8.73199 10.3371C8.72493 10.4288 8.6967 11.2686 10.7085 13.301C12.7345 15.3122 13.5816 15.2839 13.6663 15.2769C13.6734 15.2769 13.6804 15.2698 13.6875 15.2698L15.417 14.6559C16.1753 14.3872 17.0054 14.4022 17.7535 14.6982C20.1042 15.6368 21.1913 16.6953 20.9725 17.8526C20.8047 18.6527 20.4102 19.3877 19.836 19.9697C19.5275 20.2942 19.1564 20.5529 18.745 20.73C18.3337 20.9071 17.8908 20.9989 17.4429 21ZM8.35786 15.6509C8.37288 15.6589 8.38517 15.6712 8.39315 15.6862C12.1274 19.3769 15.664 19.9344 17.4359 19.9415H17.4429C17.7475 19.9413 18.0487 19.8786 18.328 19.7572C18.6073 19.6358 18.8587 19.4583 19.0665 19.2358C19.5035 18.8016 19.8051 18.2501 19.9348 17.648C20.0336 17.1117 19.0242 16.3354 17.3653 15.6721C16.8571 15.4689 16.2921 15.4589 15.777 15.6438L14.0687 16.2507C13.6945 16.4201 12.5086 16.5824 9.96027 14.049C7.42606 11.4944 7.58842 10.3089 7.75078 9.93484L8.35786 8.22708C8.54062 7.71129 8.52806 7.14645 8.32256 6.63929C7.65901 4.97387 6.87545 3.95768 6.34601 4.07059C5.74433 4.20182 5.19303 4.50311 4.75772 4.93858C4.53625 5.14873 4.35956 5.40146 4.23826 5.68159C4.11695 5.96172 4.05353 6.26347 4.05181 6.56872C4.05887 8.33999 4.61653 11.8684 8.30844 15.6086C8.32637 15.6209 8.34293 15.6351 8.35786 15.6509Z" fill="currentColor"/>
  </svg>

  <!-- Whatsapp -->
  <svg id="whatsapp" viewBox="0 0 24 24" fill="none">
    <path d="M15.467 13.1739C15.6239 13.2522 15.7807 13.4087 15.8591 13.5652C15.9375 13.7217 15.9375 13.9565 15.8591 14.113L15.5455 15.0522C15.2318 15.8348 14.1341 16.1478 13.1932 15.6C10.292 14.0348 9.11591 12.9391 7.54773 10.0435C6.99886 9.10435 7.3125 8.0087 8.09659 7.69565L8.95909 7.30435C9.11591 7.22609 9.35114 7.22609 9.50796 7.30435C9.66477 7.38261 9.82159 7.53913 9.9 7.69565C10.1352 8.16522 10.3705 8.63478 10.6841 9.10435C10.7625 9.26087 10.8409 9.49565 10.7625 9.65217C10.7625 9.8087 10.6057 10.0435 10.4489 10.1217L9.82159 10.5913C10.4489 11.6087 11.3898 12.4696 12.4091 13.0957L12.8795 12.4696C12.958 12.313 13.1932 12.2348 13.35 12.1565C13.5068 12.1565 13.742 12.1565 13.8989 12.2348C14.5261 12.7043 14.9966 12.9391 15.467 13.1739ZM11.625 4.09565C9.66477 4.09565 7.70455 4.87826 6.37159 6.28696C4.96023 7.69565 4.17614 9.65217 4.17614 11.6087C4.17614 13.4087 4.80341 15.1304 5.97955 16.4609L6.45 17.087L6.29318 17.8696L6.05795 19.4348L8.175 18.7304L8.72386 18.5739L9.27273 18.6522C10.0568 18.887 10.8409 19.0435 11.625 19.0435C13.5852 19.0435 15.5455 18.2609 16.8784 16.8522C18.2898 15.4435 19.0739 13.5652 19.0739 11.6087C19.0739 9.65217 18.2898 7.69565 16.8784 6.36522C15.5455 4.95652 13.5852 4.09565 11.625 4.09565ZM11.625 3C12.7227 3 13.8989 3.23478 14.9182 3.62609C15.9375 4.09565 16.8784 4.72174 17.7409 5.50435C18.525 6.28696 19.1523 7.22609 19.6227 8.32174C20.0932 9.41739 20.25 10.513 20.25 11.6087C20.25 13.8783 19.3091 16.0696 17.7409 17.713C16.0943 19.2783 13.8989 20.2174 11.625 20.2174C10.6841 20.2174 9.74318 20.0609 8.88068 19.7478L5.27386 21C5.19545 21 5.19545 21 5.11705 21C5.03864 21 4.96023 21 4.88182 20.9217C4.80341 20.9217 4.725 20.8435 4.725 20.7652C4.64659 20.7652 4.56818 20.687 4.56818 20.6087C4.56818 20.5304 4.56818 20.4522 4.56818 20.3739L5.11705 17.2435C3.70568 15.6783 3 13.6435 3 11.6087C3 9.33913 3.94091 7.14783 5.50909 5.50435C7.15568 3.93913 9.35114 3 11.625 3Z" fill="currentColor"/>
  </svg>

  <!-- Mail -->
  <svg id="mail" viewBox="0 0 24 24" fill="none">
    <path d="M20.9929 7.93047V7.90925C20.9826 7.40123 20.7747 6.91733 20.4134 6.56068C20.0521 6.20403 19.566 6.00285 19.0588 6H4.93412C4.42612 6.00031 3.93861 6.20068 3.57678 6.55786C3.21494 6.91505 3.00778 7.40042 3 7.90925V16.0554C2.99981 16.3108 3.0499 16.5638 3.14739 16.7998C3.24487 17.0358 3.38785 17.2502 3.56814 17.4309C3.74844 17.6115 3.9625 17.7547 4.1981 17.8524C4.4337 17.95 4.68621 18.0002 4.94118 18H19.0588C19.3138 18.0002 19.5663 17.95 19.8019 17.8524C20.0375 17.7547 20.2516 17.6115 20.4319 17.4309C20.6121 17.2502 20.7551 17.0358 20.8526 16.7998C20.9501 16.5638 21.0002 16.3108 21 16.0554V7.95168C20.9973 7.94889 20.9953 7.94553 20.9941 7.94187C20.9929 7.9382 20.9925 7.9343 20.9929 7.93047ZM4.93412 7.06777H19.0518C19.2315 7.06709 19.407 7.12258 19.5537 7.22652C19.7005 7.33045 19.8113 7.47765 19.8706 7.64761L11.9929 11.4166L4.11529 7.64761C4.17462 7.47765 4.28538 7.33045 4.43214 7.22652C4.57891 7.12258 4.75438 7.06709 4.93412 7.06777ZM19.0518 16.9393H4.93412C4.7001 16.9393 4.47567 16.8462 4.3102 16.6804C4.14473 16.5146 4.05177 16.2898 4.05177 16.0554V8.79316L11.7671 12.4844C11.8379 12.517 11.915 12.5339 11.9929 12.5339C12.0709 12.5339 12.148 12.517 12.2188 12.4844L19.9341 8.79316V16.0625C19.9326 16.2958 19.839 16.519 19.6736 16.6833C19.5083 16.8476 19.2847 16.9397 19.0518 16.9393Z" fill="currentColor"/>
  </svg>

  <!-- Clock -->
  <svg id="clock" viewBox="0 0 24 24" fill="none">
    <path fill-rule="evenodd" clip-rule="evenodd" d="M6.99987 19.4832C8.47991 20.4722 10.22 21 12 21C14.3861 20.9972 16.6736 20.0481 18.3609 18.3609C20.0481 16.6736 20.9972 14.3861 21 12C21 10.22 20.4722 8.47991 19.4832 6.99987C18.4943 5.51983 17.0887 4.36628 15.4442 3.68509C13.7996 3.0039 11.99 2.82567 10.2442 3.17294C8.49836 3.5202 6.89471 4.37737 5.63604 5.63604C4.37737 6.89471 3.5202 8.49836 3.17294 10.2442C2.82567 11.99 3.0039 13.7996 3.68509 15.4442C4.36628 17.0887 5.51983 18.4943 6.99987 19.4832ZM7.58812 5.39716C8.89404 4.52457 10.4294 4.05883 12 4.05883C14.1052 4.062 16.1232 4.89968 17.6118 6.38825C19.1003 7.87682 19.938 9.89485 19.9412 12C19.9412 13.5706 19.4754 15.106 18.6028 16.4119C17.7303 17.7178 16.49 18.7356 15.039 19.3367C13.5879 19.9377 11.9912 20.095 10.4508 19.7886C8.91032 19.4822 7.49534 18.7259 6.38474 17.6153C5.27415 16.5047 4.51783 15.0897 4.21141 13.5492C3.905 12.0088 4.06226 10.4121 4.66331 8.96105C5.26436 7.50999 6.2822 6.26974 7.58812 5.39716ZM14.3667 15.0588C14.431 15.0855 14.4999 15.0991 14.5694 15.0988C14.7092 15.0961 14.8428 15.0406 14.9435 14.9435C15.042 14.8439 15.0972 14.7095 15.0972 14.5694C15.0972 14.4294 15.042 14.2949 14.9435 14.1953L12.5294 11.7812V5.88708C12.5294 5.74667 12.4736 5.61201 12.3743 5.51273C12.2751 5.41344 12.1404 5.35767 12 5.35767C11.8596 5.35767 11.7249 5.41344 11.6256 5.51273C11.5264 5.61201 11.4706 5.74667 11.4706 5.88708V12.2188L14.1953 14.9435C14.2442 14.993 14.3025 15.0322 14.3667 15.0588Z" fill="currentColor"/>
  </svg>
</svg>
