<svg xmlns="http://www.w3.org/2000/svg" style="display: none;">
  <!-- Arrow Right -->
  <symbol id="arrow-right" viewBox="0 0 17 16">
    <path
      d="M8.73326 1.97778L9.79172 0.914917L16.9068 8.00058L9.79163 15.0852L8.73326 14.0222L14.0283 8.75002H0.09375V7.25002H14.0274L8.73326 1.97778Z"
      fill="currentColor" />
  </symbol>

  <!-- Search -->
  <symbol id="search" viewBox="0 0 24 24">
    <path fill-rule="evenodd" clip-rule="evenodd"
      d="M17.3236 18.6057C15.7601 19.8456 13.7828 20.586 11.6324 20.586C6.56899 20.586 2.46484 16.4807 2.46484 11.4175C2.46484 6.35425 6.5691 2.25 11.6324 2.25C16.6956 2.25 20.7999 6.35425 20.7999 11.4175C20.7999 13.7902 19.8987 15.9525 18.4198 17.5805L21.3159 20.4692C21.6091 20.7617 21.6097 21.2366 21.3172 21.5298C21.0247 21.8231 20.5498 21.8237 20.2566 21.5312L17.3236 18.6057ZM3.96484 11.4175C3.96484 7.18269 7.39752 3.75 11.6324 3.75C15.8672 3.75 19.2999 7.18268 19.2999 11.4175C19.2999 13.6221 18.3696 15.6096 16.8802 17.0085C15.4573 18.3185 13.6345 19.086 11.6324 19.086C7.39764 19.086 3.96484 15.6525 3.96484 11.4175Z"
      fill="currentColor" />
  </symbol>

  <symbol id="search-black" viewBox="0 0 24 24">
    <path fill-rule="evenodd" clip-rule="evenodd"
      d="M17.3236 18.6057C15.7601 19.8456 13.7828 20.586 11.6324 20.586C6.56899 20.586 2.46484 16.4807 2.46484 11.4175C2.46484 6.35425 6.5691 2.25 11.6324 2.25C16.6956 2.25 20.7999 6.35425 20.7999 11.4175C20.7999 13.7902 19.8987 15.9525 18.4198 17.5805L21.3159 20.4692C21.6091 20.7617 21.6097 21.2366 21.3172 21.5298C21.0247 21.8231 20.5498 21.8237 20.2566 21.5312L17.3236 18.6057ZM3.96484 11.4175C3.96484 7.18269 7.39752 3.75 11.6324 3.75C15.8672 3.75 19.2999 7.18268 19.2999 11.4175C19.2999 13.6221 18.3696 15.6096 16.8802 17.0085C15.4573 18.3185 13.6345 19.086 11.6324 19.086C7.39764 19.086 3.96484 15.6525 3.96484 11.4175Z"
      fill="black" />
  </symbol>

  <symbol id="search-strong" viewBox="0 0 24 24">
    <path
      d="M11.6318 2C16.8329 2.00022 21.0488 6.21679 21.0488 11.418C21.0487 13.7688 20.1851 15.9173 18.7607 17.5674L21.4912 20.292C21.8822 20.682 21.8831 21.315 21.4932 21.7061C21.1031 22.0971 20.4701 22.098 20.0791 21.708L17.2998 18.9365C15.7227 20.1275 13.7602 20.8358 11.6318 20.8359C6.43047 20.8359 2.21412 16.619 2.21387 11.418C2.21387 6.21665 6.43047 2 11.6318 2ZM11.6318 4C7.53503 4 4.21387 7.32123 4.21387 11.418C4.21412 15.5147 7.53533 18.8359 11.6318 18.8359C13.4473 18.8358 15.1101 18.1838 16.3994 17.1006L16.6523 16.8779C16.6704 16.8599 16.6889 16.8426 16.708 16.8262C18.1491 15.4726 19.0487 13.5506 19.0488 11.418C19.0488 7.32136 15.7284 4.00022 11.6318 4Z"
      fill="currentColor" stroke="currentColor" stroke-width="0.5" stroke-linecap="round" stroke-linejoin="round" />
  </symbol>

  <!-- Search 2 -->
  <symbol id="search2" viewBox="0 0 40 40">
    <path fill-rule="evenodd" clip-rule="evenodd"
      d="M9.63479 18.1008C9.63479 12.9046 13.7951 8.67776 18.9079 8.67776C24.0194 8.67776 28.1797 12.9046 28.1797 18.1008C28.1797 23.297 24.0194 27.5252 18.9079 27.5252C13.7951 27.5252 9.63479 23.297 9.63479 18.1008ZM34 32.1041L27.9413 25.9627C29.7277 23.8459 30.8145 21.1026 30.8145 18.1008C30.8145 11.4292 25.4725 6 18.9079 6C12.342 6 7 11.4292 7 18.1008C7 24.7738 12.342 30.2029 18.9079 30.2029C21.5717 30.2029 24.026 29.2978 26.0113 27.7889L32.1398 34L34 32.1041Z"
      fill="currentColor" />
  </symbol>

  <!-- Close -->
  <symbol id="close" viewBox="0 0 40 40">
    <path
      d="M32 10.2461L22.2051 20.0771L31.8457 29.7539L29.6084 32L19.9678 22.3232L10.3916 31.9365L8.1543 29.6895L17.7295 20.0771L8 10.3105L10.2383 8.06348L19.9678 17.8301L29.7617 8L32 10.2461Z"
      fill="currentColor" />
  </symbol>

  <!-- Back -->
  <symbol id="back" viewBox="0 0 24 24">
    <path d="M14.985 6L9.01492 12L14.985 18" stroke="#07C8CC" stroke-width="3" stroke-linecap="square" fill="none" />
  </symbol>

  <!-- Forward -->
  <symbol id="forward" viewBox="0 0 24 24">
    <path d="M9.01501 18L14.9851 12L9.01501 6" stroke="#07C8CC" stroke-width="3" stroke-linecap="square" fill="none" />
  </symbol>

  <!-- Facebook -->
  <symbol id="facebook" viewBox="0 0 32 32">
    <path
      d="M25.0902 4H6.98916C5.32851 4 4 5.32851 4 7.07219V25.3393C4 26.9999 5.32851 28.4115 6.98916 28.4115H16.0397V20.0252H13.0505V16.2057H16.0397V13.1335C16.0397 10.6426 18.0324 8.56677 20.5234 8.56677H23.5126V12.3863H22.018C21.1877 12.3863 20.5234 12.3032 20.5234 13.1335V16.2057H24.2599L22.7653 20.0252H20.5234V28.4115H25.0072C26.6678 28.4115 27.9963 27.0829 27.9963 25.3393V7.07219C28.0793 5.41154 26.7508 4 25.0902 4Z"
      fill="white" />
  </symbol>

  <!-- Instagram -->
  <symbol id="instagram" viewBox="0 0 32 32">
    <rect x="5.5" y="4.5" width="22" height="22" rx="6.5" stroke="white" stroke-width="3" stroke-linejoin="round" />
    <circle cx="16.5" cy="15.5" r="5" stroke="white" stroke-width="3" />
    <circle cx="22.5" cy="9.5" r="1.5" fill="white" />
  </symbol>

  <!-- LinkedIn -->
  <symbol id="linkedin" viewBox="0 0 32 32">
    <path
      d="M29.1789 28.3246H23.2484V19.7735C23.2484 17.5353 22.3207 16.0073 20.2808 16.0073C18.7205 16.0073 17.8527 17.0384 17.4488 18.0322C17.2974 18.3888 17.3211 18.8857 17.3211 19.3826V28.3246H11.4458C11.4458 28.3246 11.5215 13.1772 11.4458 11.8003H17.3211V14.3937C17.6681 13.2598 19.5456 11.6414 22.5416 11.6414C26.2586 11.6414 29.1789 14.0183 29.1789 19.1365V28.3246ZM5.50422 9.73342H5.46636C3.57314 9.73342 2.3457 8.47023 2.3457 6.86904C2.3457 5.23671 3.60943 4 5.54051 4C7.47001 4 8.65643 5.2336 8.69429 6.86437C8.69429 8.46555 7.47001 9.73342 5.50422 9.73342ZM3.02253 11.8003H8.25254V28.3246H3.02253V11.8003Z"
      fill="white" />
  </symbol>

  <!-- YouTube -->
  <symbol id="youtube" viewBox="0 0 32 32">
    <path
      d="M16.0144 7L16.0213 5.49999L16.0125 5.5L16.0144 7ZM20.4071 7.07003L20.4522 5.57071L20.4507 5.57067L20.4071 7.07003ZM20.6644 7.07776L20.7131 5.57855L20.7094 5.57844L20.6644 7.07776ZM21.0423 7.09005L21.0945 5.59095L21.091 5.59084L21.0423 7.09005ZM21.2332 7.09669L21.2878 5.59769L21.2854 5.5976L21.2332 7.09669ZM21.4258 7.10371L21.4843 5.60485L21.4804 5.60471L21.4258 7.10371ZM21.8049 7.11852L21.8662 5.61977L21.8635 5.61967L21.8049 7.11852ZM24.0075 7.23919L24.1543 5.74638C24.1417 5.74515 24.1291 5.74407 24.1165 5.74315L24.0075 7.23919ZM27.1269 8.60534L26.0381 9.63714L26.0455 9.64478L27.1269 8.60534ZM28.3693 11.5884L29.8565 11.3924C29.854 11.3733 29.8511 11.3543 29.8478 11.3354L28.3693 11.5884ZM28.6123 15.3676L30.1123 15.3624L30.1123 15.3573L28.6123 15.3676ZM28.6129 15.5357H30.1129L30.1129 15.5306L28.6129 15.5357ZM28.3722 21.2328L29.8594 21.4288L29.861 21.4155L28.3722 21.2328ZM27.1125 24.2524L26.0413 23.2024C26.0369 23.2069 26.0325 23.2114 26.0281 23.216L27.1125 24.2524ZM24.188 25.5859L24.3046 27.0813C24.3147 27.0805 24.3247 27.0797 24.3348 27.0787L24.188 25.5859ZM21.8092 25.7254L21.8677 27.2243L21.8721 27.2241L21.8092 25.7254ZM21.231 25.748L21.2832 27.2471L21.2896 27.2469L21.231 25.748ZM20.8521 25.7612L20.902 27.2604L20.9043 27.2603L20.8521 25.7612ZM15.9604 25.8506L15.9514 27.3506C15.9564 27.3506 15.9615 27.3507 15.9666 27.3506L15.9604 25.8506ZM11.8898 25.7864L11.8538 27.2859L11.8545 27.2859L11.8898 25.7864ZM11.6951 25.7817L11.6569 27.2812L11.659 27.2812L11.6951 25.7817ZM11.3192 25.7721L11.2796 27.2716L11.2811 27.2716L11.3192 25.7721ZM7.80912 25.6105L7.622 27.0988C7.63618 27.1006 7.65038 27.1022 7.6646 27.1036L7.80912 25.6105ZM4.48501 24.2377L5.57339 23.2054L5.56625 23.198L4.48501 24.2377ZM3.24295 21.2538L1.75577 21.4495C1.75826 21.4684 1.76112 21.4873 1.76433 21.5062L3.24295 21.2538ZM3 17.4749L1.49997 17.4749L1.50003 17.4851L3 17.4749ZM3.00001 15.3647L1.50001 15.3545V15.3647L3.00001 15.3647ZM3.24018 11.6099L1.75294 11.4143L1.75135 11.4273L3.24018 11.6099ZM4.49912 8.5903L5.5703 9.64032C5.57462 9.63592 5.57891 9.63149 5.58317 9.62704L4.49912 8.5903ZM7.42772 7.25702L7.31003 5.76164C7.30088 5.76236 7.29175 5.76316 7.28262 5.76405L7.42772 7.25702ZM9.42563 7.13494L9.36124 5.63631L9.35785 5.63647L9.42563 7.13494ZM9.80968 7.11843L9.75114 5.61957L9.74529 5.61982L9.80968 7.11843ZM10.1887 7.10363L10.1341 5.60462L10.1302 5.60477L10.1887 7.10363ZM10.3797 7.09667L10.3275 5.59758L10.325 5.59767L10.3797 7.09667ZM10.5719 7.08998L10.5232 5.59077L10.5197 5.59089L10.5719 7.08998ZM10.9498 7.07771L10.9033 5.57843L10.9011 5.5785L10.9498 7.07771ZM15.3009 7.0013L15.2933 5.50132L15.2928 5.50132L15.3009 7.0013ZM15.399 7.0008L15.397 5.50079L15.3914 5.50082L15.399 7.0008ZM14.1966 15.0518L14.8677 13.7103L12.6963 12.6239L12.6966 15.052L14.1966 15.0518ZM14.1968 17.197L12.6968 17.1972L12.6971 19.6173L14.8643 18.5403L14.1968 17.197ZM16.3479 16.1281L17.0154 17.4714L19.7095 16.1327L17.019 14.7866L16.3479 16.1281ZM16.0144 7L16.0076 8.49998C16.9312 8.5042 18.5857 8.51765 20.3634 8.5694L20.4071 7.07003L20.4507 5.57067C18.6378 5.51789 16.9557 5.50428 16.0213 5.50002L16.0144 7ZM20.4071 7.07003L20.362 8.56935L20.6193 8.57709L20.6644 7.07776L20.7094 5.57844L20.4522 5.57071L20.4071 7.07003ZM20.6644 7.07776L20.6156 8.57697L20.9936 8.58926L21.0423 7.09005L21.091 5.59084L20.7131 5.57856L20.6644 7.07776ZM21.0423 7.09005L20.9901 8.58914L21.181 8.59578L21.2332 7.09669L21.2854 5.5976L21.0945 5.59095L21.0423 7.09005ZM21.2332 7.09669L21.1785 8.59569L21.3711 8.60272L21.4258 7.10371L21.4804 5.60471L21.2878 5.59769L21.2332 7.09669ZM21.4258 7.10371L21.3672 8.60257L21.7463 8.61738L21.8049 7.11852L21.8635 5.61967L21.4843 5.60486L21.4258 7.10371ZM21.8049 7.11852L21.7436 8.61727C22.4993 8.64817 23.2362 8.68695 23.8984 8.73522L24.0075 7.23919L24.1165 5.74315C23.4127 5.69186 22.6422 5.65151 21.8662 5.61978L21.8049 7.11852ZM24.0075 7.23919L23.8607 8.73199C24.6756 8.81211 25.3675 8.9294 26.0382 9.63712L27.1269 8.60534L28.2157 7.57357C26.7683 6.04614 25.138 5.84311 24.1543 5.74638L24.0075 7.23919ZM27.1269 8.60534L26.0455 9.64478C26.2361 9.84313 26.4637 10.3018 26.6519 10.8967C26.736 11.1623 26.7973 11.4063 26.8374 11.5836C26.8573 11.6715 26.8715 11.741 26.8804 11.7863C26.8848 11.8089 26.8879 11.8253 26.8896 11.8347C26.8905 11.8395 26.891 11.8424 26.8912 11.8436C26.8913 11.8441 26.8913 11.8442 26.8912 11.8439C26.8912 11.8437 26.8912 11.8434 26.8911 11.8429C26.891 11.8427 26.891 11.8425 26.891 11.8422C26.8909 11.8421 26.8909 11.8419 26.8909 11.8418C26.8908 11.8416 26.8908 11.8413 28.3693 11.5884C29.8478 11.3354 29.8478 11.3351 29.8477 11.3349C29.8477 11.3348 29.8477 11.3345 29.8477 11.3343C29.8476 11.3339 29.8475 11.3335 29.8474 11.333C29.8473 11.3321 29.8471 11.331 29.8469 11.3299C29.8465 11.3275 29.846 11.3246 29.8454 11.3213C29.8442 11.3146 29.8426 11.3059 29.8407 11.2953C29.8368 11.2742 29.8315 11.2455 29.8245 11.2101C29.8107 11.1392 29.7905 11.0409 29.7634 10.9215C29.7098 10.6842 29.6275 10.3562 29.5122 9.99188C29.3019 9.32696 28.9083 8.29411 28.2084 7.5659L27.1269 8.60534ZM28.3693 11.5884L26.8822 11.7843C26.881 11.7756 27.1 13.5605 27.1124 15.3778L28.6123 15.3676L30.1123 15.3573C30.0987 13.3648 29.8631 11.4431 29.8565 11.3924L28.3693 11.5884ZM28.6123 15.3676L27.1124 15.3727L27.1129 15.5409L28.6129 15.5357L30.1129 15.5306L30.1123 15.3624L28.6123 15.3676ZM28.6129 15.5357H27.1129V17.307H28.6129H30.1129V15.5357H28.6129ZM28.6129 17.307H27.1129C27.1129 18.233 27.0559 19.1704 26.9975 19.8839C26.9685 20.2386 26.9396 20.5336 26.918 20.7386C26.9072 20.8411 26.8983 20.9208 26.8922 20.974C26.8892 21.0006 26.8869 21.0206 26.8853 21.0335C26.8846 21.0399 26.884 21.0445 26.8837 21.0473C26.8835 21.0487 26.8834 21.0497 26.8833 21.0501C26.8833 21.0504 26.8833 21.0505 26.8833 21.0505C26.8833 21.0505 26.8833 21.0505 26.8833 21.0504C26.8833 21.0504 26.8833 21.0503 26.8833 21.0503C26.8833 21.0502 26.8833 21.0502 28.3722 21.2328C29.861 21.4155 29.861 21.4154 29.861 21.4153C29.861 21.4152 29.861 21.4151 29.8611 21.415C29.8611 21.4148 29.8611 21.4146 29.8611 21.4144C29.8612 21.4139 29.8613 21.4133 29.8613 21.4126C29.8615 21.4112 29.8617 21.4093 29.862 21.4069C29.8626 21.4022 29.8634 21.3956 29.8644 21.3871C29.8664 21.3703 29.8692 21.3462 29.8728 21.3153C29.8798 21.2535 29.8898 21.1646 29.9016 21.0524C29.9251 20.828 29.9564 20.5097 29.9876 20.1284C30.0496 19.3697 30.1129 18.3442 30.1129 17.307H28.6129ZM28.3722 21.2328L26.885 21.0368C26.8958 20.9552 26.8262 21.3943 26.6493 21.9529C26.4582 22.5559 26.2288 23.0111 26.0413 23.2024L27.1125 24.2524L28.1837 25.3025C28.8974 24.5744 29.2964 23.5305 29.5092 22.859C29.736 22.143 29.8457 21.532 29.8593 21.4288L28.3722 21.2328ZM27.1125 24.2524L26.0281 23.216C25.339 23.937 24.6188 24.0363 24.0411 24.0931L24.188 25.5859L24.3348 27.0787C25.1081 27.0026 26.7428 26.8101 28.1968 25.2889L27.1125 24.2524ZM24.188 25.5859L24.0713 24.0904C23.269 24.153 22.5057 24.1948 21.7462 24.2267L21.8092 25.7254L21.8721 27.2241C22.6576 27.1911 23.458 27.1474 24.3046 27.0813L24.188 25.5859ZM21.8092 25.7254L21.7506 24.2266L21.1725 24.2491L21.231 25.748L21.2896 27.2469L21.8677 27.2243L21.8092 25.7254ZM21.231 25.748L21.1789 24.2489L20.7999 24.2621L20.8521 25.7612L20.9043 27.2603L21.2832 27.2471L21.231 25.748ZM20.8521 25.7612L20.8022 24.262C18.612 24.3349 16.5189 24.3483 15.9542 24.3507L15.9604 25.8506L15.9666 27.3506C16.5422 27.3482 18.6689 27.3347 20.902 27.2604L20.8521 25.7612ZM15.9604 25.8506L15.9694 24.3507C15.4634 24.3476 13.7307 24.3294 11.9252 24.2868L11.8898 25.7864L11.8545 27.2859C13.6798 27.329 15.4301 27.3475 15.9514 27.3506L15.9604 25.8506ZM11.8898 25.7864L11.9259 24.2868L11.7311 24.2821L11.6951 25.7817L11.659 27.2812L11.8538 27.2859L11.8898 25.7864ZM11.6951 25.7817L11.7332 24.2822L11.3574 24.2726L11.3192 25.7721L11.2811 27.2716L11.6569 27.2812L11.6951 25.7817ZM11.3192 25.7721L11.3589 24.2726C9.94394 24.2353 8.62611 24.1826 7.95365 24.1175L7.80912 25.6105L7.6646 27.1036C8.459 27.1805 9.88174 27.2347 11.2796 27.2716L11.3192 25.7721ZM7.80912 25.6105L7.99625 24.1223C6.86888 23.9805 6.1512 23.8147 5.57337 23.2055L4.48501 24.2377L3.39666 25.2699C4.7699 26.7178 6.47793 26.955 7.622 27.0988L7.80912 25.6105ZM4.48501 24.2377L5.56625 23.198C5.37577 22.9999 5.14825 22.5414 4.96016 21.9463C4.87621 21.6807 4.81493 21.4366 4.77487 21.2592C4.75501 21.1713 4.74081 21.1018 4.73196 21.0565C4.72755 21.0339 4.7245 21.0175 4.72278 21.008C4.72192 21.0033 4.72139 21.0003 4.72119 20.9992C4.72109 20.9986 4.72107 20.9985 4.72114 20.9989C4.72117 20.9991 4.72122 20.9994 4.72129 20.9998C4.72133 21 4.72137 21.0003 4.72142 21.0005C4.72144 21.0007 4.72148 21.0009 4.72149 21.001C4.72153 21.0012 4.72157 21.0015 3.24295 21.2538C1.76433 21.5062 1.76438 21.5064 1.76442 21.5067C1.76444 21.5068 1.76449 21.5071 1.76452 21.5073C1.76459 21.5077 1.76466 21.5081 1.76474 21.5086C1.7649 21.5095 1.76508 21.5105 1.76529 21.5117C1.7657 21.5141 1.7662 21.5169 1.76679 21.5203C1.76797 21.527 1.76952 21.5357 1.77145 21.5463C1.77531 21.5674 1.78067 21.5961 1.7876 21.6316C1.80144 21.7024 1.82162 21.8008 1.8486 21.9203C1.90222 22.1576 1.98441 22.4858 2.09961 22.8503C2.30982 23.5155 2.70332 24.5489 3.40378 25.2774L4.48501 24.2377ZM3.24295 21.2538L4.73014 21.0581C4.73131 21.0671 4.51235 19.2829 4.49997 17.4647L3 17.4749L1.50003 17.4851C1.51362 19.4787 1.74923 21.3997 1.75577 21.4495L3.24295 21.2538ZM3 17.4749L4.5 17.4749L4.50001 15.3647L3.00001 15.3647L1.50001 15.3647L1.5 17.4749L3 17.4749ZM3.00001 15.3647L4.49998 15.375C4.50614 14.4747 4.56322 13.5769 4.6198 12.8981C4.64795 12.5604 4.67566 12.2807 4.69617 12.0867C4.70642 11.9898 4.71485 11.9144 4.72062 11.8642C4.7235 11.8391 4.72571 11.8203 4.72715 11.8082C4.72786 11.8022 4.72839 11.7978 4.7287 11.7952C4.72886 11.7939 4.72897 11.793 4.72902 11.7926C4.72905 11.7924 4.72906 11.7923 4.72906 11.7923C4.72906 11.7923 4.72906 11.7923 4.72905 11.7924C4.72905 11.7924 4.72904 11.7925 4.72904 11.7925C4.72903 11.7925 4.72902 11.7926 3.24018 11.6099C1.75135 11.4273 1.75134 11.4274 1.75133 11.4275C1.75132 11.4275 1.75131 11.4276 1.7513 11.4277C1.75128 11.4279 1.75125 11.4281 1.75122 11.4283C1.75117 11.4287 1.7511 11.4293 1.75102 11.43C1.75085 11.4313 1.75063 11.4332 1.75036 11.4354C1.74982 11.4399 1.74906 11.4462 1.74811 11.4542C1.74622 11.4701 1.74354 11.4929 1.74018 11.5222C1.73347 11.5806 1.72406 11.6648 1.71281 11.7712C1.69033 11.9838 1.66043 12.2858 1.63017 12.6489C1.56993 13.3716 1.50692 14.3512 1.50005 15.3545L3.00001 15.3647ZM3.24018 11.6099L4.72737 11.8056C4.71662 11.8873 4.786 11.4482 4.96277 10.8897C5.15365 10.2866 5.38292 9.83148 5.5703 9.64032L4.49912 8.5903L3.42793 7.54027C2.71399 8.26859 2.31518 9.31278 2.10261 9.9844C1.87595 10.7006 1.76651 11.3115 1.753 11.4143L3.24018 11.6099ZM4.49912 8.5903L5.58317 9.62704C6.27432 8.90434 6.99542 8.80609 7.57281 8.74998L7.42772 7.25702L7.28262 5.76405C6.50878 5.83925 4.87211 6.03003 3.41506 7.55355L4.49912 8.5903ZM7.42772 7.25702L7.54541 8.75239C8.24009 8.69772 8.86647 8.66176 9.4934 8.6334L9.42563 7.13494L9.35785 5.63647C8.70499 5.66599 8.04457 5.70383 7.31003 5.76164L7.42772 7.25702ZM9.42563 7.13494L9.49001 8.63355L9.87407 8.61705L9.80968 7.11843L9.74529 5.61982L9.36124 5.63632L9.42563 7.13494ZM9.80968 7.11843L9.86822 8.61729L10.2473 8.60249L10.1887 7.10363L10.1302 5.60477L9.75114 5.61958L9.80968 7.11843ZM10.1887 7.10363L10.2434 8.60264L10.4343 8.59568L10.3797 7.09667L10.325 5.59767L10.1341 5.60463L10.1887 7.10363ZM10.3797 7.09667L10.4318 8.59577L10.624 8.58908L10.5719 7.08998L10.5197 5.59089L10.3275 5.59758L10.3797 7.09667ZM10.5719 7.08998L10.6206 8.58919L10.9985 8.57692L10.9498 7.07771L10.9011 5.5785L10.5232 5.59078L10.5719 7.08998ZM10.9498 7.07771L10.9963 8.57699C12.7911 8.52132 14.4926 8.50566 15.3089 8.50127L15.3009 7.0013L15.2928 5.50132C14.4643 5.50577 12.7343 5.52164 10.9033 5.57843L10.9498 7.07771ZM15.3009 7.0013L15.3084 8.50128L15.4065 8.50078L15.399 7.0008L15.3914 5.50082L15.2933 5.50132L15.3009 7.0013ZM15.399 7.0008L15.4009 8.5008L16.0164 8.5L16.0144 7L16.0125 5.5L15.397 5.5008L15.399 7.0008ZM14.1966 15.0518L12.6966 15.052L12.6968 17.1972L14.1968 17.197L15.6968 17.1968L15.6966 15.0516L14.1966 15.0518ZM14.1968 17.197L14.8643 18.5403L17.0154 17.4714L16.3479 16.1281L15.6804 14.7848L13.5293 15.8537L14.1968 17.197ZM16.3479 16.1281L17.019 14.7866L14.8677 13.7103L14.1966 15.0518L13.5254 16.3933L15.6768 17.4696L16.3479 16.1281Z"
      fill="white" />
  </symbol>

  <!-- Chevron Right Icon -->
  <symbol id="chevron-right" viewBox="0 0 16 17">
    <path fill-rule="evenodd" clip-rule="evenodd"
      d="M6.23137 13.6187C5.97444 13.8864 5.54641 13.8864 5.28949 13.6187C5.04697 13.3661 5.04697 12.9671 5.28949 12.7145L9.33544 8.49996L5.28949 4.2854C5.04697 4.03278 5.04697 3.63381 5.28949 3.38119C5.54641 3.11356 5.97444 3.11356 6.23137 3.38119L10.7021 8.03827C10.9498 8.29625 10.9498 8.70367 10.7021 8.96165L6.23137 13.6187Z"
      fill="currentColor" />
  </symbol>

  <symbol id="ciclo-1" viewBox="0 0 80 80">
    <path
      d="M40 -1.74846e-06C48.4472 -2.11769e-06 56.6775 2.6742 63.5114 7.63932L45.8779 31.9098C44.1694 30.6685 42.1118 30 40 30L40 -1.74846e-06Z"
      fill="#07C8CC" />
    <path
      d="M63.5114 7.63932C71.2166 13.2375 76.6714 21.4012 78.8948 30.6622C81.1182 39.9232 79.9641 49.6736 75.6403 58.1596C71.3164 66.6457 64.1065 73.3105 55.3073 76.9552C46.5082 80.5999 36.6973 80.9854 27.6393 78.0423C18.5813 75.0991 10.8707 69.0206 5.89439 60.8999C0.918049 52.7793 -0.997437 43.1495 0.492465 33.7426C1.98237 24.3358 6.77988 15.7692 14.0221 9.58375C21.2643 3.39833 30.4759 -1.33214e-06 40 -1.74846e-06L40 30C37.619 30 35.3161 30.8496 33.5055 32.3959C31.695 33.9423 30.4956 36.0839 30.1231 38.4357C29.7506 40.7874 30.2295 43.1948 31.4736 45.225C32.7177 47.2551 34.6453 48.7748 36.9098 49.5106C39.1743 50.2463 41.627 50.15 43.8268 49.2388C46.0266 48.3276 47.8291 46.6614 48.9101 44.5399C49.991 42.4184 50.2795 39.9808 49.7237 37.6655C49.1679 35.3503 47.8041 33.3094 45.8779 31.9098L63.5114 7.63932Z"
      fill="#07C8CC" fill-opacity="0.15" />
    <circle cx="40" cy="40" r="30" fill="white" />
    <path d="M31.9701 28.186V25.05C34.4341 25.05 35.6661 24.21 36.3101 22.362H40.0341V40.002H35.2741V28.186H31.9701Z"
      fill="black" />
    <path
      d="M47.3987 25.282C47.3987 26.1886 47.1587 26.8926 46.6787 27.394C46.1987 27.8846 45.548 28.13 44.7267 28.13C43.9587 28.13 43.324 27.8846 42.8227 27.394C42.332 26.8926 42.0867 26.1886 42.0867 25.282C42.0867 24.3753 42.3267 23.6766 42.8067 23.186C43.2867 22.6953 43.9373 22.45 44.7587 22.45C45.26 22.45 45.708 22.562 46.1027 22.786C46.508 22.9993 46.8227 23.3193 47.0467 23.746C47.2813 24.162 47.3987 24.674 47.3987 25.282Z"
      fill="black" />
    <path
      d="M20.6628 54.592C20.6628 51.876 22.6088 50.014 25.1848 50.014C27.8868 50.014 29.3288 51.736 29.4968 53.934L27.2148 54.018C27.0748 53.038 26.5428 52.128 25.1708 52.128C23.8688 52.128 23.1128 53.094 23.1128 54.592C23.1128 56.09 23.8688 57.056 25.1708 57.056C26.5428 57.056 27.0748 56.146 27.2148 55.166L29.4968 55.264C29.3288 57.462 27.8868 59.17 25.1848 59.17C22.6088 59.17 20.6628 57.308 20.6628 54.592Z"
      fill="black" />
    <path d="M30.42 50.182H32.8V59.002H30.42V50.182Z" fill="black" />
    <path
      d="M33.7468 54.592C33.7468 51.876 35.6928 50.014 38.2688 50.014C40.9708 50.014 42.4128 51.736 42.5808 53.934L40.2988 54.018C40.1588 53.038 39.6268 52.128 38.2548 52.128C36.9528 52.128 36.1968 53.094 36.1968 54.592C36.1968 56.09 36.9528 57.056 38.2548 57.056C39.6268 57.056 40.1588 56.146 40.2988 55.166L42.5808 55.264C42.4128 57.462 40.9708 59.17 38.2688 59.17C35.6928 59.17 33.7468 57.308 33.7468 54.592Z"
      fill="black" />
    <path d="M43.504 50.182H45.884V57.042H50.252V59.002H43.504V50.182Z" fill="black" />
    <path
      d="M59.6098 54.592C59.6098 57.308 57.5938 59.17 55.0318 59.17C52.4698 59.17 50.4538 57.308 50.4538 54.592C50.4538 51.876 52.4698 50.014 55.0318 50.014C57.5938 50.014 59.6098 51.876 59.6098 54.592ZM57.1598 54.592C57.1598 53.094 56.3338 52.114 55.0318 52.114C53.7298 52.114 52.9038 53.094 52.9038 54.592C52.9038 56.09 53.7298 57.07 55.0318 57.07C56.3338 57.07 57.1598 56.09 57.1598 54.592Z"
      fill="black" />
  </symbol>

  <symbol id="arrow-down" viewBox="0 0 16 19">
    <path fill-rule="evenodd" clip-rule="evenodd"
      d="M9.0005 0.958008L9.0005 14.536L14.0215 9.49401L15.4385 10.905L7.9995 18.375L0.561496 10.905L1.9785 9.49401L7.0005 14.538L7.0005 0.958007L9.0005 0.958008Z"
      fill="black" />
  </symbol>

  <symbol id="chevron-down-2" viewBox="0 0 18 12" fill="none">
    <path d="M3 3.01501L9 8.98508L15 3.01501" stroke="currentColor" stroke-width="3" stroke-linecap="square" />
  </symbol>

  <!-- Player Icon -->
  <symbol id="player" viewBox="0 0 145 145" fill="none">
    <circle opacity="0.8" cx="72.2037" cy="72.2757" r="69.4702" stroke="currentColor" stroke-width="5.34386" />
    <path opacity="0.8" d="M51.6003 35.4525L112.47 70.5957L51.6003 105.739L51.6003 35.4525Z" fill="currentColor" />
  </symbol>

  <!-- Share Icon -->
  <symbol id="share" viewBox="0 0 25 24" fill="none">
    <path
      d="M16.2593 8.09455C16.8243 8.59544 17.5671 8.9 18.3799 8.9C20.1449 8.9 21.5799 7.464 21.5799 5.7C21.5799 3.936 20.1449 2.5 18.3799 2.5C16.6149 2.5 15.1799 3.936 15.1799 5.7C15.1799 5.92878 15.2041 6.15204 15.2499 6.36736L9.70071 9.60433C9.1359 9.10397 8.39346 8.79977 7.5811 8.79977C5.8161 8.79977 4.3811 10.2358 4.3811 11.9998C4.3811 13.7638 5.8161 15.1988 7.5811 15.1988C8.39389 15.1988 9.1367 14.8945 9.70161 14.3939L15.2509 17.6284C15.2044 17.8451 15.1799 18.0698 15.1799 18.3001C15.1799 20.0641 16.6149 21.5001 18.3799 21.5001C20.1449 21.5001 21.5799 20.0641 21.5799 18.3001C21.5799 16.5361 20.1449 15.1001 18.3799 15.1001C17.5685 15.1001 16.8268 15.4036 16.2622 15.903L10.7112 12.6668C10.757 12.4516 10.7811 12.2284 10.7811 11.9998C10.7811 11.7705 10.7569 11.5468 10.7108 11.3311L16.2593 8.09455Z"
      fill="currentColor" />
  </symbol>

</svg>
