<svg xmlns="http://www.w3.org/2000/svg" style="display: none;">
  <symbol id="arrow-right" viewBox="0 0 17 16">
    <path d="M8.73326 1.97778L9.79172 0.914917L16.9068 8.00058L9.79163 15.0852L8.73326 14.0222L14.0283 8.75002H0.09375V7.25002H14.0274L8.73326 1.97778Z" fill="currentColor"/>
  </symbol>
  <symbol id="search" viewBox="0 0 24 24">
    <path fill-rule="evenodd" clip-rule="evenodd" d="M17.3236 18.6057C15.7601 19.8456 13.7828 20.586 11.6324 20.586C6.56899 20.586 2.46484 16.4807 2.46484 11.4175C2.46484 6.35425 6.5691 2.25 11.6324 2.25C16.6956 2.25 20.7999 6.35425 20.7999 11.4175C20.7999 13.7902 19.8987 15.9525 18.4198 17.5805L21.3159 20.4692C21.6091 20.7617 21.6097 21.2366 21.3172 21.5298C21.0247 21.8231 20.5498 21.8237 20.2566 21.5312L17.3236 18.6057ZM3.96484 11.4175C3.96484 7.18269 7.39752 3.75 11.6324 3.75C15.8672 3.75 19.2999 7.18268 19.2999 11.4175C19.2999 13.6221 18.3696 15.6096 16.8802 17.0085C16.863 17.0229 16.8463 17.0382 16.8302 17.0543C16.8277 17.0568 16.8253 17.0593 16.8229 17.0618C15.4573 18.3185 13.6345 19.086 11.6324 19.086C7.39764 19.086 3.96484 15.6525 3.96484 11.4175Z" fill="currentColor"/>
  </symbol>
</svg>


