<svg width="24" height="24" viewBox="0 0 24 24" fill="none" xmlns="http://www.w3.org/2000/svg">
<path fill-rule="evenodd" clip-rule="evenodd" d="M16.308 10.2516C15.175 10.2516 14.281 9.84076 13.612 9.29739V14.4948C13.612 16.2574 12.116 17.6916 10.277 17.6916C8.437 17.6916 6.941 16.2574 6.941 14.4948C6.941 12.7265 8.437 11.2884 10.277 11.2884C10.691 11.2884 11.027 11.611 11.027 12.0084C11.027 12.4059 10.691 12.7284 10.277 12.7284C9.265 12.7284 8.441 13.5204 8.441 14.4948C8.441 15.4635 9.265 16.2516 10.277 16.2516C11.288 16.2516 12.112 15.4635 12.112 14.4948V7.04523C12.112 6.69195 12.378 6.39147 12.741 6.33483C13.104 6.27435 13.456 6.48171 13.573 6.81771C13.58 6.83691 14.29 8.81163 16.308 8.81163C16.722 8.81163 17.058 9.13419 17.058 9.53163C17.058 9.92908 16.722 10.2516 16.308 10.2516ZM16.217 2.88843H7.782C4.622 2.88843 2.5 5.02251 2.5 8.19723V15.8196C2.5 18.9944 4.622 21.1284 7.782 21.1284H16.216C19.376 21.1284 21.5 18.9944 21.5 15.8196V8.19723C21.5 5.02251 19.377 2.88843 16.217 2.88843Z" fill="white"/>
</svg>
