<svg width="36" height="36" viewBox="0 0 36 36" fill="none" xmlns="http://www.w3.org/2000/svg">
<path d="M33 5.20588V30.7941C33 31.3792 32.7676 31.9402 32.3539 32.3539C31.9402 32.7676 31.3792 33 30.7941 33H5.20588C4.62085 33 4.05977 32.7676 3.64609 32.3539C3.2324 31.9402 3 31.3792 3 30.7941V5.20588C3 4.62085 3.2324 4.05977 3.64609 3.64609C4.05977 3.2324 4.62085 3 5.20588 3L30.7941 3C31.3792 3 31.9402 3.2324 32.3539 3.64609C32.7676 4.05977 33 4.62085 33 5.20588ZM11.8235 14.4706H7.41176V28.5882H11.8235V14.4706ZM12.2206 9.61765C12.2229 9.28393 12.1595 8.95303 12.0339 8.64383C11.9084 8.33463 11.7231 8.05319 11.4888 7.81558C11.2545 7.57797 10.9756 7.38884 10.6682 7.259C10.3608 7.12915 10.0308 7.06113 9.69706 7.05882H9.61765C8.939 7.05882 8.28816 7.32841 7.80829 7.80829C7.32841 8.28816 7.05882 8.939 7.05882 9.61765C7.05882 10.2963 7.32841 10.9471 7.80829 11.427C8.28816 11.9069 8.939 12.1765 9.61765 12.1765C9.95138 12.1847 10.2835 12.1271 10.5949 12.0069C10.9064 11.8867 11.1911 11.7063 11.4328 11.4761C11.6746 11.2458 11.8685 10.9702 12.0037 10.6649C12.1389 10.3597 12.2126 10.0308 12.2206 9.69706V9.61765ZM28.5882 20.0118C28.5882 15.7676 25.8882 14.1176 23.2059 14.1176C22.3276 14.0737 21.4532 14.2607 20.6698 14.6602C19.8864 15.0596 19.2214 15.6575 18.7412 16.3941H18.6176V14.4706H14.4706V28.5882H18.8824V21.0794C18.8186 20.3104 19.0608 19.5472 19.5565 18.9558C20.0521 18.3643 20.7611 17.9923 21.5294 17.9206H21.6971C23.1 17.9206 24.1412 18.8029 24.1412 21.0265V28.5882H28.5529L28.5882 20.0118Z" fill="#D6D7DB"/>
</svg>
