<svg width="15" height="8" viewBox="0 0 15 8" fill="none" xmlns="http://www.w3.org/2000/svg">
<path d="M7.57746 7.99329C7.74302 7.96942 7.89698 7.89386 8.01721 7.77757L14.6547 1.4053C14.8224 1.26383 14.9243 1.0595 14.9363 0.840508C14.9483 0.621521 14.8695 0.407104 14.7186 0.248133C14.5675 0.0891407 14.3575 -0.000652516 14.1382 3.45531e-06C13.9188 0.000879479 13.7094 0.0919822 13.5594 0.252074L7.46916 6.10182L1.3789 0.252075L1.37912 0.252075C1.2291 0.0919833 1.01974 0.000879205 0.800535 4.62133e-06C0.581094 -0.000652377 0.371072 0.0891363 0.220158 0.248135C0.0690483 0.407127 -0.00979425 0.621533 0.00225398 0.840509C0.0143022 1.05949 0.116355 1.26384 0.283886 1.4053L6.92134 7.77757C7.09566 7.94532 7.337 8.0246 7.57679 7.99329L7.57746 7.99329Z" fill="#AA3A51"/>
</svg>
