<svg width="36" height="36" viewBox="0 0 36 36" fill="none" xmlns="http://www.w3.org/2000/svg">
<path fill-rule="evenodd" clip-rule="evenodd" d="M30.8924 6.68999C32.3131 7.0703 33.4297 8.18678 33.81 9.60751C34.4972 12.18 34.5 17.5505 34.5 17.5505C34.5 17.5505 34.5 22.9211 33.81 25.4936C33.4297 26.9143 32.3131 28.0308 30.8924 28.411C28.32 29.1011 17.9999 29.1011 17.9999 29.1011C17.9999 29.1011 7.68002 29.1011 5.1075 28.411C3.68678 28.0308 2.5703 26.9143 2.18999 25.4936C1.5 22.9211 1.5 17.5505 1.5 17.5505C1.5 17.5505 1.5 12.18 2.18999 9.60751C2.5703 8.18678 3.68678 7.0703 5.1075 6.68999C7.68002 6 17.9999 6 17.9999 6C17.9999 6 28.32 6 30.8924 6.68999ZM23.2701 17.551L14.6968 22.5004V12.6015L23.2701 17.551Z" fill="#CA2B51"/>
</svg>
