<svg width="36" height="36" viewBox="0 0 36 36" fill="none" xmlns="http://www.w3.org/2000/svg">
<path fill-rule="evenodd" clip-rule="evenodd" d="M18.0023 3C9.55287 3 3 9.18966 3 17.5517C3 21.9253 4.7931 25.7034 7.71034 28.3126C7.95287 28.5322 8.10115 28.8356 8.11264 29.1667L8.1954 31.8368C8.20134 32.0331 8.25547 32.2249 8.35302 32.3954C8.45057 32.5659 8.58854 32.7098 8.75479 32.8143C8.92104 32.9189 9.11045 32.981 9.30635 32.9952C9.50225 33.0093 9.69862 32.975 9.87816 32.8954L12.8563 31.5828C13.1103 31.4724 13.392 31.4506 13.6563 31.5218C15.0241 31.8977 16.4805 32.1012 17.9977 32.1012C26.4471 32.1012 33 25.9126 33 17.5506C33 9.18966 26.4483 3 18.0023 3ZM25.8793 14.3678L22.123 20.3253C21.9816 20.5495 21.7954 20.7421 21.5759 20.8908C21.3564 21.0395 21.1086 21.1411 20.8479 21.1893C20.5872 21.2374 20.3194 21.2311 20.0613 21.1706C19.8032 21.1101 19.5604 20.9969 19.3483 20.8379L16.3598 18.5989C16.2267 18.4994 16.065 18.4457 15.8989 18.4457C15.7327 18.4457 15.571 18.4994 15.4379 18.5989L11.4057 21.6598C10.8713 22.0678 10.1644 21.423 10.523 20.8552L14.2793 14.8977C14.4207 14.6735 14.6069 14.4809 14.8264 14.3322C15.0459 14.1835 15.2937 14.0819 15.5544 14.0337C15.8151 13.9856 16.0829 13.9919 16.341 14.0524C16.5991 14.1129 16.8419 14.2261 17.054 14.3851L20.0425 16.6241C20.1756 16.7236 20.3373 16.7773 20.5034 16.7773C20.6696 16.7773 20.8313 16.7236 20.9644 16.6241L24.9965 13.5632C25.5368 13.1494 26.2437 13.7943 25.8793 14.3678Z" fill="#D6D7DB"/>
</svg>
