<svg width="36" height="36" viewBox="0 0 36 36" fill="none" xmlns="http://www.w3.org/2000/svg">
<path d="M33 8.8869C31.8968 9.37576 30.7116 9.70607 29.4657 9.85537C30.7367 9.09434 31.7118 7.88673 32.1716 6.44922C30.9825 7.15476 29.6652 7.6674 28.2634 7.94222C27.1403 6.74782 25.5416 6 23.7712 6C20.3729 6 17.6168 8.7561 17.6168 12.157C17.6168 12.6379 17.6723 13.1056 17.7754 13.5575C12.6582 13.2998 8.12508 10.8489 5.08888 7.12569C4.56038 8.03735 4.2565 9.09434 4.2565 10.22C4.2565 12.3551 5.34387 14.2406 6.9941 15.3438C5.98467 15.3108 5.03603 15.0346 4.20629 14.5735V14.6528C4.20629 17.6348 6.32687 20.1227 9.14375 20.6882C8.62583 20.8282 8.0828 20.9022 7.52259 20.9022C7.12622 20.9022 6.7391 20.8652 6.36387 20.7939C7.14736 23.2382 9.41989 25.0192 12.1139 25.0668C10.0065 26.7183 7.35215 27.7026 4.46922 27.7026C3.97243 27.7026 3.48225 27.6736 3 27.6168C5.72439 29.3648 8.95878 30.3821 12.4336 30.3821C23.7566 30.3821 29.9466 21.004 29.9466 12.8704C29.9466 12.6062 29.94 12.3393 29.9281 12.075C31.1305 11.2057 32.1742 10.1236 32.9974 8.89087L33 8.8869Z" fill="#65CDF1"/>
</svg>
