<svg width="29" height="18" viewBox="0 0 29 18" fill="none" xmlns="http://www.w3.org/2000/svg">
<circle cx="0.896552" cy="6.34186" r="0.896552" fill="white"/>
<circle cx="6.27546" cy="6.34186" r="0.896552" fill="white"/>
<circle cx="11.6583" cy="6.34186" r="0.896552" fill="white"/>
<circle cx="17.0372" cy="6.34186" r="0.896552" fill="white"/>
<circle cx="22.4161" cy="6.34186" r="0.896552" fill="white"/>
<circle cx="27.7989" cy="6.34186" r="0.896552" fill="white"/>
<circle cx="0.896552" cy="0.896552" r="0.896552" fill="white"/>
<circle cx="6.27546" cy="0.896552" r="0.896552" fill="white"/>
<circle cx="11.6583" cy="0.896552" r="0.896552" fill="white"/>
<circle cx="17.0372" cy="0.896552" r="0.896552" fill="white"/>
<circle cx="22.4161" cy="0.896552" r="0.896552" fill="white"/>
<circle cx="27.7989" cy="0.896552" r="0.896552" fill="white"/>
<circle cx="0.896552" cy="11.7217" r="0.896552" fill="white"/>
<circle cx="6.27546" cy="11.7217" r="0.896552" fill="white"/>
<circle cx="11.6583" cy="11.7217" r="0.896552" fill="white"/>
<circle cx="17.0372" cy="11.7217" r="0.896552" fill="white"/>
<circle cx="22.4161" cy="11.7217" r="0.896552" fill="white"/>
<circle cx="27.7989" cy="11.7217" r="0.896552" fill="white"/>
<circle cx="0.896552" cy="17.1016" r="0.896552" fill="white"/>
<circle cx="6.27546" cy="17.1016" r="0.896552" fill="white"/>
<circle cx="11.6583" cy="17.1016" r="0.896552" fill="white"/>
<circle cx="17.0372" cy="17.1016" r="0.896552" fill="white"/>
<circle cx="22.4161" cy="17.1016" r="0.896552" fill="white"/>
<circle cx="27.7989" cy="17.1016" r="0.896552" fill="white"/>
</svg>
