<svg width="93" height="100" viewBox="0 0 93 100" fill="none" xmlns="http://www.w3.org/2000/svg">
<path fill-rule="evenodd" clip-rule="evenodd" d="M22.3655 0H70.414V36.3168C70.414 47.1683 64.4926 56.5597 56.058 60.7137V64.8758C57.0494 65.365 57.7406 66.3911 57.7406 67.5715C57.7406 69.2195 56.3862 70.5739 54.7382 70.5739H53.237V89.2737H39.5365V70.5739H38.0354C36.3873 70.5739 35.0329 69.2195 35.0329 67.5715C35.0329 66.3912 35.7241 65.3651 36.723 64.8758V60.7137C28.2875 56.559 22.3669 47.1677 22.3669 36.3168V0H22.3655ZM46.3866 11.5426L50.9949 20.5787L61.0149 22.1706L53.8438 29.3417L55.4291 39.3616L46.3865 34.7599L37.344 39.3616L38.9359 29.3417L31.7575 22.1706L41.7774 20.5787L46.3857 11.5426H46.3866ZM35.8007 91.1042H56.9797L62.2725 100H30.5083L35.8007 91.1042ZM27.54 55.5539H23.3294C16.9056 55.5539 11.0749 52.9352 6.85012 48.7112C2.6253 44.4798 0 38.6492 0 32.2319V5.07514H19.9361V10.1651H5.09076V32.2309C5.09076 37.2442 7.14377 41.8039 10.4463 45.1072C13.7564 48.4173 18.3161 50.4701 23.3294 50.4701H23.7905C24.852 52.3277 26.109 54.0382 27.5402 55.5535L27.54 55.5539ZM65.2335 55.5539H69.451C75.8682 55.5539 81.6989 52.9352 85.9228 48.7112C90.1542 44.4798 92.773 38.6492 92.773 32.2319V5.07514H72.8443V10.1651H87.6896V32.2309C87.6896 37.2442 85.6366 41.8039 82.3266 45.1072C79.0166 48.4173 74.4645 50.4701 69.4503 50.4701H68.9827C67.9211 52.3277 66.6642 54.0382 65.2329 55.5535L65.2335 55.5539Z" fill="#283E84"/>
</svg>
