<svg width="46" height="46" viewBox="0 0 46 46" fill="none" xmlns="http://www.w3.org/2000/svg">
<circle cx="44.4901" cy="43.9022" r="1.41616" transform="rotate(-180 44.4901 43.9022)" fill="#AA3A51"/>
<circle cx="35.9959" cy="43.9022" r="1.41616" transform="rotate(-180 35.9959 43.9022)" fill="#AA3A51"/>
<circle cx="27.4959" cy="43.9022" r="1.41616" transform="rotate(-180 27.4959 43.9022)" fill="#AA3A51"/>
<circle cx="18.994" cy="43.9022" r="1.41616" transform="rotate(-180 18.994 43.9022)" fill="#AA3A51"/>
<circle cx="10.4999" cy="43.9022" r="1.41616" transform="rotate(-180 10.4999 43.9022)" fill="#AA3A51"/>
<circle cx="1.99985" cy="43.9022" r="1.41616" transform="rotate(-180 1.99985 43.9022)" fill="#AA3A51"/>
<circle cx="44.4901" cy="35.4051" r="1.41616" transform="rotate(-180 44.4901 35.4051)" fill="#AA3A51"/>
<circle cx="35.9959" cy="35.4051" r="1.41616" transform="rotate(-180 35.9959 35.4051)" fill="#AA3A51"/>
<circle cx="27.4959" cy="35.4051" r="1.41616" transform="rotate(-180 27.4959 35.4051)" fill="#AA3A51"/>
<circle cx="18.994" cy="35.4051" r="1.41616" transform="rotate(-180 18.994 35.4051)" fill="#AA3A51"/>
<circle cx="10.4999" cy="35.4051" r="1.41616" transform="rotate(-180 10.4999 35.4051)" fill="#AA3A51"/>
<circle cx="1.99985" cy="35.4051" r="1.41616" transform="rotate(-180 1.99985 35.4051)" fill="#AA3A51"/>
<circle cx="44.4901" cy="26.9076" r="1.41616" transform="rotate(-180 44.4901 26.9076)" fill="#AA3A51"/>
<circle cx="35.9959" cy="26.9076" r="1.41616" transform="rotate(-180 35.9959 26.9076)" fill="#AA3A51"/>
<circle cx="27.4959" cy="26.9076" r="1.41616" transform="rotate(-180 27.4959 26.9076)" fill="#AA3A51"/>
<circle cx="18.994" cy="26.9076" r="1.41616" transform="rotate(-180 18.994 26.9076)" fill="#AA3A51"/>
<circle cx="10.4999" cy="26.9076" r="1.41616" transform="rotate(-180 10.4999 26.9076)" fill="#AA3A51"/>
<circle cx="1.99985" cy="26.9076" r="1.41616" transform="rotate(-180 1.99985 26.9076)" fill="#AA3A51"/>
<circle cx="44.4901" cy="18.4105" r="1.41616" transform="rotate(-180 44.4901 18.4105)" fill="#AA3A51"/>
<circle cx="35.9959" cy="18.4105" r="1.41616" transform="rotate(-180 35.9959 18.4105)" fill="#AA3A51"/>
<circle cx="27.4959" cy="18.4105" r="1.41616" transform="rotate(-180 27.4959 18.4105)" fill="#AA3A51"/>
<circle cx="18.994" cy="18.4105" r="1.41616" transform="rotate(-180 18.994 18.4105)" fill="#AA3A51"/>
<circle cx="10.4999" cy="18.4105" r="1.41616" transform="rotate(-180 10.4999 18.4105)" fill="#AA3A51"/>
<circle cx="1.99985" cy="18.4105" r="1.41616" transform="rotate(-180 1.99985 18.4105)" fill="#AA3A51"/>
<circle cx="44.4901" cy="9.9144" r="1.41616" transform="rotate(-180 44.4901 9.9144)" fill="#AA3A51"/>
<circle cx="35.9959" cy="9.9144" r="1.41616" transform="rotate(-180 35.9959 9.9144)" fill="#AA3A51"/>
<circle cx="27.4959" cy="9.9144" r="1.41616" transform="rotate(-180 27.4959 9.9144)" fill="#AA3A51"/>
<circle cx="18.994" cy="9.9144" r="1.41616" transform="rotate(-180 18.994 9.9144)" fill="#AA3A51"/>
<circle cx="10.4999" cy="9.9144" r="1.41616" transform="rotate(-180 10.4999 9.9144)" fill="#AA3A51"/>
<circle cx="1.99985" cy="9.9144" r="1.41616" transform="rotate(-180 1.99985 9.9144)" fill="#AA3A51"/>
<circle cx="44.4901" cy="1.41733" r="1.41616" transform="rotate(-180 44.4901 1.41733)" fill="#AA3A51"/>
<circle cx="35.9959" cy="1.41733" r="1.41616" transform="rotate(-180 35.9959 1.41733)" fill="#AA3A51"/>
<circle cx="27.4959" cy="1.41733" r="1.41616" transform="rotate(-180 27.4959 1.41733)" fill="#AA3A51"/>
<circle cx="18.994" cy="1.41733" r="1.41616" transform="rotate(-180 18.994 1.41733)" fill="#AA3A51"/>
<circle cx="10.4999" cy="1.41733" r="1.41616" transform="rotate(-180 10.4999 1.41733)" fill="#AA3A51"/>
<circle cx="1.99985" cy="1.41733" r="1.41616" transform="rotate(-180 1.99985 1.41733)" fill="#AA3A51"/>
</svg>
