<?xml version="1.0" encoding="UTF-8" standalone="no"?>
<svg width="152" height="48" viewBox="0 0 152 48" fill="none" xmlns="http://www.w3.org/2000/svg">
<path fill-rule="evenodd" clip-rule="evenodd" d="M39.0156 19.2434H98.6611V19.6841H39.0156V19.2434Z" fill="white"/>
<path fill-rule="evenodd" clip-rule="evenodd" d="M42.2336 12.7264V16.1639C42.2336 17.3453 41.5053 17.6553 40.8563 17.6553C40.223 17.6553 39.5311 17.3296 39.5311 16.1499V12.7264H38.8242V16.3541C38.8242 17.3676 39.4286 18.3076 40.8348 18.3076C42.27 18.3076 42.9405 17.3676 42.9405 16.2557V12.7264H42.2336ZM46.7269 15.467C46.7269 14.3394 45.9836 14.0889 45.3934 14.0889C44.7378 14.0889 44.3806 14.551 44.2426 14.7635H44.2277V14.2029H43.6225V18.1638H44.264V16.0052C44.264 14.9296 44.9048 14.6874 45.2693 14.6874C45.896 14.6874 46.0853 15.0355 46.0853 15.7249V18.1638H46.7269V15.467ZM48.0141 14.2029H47.3725V18.1646H48.0141V14.2029ZM48.0141 12.7264H47.3725V13.4837H48.0141V12.7264ZM50.066 17.428H50.0511L49.0607 14.2029H48.3175L49.7088 18.1629H50.3934L51.8434 14.2029H51.144L50.066 17.428ZM54.479 16.9212C54.4567 17.2172 54.0996 17.7016 53.4952 17.7016C52.7594 17.7016 52.3874 17.2238 52.3874 16.3987H55.171C55.171 14.9983 54.6311 14.0889 53.5316 14.0889C52.2708 14.0889 51.7029 15.066 51.7029 16.2929C51.7029 17.4363 52.3362 18.2779 53.4076 18.2779C54.0194 18.2779 54.2674 18.1249 54.4418 18.0042C54.923 17.6702 55.0982 17.1114 55.1197 16.9212H54.479ZM52.3874 15.8696C52.3874 15.2562 52.8537 14.6874 53.444 14.6874C54.2236 14.6874 54.4716 15.2562 54.508 15.8696H52.3874ZM56.3482 15.8613C56.3482 15.2859 56.7277 14.8007 57.3246 14.8007H57.5652V14.1128C57.5139 14.0963 57.4775 14.0889 57.3982 14.0889C56.917 14.0889 56.5814 14.3997 56.3267 14.8618H56.3119V14.2029H55.7075V18.1638H56.3482V15.8613ZM60.5645 15.3306C60.5645 15.1338 60.4694 14.0889 59.107 14.0889C58.3572 14.0889 57.6652 14.4832 57.6652 15.3546C57.6652 15.8986 58.0149 16.1796 58.5465 16.3152L59.2897 16.5045C59.8362 16.6484 60.047 16.7542 60.047 17.0725C60.047 17.5115 59.632 17.7016 59.1731 17.7016C58.2695 17.7016 58.1819 17.2015 58.1604 16.8906H57.5412C57.5627 17.3676 57.6718 18.2779 59.1806 18.2779C60.0404 18.2779 60.6885 17.7843 60.6885 16.9667C60.6885 16.4293 60.4116 16.1259 59.6171 15.9217L58.9764 15.7547C58.4812 15.6266 58.2844 15.5505 58.2844 15.2248C58.2844 14.7329 58.8449 14.6651 59.0417 14.6651C59.8502 14.6651 59.9379 15.0817 59.9453 15.3306H60.5645ZM61.7715 14.2029H61.13V18.1646H61.7715V14.2029ZM61.7715 12.7264H61.13V13.4837H61.7715V12.7264ZM65.6522 12.7264H65.0115V14.7097L64.9966 14.7635C64.8436 14.5361 64.5526 14.0889 63.8598 14.0889C62.8471 14.0889 62.2717 14.9528 62.2717 16.0655C62.2717 17.013 62.6512 18.2779 63.9475 18.2779C64.3195 18.2779 64.756 18.1555 65.033 17.6181H65.0478V18.1638H65.6522V12.7264ZM62.9347 16.1714C62.9347 15.6646 62.986 14.6874 63.9764 14.6874C64.9023 14.6874 65.004 15.7249 65.004 16.3681C65.004 17.4214 64.3699 17.7016 63.9623 17.7016C63.2629 17.7016 62.9347 17.0427 62.9347 16.1714ZM66.7939 15.4067C66.8377 15.1041 66.9394 14.6419 67.6685 14.6419C68.2729 14.6419 68.5639 14.8693 68.5639 15.2859C68.5639 15.6795 68.382 15.7406 68.2291 15.7547L67.1725 15.8911C66.1093 16.0275 66.0143 16.7997 66.0143 17.1328C66.0143 17.8149 66.5095 18.2779 67.2089 18.2779C67.9521 18.2779 68.3382 17.9133 68.5862 17.6338C68.6077 17.9356 68.6953 18.2398 69.2633 18.2398C69.4096 18.2398 69.5039 18.1944 69.613 18.1629V17.6785C69.5411 17.6934 69.46 17.7082 69.4022 17.7082C69.2707 17.7082 69.1905 17.6405 69.1905 17.4735V15.195C69.1905 14.1798 68.0836 14.0889 67.7777 14.0889C66.8377 14.0889 66.2334 14.4609 66.2036 15.4067H66.7939ZM68.5498 16.7922C68.5498 17.323 67.967 17.724 67.3693 17.724C66.8889 17.724 66.6773 17.466 66.6773 17.0345C66.6773 16.5351 67.18 16.4367 67.4933 16.3921C68.2878 16.2855 68.4473 16.2243 68.5498 16.1408V16.7922ZM73.1224 12.7264H72.4817V14.7097L72.4668 14.7635C72.3139 14.5361 72.0221 14.0889 71.3301 14.0889C70.3174 14.0889 69.742 14.9528 69.742 16.0655C69.742 17.013 70.1206 18.2779 71.4177 18.2779C71.7897 18.2779 72.2263 18.1555 72.5032 17.6181H72.5181V18.1638H73.1224V12.7264ZM70.405 16.1714C70.405 15.6646 70.4562 14.6874 71.4467 14.6874C72.3718 14.6874 72.4743 15.7249 72.4743 16.3681C72.4743 17.4214 71.8402 17.7016 71.4326 17.7016C70.7332 17.7016 70.405 17.0427 70.405 16.1714Z" fill="white"/>
<path fill-rule="evenodd" clip-rule="evenodd" d="M79.6075 14.3625C79.505 13.4531 78.8064 12.5834 77.4581 12.5834C75.9352 12.5834 75.0176 13.7416 75.0176 15.4141C75.0176 17.5049 76.1833 18.3076 77.3704 18.3076C77.7639 18.3076 79.367 18.2175 79.6588 16.1648H78.9734C78.7329 17.4288 77.9392 17.6553 77.4804 17.6553C76.1833 17.6553 75.7459 16.6715 75.7459 15.3926C75.7459 13.9615 76.5115 13.234 77.4581 13.234C77.9607 13.234 78.7263 13.4085 78.923 14.3625H79.6075ZM80.6393 15.4075C80.6831 15.1041 80.7856 14.6428 81.514 14.6428C82.1183 14.6428 82.4101 14.8693 82.4101 15.2859C82.4101 15.6803 82.2282 15.7406 82.0745 15.7555L81.0188 15.8919C79.9548 16.0283 79.8597 16.7997 79.8597 17.1337C79.8597 17.8157 80.3557 18.2779 81.0551 18.2779C81.7983 18.2779 82.1844 17.9141 82.4316 17.6338C82.4539 17.9356 82.5407 18.2398 83.1095 18.2398C83.255 18.2398 83.3501 18.1952 83.4592 18.1638V17.6793C83.3865 17.6934 83.3063 17.7091 83.2476 17.7091C83.117 17.7091 83.0368 17.6413 83.0368 17.4743V15.1958C83.0368 14.1798 81.929 14.0897 81.6231 14.0897C80.6831 14.0897 80.0788 14.4609 80.0498 15.4075H80.6393ZM82.3952 16.7922C82.3952 17.323 81.8124 17.724 81.2155 17.724C80.7344 17.724 80.5235 17.4668 80.5235 17.0345C80.5235 16.536 81.0254 16.4376 81.3387 16.3921C82.1332 16.2855 82.2936 16.2251 82.3952 16.1408V16.7922ZM85.2053 14.756V14.2038H84.5935V13.0976H83.952V14.2038H83.4353V14.756H83.952V17.3685C83.952 17.8455 84.0908 18.2175 84.7241 18.2175C84.7903 18.2175 84.9721 18.1877 85.2053 18.1638V17.6413H84.9796C84.8481 17.6413 84.5935 17.6413 84.5935 17.3304V14.756H85.2053ZM88.241 12.6057H87.454L86.8058 13.6738H87.2936L88.241 12.6057ZM85.3557 16.1796C85.3557 17.2023 85.9096 18.2712 87.1266 18.2712C88.3435 18.2712 88.8966 17.2023 88.8966 16.1796C88.8966 15.1578 88.3435 14.0897 87.1266 14.0897C85.9096 14.0897 85.3557 15.1578 85.3557 16.1796ZM86.0188 16.1796C86.0188 15.6497 86.2081 14.6651 87.1266 14.6651C88.0442 14.6651 88.2336 15.6497 88.2336 16.1796C88.2336 16.7096 88.0442 17.6934 87.1266 17.6934C86.2081 17.6934 86.0188 16.7096 86.0188 16.1796ZM89.9655 12.7264H89.324V18.1638H89.9655V12.7264ZM91.3404 14.2038H90.6988V18.1654H91.3404V14.2038ZM91.3404 12.7264H90.6988V13.4837H91.3404V12.7264ZM95.0606 15.5364C95.0094 14.847 94.6307 14.0897 93.6329 14.0897C92.3721 14.0897 91.8042 15.0669 91.8042 16.2937C91.8042 17.4371 92.4374 18.2779 93.5089 18.2779C94.6233 18.2779 94.9953 17.3916 95.0606 16.7616H94.4414C94.3323 17.3685 93.9603 17.7016 93.5304 17.7016C92.6491 17.7016 92.4887 16.86 92.4887 16.1796C92.4887 15.4753 92.7441 14.6882 93.5378 14.6882C94.0768 14.6882 94.3612 15.0057 94.4414 15.5364H95.0606ZM95.9617 15.4075C96.0056 15.1041 96.1073 14.6428 96.8356 14.6428C97.4408 14.6428 97.7318 14.8693 97.7318 15.2859C97.7318 15.6803 97.5499 15.7406 97.3969 15.7555L96.3404 15.8919C95.2764 16.0283 95.1821 16.7997 95.1821 17.1337C95.1821 17.8157 95.6774 18.2779 96.3768 18.2779C97.12 18.2779 97.5061 17.9141 97.7541 17.6338C97.7756 17.9356 97.8632 18.2398 98.4312 18.2398C98.5775 18.2398 98.6717 18.1952 98.7809 18.1638V17.6793C98.7081 17.6934 98.6279 17.7091 98.5701 17.7091C98.4386 17.7091 98.3584 17.6413 98.3584 17.4743V15.1958C98.3584 14.1798 97.2514 14.0897 96.9455 14.0897C96.0056 14.0897 95.4004 14.4609 95.3715 15.4075H95.9617ZM97.7177 16.7922C97.7177 17.323 97.1349 17.724 96.5371 17.724C96.056 17.724 95.8452 17.4668 95.8452 17.0345C95.8452 16.536 96.3478 16.4376 96.6612 16.3921C97.4548 16.2855 97.6152 16.2251 97.7177 16.1408V16.7922Z" fill="white"/>
<path fill-rule="evenodd" clip-rule="evenodd" d="M38.3398 27.3998H41.1309C41.2069 27.7388 41.3458 27.9843 41.5484 28.1315C41.7517 28.2811 42.0518 28.3555 42.4511 28.3555C42.7868 28.3555 43.0497 28.2943 43.2423 28.1728C43.4349 28.0538 43.53 27.8859 43.53 27.6735C43.53 27.3345 43.1282 27.0592 42.3255 26.8459C42.1634 26.8046 42.0394 26.7723 41.9543 26.7509C41.2962 26.5723 40.7704 26.4119 40.381 26.2639C39.99 26.1184 39.7064 25.982 39.5278 25.8539C39.1848 25.5943 38.9276 25.2842 38.7557 24.9238C38.5846 24.5625 38.4969 24.1533 38.4969 23.6903C38.4969 22.7611 38.8309 22.0311 39.4973 21.5012C40.1661 20.9721 41.0829 20.7059 42.2502 20.7059C43.3994 20.7059 44.3046 20.9605 44.9627 21.4664C45.6208 21.9749 45.9936 22.6991 46.0788 23.6473H43.3564C43.3126 23.3712 43.1944 23.1654 43.0083 23.0306C42.8198 22.8934 42.5512 22.8264 42.2031 22.8264C41.8964 22.8264 41.6691 22.8785 41.5178 22.9851C41.369 23.091 41.2937 23.2513 41.2937 23.4688C41.2937 23.7771 41.6856 24.0384 42.4701 24.2442C42.5404 24.2657 42.5925 24.2814 42.6272 24.2905C42.7413 24.3178 42.9133 24.3641 43.1431 24.422C44.1823 24.6973 44.861 24.9478 45.1801 25.1743C45.5778 25.4496 45.8655 25.7621 46.0474 26.1168C46.2301 26.4681 46.321 26.8831 46.321 27.3626C46.321 28.3969 45.9771 29.1913 45.2876 29.7477C44.5981 30.3033 43.611 30.5811 42.3255 30.5811C41.1391 30.5811 40.2008 30.3033 39.5072 29.7477C38.8136 29.1913 38.425 28.4101 38.3398 27.3998ZM51.1681 27.2353C50.9176 27.337 50.5844 27.4453 50.1686 27.5577C49.5122 27.7413 49.1848 27.986 49.1848 28.2902C49.1848 28.4845 49.2493 28.6383 49.3799 28.7482C49.508 28.859 49.6924 28.9136 49.9305 28.9136C50.367 28.9136 50.6861 28.8069 50.887 28.5969C51.0879 28.3828 51.1871 28.0472 51.1871 27.5842C51.1871 27.4858 51.1871 27.4131 51.1846 27.3651C51.183 27.3163 51.1764 27.2742 51.1681 27.2353ZM51.4103 30.3206L51.2474 29.6576C50.9118 29.9685 50.5497 30.1975 50.162 30.3446C49.7734 30.4942 49.3361 30.5687 48.8516 30.5687C48.1084 30.5687 47.533 30.3777 47.1254 29.9924C46.7195 29.6088 46.5161 29.0682 46.5161 28.3663C46.5161 27.6842 46.717 27.1774 47.1171 26.8525C47.5165 26.526 48.2737 26.2879 49.3857 26.1399C49.5262 26.1184 49.7172 26.0969 49.9553 26.0713C50.7853 25.9779 51.1995 25.7513 51.1995 25.395C51.1995 25.1983 51.1226 25.0519 50.9722 24.961C50.8209 24.8692 50.5803 24.8246 50.2537 24.8246C49.9817 24.8246 49.7734 24.8808 49.6279 24.9941C49.4832 25.1048 49.3981 25.2785 49.3733 25.5108H46.8146C46.827 24.7345 47.1295 24.1483 47.7231 23.7515C48.3175 23.353 49.1914 23.1563 50.3447 23.1563C50.887 23.1563 51.3855 23.2084 51.8452 23.315C52.3032 23.4216 52.6611 23.5614 52.9158 23.7424C53.2266 23.9623 53.4457 24.212 53.5697 24.4889C53.6962 24.7667 53.7582 25.1652 53.7582 25.6819V29.5369C53.7582 29.665 53.783 29.7775 53.831 29.8775C53.8806 29.9775 53.9508 30.0602 54.0442 30.1231V30.3206H51.4103ZM54.5113 30.3206V23.4043H56.8956V24.4162C57.2023 24.0111 57.5462 23.7127 57.9224 23.5151C58.3019 23.3175 58.7301 23.2183 59.2063 23.2183C59.6056 23.2183 59.9636 23.2877 60.281 23.4299C60.5952 23.5688 60.8622 23.7771 61.0797 24.0533C61.2789 24.3029 61.4194 24.6072 61.5021 24.9651C61.5848 25.3239 61.6261 25.9101 61.6261 26.7244V30.3206H59.0054V26.7376C59.0054 26.2118 58.9393 25.8497 58.8045 25.6513C58.6722 25.4537 58.4424 25.3553 58.1134 25.3553C57.7819 25.3553 57.5355 25.4711 57.3743 25.6984C57.2122 25.9299 57.1321 26.2796 57.1321 26.7509V30.3206H54.5113Z" fill="white"/>
<path fill-rule="evenodd" clip-rule="evenodd" d="M68.3324 25.1598H69.2534C69.852 25.1598 70.2537 25.0904 70.4563 24.949C70.6572 24.8101 70.7589 24.5629 70.7589 24.2074C70.7589 23.8461 70.6613 23.5965 70.467 23.4576C70.2744 23.317 69.8685 23.2476 69.2534 23.2476H68.3324V25.1598ZM65.4629 30.3194V20.9485H69.1401C69.9512 20.9485 70.5952 20.9997 71.0714 21.0998C71.5451 21.1998 71.9427 21.3569 72.2618 21.5793C72.6736 21.8719 72.9827 22.2357 73.1853 22.6664C73.3862 23.0996 73.4871 23.6147 73.4871 24.2074C73.4871 25.2532 73.1911 26.0576 72.6016 26.6157C72.0114 27.1737 71.1607 27.4506 70.0487 27.4506H68.3324V30.3194H65.4629ZM77.8505 27.2349C77.6 27.3366 77.2668 27.4449 76.851 27.5573C76.1946 27.74 75.8672 27.9855 75.8672 28.2889C75.8672 28.4849 75.9317 28.637 76.0615 28.7486C76.1904 28.8594 76.3748 28.9123 76.6129 28.9123C77.0494 28.9123 77.3685 28.8065 77.5686 28.5957C77.7703 28.3824 77.8695 28.0459 77.8695 27.5846C77.8695 27.4854 77.8695 27.4126 77.867 27.3638C77.8654 27.3159 77.8588 27.2737 77.8505 27.2349ZM78.0927 30.3194L77.929 29.6572C77.5942 29.968 77.2313 30.197 76.8444 30.3442C76.455 30.4938 76.0185 30.5674 75.534 30.5674C74.7908 30.5674 74.2154 30.3772 73.807 29.9928C73.4019 29.6084 73.1985 29.0677 73.1985 28.3658C73.1985 27.6838 73.3994 27.177 73.7987 26.8521C74.1989 26.5255 74.9561 26.2874 76.0681 26.1403C76.2086 26.1171 76.3996 26.0965 76.6377 26.0708C77.4677 25.9766 77.8819 25.7517 77.8819 25.3946C77.8819 25.1978 77.805 25.0515 77.6537 24.9614C77.5024 24.8688 77.2627 24.8241 76.9353 24.8241C76.6641 24.8241 76.455 24.8795 76.3103 24.9936C76.1656 25.1044 76.0805 25.278 76.0557 25.5103H73.497C73.5094 24.734 73.8111 24.1479 74.4055 23.7511C75 23.3526 75.8738 23.155 77.0262 23.155C77.5686 23.155 78.0679 23.2079 78.5276 23.3146C78.9847 23.4204 79.3435 23.5617 79.5982 23.742C79.9082 23.9619 80.1281 24.2115 80.2521 24.4885C80.3786 24.7671 80.4406 25.1648 80.4406 25.6815V29.5365C80.4406 29.6638 80.4654 29.7779 80.5134 29.8771C80.563 29.9763 80.6332 30.0598 80.7258 30.1226V30.3194H78.0927ZM83.7268 26.9339C83.7268 27.4366 83.8227 27.8276 84.0129 28.1071C84.203 28.389 84.4684 28.5303 84.8082 28.5303C85.143 28.5303 85.4059 28.3915 85.5944 28.1112C85.7829 27.8309 85.8763 27.4407 85.8763 26.9339C85.8763 26.3891 85.7887 25.9849 85.6151 25.7253C85.4414 25.464 85.1719 25.3342 84.8082 25.3342C84.4395 25.3342 84.1683 25.464 83.9922 25.7278C83.8161 25.9898 83.7268 26.3933 83.7268 26.9339ZM81.1929 30.3194V20.9485H83.7516V24.1314C84.0104 23.8255 84.2981 23.594 84.6172 23.441C84.9338 23.2856 85.2736 23.2079 85.6382 23.2079C86.503 23.2079 87.1991 23.5427 87.7224 24.2132C88.2465 24.882 88.5078 25.774 88.5078 26.8918C88.5078 27.9988 88.249 28.8875 87.729 29.5596C87.209 30.2317 86.5245 30.5674 85.6754 30.5674C85.2298 30.5674 84.8305 30.4764 84.4742 30.297C84.1187 30.116 83.7979 29.8423 83.516 29.4736V30.3194H81.1929ZM88.8856 20.9485H91.5294V30.3194H88.8856V20.9485ZM94.5569 26.8521C94.5569 27.492 94.642 27.9533 94.8099 28.2335C94.9769 28.5138 95.253 28.6527 95.6374 28.6527C96.0227 28.6527 96.3004 28.5113 96.4716 28.2294C96.6435 27.9458 96.7303 27.4878 96.7303 26.8521C96.7303 26.2197 96.6435 25.7658 96.4716 25.488C96.3004 25.2111 96.0227 25.0713 95.6374 25.0713C95.253 25.0713 94.9769 25.2086 94.8099 25.4847C94.642 25.76 94.5569 26.2155 94.5569 26.8521ZM91.9072 26.8521C91.9072 25.7071 92.2379 24.8035 92.9026 24.1454C93.5648 23.4865 94.4759 23.155 95.6374 23.155C96.7989 23.155 97.71 23.4865 98.3705 24.1454C99.0311 24.8035 99.3618 25.7071 99.3618 26.8521C99.3618 28.0045 99.0311 28.9123 98.3664 29.5761C97.7034 30.2383 96.7948 30.5674 95.6374 30.5674C94.48 30.5674 93.5698 30.2383 92.9051 29.5761C92.2404 28.9123 91.9072 28.0045 91.9072 26.8521Z" fill="white"/>
<path fill-rule="evenodd" clip-rule="evenodd" d="M12.8944 16.7483V21.0381H16.2963V23.5415H12.8944V31.6384C16.5824 30.9819 19.3899 27.6412 19.3899 23.6183C19.3899 19.1226 15.8863 15.4784 11.565 15.4784C11.1467 15.4784 10.7366 15.5132 10.3357 15.5785V13.0594C10.7383 13.0107 11.1492 12.9826 11.565 12.9826C17.2115 12.9826 21.7891 17.7436 21.7891 23.6183C21.7891 29.0226 17.9126 33.4844 12.8944 34.1623V35.3164C18.5227 34.6319 22.8903 29.6559 22.8903 23.6183C22.8903 14.3243 14.7008 14.7121 14.7008 5.97113C14.7008 4.60456 14.9463 3.29669 15.3936 2.09464H2.09905L2.09739 25.7513C2.09657 35.2644 10.3969 39.0301 10.3357 39.0003V23.5415H6.86344V21.0381H10.3357V16.7309C10.7366 16.6656 11.1467 16.6309 11.565 16.6309C12.0181 16.6309 12.462 16.6714 12.8944 16.7483ZM18.2168 2.09464C17.7836 2.91805 17.4835 3.82909 17.3479 4.7947H31.6329V2.09464H18.2168ZM33.7319 25.748C33.7336 35.0635 26.1806 42.6147 16.866 42.6147C7.55128 42.6147 -0.000826654 35.0635 6.78689e-08 25.748C0.00082679 17.1658 0.00248045 8.58274 0.00248045 -0.000278473H33.7294C33.7294 8.58274 33.7311 17.1658 33.7319 25.748ZM31.6329 5.31472H17.2917C17.2752 5.53214 17.2661 5.7504 17.2661 5.97113C17.2661 6.72345 17.3587 7.39806 17.524 8.01562H31.6337L31.6329 5.31472ZM31.6337 8.53562H17.6836C18.0407 9.55497 18.5996 10.4197 19.2585 11.2365H31.6337V8.53562ZM31.6337 11.7565H19.695C20.4622 12.6395 21.3245 13.4926 22.1429 14.4574H31.6337V11.7565ZM31.6337 14.9766H22.5695C23.197 15.7686 23.7815 16.6458 24.2585 17.6775H31.6345L31.6337 14.9766ZM31.6345 18.1975H24.4842C24.8091 18.9986 25.0687 19.889 25.2365 20.8992H31.6345V18.1975ZM31.6345 21.4184H25.3134C25.401 22.0972 25.449 22.828 25.449 23.6183C25.449 23.7862 25.4457 23.9523 25.4399 24.1185H31.6345V21.4184ZM31.6345 24.6385H25.4143C25.3523 25.5661 25.2059 26.4689 24.9827 27.3402H31.5502C31.6056 26.8177 31.6353 26.2878 31.6345 25.7513V24.6385ZM31.4849 27.8594H24.8397C24.5611 28.8044 24.1915 29.7088 23.741 30.5603H30.8334C31.1319 29.6931 31.3518 28.7903 31.4849 27.8594ZM30.6433 31.0803H23.4524C22.8812 32.0633 22.2 32.9694 21.427 33.7812H29.2626C29.8108 32.9363 30.2754 32.0319 30.6433 31.0803ZM28.9096 34.3004H20.9053C19.7057 35.4363 18.3144 36.3556 16.7874 37.0013H26.4328C27.3653 36.2077 28.1987 35.3007 28.9096 34.3004ZM25.7863 37.5213H15.3274C14.542 37.7511 13.7294 37.9115 12.8944 37.9934V39.98C14.1584 40.3305 15.4903 40.5198 16.866 40.5198C20.2175 40.5198 23.3078 39.4029 25.7863 37.5213Z" fill="white"/>
<path fill-rule="evenodd" clip-rule="evenodd" d="M132.149 39.2541C130.62 39.2541 129.382 39.0168 128.434 38.5423C127.933 38.3059 127.682 37.7908 127.682 37.0005C127.682 34.3393 127.735 32.6792 127.84 32.0203C127.919 31.5466 128.064 31.3093 128.275 31.3093C128.512 31.3093 128.631 31.5325 128.631 31.9798C128.631 35.5124 130.423 37.2766 134.007 37.2766C134.118 37.2766 134.229 37.2749 134.338 37.2708L134.458 37.265L134.503 37.2625L134.502 37.2634L134.758 37.2493L126.093 48L125.849 47.8041L132.746 39.245C132.549 39.2508 132.35 39.2541 132.149 39.2541ZM140.525 30.0949L151.852 16.0423L151.608 15.8455L144.476 24.6922C143.783 23.0578 142.561 21.6276 140.806 20.3982C138.487 18.739 135.575 17.632 132.07 17.079L132.624 12.2567H139.818C141.267 12.2567 142.242 12.4675 142.743 12.8883C143.111 13.2041 143.296 13.7059 143.296 14.3913C143.296 14.7592 143.402 14.9444 143.612 14.9444C143.85 14.9444 143.994 14.7856 144.047 14.4698C144.389 12.3079 144.561 10.6214 144.561 9.40946C144.561 8.90929 144.429 8.6588 144.165 8.6588C144.245 8.6588 143.988 8.70592 143.395 8.79686C142.802 8.88945 142.057 8.93493 141.161 8.93493H131.477C131.003 8.93493 130.753 9.10688 130.726 9.44915L129.817 19.8848C129.79 20.3329 130.028 20.5967 130.529 20.6752C132.768 20.991 134.823 21.8219 136.695 23.1653C139.116 24.8634 140.39 27.0079 140.518 29.603L140.517 29.6038L140.525 30.0949ZM123.736 30.4876H112.437C112.168 30.4876 112.033 30.3536 112.033 30.0841C112.033 29.9312 112.225 29.6815 112.609 29.3359C115.877 26.4713 118.01 24.4343 119.009 23.224C121.257 20.5148 122.381 17.8437 122.381 15.2114C122.381 13.1934 121.901 11.7135 120.94 10.7727C120.248 10.0808 119.413 9.73436 118.432 9.73436C117.126 9.73436 116.107 10.0808 115.377 10.7727C115.051 11.0794 114.766 11.5159 114.527 12.0839C114.286 12.6502 114.166 13.1264 114.166 13.51C114.166 13.8944 114.041 14.0871 113.792 14.0871C113.657 14.0871 113.571 13.9044 113.532 13.5398C113.417 12.3286 113.359 11.1654 113.359 10.0518C113.359 9.82034 113.474 9.62772 113.705 9.47477C115.127 8.74478 116.866 8.37936 118.922 8.37936C121.325 8.37936 123.169 8.98536 124.457 10.1957C125.591 11.2712 126.158 12.713 126.158 14.5186C126.158 16.9591 124.966 19.5252 122.583 22.2162C121.277 23.6952 119.163 25.6066 116.242 27.9512C116.068 28.0859 116.088 28.1529 116.299 28.1529H118.259C120.623 28.1529 122.275 28.0958 123.217 27.9801C125.023 27.7503 126.119 26.8955 126.503 25.4156C126.58 25.1081 126.696 24.9535 126.849 24.9535C127.003 24.9535 127.08 25.137 127.08 25.5008C127.08 25.7323 126.979 26.3523 126.777 27.3601C126.575 28.3703 126.397 29.1235 126.244 29.6236C126.129 30.0072 125.917 30.2478 125.61 30.3445C125.302 30.4404 124.678 30.4876 123.736 30.4876Z" fill="white"/>
<path fill-rule="evenodd" clip-rule="evenodd" d="M138.169 34.3777H137.028C137.007 34.3777 136.992 34.3918 136.981 34.4191L136.705 35.1507C136.654 35.2871 136.628 35.3913 136.628 35.4624C136.628 35.569 136.697 35.622 136.834 35.622H136.91C136.962 35.622 136.987 35.6352 136.987 35.6625C136.987 35.6964 136.958 35.7137 136.9 35.7137C136.845 35.7137 136.754 35.7112 136.626 35.7063C136.498 35.7013 136.409 35.698 136.357 35.698C136.357 35.698 136.283 35.7013 136.135 35.7063C135.986 35.7112 135.859 35.7137 135.754 35.7137C135.688 35.7137 135.656 35.6964 135.656 35.6625C135.656 35.6352 135.677 35.622 135.717 35.622C135.772 35.622 135.825 35.6178 135.876 35.6112C135.985 35.598 136.075 35.55 136.142 35.4682C136.197 35.4029 136.253 35.2979 136.311 35.1507L137.597 31.9356C137.651 31.7992 137.698 31.7314 137.74 31.7314C137.777 31.7314 137.82 31.786 137.868 31.8951C138.182 32.6871 138.604 33.7362 139.137 35.0432C139.281 35.3814 139.43 35.5657 139.587 35.6013C139.649 35.6145 139.72 35.622 139.802 35.622C139.847 35.622 139.869 35.6352 139.869 35.6625C139.869 35.6831 139.852 35.6964 139.818 35.7038C139.784 35.7104 139.722 35.7137 139.634 35.7137C139.21 35.7137 138.888 35.7104 138.666 35.7038C138.564 35.7005 138.513 35.6864 138.513 35.6625C138.513 35.6352 138.537 35.6195 138.584 35.6162C138.639 35.5996 138.654 35.5599 138.63 35.4988L138.221 34.4133C138.211 34.3893 138.193 34.3777 138.169 34.3777ZM137.13 34.1215H138.072C138.096 34.1215 138.105 34.1115 138.098 34.0909L137.637 32.8268C137.63 32.7962 137.622 32.7805 137.611 32.7805C137.598 32.7805 137.587 32.7962 137.581 32.8268L137.11 34.0851C137.103 34.1099 137.11 34.1215 137.13 34.1215ZM140.636 32.8673L140.693 35.0176C140.703 35.3591 140.763 35.5484 140.872 35.5856C140.883 35.5889 140.949 35.598 141.072 35.6112C141.175 35.6253 141.226 35.6418 141.226 35.6625C141.226 35.6964 141.186 35.7137 141.108 35.7137C140.978 35.7137 140.843 35.7112 140.703 35.7063C140.564 35.7013 140.487 35.698 140.473 35.698C140.477 35.698 140.412 35.7013 140.278 35.7063C140.145 35.7112 140.026 35.7137 139.92 35.7137C139.845 35.7137 139.807 35.6964 139.807 35.6625C139.807 35.6385 139.852 35.6236 139.94 35.6162C140.002 35.6096 140.062 35.6029 140.12 35.5963C140.185 35.5757 140.227 35.5211 140.248 35.4318C140.265 35.3533 140.275 35.197 140.278 34.9614L140.325 31.9306C140.328 31.8149 140.35 31.757 140.391 31.757C140.418 31.757 140.482 31.8099 140.581 31.9149C140.86 32.2159 141.39 32.7631 142.168 33.5585C142.516 33.9206 142.891 34.3091 143.294 34.7258H143.319L143.268 32.4275C143.265 32.301 143.258 32.2142 143.247 32.1663C143.22 32.0637 143.169 31.9976 143.094 31.9662C143.043 31.9463 142.952 31.9356 142.822 31.9356C142.768 31.9356 142.74 31.9207 142.74 31.8901C142.74 31.8595 142.785 31.8438 142.874 31.8438C142.976 31.8438 143.099 31.8455 143.242 31.8513C143.386 31.8562 143.47 31.8595 143.494 31.8595C143.497 31.8595 143.556 31.8562 143.672 31.8513C143.789 31.8455 143.896 31.8438 143.995 31.8438C144.073 31.8438 144.113 31.8595 144.113 31.8901C144.113 31.9207 144.082 31.9356 144.02 31.9356C143.85 31.9356 143.746 31.9926 143.709 32.1051C143.691 32.1663 143.681 32.2588 143.677 32.3862L143.621 35.6162C143.618 35.722 143.595 35.7749 143.555 35.7749C143.517 35.7749 143.459 35.7377 143.38 35.6625C143.053 35.3384 142.549 34.8366 141.871 34.1578C141.638 33.9288 141.377 33.6577 141.087 33.3435C140.941 33.1831 140.796 33.0244 140.652 32.8673H140.636ZM142.449 31.4495C142.32 31.4495 142.176 31.4065 142.019 31.3213C141.862 31.2362 141.743 31.194 141.661 31.194C141.545 31.194 141.428 31.2552 141.313 31.3784C141.282 31.4123 141.255 31.4288 141.231 31.4288C141.207 31.4288 141.195 31.4172 141.195 31.3933C141.195 31.3693 141.209 31.3371 141.236 31.2949C141.403 31.0336 141.581 30.9022 141.768 30.9022C141.871 30.9022 142.007 30.9501 142.177 31.0452C142.311 31.1205 142.434 31.1577 142.546 31.1577C142.676 31.1577 142.78 31.1064 142.859 31.0039C142.893 30.9601 142.92 30.9377 142.94 30.9377C142.968 30.9377 142.981 30.951 142.981 30.9791C142.981 30.9956 142.971 31.0246 142.95 31.0659C142.913 31.1411 142.854 31.2164 142.772 31.2908C142.662 31.3966 142.554 31.4495 142.449 31.4495ZM146.754 35.7856C146.078 35.7856 145.551 35.5633 145.172 35.1201C144.851 34.7481 144.691 34.3009 144.691 33.7784C144.691 33.2633 144.851 32.8194 145.172 32.4482C145.558 31.9976 146.102 31.7719 146.805 31.7719C147.44 31.7719 147.943 31.9447 148.315 32.2894C148.687 32.6342 148.873 33.0996 148.873 33.6866C148.873 34.2876 148.682 34.7837 148.3 35.1764C147.907 35.5823 147.392 35.7856 146.754 35.7856ZM146.969 35.5294C147.255 35.5294 147.498 35.4392 147.696 35.2582C148.003 34.9812 148.156 34.5208 148.156 33.8759C148.156 33.3162 148.012 32.8624 147.721 32.5143C147.442 32.1836 147.087 32.0183 146.657 32.0183C146.305 32.0183 146.022 32.1257 145.807 32.3407C145.534 32.6135 145.398 33.0401 145.398 33.6196C145.398 34.1694 145.537 34.62 145.817 34.9713C146.107 35.3433 146.491 35.5294 146.969 35.5294ZM150.46 35.7856C150.163 35.7856 149.914 35.741 149.713 35.6525C149.648 35.6253 149.615 35.5657 149.615 35.4781C149.615 35.2937 149.624 35.0705 149.641 34.8076C149.648 34.7192 149.668 34.6745 149.702 34.6745C149.736 34.6745 149.754 34.7035 149.754 34.7613C149.754 34.8333 149.769 34.9201 149.8 35.0226C149.902 35.3673 150.146 35.5401 150.531 35.5401C150.746 35.5401 150.919 35.4765 151.049 35.35C151.161 35.2375 151.218 35.1061 151.218 34.9564C151.218 34.6729 151.051 34.4001 150.716 34.1372L150.48 33.9528C149.975 33.5568 149.723 33.1525 149.723 32.74C149.723 32.4564 149.832 32.2241 150.05 32.0439C150.269 31.8628 150.554 31.7719 150.905 31.7719C151.128 31.7719 151.354 31.8017 151.586 31.8595C151.633 31.8728 151.657 31.8934 151.657 31.9207C151.657 31.9141 151.654 31.9745 151.648 32.1026C151.641 32.2299 151.638 32.3746 151.638 32.535C151.638 32.6375 151.619 32.6887 151.581 32.6887C151.547 32.6887 151.53 32.6573 151.53 32.5962C151.53 32.4837 151.485 32.3713 151.397 32.2588C151.264 32.091 151.078 32.0075 150.839 32.0075C150.651 32.0075 150.503 32.0563 150.393 32.1539C150.284 32.2506 150.23 32.3779 150.23 32.535C150.23 32.654 150.268 32.7673 150.345 32.8756C150.422 32.9831 150.565 33.1153 150.772 33.2716L150.916 33.3791C151.223 33.6114 151.439 33.8255 151.566 34.0222C151.692 34.2182 151.755 34.4389 151.755 34.6845C151.755 35.0705 151.595 35.3673 151.274 35.5757C151.059 35.7154 150.788 35.7856 150.46 35.7856Z" fill="white"/>
</svg>
