<svg width="32" height="32" viewBox="0 0 32 32" fill="none" xmlns="http://www.w3.org/2000/svg">
<path fill-rule="evenodd" clip-rule="evenodd" d="M10.4518 2.6665C11.9169 2.6665 13.3394 3.07808 14.5638 3.837C14.9996 3.79042 15.4384 3.76695 15.8785 3.76695C17.4979 3.76695 19.1014 4.08486 20.5975 4.70252C22.0937 5.32018 23.4531 6.22551 24.5982 7.3668C25.7433 8.5081 26.6516 9.86301 27.2713 11.3542C27.8911 12.8454 28.21 14.4436 28.21 16.0576C28.21 16.6312 28.1697 17.2028 28.09 17.7683C28.2413 18.0367 28.3767 18.3143 28.4954 18.5999C28.8868 19.5417 29.0882 20.5511 29.0882 21.5705C29.0882 22.5899 28.8868 23.5993 28.4954 24.5411C28.104 25.483 27.5303 26.3387 26.8071 27.0595C26.0838 27.7804 25.2252 28.3522 24.2803 28.7423C23.3354 29.1324 22.3226 29.3332 21.2998 29.3332C19.8987 29.3332 18.5366 28.9569 17.3494 28.2605C16.8622 28.3189 16.3711 28.3483 15.8785 28.3483C14.2591 28.3483 12.6555 28.0304 11.1594 27.4127C9.66324 26.795 8.30382 25.8897 7.15873 24.7484C6.01364 23.6071 5.10531 22.2522 4.48559 20.761C3.86587 19.2699 3.5469 17.6716 3.5469 16.0576C3.5469 15.4533 3.59162 14.8511 3.6801 14.256C3.02118 13.0985 2.66602 11.7807 2.66602 10.4265C2.66602 8.36842 3.4863 6.39464 4.94642 4.93935C6.40653 3.48407 8.38688 2.6665 10.4518 2.6665ZM11.1958 14.3492C11.4967 14.8643 11.9126 15.303 12.4109 15.6309C13.0712 16.063 13.773 16.4277 14.506 16.7198C15.3256 17.0624 15.9614 17.3527 16.4136 17.5909C16.7959 17.779 17.1429 18.0316 17.4393 18.3376C17.6637 18.5757 17.7883 18.8905 17.7878 19.2176C17.7974 19.4483 17.752 19.6779 17.6552 19.8875C17.5585 20.0971 17.4132 20.2807 17.2313 20.4229C16.7457 20.7498 16.1646 20.9046 15.5807 20.8629C15.2505 20.8664 14.921 20.8324 14.5985 20.7616C14.3369 20.7042 14.081 20.6233 13.834 20.5198C13.6177 20.4262 13.3223 20.2858 12.9478 20.0985C12.6466 19.9379 12.3113 19.8516 11.97 19.8469C11.6637 19.8344 11.3642 19.9401 11.1336 20.1421C11.0235 20.2468 10.9376 20.3741 10.8815 20.5153C10.8255 20.6565 10.8008 20.8082 10.8091 20.9598C10.8022 21.2474 10.889 21.5294 11.0562 21.7634C11.2577 22.0187 11.5182 22.2213 11.8153 22.3536C12.9776 22.8573 14.2374 23.0957 15.5033 23.0514C16.4246 23.0699 17.3414 22.9205 18.2091 22.6105C18.9291 22.3549 19.556 21.8896 20.0091 21.2745C20.4541 20.6249 20.6796 19.8499 20.6527 19.0629C20.67 18.4202 20.5091 17.7852 20.1878 17.2283C19.8615 16.6984 19.422 16.2473 18.9007 15.9074C18.2406 15.4816 17.5404 15.1216 16.81 14.8327C16.7319 14.7945 16.6511 14.7621 16.5682 14.7358C15.8198 14.4265 15.2568 14.1782 14.8793 13.9909C14.5423 13.833 14.2371 13.6145 13.9789 13.3465C13.7616 13.1183 13.6417 12.8145 13.6447 12.4994C13.6343 12.2594 13.6885 12.021 13.8017 11.8091C13.9149 11.5973 14.0829 11.4197 14.2882 11.2949C14.7747 11.0049 15.3347 10.8617 15.9007 10.8825C16.3349 10.878 16.7679 10.9318 17.1878 11.0425C17.644 11.1741 18.0904 11.3374 18.5238 11.5314C18.6996 11.613 18.8909 11.656 19.0847 11.6576C19.2255 11.6614 19.3656 11.6352 19.4957 11.581C19.6257 11.5268 19.7429 11.4457 19.8393 11.3429C19.9413 11.2315 20.0203 11.101 20.0719 10.9591C20.1234 10.8171 20.1465 10.6663 20.1398 10.5154C20.1444 10.2249 20.0429 9.94271 19.8545 9.72162C19.5987 9.45289 19.2814 9.25034 18.93 9.13139C18.5473 8.99086 18.1516 8.88872 17.7487 8.8265C17.1858 8.73417 16.616 8.69045 16.0456 8.69584C15.1737 8.69068 14.3076 8.83654 13.4856 9.12695C12.7297 9.38212 12.055 9.83297 11.53 10.4336C11.0249 11.0317 10.7578 11.795 10.7798 12.5776C10.7619 13.1943 10.9053 13.8049 11.1958 14.3492Z" fill="#B7B9BF"/>
</svg>
