<svg width="15" height="8" viewBox="0 0 15 8" fill="none" xmlns="http://www.w3.org/2000/svg">
<path d="M7.57551 7.99329C7.74107 7.96942 7.89503 7.89386 8.01526 7.77757L14.6527 1.4053C14.8205 1.26383 14.9223 1.05949 14.9343 0.840508C14.9464 0.621521 14.8675 0.407104 14.7167 0.248133C14.5655 0.0891409 14.3555 -0.000652263 14.1363 3.40773e-06C13.9168 0.000879377 13.7075 0.091982 13.5575 0.252074L7.46721 6.10182L1.37695 0.252075L1.37717 0.252075C1.22715 0.0919831 1.01778 0.000879074 0.798582 4.57375e-06C0.579141 -0.000652012 0.369119 0.0891364 0.218205 0.248134C0.0670951 0.407127 -0.0117471 0.621533 0.000300735 0.840509C0.0123495 1.05949 0.114401 1.26384 0.281933 1.4053L6.91938 7.77757C7.09371 7.94532 7.33505 8.0246 7.57483 7.99329L7.57551 7.99329Z" fill="#283E84"/>
</svg>
