<svg width="46" height="46" viewBox="0 0 46 46" fill="none" xmlns="http://www.w3.org/2000/svg">
<circle cx="43.9066" cy="43.9012" r="1.41616" transform="rotate(-180 43.9066 43.9012)" fill="#4DDCDC"/>
<circle cx="35.4125" cy="43.9012" r="1.41616" transform="rotate(-180 35.4125 43.9012)" fill="#4DDCDC"/>
<circle cx="26.9125" cy="43.9012" r="1.41616" transform="rotate(-180 26.9125 43.9012)" fill="#4DDCDC"/>
<circle cx="18.4105" cy="43.9012" r="1.41616" transform="rotate(-180 18.4105 43.9012)" fill="#4DDCDC"/>
<circle cx="9.91636" cy="43.9012" r="1.41616" transform="rotate(-180 9.91636 43.9012)" fill="#4DDCDC"/>
<circle cx="1.41636" cy="43.9012" r="1.41616" transform="rotate(-180 1.41636 43.9012)" fill="#4DDCDC"/>
<circle cx="43.9066" cy="35.4042" r="1.41616" transform="rotate(-180 43.9066 35.4042)" fill="#4DDCDC"/>
<circle cx="35.4125" cy="35.4042" r="1.41616" transform="rotate(-180 35.4125 35.4042)" fill="#4DDCDC"/>
<circle cx="26.9125" cy="35.4042" r="1.41616" transform="rotate(-180 26.9125 35.4042)" fill="#4DDCDC"/>
<circle cx="18.4105" cy="35.4042" r="1.41616" transform="rotate(-180 18.4105 35.4042)" fill="#4DDCDC"/>
<circle cx="9.91636" cy="35.4042" r="1.41616" transform="rotate(-180 9.91636 35.4042)" fill="#4DDCDC"/>
<circle cx="1.41636" cy="35.4042" r="1.41616" transform="rotate(-180 1.41636 35.4042)" fill="#4DDCDC"/>
<circle cx="43.9066" cy="26.9066" r="1.41616" transform="rotate(-180 43.9066 26.9066)" fill="#4DDCDC"/>
<circle cx="35.4125" cy="26.9066" r="1.41616" transform="rotate(-180 35.4125 26.9066)" fill="#4DDCDC"/>
<circle cx="26.9125" cy="26.9066" r="1.41616" transform="rotate(-180 26.9125 26.9066)" fill="#4DDCDC"/>
<circle cx="18.4105" cy="26.9066" r="1.41616" transform="rotate(-180 18.4105 26.9066)" fill="#4DDCDC"/>
<circle cx="9.91636" cy="26.9066" r="1.41616" transform="rotate(-180 9.91636 26.9066)" fill="#4DDCDC"/>
<circle cx="1.41636" cy="26.9066" r="1.41616" transform="rotate(-180 1.41636 26.9066)" fill="#4DDCDC"/>
<circle cx="43.9066" cy="18.4095" r="1.41616" transform="rotate(-180 43.9066 18.4095)" fill="#4DDCDC"/>
<circle cx="35.4125" cy="18.4095" r="1.41616" transform="rotate(-180 35.4125 18.4095)" fill="#4DDCDC"/>
<circle cx="26.9125" cy="18.4095" r="1.41616" transform="rotate(-180 26.9125 18.4095)" fill="#4DDCDC"/>
<circle cx="18.4105" cy="18.4095" r="1.41616" transform="rotate(-180 18.4105 18.4095)" fill="#4DDCDC"/>
<circle cx="9.91636" cy="18.4095" r="1.41616" transform="rotate(-180 9.91636 18.4095)" fill="#4DDCDC"/>
<circle cx="1.41636" cy="18.4095" r="1.41616" transform="rotate(-180 1.41636 18.4095)" fill="#4DDCDC"/>
<circle cx="43.9066" cy="9.91196" r="1.41616" transform="rotate(-180 43.9066 9.91196)" fill="#4DDCDC"/>
<circle cx="35.4125" cy="9.91196" r="1.41616" transform="rotate(-180 35.4125 9.91196)" fill="#4DDCDC"/>
<circle cx="26.9125" cy="9.91196" r="1.41616" transform="rotate(-180 26.9125 9.91196)" fill="#4DDCDC"/>
<circle cx="18.4105" cy="9.91196" r="1.41616" transform="rotate(-180 18.4105 9.91196)" fill="#4DDCDC"/>
<circle cx="9.91636" cy="9.91196" r="1.41616" transform="rotate(-180 9.91636 9.91196)" fill="#4DDCDC"/>
<circle cx="1.41636" cy="9.91196" r="1.41616" transform="rotate(-180 1.41636 9.91196)" fill="#4DDCDC"/>
<circle cx="43.9066" cy="1.41636" r="1.41616" transform="rotate(-180 43.9066 1.41636)" fill="#4DDCDC"/>
<circle cx="35.4125" cy="1.41636" r="1.41616" transform="rotate(-180 35.4125 1.41636)" fill="#4DDCDC"/>
<circle cx="26.9125" cy="1.41636" r="1.41616" transform="rotate(-180 26.9125 1.41636)" fill="#4DDCDC"/>
<circle cx="18.4105" cy="1.41636" r="1.41616" transform="rotate(-180 18.4105 1.41636)" fill="#4DDCDC"/>
<circle cx="9.91636" cy="1.41636" r="1.41616" transform="rotate(-180 9.91636 1.41636)" fill="#4DDCDC"/>
<circle cx="1.41636" cy="1.41636" r="1.41616" transform="rotate(-180 1.41636 1.41636)" fill="#4DDCDC"/>
</svg>
