<svg width="28" height="28" viewBox="0 0 28 28" fill="none" xmlns="http://www.w3.org/2000/svg">
<g clip-path="url(#clip0_2137_453)">
<path d="M22.5236 4H5.47639C5.08483 4 4.7093 4.15555 4.43242 4.43242C4.15555 4.7093 4 5.08483 4 5.47639V22.5236C4 22.9152 4.15555 23.2907 4.43242 23.5676C4.7093 23.8445 5.08483 24 5.47639 24H22.5236C22.9152 24 23.2907 23.8445 23.5676 23.5676C23.8445 23.2907 24 22.9152 24 22.5236V5.47639C24 5.08483 23.8445 4.7093 23.5676 4.43242C23.2907 4.15555 22.9152 4 22.5236 4ZM9.96111 21.0375H6.95417V11.4861H9.96111V21.0375ZM8.45556 10.1625C8.11447 10.1606 7.7816 10.0577 7.49895 9.86674C7.21629 9.67582 6.99653 9.40544 6.8674 9.08974C6.73826 8.77404 6.70554 8.42716 6.77336 8.09288C6.84118 7.7586 7.0065 7.4519 7.24846 7.21148C7.49042 6.97107 7.79818 6.80772 8.13289 6.74205C8.4676 6.67638 8.81426 6.71133 9.12913 6.84249C9.44399 6.97365 9.71295 7.19514 9.90205 7.47901C10.0912 7.76288 10.1919 8.09641 10.1917 8.4375C10.1949 8.66586 10.1521 8.89253 10.0658 9.104C9.97959 9.31547 9.85165 9.50742 9.68964 9.66839C9.52763 9.82936 9.33487 9.95607 9.12285 10.041C8.91083 10.1258 8.68389 10.1672 8.45556 10.1625ZM21.0444 21.0458H18.0389V15.8278C18.0389 14.2889 17.3847 13.8139 16.5403 13.8139C15.6486 13.8139 14.7736 14.4861 14.7736 15.8667V21.0458H11.7667V11.4931H14.6583V12.8167H14.6972C14.9875 12.2292 16.0042 11.225 17.5556 11.225C19.2333 11.225 21.0458 12.2208 21.0458 15.1375L21.0444 21.0458Z" fill="#0A66C2"/>
</g>
<defs>
<clipPath id="clip0_2137_453">
<rect width="20" height="20" fill="white" transform="translate(4 4)"/>
</clipPath>
</defs>
</svg>
