<svg width="28" height="28" viewBox="0 0 28 28" fill="none" xmlns="http://www.w3.org/2000/svg">
<g clip-path="url(#clip0_2137_451)">
<path d="M24 14C24 8.4772 19.5228 4 14 4C8.4772 4 4 8.4772 4 14C4 18.6896 7.2288 22.6248 11.5844 23.7056V17.056H9.5224V14H11.5844V12.6832C11.5844 9.2796 13.1248 7.702 16.4664 7.702C17.1 7.702 18.1932 7.8264 18.6404 7.9504V10.7204C18.4044 10.6956 17.9944 10.6832 17.4852 10.6832C15.8456 10.6832 15.212 11.3044 15.212 12.9192V14H18.4784L17.9172 17.056H15.212V23.9268C20.1636 23.3288 24.0004 19.1128 24.0004 14H24Z" fill="#0866FF"/>
<path d="M17.9168 17.056L18.478 14H15.2116V12.9192C15.2116 11.3044 15.8452 10.6832 17.4848 10.6832C17.994 10.6832 18.404 10.6956 18.64 10.7204V7.9504C18.1928 7.826 17.0996 7.702 16.466 7.702C13.1244 7.702 11.584 9.2796 11.584 12.6832V14H9.52197V17.056H11.584V23.7056C12.3576 23.8976 13.1668 24 13.9996 24C14.4096 24 14.814 23.9748 15.2112 23.9268V17.056H17.9164H17.9168Z" fill="white"/>
</g>
<defs>
<clipPath id="clip0_2137_451">
<rect width="20" height="20" fill="white" transform="translate(4 4)"/>
</clipPath>
</defs>
</svg>
