<svg width="28" height="28" viewBox="0 0 28 28" fill="none" xmlns="http://www.w3.org/2000/svg">
<path d="M4 24L5.40583 18.8642C4.53833 17.3608 4.0825 15.6567 4.08333 13.9092C4.08583 8.44583 8.53166 4 13.9941 4C16.645 4.00083 19.1333 5.03333 21.005 6.90667C22.8758 8.78 23.9058 11.27 23.905 13.9183C23.9025 19.3825 19.4566 23.8283 13.9941 23.8283C12.3358 23.8275 10.7017 23.4117 9.25415 22.6217L4 24ZM9.49749 20.8275C10.8942 21.6567 12.2275 22.1533 13.9908 22.1542C18.5308 22.1542 22.2291 18.4592 22.2316 13.9167C22.2333 9.365 18.5525 5.675 13.9975 5.67333C9.45415 5.67333 5.75833 9.36833 5.75666 13.91C5.75583 15.7642 6.29916 17.1525 7.21166 18.605L6.37916 21.645L9.49749 20.8275ZM18.9866 16.2742C18.925 16.1708 18.76 16.1092 18.5116 15.985C18.2641 15.8608 17.0466 15.2617 16.8191 15.1792C16.5925 15.0967 16.4275 15.055 16.2616 15.3033C16.0966 15.5508 15.6216 16.1092 15.4775 16.2742C15.3333 16.4392 15.1883 16.46 14.9408 16.3358C14.6933 16.2117 13.895 15.9508 12.9491 15.1067C12.2133 14.45 11.7158 13.6392 11.5716 13.3908C11.4275 13.1433 11.5566 13.0092 11.68 12.8858C11.7916 12.775 11.9275 12.5967 12.0516 12.4517C12.1775 12.3083 12.2183 12.205 12.3016 12.0392C12.3841 11.8742 12.3433 11.7292 12.2808 11.605C12.2183 11.4817 11.7233 10.2625 11.5175 9.76667C11.3158 9.28417 11.1117 9.34917 10.96 9.34167L10.485 9.33333C10.32 9.33333 10.0517 9.395 9.82499 9.64333C9.59832 9.89167 8.95832 10.49 8.95832 11.7092C8.95832 12.9283 9.84582 14.1058 9.96915 14.2708C10.0933 14.4358 11.715 16.9375 14.1991 18.01C14.79 18.265 15.2516 18.4175 15.6108 18.5317C16.2041 18.72 16.7441 18.6933 17.1708 18.63C17.6466 18.5592 18.6358 18.0308 18.8425 17.4525C19.0491 16.8733 19.0491 16.3775 18.9866 16.2742Z" fill="#25D366"/>
</svg>
