<svg width="32" height="32" viewBox="0 0 32 32" fill="none" xmlns="http://www.w3.org/2000/svg">
<path fill-rule="evenodd" clip-rule="evenodd" d="M29.1789 28.3246H23.2484V19.7735C23.2484 17.5353 22.3207 16.0073 20.2808 16.0073C18.7205 16.0073 17.8527 17.0384 17.4488 18.0322C17.2974 18.3888 17.3211 18.8857 17.3211 19.3826V28.3246H11.4458C11.4458 28.3246 11.5215 13.1772 11.4458 11.8003H17.3211V14.3937C17.6681 13.2598 19.5456 11.6414 22.5416 11.6414C26.2586 11.6414 29.1789 14.0183 29.1789 19.1365V28.3246ZM5.50422 9.73342H5.46636C3.57314 9.73342 2.3457 8.47023 2.3457 6.86904C2.3457 5.23671 3.60943 4 5.54051 4C7.47001 4 8.65643 5.2336 8.69429 6.86437C8.69429 8.46555 7.47001 9.73342 5.50422 9.73342ZM3.02253 11.8003H8.25254V28.3246H3.02253V11.8003Z" fill="white"/>
</svg>
