<svg width="80" height="80" viewBox="0 0 80 80" fill="none" xmlns="http://www.w3.org/2000/svg">
<path d="M40 -1.74846e-06C48.4472 -2.11769e-06 56.6775 2.6742 63.5114 7.63932L45.8779 31.9098C44.1694 30.6685 42.1118 30 40 30L40 -1.74846e-06Z" fill="#07C8CC"/>
<path d="M63.5114 7.63932C71.2166 13.2375 76.6714 21.4012 78.8948 30.6622C81.1182 39.9232 79.9641 49.6736 75.6403 58.1596C71.3164 66.6457 64.1065 73.3105 55.3073 76.9552C46.5082 80.5999 36.6973 80.9854 27.6393 78.0423C18.5813 75.0991 10.8707 69.0206 5.89439 60.8999C0.918049 52.7793 -0.997437 43.1495 0.492465 33.7426C1.98237 24.3357 6.77988 15.7692 14.0221 9.58376C21.2643 3.39833 30.4759 -2.99739e-06 40 -1.74846e-06L40 30C37.619 30 35.3161 30.8496 33.5055 32.3959C31.695 33.9423 30.4956 36.0839 30.1231 38.4357C29.7506 40.7874 30.2295 43.1948 31.4736 45.225C32.7177 47.2551 34.6453 48.7748 36.9098 49.5106C39.1743 50.2463 41.627 50.15 43.8268 49.2388C46.0266 48.3276 47.8291 46.6614 48.9101 44.5399C49.991 42.4184 50.2795 39.9808 49.7237 37.6655C49.1679 35.3503 47.8041 33.3094 45.8779 31.9098L63.5114 7.63932Z" fill="#07C8CC" fill-opacity="0.15"/>
<circle cx="40" cy="40" r="30" fill="white"/>
<path d="M31.9701 28.186V25.05C34.4341 25.05 35.6661 24.21 36.3101 22.362H40.0341V40.002H35.2741V28.186H31.9701Z" fill="black"/>
<path d="M47.3987 25.282C47.3987 26.1886 47.1587 26.8926 46.6787 27.394C46.1987 27.8846 45.548 28.13 44.7267 28.13C43.9587 28.13 43.324 27.8846 42.8227 27.394C42.332 26.8926 42.0867 26.1886 42.0867 25.282C42.0867 24.3753 42.3267 23.6766 42.8067 23.186C43.2867 22.6953 43.9373 22.45 44.7587 22.45C45.26 22.45 45.708 22.562 46.1027 22.786C46.508 22.9993 46.8227 23.3193 47.0467 23.746C47.2813 24.162 47.3987 24.674 47.3987 25.282ZM43.6707 25.282C43.6707 25.8046 43.756 26.1993 43.9267 26.466C44.0973 26.722 44.3693 26.85 44.7427 26.85C45.116 26.85 45.3827 26.722 45.5427 26.466C45.7133 26.1993 45.7987 25.8046 45.7987 25.282C45.7987 24.7593 45.7133 24.37 45.5427 24.114C45.3827 23.858 45.116 23.73 44.7427 23.73C44.3693 23.73 44.0973 23.858 43.9267 24.114C43.756 24.37 43.6707 24.7593 43.6707 25.282Z" fill="black"/>
<path d="M20.6628 54.592C20.6628 51.876 22.6088 50.014 25.1848 50.014C27.8868 50.014 29.3288 51.736 29.4968 53.934L27.2148 54.018C27.0748 53.038 26.5428 52.128 25.1708 52.128C23.8688 52.128 23.1128 53.094 23.1128 54.592C23.1128 56.09 23.8688 57.056 25.1708 57.056C26.5428 57.056 27.0748 56.146 27.2148 55.166L29.4968 55.264C29.3288 57.462 27.8868 59.17 25.1848 59.17C22.6088 59.17 20.6628 57.308 20.6628 54.592ZM30.42 50.182H32.8V59.002H30.42V50.182ZM33.7468 54.592C33.7468 51.876 35.6928 50.014 38.2688 50.014C40.9708 50.014 42.4128 51.736 42.5808 53.934L40.2988 54.018C40.1588 53.038 39.6268 52.128 38.2548 52.128C36.9528 52.128 36.1968 53.094 36.1968 54.592C36.1968 56.09 36.9528 57.056 38.2548 57.056C39.6268 57.056 40.1588 56.146 40.2988 55.166L42.5808 55.264C42.4128 57.462 40.9708 59.17 38.2688 59.17C35.6928 59.17 33.7468 57.308 33.7468 54.592ZM43.504 50.182H45.884V57.042H50.252V59.002H43.504V50.182ZM59.6098 54.592C59.6098 57.308 57.5938 59.17 55.0318 59.17C52.4698 59.17 50.4538 57.308 50.4538 54.592C50.4538 51.876 52.4698 50.014 55.0318 50.014C57.5938 50.014 59.6098 51.876 59.6098 54.592ZM57.1598 54.592C57.1598 53.094 56.3338 52.114 55.0318 52.114C53.7298 52.114 52.9038 53.094 52.9038 54.592C52.9038 56.09 53.7298 57.07 55.0318 57.07C56.3338 57.07 57.1598 56.09 57.1598 54.592Z" fill="black"/>
</svg>
