<svg width="81" height="80" viewBox="0 0 81 80" fill="none" xmlns="http://www.w3.org/2000/svg">
<path d="M40.375 -1.74846e-06C48.8222 -2.11769e-06 57.0525 2.6742 63.8864 7.63932L46.2529 31.9098C44.5444 30.6685 42.4868 30 40.375 30L40.375 -1.74846e-06Z" fill="#07C8CC"/>
<path d="M2.48824 52.8245C-0.220206 44.8233 -0.326115 36.1701 2.18569 28.105L30.8287 37.0257C30.2008 39.0419 30.2272 41.2052 30.9043 43.2055L2.48824 52.8245Z" fill="#07C8CC"/>
<path d="M63.8864 7.63932C71.5916 13.2375 77.0464 21.4012 79.2698 30.6622C81.4932 39.9232 80.3391 49.6736 76.0153 58.1596C71.6914 66.6457 64.4815 73.3105 55.6823 76.9552C46.8832 80.5999 37.0723 80.9854 28.0143 78.0423C18.9563 75.0991 11.2457 69.0206 6.26939 60.8999C1.29305 52.7793 -0.622437 43.1495 0.867465 33.7426C2.35737 24.3357 7.15488 15.7692 14.3971 9.58376C21.6393 3.39833 30.8509 -2.99739e-06 40.375 -1.74846e-06L40.375 30C37.994 30 35.6911 30.8496 33.8805 32.3959C32.07 33.9423 30.8706 36.0839 30.4981 38.4357C30.1256 40.7874 30.6045 43.1948 31.8486 45.225C33.0927 47.2551 35.0203 48.7748 37.2848 49.5106C39.5493 50.2463 42.002 50.15 44.2018 49.2388C46.4016 48.3276 48.2041 46.6614 49.2851 44.5399C50.366 42.4184 50.6545 39.9808 50.0987 37.6655C49.5429 35.3503 48.1791 33.3094 46.2529 31.9098L63.8864 7.63932Z" fill="#DAF7F7"/>
<path d="M63.882 7.63623C70.7166 12.6004 75.8043 19.6008 78.4157 27.6341L49.8854 36.9088C49.2325 34.9004 47.9606 33.1503 46.252 31.9093L63.882 7.63623Z" fill="#07C8CC"/>
<path d="M2.47624 52.7899C-0.224754 44.7862 -0.322605 36.1328 2.19671 28.0701L30.8314 37.0174C30.2016 39.0331 30.226 41.1964 30.9013 43.1974L2.47624 52.7899Z" fill="#07C8CC"/>
<path d="M78.3669 27.4854C81.0098 35.5084 81.0449 44.1623 78.4671 52.2065L49.8981 43.0517C50.5425 41.0406 50.5338 38.8772 49.873 36.8714L78.3669 27.4854Z" fill="#07C8CC"/>
<path d="M78.5129 52.0653C75.9649 60.119 70.9327 67.1594 64.1374 72.1773L46.3164 48.0441C48.0152 46.7896 49.2733 45.0295 49.9103 43.0161L78.5129 52.0653Z" fill="#07C8CC"/>
<path d="M64.1376 72.1767C57.3425 77.1948 49.1332 79.9328 40.6863 79.9985L40.4531 49.9994C42.5649 49.983 44.6172 49.2985 46.316 48.0439L64.1376 72.1767Z" fill="#07C8CC"/>
<path d="M64.1376 72.1767C57.3425 77.1948 49.1332 79.9328 40.6863 79.9985L40.4531 49.9994C42.5649 49.983 44.6172 49.2985 46.316 48.0439L64.1376 72.1767Z" fill="#07C8CC"/>
<path d="M41.0136 80.002C32.5666 80.0562 23.8792 77.4231 17.0135 72.502L34.5494 48.1276C36.2658 49.3579 38.3277 50.0132 40.4394 49.9996L41.0136 80.002Z" fill="#07C8CC"/>
<path d="M17.0144 72.5018C10.156 67.5706 5.04486 60.5688 2.39478 52.5481L30.8802 43.1364C31.5427 45.1416 31.0144 47.502 34.5376 48.1183L17.0144 72.5018Z" fill="#07C8CC"/>
<path d="M2.18925 28.0926C4.70394 20.0285 9.70703 12.9674 16.4815 7.92141L34.4021 31.9807C32.7085 33.2422 31.4578 35.0075 30.8291 37.0235L2.18925 28.0926Z" fill="#07C8CC"/>
<path d="M16.272 8.07834C23.2251 2.82781 31.7024 -0.00888328 40.4152 -0.000530564L40.3864 29.9995C38.2082 29.9974 36.0889 30.7065 34.3506 32.0192L16.272 8.07834Z" fill="#07C8CC"/>
<circle cx="40.375" cy="40" r="30" fill="white"/>
<path d="M23.683 29.184V26.048C26.147 26.048 27.379 25.208 28.023 23.36H31.747V41H26.987V29.184H23.683ZM50.4601 32.18C50.4601 38.032 47.3241 41.336 42.4801 41.336C37.6641 41.336 34.5001 38.032 34.5001 32.18C34.5001 26.328 37.6641 23.024 42.4801 23.024C47.3241 23.024 50.4601 26.328 50.4601 32.18ZM45.4481 32.18C45.4481 28.54 44.6361 26.86 42.4801 26.86C40.3521 26.86 39.5401 28.54 39.5401 32.18C39.5401 35.82 40.3521 37.5 42.4801 37.5C44.6361 37.5 45.4481 35.82 45.4481 32.18Z" fill="black"/>
<path d="M58.135 26.28C58.135 27.1867 57.895 27.8907 57.415 28.392C56.935 28.8827 56.2843 29.128 55.463 29.128C54.695 29.128 54.0603 28.8827 53.559 28.392C53.0683 27.8907 52.823 27.1867 52.823 26.28C52.823 25.3733 53.063 24.6747 53.543 24.184C54.023 23.6933 54.6737 23.448 55.495 23.448C55.9963 23.448 56.4443 23.56 56.839 23.784C57.2443 23.9973 57.559 24.3173 57.783 24.744C58.0177 25.16 58.135 25.672 58.135 26.28ZM54.407 26.28C54.407 26.8027 54.4923 27.1973 54.663 27.464C54.8337 27.72 55.1057 27.848 55.479 27.848C55.8523 27.848 56.119 27.72 56.279 27.464C56.4497 27.1973 56.535 26.8027 56.535 26.28C56.535 25.7573 56.4497 25.368 56.279 25.112C56.119 24.856 55.8523 24.728 55.479 24.728C55.1057 24.728 54.8337 24.856 54.663 25.112C54.4923 25.368 54.407 25.7573 54.407 26.28Z" fill="black"/>
<path d="M21.8991 55.59C21.8991 52.874 23.8451 51.012 26.4211 51.012C29.1231 51.012 30.5651 52.734 30.7331 54.932L28.4511 55.016C28.3111 54.036 27.7791 53.126 26.4071 53.126C25.1051 53.126 24.3491 54.092 24.3491 55.59C24.3491 57.088 25.1051 58.054 26.4071 58.054C27.7791 58.054 28.3111 57.144 28.4511 56.164L30.7331 56.262C30.5651 58.46 29.1231 60.168 26.4211 60.168C23.8451 60.168 21.8991 58.306 21.8991 55.59ZM31.6564 51.18H34.0364V60H31.6564V51.18ZM34.9831 55.59C34.9831 52.874 36.9291 51.012 39.5051 51.012C42.2071 51.012 43.6491 52.734 43.8171 54.932L41.5351 55.016C41.3951 54.036 40.8631 53.126 39.4911 53.126C38.1891 53.126 37.4331 54.092 37.4331 55.59C37.4331 57.088 38.1891 58.054 39.4911 58.054C40.8631 58.054 41.3951 57.144 41.5351 56.164L43.8171 56.262C43.6491 58.46 42.2071 60.168 39.5051 60.168C36.9291 60.168 34.9831 58.306 34.9831 55.59ZM44.7404 51.18H47.1204V58.04H51.4884V60H44.7404V51.18ZM60.8462 55.59C60.8462 58.306 58.8302 60.168 56.2682 60.168C53.7062 60.168 51.6902 58.306 51.6902 55.59C51.6902 52.874 53.7062 51.012 56.2682 51.012C58.8302 51.012 60.8462 52.874 60.8462 55.59ZM58.3962 55.59C58.3962 54.092 57.5702 53.112 56.2682 53.112C54.9662 53.112 54.1402 54.092 54.1402 55.59C54.1402 57.088 54.9662 58.068 56.2682 58.068C57.5702 58.068 58.3962 57.088 58.3962 55.59Z" fill="black"/>
</svg>
