<svg width="81" height="80" viewBox="0 0 81 80" fill="none" xmlns="http://www.w3.org/2000/svg">
<path d="M40.9727 -1.74846e-06C49.4198 -2.11769e-06 57.6502 2.6742 64.4841 7.63932L46.8505 31.9098C45.142 30.6685 43.0844 30 40.9727 30L40.9727 -1.74846e-06Z" fill="#07C8CC"/>
<path d="M64.4841 7.63932C72.1892 13.2375 77.6441 21.4012 79.8675 30.6622C82.0908 39.9232 80.9368 49.6736 76.6129 58.1596C72.2891 66.6457 65.0791 73.3105 56.28 76.9552C47.4808 80.5999 37.67 80.9854 28.612 78.0423C19.554 75.0991 11.8434 69.0206 6.86705 60.8999C1.89071 52.7793 -0.0247808 43.1495 1.46512 33.7426C2.95502 24.3357 7.75253 15.7692 14.9947 9.58376C22.2369 3.39833 31.4485 -2.99739e-06 40.9727 -1.74846e-06L40.9727 30C38.5916 30 36.2887 30.8496 34.4782 32.3959C32.6676 33.9423 31.4682 36.0839 31.0958 38.4357C30.7233 40.7874 31.2022 43.1948 32.4463 45.225C33.6903 47.2551 35.618 48.7748 37.8825 49.5106C40.147 50.2463 42.5997 50.15 44.7995 49.2388C46.9993 48.3276 48.8018 46.6614 49.8827 44.5399C50.9637 42.4184 51.2522 39.9808 50.6964 37.6655C50.1405 35.3503 48.7768 33.3094 46.8505 31.9098L64.4841 7.63932Z" fill="#DAF7F7"/>
<path d="M64.4796 7.63623C71.3143 12.6004 76.4019 19.6008 79.0134 27.6341L50.483 36.9088C49.8302 34.9004 48.5583 33.1503 46.8496 31.9093L64.4796 7.63623Z" fill="#07C8CC"/>
<path d="M78.9646 27.4854C81.6075 35.5084 81.6425 44.1623 79.0648 52.2065L50.4957 43.0517C51.1402 41.0406 51.1314 38.8772 50.4707 36.8714L78.9646 27.4854Z" fill="#07C8CC"/>
<circle cx="40.9727" cy="40" r="30" fill="white"/>
<path d="M39.7954 34.822C39.7954 33.534 38.7874 32.918 37.4434 32.918C37.1074 32.918 36.6314 32.918 36.1554 32.974V29.586C36.4354 29.642 37.0514 29.642 37.4994 29.642C38.5354 29.642 39.5154 29.026 39.5154 27.794C39.5154 26.618 38.8434 25.862 37.5274 25.862C35.9874 25.862 35.2034 27.122 35.2034 28.774L30.6394 28.578C30.6394 24.938 33.2434 22.026 37.6674 22.026C41.8394 22.026 44.2194 24.154 44.2194 27.29C44.2194 29.418 42.7074 30.846 41.0554 31.07C43.3794 31.462 44.6674 33.03 44.6674 35.186C44.6674 38.49 41.8674 40.338 37.7514 40.338C33.1314 40.338 30.4154 37.846 30.4154 33.926L35.0914 34.066C35.1474 35.746 36.1834 36.502 37.7514 36.502C38.8434 36.502 39.7954 35.942 39.7954 34.822Z" fill="black"/>
<path d="M51.3713 25.282C51.3713 26.1886 51.1313 26.8926 50.6513 27.394C50.1713 27.8846 49.5207 28.13 48.6993 28.13C47.9313 28.13 47.2967 27.8846 46.7953 27.394C46.3047 26.8926 46.0593 26.1886 46.0593 25.282C46.0593 24.3753 46.2993 23.6766 46.7793 23.186C47.2593 22.6953 47.91 22.45 48.7313 22.45C49.2327 22.45 49.6807 22.562 50.0753 22.786C50.4807 22.9993 50.7953 23.3193 51.0193 23.746C51.254 24.162 51.3713 24.674 51.3713 25.282ZM47.6433 25.282C47.6433 25.8046 47.7287 26.1993 47.8993 26.466C48.07 26.722 48.342 26.85 48.7153 26.85C49.0887 26.85 49.3553 26.722 49.5153 26.466C49.686 26.1993 49.7713 25.8046 49.7713 25.282C49.7713 24.7593 49.686 24.37 49.5153 24.114C49.3553 23.858 49.0887 23.73 48.7153 23.73C48.342 23.73 48.07 23.858 47.8993 24.114C47.7287 24.37 47.6433 24.7593 47.6433 25.282Z" fill="black"/>
<path d="M21.6355 54.592C21.6355 51.876 23.5815 50.014 26.1575 50.014C28.8595 50.014 30.3015 51.736 30.4695 53.934L28.1875 54.018C28.0475 53.038 27.5155 52.128 26.1435 52.128C24.8415 52.128 24.0855 53.094 24.0855 54.592C24.0855 56.09 24.8415 57.056 26.1435 57.056C27.5155 57.056 28.0475 56.146 28.1875 55.166L30.4695 55.264C30.3015 57.462 28.8595 59.17 26.1575 59.17C23.5815 59.17 21.6355 57.308 21.6355 54.592ZM31.3927 50.182H33.7727V59.002H31.3927V50.182ZM34.7195 54.592C34.7195 51.876 36.6655 50.014 39.2415 50.014C41.9435 50.014 43.3855 51.736 43.5535 53.934L41.2715 54.018C41.1315 53.038 40.5995 52.128 39.2275 52.128C37.9255 52.128 37.1695 53.094 37.1695 54.592C37.1695 56.09 37.9255 57.056 39.2275 57.056C40.5995 57.056 41.1315 56.146 41.2715 55.166L43.5535 55.264C43.3855 57.462 41.9435 59.17 39.2415 59.17C36.6655 59.17 34.7195 57.308 34.7195 54.592ZM44.4767 50.182H46.8567V57.042H51.2247V59.002H44.4767V50.182ZM60.5825 54.592C60.5825 57.308 58.5665 59.17 56.0045 59.17C53.4425 59.17 51.4265 57.308 51.4265 54.592C51.4265 51.876 53.4425 50.014 56.0045 50.014C58.5665 50.014 60.5825 51.876 60.5825 54.592ZM58.1325 54.592C58.1325 53.094 57.3065 52.114 56.0045 52.114C54.7025 52.114 53.8765 53.094 53.8765 54.592C53.8765 56.09 54.7025 57.07 56.0045 57.07C57.3065 57.07 58.1325 56.09 58.1325 54.592Z" fill="black"/>
</svg>
