<svg width="81" height="80" viewBox="0 0 81 80" fill="none" xmlns="http://www.w3.org/2000/svg">
<path d="M40.458 -1.74846e-06C48.9052 -2.11769e-06 57.1355 2.6742 63.9694 7.63932L46.3359 31.9098C44.6274 30.6685 42.5698 30 40.458 30L40.458 -1.74846e-06Z" fill="#07C8CC"/>
<path d="M63.9694 7.63932C71.6746 13.2375 77.1294 21.4012 79.3528 30.6622C81.5762 39.9232 80.4221 49.6736 76.0983 58.1596C71.7744 66.6457 64.5645 73.3105 55.7653 76.9552C46.9662 80.5999 37.1553 80.9854 28.0973 78.0423C19.0393 75.0991 11.3287 69.0206 6.3524 60.8999C1.37606 52.7793 -0.539429 43.1495 0.950473 33.7426C2.44038 24.3357 7.23789 15.7692 14.4801 9.58376C21.7223 3.39833 30.9339 -2.99739e-06 40.458 -1.74846e-06L40.458 30C38.077 30 35.7741 30.8496 33.9635 32.3959C32.153 33.9423 30.9536 36.0839 30.5811 38.4357C30.2086 40.7874 30.6875 43.1948 31.9316 45.225C33.1757 47.2551 35.1033 48.7748 37.3678 49.5106C39.6323 50.2463 42.0851 50.15 44.2848 49.2388C46.4846 48.3276 48.2871 46.6614 49.3681 44.5399C50.449 42.4184 50.7375 39.9808 50.1817 37.6655C49.6259 35.3503 48.2622 33.3094 46.3359 31.9098L63.9694 7.63932Z" fill="#DAF7F7"/>
<path d="M63.965 7.63672C70.7996 12.6008 75.8873 19.6013 78.4987 27.6346L49.9684 36.9093C49.3155 34.9009 48.0436 33.1508 46.335 31.9098L63.965 7.63672Z" fill="#07C8CC"/>
<path d="M78.45 27.4854C81.0928 35.5084 81.1279 44.1623 78.5501 52.2065L49.9811 43.0517C50.6255 41.0406 50.6168 38.8772 49.9561 36.8714L78.45 27.4854Z" fill="#07C8CC"/>
<path d="M78.595 52.0658C76.047 60.1195 71.0147 67.1599 64.2195 72.1778L46.3984 48.0446C48.0972 46.7901 49.3553 45.03 49.9923 43.0166L78.595 52.0658Z" fill="#07C8CC"/>
<circle cx="40.458" cy="40" r="30" fill="white"/>
<path d="M42.6702 22.36V32.272H44.9382V36.276H42.6702V40H37.9942V36.276H29.3702V31.936L36.9582 22.36H42.6702ZM37.9942 26.504L33.4302 32.272H37.9942V26.504Z" fill="black"/>
<path d="M51.3567 25.28C51.3567 26.1867 51.1167 26.8907 50.6367 27.392C50.1567 27.8827 49.506 28.128 48.6847 28.128C47.9167 28.128 47.282 27.8827 46.7807 27.392C46.29 26.8907 46.0447 26.1867 46.0447 25.28C46.0447 24.3733 46.2847 23.6747 46.7647 23.184C47.2447 22.6933 47.8953 22.448 48.7167 22.448C49.218 22.448 49.666 22.56 50.0607 22.784C50.466 22.9973 50.7807 23.3173 51.0047 23.744C51.2393 24.16 51.3567 24.672 51.3567 25.28ZM47.6287 25.28C47.6287 25.8027 47.714 26.1973 47.8847 26.464C48.0553 26.72 48.3273 26.848 48.7007 26.848C49.074 26.848 49.3407 26.72 49.5007 26.464C49.6713 26.1973 49.7567 25.8027 49.7567 25.28C49.7567 24.7573 49.6713 24.368 49.5007 24.112C49.3407 23.856 49.074 23.728 48.7007 23.728C48.3273 23.728 48.0553 23.856 47.8847 24.112C47.714 24.368 47.6287 24.7573 47.6287 25.28Z" fill="black"/>
<path d="M21.1208 54.59C21.1208 51.874 23.0668 50.012 25.6428 50.012C28.3448 50.012 29.7868 51.734 29.9548 53.932L27.6728 54.016C27.5328 53.036 27.0008 52.126 25.6288 52.126C24.3268 52.126 23.5708 53.092 23.5708 54.59C23.5708 56.088 24.3268 57.054 25.6288 57.054C27.0008 57.054 27.5328 56.144 27.6728 55.164L29.9548 55.262C29.7868 57.46 28.3448 59.168 25.6428 59.168C23.0668 59.168 21.1208 57.306 21.1208 54.59ZM30.8781 50.18H33.2581V59H30.8781V50.18ZM34.2048 54.59C34.2048 51.874 36.1508 50.012 38.7268 50.012C41.4288 50.012 42.8708 51.734 43.0388 53.932L40.7568 54.016C40.6168 53.036 40.0848 52.126 38.7128 52.126C37.4108 52.126 36.6548 53.092 36.6548 54.59C36.6548 56.088 37.4108 57.054 38.7128 57.054C40.0848 57.054 40.6168 56.144 40.7568 55.164L43.0388 55.262C42.8708 57.46 41.4288 59.168 38.7268 59.168C36.1508 59.168 34.2048 57.306 34.2048 54.59ZM43.962 50.18H46.342V57.04H50.71V59H43.962V50.18ZM60.0678 54.59C60.0678 57.306 58.0518 59.168 55.4898 59.168C52.9278 59.168 50.9118 57.306 50.9118 54.59C50.9118 51.874 52.9278 50.012 55.4898 50.012C58.0518 50.012 60.0678 51.874 60.0678 54.59ZM57.6178 54.59C57.6178 53.092 56.7918 52.112 55.4898 52.112C54.1878 52.112 53.3618 53.092 53.3618 54.59C53.3618 56.088 54.1878 57.068 55.4898 57.068C56.7918 57.068 57.6178 56.088 57.6178 54.59Z" fill="black"/>
</svg>
