<svg width="81" height="80" viewBox="0 0 81 80" fill="none" xmlns="http://www.w3.org/2000/svg">
<path d="M40.9443 -1.74846e-06C49.3915 -2.11769e-06 57.6218 2.6742 64.4557 7.63932L46.8222 31.9098C45.1137 30.6685 43.0561 30 40.9443 30L40.9443 -1.74846e-06Z" fill="#07C8CC"/>
<path d="M64.4557 7.63932C72.1609 13.2375 77.6158 21.4012 79.8391 30.6622C82.0625 39.9232 80.9085 49.6736 76.5846 58.1596C72.2607 66.6457 65.0508 73.3105 56.2517 76.9552C47.4525 80.5999 37.6416 80.9854 28.5837 78.0423C19.5257 75.0991 11.8151 69.0206 6.83873 60.8999C1.86238 52.7793 -0.0531012 43.1495 1.4368 33.7426C2.9267 24.3357 7.72421 15.7692 14.9664 9.58376C22.2086 3.39833 31.4202 -2.99739e-06 40.9443 -1.74846e-06L40.9443 30C38.5633 30 36.2604 30.8496 34.4499 32.3959C32.6393 33.9423 31.4399 36.0839 31.0675 38.4357C30.695 40.7874 31.1738 43.1948 32.4179 45.225C33.662 47.2551 35.5897 48.7748 37.8542 49.5106C40.1187 50.2463 42.5714 50.15 44.7712 49.2388C46.971 48.3276 48.7734 46.6614 49.8544 44.5399C50.9354 42.4184 51.2239 39.9808 50.668 37.6655C50.1122 35.3503 48.7485 33.3094 46.8222 31.9098L64.4557 7.63932Z" fill="#DAF7F7"/>
<path d="M64.4513 7.63672C71.2859 12.6008 76.3736 19.6013 78.9851 27.6346L50.4547 36.9093C49.8019 34.9009 48.5299 33.1508 46.8213 31.9098L64.4513 7.63672Z" fill="#07C8CC"/>
<path d="M78.9363 27.4854C81.5791 35.5084 81.6142 44.1623 79.0364 52.2065L50.4674 43.0517C51.1119 41.0406 51.1031 38.8772 50.4424 36.8714L78.9363 27.4854Z" fill="#07C8CC"/>
<path d="M79.0813 52.0658C76.5333 60.1195 71.501 67.1599 64.7058 72.1778L46.8848 48.0446C48.5836 46.7901 49.8416 45.03 50.4786 43.0166L79.0813 52.0658Z" fill="#07C8CC"/>
<path d="M64.7069 72.1772C57.9118 77.1953 49.7025 79.9333 41.2556 79.999L41.0225 49.9999C43.1342 49.9835 45.1865 49.299 46.8853 48.0444L64.7069 72.1772Z" fill="#07C8CC"/>
<circle cx="40.9443" cy="40" r="30" fill="white"/>
<path d="M43.2209 22.36V26.504H35.6609C35.6049 27.26 35.4369 28.184 35.2969 28.856C35.9129 28.38 36.8649 27.988 38.4049 27.988C42.4929 27.988 44.5369 30.648 44.5369 34.092C44.5369 38.012 41.6529 40.336 37.7609 40.336C33.0849 40.336 30.6209 37.872 30.7609 33.812L35.3249 34.12C35.3529 35.632 36.2769 36.5 37.7609 36.5C39.1889 36.5 40.1689 35.604 40.1689 34.092C40.1689 32.72 39.3569 31.544 37.7889 31.544C36.6689 31.544 36.0249 31.992 35.5769 32.664L31.0129 32.328C31.4329 29.92 32.0769 25.272 32.1609 22.36H43.2209Z" fill="black"/>
<path d="M50.843 25.28C50.843 26.1867 50.603 26.8907 50.123 27.392C49.643 27.8827 48.9923 28.128 48.171 28.128C47.403 28.128 46.7683 27.8827 46.267 27.392C45.7763 26.8907 45.531 26.1867 45.531 25.28C45.531 24.3733 45.771 23.6747 46.251 23.184C46.731 22.6933 47.3817 22.448 48.203 22.448C48.7043 22.448 49.1523 22.56 49.547 22.784C49.9523 22.9973 50.267 23.3173 50.491 23.744C50.7257 24.16 50.843 24.672 50.843 25.28ZM47.115 25.28C47.115 25.8027 47.2003 26.1973 47.371 26.464C47.5417 26.72 47.8137 26.848 48.187 26.848C48.5603 26.848 48.827 26.72 48.987 26.464C49.1577 26.1973 49.243 25.8027 49.243 25.28C49.243 24.7573 49.1577 24.368 48.987 24.112C48.827 23.856 48.5603 23.728 48.187 23.728C47.8137 23.728 47.5417 23.856 47.371 24.112C47.2003 24.368 47.115 24.7573 47.115 25.28Z" fill="black"/>
<path d="M21.6071 54.59C21.6071 51.874 23.5531 50.012 26.1291 50.012C28.8311 50.012 30.2731 51.734 30.4411 53.932L28.1591 54.016C28.0191 53.036 27.4871 52.126 26.1151 52.126C24.8131 52.126 24.0571 53.092 24.0571 54.59C24.0571 56.088 24.8131 57.054 26.1151 57.054C27.4871 57.054 28.0191 56.144 28.1591 55.164L30.4411 55.262C30.2731 57.46 28.8311 59.168 26.1291 59.168C23.5531 59.168 21.6071 57.306 21.6071 54.59ZM31.3644 50.18H33.7444V59H31.3644V50.18ZM34.6911 54.59C34.6911 51.874 36.6371 50.012 39.2131 50.012C41.9151 50.012 43.3571 51.734 43.5251 53.932L41.2431 54.016C41.1031 53.036 40.5711 52.126 39.1991 52.126C37.8971 52.126 37.1411 53.092 37.1411 54.59C37.1411 56.088 37.8971 57.054 39.1991 57.054C40.5711 57.054 41.1031 56.144 41.2431 55.164L43.5251 55.262C43.3571 57.46 41.9151 59.168 39.2131 59.168C36.6371 59.168 34.6911 57.306 34.6911 54.59ZM44.4484 50.18H46.8284V57.04H51.1964V59H44.4484V50.18ZM60.5542 54.59C60.5542 57.306 58.5382 59.168 55.9762 59.168C53.4142 59.168 51.3982 57.306 51.3982 54.59C51.3982 51.874 53.4142 50.012 55.9762 50.012C58.5382 50.012 60.5542 51.874 60.5542 54.59ZM58.1042 54.59C58.1042 53.092 57.2782 52.112 55.9762 52.112C54.6742 52.112 53.8482 53.092 53.8482 54.59C53.8482 56.088 54.6742 57.068 55.9762 57.068C57.2782 57.068 58.1042 56.088 58.1042 54.59Z" fill="black"/>
</svg>
