<svg width="81" height="80" viewBox="0 0 81 80" fill="none" xmlns="http://www.w3.org/2000/svg">
<path d="M40.4307 -1.74846e-06C48.8778 -2.11769e-06 57.1082 2.6742 63.9421 7.63932L46.3085 31.9098C44.6 30.6685 42.5425 30 40.4307 30L40.4307 -1.74846e-06Z" fill="#07C8CC"/>
<path d="M63.9421 7.63932C71.6473 13.2375 77.1021 21.4012 79.3255 30.6622C81.5488 39.9232 80.3948 49.6736 76.0709 58.1596C71.7471 66.6457 64.5371 73.3105 55.738 76.9552C46.9389 80.5999 37.128 80.9854 28.07 78.0423C19.012 75.0991 11.3014 69.0206 6.32505 60.8999C1.34871 52.7793 -0.566773 43.1495 0.923129 33.7426C2.41303 24.3357 7.21054 15.7692 14.4527 9.58376C21.6949 3.39833 30.9065 -2.99739e-06 40.4307 -1.74846e-06L40.4307 30C38.0496 30 35.7467 30.8496 33.9362 32.3959C32.1256 33.9423 30.9263 36.0839 30.5538 38.4357C30.1813 40.7874 30.6602 43.1948 31.9043 45.225C33.1483 47.2551 35.076 48.7748 37.3405 49.5106C39.605 50.2463 42.0577 50.15 44.2575 49.2388C46.4573 48.3276 48.2598 46.6614 49.3407 44.5399C50.4217 42.4184 50.7102 39.9808 50.1544 37.6655C49.5985 35.3503 48.2348 33.3094 46.3085 31.9098L63.9421 7.63932Z" fill="#DAF7F7"/>
<path d="M63.9377 7.63672C70.7723 12.6008 75.8599 19.6013 78.4714 27.6346L49.9411 36.9093C49.2882 34.9009 48.0163 33.1508 46.3076 31.9098L63.9377 7.63672Z" fill="#07C8CC"/>
<path d="M78.4226 27.4858C81.0655 35.5089 81.1005 44.1628 78.5228 52.207L49.9538 43.0522C50.5982 41.0411 50.5894 38.8776 49.9287 36.8719L78.4226 27.4858Z" fill="#07C8CC"/>
<path d="M78.5676 52.0658C76.0196 60.1195 70.9874 67.1599 64.1921 72.1778L46.3711 48.0446C48.0699 46.7901 49.328 45.03 49.965 43.0166L78.5676 52.0658Z" fill="#07C8CC"/>
<path d="M64.1923 72.1772C57.3972 77.1953 49.1879 79.9333 40.741 79.999L40.5078 49.9999C42.6195 49.9835 44.6719 49.299 46.3706 48.0444L64.1923 72.1772Z" fill="#07C8CC"/>
<path d="M64.1923 72.1772C57.3972 77.1953 49.1879 79.9333 40.741 79.999L40.5078 49.9999C42.6195 49.9835 44.6719 49.299 46.3706 48.0444L64.1923 72.1772Z" fill="#07C8CC"/>
<path d="M41.0692 80.0024C32.6222 80.0567 23.9934 77.4325 17.1278 72.5113L34.6051 48.1281C36.3215 49.3584 38.3833 50.0137 40.4951 50.0001L41.0692 80.0024Z" fill="#07C8CC"/>
<circle cx="40.4307" cy="40" r="30" fill="white"/>
<path d="M37.524 25.804C35.564 25.804 34.416 27.568 34.248 30.144C35.06 29.136 36.516 28.52 38.224 28.52C42.088 28.52 44.384 30.872 44.384 34.232C44.384 38.04 41.5 40.336 37.496 40.336C32.54 40.336 29.88 36.864 29.88 31.264C29.88 25.888 32.484 22.024 37.608 22.024C41.416 22.024 43.88 24.012 44.216 27.54L39.792 27.624C39.652 26.42 38.84 25.804 37.524 25.804ZM35.004 34.344C35.004 35.66 35.9 36.612 37.412 36.612C38.98 36.612 39.876 35.688 39.876 34.344C39.876 32.944 38.98 32.02 37.412 32.02C35.9 32.02 35.004 32.944 35.004 34.344Z" fill="black"/>
<path d="M50.8293 25.28C50.8293 26.1867 50.5893 26.8907 50.1093 27.392C49.6293 27.8827 48.9787 28.128 48.1573 28.128C47.3893 28.128 46.7547 27.8827 46.2533 27.392C45.7627 26.8907 45.5173 26.1867 45.5173 25.28C45.5173 24.3733 45.7573 23.6747 46.2373 23.184C46.7173 22.6933 47.368 22.448 48.1893 22.448C48.6907 22.448 49.1387 22.56 49.5333 22.784C49.9387 22.9973 50.2533 23.3173 50.4773 23.744C50.712 24.16 50.8293 24.672 50.8293 25.28ZM47.1013 25.28C47.1013 25.8027 47.1867 26.1973 47.3573 26.464C47.528 26.72 47.8 26.848 48.1733 26.848C48.5467 26.848 48.8133 26.72 48.9733 26.464C49.144 26.1973 49.2293 25.8027 49.2293 25.28C49.2293 24.7573 49.144 24.368 48.9733 24.112C48.8133 23.856 48.5467 23.728 48.1733 23.728C47.8 23.728 47.528 23.856 47.3573 24.112C47.1867 24.368 47.1013 24.7573 47.1013 25.28Z" fill="black"/>
<path d="M21.0935 54.59C21.0935 51.874 23.0395 50.012 25.6155 50.012C28.3175 50.012 29.7595 51.734 29.9275 53.932L27.6455 54.016C27.5055 53.036 26.9735 52.126 25.6015 52.126C24.2995 52.126 23.5435 53.092 23.5435 54.59C23.5435 56.088 24.2995 57.054 25.6015 57.054C26.9735 57.054 27.5055 56.144 27.6455 55.164L29.9275 55.262C29.7595 57.46 28.3175 59.168 25.6155 59.168C23.0395 59.168 21.0935 57.306 21.0935 54.59ZM30.8507 50.18H33.2307V59H30.8507V50.18ZM34.1775 54.59C34.1775 51.874 36.1235 50.012 38.6995 50.012C41.4015 50.012 42.8435 51.734 43.0115 53.932L40.7295 54.016C40.5895 53.036 40.0575 52.126 38.6855 52.126C37.3835 52.126 36.6275 53.092 36.6275 54.59C36.6275 56.088 37.3835 57.054 38.6855 57.054C40.0575 57.054 40.5895 56.144 40.7295 55.164L43.0115 55.262C42.8435 57.46 41.4015 59.168 38.6995 59.168C36.1235 59.168 34.1775 57.306 34.1775 54.59ZM43.9347 50.18H46.3147V57.04H50.6827V59H43.9347V50.18ZM60.0405 54.59C60.0405 57.306 58.0245 59.168 55.4625 59.168C52.9005 59.168 50.8845 57.306 50.8845 54.59C50.8845 51.874 52.9005 50.012 55.4625 50.012C58.0245 50.012 60.0405 51.874 60.0405 54.59ZM57.5905 54.59C57.5905 53.092 56.7645 52.112 55.4625 52.112C54.1605 52.112 53.3345 53.092 53.3345 54.59C53.3345 56.088 54.1605 57.068 55.4625 57.068C56.7645 57.068 57.5905 56.088 57.5905 54.59Z" fill="black"/>
</svg>
