<svg width="81" height="80" viewBox="0 0 81 80" fill="none" xmlns="http://www.w3.org/2000/svg">
<path d="M40.4023 -1.74846e-06C48.8495 -2.11769e-06 57.0798 2.6742 63.9138 7.63932L46.2802 31.9098C44.5717 30.6685 42.5141 30 40.4023 30L40.4023 -1.74846e-06Z" fill="#07C8CC"/>
<path d="M2.51558 52.825C-0.192862 44.8238 -0.298771 36.1706 2.21303 28.1055L30.856 37.0261C30.2281 39.0424 30.2546 41.2057 30.9317 43.206L2.51558 52.825Z" fill="#07C8CC"/>
<path d="M63.9138 7.63932C71.6189 13.2375 77.0738 21.4012 79.2971 30.6622C81.5205 39.9232 80.3665 49.6736 76.0426 58.1596C71.7187 66.6457 64.5088 73.3105 55.7097 76.9552C46.9105 80.5999 37.0996 80.9854 28.0417 78.0423C18.9837 75.0991 11.2731 69.0206 6.29673 60.8999C1.32039 52.7793 -0.595093 43.1495 0.894809 33.7426C2.38471 24.3357 7.18222 15.7692 14.4244 9.58376C21.6666 3.39833 30.8782 -2.99739e-06 40.4023 -1.74846e-06L40.4023 30C38.0213 30 35.7184 30.8496 33.9079 32.3959C32.0973 33.9423 30.8979 36.0839 30.5255 38.4357C30.153 40.7874 30.6319 43.1948 31.8759 45.225C33.12 47.2551 35.0477 48.7748 37.3122 49.5106C39.5767 50.2463 42.0294 50.15 44.2292 49.2388C46.429 48.3276 48.2314 46.6614 49.3124 44.5399C50.3934 42.4184 50.6819 39.9808 50.126 37.6655C49.5702 35.3503 48.2065 33.3094 46.2802 31.9098L63.9138 7.63932Z" fill="#DAF7F7"/>
<path d="M63.9093 7.63672C70.744 12.6008 75.8316 19.6013 78.4431 27.6346L49.9127 36.9093C49.2599 34.9009 47.988 33.1508 46.2793 31.9098L63.9093 7.63672Z" fill="#07C8CC"/>
<path d="M2.50358 52.7904C-0.19741 44.7867 -0.295261 36.1333 2.22405 28.0706L30.8587 37.0179C30.2289 39.0336 30.2534 41.1969 30.9286 43.1978L2.50358 52.7904Z" fill="#07C8CC"/>
<path d="M78.3943 27.4854C81.0371 35.5084 81.0722 44.1623 78.4944 52.2065L49.9254 43.0517C50.5699 41.0406 50.5611 38.8772 49.9004 36.8714L78.3943 27.4854Z" fill="#07C8CC"/>
<path d="M78.5403 52.0658C75.9923 60.1195 70.96 67.1599 64.1648 72.1778L46.3438 48.0446C48.0426 46.7901 49.3006 45.03 49.9376 43.0166L78.5403 52.0658Z" fill="#07C8CC"/>
<path d="M64.165 72.1767C57.3698 77.1948 49.1605 79.9328 40.7136 79.9985L40.4805 49.9994C42.5922 49.983 44.6445 49.2985 46.3433 48.0439L64.165 72.1767Z" fill="#07C8CC"/>
<path d="M64.165 72.1772C57.3698 77.1953 49.1605 79.9333 40.7136 79.999L40.4805 49.9999C42.5922 49.9835 44.6445 49.299 46.3433 48.0444L64.165 72.1772Z" fill="#07C8CC"/>
<path d="M41.0409 80.0024C32.5939 80.0567 23.9065 77.4236 17.0409 72.5024L34.5768 48.1281C36.2932 49.3584 38.355 50.0137 40.4668 50.0001L41.0409 80.0024Z" fill="#07C8CC"/>
<path d="M17.0418 72.5023C10.1833 67.5711 5.0722 60.5693 2.42212 52.5486L30.9076 43.1369C31.5701 45.1421 31.0418 47.5024 34.565 48.1188L17.0418 72.5023Z" fill="#07C8CC"/>
<circle cx="40.4023" cy="40" r="30" fill="white"/>
<path d="M36.922 25.468C35.634 25.468 34.822 26.168 34.822 27.428C34.822 28.632 35.634 29.276 36.922 29.276C38.238 29.276 39.078 28.632 39.078 27.428C39.078 26.168 38.238 25.468 36.922 25.468ZM36.922 32.552C35.354 32.552 34.402 33.28 34.402 34.652C34.402 36.024 35.354 36.78 36.922 36.78C38.49 36.78 39.414 36.024 39.414 34.652C39.414 33.28 38.49 32.552 36.922 32.552ZM36.922 40.336C32.274 40.336 29.642 38.348 29.642 35.184C29.642 32.972 30.958 31.376 32.89 30.872C31.126 30.144 30.174 28.968 30.174 26.924C30.174 23.872 32.946 22.024 36.922 22.024C40.87 22.024 43.642 23.872 43.642 26.924C43.642 28.968 42.69 30.144 40.926 30.872C42.858 31.376 44.174 32.972 44.174 35.184C44.174 38.348 41.542 40.336 36.922 40.336Z" fill="black"/>
<path d="M50.6623 25.28C50.6623 26.1867 50.4223 26.8907 49.9423 27.392C49.4623 27.8827 48.8117 28.128 47.9903 28.128C47.2223 28.128 46.5877 27.8827 46.0863 27.392C45.5957 26.8907 45.3503 26.1867 45.3503 25.28C45.3503 24.3733 45.5903 23.6747 46.0703 23.184C46.5503 22.6933 47.201 22.448 48.0223 22.448C48.5237 22.448 48.9717 22.56 49.3663 22.784C49.7717 22.9973 50.0863 23.3173 50.3103 23.744C50.545 24.16 50.6623 24.672 50.6623 25.28ZM46.9343 25.28C46.9343 25.8027 47.0197 26.1973 47.1903 26.464C47.361 26.72 47.633 26.848 48.0063 26.848C48.3797 26.848 48.6463 26.72 48.8063 26.464C48.977 26.1973 49.0623 25.8027 49.0623 25.28C49.0623 24.7573 48.977 24.368 48.8063 24.112C48.6463 23.856 48.3797 23.728 48.0063 23.728C47.633 23.728 47.361 23.856 47.1903 24.112C47.0197 24.368 46.9343 24.7573 46.9343 25.28Z" fill="black"/>
<path d="M20.9265 54.59C20.9265 51.874 22.8725 50.012 25.4485 50.012C28.1505 50.012 29.5925 51.734 29.7605 53.932L27.4785 54.016C27.3385 53.036 26.8065 52.126 25.4345 52.126C24.1325 52.126 23.3765 53.092 23.3765 54.59C23.3765 56.088 24.1325 57.054 25.4345 57.054C26.8065 57.054 27.3385 56.144 27.4785 55.164L29.7605 55.262C29.5925 57.46 28.1505 59.168 25.4485 59.168C22.8725 59.168 20.9265 57.306 20.9265 54.59ZM30.6837 50.18H33.0637V59H30.6837V50.18ZM34.0105 54.59C34.0105 51.874 35.9565 50.012 38.5325 50.012C41.2345 50.012 42.6765 51.734 42.8445 53.932L40.5625 54.016C40.4225 53.036 39.8905 52.126 38.5185 52.126C37.2165 52.126 36.4605 53.092 36.4605 54.59C36.4605 56.088 37.2165 57.054 38.5185 57.054C39.8905 57.054 40.4225 56.144 40.5625 55.164L42.8445 55.262C42.6765 57.46 41.2345 59.168 38.5325 59.168C35.9565 59.168 34.0105 57.306 34.0105 54.59ZM43.7677 50.18H46.1477V57.04H50.5157V59H43.7677V50.18ZM59.8735 54.59C59.8735 57.306 57.8575 59.168 55.2955 59.168C52.7335 59.168 50.7175 57.306 50.7175 54.59C50.7175 51.874 52.7335 50.012 55.2955 50.012C57.8575 50.012 59.8735 51.874 59.8735 54.59ZM57.4235 54.59C57.4235 53.092 56.5975 52.112 55.2955 52.112C53.9935 52.112 53.1675 53.092 53.1675 54.59C53.1675 56.088 53.9935 57.068 55.2955 57.068C56.5975 57.068 57.4235 56.088 57.4235 54.59Z" fill="black"/>
</svg>
