<svg xmlns="http://www.w3.org/2000/svg" width="17.33" height="17.33" viewBox="0 0 17.33 17.33"><path d="M78.681,12.285h-7a5.168,5.168,0,0,0-5.164,5.162v7a5.169,5.169,0,0,0,5.164,5.164h7a5.168,5.168,0,0,0,5.162-5.164v-7A5.168,5.168,0,0,0,78.681,12.285ZM82.1,24.452a3.419,3.419,0,0,1-3.419,3.419h-7a3.419,3.419,0,0,1-3.419-3.419v-7a3.419,3.419,0,0,1,3.419-3.419h7A3.419,3.419,0,0,1,82.1,17.447Zm-6.922-7.983a4.482,4.482,0,1,0,4.481,4.481A4.487,4.487,0,0,0,75.179,16.468Zm0,7.221a2.739,2.739,0,1,1,2.738-2.74A2.74,2.74,0,0,1,75.179,23.689ZM80.743,16.5a1.074,1.074,0,1,1-1.074-1.074A1.072,1.072,0,0,1,80.743,16.5Z" transform="translate(-66.513 -12.285)" fill="#fff"/></svg>