<svg xmlns="http://www.w3.org/2000/svg" width="16.076" height="16.183" viewBox="0 0 16.076 16.183"><path d="M160.794,16.57a3.43,3.43,0,0,0-3.223,1.516v-.851a.5.5,0,0,0-.5-.5h-2.414a.5.5,0,0,0-.5.5v9.839a.5.5,0,0,0,.5.5h2.414a.5.5,0,0,0,.5-.5V21.8c.063-.709.375-2.288,1.913-2.288,1.984,0,1.784,2.307,1.784,2.99v4.573a.5.5,0,0,0,.5.5h2.495a.5.5,0,0,0,.5-.5V22.355C164.769,20.3,164.791,16.57,160.794,16.57Z" transform="translate(-148.693 -11.395)" fill="#fff"/><path d="M153.6,13.948a2.21,2.21,0,1,0,2.209,2.209A2.209,2.209,0,0,0,153.6,13.948Z" transform="translate(-151.386 -13.948)" fill="#fff"/><rect width="3.419" height="10.844" rx="0.277" transform="translate(0.5 5.339)" fill="#fff"/></svg>