<svg xmlns="http://www.w3.org/2000/svg" width="20.267" height="14.183" viewBox="0 0 20.267 14.183"><path d="M58.992,79.225s-6.334,0-7.924.413a2.619,2.619,0,0,0-1.79,1.8,28.981,28.981,0,0,0,0,9.752,2.579,2.579,0,0,0,1.79,1.79c1.6.426,7.924.426,7.924.426s6.347,0,7.937-.413a2.519,2.519,0,0,0,1.777-1.79,26.153,26.153,0,0,0,.426-4.87,25.344,25.344,0,0,0-.426-4.895,2.5,2.5,0,0,0-1.777-1.777C65.338,79.225,58.992,79.225,58.992,79.225Zm-2.015,4.056,5.27,3.042-5.27,3.029Z" transform="translate(-48.864 -79.225)" fill="#fff"/></svg>