<svg width="245" height="50" viewBox="0 0 245 50" fill="none" xmlns="http://www.w3.org/2000/svg">
<path d="M5.09004 27.06C5.22004 27.12 5.45004 27.19 5.72004 27.2C6.07004 27.2 6.49004 27.1 6.89004 26.7L17.98 15.6L4.49004 2.14C4.32004 1.97 4.04004 2.09 4.04004 2.33V24.48L4.06004 25.51C4.06004 26.52 4.78004 26.93 5.09004 27.06Z" fill="#02C6CA"/>
<path d="M43.2 31.08C41.25 29.92 40.08 27.87 40.08 25.53V4.34002C40.08 3.33002 39.36 2.92002 39.05 2.79002C38.92 2.73002 38.69 2.66002 38.42 2.65002C38.07 2.65002 37.65 2.75002 37.25 3.15002L10.33 30.1C9.06996 31.36 7.44996 32.02 5.76996 32.02C5.72996 32.02 5.68996 32.02 5.64996 32.02C5.60996 32.02 5.56996 32.02 5.52996 32.02C5.41996 32.02 5.31996 32.01 5.20996 32C5.11996 32 5.02996 31.98 4.93996 31.97L4.77996 31.95C4.68996 31.94 4.59996 31.92 4.50996 31.9C4.07996 31.82 3.65996 31.69 3.23996 31.52C3.05996 31.44 2.87996 31.36 2.70996 31.27C2.56996 31.2 2.43996 31.38 2.54996 31.49L18.24 47.18C20.75 49.69 24.82 49.69 27.34 47.18C27.34 47.18 43.2 31.32 43.26 31.26C43.32 31.2 43.3 31.12 43.22 31.07L43.2 31.08Z" fill="#02C6CA"/>
<path d="M44.9099 4.34004V19.07L44.9299 19.41V25.45C44.9299 26.48 45.6699 26.89 45.9799 27.02C46.2599 27.13 46.9099 27.32 47.5499 26.89C47.6199 26.84 47.6899 26.78 47.7599 26.71L58.7899 15.68C58.7899 15.68 58.8299 15.57 58.7899 15.53L44.2299 0.960036C44.1399 0.870036 43.9999 0.980036 44.0599 1.09004C44.6099 2.05004 44.9099 3.15004 44.9099 4.33004V4.34004Z" fill="#02C6CA"/>
<path d="M80.0998 2.10999C79.8498 1.85999 79.4399 1.85999 79.1899 2.10999L51.6898 29.61L51.2498 30.07C51.0698 30.25 50.8899 30.41 50.6999 30.56C50.6799 30.57 50.6699 30.59 50.6499 30.6C50.5899 30.65 50.5299 30.7 50.4699 30.74C49.3399 31.6 47.9998 32.04 46.6198 32.04C45.7798 32.04 44.9198 31.87 44.0898 31.53C43.9098 31.45 43.7499 31.38 43.5799 31.29C43.4599 31.22 43.3399 31.36 43.4699 31.5C43.5999 31.64 59.1598 47.19 59.1598 47.19C61.6698 49.7 65.7298 49.7 68.2398 47.19L92.0998 23.33C94.6398 20.79 94.6398 16.67 92.0998 14.12L80.0799 2.09999L80.0998 2.10999Z" fill="#02C6CA"/>
<path d="M108.14 22.32C111.41 22.32 114.03 20.78 114.03 16.69V8.03003H112.07V16.73C112.07 19.38 110.67 20.69 108.13 20.69C105.59 20.69 104.24 19.38 104.24 16.71V8.03003H102.26V16.69C102.26 20.79 104.86 22.32 108.13 22.32H108.14Z" fill="black"/>
<path d="M118.14 16.4601C118.14 14.6801 119.34 13.5201 120.85 13.5201C122.36 13.5201 123.24 14.5401 123.24 16.1701V22.0501H125.15V16.0201C125.15 13.7501 124.09 12.0601 121.47 12.0601C119.97 12.0601 118.62 12.8801 118.13 14.0601V12.3201H116.22V22.0501H118.13V16.4601H118.14Z" fill="black"/>
<path d="M129.19 8.03003H127.21V10.12H129.19V8.03003Z" fill="black"/>
<path d="M129.16 12.3201H127.25V22.0501H129.16V12.3201Z" fill="black"/>
<path d="M136.19 22.0501L140.33 12.3201H138.47L135.4 19.8001H135.31L132.18 12.3201H130.18L134.32 22.0501H136.19Z" fill="black"/>
<path d="M145.48 22.3201C147.99 22.3201 149.67 20.9801 150.17 18.7801L148.58 18.6001C148.17 20.0901 147.18 20.8701 145.5 20.8701C143.71 20.8701 142.3 19.5301 142.21 17.6401H150.22V16.9101C150.22 14.2601 148.59 12.0601 145.39 12.0601C142.49 12.0601 140.3 14.2601 140.3 17.3401C140.3 20.4201 142.49 22.3301 145.48 22.3301V22.3201ZM145.39 13.4601C147.3 13.4601 148.2 14.8801 148.27 16.4401H142.26C142.49 14.8401 143.57 13.4601 145.39 13.4601Z" fill="black"/>
<path d="M153.79 16.91C153.79 15.04 154.87 13.77 156.32 13.77C156.94 13.77 157.33 13.88 157.89 14.17L158.07 12.5C157.73 12.21 157.27 12.05 156.64 12.05C155.19 12.05 154.15 13.19 153.79 14.3V12.32H151.88V22.05H153.79V16.91Z" fill="black"/>
<path d="M163.08 20.96C161.35 20.96 160.27 20.16 160.09 18.67L158.48 18.78C158.66 21.18 160.57 22.32 163.08 22.32C165.43 22.32 167.2 21.27 167.2 19.34C167.2 17.58 166 16.85 163.98 16.51L162.09 16.22C161.05 16.04 160.55 15.64 160.55 14.86C160.55 13.97 161.38 13.41 162.64 13.41C164.34 13.41 165.29 14.1 165.52 15.59L167.06 15.5C166.88 13.25 165.31 12.05 162.64 12.05C160.32 12.05 158.77 13.25 158.77 15.03C158.77 16.7 159.9 17.48 161.78 17.77L163.48 18.06C164.72 18.28 165.39 18.59 165.39 19.51C165.39 20.49 164.4 20.96 163.07 20.96H163.08Z" fill="black"/>
<path d="M170.78 12.3201H168.87V22.0501H170.78V12.3201Z" fill="black"/>
<path d="M170.8 8.03003H168.82V10.12H170.8V8.03003Z" fill="black"/>
<path d="M180.58 20.02V22.05H182.49V8.03003H180.58V14.37C180.12 13.17 178.85 12.05 176.97 12.05C173.98 12.05 172.37 14.32 172.37 17.19C172.37 20.06 173.98 22.31 176.97 22.31C178.86 22.31 180.12 21.22 180.58 20.02ZM174.32 17.2C174.32 14.97 175.42 13.55 177.4 13.55C179.22 13.55 180.6 14.8 180.6 16.91V17.47C180.6 19.61 179.22 20.85 177.4 20.85C175.42 20.85 174.32 19.43 174.32 17.2Z" fill="black"/>
<path d="M188.21 16.55C185.79 17.02 184.16 17.77 184.16 19.62C184.16 21.29 185.43 22.31 187.38 22.31C189.01 22.31 190.44 21.46 190.99 20.33C191.11 21.49 191.84 22.24 192.88 22.24C193.66 22.24 194.08 21.99 194.42 21.66V20.66C194.14 20.82 193.78 20.88 193.55 20.88C193.07 20.88 192.77 20.63 192.77 20.12V15.76C192.77 13.29 191.27 12.04 188.74 12.04C186.37 12.04 184.87 13.38 184.48 15.2L186.18 15.42C186.48 14.28 187.26 13.46 188.71 13.46C190.16 13.46 190.92 14.28 190.92 15.62V16L188.21 16.53V16.55ZM190.92 17.71C190.92 19.67 189.56 20.96 187.79 20.96C186.64 20.96 186.06 20.34 186.06 19.51C186.06 18.33 187.07 18.04 188.66 17.71L190.91 17.24V17.71H190.92Z" fill="black"/>
<path d="M199.38 22.32C201.27 22.32 202.53 21.23 202.99 20.03V22.06H204.9V8.04004H202.99V14.38C202.53 13.18 201.26 12.06 199.38 12.06C196.39 12.06 194.78 14.33 194.78 17.2C194.78 20.07 196.39 22.32 199.38 22.32ZM199.81 13.55C201.63 13.55 203.01 14.8 203.01 16.91V17.47C203.01 19.61 201.63 20.85 199.81 20.85C197.83 20.85 196.73 19.43 196.73 17.2C196.73 14.97 197.83 13.55 199.81 13.55Z" fill="black"/>
<path d="M111.9 37.0301L105.13 27.6801H102.31V41.7001H104.95V31.8201L112.26 41.7001H114.53V27.6801H111.9V37.0301Z" fill="black"/>
<path d="M121.42 31.62C118.33 31.62 116.15 33.76 116.15 36.81C116.15 39.86 118.33 41.97 121.42 41.97C124.51 41.97 126.71 39.85 126.71 36.81C126.71 33.77 124.53 31.62 121.42 31.62ZM121.42 39.95C119.76 39.95 118.9 38.66 118.9 36.81C118.9 34.96 119.76 33.65 121.42 33.65C123.08 33.65 123.96 34.94 123.96 36.81C123.96 38.68 123.1 39.95 121.42 39.95Z" fill="black"/>
<path d="M134.81 34.51L135.01 32.02C134.71 31.77 134.21 31.62 133.6 31.62C132.21 31.62 131.17 32.64 130.81 33.76V31.89H128.09V41.71H130.81V36.86C130.81 35.08 131.76 34.1 133.17 34.1C133.83 34.1 134.28 34.23 134.8 34.52L134.81 34.51Z" fill="black"/>
<path d="M142.06 31.6201C140.27 31.6201 139.06 32.5801 138.61 33.7801V27.6801H135.89V41.7001H137.98L138.48 39.8101C139 41.0301 140.27 41.9701 142.02 41.9701C145.02 41.9701 146.58 39.7001 146.58 36.8101C146.58 33.9201 145.01 31.6201 142.06 31.6201ZM141.22 39.8801C139.68 39.8801 138.59 38.7901 138.59 36.9901V36.6101C138.59 34.8301 139.68 33.7201 141.22 33.7201C142.95 33.7201 143.83 34.9401 143.83 36.8101C143.83 38.6801 142.94 39.8801 141.22 39.8801Z" fill="black"/>
<path d="M155.38 38.28C154.99 39.39 154.2 39.95 152.86 39.95C151.38 39.95 150.23 38.93 150.14 37.48H157.66V36.52C157.66 33.85 155.98 31.62 152.71 31.62C149.71 31.62 147.46 33.85 147.46 36.94C147.46 40.03 149.69 41.97 152.77 41.97C155.34 41.97 157.06 40.68 157.58 38.5L155.38 38.28ZM152.68 33.58C154.2 33.58 154.91 34.67 155 35.81H150.19C150.44 34.59 151.19 33.58 152.69 33.58H152.68Z" fill="black"/>
<path d="M164.2 34.09C164.86 34.09 165.31 34.22 165.83 34.51L166.03 32.02C165.73 31.77 165.23 31.62 164.62 31.62C163.23 31.62 162.19 32.64 161.83 33.76V31.89H159.11V41.71H161.83V36.86C161.83 35.08 162.78 34.1 164.19 34.1L164.2 34.09Z" fill="black"/>
<path d="M170.55 38.61V33.76H173.27V31.89H170.55V29.17H168.89L168.57 30.51C168.34 31.42 168.07 31.91 167.09 32.07L166.41 32.18V33.76H167.84V39.21C167.84 41.3 169.13 41.97 170.68 41.97C171.91 41.97 172.72 41.66 173.45 41.12V39.36C172.86 39.63 172.29 39.83 171.75 39.83C170.93 39.83 170.55 39.45 170.55 38.61Z" fill="black"/>
<path d="M193.58 27.6801L190.96 38.0101H190.87L188.08 27.6801H185.47L182.7 37.9901H182.61L179.98 27.6801H177.14L180.84 41.7001H183.95L186.67 31.6001H186.76L189.47 41.7001H192.6L196.3 27.6801H193.58Z" fill="black"/>
<path d="M200.02 27.6801H197.23V30.2801H200.02V27.6801Z" fill="black"/>
<path d="M199.99 31.89H197.27V41.71H199.99V31.89Z" fill="black"/>
<path d="M206.59 31.62C203.59 31.62 201.34 33.85 201.34 36.94C201.34 40.03 203.57 41.97 206.65 41.97C209.22 41.97 210.94 40.68 211.46 38.5L209.26 38.28C208.87 39.39 208.08 39.95 206.74 39.95C205.26 39.95 204.11 38.93 204.02 37.48H211.54V36.52C211.54 33.85 209.86 31.62 206.59 31.62ZM204.07 35.8C204.32 34.58 205.07 33.57 206.57 33.57C208.07 33.57 208.8 34.66 208.89 35.8H204.08H204.07Z" fill="black"/>
<path d="M215.73 36.45C215.73 34.8 216.59 33.73 217.98 33.73C219.37 33.73 219.93 34.6 219.93 36.11V41.7H222.65V35.58C222.65 33.4 221.67 31.62 218.99 31.62C217.49 31.62 216.22 32.38 215.72 33.49V31.89H213V41.71H215.72V36.46L215.73 36.45Z" fill="black"/>
<path d="M229.24 41.97C231.81 41.97 233.53 40.68 234.05 38.5L231.85 38.28C231.46 39.39 230.67 39.95 229.33 39.95C227.85 39.95 226.7 38.93 226.61 37.48H234.13V36.52C234.13 33.85 232.45 31.62 229.18 31.62C226.18 31.62 223.93 33.85 223.93 36.94C223.93 40.03 226.16 41.97 229.24 41.97ZM229.15 33.58C230.67 33.58 231.38 34.67 231.47 35.81H226.66C226.91 34.59 227.66 33.58 229.16 33.58H229.15Z" fill="black"/>
<path d="M238.3 36.85C238.3 35.07 239.25 34.09 240.66 34.09C241.32 34.09 241.77 34.22 242.29 34.51L242.49 32.02C242.19 31.77 241.69 31.62 241.08 31.62C239.69 31.62 238.65 32.64 238.29 33.76V31.89H235.57V41.71H238.29V36.86L238.3 36.85Z" fill="black"/>
</svg>
