<svg xmlns="http://www.w3.org/2000/svg" width="371" height="58.48" viewBox="0 0 371 58.48">
  <path id="Trazado_8731" data-name="Trazado 8731" d="M-149,724H222V671.549c-10.212-7.994-26.919-7.994-37.131,0h0c-10.212,7.994-26.74,7.994-36.952,0h0c-10.212-7.994-27.053-7.994-37.265,0h0c-10.212,7.994-26.74,7.994-36.952,0h0c-10.212-7.994-27.053-7.994-37.265,0h0c-10.212,7.994-26.74,7.994-36.952,0h0c-10.212-7.994-27.053-7.994-37.265,0h0c-10.212,7.994-26.74,7.994-36.952,0h0c-10.212-7.994-26.963-8.062-37.175-.068H-112c-10.212,7.994-26.783,8.049-37,.055Z" transform="translate(149 -665.52)" fill="#92dce5" opacity="0.39"/>
</svg>
