<svg width="256" height="104" viewBox="0 0 256 104" fill="none" xmlns="http://www.w3.org/2000/svg">
<g clip-path="url(#clip0_49_1457)">
<path d="M44.6864 100.885L45.6374 101.125C45.4886 101.825 45.1098 102.454 44.5614 102.913C44.0182 103.332 43.3468 103.549 42.6614 103.528C41.9986 103.558 41.3415 103.394 40.7704 103.056C40.2699 102.723 39.8833 102.244 39.6624 101.685C39.4068 101.075 39.2775 100.42 39.2824 99.7581C39.2666 99.0801 39.4141 98.4082 39.7124 97.7991C39.9793 97.2605 40.4052 96.8168 40.9324 96.5281C41.4674 96.2375 42.0676 96.0881 42.6764 96.0941C43.3251 96.072 43.9628 96.265 44.4904 96.6431C44.9948 97.029 45.3556 97.5725 45.5154 98.1871L44.5794 98.4081C44.4621 97.9612 44.2083 97.5619 43.8534 97.2661C43.5043 97.0167 43.0821 96.8908 42.6534 96.9081C42.161 96.8911 41.6759 97.0311 41.2684 97.3081C40.8996 97.5702 40.6253 97.9445 40.4864 98.3751C40.3359 98.8196 40.2595 99.2858 40.2604 99.7551C40.249 100.3 40.3396 100.843 40.5274 101.355C40.6802 101.781 40.9733 102.141 41.3584 102.378C41.7261 102.601 42.1483 102.718 42.5784 102.716C43.0703 102.73 43.5509 102.567 43.9324 102.256C44.3324 101.898 44.5984 101.415 44.6864 100.885Z" fill="#03033F"/>
<path d="M48.0272 99.9041C47.9671 98.8807 48.3124 97.8748 48.9882 97.1041C49.3069 96.7695 49.6929 96.5062 50.1207 96.3316C50.5485 96.157 51.0084 96.075 51.4702 96.0911C52.1005 96.0827 52.721 96.2473 53.2642 96.5671C53.7926 96.8795 54.2167 97.3412 54.4832 97.8941C54.7701 98.496 54.9135 99.1563 54.9022 99.8231C54.914 100.501 54.7628 101.172 54.4612 101.78C54.1886 102.334 53.7521 102.79 53.2112 103.087C52.6767 103.382 52.0756 103.535 51.4652 103.531C50.8266 103.542 50.1978 103.373 49.6512 103.042C49.1257 102.723 48.7046 102.258 48.4392 101.703C48.1655 101.143 48.0245 100.527 48.0272 99.9041ZM49.0082 99.9191C48.9664 100.667 49.2175 101.401 49.7082 101.967C49.9302 102.21 50.2016 102.402 50.5042 102.531C50.8068 102.66 51.1335 102.722 51.4622 102.714C51.794 102.724 52.1239 102.661 52.4291 102.531C52.7344 102.4 53.0077 102.205 53.2302 101.959C53.7269 101.359 53.9755 100.592 53.9252 99.8151C53.9357 99.2892 53.8334 98.7671 53.6252 98.2841C53.4435 97.8668 53.1412 97.5134 52.7572 97.2691C52.3734 97.0282 51.9283 96.9032 51.4752 96.9091C51.1539 96.9043 50.8348 96.9631 50.5364 97.0822C50.2379 97.2014 49.966 97.3784 49.7362 97.6031C49.4653 97.9203 49.2612 98.2889 49.1361 98.6868C49.011 99.0848 48.9675 99.5039 49.0082 99.9191Z" fill="#03033F"/>
<path d="M57.6255 103.406V96.2161H58.6015L62.3785 101.861V96.2161H63.2905V103.406H62.3145L58.5385 97.7571V103.406H57.6255Z" fill="#03033F"/>
<path d="M69.7592 100.586V99.7428L72.8042 99.7378V102.405C72.3694 102.76 71.881 103.044 71.3572 103.246C70.8687 103.432 70.3502 103.528 69.8272 103.528C69.1585 103.537 68.4977 103.381 67.9032 103.075C67.3403 102.787 66.8828 102.328 66.5962 101.764C66.2964 101.17 66.1447 100.512 66.1542 99.8468C66.1496 99.1686 66.2997 98.4983 66.5932 97.8868C66.8565 97.3114 67.2998 96.8372 67.8562 96.5358C68.4429 96.2328 69.096 96.0812 69.7562 96.0948C70.238 96.088 70.7167 96.1735 71.1662 96.3468C71.5517 96.4892 71.8928 96.7306 72.1552 97.0468C72.4171 97.3967 72.6025 97.7977 72.6992 98.2238L71.8412 98.4588C71.7608 98.1492 71.6253 97.8565 71.4412 97.5948C71.2596 97.3713 71.0228 97.199 70.7542 97.0948C70.4403 96.9659 70.1035 96.9019 69.7642 96.9068C69.3784 96.8981 68.9946 96.9661 68.6352 97.1068C68.3435 97.2218 68.0814 97.4009 67.8682 97.6308C67.6773 97.8401 67.5237 98.0806 67.4142 98.3418C67.2284 98.8011 67.1349 99.2924 67.1392 99.7878C67.1205 100.342 67.234 100.894 67.4702 101.396C67.6768 101.814 68.0157 102.152 68.4342 102.357C68.851 102.566 69.3111 102.673 69.7772 102.671C70.1911 102.671 70.601 102.59 70.9842 102.434C71.3075 102.315 71.6089 102.143 71.8762 101.926V100.587L69.7592 100.586Z" fill="#03033F"/>
<path d="M75.7324 103.406V96.2161H80.9324V97.0651H76.6854V99.2651H80.6624V100.108H76.6854V102.555H81.0994V103.404L75.7324 103.406Z" fill="#03033F"/>
<path d="M83.8794 103.406V96.2161H84.8314V102.558H88.3724V103.407L83.8794 103.406Z" fill="#03033F"/>
<path d="M90.2212 103.406L92.9832 96.2161H94.0082L96.9502 103.406H95.8672L95.0282 101.229H92.0222L91.2322 103.406H90.2212ZM92.2962 100.453H94.7332L93.9832 98.4621C93.7545 97.8574 93.5845 97.3604 93.4732 96.9711C93.3802 97.4382 93.2504 97.8973 93.0852 98.3441L92.2962 100.453Z" fill="#03033F"/>
<path d="M99.2163 103.406V96.216H101.693C102.122 96.2032 102.551 96.2367 102.973 96.316C103.361 96.3994 103.723 96.5758 104.027 96.83C104.412 97.1595 104.705 97.5834 104.877 98.06C105.074 98.6075 105.171 99.1862 105.161 99.768C105.168 100.259 105.104 100.748 104.969 101.22C104.864 101.593 104.698 101.947 104.478 102.266C104.301 102.521 104.079 102.742 103.823 102.919C103.56 103.088 103.27 103.21 102.965 103.28C102.586 103.366 102.199 103.407 101.81 103.402L99.2163 103.406ZM100.167 102.557H101.703C102.08 102.57 102.456 102.525 102.819 102.425C103.061 102.354 103.282 102.226 103.463 102.052C103.708 101.795 103.889 101.483 103.99 101.143C104.126 100.694 104.19 100.227 104.18 99.758C104.214 99.1574 104.086 98.5587 103.808 98.025C103.607 97.6616 103.29 97.3758 102.908 97.213C102.509 97.0951 102.093 97.0451 101.677 97.065H100.166L100.167 102.557Z" fill="#03033F"/>
<path d="M107.686 99.9041C107.627 98.8806 107.972 97.8747 108.648 97.1041C108.967 96.7695 109.353 96.5062 109.781 96.3316C110.209 96.157 110.669 96.075 111.13 96.0911C111.763 96.0819 112.385 96.2466 112.93 96.5671C113.458 96.8795 113.882 97.3413 114.147 97.8941C114.435 98.4958 114.579 99.1562 114.567 99.8231C114.579 100.501 114.428 101.172 114.126 101.78C113.853 102.333 113.417 102.79 112.876 103.087C112.342 103.382 111.741 103.535 111.13 103.531C110.492 103.542 109.863 103.373 109.316 103.042C108.791 102.723 108.37 102.258 108.104 101.703C107.829 101.144 107.686 100.528 107.686 99.9041ZM108.667 99.9191C108.625 100.667 108.876 101.402 109.367 101.967C109.589 102.21 109.86 102.402 110.162 102.531C110.464 102.66 110.791 102.722 111.119 102.714C111.451 102.724 111.781 102.661 112.086 102.531C112.392 102.4 112.665 102.205 112.887 101.959C113.384 101.359 113.633 100.592 113.582 99.8151C113.593 99.2892 113.491 98.7671 113.282 98.2841C113.1 97.867 112.797 97.5136 112.413 97.2691C112.03 97.0281 111.585 96.903 111.132 96.9091C110.811 96.9043 110.492 96.9631 110.193 97.0822C109.895 97.2014 109.623 97.3784 109.393 97.6031C109.123 97.9204 108.919 98.2891 108.794 98.6871C108.67 99.085 108.626 99.5041 108.667 99.9191Z" fill="#03033F"/>
<path d="M116.971 101.097L117.871 101.018C117.9 101.333 118.003 101.637 118.171 101.904C118.354 102.156 118.606 102.35 118.896 102.462C119.244 102.609 119.619 102.682 119.996 102.676C120.324 102.682 120.65 102.627 120.957 102.515C121.202 102.431 121.418 102.277 121.577 102.072C121.708 101.893 121.778 101.678 121.777 101.456C121.78 101.242 121.71 101.033 121.577 100.865C121.404 100.668 121.18 100.521 120.93 100.44C120.51 100.301 120.083 100.184 119.65 100.089C119.172 99.992 118.707 99.8414 118.263 99.6401C117.952 99.4892 117.687 99.2583 117.495 98.9711C117.327 98.7032 117.239 98.3924 117.243 98.0761C117.243 97.7136 117.351 97.3593 117.552 97.0581C117.772 96.7324 118.086 96.4818 118.452 96.3401C118.872 96.1721 119.32 96.0888 119.772 96.0951C120.255 96.0855 120.734 96.1733 121.182 96.3531C121.565 96.5047 121.892 96.7691 122.121 97.1111C122.341 97.4489 122.463 97.841 122.474 98.2441L121.562 98.3121C121.552 98.1157 121.502 97.9235 121.416 97.7466C121.33 97.5697 121.21 97.4118 121.062 97.2821C120.697 97.0259 120.254 96.903 119.809 96.9341C119.366 96.8978 118.924 97.0089 118.55 97.2501C118.429 97.3374 118.331 97.452 118.262 97.5846C118.194 97.7171 118.157 97.8639 118.156 98.0131C118.153 98.1335 118.176 98.2531 118.225 98.3634C118.273 98.4736 118.345 98.5719 118.436 98.6511C118.874 98.9173 119.362 99.0915 119.87 99.1631C120.413 99.2695 120.945 99.4227 121.461 99.6211C121.832 99.7754 122.153 100.029 122.388 100.354C122.59 100.657 122.694 101.014 122.688 101.377C122.688 101.762 122.574 102.139 122.36 102.459C122.129 102.808 121.801 103.083 121.416 103.248C120.98 103.441 120.507 103.537 120.03 103.53C119.472 103.547 118.915 103.451 118.395 103.246C117.972 103.071 117.612 102.773 117.36 102.391C117.11 102.005 116.975 101.557 116.971 101.097Z" fill="#03033F"/>
<path d="M133.798 102.558C133.532 102.862 133.209 103.11 132.846 103.286C132.497 103.45 132.117 103.533 131.733 103.529C131.404 103.544 131.075 103.485 130.772 103.356C130.469 103.227 130.199 103.031 129.982 102.784C129.644 102.412 129.457 101.928 129.457 101.426C129.456 100.988 129.608 100.564 129.887 100.226C130.237 99.8191 130.675 99.4967 131.168 99.2831C130.913 99.0097 130.696 98.7045 130.521 98.3751C130.418 98.1656 130.363 97.9362 130.359 97.7031C130.359 97.4902 130.404 97.2799 130.491 97.0859C130.579 96.8919 130.707 96.7188 130.867 96.5781C131.213 96.2565 131.672 96.0847 132.145 96.1001C132.364 96.0922 132.584 96.128 132.79 96.2054C132.996 96.2828 133.184 96.4003 133.345 96.551C133.494 96.689 133.613 96.8569 133.694 97.0438C133.775 97.2307 133.815 97.4325 133.813 97.6361C133.813 98.3181 133.36 98.901 132.455 99.385L133.745 101.028C133.902 100.711 134.018 100.375 134.088 100.028L135.006 100.228C134.881 100.777 134.665 101.301 134.368 101.779C134.683 102.201 135.062 102.572 135.491 102.879L134.897 103.579C134.482 103.294 134.112 102.95 133.798 102.558ZM133.243 101.858L131.625 99.8581C131.252 100.054 130.923 100.323 130.659 100.65C130.503 100.859 130.416 101.111 130.409 101.372C130.423 101.704 130.545 102.023 130.757 102.279C130.869 102.433 131.018 102.556 131.19 102.639C131.362 102.721 131.551 102.759 131.742 102.75C132.033 102.742 132.317 102.656 132.564 102.502C132.837 102.345 133.069 102.125 133.241 101.861L133.243 101.858ZM132.002 98.8081C132.287 98.6633 132.541 98.4615 132.746 98.215C132.857 98.0483 132.916 97.8518 132.915 97.6511C132.919 97.5404 132.9 97.4301 132.86 97.3268C132.82 97.2236 132.759 97.1298 132.682 97.051C132.606 96.9747 132.515 96.9146 132.415 96.8745C132.315 96.8345 132.208 96.8153 132.101 96.8181C131.99 96.8144 131.88 96.8329 131.777 96.8726C131.674 96.9123 131.58 96.9723 131.501 97.049C131.424 97.1214 131.363 97.2089 131.322 97.306C131.282 97.4031 131.262 97.5077 131.264 97.6131C131.266 97.735 131.296 97.8549 131.351 97.9641C131.419 98.104 131.505 98.2347 131.607 98.353L132.002 98.8081Z" fill="#03033F"/>
<path d="M147.431 100.885L148.381 101.125C148.233 101.824 147.855 102.454 147.306 102.913C146.763 103.331 146.092 103.548 145.406 103.528C144.744 103.558 144.087 103.394 143.515 103.056C143.015 102.722 142.629 102.244 142.407 101.685C142.152 101.075 142.023 100.42 142.027 99.7581C142.012 99.0802 142.159 98.4085 142.456 97.7991C142.725 97.2611 143.151 96.8178 143.677 96.5281C144.212 96.2374 144.813 96.088 145.421 96.0941C146.07 96.072 146.709 96.265 147.236 96.6431C147.74 97.0296 148.101 97.5728 148.261 98.1871L147.324 98.4081C147.207 97.9612 146.953 97.5619 146.598 97.2661C146.25 97.0164 145.827 96.8904 145.398 96.9081C144.906 96.8913 144.421 97.0313 144.013 97.3081C143.645 97.5702 143.37 97.9445 143.231 98.3751C143.081 98.8196 143.005 99.2858 143.005 99.7551C142.994 100.3 143.085 100.843 143.272 101.355C143.425 101.781 143.718 102.141 144.103 102.378C144.472 102.601 144.895 102.718 145.325 102.716C145.817 102.73 146.298 102.567 146.679 102.256C147.078 101.897 147.343 101.414 147.431 100.885Z" fill="#03033F"/>
<path d="M150.767 99.9041C150.708 98.8808 151.053 97.8753 151.728 97.1041C152.047 96.7695 152.433 96.5063 152.861 96.3317C153.289 96.1571 153.748 96.0751 154.21 96.0911C154.843 96.0819 155.465 96.2466 156.01 96.5671C156.538 96.8798 156.962 97.3414 157.228 97.8941C157.515 98.496 157.659 99.1563 157.647 99.8231C157.66 100.501 157.508 101.173 157.206 101.78C156.934 102.334 156.497 102.79 155.956 103.087C155.422 103.382 154.821 103.534 154.211 103.531C153.572 103.542 152.943 103.372 152.396 103.042C151.871 102.723 151.45 102.258 151.184 101.703C150.909 101.143 150.767 100.528 150.767 99.9041ZM151.748 99.9191C151.706 100.667 151.957 101.402 152.448 101.967C152.67 102.21 152.941 102.402 153.244 102.531C153.546 102.659 153.873 102.722 154.201 102.714C154.533 102.724 154.863 102.661 155.168 102.531C155.473 102.4 155.747 102.205 155.969 101.959C156.466 101.359 156.714 100.592 156.663 99.8151C156.674 99.2891 156.572 98.767 156.363 98.2841C156.181 97.8668 155.879 97.5133 155.494 97.2691C155.111 97.0279 154.666 96.9029 154.213 96.9091C153.892 96.9043 153.573 96.9631 153.274 97.0822C152.976 97.2013 152.704 97.3784 152.474 97.6031C152.204 97.9207 152.001 98.2896 151.877 98.6875C151.753 99.0854 151.711 99.5043 151.752 99.9191H151.748Z" fill="#03033F"/>
<path d="M160.37 103.406V96.2161H161.346L165.122 101.861V96.2161H166.035V103.406H165.059L161.283 97.7571V103.406H160.37Z" fill="#03033F"/>
<path d="M168.814 101.097L169.714 101.018C169.743 101.333 169.846 101.637 170.014 101.904C170.197 102.156 170.449 102.349 170.738 102.462C171.086 102.609 171.461 102.682 171.838 102.676C172.166 102.682 172.492 102.627 172.799 102.515C173.045 102.431 173.26 102.277 173.419 102.072C173.55 101.893 173.621 101.678 173.619 101.456C173.623 101.242 173.552 101.033 173.419 100.865C173.246 100.668 173.023 100.521 172.772 100.44C172.352 100.302 171.925 100.184 171.492 100.089C171.014 99.992 170.549 99.8413 170.104 99.6401C169.794 99.4889 169.529 99.258 169.337 98.9711C169.168 98.7035 169.08 98.3926 169.084 98.0761C169.085 97.7137 169.192 97.3596 169.393 97.0581C169.613 96.7327 169.927 96.4823 170.293 96.3401C170.713 96.1721 171.161 96.0888 171.612 96.0951C172.095 96.0855 172.575 96.1733 173.023 96.3531C173.406 96.5047 173.734 96.7691 173.962 97.1111C174.183 97.4488 174.305 97.841 174.315 98.2441L173.402 98.3121C173.392 98.1157 173.343 97.9234 173.257 97.7465C173.171 97.5696 173.05 97.4116 172.902 97.2821C172.538 97.0259 172.096 96.903 171.651 96.9341C171.208 96.8978 170.766 97.0089 170.392 97.2501C170.272 97.3374 170.173 97.452 170.104 97.5846C170.036 97.7171 170 97.8639 169.998 98.0131C169.995 98.1334 170.019 98.2529 170.067 98.3631C170.115 98.4734 170.187 98.5717 170.277 98.6511C170.716 98.9171 171.204 99.0913 171.711 99.1631C172.254 99.2694 172.787 99.4226 173.303 99.6211C173.674 99.7754 173.995 100.029 174.23 100.354C174.432 100.657 174.537 101.014 174.53 101.377C174.53 101.762 174.415 102.139 174.201 102.459C173.97 102.808 173.643 103.082 173.258 103.248C172.822 103.441 172.349 103.537 171.872 103.53C171.314 103.547 170.757 103.451 170.236 103.246C169.814 103.071 169.454 102.773 169.203 102.391C168.954 102.005 168.819 101.557 168.814 101.097Z" fill="#03033F"/>
<path d="M177.364 103.406V96.2161H182.564V97.0651H178.317V99.2651H182.295V100.108H178.317V102.555H182.731V103.404L177.364 103.406Z" fill="#03033F"/>
<path d="M185.565 103.406V96.2161H188.753C189.248 96.1952 189.743 96.2611 190.214 96.411C190.551 96.5423 190.833 96.7834 191.014 97.0951C191.214 97.4211 191.318 97.7967 191.314 98.1791C191.32 98.4164 191.279 98.6525 191.193 98.8738C191.107 99.0951 190.978 99.2974 190.814 99.469C190.396 99.8594 189.856 100.095 189.285 100.136C189.492 100.229 189.685 100.35 189.859 100.494C190.162 100.778 190.427 101.099 190.648 101.45L191.899 103.407H190.704L189.752 101.907C189.476 101.475 189.247 101.145 189.067 100.917C188.932 100.732 188.77 100.57 188.584 100.435C188.451 100.348 188.304 100.283 188.149 100.245C187.974 100.217 187.797 100.205 187.619 100.21H186.519V103.403L185.565 103.406ZM186.516 99.3901H188.561C188.907 99.403 189.252 99.357 189.581 99.2541C189.81 99.1759 190.007 99.0244 190.141 98.8231C190.266 98.6309 190.333 98.4063 190.331 98.1771C190.336 98.0185 190.305 97.8611 190.241 97.716C190.177 97.5709 190.081 97.4418 189.961 97.338C189.624 97.0916 189.208 96.9751 188.791 97.01H186.516V99.3901Z" fill="#03033F"/>
<path d="M196.183 103.406L193.397 96.2161H194.427L196.295 101.44C196.446 101.859 196.572 102.251 196.673 102.617C196.785 102.225 196.914 101.833 197.06 101.44L199.003 96.2161H199.974L197.158 103.406H196.183Z" fill="#03033F"/>
<path d="M200.799 103.406L203.559 96.2161H204.583L207.526 103.406H206.443L205.605 101.229H202.599L201.81 103.406H200.799ZM202.874 100.453H205.311L204.561 98.4621C204.333 97.8574 204.162 97.3604 204.05 96.9711C203.958 97.4382 203.828 97.8973 203.663 98.3441L202.874 100.453Z" fill="#03033F"/>
<path d="M209.471 101.097L210.371 101.018C210.4 101.333 210.503 101.637 210.671 101.904C210.854 102.156 211.105 102.349 211.395 102.462C211.743 102.609 212.118 102.682 212.495 102.676C212.823 102.682 213.148 102.627 213.456 102.515C213.701 102.431 213.917 102.277 214.076 102.072C214.207 101.893 214.277 101.678 214.276 101.456C214.279 101.242 214.209 101.033 214.076 100.865C213.903 100.667 213.679 100.52 213.428 100.44C213.008 100.301 212.581 100.184 212.149 100.089C211.671 99.992 211.206 99.8413 210.761 99.6401C210.451 99.4888 210.186 99.258 209.994 98.9711C209.825 98.7035 209.737 98.3926 209.741 98.0761C209.742 97.7137 209.849 97.3596 210.05 97.0581C210.27 96.7327 210.584 96.4823 210.95 96.3401C211.369 96.1721 211.818 96.0888 212.269 96.0951C212.752 96.0855 213.232 96.1733 213.68 96.3531C214.063 96.5047 214.39 96.7691 214.619 97.1111C214.839 97.4488 214.962 97.841 214.972 98.2441L214.059 98.3121C214.049 98.1157 213.999 97.9234 213.913 97.7465C213.828 97.5696 213.707 97.4116 213.559 97.2821C213.195 97.0259 212.753 96.903 212.308 96.9341C211.865 96.8978 211.423 97.0089 211.049 97.2501C210.928 97.3374 210.83 97.452 210.761 97.5846C210.693 97.7171 210.656 97.8639 210.655 98.0131C210.652 98.1334 210.675 98.2529 210.724 98.3631C210.772 98.4734 210.844 98.5717 210.934 98.6511C211.373 98.9171 211.86 99.0913 212.368 99.1631C212.911 99.2692 213.443 99.4224 213.959 99.6211C214.33 99.7751 214.651 100.029 214.887 100.354C215.089 100.657 215.193 101.014 215.187 101.377C215.187 101.762 215.072 102.139 214.858 102.459C214.627 102.808 214.3 103.082 213.915 103.248C213.479 103.441 213.006 103.537 212.529 103.53C211.97 103.547 211.414 103.451 210.893 103.246C210.471 103.071 210.111 102.773 209.86 102.391C209.611 102.005 209.476 101.557 209.471 101.097Z" fill="#03033F"/>
<path d="M73.0649 22.872V15.683H78.2649V16.532H74.0179V18.732H77.9949V19.575H74.0179V22.021H78.4319V22.871L73.0649 22.872Z" fill="#03033F"/>
<path d="M80.9268 20.561L81.8268 20.483C81.8553 20.7979 81.9581 21.1016 82.1268 21.369C82.3095 21.6205 82.5604 21.8145 82.8498 21.928C83.1979 22.0738 83.5723 22.1467 83.9498 22.142C84.2775 22.148 84.6035 22.0924 84.9108 21.978C85.1565 21.894 85.3721 21.7396 85.5308 21.534C85.6619 21.3559 85.7321 21.1402 85.7308 20.919C85.7336 20.7047 85.663 20.4958 85.5308 20.327C85.3567 20.1301 85.1329 19.9837 84.8828 19.903C84.4625 19.7638 84.0353 19.6467 83.6028 19.552C83.1248 19.4557 82.6595 19.305 82.2158 19.103C81.9052 18.9522 81.6402 18.7217 81.4478 18.435C81.2787 18.1656 81.1912 17.8531 81.1958 17.535C81.1956 17.1726 81.3031 16.8182 81.5048 16.517C81.724 16.191 82.0382 15.9404 82.4048 15.799C82.8245 15.6319 83.273 15.549 83.7248 15.555C84.2071 15.5455 84.6865 15.6325 85.1348 15.811C85.5176 15.9623 85.8452 16.2267 86.0738 16.569C86.2942 16.9067 86.4164 17.2989 86.4268 17.702L85.5148 17.771C85.5042 17.5746 85.4545 17.3822 85.3687 17.2051C85.2828 17.0281 85.1625 16.87 85.0148 16.74C84.6492 16.4834 84.2062 16.3608 83.7608 16.393C83.3183 16.3559 82.8761 16.4671 82.5038 16.709C82.3816 16.7954 82.2816 16.9094 82.2121 17.0419C82.1426 17.1744 82.1054 17.3214 82.1038 17.471C82.1004 17.5915 82.1238 17.7111 82.1722 17.8214C82.2207 17.9317 82.2929 18.0299 82.3838 18.109C82.822 18.3755 83.3099 18.5497 83.8178 18.621C84.3605 18.7269 84.8928 18.8802 85.4088 19.079C85.7788 19.2342 86.0994 19.4877 86.3358 19.812C86.5377 20.1145 86.6424 20.4714 86.6358 20.835C86.6351 21.2201 86.5211 21.5964 86.3078 21.917C86.0751 22.2656 85.747 22.5398 85.3628 22.707C84.927 22.9004 84.4544 22.9966 83.9778 22.989C83.4191 23.0059 82.8628 22.909 82.3428 22.704C81.9192 22.5294 81.5581 22.2311 81.3068 21.848C81.0613 21.4635 80.9295 21.0173 80.9268 20.561Z" fill="#03033F"/>
<path d="M91.285 22.872V16.531H88.917V15.682H94.617V16.531H92.238V22.872H91.285Z" fill="#03033F"/>
<path d="M96.1221 22.872V21.866H97.1221V22.872H96.1221Z" fill="#03033F"/>
<path d="M159.11 22.872H158.227V17.247C157.972 17.4806 157.692 17.6843 157.391 17.854C157.095 18.0329 156.784 18.1858 156.462 18.311V17.457C156.932 17.24 157.368 16.956 157.756 16.614C158.076 16.3458 158.342 16.019 158.54 15.651H159.109L159.11 22.872Z" fill="#03033F"/>
<path d="M163.011 21.2061L163.86 21.1281C163.896 21.4555 164.042 21.7612 164.273 21.9961C164.489 22.1815 164.767 22.278 165.052 22.2661C165.303 22.2713 165.55 22.2066 165.766 22.0791C165.97 21.954 166.141 21.7827 166.266 21.5791C166.419 21.3176 166.529 21.0338 166.594 20.7381C166.683 20.3853 166.727 20.0228 166.727 19.6591C166.727 19.6211 166.727 19.5591 166.722 19.4831C166.542 19.7679 166.294 20.0031 166 20.1671C165.698 20.3413 165.355 20.4321 165.007 20.4301C164.724 20.4348 164.443 20.3797 164.182 20.2682C163.922 20.1567 163.688 19.9913 163.496 19.7831C163.072 19.3182 162.849 18.7038 162.878 18.0751C162.863 17.7537 162.913 17.4326 163.023 17.1304C163.134 16.8283 163.303 16.5511 163.522 16.3151C163.73 16.097 163.981 15.925 164.26 15.8099C164.538 15.6949 164.838 15.6394 165.139 15.6471C165.594 15.6444 166.039 15.7758 166.42 16.0251C166.817 16.2864 167.124 16.662 167.303 17.1021C167.534 17.75 167.636 18.4369 167.603 19.1241C167.629 19.8691 167.528 20.6132 167.303 21.3241C167.14 21.8192 166.829 22.2528 166.413 22.5671C166.009 22.8548 165.523 23.0046 165.027 22.9941C164.525 23.0155 164.034 22.8482 163.649 22.5251C163.278 22.1813 163.05 21.7103 163.011 21.2061ZM166.625 18.0331C166.65 17.5946 166.507 17.1631 166.225 16.8261C166.105 16.6855 165.955 16.5728 165.787 16.4958C165.619 16.4188 165.436 16.3793 165.251 16.3801C165.055 16.3804 164.862 16.4237 164.685 16.5068C164.508 16.5899 164.351 16.7108 164.226 16.8611C163.926 17.2045 163.769 17.6503 163.789 18.1061C163.78 18.3103 163.813 18.5143 163.884 18.706C163.955 18.8976 164.064 19.0731 164.204 19.2221C164.335 19.3614 164.493 19.4717 164.669 19.5458C164.845 19.6198 165.035 19.6561 165.226 19.6521C165.415 19.6576 165.603 19.622 165.778 19.5477C165.952 19.4735 166.108 19.3624 166.235 19.2221C166.512 18.8911 166.651 18.4667 166.625 18.0361V18.0331Z" fill="#03033F"/>
<path d="M169.971 20.9891L170.899 20.9101C170.934 21.2948 171.104 21.6549 171.377 21.9281C171.623 22.1539 171.947 22.276 172.282 22.2691C172.485 22.2717 172.687 22.23 172.873 22.147C173.059 22.0639 173.225 21.9414 173.359 21.7881C173.665 21.4359 173.823 20.9791 173.801 20.5131C173.813 20.2962 173.781 20.079 173.709 19.8744C173.636 19.6697 173.523 19.4816 173.377 19.3211C173.232 19.1752 173.059 19.061 172.868 18.986C172.677 18.9109 172.472 18.8765 172.267 18.8851C171.997 18.8802 171.731 18.9468 171.496 19.0781C171.277 19.1966 171.091 19.3686 170.956 19.5781L170.128 19.4711L170.828 15.7791H174.404V16.6221H171.536L171.147 18.5531C171.542 18.2648 172.017 18.1072 172.506 18.1021C172.801 18.0959 173.095 18.1508 173.368 18.2631C173.642 18.3755 173.889 18.5429 174.095 18.7551C174.31 18.9762 174.479 19.2389 174.59 19.5272C174.701 19.8154 174.753 20.1233 174.742 20.4321C174.755 21.0433 174.554 21.6399 174.173 22.118C173.95 22.4031 173.663 22.6311 173.335 22.7831C173.007 22.935 172.647 23.0067 172.286 22.9921C171.702 23.0168 171.131 22.8203 170.686 22.4421C170.266 22.07 170.01 21.5483 169.971 20.9891Z" fill="#03033F"/>
<path d="M181.642 17.443L180.765 17.512C180.719 17.2363 180.605 16.9764 180.433 16.7561C180.321 16.6338 180.184 16.5369 180.032 16.4717C179.88 16.4065 179.715 16.3746 179.549 16.3781C179.283 16.3733 179.023 16.4562 178.808 16.6141C178.511 16.8424 178.283 17.1497 178.152 17.5011C177.967 18.0353 177.882 18.599 177.901 19.164C178.093 18.8595 178.362 18.6108 178.681 18.443C178.98 18.2883 179.311 18.2077 179.647 18.2081C179.929 18.2046 180.208 18.2608 180.467 18.3728C180.725 18.4848 180.957 18.6502 181.147 18.858C181.356 19.0833 181.519 19.3477 181.625 19.6361C181.732 19.9244 181.78 20.2309 181.768 20.538C181.771 20.9745 181.671 21.4056 181.476 21.7961C181.3 22.1628 181.022 22.4715 180.676 22.6861C180.327 22.8941 179.926 23.001 179.519 22.995C179.177 23.0047 178.838 22.9368 178.526 22.7963C178.214 22.6558 177.938 22.4465 177.719 22.1841C177.183 21.4001 176.935 20.4542 177.019 19.508C176.93 18.4399 177.201 17.3726 177.79 16.4771C178.006 16.2081 178.282 15.9934 178.596 15.8502C178.91 15.7069 179.253 15.6391 179.598 15.6521C180.105 15.6319 180.601 15.8021 180.989 16.1291C181.364 16.4697 181.597 16.9387 181.642 17.443ZM178.042 20.5431C178.042 20.8445 178.108 21.1422 178.236 21.415C178.35 21.6754 178.539 21.8963 178.778 22.05C178.995 22.1916 179.249 22.2677 179.508 22.2691C179.692 22.2696 179.874 22.2293 180.04 22.1512C180.206 22.073 180.353 21.9589 180.47 21.817C180.753 21.4731 180.895 21.0354 180.87 20.5911C180.893 20.1628 180.75 19.7422 180.47 19.4171C180.344 19.2775 180.19 19.1669 180.017 19.0929C179.845 19.0188 179.658 18.9831 179.47 18.9881C179.28 18.9847 179.092 19.0212 178.917 19.0951C178.742 19.169 178.585 19.2786 178.455 19.4171C178.314 19.5675 178.204 19.7445 178.133 19.9379C178.061 20.1312 178.028 20.337 178.037 20.5431H178.042Z" fill="#03033F"/>
<path d="M138.369 35.741L117.734 35.796L107.369 17.953L117.639 0.0530014L138.277 0L148.642 17.843L138.369 35.741Z" fill="#03033F"/>
<path d="M142.014 17.517C141.94 17.0074 141.666 16.5481 141.254 16.2394C140.842 15.9308 140.324 15.7979 139.814 15.87C139.214 15.959 138.634 16.12 138.044 16.244C137.789 16.297 137.774 16.289 137.723 16.038C137.466 14.6902 136.929 13.4114 136.147 12.284C136.055 12.155 136.082 12.106 136.204 12.028C136.692 11.716 137.187 11.416 137.667 11.091C138.01 10.8605 138.276 10.5317 138.429 10.1476C138.582 9.76358 138.615 9.34227 138.524 8.93899C138.447 8.53553 138.245 8.16657 137.946 7.88441C137.648 7.60226 137.268 7.42122 136.861 7.36698C136.471 7.28814 136.065 7.32968 135.699 7.48609C135.333 7.64251 135.022 7.90644 134.809 8.24299C134.493 8.69799 134.209 9.17398 133.909 9.64298C133.801 9.81798 133.719 9.82298 133.556 9.71098C132.441 8.95053 131.182 8.42831 129.856 8.17699C129.607 8.12899 129.594 8.10999 129.656 7.85499C129.764 7.37632 129.87 6.89765 129.974 6.41898C130.028 6.21631 130.055 6.00761 130.055 5.79799C130.048 5.3283 129.873 4.87662 129.563 4.52389C129.253 4.17115 128.827 3.94041 128.362 3.87299H127.637C127.472 3.89607 127.31 3.92946 127.149 3.97298C126.727 4.16194 126.382 4.48794 126.169 4.89803C125.956 5.30813 125.887 5.77823 125.975 6.23199C126.075 6.77699 126.214 7.31599 126.328 7.85899C126.385 8.12699 126.382 8.12898 126.105 8.18298C124.797 8.43014 123.554 8.94564 122.455 9.69698C122.225 9.85398 122.221 9.85299 122.071 9.62199C121.742 9.11599 121.449 8.58599 121.087 8.10399C120.867 7.82882 120.579 7.61466 120.253 7.48193C119.926 7.34919 119.571 7.30229 119.221 7.3457C118.871 7.38911 118.538 7.52138 118.254 7.72991C117.97 7.93844 117.744 8.21629 117.597 8.53699C117.395 8.98154 117.358 9.48369 117.493 9.95302C117.628 10.4223 117.926 10.828 118.334 11.097C118.779 11.397 119.24 11.679 119.696 11.967C119.927 12.113 119.933 12.129 119.78 12.358C119.035 13.4612 118.523 14.7044 118.274 16.012C118.222 16.286 118.2 16.296 117.917 16.231C117.447 16.124 116.975 16.02 116.504 15.917C116.302 15.8621 116.093 15.8355 115.884 15.838C115.43 15.8423 114.991 16.0042 114.643 16.296C114.295 16.5878 114.059 16.9915 113.975 17.438V18.356C114.002 18.57 114.07 18.7769 114.175 18.965C114.399 19.3368 114.734 19.6284 115.134 19.7979C115.533 19.9675 115.976 20.0063 116.399 19.909C116.932 19.797 117.466 19.678 117.999 19.552C118.134 19.52 118.224 19.522 118.256 19.697C118.489 21.0415 119.01 22.3197 119.783 23.444C119.929 23.657 119.922 23.676 119.707 23.822C119.241 24.138 118.756 24.422 118.287 24.737C118.003 24.9394 117.775 25.2104 117.623 25.5248C117.472 25.8392 117.403 26.1867 117.422 26.5351C117.441 26.8834 117.548 27.2213 117.732 27.5173C117.917 27.8133 118.174 28.0577 118.478 28.228C118.928 28.4741 119.454 28.544 119.953 28.4241C120.452 28.3041 120.889 28.0029 121.178 27.579C121.478 27.123 121.769 26.658 122.059 26.195C122.201 25.968 122.228 25.965 122.452 26.116C123.566 26.8739 124.826 27.3897 126.152 27.63C126.329 27.662 126.38 27.717 126.339 27.897C126.211 28.462 126.084 29.027 125.965 29.597C125.916 29.8531 125.917 30.1165 125.97 30.372C126.022 30.6276 126.125 30.8702 126.271 31.0862C126.418 31.3021 126.605 31.487 126.823 31.6305C127.041 31.7739 127.285 31.8729 127.541 31.922H128.458C128.599 31.866 128.753 31.87 128.894 31.801C129.263 31.624 129.569 31.3388 129.771 30.9834C129.974 30.628 130.063 30.2194 130.027 29.812C129.937 29.1992 129.815 28.5914 129.663 27.991C129.603 27.68 129.598 27.68 129.913 27.617C131.22 27.364 132.462 26.8453 133.56 26.093C133.726 25.98 133.803 26.015 133.902 26.169C134.197 26.63 134.477 27.101 134.787 27.551C135.013 27.9035 135.343 28.1775 135.731 28.3355C136.119 28.4936 136.546 28.528 136.954 28.434C137.34 28.3552 137.693 28.1649 137.971 27.8866C138.249 27.6083 138.44 27.2545 138.518 26.869C138.605 26.4739 138.573 26.0622 138.427 25.6849C138.282 25.3076 138.029 24.9815 137.699 24.747C137.219 24.422 136.723 24.122 136.236 23.81C136.084 23.71 136.063 23.635 136.167 23.486C136.952 22.3592 137.482 21.0757 137.723 19.724C137.755 19.55 137.829 19.524 137.987 19.557C138.521 19.677 139.06 19.779 139.587 19.915C139.857 19.9783 140.136 19.985 140.408 19.9346C140.681 19.8842 140.939 19.7779 141.168 19.6223C141.397 19.4668 141.592 19.2653 141.739 19.0308C141.886 18.7963 141.983 18.5338 142.023 18.26V17.536C142.023 17.53 142.014 17.523 142.014 17.517ZM140.191 18.886C139.815 18.9018 139.439 18.844 139.084 18.716C138.543 18.605 138.01 18.45 137.465 18.365C136.956 18.285 136.829 18.496 136.765 19.019C136.668 19.8061 136.464 20.5762 136.158 21.308C135.849 22.0302 135.453 22.7116 134.978 23.337C134.895 23.449 134.76 23.526 134.736 23.68C134.711 23.7942 134.722 23.9134 134.768 24.0209C134.814 24.1285 134.892 24.219 134.992 24.28C135.651 24.7066 136.314 25.128 136.979 25.544C137.187 25.6496 137.351 25.825 137.443 26.0395C137.534 26.254 137.547 26.4939 137.479 26.717C137.415 26.9282 137.283 27.1123 137.103 27.241C136.924 27.3697 136.707 27.4357 136.486 27.429C136.329 27.4278 136.175 27.387 136.038 27.3102C135.901 27.2335 135.786 27.1233 135.703 26.99C135.271 26.324 134.832 25.663 134.403 24.99C134.368 24.9028 134.311 24.8261 134.237 24.7673C134.164 24.7085 134.077 24.6695 133.984 24.6541C133.891 24.6386 133.796 24.6472 133.707 24.6791C133.619 24.7109 133.54 24.7649 133.478 24.836C132.424 25.6778 131.189 26.2647 129.871 26.551C129.535 26.6283 129.193 26.6814 128.849 26.71C128.783 26.7164 128.719 26.7367 128.661 26.7697C128.603 26.8027 128.553 26.8475 128.514 26.9013C128.475 26.9551 128.448 27.0166 128.434 27.0817C128.42 27.1468 128.421 27.214 128.435 27.279C128.607 28.101 128.8 28.917 128.984 29.737C129.023 29.9354 129 30.1412 128.918 30.3258C128.835 30.5105 128.697 30.665 128.523 30.768C128.34 30.8943 128.117 30.9524 127.896 30.9321C127.674 30.9118 127.466 30.8145 127.308 30.657C127.15 30.4963 127.043 30.292 127.002 30.0704C126.961 29.8487 126.987 29.6197 127.077 29.413C127.233 28.747 127.395 28.082 127.535 27.413C127.635 26.959 127.441 26.755 126.991 26.7C126.118 26.599 125.265 26.3678 124.46 26.014C123.723 25.6957 123.036 25.2716 122.421 24.755C122.364 24.7036 122.296 24.666 122.223 24.6451C122.149 24.6242 122.071 24.6205 121.996 24.6343C121.92 24.6481 121.849 24.6791 121.788 24.7248C121.726 24.7705 121.676 24.8298 121.641 24.898C121.181 25.598 120.741 26.319 120.257 27.003C120.171 27.1353 120.054 27.2442 119.916 27.32C119.778 27.3958 119.623 27.4361 119.465 27.4373C119.308 27.4385 119.152 27.4005 119.013 27.3268C118.874 27.2531 118.755 27.146 118.667 27.015C118.581 26.903 118.52 26.7738 118.489 26.6362C118.457 26.4985 118.455 26.3557 118.484 26.2174C118.512 26.0791 118.57 25.9485 118.654 25.8346C118.737 25.7206 118.844 25.6259 118.967 25.557C119.646 25.117 120.327 24.683 121.006 24.244C121.068 24.2116 121.122 24.1659 121.164 24.1102C121.206 24.0545 121.235 23.9901 121.249 23.9218C121.263 23.8535 121.262 23.7829 121.245 23.7151C121.228 23.6474 121.197 23.5841 121.153 23.53C120.734 22.9888 120.366 22.4104 120.053 21.802C119.637 20.9581 119.36 20.0523 119.234 19.12C119.218 18.995 119.207 18.87 119.187 18.746C119.134 18.416 118.823 18.277 118.425 18.369C117.615 18.557 116.81 18.776 115.984 18.889C115.792 18.9065 115.599 18.8634 115.432 18.7656C115.265 18.6679 115.134 18.5205 115.055 18.344C114.965 18.1785 114.926 17.9898 114.944 17.8022C114.962 17.6145 115.035 17.4365 115.155 17.291C115.283 17.1299 115.456 17.0111 115.652 16.9499C115.848 16.8887 116.059 16.888 116.255 16.948C116.972 17.126 117.696 17.277 118.417 17.433C118.557 17.4833 118.71 17.4811 118.849 17.4269C118.987 17.3726 119.101 17.2699 119.169 17.138C119.203 16.9845 119.222 16.8281 119.227 16.671C119.439 15.1617 120.041 13.734 120.974 12.529C121.074 12.4192 121.157 12.2951 121.221 12.161C121.262 12.0612 121.267 11.9507 121.237 11.8473C121.207 11.744 121.142 11.6539 121.054 11.592C120.344 11.127 119.642 10.65 118.92 10.207C118.763 10.0972 118.639 9.9472 118.561 9.77282C118.482 9.59844 118.452 9.40609 118.473 9.21599C118.506 9.01038 118.604 8.82077 118.753 8.67538C118.902 8.52998 119.094 8.43656 119.3 8.40899C119.873 8.31899 120.142 8.56898 120.44 9.03198C120.834 9.64698 121.211 10.271 121.605 10.885C121.646 10.9599 121.704 11.0241 121.775 11.0721C121.845 11.1201 121.926 11.1507 122.011 11.1613C122.096 11.1718 122.182 11.162 122.262 11.1328C122.342 11.1035 122.414 11.0556 122.472 10.993C123.2 10.4082 124.016 9.94245 124.89 9.61298C125.602 9.36369 126.336 9.18614 127.083 9.08298C127.163 9.0808 127.242 9.05934 127.312 9.02042C127.382 8.98151 127.442 8.92627 127.486 8.85939C127.531 8.79251 127.558 8.71594 127.567 8.63615C127.575 8.55637 127.564 8.47571 127.535 8.40099C127.365 7.65099 127.187 6.90098 127.012 6.15398C126.96 5.94972 126.971 5.73467 127.042 5.53638C127.113 5.33808 127.242 5.16558 127.412 5.04099C127.596 4.91694 127.814 4.85574 128.036 4.86655C128.257 4.87737 128.469 4.95963 128.639 5.10098C128.782 5.21036 128.889 5.359 128.949 5.52865C129.008 5.69829 129.016 5.88157 128.973 6.05598C128.814 6.80798 128.615 7.55598 128.46 8.30598C128.381 8.68998 128.414 8.86399 128.676 9.03799C128.802 9.09842 128.941 9.1279 129.081 9.12399C130.657 9.31433 132.151 9.93385 133.399 10.915C133.811 11.237 133.899 11.215 134.218 11.052C134.376 10.969 134.436 10.786 134.529 10.644C134.92 10.044 135.295 9.43898 135.677 8.83498C135.764 8.68013 135.894 8.55402 136.052 8.47213C136.209 8.39024 136.387 8.35613 136.564 8.37399C136.783 8.38883 136.992 8.47506 137.158 8.61951C137.323 8.76397 137.437 8.95871 137.482 9.17399C137.522 9.39529 137.49 9.62361 137.39 9.82526C137.291 10.0269 137.129 10.1912 136.929 10.294C136.257 10.694 135.602 11.131 134.939 11.552C134.83 11.646 134.76 11.7776 134.743 11.9207C134.726 12.0639 134.764 12.2082 134.848 12.325C135.769 13.4473 136.394 14.7822 136.667 16.208C136.717 16.468 136.733 16.733 136.8 16.991C136.9 17.382 136.943 17.43 137.451 17.43C137.79 17.398 138.229 17.253 138.681 17.169C139.131 17.0418 139.591 16.9528 140.056 16.903C140.184 16.9013 140.311 16.9248 140.429 16.9723C140.548 17.0198 140.656 17.0902 140.748 17.1796C140.839 17.269 140.912 17.3756 140.962 17.4932C141.012 17.6108 141.038 17.7372 141.039 17.865C141.053 18.111 140.974 18.3532 140.816 18.5427C140.659 18.7323 140.436 18.855 140.191 18.886Z" fill="white"/>
<path d="M128.011 19.322C127.818 19.3265 127.626 19.2913 127.447 19.2186C127.268 19.1459 127.105 19.0372 126.97 18.8992C126.835 18.7612 126.729 18.5968 126.66 18.4163C126.59 18.2359 126.559 18.0431 126.567 17.85C126.579 17.4814 126.734 17.1318 126.998 16.8752C127.263 16.6186 127.617 16.475 127.986 16.475C128.176 16.4735 128.365 16.51 128.541 16.5823C128.716 16.6547 128.876 16.7615 129.01 16.8964C129.144 17.0313 129.25 17.1916 129.321 17.3678C129.392 17.5441 129.427 17.7329 129.424 17.923C129.421 18.2954 129.271 18.6516 129.006 18.9136C128.741 19.1757 128.384 19.3225 128.011 19.322Z" fill="white"/>
<path d="M132.861 11.582C132.732 11.482 132.591 11.399 132.456 11.306C131.456 10.6287 130.317 10.1845 129.122 10.006C129.014 9.97275 128.898 9.97418 128.79 10.01C128.683 10.0459 128.589 10.1144 128.522 10.206C128.441 10.3484 128.404 10.5114 128.414 10.675C128.414 11.415 128.414 12.155 128.414 12.895C128.414 13.635 128.414 14.395 128.414 15.139C128.405 15.2768 128.442 15.4139 128.52 15.5277C128.599 15.6416 128.713 15.7256 128.845 15.766C129.104 15.866 129.357 15.939 129.591 15.703C130.699 14.5923 131.808 13.483 132.918 12.375C132.968 12.32 133.007 12.2555 133.031 12.1852C133.056 12.1149 133.066 12.0404 133.06 11.9662C133.055 11.892 133.034 11.8197 133 11.7536C132.966 11.6876 132.919 11.6292 132.861 11.582ZM129.445 14.388V11.088C130.276 11.2653 131.067 11.5934 131.779 12.056L129.445 14.388Z" fill="white"/>
<path d="M132.871 23.369C131.809 22.3023 130.746 21.2393 129.68 20.18C129.546 20.0392 129.363 19.9557 129.169 19.9469C128.975 19.9382 128.785 20.0048 128.639 20.133C128.557 20.2058 128.493 20.2978 128.455 20.4008C128.416 20.5039 128.403 20.6148 128.417 20.724C128.411 21.464 128.417 22.204 128.417 22.944C128.417 23.684 128.408 24.444 128.417 25.188C128.422 25.529 128.554 25.846 129.025 25.794C129.405 25.7514 129.781 25.6778 130.149 25.574C131.096 25.2964 131.988 24.8595 132.788 24.282C132.863 24.2348 132.927 24.171 132.973 24.0954C133.02 24.0197 133.048 23.9344 133.056 23.846C133.064 23.7577 133.052 23.6686 133.019 23.5859C132.987 23.5031 132.937 23.4289 132.871 23.369ZM129.438 24.723V21.409L131.78 23.757C131.063 24.2147 130.27 24.5417 129.438 24.723Z" fill="white"/>
<path d="M127.545 22.913C127.545 22.113 127.545 21.321 127.545 20.524C127.554 20.4375 127.534 20.3507 127.488 20.2765C127.443 20.2023 127.375 20.145 127.294 20.113C127.186 20.055 127.072 20.0071 126.955 19.97C126.857 19.9365 126.752 19.9318 126.652 19.9564C126.551 19.9811 126.46 20.034 126.389 20.109C126.131 20.385 125.857 20.647 125.589 20.909C124.765 21.733 123.941 22.5577 123.116 23.383C123.056 23.428 123.007 23.4854 122.971 23.5513C122.935 23.6172 122.914 23.69 122.909 23.7648C122.904 23.8397 122.915 23.9147 122.942 23.9848C122.968 24.0549 123.01 24.1184 123.063 24.171C123.381 24.4211 123.717 24.6471 124.069 24.847C124.911 25.318 125.83 25.634 126.783 25.78C127.264 25.853 127.562 25.77 127.547 25.152C127.531 24.409 127.545 23.661 127.545 22.913ZM126.424 24.704C125.62 24.5112 124.856 24.18 124.166 23.725C125 22.996 125.753 22.185 126.579 21.378C126.579 22.484 126.579 23.544 126.579 24.604C126.581 24.738 126.542 24.733 126.424 24.704Z" fill="white"/>
<path d="M125.877 18.792C125.777 18.559 125.684 18.342 125.35 18.351C124.562 18.37 123.775 18.357 122.986 18.357C122.197 18.357 121.378 18.357 120.574 18.357C120.513 18.3548 120.453 18.365 120.396 18.387C120.339 18.4089 120.287 18.4422 120.244 18.4848C120.2 18.5273 120.166 18.5783 120.143 18.6345C120.12 18.6908 120.108 18.7511 120.109 18.812C120.11 19.1739 120.165 19.5337 120.274 19.879C120.532 20.8718 120.973 21.8078 121.574 22.639C121.843 23.019 122.201 23.093 122.482 22.814C123.6 21.7027 124.715 20.5883 125.826 19.471C125.907 19.3784 125.955 19.2623 125.964 19.1399C125.973 19.0176 125.943 18.8955 125.877 18.792ZM122.25 21.607C122.15 21.714 122.098 21.647 122.058 21.577C121.665 20.9092 121.37 20.1885 121.181 19.437C121.145 19.298 121.243 19.323 121.32 19.323H124.534C123.745 20.108 122.996 20.853 122.25 21.607Z" fill="white"/>
<path d="M135.57 15.441C135.296 14.6062 134.887 13.8217 134.361 13.118C134.321 13.0406 134.262 12.9743 134.19 12.9249C134.119 12.8754 134.036 12.8444 133.949 12.8345C133.862 12.8247 133.775 12.8362 133.694 12.8682C133.612 12.9002 133.54 12.9516 133.484 13.018C132.397 14.104 131.311 15.1896 130.224 16.275C130.14 16.3494 130.079 16.4466 130.049 16.5548C130.018 16.663 130.02 16.7776 130.053 16.885C130.166 17.309 130.319 17.435 130.753 17.435H133.021C133.809 17.435 134.598 17.411 135.385 17.447C135.461 17.4507 135.537 17.4369 135.607 17.4067C135.677 17.3765 135.739 17.3307 135.789 17.2729C135.838 17.215 135.874 17.1465 135.893 17.0727C135.912 16.9989 135.914 16.9217 135.899 16.847C135.824 16.3709 135.714 15.901 135.57 15.441ZM131.488 16.465C131.965 15.989 132.419 15.541 132.867 15.085C133.159 14.785 133.439 14.485 133.725 14.185C133.777 14.129 133.807 14.064 133.89 14.192C134.33 14.8905 134.644 15.6604 134.819 16.467L131.488 16.465Z" fill="white"/>
<path d="M135.34 18.305L132.975 18.356C132.228 18.372 131.475 18.408 130.732 18.398C130.653 18.3885 130.572 18.3948 130.494 18.4165C130.417 18.4383 130.345 18.4751 130.282 18.5248C130.219 18.5744 130.166 18.6361 130.127 18.7061C130.088 18.7761 130.063 18.8532 130.053 18.933C130.012 19.0598 130.01 19.1963 130.049 19.3242C130.087 19.452 130.164 19.565 130.268 19.648C131.357 20.674 132.441 21.705 133.509 22.748C133.566 22.8215 133.641 22.8793 133.727 22.9157C133.813 22.9521 133.906 22.9659 133.999 22.9559C134.091 22.9459 134.18 22.9123 134.256 22.8584C134.331 22.8045 134.392 22.732 134.432 22.648C134.842 22.053 135.176 21.4094 135.426 20.732C135.66 20.1124 135.803 19.4624 135.851 18.802C135.872 18.465 135.678 18.298 135.34 18.305ZM133.952 21.536C133.87 21.682 133.821 21.678 133.704 21.566C132.954 20.838 132.195 20.118 131.404 19.366L134.777 19.292C134.638 20.0831 134.359 20.843 133.952 21.536Z" fill="white"/>
<path d="M127.545 12.868V10.503C127.554 10.436 127.547 10.3679 127.525 10.304C127.503 10.2401 127.467 10.182 127.419 10.1342C127.372 10.0864 127.314 10.0502 127.25 10.0283C127.186 10.0064 127.118 9.99947 127.051 10.008C126.893 10.009 126.736 10.0251 126.582 10.056C125.366 10.2897 124.216 10.7889 123.215 11.518C122.86 11.776 122.805 12.081 123.034 12.318C124.159 13.468 125.3 14.602 126.443 15.734C126.7 15.988 126.988 15.834 127.255 15.727C127.351 15.6887 127.432 15.6199 127.485 15.5312C127.538 15.4424 127.56 15.3386 127.548 15.236C127.54 14.443 127.545 13.657 127.545 12.868ZM126.575 14.468C125.793 13.684 125.046 12.932 124.293 12.185C124.193 12.085 124.211 12.059 124.323 11.985C125.013 11.5501 125.776 11.2423 126.575 11.076V14.468Z" fill="white"/>
<path d="M125.758 16.3C124.667 15.2193 123.58 14.1343 122.497 13.045C122.443 12.9771 122.372 12.9236 122.292 12.8891C122.212 12.8545 122.125 12.84 122.038 12.8468C121.952 12.8536 121.868 12.8815 121.794 12.9281C121.721 12.9746 121.659 13.0385 121.616 13.114C121.221 13.6522 120.892 14.2356 120.635 14.852C120.335 15.5297 120.158 16.2553 120.111 16.995C120.104 17.306 120.244 17.44 120.556 17.44C121.352 17.44 122.148 17.44 122.943 17.44C123.723 17.44 124.504 17.418 125.283 17.45C125.696 17.467 125.808 17.213 125.916 16.918C125.959 16.8116 125.967 16.6942 125.939 16.583C125.91 16.4719 125.847 16.3727 125.758 16.3ZM121.194 16.464C121.353 15.6325 121.675 14.8408 122.142 14.135L124.471 16.464H121.194Z" fill="white"/>
<path d="M128.414 17.904C128.415 18.0225 128.37 18.1367 128.287 18.2215C128.204 18.3064 128.091 18.3551 127.973 18.357C127.866 18.3311 127.77 18.2752 127.694 18.196C127.618 18.1168 127.567 18.0175 127.546 17.91C127.552 17.7967 127.601 17.69 127.684 17.6117C127.766 17.5333 127.874 17.4891 127.988 17.488C128.045 17.4795 128.103 17.4844 128.158 17.5021C128.213 17.5199 128.263 17.5501 128.304 17.5904C128.345 17.6306 128.377 17.6799 128.396 17.7343C128.415 17.7887 128.421 17.8468 128.414 17.904Z" fill="white"/>
<path d="M15.1391 65.849H24.0161V70.888C22.9546 71.7094 21.7745 72.3649 20.5161 72.832C18.8624 73.5181 17.0819 73.8455 15.2922 73.7926C13.5025 73.7397 11.7445 73.3076 10.1341 72.525C8.45623 71.6968 7.09686 70.3402 6.26513 68.664C5.30598 66.6093 4.84517 64.3573 4.92013 62.091C4.90203 60.0625 5.28328 58.0503 6.04214 56.169C6.48599 55.1144 7.10582 54.1429 7.87514 53.296C8.73365 52.3785 9.7858 51.6639 10.9551 51.204C12.4157 50.6386 13.9734 50.3668 15.5391 50.404C16.9101 50.3873 18.2704 50.6464 19.5391 51.166C20.6036 51.5799 21.5417 52.264 22.2611 53.151C23.0068 54.2112 23.5562 55.3967 23.8831 56.651L23.9941 57.028L28.3591 55.828L28.2591 55.446C27.8354 53.6027 27.0312 51.8683 25.8981 50.354C24.754 48.9678 23.2661 47.9061 21.5831 47.275C19.6477 46.5286 17.5874 46.159 15.5131 46.186C12.6774 46.1333 9.87299 46.7862 7.35213 48.086C4.94362 49.3963 3.02316 51.4501 1.87713 53.941C0.620366 56.5619 -0.023551 59.4344 -0.00586847 62.341C-0.042404 65.1996 0.609255 68.0251 1.89413 70.579C3.13696 73.0198 5.11699 75.0071 7.55315 76.259C10.1098 77.5742 12.9493 78.244 15.8241 78.21C18.0687 78.208 20.2942 77.798 22.3921 77C24.6278 76.1303 26.7145 74.9178 28.5771 73.406L28.7281 73.285V61.485L15.1361 61.508L15.1391 65.849Z" fill="#03033F"/>
<path d="M43.4064 46.701L31.5063 77.701H36.6134L39.9284 68.556H52.0004L55.5224 77.701H60.9464L48.2594 46.701H43.4064ZM50.4554 64.501H41.3754L44.4893 56.182C45.0088 54.7643 45.4466 53.3179 45.8004 51.85C46.2394 53.221 46.8104 54.836 47.5004 56.671L50.4554 64.501Z" fill="#03033F"/>
<path d="M80.4251 67.976C79.9251 69.448 79.5181 70.652 79.2021 71.619C78.9235 70.7437 78.5678 69.6537 78.1351 68.349L70.9021 46.701H64.2021V77.701H68.8551V54.021L76.9001 77.701H81.0781L89.1651 54.401V77.701H93.8201V46.701H87.7571L80.4251 67.976Z" fill="#03033F"/>
<path d="M107.921 78.208H111.741L120.698 46.181H116.898L107.921 78.208Z" fill="#03033F"/>
<path d="M156.423 66.621C156.069 68.7493 155.006 70.6955 153.407 72.144C151.876 73.3877 149.95 74.0412 147.978 73.986C146.243 73.9919 144.541 73.5203 143.056 72.623C141.517 71.6706 140.346 70.2256 139.732 68.523C138.961 66.4171 138.588 64.1862 138.632 61.944C138.631 60.0165 138.944 58.1017 139.559 56.275C140.119 54.5478 141.219 53.0464 142.698 51.993C144.345 50.8862 146.3 50.3279 148.283 50.398C149.992 50.3335 151.674 50.834 153.069 51.822C154.49 53.0182 155.506 54.6251 155.976 56.422L156.088 56.775L160.795 55.666L160.677 55.261C159.977 52.5963 158.412 50.2396 156.227 48.561C153.939 46.9264 151.178 46.0885 148.367 46.176C145.744 46.1519 143.158 46.7962 140.852 48.048C138.57 49.3005 136.724 51.2192 135.56 53.548C134.282 56.1674 133.65 59.0544 133.716 61.968C133.698 64.8 134.252 67.6065 135.345 70.219C136.307 72.6385 137.981 74.7088 140.145 76.156C142.609 77.615 145.443 78.3279 148.303 78.208C151.272 78.2913 154.179 77.3479 156.533 75.537C158.902 73.5522 160.542 70.8343 161.194 67.813L161.294 67.424L156.508 66.214L156.423 66.621Z" fill="#03033F"/>
<path d="M187.901 48.215C185.556 46.8367 182.878 46.1261 180.158 46.16C178.165 46.0952 176.18 46.4519 174.334 47.2067C172.488 47.9614 170.822 49.0973 169.445 50.54C166.693 53.44 165.297 57.492 165.297 62.586C165.291 65.2588 165.897 67.8975 167.068 70.3C168.216 72.6965 170.036 74.7078 172.306 76.089C174.666 77.5142 177.379 78.2484 180.136 78.208C182.766 78.22 185.356 77.5616 187.662 76.295C190.002 75.0049 191.892 73.0308 193.079 70.637C194.372 68.0283 195.024 65.1484 194.979 62.237C195.025 59.3745 194.409 56.5401 193.179 53.955C192.022 51.5647 190.186 49.5683 187.901 48.215ZM190.056 62.215C190.056 65.979 189.111 68.915 187.247 70.944C186.347 71.9339 185.245 72.7181 184.014 73.2431C182.784 73.7681 181.455 74.0215 180.118 73.986C178.793 74.0162 177.476 73.763 176.256 73.2434C175.037 72.7238 173.942 71.9497 173.046 70.973C171.17 68.965 170.219 66.164 170.219 62.647C170.219 58.238 171.206 55.06 173.154 53.205C174.083 52.2995 175.182 51.5862 176.388 51.1057C177.593 50.6253 178.881 50.3872 180.179 50.405C182.007 50.3831 183.802 50.8871 185.352 51.857C186.897 52.843 188.114 54.2668 188.847 55.947C189.691 57.927 190.103 60.0642 190.056 62.216V62.215Z" fill="#03033F"/>
<path d="M219.279 64.759C218.835 64.3742 218.352 64.0358 217.839 63.749C219.903 63.4297 221.817 62.4788 223.317 61.027C224.769 59.4927 225.557 57.4469 225.507 55.335C225.522 53.6565 225.067 52.0074 224.193 50.574C223.383 49.191 222.131 48.1211 220.638 47.537C218.609 46.8927 216.483 46.6081 214.355 46.696H200.568V77.696H205.368V64.284H209.602C210.314 64.2643 211.026 64.3088 211.73 64.417C212.334 64.5724 212.909 64.8261 213.43 65.168C214.17 65.7064 214.822 66.3573 215.36 67.097C216.104 68.044 217.067 69.434 218.221 71.225L222.334 77.693H228.311L222.663 68.857C221.712 67.3546 220.575 65.9777 219.279 64.759ZM219.848 57.826C219.336 58.6003 218.58 59.1819 217.7 59.479C216.358 59.8906 214.956 60.0741 213.553 60.022H205.368V50.833H214.524C216.176 50.6908 217.825 51.1445 219.171 52.112C219.633 52.509 220.001 53.0045 220.247 53.562C220.492 54.1196 220.61 54.725 220.591 55.334C220.593 56.2198 220.334 57.0865 219.848 57.827V57.826Z" fill="#03033F"/>
<path d="M255.043 51.534C254.472 50.3086 253.592 49.252 252.491 48.467C251.321 47.6952 249.994 47.1912 248.606 46.991C247.062 46.7628 245.502 46.6641 243.941 46.696H232.15V77.696H236.95V65.418H244.294C248.661 65.418 251.741 64.476 253.446 62.618C255.143 60.7691 256.059 58.3357 256.002 55.827C256.016 54.3414 255.688 52.8726 255.043 51.534ZM244.354 61.0519H236.948V51.0609H244.272C245.485 51.0153 246.699 51.1001 247.893 51.314C248.83 51.5641 249.646 52.1417 250.193 52.9419C250.798 53.8278 251.107 54.8819 251.077 55.954C251.123 56.6519 251.013 57.3513 250.755 58.0015C250.497 58.6516 250.097 59.2362 249.585 59.713C248.583 60.601 246.823 61.0519 244.354 61.0519Z" fill="#03033F"/>
</g>
<defs>
<clipPath id="clip0_49_1457">
<rect width="256" height="103.573" fill="white"/>
</clipPath>
</defs>
</svg>
