<svg width="131" height="40" viewBox="0 0 131 40" fill="none" xmlns="http://www.w3.org/2000/svg">
<path d="M37.847 11.696V8.01971H40.4694V8.45387H38.3276V9.57889H40.3332V10.01H38.3276V11.2608H40.5536V11.6955L37.847 11.696Z" fill="#03033F"/>
<path d="M41.8119 10.5143L42.2658 10.4744C42.2802 10.6354 42.332 10.7907 42.417 10.9275C42.5092 11.0561 42.6357 11.1553 42.7817 11.2133C42.9572 11.2879 43.146 11.3251 43.3364 11.3228C43.5017 11.3258 43.6661 11.2974 43.821 11.2389C43.9449 11.1959 44.0537 11.117 44.1337 11.0119C44.1998 10.9208 44.2352 10.8105 44.2345 10.6974C44.236 10.5877 44.2004 10.4809 44.1337 10.3946C44.0459 10.2939 43.933 10.219 43.8069 10.1778C43.595 10.1066 43.3795 10.0467 43.1614 9.99831C42.9204 9.94904 42.6857 9.87201 42.4619 9.7687C42.3053 9.69155 42.1717 9.57369 42.0746 9.42711C41.9894 9.28934 41.9452 9.12951 41.9475 8.96688C41.9474 8.78152 42.0017 8.60032 42.1034 8.4463C42.2139 8.2796 42.3724 8.15142 42.5572 8.07913C42.7689 7.99367 42.9951 7.95127 43.2229 7.95436C43.4662 7.94947 43.7079 7.99398 43.934 8.08527C44.127 8.16261 44.2922 8.29784 44.4075 8.47289C44.5187 8.64554 44.5803 8.84614 44.5855 9.05228L44.1256 9.08756C44.1203 8.98709 44.0952 8.88871 44.0519 8.79818C44.0086 8.70765 43.948 8.62679 43.8735 8.56033C43.6891 8.42909 43.4657 8.36641 43.2411 8.38289C43.0179 8.36391 42.7949 8.42076 42.6072 8.54448C42.5456 8.58863 42.4952 8.64697 42.4601 8.71471C42.425 8.78244 42.4063 8.85765 42.4055 8.93415C42.4038 8.99573 42.4156 9.05692 42.44 9.11333C42.4644 9.16973 42.5008 9.21996 42.5467 9.2604C42.7676 9.39665 43.0137 9.48574 43.2698 9.52223C43.5435 9.57638 43.812 9.65475 44.0722 9.75643C44.2588 9.83581 44.4204 9.96543 44.5396 10.1313C44.6415 10.2859 44.6943 10.4685 44.6909 10.6544C44.6906 10.8513 44.6331 11.0438 44.5255 11.2077C44.4082 11.3859 44.2428 11.5262 44.049 11.6117C43.8292 11.7106 43.5909 11.7598 43.3505 11.7559C43.0688 11.7645 42.7882 11.715 42.526 11.6102C42.3124 11.5209 42.1303 11.3683 42.0035 11.1724C41.8797 10.9758 41.8133 10.7476 41.8119 10.5143Z" fill="#03033F"/>
<path d="M47.0354 11.6961V8.4535H45.8412V8.01935H48.7157V8.4535H47.516V11.6961H47.0354Z" fill="#03033F"/>
<path d="M49.4747 11.695V11.1817H49.978V11.695H49.4747Z" fill="#03033F"/>
<path d="M81.2394 11.6961H80.7941V8.81964C80.6658 8.93913 80.5243 9.04328 80.3725 9.13005C80.2233 9.22152 80.0666 9.29971 79.9041 9.36375V8.92703C80.141 8.81605 80.3608 8.67085 80.5566 8.49595C80.7181 8.3588 80.8523 8.19165 80.952 8.00349H81.2389L81.2394 11.6961Z" fill="#03033F"/>
<path d="M83.2068 10.8442L83.6349 10.8043C83.6533 10.9717 83.7266 11.1281 83.8432 11.2482C83.9522 11.343 84.0926 11.3923 84.236 11.3862C84.3625 11.3889 84.4872 11.3558 84.5961 11.2906C84.6988 11.2266 84.7852 11.139 84.8483 11.0349C84.9253 10.9012 84.9811 10.7561 85.0137 10.6049C85.0584 10.4244 85.081 10.2391 85.0807 10.0531C85.0807 10.0336 85.0807 10.0019 85.0782 9.96308C84.9876 10.1087 84.8624 10.229 84.7141 10.3129C84.5619 10.402 84.3891 10.4484 84.2133 10.4474C84.0705 10.4498 83.9288 10.4216 83.7974 10.3646C83.6661 10.3075 83.5482 10.223 83.4513 10.1165C83.2374 9.87875 83.1253 9.56459 83.1397 9.24307C83.1323 9.07871 83.1572 8.91451 83.213 8.76C83.2687 8.6055 83.3542 8.46377 83.4645 8.34305C83.5693 8.23156 83.6961 8.14358 83.8365 8.08474C83.977 8.02591 84.128 7.99754 84.2799 8.00146C84.5093 8.00007 84.734 8.06731 84.9259 8.19475C85.1259 8.3284 85.2812 8.52045 85.3712 8.7455C85.4877 9.07686 85.5391 9.42812 85.5225 9.7795C85.5357 10.1605 85.4845 10.541 85.3712 10.9045C85.2888 11.1577 85.1322 11.3794 84.9224 11.5402C84.7186 11.6873 84.4735 11.7639 84.2234 11.7585C83.9704 11.7695 83.7224 11.6839 83.5285 11.5187C83.3414 11.3429 83.2265 11.102 83.2068 10.8442ZM85.0293 9.22159C85.0417 8.99736 84.9696 8.77673 84.8276 8.60436C84.7669 8.53249 84.6916 8.47486 84.6068 8.43548C84.5219 8.3961 84.4297 8.3759 84.3364 8.37629C84.2377 8.37648 84.1403 8.3986 84.051 8.4411C83.9617 8.4836 83.8827 8.54544 83.8195 8.62226C83.6681 8.79791 83.5892 9.02588 83.5991 9.25892C83.5947 9.36339 83.611 9.46769 83.6469 9.5657C83.6829 9.6637 83.7378 9.75343 83.8084 9.82961C83.8743 9.90087 83.9542 9.95726 84.043 9.99514C84.1318 10.033 84.2275 10.0515 84.3238 10.0495C84.4192 10.0523 84.5141 10.0341 84.602 9.99616C84.6898 9.95819 84.7685 9.90138 84.8326 9.82961C84.9722 9.66034 85.0425 9.44334 85.0293 9.22312V9.22159Z" fill="#03033F"/>
<path d="M86.7167 10.7332L87.1847 10.6928C87.2027 10.8896 87.2879 11.0737 87.4257 11.2134C87.5501 11.3289 87.7135 11.3913 87.8821 11.3878C87.9848 11.3891 88.0866 11.3678 88.1803 11.3254C88.2741 11.2829 88.3577 11.2203 88.4252 11.1418C88.5796 10.9617 88.6595 10.7282 88.6481 10.4898C88.6542 10.3789 88.6384 10.2679 88.6017 10.1632C88.565 10.0586 88.5081 9.96237 88.4343 9.88027C88.3614 9.80566 88.274 9.7473 88.1776 9.70891C88.0812 9.67051 87.978 9.65294 87.8745 9.65731C87.7386 9.6548 87.6045 9.68886 87.4857 9.756C87.3752 9.81664 87.2815 9.90458 87.2134 10.0117L86.7959 9.95697L87.1489 8.06898H88.9522V8.50007H87.5059L87.3097 9.48753C87.5089 9.34014 87.7485 9.25951 87.9951 9.2569C88.1441 9.25378 88.2922 9.28181 88.43 9.33927C88.5679 9.39672 88.6926 9.48235 88.7964 9.59083C88.9052 9.70393 88.9902 9.83826 89.0463 9.98567C89.1024 10.1331 89.1284 10.2905 89.1227 10.4484C89.1294 10.761 89.0279 11.0661 88.8357 11.3106C88.7235 11.4563 88.5787 11.5729 88.4132 11.6506C88.2477 11.7284 88.0664 11.765 87.8841 11.7575C87.5898 11.7701 87.3017 11.6697 87.0773 11.4763C86.8658 11.286 86.7363 11.0192 86.7167 10.7332Z" fill="#03033F"/>
<path d="M92.6024 8.91989L92.1601 8.95517C92.137 8.81415 92.0795 8.68125 91.9927 8.56858C91.9362 8.50607 91.8672 8.4565 91.7904 8.42317C91.7135 8.38983 91.6305 8.37351 91.5469 8.37528C91.4126 8.37283 91.2813 8.41524 91.1732 8.49596C91.0232 8.61272 90.9085 8.76989 90.8424 8.94955C90.7491 9.22275 90.7062 9.51102 90.7158 9.79996C90.8128 9.6442 90.9484 9.51704 91.1092 9.43126C91.2597 9.35211 91.4268 9.31089 91.5963 9.31109C91.7384 9.30935 91.8792 9.33805 92.0096 9.39534C92.1399 9.45262 92.2569 9.53718 92.3528 9.64348C92.4582 9.75868 92.5402 9.89389 92.5939 10.0413C92.6477 10.1888 92.6721 10.3455 92.6659 10.5026C92.6676 10.7258 92.6171 10.9462 92.5187 11.1459C92.4296 11.3334 92.2897 11.4913 92.1152 11.601C91.9389 11.7074 91.7369 11.7621 91.5318 11.759C91.3594 11.764 91.1881 11.7292 91.0309 11.6574C90.8737 11.5856 90.7346 11.4785 90.624 11.3443C90.3536 10.9434 90.2288 10.4597 90.271 9.97587C90.2259 9.42965 90.3628 8.88386 90.6598 8.4259C90.7688 8.28837 90.9081 8.17859 91.0664 8.10534C91.2247 8.03209 91.3977 7.9974 91.5716 8.00402C91.8273 7.99373 92.0775 8.08073 92.2731 8.24795C92.4621 8.42212 92.5796 8.66195 92.6024 8.91989ZM90.7869 10.5051C90.7867 10.6593 90.8201 10.8116 90.8847 10.9511C90.9424 11.0842 91.0374 11.1972 91.1581 11.2758C91.2676 11.3482 91.3954 11.3871 91.5262 11.3878C91.6189 11.388 91.7105 11.3675 91.7944 11.3275C91.8783 11.2875 91.9524 11.2292 92.0114 11.1566C92.1538 10.9807 92.2258 10.7569 92.2131 10.5297C92.2247 10.3107 92.1524 10.0956 92.0114 9.92934C91.9479 9.858 91.87 9.80144 91.7829 9.76357C91.6959 9.7257 91.6017 9.70741 91.5071 9.70996C91.4114 9.70826 91.3164 9.7269 91.2282 9.76468C91.14 9.80247 91.0607 9.85856 90.9952 9.92934C90.924 10.0063 90.8687 10.0968 90.8325 10.1957C90.7963 10.2946 90.78 10.3998 90.7844 10.5051H90.7869Z" fill="#03033F"/>
<path d="M70.7798 18.277L60.3736 18.3051L55.1465 9.18067L60.3256 0.0271035L70.7334 0L75.9604 9.12442L70.7798 18.277Z" fill="#03033F"/>
<path d="M72.618 8.95771C72.5804 8.69712 72.4426 8.46222 72.2347 8.30439C72.0267 8.14656 71.7657 8.07864 71.5085 8.11548C71.2059 8.16099 70.9134 8.24332 70.6159 8.30673C70.4873 8.33384 70.4797 8.32974 70.454 8.20139C70.3244 7.51218 70.0536 6.85821 69.6592 6.2817C69.6128 6.21573 69.6265 6.19067 69.688 6.15079C69.9341 5.99124 70.1837 5.83783 70.4258 5.67163C70.5988 5.55377 70.7327 5.38561 70.8098 5.18922C70.887 4.99283 70.9037 4.77739 70.8579 4.57116C70.8191 4.36484 70.7172 4.17617 70.5667 4.03188C70.4161 3.88759 70.2246 3.79501 70.0193 3.76728C69.8224 3.72696 69.618 3.7482 69.4332 3.82819C69.2485 3.90817 69.092 4.04314 68.9845 4.21524C68.8251 4.44792 68.6819 4.69133 68.5306 4.93116C68.4761 5.02065 68.4348 5.02321 68.3526 4.96593C67.7905 4.57706 67.1553 4.31001 66.4867 4.18149C66.3611 4.15695 66.3546 4.14723 66.3858 4.01683C66.4403 3.77205 66.4937 3.52727 66.5462 3.2825C66.5732 3.17886 66.5869 3.07213 66.587 2.96494C66.5833 2.72475 66.4953 2.49378 66.3388 2.3134C66.1824 2.13302 65.9677 2.01502 65.7333 1.98055H65.3676C65.2846 1.99235 65.2024 2.00943 65.1215 2.03168C64.9088 2.12831 64.7346 2.29502 64.6271 2.50473C64.5196 2.71444 64.4852 2.95483 64.5295 3.18687C64.5799 3.46557 64.65 3.7412 64.7075 4.01887C64.7363 4.15592 64.7347 4.15694 64.5951 4.18456C63.9353 4.31095 63.3086 4.57456 62.7544 4.95878C62.6384 5.03906 62.6364 5.03855 62.5607 4.92042C62.3948 4.66167 62.247 4.39064 62.0645 4.14416C61.9533 4.00345 61.8085 3.89393 61.6438 3.82606C61.479 3.75818 61.2999 3.7342 61.1235 3.7564C60.947 3.77859 60.7791 3.84623 60.6358 3.95287C60.4924 4.05951 60.3784 4.20159 60.3045 4.36559C60.2025 4.59292 60.1839 4.8497 60.252 5.0897C60.3202 5.32971 60.4706 5.53715 60.6761 5.6747C60.9006 5.82811 61.133 5.97232 61.363 6.11959C61.4795 6.19425 61.4825 6.20244 61.4054 6.31954C61.0298 6.88369 60.7714 7.51944 60.6459 8.18809C60.6197 8.32821 60.6086 8.33332 60.4659 8.30008C60.2288 8.24537 59.9908 8.19218 59.7533 8.13951C59.6514 8.11145 59.5462 8.09785 59.4406 8.09911C59.2115 8.1013 58.9903 8.18409 58.8147 8.33332C58.6391 8.48255 58.5201 8.68896 58.4779 8.91731V9.38675C58.4913 9.49621 58.5255 9.60198 58.5788 9.69818C58.6916 9.88832 58.8608 10.0374 59.0623 10.1241C59.2637 10.2108 59.4871 10.2307 59.7003 10.1809C59.9693 10.1236 60.2382 10.0628 60.5072 9.99835C60.5753 9.98199 60.6207 9.98301 60.6368 10.0725C60.7542 10.76 61.0169 11.4137 61.4069 11.9886C61.4805 12.0975 61.477 12.1072 61.3685 12.1819C61.1335 12.3435 60.889 12.4887 60.6524 12.6498C60.5092 12.7533 60.394 12.8919 60.3177 13.0527C60.2414 13.2134 60.2064 13.3912 60.2161 13.5693C60.2257 13.7474 60.2796 13.9202 60.3727 14.0716C60.4658 14.2229 60.5952 14.348 60.7488 14.435C60.9759 14.5609 61.241 14.5966 61.4927 14.5353C61.7443 14.474 61.9645 14.3199 62.1104 14.1031C62.2617 13.87 62.4084 13.6322 62.5547 13.3954C62.6263 13.2793 62.6399 13.2778 62.7529 13.355C63.3146 13.7426 63.9502 14.0063 64.6188 14.1292C64.708 14.1456 64.7337 14.1737 64.7131 14.2658C64.6485 14.5547 64.5845 14.8436 64.5245 15.1351C64.4996 15.2661 64.5004 15.4008 64.5269 15.5314C64.5534 15.6621 64.605 15.7862 64.6788 15.8966C64.7526 16.007 64.8472 16.1016 64.9571 16.1749C65.067 16.2483 65.19 16.2989 65.3192 16.324H65.7817C65.8528 16.2954 65.9304 16.2974 66.0016 16.2622C66.1875 16.1716 66.3418 16.0258 66.4439 15.8441C66.546 15.6623 66.591 15.4534 66.5729 15.245C66.5274 14.9317 66.4661 14.6209 66.3894 14.3138C66.3591 14.1548 66.3566 14.1548 66.5154 14.1226C67.1746 13.9932 67.8006 13.7279 68.3546 13.3432C68.4383 13.2855 68.4772 13.3033 68.5271 13.3821C68.6758 13.6178 68.817 13.8587 68.9734 14.0888C69.0875 14.2691 69.2537 14.4092 69.4493 14.49C69.6449 14.5708 69.8604 14.5884 70.0662 14.5404C70.2606 14.5001 70.439 14.4027 70.5792 14.2604C70.7194 14.1181 70.8153 13.9372 70.8549 13.7401C70.8985 13.538 70.8826 13.3275 70.8092 13.1346C70.7358 12.9416 70.6081 12.7748 70.4419 12.6549C70.1998 12.4887 69.9497 12.3353 69.7041 12.1758C69.6275 12.1246 69.6169 12.0863 69.6693 12.0101C70.0649 11.4339 70.3326 10.7775 70.454 10.0863C70.4701 9.99733 70.5075 9.98403 70.5871 10.0009C70.8564 10.0623 71.1283 10.1144 71.394 10.184C71.5299 10.2164 71.671 10.2198 71.8082 10.194C71.9455 10.1682 72.076 10.1139 72.1915 10.0343C72.307 9.95477 72.4049 9.85177 72.4791 9.73185C72.5533 9.61193 72.6021 9.4777 72.6225 9.33766V8.96743C72.6225 8.96436 72.618 8.96077 72.618 8.95771ZM71.6986 9.65778C71.5087 9.66586 71.3191 9.63633 71.1404 9.57084C70.8675 9.51408 70.5987 9.43482 70.3239 9.39135C70.0672 9.35044 70.0032 9.45834 69.9709 9.72579C69.9219 10.1283 69.8189 10.5221 69.6648 10.8963C69.5091 11.2656 69.3093 11.6141 69.0697 11.9339C69.0279 11.9912 68.9598 12.0305 68.9477 12.1093C68.935 12.1677 68.9407 12.2286 68.9638 12.2836C68.987 12.3386 69.0264 12.3849 69.0768 12.4161C69.4093 12.6343 69.7433 12.8498 70.0788 13.0625C70.1837 13.1165 70.2664 13.2062 70.3125 13.3159C70.3586 13.4256 70.3652 13.5482 70.331 13.6623C70.2985 13.7703 70.2318 13.8645 70.1413 13.9303C70.0508 13.9961 69.9415 14.0299 69.8302 14.0264C69.751 14.0258 69.6733 14.0049 69.6043 13.9657C69.5352 13.9264 69.4771 13.8701 69.4353 13.8019C69.2175 13.4614 68.9961 13.1233 68.7797 12.7792C68.7619 12.7346 68.7331 12.6954 68.6961 12.6653C68.659 12.6353 68.615 12.6153 68.5682 12.6074C68.5214 12.5995 68.4734 12.6039 68.4288 12.6202C68.3841 12.6365 68.3444 12.6641 68.3133 12.7004C67.7816 13.1309 67.1591 13.4311 66.4942 13.5774C66.3246 13.617 66.1523 13.6441 65.9788 13.6588C65.9455 13.662 65.9131 13.6724 65.884 13.6893C65.8549 13.7061 65.8296 13.7291 65.8099 13.7566C65.7901 13.7841 65.7764 13.8155 65.7695 13.8488C65.7627 13.8821 65.7629 13.9165 65.7701 13.9497C65.8568 14.3701 65.9541 14.7874 66.0469 15.2067C66.0668 15.3081 66.0551 15.4134 66.0134 15.5078C65.9718 15.6022 65.9023 15.6812 65.8145 15.7339C65.7219 15.7985 65.6099 15.8282 65.498 15.8178C65.3861 15.8075 65.2812 15.7577 65.2017 15.6771C65.1219 15.595 65.0682 15.4905 65.0474 15.3772C65.0267 15.2638 65.0398 15.1467 65.0852 15.041C65.1639 14.7004 65.2456 14.3604 65.3162 14.0182C65.3666 13.7861 65.2688 13.6818 65.0419 13.6536C64.6015 13.602 64.1713 13.4838 63.7655 13.3028C63.3937 13.1401 63.0473 12.9232 62.7372 12.659C62.7085 12.6328 62.6743 12.6135 62.6371 12.6028C62.5999 12.5921 62.5608 12.5902 62.5228 12.5973C62.4848 12.6044 62.4489 12.6202 62.4178 12.6436C62.3868 12.667 62.3615 12.6973 62.3439 12.7321C62.1119 13.0901 61.89 13.4588 61.6459 13.8086C61.6027 13.8762 61.5436 13.9319 61.4739 13.9707C61.4042 14.0095 61.3261 14.0301 61.2466 14.0307C61.1671 14.0313 61.0888 14.0119 61.0185 13.9742C60.9482 13.9365 60.8883 13.8817 60.8441 13.8147C60.8007 13.7574 60.77 13.6914 60.754 13.621C60.7381 13.5506 60.7373 13.4776 60.7516 13.4069C60.766 13.3361 60.7952 13.2694 60.8372 13.2111C60.8793 13.1528 60.9332 13.1044 60.9954 13.0691C61.3378 12.8441 61.6812 12.6222 62.0236 12.3977C62.0548 12.3812 62.0819 12.3578 62.1031 12.3293C62.1242 12.3008 62.1389 12.2679 62.146 12.233C62.1531 12.198 62.1524 12.1619 62.1441 12.1273C62.1358 12.0926 62.1199 12.0603 62.0978 12.0326C61.8866 11.7559 61.7009 11.4601 61.543 11.1489C61.3332 10.7174 61.1938 10.2542 61.13 9.77744C61.1219 9.71352 61.1164 9.6496 61.1063 9.58619C61.0796 9.41743 60.9227 9.34635 60.722 9.3934C60.3136 9.48954 59.9076 9.60153 59.491 9.65931C59.394 9.66827 59.2967 9.64622 59.2127 9.59624C59.1286 9.54625 59.0622 9.47085 59.0225 9.38061C58.977 9.29601 58.9574 9.19951 58.9664 9.10354C58.9754 9.00757 59.0125 8.91653 59.073 8.84214C59.1374 8.75978 59.2247 8.699 59.3237 8.66771C59.4226 8.63643 59.5286 8.63608 59.6277 8.66674C59.9893 8.75776 60.3544 8.83498 60.718 8.91475C60.7885 8.94049 60.8658 8.93938 60.9356 8.91163C61.0053 8.88388 61.0628 8.83138 61.0972 8.7639C61.1143 8.6854 61.1241 8.60544 61.1265 8.52509C61.2333 7.7533 61.5369 7.02318 62.0075 6.40698C62.0579 6.35082 62.0999 6.28741 62.1321 6.2188C62.1526 6.16779 62.1554 6.11124 62.1401 6.05839C62.1248 6.00554 62.0923 5.95951 62.0478 5.92783C61.6898 5.69004 61.3358 5.44611 60.9717 5.21958C60.8927 5.16342 60.83 5.08673 60.7904 4.99756C60.7507 4.90838 60.7355 4.81002 60.7462 4.71281C60.7627 4.60766 60.8122 4.51071 60.8873 4.43635C60.9624 4.362 61.0592 4.31423 61.1633 4.30013C61.4523 4.25411 61.5879 4.38195 61.7382 4.61871C61.9369 4.93321 62.127 5.25231 62.3257 5.56629C62.3463 5.60461 62.3756 5.63741 62.4112 5.66198C62.4468 5.68654 62.4876 5.70217 62.5304 5.70756C62.5731 5.71296 62.6164 5.70797 62.6569 5.69301C62.6973 5.67805 62.7337 5.65354 62.7629 5.62152C63.1301 5.32249 63.5417 5.0843 63.9823 4.91582C64.3411 4.78834 64.7116 4.69755 65.0883 4.64479C65.1287 4.64368 65.1683 4.6327 65.2037 4.6128C65.2391 4.5929 65.2692 4.56466 65.2916 4.53045C65.3139 4.49625 65.3278 4.4571 65.3321 4.4163C65.3364 4.3755 65.3309 4.33425 65.3162 4.29604C65.2305 3.91251 65.1407 3.52898 65.0525 3.14698C65.0264 3.04253 65.0316 2.93256 65.0676 2.83116C65.1035 2.72976 65.1685 2.64154 65.2542 2.57783C65.3467 2.51439 65.457 2.4831 65.5686 2.48863C65.6802 2.49416 65.787 2.53622 65.873 2.60851C65.9449 2.66444 65.9991 2.74045 66.029 2.8272C66.0589 2.91396 66.0632 3.00768 66.0414 3.09687C65.9612 3.48142 65.8608 3.86393 65.7827 4.24746C65.7428 4.44382 65.7595 4.5328 65.8916 4.62178C65.9553 4.65269 66.0253 4.66776 66.0959 4.66576C66.8907 4.7631 67.644 5.0799 68.2734 5.58163C68.4812 5.74629 68.5256 5.73504 68.6864 5.65169C68.7661 5.60924 68.7964 5.51566 68.8433 5.44304C69.0405 5.13622 69.2296 4.82684 69.4222 4.51797C69.466 4.43879 69.5317 4.3743 69.6112 4.33242C69.6906 4.29054 69.7804 4.2731 69.8695 4.28223C69.9802 4.28982 70.0853 4.33392 70.1689 4.40779C70.2525 4.48166 70.3099 4.58124 70.3325 4.69133C70.3527 4.8045 70.3365 4.92125 70.2863 5.02437C70.2361 5.1275 70.1545 5.21153 70.0536 5.26407C69.7147 5.46861 69.3844 5.69209 69.05 5.90737C68.9949 5.95543 68.9596 6.02274 68.9511 6.09595C68.9426 6.16916 68.9615 6.24293 69.0041 6.30266C69.4685 6.87657 69.7839 7.5592 69.9215 8.28832C69.9467 8.42128 69.9547 8.55679 69.9885 8.68872C70.039 8.88867 70.0607 8.91322 70.3168 8.91322C70.4878 8.89685 70.7092 8.8227 70.9371 8.77975C71.1641 8.71472 71.396 8.66921 71.6305 8.64372C71.695 8.64285 71.759 8.65489 71.8188 8.67917C71.8787 8.70345 71.9332 8.73948 71.9792 8.7852C72.0253 8.83091 72.062 8.88541 72.0872 8.94555C72.1125 9.0057 72.1257 9.07031 72.1263 9.13566C72.1335 9.26145 72.0934 9.38533 72.014 9.48225C71.9346 9.57918 71.8219 9.64192 71.6986 9.65778Z" fill="white"/>
<path d="M65.5564 9.8807C65.4589 9.88303 65.362 9.86505 65.2717 9.82785C65.1814 9.79066 65.0995 9.73506 65.0313 9.66449C64.963 9.59392 64.9097 9.50989 64.8748 9.4176C64.8399 9.32531 64.824 9.22673 64.8282 9.12796C64.8341 8.93948 64.912 8.76072 65.0456 8.62949C65.1791 8.49826 65.3578 8.42487 65.5438 8.42483C65.6396 8.42407 65.7347 8.44274 65.8233 8.47974C65.912 8.51675 65.9925 8.57135 66.06 8.64033C66.1276 8.70931 66.1808 8.79128 66.2167 8.88143C66.2526 8.97158 66.2704 9.06809 66.2689 9.16529C66.2673 9.35577 66.1915 9.53788 66.0581 9.6719C65.9246 9.80592 65.7442 9.88098 65.5564 9.8807Z" fill="white"/>
<path d="M68.0021 5.92275C67.9371 5.87161 67.866 5.82917 67.7979 5.78161C67.2936 5.43528 66.719 5.2081 66.1166 5.11682C66.0619 5.09984 66.0034 5.10057 65.9492 5.1189C65.8949 5.13723 65.8477 5.17226 65.814 5.2191C65.7732 5.29196 65.7543 5.37531 65.7595 5.45893C65.7595 5.83734 65.7595 6.21576 65.7595 6.59418C65.7595 6.97259 65.7595 7.36124 65.7595 7.7417C65.7547 7.81219 65.7735 7.88227 65.813 7.9405C65.8525 7.99874 65.9102 8.04168 65.9769 8.06233C66.1075 8.11346 66.2351 8.15079 66.3531 8.03011C66.9119 7.46214 67.4711 6.89486 68.0309 6.32826C68.0562 6.30017 68.0756 6.26715 68.0879 6.23122C68.1002 6.19528 68.1051 6.15718 68.1024 6.11924C68.0997 6.0813 68.0895 6.04432 68.0722 6.01053C68.055 5.97675 68.0311 5.94688 68.0021 5.92275ZM66.2795 7.35766V5.67013C66.6983 5.76083 67.0973 5.9286 67.4565 6.16514L66.2795 7.35766Z" fill="white"/>
<path d="M68.0073 11.9503C67.4717 11.4048 66.9353 10.8612 66.398 10.3195C66.3305 10.2475 66.2382 10.2048 66.1403 10.2003C66.0425 10.1958 65.9467 10.2299 65.8731 10.2955C65.8315 10.3327 65.7995 10.3797 65.78 10.4324C65.7605 10.4851 65.754 10.5419 65.7611 10.5977C65.7581 10.9761 65.7611 11.3545 65.7611 11.7329C65.7611 12.1113 65.7566 12.5 65.7611 12.8804C65.7636 13.0548 65.8302 13.2169 66.0677 13.1903C66.2594 13.1686 66.449 13.1309 66.6346 13.0778C67.112 12.9359 67.562 12.7125 67.9654 12.4171C68.0033 12.393 68.0352 12.3604 68.0587 12.3217C68.0821 12.2831 68.0964 12.2394 68.1004 12.1942C68.1045 12.149 68.0982 12.1035 68.082 12.0612C68.0659 12.0189 68.0403 11.9809 68.0073 11.9503ZM66.276 12.6427V10.948L67.4571 12.1487C67.0952 12.3827 66.6954 12.55 66.276 12.6427Z" fill="white"/>
<path d="M65.3213 11.7171C65.3213 11.308 65.3213 10.903 65.3213 10.4954C65.3256 10.4512 65.3155 10.4068 65.2927 10.3689C65.2699 10.3309 65.2355 10.3016 65.1947 10.2853C65.1401 10.2556 65.0829 10.2311 65.0238 10.2121C64.9745 10.195 64.9214 10.1926 64.8708 10.2052C64.8202 10.2178 64.7742 10.2449 64.7383 10.2832C64.6082 10.4243 64.47 10.5583 64.3349 10.6923C63.9193 11.1137 63.5036 11.5354 63.0878 11.9574C63.0575 11.9804 63.0325 12.0098 63.0145 12.0435C62.9964 12.0772 62.9858 12.1144 62.9833 12.1527C62.9807 12.191 62.9864 12.2293 62.9998 12.2652C63.0132 12.301 63.0341 12.3335 63.061 12.3604C63.2214 12.4883 63.391 12.6039 63.5684 12.7061C63.9927 12.9469 64.4563 13.1085 64.937 13.1832C65.1796 13.2205 65.3299 13.1781 65.3223 12.8621C65.3142 12.4821 65.3213 12.0996 65.3213 11.7171ZM64.756 12.633C64.3506 12.5344 63.9653 12.365 63.6173 12.1323C64.0379 11.7595 64.4176 11.3448 64.8342 10.9321C64.8342 11.4977 64.8342 12.0398 64.8342 12.5818C64.8352 12.6503 64.8155 12.6478 64.756 12.633Z" fill="white"/>
<path d="M64.4801 9.6097C64.4297 9.49055 64.3828 9.37958 64.2143 9.38419C63.817 9.3939 63.4201 9.38726 63.0222 9.38726C62.6243 9.38726 62.2113 9.38726 61.8058 9.38726C61.7751 9.38615 61.7446 9.39136 61.716 9.4026C61.6873 9.41383 61.6613 9.43084 61.6394 9.4526C61.6174 9.47436 61.6001 9.50042 61.5884 9.52918C61.5767 9.55794 61.5709 9.58882 61.5713 9.61993C61.5717 9.80503 61.5998 9.98899 61.6545 10.1656C61.7847 10.6732 62.007 11.1519 62.3101 11.577C62.4458 11.7713 62.6263 11.8091 62.768 11.6664C63.3318 11.0981 63.8939 10.5283 64.4544 9.95693C64.495 9.9096 64.5195 9.85022 64.5241 9.78764C64.5288 9.72507 64.5133 9.66265 64.4801 9.6097ZM62.651 11.0492C62.6006 11.1039 62.5744 11.0697 62.5542 11.0339C62.356 10.6924 62.207 10.3239 62.1119 9.93954C62.0938 9.86846 62.1432 9.88124 62.182 9.88124H63.8028C63.4049 10.2827 63.0272 10.6636 62.651 11.0492Z" fill="white"/>
<path d="M69.3684 7.89612C69.23 7.46925 69.0241 7.06805 68.7587 6.7082C68.7384 6.66863 68.7089 6.63472 68.6726 6.60945C68.6364 6.58417 68.5946 6.56831 68.551 6.56326C68.5073 6.55821 68.463 6.56412 68.4221 6.58048C68.3812 6.59683 68.3449 6.62314 68.3164 6.65706C67.7684 7.21241 67.2204 7.76759 66.6724 8.3226C66.6299 8.36067 66.5992 8.41035 66.5839 8.46568C66.5686 8.52101 66.5694 8.57964 66.5862 8.63454C66.6431 8.85136 66.7203 8.91579 66.9392 8.91579H68.0829C68.4803 8.91579 68.8782 8.90352 69.2751 8.92193C69.3135 8.92382 69.3518 8.91678 69.3871 8.90135C69.4224 8.88591 69.4538 8.8625 69.4788 8.83289C69.5038 8.80328 69.5218 8.76827 69.5314 8.73052C69.541 8.69278 69.542 8.6533 69.5343 8.61511C69.4963 8.37167 69.4409 8.13136 69.3684 7.89612ZM67.3098 8.41976C67.5504 8.17635 67.7793 7.94726 68.0052 7.71407C68.1525 7.56066 68.2937 7.40725 68.4379 7.25383C68.4642 7.2252 68.4793 7.19196 68.5211 7.25741C68.7429 7.61461 68.9014 8.00831 68.9896 8.42078L67.3098 8.41976Z" fill="white"/>
<path d="M69.2523 9.36069L68.0597 9.38677C67.6829 9.39495 67.3032 9.41336 66.9285 9.40825C66.8883 9.40339 66.8476 9.40662 66.8086 9.41775C66.7696 9.42887 66.7332 9.44768 66.7014 9.47309C66.6696 9.49849 66.643 9.53001 66.6233 9.56582C66.6035 9.60164 66.5908 9.64106 66.5861 9.68183C66.5652 9.74671 66.5644 9.81652 66.5838 9.88188C66.6032 9.94723 66.6418 10.005 66.6945 10.0475C67.2437 10.5721 67.7904 11.0994 68.329 11.6327C68.3577 11.6703 68.3955 11.6999 68.4387 11.7185C68.4819 11.7371 68.5291 11.7442 68.5758 11.739C68.6225 11.7339 68.6671 11.7168 68.7053 11.6892C68.7436 11.6616 68.7743 11.6246 68.7944 11.5816C69.001 11.2773 69.1694 10.9482 69.2957 10.6018C69.4136 10.285 69.4858 9.95256 69.51 9.61484C69.5206 9.44251 69.4228 9.35711 69.2523 9.36069ZM68.5524 11.0129C68.511 11.0876 68.4863 11.0855 68.4273 11.0283C68.0491 10.656 67.6663 10.2878 67.2674 9.90326L68.9684 9.86541C68.8981 10.27 68.7572 10.6586 68.5524 11.0129Z" fill="white"/>
<path d="M65.3213 6.5803V5.37091C65.3256 5.33666 65.3222 5.30186 65.3112 5.26918C65.3002 5.23649 65.282 5.20678 65.258 5.18234C65.2339 5.1579 65.2047 5.13938 65.1725 5.12819C65.1402 5.117 65.1059 5.11343 65.0721 5.11778C64.9927 5.11832 64.9135 5.12654 64.8356 5.14233C64.2223 5.26183 63.6425 5.51711 63.1376 5.88995C62.9586 6.02189 62.9309 6.17786 63.0464 6.29905C63.6137 6.88713 64.1891 7.46703 64.7655 8.0459C64.8951 8.17579 65.0404 8.09703 65.175 8.04232C65.2235 8.02277 65.2642 7.98757 65.2909 7.94218C65.3176 7.89679 65.3288 7.84374 65.3228 7.79124C65.3187 7.38572 65.3213 6.98378 65.3213 6.5803ZM64.8321 7.3985C64.4377 6.99758 64.061 6.61303 63.6813 6.23104C63.6309 6.1799 63.6399 6.16661 63.6964 6.12876C64.0446 5.9064 64.4292 5.74897 64.8321 5.66392V7.3985Z" fill="white"/>
<path d="M64.42 8.33537C63.8697 7.78274 63.3215 7.22791 62.7755 6.67085C62.748 6.63615 62.7126 6.60878 62.6722 6.59112C62.6319 6.57346 62.588 6.56605 62.5442 6.56953C62.5004 6.57301 62.4581 6.58727 62.421 6.61107C62.3839 6.63488 62.3531 6.66751 62.3312 6.70614C62.132 6.98135 61.9659 7.27972 61.8365 7.5949C61.6852 7.94146 61.5957 8.3125 61.5723 8.69077C61.5687 8.84981 61.6393 8.91833 61.7967 8.91833C62.1981 8.91833 62.5994 8.91833 63.0004 8.91833C63.3938 8.91833 63.7877 8.90708 64.1805 8.92345C64.3888 8.93214 64.4453 8.80225 64.4997 8.6514C64.5214 8.59699 64.5254 8.53697 64.5111 8.48012C64.4967 8.42326 64.4648 8.37254 64.42 8.33537ZM62.1184 8.41923C62.1984 7.99404 62.3609 7.58921 62.5965 7.22825L63.771 8.41923H62.1184Z" fill="white"/>
<path d="M65.7586 9.15513C65.7592 9.21559 65.7363 9.27386 65.6947 9.31718C65.6531 9.3605 65.5963 9.38535 65.5366 9.38629C65.4831 9.37308 65.4344 9.34457 65.3963 9.30415C65.3582 9.26372 65.3323 9.21307 65.3218 9.1582C65.325 9.10038 65.3497 9.04595 65.391 9.00597C65.4323 8.96598 65.4871 8.94342 65.5442 8.94286C65.5729 8.93854 65.6022 8.94102 65.6298 8.95008C65.6574 8.95914 65.6825 8.97455 65.7033 8.9951C65.724 9.01565 65.7398 9.04079 65.7494 9.06855C65.759 9.09631 65.7621 9.12594 65.7586 9.15513Z" fill="white"/>
<path d="M8.63493 33.673H13.1116V36.2499C12.5763 36.6699 11.9811 37.0051 11.3465 37.244C10.5126 37.5948 9.61464 37.7622 8.71212 37.7352C7.8096 37.7081 6.92301 37.4872 6.11092 37.087C5.26475 36.6634 4.57922 35.9697 4.15978 35.1126C3.67608 34.0618 3.44369 32.9102 3.48149 31.7513C3.47237 30.714 3.66463 29.685 4.04732 28.723C4.27116 28.1837 4.58374 27.6869 4.97171 27.2538C5.40465 26.7846 5.93525 26.4192 6.52494 26.184C7.2615 25.8949 8.04706 25.7559 8.83666 25.7749C9.52802 25.7664 10.214 25.8989 10.8539 26.1646C11.3906 26.3762 11.8637 26.7261 12.2265 27.1796C12.6026 27.7218 12.8797 28.328 13.0445 28.9694L13.1005 29.1622L15.3018 28.5486L15.2513 28.3532C15.0377 27.4106 14.6321 26.5237 14.0607 25.7493C13.4837 25.0404 12.7334 24.4975 11.8846 24.1748C10.9086 23.7931 9.86958 23.6041 8.82354 23.6179C7.39348 23.591 5.97922 23.9248 4.70795 24.5895C3.49334 25.2596 2.52485 26.3099 1.94691 27.5836C1.31313 28.9239 0.988399 30.3928 0.997316 31.8792C0.978891 33.341 1.30752 34.7859 1.95548 36.0918C2.58224 37.34 3.58077 38.3563 4.80933 38.9964C6.09863 39.669 7.53059 40.0115 8.98038 39.9941C10.1123 39.9931 11.2346 39.7834 12.2926 39.3754C13.4201 38.9306 14.4724 38.3106 15.4117 37.5375L15.4879 37.4756V31.4414L8.63342 31.4532L8.63493 33.673Z" fill="#03033F"/>
<path d="M22.89 23.8815L16.8888 39.7341H19.4643L21.136 35.0576H27.2239L29 39.7341H31.7354L25.3373 23.8815H22.89ZM26.4448 32.984H21.8657L23.4361 28.7299C23.6981 28.0049 23.9188 27.2652 24.0973 26.5146C24.3186 27.2157 24.6066 28.0416 24.9546 28.9799L26.4448 32.984Z" fill="#03033F"/>
<path d="M41.5586 34.761C41.3064 35.5137 41.1012 36.1294 40.9418 36.6239C40.8013 36.1763 40.6219 35.6189 40.4037 34.9517L36.7561 23.8815H33.3773V39.7341H35.7238V27.6248L39.7809 39.7341H41.8879L45.9661 27.8191V39.7341H48.3137V23.8815H45.2561L41.5586 34.761Z" fill="#03033F"/>
<path d="M55.4248 39.9933H57.3512L61.8682 23.6156H59.9519L55.4248 39.9933Z" fill="#03033F"/>
<path d="M79.8844 34.0681C79.7058 35.1564 79.1698 36.1517 78.3634 36.8924C77.5913 37.5284 76.6199 37.8626 75.6256 37.8343C74.7508 37.8373 73.8921 37.5962 73.1434 37.1373C72.3673 36.6503 71.7766 35.9114 71.4671 35.0407C71.0783 33.9638 70.8902 32.823 70.9124 31.6764C70.9117 30.6907 71.0696 29.7115 71.3799 28.7774C71.6621 27.8942 72.2171 27.1264 72.9629 26.5877C73.7935 26.0217 74.7793 25.7363 75.7794 25.7721C76.641 25.7391 77.4893 25.995 78.193 26.5003C78.9096 27.112 79.4217 27.9337 79.659 28.8526L79.7155 29.0331L82.0892 28.466L82.0297 28.2589C81.6767 26.8962 80.8873 25.6911 79.7856 24.8327C78.6317 23.9968 77.2391 23.5683 75.8218 23.6131C74.4988 23.6008 73.1946 23.9302 72.032 24.5704C70.881 25.2109 69.95 26.192 69.3632 27.3829C68.7188 28.7224 68.4 30.1987 68.4333 31.6887C68.424 33.1369 68.7034 34.572 69.2548 35.908C69.7398 37.1452 70.584 38.2039 71.6754 38.944C72.9177 39.6901 74.3469 40.0546 75.7895 39.9934C77.2867 40.0359 78.7526 39.5535 79.9399 38.6275C81.1347 37.6125 81.9617 36.2226 82.2904 34.6776L82.3408 34.4787L79.9273 33.86L79.8844 34.0681Z" fill="#03033F"/>
<path d="M95.7587 24.6557C94.576 23.9509 93.2257 23.5875 91.8539 23.6049C90.8487 23.5717 89.8479 23.7541 88.9169 24.1401C87.9859 24.5261 87.1458 25.1069 86.4514 25.8447C85.0635 27.3277 84.3595 29.3997 84.3595 32.0047C84.3564 33.3715 84.6619 34.7208 85.2526 35.9494C85.8316 37.1749 86.7493 38.2034 87.8942 38.9097C89.0844 39.6386 90.4525 40.014 91.8428 39.9933C93.1693 39.9995 94.4755 39.6628 95.6382 39.0151C96.8182 38.3554 97.7713 37.3459 98.37 36.1217C99.0221 34.7877 99.3507 33.315 99.3281 31.8262C99.3515 30.3624 99.0408 28.913 98.4204 27.591C97.8368 26.3687 96.911 25.3478 95.7587 24.6557ZM96.8455 31.815C96.8455 33.7398 96.3689 35.2412 95.4289 36.2787C94.9752 36.7849 94.4192 37.1859 93.7987 37.4544C93.1783 37.7229 92.5081 37.8524 91.8337 37.8343C91.1654 37.8497 90.5015 37.7203 89.8864 37.4546C89.2714 37.1888 88.7194 36.793 88.2673 36.2936C87.3213 35.2667 86.8417 33.8344 86.8417 32.0359C86.8417 29.7812 87.3394 28.1561 88.3218 27.2075C88.7905 26.7445 89.3447 26.3797 89.9526 26.134C90.5605 25.8883 91.2102 25.7665 91.8645 25.7756C92.7863 25.7645 93.6918 26.0222 94.4732 26.5182C95.2525 27.0224 95.8661 27.7505 96.2358 28.6097C96.6614 29.6222 96.8692 30.7151 96.8455 31.8155V31.815Z" fill="#03033F"/>
<path d="M111.583 33.1159C111.358 32.9191 111.115 32.7461 110.856 32.5994C111.897 32.4362 112.862 31.9499 113.619 31.2075C114.351 30.4229 114.748 29.3767 114.723 28.2967C114.731 27.4384 114.501 26.5951 114.061 25.8621C113.652 25.1549 113.021 24.6078 112.268 24.3091C111.245 23.9796 110.172 23.834 109.099 23.879H102.147V39.7315H104.567V32.873H106.702C107.061 32.8629 107.421 32.8857 107.776 32.941C108.08 33.0205 108.37 33.1502 108.633 33.3251C109.006 33.6004 109.334 33.9332 109.606 34.3115C109.981 34.7958 110.467 35.5066 111.049 36.4225L113.123 39.73H116.137L113.289 35.2115C112.809 34.4432 112.236 33.7392 111.583 33.1159ZM111.869 29.5706C111.611 29.9665 111.23 30.2639 110.786 30.4159C110.109 30.6264 109.402 30.7202 108.695 30.6935H104.567V25.9946H109.185C110.018 25.9219 110.849 26.1539 111.528 26.6486C111.761 26.8516 111.946 27.105 112.07 27.3901C112.194 27.6752 112.254 27.9848 112.244 28.2962C112.245 28.7492 112.115 29.1924 111.869 29.5711V29.5706Z" fill="#03033F"/>
<path d="M129.618 26.353C129.33 25.7264 128.887 25.1861 128.331 24.7847C127.741 24.39 127.072 24.1323 126.372 24.0299C125.593 23.9132 124.807 23.8627 124.02 23.879H118.073V39.7316H120.494V33.4529H124.198C126.4 33.4529 127.953 32.9712 128.813 32.0211C129.669 31.0756 130.13 29.8313 130.102 28.5484C130.109 27.7887 129.943 27.0376 129.618 26.353ZM124.228 31.2203H120.493V26.1112H124.186C124.798 26.0878 125.41 26.1312 126.013 26.2405C126.485 26.3685 126.896 26.6638 127.172 27.073C127.477 27.526 127.633 28.0651 127.618 28.6133C127.641 28.9702 127.586 29.3279 127.455 29.6603C127.325 29.9928 127.124 30.2918 126.866 30.5356C126.361 30.9897 125.473 31.2203 124.228 31.2203Z" fill="#03033F"/>
</svg>
