<svg class="facilities__map-svg is-desktop" xmlns="http://www.w3.org/2000/svg" xmlns:xlink="http://www.w3.org/1999/xlink" width="1458.548" height="1769.955" viewBox="0 0 1458.548 1769.955">
<defs>
<radialGradient id="radial-gradient" cx="0.5" cy="0.5" r="0.5" gradientUnits="objectBoundingBox">
<stop offset="0"/>
<stop offset="1" stop-opacity="0"/>
</radialGradient>
</defs>
<g id="Grupo_18570" data-name="Grupo 18570" transform="translate(-568.648 -1769.072)">
<g id="mapa" transform="translate(-1729.227 -1847.283)" opacity="0.29">
<g id="foto_mapa_peru" transform="translate(2857.227 3616.855)">
<path id="path5260" d="M6935.457-1440.387l.978.862.749-.047.706-.436.741-.317,1.191-.322.729.2.421.373.223.628.072.294.372.581,1.467-1.1.811-.875.864-.345.751.023.606.361.494.369.432.392,1.369.644,1.677.505.984.432.7.541.271.628.042.792-.186.748-.322.682-.393.588-4.144,3.824-.419.565-.248.73.022.827.248.875.742.654.973.282,1.012.455.333.617-.073.878-.631,1.945-2.414,2.679-5.735,1.087-1.615.552-1.184.6-.829.615-1.07,1-.678.875-.655,1.1-.236.875-.045.765.261.627,1.109,1.8.3.655.06.776-.2.754-.67,1.76.382,3.271.4.541.627.534h.706l.765-.126.8.075.924.5.682.878.426.777,1.212,3.588,1.356,2.785.976,1.133.958.608,1.631-.149,1.7.047,2.085,1.1,3.438.729.629.407.626.675.161.8.035.875-.069.84-.2.764-.379.6-.557.42-1.28.552-.9.644-2.354,3.33-1.505,1.185-1.776.651-1.26.643-.6.616-.313.7.152,5.734-.152,1.086-.194.506-.429.455-.459.2-.862.086-1.951-1.6-6.617-1.9-1.1-.012-.6.235-.455.282-11.913,11.553-2.8,3.37-.327-1.212-.141-1.726-.436-1.541-.741-1.428-4.953-5.624-.506-1.357-.672-1.059-4.658-3.083-3.535-3.922-1.31-2.1-1.011-2.255-.421-2.49-.323-.384-.083-.38-1.27-1.615-.323-.224-.428-.667-8.115-7.1-1.218-.8-11.116-5.079-12.546-6.856-11.4-5.353-.426-.232,1.987-1.639,2.406-2.91,6.035-9,.4-.862.832-2.823.458-.961,1.106-1.84,8.571-9.985.86-.644.914-.505,21.98-6.287,2.529-1.691.6-.553.419-1.184.307-2.059-.24-7.373-1.2-6.918.352-1.58.409-.329.321.059,1.832,1.223,3.107,2.882,4.3,3.244.81.816,1.047,1.541.359.922.4.765.4.569,1.026,1.172.55.824.194.753-.12.753-.365.592-.418.569-.626,1.306-.159.627-.075.478.012.435.126.651.337.62.639.479,1.106.259,1.964.2.905.272.879.478,1.042.879.57.749.447.741.9,1.973.571.541.766.435,1.43.158.719.012,1.539-.255,1.491-.408.852-.1.938.074,2.836.89.816.444.579.42,1.3,2.231" transform="translate(-6800.41 1861.091)" fill="#7c7c7c" stroke="#f2f1ed" stroke-linejoin="round" stroke-width="1"/>
<path id="path5262" d="M6899.657-1491.089l1.5,3.122,2.474.267,3.073-.906,3.274-.4,0,0-.775,1.557-9.386,12.393-.262,1.2h0l.619,1.486.961.851,3.177,1.792,1.185.427,1.258-.039.56-.047.679-.615,2.907-1.549,5.457-4.157,1.111-1.2.534-1.114.726-2.475.6-1,.6-.471.73-.36.775-.259,2.89-.377.2-.066.456.764,1.179.365,1.441.263,1.222.439,1.279,1.086,2.29,2.486,1.437,1,1.921,1.048,1.843.219,1.818.024,1.864.471,1.8,1.647,1.485,2.212,1.76,1.812,2.64.415,4.763-1.462,2.444-1.448,2.564-.345,1.961.969,3.581,3.526.55.259,1.013.745.437.239,1.71-.011,1.442.831.4.671h0l-.186,1.036-1.631,2.9-.044,1.518h0l2.07,3.008.814,4.192,1.851,3.475.02.137.213,1.271.518,1.5,1.221.961,1.468.776,1.231.9.37.627.471,1.408.381.593.617.455,1.381.506.628.42.923,1.345.767,1.49.986,1.2,1.627.431,3.363-.121h0l-1.807,1.846-.522.875-.323,1.7-.356,1.087-.662.145-.853.286-.849.639-1.2,2.753-.8,1.06-1.193,1.035-1.862,2.024-.557,1.157-.072.961,1.666,4.095.16.961.046,1.137-.132,1.773.23.977.505.627.68.322.631.482.464.726.594,9.754-.271,1.467-1.023.011-.7-.259-.729-.2-1.272-.086-.663.208-.358.211-1.01,2.33-.177.58-.045.306.012.384.161.765.456,1,.1.4.047.432.027,1.345-.522,3.993-1.058,4.588.086,1.236.2.776.934,2.048.161.726.049,1.714.013.086.233.753.246.553.139.2.1.11.827.729.939.973.688,2.835-.816,1.071-.657.3-.747.494-.811.651-2.53,2.565-1.246.742-1.306-2.231-.577-.42-.815-.443-2.836-.89-.939-.074-.851.1-1.491.408-1.539.255-.718-.012-1.431-.157-.766-.435-.569-.541-.9-1.973-.449-.74-.57-.749-1.042-.878-.88-.478-.9-.271-1.963-.2-1.109-.259-.638-.479-.337-.619-.128-.651-.012-.436.075-.478.159-.627.627-1.306.418-.569.365-.592.119-.753-.193-.753-.551-.824-1.025-1.172-.4-.569-.4-.765-.359-.922-1.047-1.541-.809-.816-4.3-3.243-3.107-2.882-1.831-1.224-.323-.059-.409.33-.351,1.581,1.2,6.918.24,7.373-.308,2.059-.418,1.184-.6.552-2.529,1.691-21.979,6.287-.914.506-.86.644-8.571,9.985-1.1,1.84-.459.961-.832,2.823-.4.862-6.036,9-2.406,2.91-1.987,1.639-6.651-3.737-4.941-1.788-1.053-.581-1.018-2.094-1.347-.9-2.469-1.047-2.964-2.887-1.97-.7-2.33-1.7-.731-.305-1.467-.42-3.438-1.655-2.4-1.541-2.143-2.031-1.979-2.835-1.233-2.887-.574-2.985.082-2.823.714-2.428,1.281-2.467,1.384-.086.546-.212,1.678-3.079.9.008.6.534.96,1.38,3.065,1.961,3.062.576,2.9-.937,2.593-2.561,1.947-5.154-.061-5.969-1.494-6.092-3.635-7.992-1.307-1.984-6.229-6.425-.984-1.478-4.3-2.259-1.606-1.369-1.823-2.07-1.435-2.145-.422-1.652.285-.458.93-.776.192-.506-.067-.4-.3-.642-.068-.334.151-.863.667-1.318.148-.765.057-1.651.376-.667,2.917-.31,2.788-1.553-.094-2.812-1.789-3.06-2.27-2.329-2.763-2.133-1.192-1.393-.5-1.564-.564-1.149-5.819-5.966-.9-1.443-2.286-1.7-.6-1.11.038-.828.25-.789.412-.6.532-.236.436-.346.273-1.678.215-.628.589-1.247.61-3.624.032-1.122-.4-1.263-.674-1.439-.445-1.369.292-1.059.742-.656.5-.349.426-.4.535-.788,1.011-2.412.024-1.616-1.035-3.957.335-1.4.811-1.679.96-1.533.8-.957,6.184-4.2,1.609-1.631,1.319-2.334.994-1.106,1.342-.463,1.286-.3.765-.781.07-.141.063.063,4.614,4.318,1.343.773,3.439.9,5.691-.341,2.037.055,2.373.624,6.786,2.568.9.087.347-.043.518-.271.528-.5,1.417-1.765,8.844-7.738h0l-.08.8-.047.436h0l.362.882,1.166,1.588.387.906.024.663v0l-.279,1.345,0,.658h0" transform="translate(-6838.398 1783.031)" fill="#7c7c7c" stroke="#f2f1ed" stroke-linejoin="round" stroke-width="1"/>
<path id="path5264" d="M6900.106-1503.589l1.17.482.456.509.169.629,0,.69h0l-.133,1.349-.548,1.9,0,.549h0l.455.49.7.22.615.293.19.663.01.781.409,1.353.081.768h0l-.111.706-.462,1.369-.115.627v.7l.069.553.434,1.318.074.694h0l-.241.548-.3.487-.132.545h0l.331,1.419,1.422,2.263.634,1.42.087.636v1.306l.188.612.614.713.64.4.429.416v.008l0,.1-.012.62v.023l-1.124,1.259-5.53,2.526-1,1.243-1.033,1.635-1.192,1.459-1.482.726-1.33-.27-3-1.593-1.459-.466-1.448-.082-1.435.1-1.311.387-1.056.746-.771,1.145-.823,1.7-.614,1.776,0,.043-.007.079h0l-8.844,7.737-1.417,1.766-.528.5-.518.271-.347.044-.9-.087-6.788-2.568-2.372-.624-2.037-.055-5.69.341-3.44-.9-1.344-.772-4.613-4.318-.063-.063,1.048-2.157,3.816-5.726,2.222-2.318,2.679-2.087,2.9-1.62,1.075-1,.425-1.482.193-1.585.478-1.483,1.266-2.474,1.906-2.392,2.547-2.067,11.245-6.671,2.029-1.945,3-4.365.429-1.478.574-.231.707-.11.635-.372,1.1-.424,4.931.161,1.36-.294,1.454-.608,1.157-.925.475-1.259.2-.781.938-1.592.318-.761.023-.695v0l.423.243,1.156.6,2.688.709,1,.773h0l-.149,1.228-.436,1.467,0,.008.162,1.459.426.4" transform="translate(-6822.874 1747.664)" fill="#7c7c7c" stroke="#f2f1ed" stroke-linejoin="round" stroke-width="1"/>
<path id="path5266" d="M7018.756-1316.422l2.527.777.621.431.492.184.514-.282.5-.408.458-.208,1.318.554,1.146,1.035,1.259.557,1.627-.914,1.2-1.247.527-.259.939-.22.285.06.736.4.433.039.31-.09.209-.1,2.108-1.615,1.022-.444,2.383-.27,1.858.063.384.2.139.667.3.741.4.6.343.247,2.922.071,2.676.373,2.255,1.157,4.7,3.737,5.136,2.859.827.161.57.247.566,1.048.751.235,2.91.173,2.714.777.419.27.319.346.493.3.939.122h2.909l.949.384.856.922,1.428,2.161-.519.542.811.961,1.3.988,2.728,1.518,1.071.267,3.547-.267.385.416,2.22,1.69.531.146.615.757,3.822,3.427,1.024,1.576.753,1.753,1.6,2.922.31.761,1.209,2.035.959,2.063.026,12.625-2.108,7.707-.766,1.381-.419.6-.482.494-2.438,1.616-.53.467-.482.518-1.738,2.27-1.662,1.738-.7,1-1.958,3.832-.643.615-2.451.671-.989.529-1.224.294-1.5.212-.767.443-.518.6-.408.788-.575.765-1.185.984-1.174.506-1.638.448-.964.455-.777.568-.69.8-.477.678-.381.714-.214.714-.01.8.208.729,1.035,1.945.273.706.122.812-.11,1.8-.309,1.749-5.93,1.592-1.38.224-1.286-.176-.825-.341-.728-.408-1.012-.235-1.305-.1-2.208.126-1.2-.224-.924-.31-.644-.392-.691-.31-1.488-.518-1.077.173-1.292.737-1.909,1.706-1.766,2.659-4.611-2.141-.863-.568-2.28-1.816-1.742-.921-1.467-1.1-2.047-1.047-.515.725-.669,1.161-.453.542-.741.282-.91.091-1.2-.091-.793.063-.713.26-1,.973-.577.384-.642.259-1.208.125-1.519.318-3,1-1.673.318-1.664.177-.752-.023-.9-.125-1.111-.334-1.637-.651-.742-.2-.691.011-.482.431-.293.706-.234.765-.335.674-.41.6-1.514,1.49-.417.6-.68,1.381-.43.564-.605.4-.713.2-2.183.168-1.95.545-1.257.271-1.021-1.1-2.777-7.655-.073-.494.726-.1,1.64.121.764-.282.532-.777,1.676-6.078-.1-1.69-1.124-2.157-1.729-3.019-.086-1.311.439-4.462.563-4.993-.07-2.859-.4-3.024.052-1.134-.121-1-.345-1.192-2.244-3.663-1.715-2.294-.528-1.075-.581-1.478-.892-3.083-.58-4.8-8-15.217-.346-1.675,3.043-.816.776-.372.4-.341-.023-1.039-1.491-1.887-1.54-2.612-.437-.568-.538-.467-.619-.334-.691-.2-1.171-.208-.646-.419-.533-.765-1.041-2.215-.271-1.173-.31-4.969-.665-2.749-.111-2.554-.75-1.444-.173-.655-.338-2.553.1-.984.348-1.047,1.566-2.036.505-1.33-.939-1.466-.184-.695.111-.651.689-1.235.506-1.541.31-.691.471-.541.664-.259.825.133.828.471.909,1.023.927,1.576,1.405,1.22,12.322,7.832,1.132.9,2.873,2.91,2.022.961,6.765,1.051.708.173,1.4.577.889.141,1.185-.016.939.11,2.438.6.787-.011.68-.392.5-.753.625-2.109.321-.738" transform="translate(-6441.802 2268.91)" fill="#7c7c7c" stroke="#f2f1ed" stroke-linejoin="round" stroke-width="1"/>
<path id="path5268" d="M7135.642-1304.095l-.146,1.31-.318,1.357v.628l.183.662.4.73,4.405,5.573,1.712.984,4.493,1.114,4.728-1.184,1.937-.212,1.778-.38,1.5-.592,1.7-.851.771-.137.92.188.666.38.53.518.368.643.828,2.192.318.678.4.616.443.568.563.4.68.074.718-.3,1.874-2.675.111-.615.036-.729.159-.812.837-1.53.2-.678.037-1.541-.073-.667-.185-.741-.35-.639-.788-1.208-.232-.678.049-.765.224-.714.345-.655.491-.494.645-.22.688.059.617.2.367.173.522.322,1.515,1.576,3.367,4.871,1.392,1.949.91,2.29.374.667.429.58.69.518.876.431,1.454.38,1.026.161.789.247.273.517-.076.667-.3.655-.426.565-.534.471-1.341.663-.569.42-.385.584-.058.776.7,3.793.067.694-.1.506-.221.581-.633,1.306-.16.714.9.878,1.8.886,8.915,2.318.781.294.8.542.69.224.625-.2,1.924-1.455,1.087-.533.752-.22,1.627-.294.827-.028,1.651.2h.892l.811-.149.691-.322.466-.482.223-.627-.148-.651-.292-.631-.226-.674.1-.683.514-.282.851.137,2.271,1.726,1.107.322,1.554-.275.99.286,1.106.69,4.094,3.7.729.432.987.3.836-.063.653-.334,1.988-2.059.58-.42.638-.322.718-.172h.64l.741.172.665.295.618.4.577.592.544.777.529,1.3.146.862-.037.922-.3,1.628-.248,3.082.21.667.491.639,1.089.533,1.919.667,1.158.651,2,1.592,1.11,1.082,1.492,2.22,1.255,1.109.322,2.357-.539,4.762.12,1.18.41.926.512.627.458.914.109.73-.009.494-.2.922-.232,2.392.136,1,.281.788,2.3,2.851.961,1,2.9,2.369.578.749.693,1.247.219,1-.062.89-.282.714-1.85,3.122-.192.667-.078.506-.008.887.255.7.428.577.635.694.64.874,1.094,2.651.757,1.243,2.92,2.161.371,1.851-.273,1.737-.637,2.318-1,15.981-.8,4.217-1.813,2.243-3.144,3.059-.494.69-.517.949-.237.812-.085.667.039.616.616,2.408.162.973-.087,1.427-.4.781-.594.553-2.474,1.059-.423.1-.58-.1-.53-.381-.949-1.047-.541-.42-.725-.149-.742.125-1.519.467-.834.125-2.4.024-.728.16-3.578,1.624-.836.51-1.169,1.184-3.295,5-2.268,2.29-.482.808-.159.859.567,3.353.034.851-.2,2.145-.212.9-.44.616-.652.4-2.357.706-1.616.886-3.6,3.267-.6.855-.734,1.306-.177.874-.038.753.235,1.592.444,1.573,1.341,2.718.966,2.451,4.363,3.291.592.655.494.9-.3.557-.379.589-.347.7-1.644,6.526-.245.678-.294.553-1.921,2.4-.743,1.427-.628,2.31-.787,1.282-1.215,1.11-2.608,1.969-.67-1.541-1.182-.91-1.146-.369-2.75-.483-1.677-.568-.669-.443-1.242-1.11-1.2-.788-.318-.161-11.786-2.969-2.7-1.236-2.295-1.886-3.293-3.934-1.712-1.627-3.871-2.295-1.517-.651-1.618-.447-4.437-.33-.579-.286-.381-.738.086-1.553-.15-.764-.974-.965-2.873-1.663-.6-.655-.713-1.243-1.708-.765-3.388-.788-1.739-1.074-.319-1.311.052-1.427-.656-1.428-3.945-4.64-1.627-1.146-.8-.235h-.651l-.594-.086-.642-.483-.726-1.059-.5-.431-.719-.172-.441-.22-1.526-1.027-.7-.357-2.959-.49-4.118-1.788L7117.383-1160l-2.669-.949-7.593-5.5-13.221-5.847-1.356-1.1-3.117-1.588-2.651-1.863-1.231-.443-2.772.062-1.336-.368-1.083-.682-1.025-.38-1.133.517-.6-1-.889-3.055-.621-.7-.716-.334-2.058-.47-3.919-1.957-4.366-1.051-7.815-3.353-4.084-1.04-4.118.878-.194-.925-.568-.9-.68-.741-.5-.443-2.244-1.184-5.384-2-2.1-1.321-4.51-4.008-5.712-4.056-1.172-.482-.543-.322-.219-.443.085-1.616-.05-.823-.259-.616-1.283-1.028-6.878-3.3-1.116-.306-3.052-.408-1.158-.753-1.05-.976-1.306-.984-1.691-.431-3.44.258-1.408-.6-1.047-.765-4.587-2.589-.329-.419-.191-1.431-.179-.741-.371-.589-.605-.235-.367-.258-.8-1.738-.482-.471-.587-.38-13.062-5.158-3.353-2.255-1.283-1.2-4.6-1.592-11.9-6.632-1.948-1.542-.942-.31-1.063.161-.481.208-.5-.11-1.125-.8-.8-.887,3.983-6.255.485-1.07.477-1.443.52-1.2,2.6-4.608,1.715-1.546,14.98-9.416.128.91.146.616.284.691.491.627.706.495,1.972.706,5.385.874,5.368,1.812,2.61.466.705.235.514.42.152.655-.152.69-.234.714.139,1.1.618,1.428,1.665,2.58.7,1.432.431,1.22.147.836.455.776.8.655,2.715.9,1.406.949.063,1.542.159.69.286.675.379.62,2.416,2.628.593.431.644.357.727.333,1.541.443,1.355.185.767-.075.935-.208,1.666-.6,1.752-.938,1.715-1.3.664-.243h.651l.645.615.172.753.168,2.044.052.262.064.145.4.545.419.455.342.569.1.725-.548,3.244-.01.678.1.765.3.616.735.3,1.129-.121,5.41-2.851.741-.615.5-.718.864-2.2,2.811-4.349.52-.529.925-.432,1.311-.282,7.492.122,7.326-1.137,3.219-.169,3.083-.765,8.309-3.761,2.123.835.628.333,1.393.459,5.3.64,2.925-.075-.1-.674-.342-1.459-.223-3.032.369-2.184.418-.6.668-.255.752-.1,1.555.126,1.6.384,2.131.749.579.074.53-.086.558-.333.47-.482.849-1.192,2.282-4.514.55-.757,4.171-3.918.853-1.137.689-2.957.322-3.624.493-2.824.419-1.11.077-.828-.114-.914-.444-.984-1.012-1.271-.529-1.541.605-3.342.405-.812.717-1.086.418-.471.5-.432.627-.38,1.355-.569.83-.2.9-.063,3.194.432.9-.012.9-.11,1.554-.443.666-.325.467-.443.1-.675-.677-1.714-.188-2.334,1.768-2.659,1.908-1.706,1.294-.737,1.074-.173,1.489.517.69.31.646.392.924.31,1.2.224,2.207-.126,1.306.1,1.011.235.729.408.827.341,1.285.177,1.38-.224,5.929-1.592" transform="translate(-6506.567 2347.556)" fill="#7c7c7c" stroke="#f2f1ed" stroke-linejoin="round" stroke-width="1"/>
<path id="path5270" d="M7098.447-1360.8l-.323,4.389-1.2,3.761-9.224,17.292-1.248,3.906-.307,2.777-.928,4.51-.675,2.011-.518,2.659.012,1.078,1.219,6.051.235.691.174.333.257.345,1.284,1.247,5.774,3.659,5.079,2.466.973.7.741,1.2.615,1.553,1.975,7.452.665,1.146.689.937.865.726,2,.9,2.121.369,1.049.074.954.248.674.271.763.482.84,1,.552.926,1.593,3.294,2.355,5.459,1.038,3.381.478,2.341-.034,1.655-1.209,3.181-.323,1.267-.01,1.851.505,1.22.727,1.114,1.729,3.647,1.167,1.887,2.147,1.565,1.875.867,13.268,4.216,1.553.169h1.284l3.66-.381,1.456.012.938.247.765.361,1.712,1.3,1.307.706,7.458,2.848,10.806,2.972,1.147.565,8.826,5.734,1.111.349,2.329.22,1.921-.111,19.881,3.577,8.852-.542,1.417-.569.877-.741-.011-.864-.571-.729-1.786-1.121-.888-.664-.712-.8-.369-.91.351-1.012.719-.384,1.048-.161,2.235.15,3.3.714,3.794-.4,2.295.219,2.33.545-1.886,8.024-.176,2.667,1.1,4.286.035.828-.075.816-.513,1.945-1.811,4.133-1.1,1.588-4.17,4.417-2.021,1.726-1.458,1.639-1.063,1.459-2.094,3.745-6.666,16.017-1.224,2.024-.893.6-1.92.616-5.757.938-1.059.615-.631,3.7-.283,3.734-1.391,6.032.442,1,.8.973.88.792.711,1.651.064,1.616-1.6,9.644-.569,1.679-1.17,2.675-2.356,8.949-.358.639-.344.443-.691.51-3.689-.149-.615.381-.65.6-1.271,3.342-.472,2.094.322,1.168.741,1.4.068.812-.178.678-.374.494-.724.631-.53.369-1.288,1.22-.886,1.047-.7.655-.7.443-.729.172-1.958.145-1.247.3-.517,1.063.021.639.2.726.34.643,1.679,2.443,1.244,1.467.657.518.689.333.725.035.9-.051.97.075,1.518.78.547.835.171.9-.815,3.354.039,1.024.261,1.243.75,2.443.232,1.369-.086,1.047-1.606,2.565-.575,1.345-.074,2.181,1.087,1.518v.408l.1.271-.418,1.11-.236,1-.208,1.565.1,1.047.244.769.484.651.617,1.306.6,1.788.456,2.49-.146,5.757-.208,1.087-.424.729-.5.27-1.1.369-.471.219-.9.655-1.258-1.11-1.491-2.22-1.11-1.082-2-1.592-1.156-.651-1.92-.667-1.088-.534-.492-.639-.21-.667.248-3.083.3-1.628.038-.921-.147-.863-.527-1.3-.546-.777-.576-.592-.617-.4-.667-.294-.741-.172h-.639l-.718.172-.638.322-.58.42-1.987,2.058-.655.334-.834.063-.989-.3-.728-.431-4.094-3.7-1.108-.69-.988-.286-1.554.275-1.108-.322-2.272-1.726-.849-.137-.516.282-.1.683.225.675.294.632.148.651-.223.627-.466.483-.692.322-.81.149h-.893l-1.648-.2-.829.028-1.627.294-.751.22-1.088.533-1.924,1.455-.627.2-.687-.224-.8-.541-.781-.294-8.916-2.318-1.8-.886-.9-.879.162-.713.632-1.306.22-.58.1-.506-.066-.694-.7-3.793.057-.777.384-.584.569-.42,1.341-.662.536-.471.426-.564.3-.656.076-.667-.273-.517-.79-.247-1.025-.161-1.456-.38-.874-.432-.691-.517-.428-.581-.374-.666-.91-2.291-1.394-1.949-3.366-4.871-1.515-1.577-.523-.322-.365-.173-.618-.2-.689-.059-.644.22-.491.494-.345.655-.223.714-.049.764.232.678.789,1.208.349.639.183.741.075.667-.038,1.541-.2.678-.834,1.53-.161.812-.036.729-.112.616-1.875,2.675-.714.3-.68-.074-.565-.4-.443-.569-.4-.616-.316-.678-.829-2.193-.368-.643-.531-.518-.667-.381-.919-.188-.77.137-1.7.852-1.5.592-1.776.381-1.937.211-4.729,1.185-4.493-1.114-1.711-.984-4.406-5.573-.4-.729-.184-.663v-.628l.321-1.357.146-1.31.31-1.75.109-1.8-.122-.812-.272-.706-1.036-1.945-.208-.729.01-.8.212-.714.383-.714.478-.679.688-.8.778-.568.964-.455,1.637-.447,1.175-.506,1.186-.984.574-.764.409-.789.518-.6.766-.443,1.5-.212,1.224-.294.989-.529,2.45-.671.645-.616,1.958-3.832.693-1,1.663-1.737,1.737-2.271.483-.517.531-.467,2.438-1.616.482-.494.419-.6.766-1.38,2.108-7.707-.024-12.625-.962-2.063-1.209-2.035-.31-.762-1.6-2.921-.752-1.753-1.023-1.576-3.825-3.427-.614-.757-.53-.145-2.221-1.69-.384-.416-3.548.266-1.07-.266-2.729-1.518-1.3-.988-.809-.961.516-.541-1.427-2.161-.854-.922-.949-.385h-2.91l-.938-.121-.494-.3-.319-.346-.419-.27-2.713-.777-2.912-.173-.75-.235-.564-1.047-.572-.248-.826-.161-5.136-2.859-4.7-3.737-2.254-1.156-2.677-.373-2.921-.071-.345-.247-.4-.6-.3-.741-.139-.667-.384-.2-1.859-.063-2.381.27-1.023.444-2.107,1.615-.209.1-.31.09-.434-.039-.736-.4-.286-.06-.938.22-.528.259-1.2,1.247-1.628.914-1.258-.557-1.144-1.035-1.319-.553-.458.208-.5.408-.512.283-.495-.185-.619-.431-2.529-.777-.5-.753-1.908-1.777-3.394-2.106-.528-.6-.311-.949-1.33-1.42-1.828-3.2-3.646-4.573-2.061-1.777-2.232-.741-.43-.428-1.506-2.8-1-.851-2.427-1.38-1.2-.522v-.49l1.01-1.565-1.4-5.635.661-1.236.311-.219-.16-.494-.495-.506-.675-.219-.579-.3-.323-.691-1.023-3.721-.495-1.224-.479-.53-.4-.529-.715-2.639-.221-2.639-.287-.926-1.071-1.651-.506-1.259-.592-2.49-.6-.984-3.439-3.553-1.159-.675-.1.392-.248.69-.087.385-1.035-.828-3.859-5.094-.518-2.008-.418-1.024-.778-.455-1.232-.346-.3-.855.344-1.98-.074-1.259-.246-.53-.467-.443-.754-.988-.348-.9-.354-1.937-.472-.839-2.7-3.307-1.95-3.365,7.166-.125,2.564-.333,8.3-2.29,2.356-.9.629-.361.556-.431.946-1.036.407-.556,1.345-2.671.49-1.533.3-1.561.108-1.557-.217-3.118.024-.616.319-1.534.26-.663,6.854-10.2.221-.615,1.025-6.138.023-1.259-.073-.726-.17-.717-.323-.553-.331-.385-1.923-1.513-1.236-.754-.64-.333-2.11-.533-2.783-1.18-.755-.224-.839-.1-1.61.086-.623-.137-.5-.369-.107-.789.306-.565.52-.474,2.4-1.514,6.621-5.365,4.119-6.029,3.117-6.855.605-2.11,2.063.456,3.2-1.059,1.839-.294,5.089.075,9.2-1.26,2.745-.741,2.273-.863.653-.443.5-.483,2.529-3.572.58-.459.8-.294.688.565.444.6.274.8.162.789.27.737.383.608.957,1.019.337.593.173,1.455.308.69,1.838,1.408,2.832.875.642.356,1.69,1.444.972.333,2.294-.161.777.137.816-.075.59-.259.706-.482.777-.416,1.328-.149.706.345.381.714.206.776.375.592.592.345h.813l.6.31,1.714,1.267.694.35.944.345,3.06.6,2.443-.361.739-.392.614-.431.472-.522.666-.392.629-.482,1.765-.726.626-.444,2.674-2.329,1.323-.937,2.538-1.087,4.96-1.391.577-.275.591.113,1.272.863.834.443.815-.035,1.821-.592.916.011.69.134,1.2.482" transform="translate(-6447.691 2161.143)" fill="#7c7c7c" stroke="#f2f1ed" stroke-linejoin="round" stroke-width="1"/>
<path id="path5272" d="M7124.37-1391.69l-.184,75.548h0l6.094-4.883,1.517-.333,1.915,1.667,3.162,3.773,1.789,1.639,3.271,1.6,3.558.588,3.662-.185,3.542-.69,2.886-1,17.213-8.741,2.971.133,1.356.407,1.383.075,2.872-.184,1.9.121,1.219.506,2.68,1.738,2.353.467,8.792-.921,1.319.011v.012l2.033,3.542,60.975,107.385.361.64-.713.32-.424.668-.429,1.443-.581,1.1-.828,1.063-.993.906-2.123,1.149-.973.815-.684,1.047-.087,1.173.667.69,2.3.627.7.8-1.637,3.227-.544.643-5.843,1.589-1.448.977-1.092,1.5-.9,2.047-1.552-.219-.865,1.353-.751,1.742-2.243,1.749-.4,1.632.022,3.1.88,7.142-44.739,22.492-1.145.294-1.925-.381-47.717-23.665-1.162-.223-1.281.953-2.33-.545-2.295-.219-3.795.4-3.3-.713-2.235-.15-1.049.161-.718.385-.352,1.012.368.91.715.8.887.664,1.787,1.121.571.729.013.864-.878.741-1.418.568-8.852.542-19.882-3.577-1.92.11-2.331-.22-1.108-.349-8.828-5.734-1.146-.565-10.806-2.973-7.459-2.848-1.306-.706-1.711-1.3-.766-.361-.936-.247-1.458-.012-3.66.38h-1.284l-1.553-.168-13.267-4.216-1.876-.867-2.145-1.565-1.167-1.887-1.731-3.647-.725-1.114-.505-1.219.01-1.851.323-1.267,1.208-3.181.036-1.654-.478-2.341-1.037-3.381-2.354-5.459-1.594-3.294-.553-.926-.839-1-.764-.482-.674-.271-.955-.247-1.047-.074-2.123-.368-1.993-.9-.866-.726-.688-.937-.666-1.146-1.976-7.452-.613-1.553-.742-1.2-.974-.7-5.077-2.467-5.772-3.659-1.285-1.247-.257-.345-.173-.333-.235-.691-1.219-6.051-.013-1.078.518-2.66.675-2.011.928-4.51.308-2.777,1.244-3.906,9.226-17.292,1.2-3.761.322-4.389v-.063l-.042-1.627.248-2.118.468-1.483.764-1.8,5.229-9.334.235-1.121.062-.914-.58-1.2-3.871-4.836-.1-.823.082-.718.693-.753,1.293-.495,2.583.161,1.518.385,1.23.542,2.92,2.266.57.3,1.771.4,9.892-.384,1.628-.334.729-.258,31.489-16.288,6.12-1.811,1.364-.592,2.8-1.726,4.055-3.381,3.647-2.294,4.381-3.561,1.23-.753,1.727-1.346,6.795-8.087,2.194-3.357.915-2.353.586-2.416.673-9.926.343-1.616.984-3.181,1.1-1.38,2.208-2.137,9.366-6.864" transform="translate(-6364.311 2094.743)" fill="#7c7c7c" stroke="#f2f1ed" stroke-linejoin="round" stroke-width="1"/>
<path id="path5274" d="M7176.01-1334.182l.124,1.011-.533,8.569.185,2.922,1.01,5.694-.823,14.147.256,1.639-.427,1.8-.634,1.738-.6.926-1.5,1.627-.555.84-.16.984.133.914-.024.852-.616.8-.8.149-2.173-.392-.922.1-.987,1.635,1.456,2.1,3.823,3.095.787,1.086v.839l-.343.851-.249,1.173.087.984.924,2.776,1.209,1.848.27,2.467.012,2.639.432,2.33.937,1.329,3.8,2.5.738,1.039.407,1.122.443,2.5,1.765,4.87.307,2.554-1.37,1.467-4.785.616-2.376.6-1.789,1.283-.406,1.259-.11,1.408.083,2.808.557,1.294.977,1.455.3,1.467-1.4,1.31-4.612,2.576-1.38,1.012-2.8,3.228-.5.247-1.208.322-.433.321-.218,1.271.205,3.353-.418.811-1.553-.051-1.617-.329-1.393.133-.913,1.42-.441,9.334-.989,2.1-1.123.651-3.932,1.111-1.59.964-.655.984-.1,1.259.294,5.965-.146.568-1.16,2.726-.308,1.357.443,1.27,1.525,1.428,1.186,1.11,4.083,6.228,1.155,1.2,4.219,3.145,1.146,1.122,1.766,2.5,1.673,1.639-.156,1.333-1.122.91-1.668-.125-1.378.09-.96,2.823-2.357.8-1.371,1.247-1.133,1.506-.409,1.181.813,2.169-.035.643-.5.322-1.947.655-.716.392-.92,1.318-.361,1.432-.186,1.479.111,2.718-6.011,7.734,9.17,35.865,13.64,8.852.157-.271.8-1.106.89-.235.974-1.161,1.385-.283,1.267.377,1.814.514,1.987.341,1.442.887-.1.27-.728,1.333-.937,1.306-.9.815-.47-.729-1.259.137-.691.592-.846-.643-.892-.471-.58,1.172.988,1.185,1.16,1.7L7172-1093l-.213,2.925-.247,1.271-.415,1.011-.631.945-2.539,2.738-.417.878-.149,1.491,3.436,3.8.657.333-.173,2.231.359,1.219,1.9,2.663-.865,1.134-1.167,1.518-1.2.9-4.132,2.138-1.307.329-2.542.235-1.131.714-.653,1.047-1.359,3.972-.987,1.565-7.188,7.655-1.886,4.095-.841.988-3.029,1.812-.457.483-.212.714.22.431.523.224.328.467-.328,1.173-1.52,1.749-1.9.729-2.033.381-1.924.765-2.2,1.483-3.834,3.5-.432.138-1.224.2-.317.1-.781,1.6-1.107,4.094-1.212,1.887.213.027-.248.047-.789.321-2.416.467-.479.023-.469-.023-.528-.224-.521-.415-1.183-1.455-.269-.482-.655-1.443-.285-.243-.408-.212-.718-.086-.452.047-.348.1-.495.22-1.108.372-.431.036-.421-.051-.578-.294-2.148-1.494-.748-.42-.593-.243-.3-.051-.651-.149-.344-.133-1.482-1.122-2.413-2.22-1.581-1.2-.321-.184-.235-.087-.145-.039h-.113l-.588-.134-.535-.321-1.6-2.231-3.918-7.373-4.577-6.906-1.358-3.255-.169-.961-.113-1.087v-.58l.149-1.973.257-.627.557-.718.875-.494.753-.27,2.119-.353.815-.286.738-.455,1.852-1.948,2.794-2.259.535-1.219-1.681-2.514-4.444-.678-.758-.274-1.023-.651-1.192-1.024-3.617-3.773-1.256-1.847-.975-1.777-.518-.655-.7-.628-3.062-1.765-.937-1.048-.96-2.38-1.168-4.412-1.127-2.714-.074-.6.114-1.443.369-1.6,1-2.589.086-.8-.282-.926-.619-.972-2.772-1.581-.887-.937-.333-1.455.2-2.392-.035-2.231-.223-1.111-.434-.988-.763-.859-1-.42h-1.391l-1.122.208-2.691-.357-4.511-2.714-2.259.776-.763.581-1.113.593-.885.627-2.168.742-1.271.063-1.889-.483-1.786-.776-4.046-2.8-.158-.149-.605-.427-1.516-.632-1.564.223.637-2.318.272-1.737-.371-1.851-2.92-2.161-.756-1.244-1.094-2.651-.64-.875-.634-.694-.429-.576-.254-.7.007-.887.08-.505.192-.667,1.849-3.122.282-.714.062-.89-.217-1-.694-1.247-.578-.749-2.9-2.369-.961-1-2.295-2.851-.282-.788-.136-1,.232-2.393.2-.922.009-.494-.108-.729-.459-.914-.513-.627-.409-.926-.123-1.18.541-4.762-.322-2.357.9-.655.47-.22,1.1-.369.5-.271.425-.73.207-1.086.146-5.757-.456-2.49-.6-1.788-.617-1.306-.483-.651-.243-.769-.1-1.047.207-1.565.236-1,.419-1.11-.1-.271v-.408l-1.088-1.518.075-2.181.574-1.345,1.606-2.565.088-1.047-.234-1.369-.751-2.443-.26-1.244-.039-1.024.814-3.354-.17-.9-.549-.835-1.515-.78-.971-.075-.9.051-.726-.036-.688-.333-.657-.518-1.245-1.467-1.678-2.444-.342-.643-.2-.726-.021-.639.517-1.063,1.247-.3,1.958-.145.729-.172.7-.444.7-.655.885-1.047,1.289-1.22.53-.368.724-.632.375-.494.177-.678-.069-.812-.741-1.4-.322-1.168.472-2.094,1.271-3.342.651-.6.614-.381,3.691.149.691-.51.343-.443.357-.639,2.356-8.95,1.17-2.674.57-1.679,1.6-9.644-.064-1.616-.712-1.651-.879-.792-.8-.973-.44-1,1.391-6.032.282-3.734.632-3.7,1.058-.616,5.759-.938,1.92-.615.892-.6,1.223-2.024,6.666-16.017,2.094-3.745,1.063-1.459,1.458-1.639,2.021-1.726,4.171-4.417,1.1-1.588,1.811-4.133.514-1.945.074-.816-.035-.828-1.1-4.286.177-2.667,1.885-8.024,1.281-.953,1.163.223,47.717,23.664,1.925.381,1.144-.295,44.739-22.491" transform="translate(-6297.857 2258.445)" fill="#7c7c7c" stroke="#f2f1ed" stroke-linejoin="round" stroke-width="1"/>
<path id="path5276" d="M7109.776-1215.421l-1.555,3.859-1.821,1.259-1.035-.027-1.1-.2-.968-.478-.76-.73-.627-.914-1.753-4.243-.593-.922-.7-.529-1.677-.776-1.343-.177-1.369-.023-1.034.263-1.752,1.1-1.627,1.824-.469.725-.384.875-.074.977-.27,1.011L7088-1210.5l-.37,1.149-.159,1.479.356,1.764.086.235.029.11.589,1.455.211.937-.036.985-.113.972-.729,1.212-2.084,2.859-5.711,6.51-3.525,1.53-1.586.506-1.271.628-.967.717-.54.663-.787,1.294-.707,1.541-1.278,1.961-3.009,3.765-.31.726-.679,3.416-.317.988-.459,1.094-.851,1.569-.581.836-.427.506-2.861,2.714-.769.914-.564.852-1.256,3.561-.471.714-.541.522-1.174.588-.922.322-6.315,2.553-2.764,1.7-2.612,2.047-.707.679-.453.564-.393.6-1.137,2.282-.824,1.22-1.959-2.267-1.122-.828-3.441-1.49-2.6-1.875-1.514-.792-1.493-.318-2.359.318-.3.188-.053-.776.474-.851,1.036-1.443.3-1.718-.221-1.463-.405-1.478-.652-7.46-.311-1.372-.975-2.934-.32-2.49-.3-.321-.442-.122-.569-.368-1.935-2.53-2.505-1.765-.181-.212-.32-.776,2.61-1.969,1.214-1.11.789-1.282.626-2.31.743-1.427,1.921-2.4.295-.553.245-.678,1.644-6.526.346-.7.38-.589.3-.557-.494-.9-.592-.655-4.363-3.291-.967-2.451-1.341-2.718-.444-1.572-.235-1.592.037-.753.176-.875.735-1.306.606-.855,3.6-3.267,1.617-.886,2.355-.706.653-.4.441-.616.213-.9.2-2.146-.036-.851-.567-3.353.159-.859.483-.808,2.268-2.29,3.3-5,1.169-1.185.835-.51,3.578-1.624.726-.16,2.4-.024.836-.125,1.518-.467.742-.125.726.149.539.42.951,1.047.53.38.579.1.424-.1,2.473-1.059.6-.553.4-.781.087-1.428-.161-.972-.616-2.408-.041-.615.086-.667.235-.812.519-.949.493-.69,3.145-3.059,1.814-2.243.8-4.216,1-15.981,1.564-.224,1.517.632.6.427.158.149,4.046,2.8,1.788.776,1.888.483,1.271-.063,2.169-.741.884-.627,1.113-.592.763-.581,2.26-.776,4.51,2.714,2.691.357,1.123-.209h1.39l1,.42.764.859.433.988.224,1.11.035,2.232-.2,2.392.332,1.455.887.937,2.773,1.581.619.972.283.925-.086.8-1,2.588-.37,1.6-.115,1.444.075.6,1.127,2.714,1.167,4.412.961,2.38.938,1.047,3.06,1.765.7.628.518.655.974,1.777,1.256,1.847,3.618,3.773,1.193,1.024,1.023.651.757.274,4.447.679,1.679,2.514-.536,1.22-2.8,2.259-1.85,1.949-.739.455-.815.286-2.118.353-.754.27-.875.495-.558.717-.257.628-.149,1.973v.581l.113,1.087.17.961" transform="translate(-6316.99 2419.762)" fill="#7c7c7c" stroke="#f2f1ed" stroke-linejoin="round" stroke-width="1"/>
<path id="path5278" d="M7093.262-1260.968l1.358,3.255,4.576,6.906,3.917,7.373,1.6,2.232.536.322.587.134h.114l.143.039.236.087.322.184,1.581,1.2,2.413,2.22,1.481,1.121.345.133.652.149.3.051.592.243.748.42,2.149,1.494.577.294.421.051.432-.036,1.106-.372.5-.219.346-.1.454-.047.719.086.406.212.285.243.654,1.444.271.482,1.182,1.456.52.415.528.224.471.024.479-.024,2.416-.467.788-.321.248-.047,3.587.478,1.112.4,2.858,2.29,1.407,1.444,1.035,1.333.789,2.181.225,2.616-.124,5.275v.09h0l-9.1,8.828-3.228,2.22-3.209.529-3.313-.471-3,.161-2.255,2.4-.539,3.161.812,2.585,1.207,2.565.642,3.134.125,1.875.379,1.247,1.581,2.7.577,1.416.189,1.392-.238,1.412-4.289,9.75-1.542,2.345-1.284,1.392-2.795,2.451-3.368,4.02-1.231,1.012-1.578.616-2.087.039-1.69.569-5.03,2.835-1.774.518-3.663.392-7.6-.737-3.648.255-2.753,1.471-1.331-1.2-4.2-3.035-4.049-4.487-1.554-.678-2.252-.345-2.184-.938-2.027-1.38-5.418-4.93-.24-.322-.376-.8-.4-.443-.329-.2-.717-.1-.41-.161-4.117-3.82-1.222-.742-2.513-.738-.9-.816-.936-2.894-.689-1.494-1.025-.627-1.124-.483-3-2.271-1.419-.8-4.2-1.357-1.432-.2-3.66-3.588-1.531-.937-.949-.863-.2-.235.823-1.22,1.138-2.282.393-.6.454-.565.707-.679,2.612-2.047,2.762-1.7,6.317-2.553.921-.322,1.175-.588.541-.521.469-.714,1.257-3.561.565-.851.767-.914,2.862-2.714.427-.506.58-.835.853-1.569.458-1.094.317-.988.679-3.416.31-.726,3.009-3.765,1.278-1.961.707-1.541.787-1.294.54-.663.967-.718,1.272-.628,1.585-.506,3.527-1.529,5.712-6.51,2.083-2.859.73-1.212.112-.972.036-.984-.211-.937-.589-1.456-.028-.109-.086-.235-.357-1.765.159-1.478.37-1.149.863-2.043.271-1.011.075-.977.384-.875.467-.726,1.629-1.824,1.751-1.1,1.034-.263,1.37.023,1.344.177,1.677.777.7.529.593.922,1.754,4.243.626.914.761.73.968.478,1.1.2,1.036.028,1.821-1.259,1.553-3.859" transform="translate(-6300.478 2465.308)" fill="#7c7c7c" stroke="#f2f1ed" stroke-linejoin="round" stroke-width="1"/>
<path id="path5280" d="M6983.22-1389.824l.367.788.24.776.37,2.408.71,1.749.124.628.075,3.49.419.887.753.6,1.812,1.012.741.741,2.122,2.847.433.914.047,1.082-.335.828-.206.851.432,1.11,1.194,1.564,3.936,3.738.95.564,3.449,1,.507.988,2.639,2.243,2.3,3.342.79.666.925.432,3.771,1.086.434.254.3.483.146.506.244.408.619.223.877,1.5,1.628.949,3.563,1.2,2.084,1.047,1.861,1.358,1.133,1.235-.221,2.329-.441.753-.547.616-1.155.835-5.492,5.416-.709,1.059-7.181,16.511-.035,3.7-.971,2.337-5.412,6.451-.979,1.483-.59,1.219-.038.824.064.643.355.812,1.578,2.255,2.295,5.29.9,2.875.057,4.342.418,2.674.36.984.47.769,1.083.91.632.356.749.26.889.223.888.322.828.589.332.678.059.631-.22.667-1.271,2.734-.223.78-.392,3.5.2,3.87-12.329,5.11-3.169,1.91-.334.679-.236.777-.333,3.525-.18.812-.755,1.593-1.514,2.184-3.566,3.44-1.765,1.306-7.235,4.106-2.49,4.537-2.317,1.518-3.63,1.38-1.107.212-4.327-.138-1.248-.161-.409-.53-.045-.666.124-.8-.051-.811-.159-.741-.506-1.4-.186-.717-.087-.777.052-.663.146-.777.493-1.447.134-.776-.085-.686-.431-.875-.713-.51-1.961-.8-.715-.565-1.306-1.346-.766-.27h-.8l-1.729.172-.986-.074-1.218-.4-.581-.564-.16-.644.2-.505.147-.243,1.034-.878,1.766-1.173,1.059-.922.444-.556.4-.628.553-1.322.356-1.282-.629-1.452-.3-.408-1.081-1.087-3.981-.443-.852.145-.862.4-.348.581-.161,2.824-.147.761-1.038,2.926-.159.725.086.695.308,1.18.049.419-.1.678-.3.914-.58,1.341-.54.8-.642.553-.642.31-1.245.455-.366.2-2.078,1.592-3.535-6.315-1.876-1.565-.787-1.023-.322-1.565-.259-.753-1.641-2.479-.131-.678-.161-1.588-.19-.666-.639-.973-3.005-2.714-.322-.643-.224-1.772-.213-.742-1.466-1.765-.426-.678-1.677-3.216-1.086-1.506-2.009-1.984-.521-.644-.382-.714-.22-.776v-1.034l.294-.409.407-.31.309-.7-.21-1.663-1.812-2.922-.446-1.542-.159-.965-.381-.639-.481-.506-.433-.6-.171-.173-.261-.161-.272-.243-.221-.4-.013-.447.159-.38.211-.333.086-.3-.381-1.463-1.281-2.427-.27-.78.367-1.691.678-1.279.271-1.333-.789-1.863-6.709-8.075-1.614-2.667-1.259-4.251-.493-4.55-.47-1.725-.689-1.184,1.182-1.38-.677-.976-1.415-1.02-1.025-1.541-.1-.879.1-2.8-.391-.9-.9-.333-.988.1-.627.381-1.79-1.71-.406-.235-.148-.432-.221-.965-.468-.983-.877-.542.384-.776,1.122-.989.43-.678.111-.616-.111-2.11-.6-1.267-1.333-.431-.847.827-1.085.381-.313,1.34-.666,1.4-.665.781-.294-.581-.186-1.294-.77-.894-.413-1.154-.842-.333-.28-.162.345-.317.69-.334,1.053-.565.617-.4.506-.4.721-.263.147-1.31-.479-1.1-.777-.847-.776-.643-1.1-.616-.974-.4-.813-.628-.592-1.282-.31-2.851-.626-.984-1.489.384.06-.965.4-.565.4-.384.505-.075,2.344-.443.667-.615.3-.558.749-2.4.719-6.063,1.553-2.973,2.646-2.012,10.093-3.389,3.793-2.663,1.715-.494,1.776-.212,1.812-.012.294.063.581-.2,2.232-4.33-.31-1.255-.552-1.271-.146-.695.086-.761.5-.9,2.23-2.788,2.54-4.365.234-.663.1-.62.037-.738.109-.615.235-.667,1.542-2.369.205-.64.191-1.173.323-.8.59-.828,10.939-9.236,1.167-1.392.793-1.271,1.106-3.464.483-.827.661-.656,1.175-.07.89.121.824.3,1.6.384,1.789.122,1.122-.185,1.385-.407,2.106-.961,1.811-.506,2.5-1,1.2-.9,1.386-.7-.383,1.306.3,1.357.8,1.259,1.158,1.243-.5.714-.053.878.238.91.333.792,1.048,1.6,5.088,4.686,1.507.6.7.346.459.356.872.926,4.465,6.965,5.057,6.291,1.333,2.49.615,1.938-.037,2.6" transform="translate(-6697.197 1991.319)" fill="#7c7c7c" stroke="#f2f1ed" stroke-linejoin="round" stroke-width="1"/>
<path id="path5282" d="M6934.214-1459.058l-1.231.925-.417.542-1.729,5.251-.391,1.827-.127,1.271.112,1.208.28,1.232,1.4,3.725.271,2.392,1.022,7.248-.43,6.338.074,1.271.186.533.149.69-.03.478-.229.6-.68,1.271-1.2,1.306-.382.3-.332.407-3.565,5.4-.149.172-1.588,2.565-.322.392-.214.212-.953.357-.289.219-.136.334.087.557.1.247.188.173.823.333.323.184.125.345-.064.49-.8,1.2-.227.207-.18.1-.656.286-.354.219-.277.283-.2.349-.236.479-.456,1.4-.074.938.161,2.086.567,1.071,1.444,1.777.333.541.467.988.367.6,1.187,2.664.581.839,4.723,4.757.371.608.135.345.3,1.145.146.334.288.38.527.384.988.553.976.2.652.047.926-.063.42.052.923.455,1.49,1.541,3.271,1.961,1.871,1.311.667,1.219,1.035,2.859,2.53,3.859,2.9,6.251,1.75,1.875,4.057,2.024,2.12,1.847,3.38,1.259,1.024.679.369.615.763,1.886.051.4,1.936,1.75.786,1.211,2.9,7.656,3.9,6.424.595,1.443.281,1.428.086,3.207-.223.443-.507.2-.495.306-.23.725.208.372.954.973.293.592-.114,1.294-.418,1.542-.209,1.53.829,1.913.171,1.785.186.753.927.89,1.045,1.047.345,1.329,1.308,2.013.913,4.883.344,1.035.6.69.787.592.693.725.3,1.138.193.529.483.322.578.259.507.345.5.75-.028.521-.2.565-.035,1.851.109.368.362.592.431.283.469.028.394.168.161.741v2.42l.531,2.675,1.367,1.455,1.837,1.094,1.676,1.4.466,1.172.683,1.341-2.05-.321-.749-.024-2.357.3-.823.012-.9.11-.925.322-3.81,2.478-.332.852.066.726.365,1.568.184,1.553-.087,1.749-.542,2.271-.828,2.193-.517.533-.737.294-2.741-.1-.921.059-3.96,1.581-.917.184-.936-.259-.617-.467-.968-1.086-.543-.42-.829.024-.92.407-3.145,3.255-2.887,2.243-.966.471-1.881.219-.792.408-1.169.149-.443-1.047-.162-2.678-.111-.651-.357-.357-.682-.333-1.429-.373-1.144-.431-1.185-.9-.58-.742-.445-.7-.713-.42-.656-.247-3,.494-3.14-.667-1.558-.922-2.106-1.862-3.058-1.937-.988-.283-1.279-.16-2.22.051-1.16.207-.852.282-1.283.69h-.517l-.444-.184-1.742-1.059-2.688-.976-.849.028-.346.083-1.748,1.1-2.823,1.224-1.246.111-1.814-.111-.223.024-.307.074-1.355.518-1.225.752-.478.432-.617.765-.332.627-.123.384-.248,1.267-.136.369-.2.31-.236.247-.269.22-.246.247-.22.286-.9,1.639-.432.024-.614-.231-3.578-2.836-.432-.643-.1-1.137.162-.848.627-1.85.1-.593-.012-.714-.136-.765-.232-.689-2.035-3.553-.148-.455-.161-.639-.652-.9-1.125-1.145-3.809-3.22-1.662-1.145-2.311-.569-1.1-.121-4.6-1.7-2.934-.776-1.272-.667-.557-.443-.391-.619-.224-.577.459-1.9.614-.639.751-1.047.7-1.31.565-1.416.188-.788.113-.839-.14-.988-.218-.69-1.184-2,.875-10.766.861-.086.458-.2.43-.454.2-.507.151-1.086-.151-5.734.313-.7.6-.616,1.259-.643,1.776-.651,1.5-1.184,2.354-3.33.9-.644,1.278-.552.558-.419.379-.6.2-.765.068-.839-.034-.875-.161-.8-.627-.674-.628-.408-3.437-.729-2.087-1.1-1.7-.047-1.63.149-.959-.609-.978-1.133-1.354-2.786-1.211-3.588-.426-.777-.682-.878-.924-.5-.8-.075-.766.125h-.706l-.628-.533-.4-.542-.381-3.271.669-1.76.2-.754-.059-.776-.3-.655-1.109-1.8-.261-.627.047-.765.235-.875.653-1.1.68-.875,1.071-1,.826-.615,1.186-.6,1.615-.553,5.733-1.086,2.414-2.679.633-1.945.07-.879-.331-.616-1.012-.455-.974-.282-.741-.654-.248-.875-.022-.827.248-.729.419-.564,4.146-3.825.39-.588.322-.683.186-.748-.042-.792-.27-.627-.7-.541-.986-.432-1.674-.506-1.37-.643-.432-.392-.494-.369-.606-.361-.752-.023-.863.345-.811.875-1.467,1.1-.372-.581-.072-.293-.223-.628-.422-.373-.727-.2-1.193.322-.741.317-.706.436-.749.047-.976-.862,1.247-.741,2.53-2.564.811-.651.749-.494.656-.3.814-1.071-.688-2.835-.939-.973-.827-.729-.1-.11-.138-.2-.246-.553-.232-.753-.012-.086-.049-1.713-.161-.726-.934-2.047-.2-.776-.086-1.236,1.057-4.588.523-3.993-.027-1.345-.047-.432-.1-.4-.458-1-.162-.765-.011-.384.048-.306.176-.58,1.008-2.33.359-.211.664-.208,1.272.087.728.2.7.259,1.023-.012.27-1.467-.592-9.754-.466-.725-.632-.483-.678-.321-.506-.628-.23-.976.131-1.773-.045-1.138-.161-.961-1.665-4.095.072-.96.558-1.157,1.863-2.024,1.191-1.035.8-1.06,1.2-2.753.85-.639.853-.286.662-.145.356-1.086.322-1.7.523-.875,1.806-1.847h0l1.669-.062,1.246.207,2.369.827,1.245.271.726-.024,1.148-.282.724.082.766.36.776.565,1.307,1.294,2.062-1.686,1.826-1.938.5-1.478.789-3.467.754-1.161,1.427-.353,1.866-.016,1.635-.369.753-1.4h0l-.357-1.678-1.6-3.181-.052-1.937h0l.81-1.946,1.313-1.827,3.247-2.961,2.959-1.663,6.5-2.577.789-.517h0l.96,2.49,2.766,5.13,1.281,6.452.916,2.773,1.65,2.231.985,1.934.27.879.527,3.847.018,1.157-.161,1.035-.546,1.321-.58.714" transform="translate(-6738.452 1810.353)" fill="#7c7c7c" stroke="#f2f1ed" stroke-linejoin="round" stroke-width="1"/>
<path id="path5284" d="M7008.492-1406.962l-1.52,5.491.322,2.8,1.014,2.074,3.144,4.648.516,1.333.288,1.181,1.059,12.467.145.6.16.357.372.384.359.208.6.286.668.231.675.333.706.655.738.9,1.409,2.69.257.714.248,1.491.047.89-.062.875-.133.828-.048,1.082.124,1.259.515,2.392.443,1.232.532.886.514.47,1.828,1.247,1.06.973.456.53,3.33,6.537.836,1,.962.69,2.347.086,1.7-.369,1.776-.839.705-.432,8.556-7.087.716-.349,1.94-.294,1.563-.419,3.291-1.248,1.455-.788.976-.753,1.52-2.44,2.155-2.243.5-.741,1.074-2.737.691-1.341,1.649-2.311.362-.627.824-2.193.434-.838.566-.914,1.716-2.11,4.289-6.568,2.431-2.95,3.488-3.451,1.679-1.247,3.624-1.675.712-.442,6.191-5.209,1.113-.749,5.056-2.013,2.117-.615,1.592-.208,6.521.518.85.161.74.271,1.2.765.528.467.482.517.394.592.322.655.5,1.479.333,1.53.111.777v.69l-.221.815-.4.691-1.293.961-4,2.036-.688.431-.456.53-.321.678-.211.777-.33,7.028-.53,2.4-1.892,4.008-1.132,1.863-.319.7-.221.752-.125.84.049.863.766,3.094.07.864-.135,1.788-.75,3.267-2.007,6-.719,3.118-.049.592.012.608.213.91,1.07,2.753,1.058,1.7,1.237,1.42,9.282,13.661-15.94,7.459-15.029,2.651-.6.051-8.269-1.295-1.284-.027-1.034.188-13.563,6.448-2.049.655-5.563,1.181-4.515.435-8.6-.408-5.217.6-1.2.259-1.811.643-1.095.564-2.222,1.432-1.515,1.369-.718,1.255-.674,1.729-.594,3.366-.125,1.874.112,1.553,2.575,12.911,1.593,3.749-.653,1.133-1.945,1.357-9.893,4.413-2.934-2.17-3.366-1.3-13.761-.972-.593-.11-.667-.334-.48-.369-.862-1.553-.6-1.035-.84-1-.541-.443-1.22-.8-2.8-1.22-2.923-.42-8.618-.094-3.986.886-.818.444-.792.714-4.638,6.436-1.728,1.483-4.868,3.13-1.321-.11-.455-.11-2.68-1.691-.555-1.481-.269-1.635-.367-.839-.7-.644-1.541-.455-1.063-.023-.936.074-.811-.074-.731-.361-.726-.875-.37-.674-.359-2.35-.2-3.87.393-3.5.222-.78,1.272-2.734.22-.667-.06-.631-.332-.678-.827-.589-.888-.322-.889-.223-.749-.26-.631-.356-1.084-.91-.47-.768-.359-.985-.417-2.674-.058-4.342-.9-2.875-2.3-5.29-1.578-2.255-.355-.812-.065-.643.038-.824.589-1.219.978-1.483,5.412-6.452.972-2.337.034-3.7,7.181-16.512.711-1.059,5.492-5.416,1.154-.836.548-.615.442-.753.22-2.329-1.133-1.235-1.86-1.357-2.083-1.047-3.565-1.2-1.626-.949-.877-1.5-.617-.223-.246-.408-.146-.506-.3-.482-.434-.255-3.771-1.085-.925-.433-.79-.666-2.3-3.342-2.639-2.243-.508-.988-3.45-1-.948-.564-3.935-3.738-1.194-1.564L6919-1389.8l.205-.85.335-.828-.047-1.082-.433-.914-2.123-2.847-.74-.741-1.812-1.012-.752-.6-.418-.887-.076-3.49-.124-.628-.711-1.75-.369-2.408-.24-.776-.367-.788,4.478-.22,6.569.11,1.649-.247,1.225-.357,1.036-.643,3.364-1.157,1.238-.039.757.063.278.259.408.518.737,1.811.558,3.3.367.851.6.627.862.063.937-.224,1.134-.063,2.973.879,1.1-.114.766-.416,1.316-1.851.714-1.592,6.021-1.27,2.292.223,2.405.8,6.027,1.271,1.653.569,9.892,1.588,2.649-.086,2.155-.506.669-.7.507-.738.626-1.541.421-3.232-.161-5.18.269-1.589.4-.788.644-.718,1.145-.628.937-.012.627.467,1.246,2.22.261.742.108.741-.025,1.553.227.737.417.655,1.5,1.318.188.224.161.345.21,1.208.356.725.59.73,1,.753.467.726.359.741.322,1.38.231.678.161.753,1.11,3.072.357,2.835.461.777.54.776.971.742.777.306,1.925.109,2.008-1.451.875-1.161.524-1.184,2.4-4.055,1-1.247.708-.7,3.486-2.086" transform="translate(-6625.304 2010.897)" fill="#7c7c7c" stroke="#f2f1ed" stroke-linejoin="round" stroke-width="1"/>
<path id="path5286" d="M6893.649-1442.594l-.875,10.766,1.186,2,.217.691.139.988-.112.839-.188.789-.564,1.416-.7,1.31-.75,1.047-.614.64-.458,1.9.223.577.391.62.557.443,1.271.667,2.935.776,4.6,1.7,1.1.122,2.311.568,1.662,1.146,3.809,3.22,1.125,1.145.652.9.161.639.149.455,2.032,3.553.235.689.136.765.013.714-.1.592-.628,1.85-.161.848.1,1.138.43.643,3.579,2.836.614.231.431-.023.9-1.639.22-.286.245-.247.271-.22.234-.246.2-.31.137-.369.248-1.267.122-.384.332-.628.617-.765.479-.432,1.224-.753,1.355-.518.307-.074.224-.024,1.815.11,1.245-.11,2.823-1.224,1.75-1.1.344-.082.85-.028,2.688.976,1.741,1.059.444.184h.517l1.282-.69.853-.283,1.161-.208,2.22-.051,1.278.161.988.282,3.058,1.937,2.107,1.863,1.559.922,3.138.666,3-.494.656.247.714.42.444.7.58.741,1.185.9,1.144.431,1.431.373.682.333.355.357.112.651.16,2.678.444,1.047,1.168-.149.793-.408,1.881-.219.967-.471,2.887-2.243,3.144-3.255.922-.408.827-.024.542.42.97,1.087.615.466.938.259.916-.184,3.961-1.581.92-.059,2.742.1.739-.294.515-.533.828-2.193.542-2.271.087-1.749-.181-1.553-.367-1.568-.066-.725.333-.852,3.808-2.478.926-.322.9-.109.822-.012,2.357-.3.749.023,2.052.322-.684-1.341-.466-1.172-1.678-1.4L7002-1415.07l-1.369-1.454-.529-2.675v-2.42l-.162-.741-.394-.169-.468-.028-.43-.282-.363-.592-.108-.369.034-1.851.2-.565.028-.521-.495-.749-.509-.345-.577-.259-.483-.321-.194-.529-.3-1.138-.692-.725-.787-.593-.605-.69-.344-1.035-.912-4.883-1.308-2.013-.346-1.329-1.044-1.047,1.367-.483,3.043-.58,1.6-.592,1.108-.232,1.231-.063,1.507.306,2.2.717,1.613.071,4-.514.936.973.714,1.023.89,1.812,1.714,5.315.735.741,3.727,2.589.775.84.558.984v1.306l-.136,1.063-1.864,3.82.128,1.691.416,2.294,1.987,4.487,1.748,2.408,1.271,1.369,1.986,1.443.6.749,1.842,3.012,2.019,2.157.681,1.012.11,1.428-.1,1.051-1.587,3.918-.293,1.839.007,2.33.407,2.961.4,1.514.532,1.431,1.257,2.651,2.849,4.106.5,1.1.261.985.034,2.259-.107.663-.141.408-.6.988-.232.506-.064.258.052.248.283.517.478.577,1.324,1.3.391.662.245.718.461.788.862.667,1.889.478,1.43-.1,1-.282,1.333-.7,1.439.011,1.064.121,7.6,2.185,2.406,1.11,3.1.922,1.385.62,3.169,1.835.529.443,4.574,5.487.359,1.086.358,1.639,1.512,16.107.313,1.071.267.7,1.061,1.381-.712,1.592-1.317,1.851-.765.415-1.1.114-2.973-.878-1.135.063-.937.224-.862-.063-.605-.628-.365-.851-.559-3.295-.738-1.812-.407-.517-.277-.259-.757-.062-1.237.04-3.366,1.157-1.036.643-1.225.357-1.65.247-6.567-.109-4.479.22.037-2.6-.613-1.937-1.334-2.49-5.058-6.291-4.465-6.966-.871-.926-.459-.356-.7-.346-1.506-.6-5.089-4.686-1.049-1.6-.331-.792-.239-.91.053-.879.5-.713-1.158-1.244-.805-1.259-.3-1.357.384-1.306-1.386.7-1.2.9-2.5,1-1.81.506-2.107.961-1.385.407-1.122.185-1.789-.122-1.6-.384-.825-.295-.89-.121-1.174.07-.662.656-.483.827-1.105,3.464-.792,1.271-1.167,1.392-10.94,9.236-.588.828-.323.8-.191,1.172-.206.64-1.541,2.369-.236.667-.108.615-.036.738-.1.62-.232.663-2.54,4.365-2.229,2.788-.5.9-.086.761.146.694.552,1.27.311,1.255-2.233,4.33-.581.2-.294-.063-1.81.012-1.777.212-1.715.494-3.8,2.663-10.091,3.388-2.645,2.012-1.555,2.973-.719,6.063-.748,2.4-.3.557-.666.615-2.345.443-.505.075.151-.145.441-.816.134-1.691-.541-1.133-.7-.9-.344-1-.205-.334-1.241-1.321-.973-2-3.64-4.157-.431-1.4.456-1.691,1.23-3.055-.069-3.047-.989-3-1.676-2.9-2.15-2.738-2.794-2.635-1.616-1.2-2.23-.859-1.026-.84-1.627-1.765v-.482l1.836-.318.488-1.431-.423-1.9-3.749-6.969-.515-1.589-.953-2.059-1.479-1.984-6.954-6.487-1.322-.726-2.255-3.38-1.2-1.161-8.225-6.2-3.721-4.07-6.625-10.468-.778-.553-.074-.483.074-.937.136-.73.273-.564.173-.655-.148-.961-1.346-2.9-7.591-10.173-.437-1.283-.607-1.133-.186-.667.015-.776.343-1.15.083-.49-.376-3-.982-3.193-1.376-3.012-1.579-2.439-2.83-2.588-1.148-1.322-.142-.49,2.793-3.37,11.914-11.553.456-.282.6-.236,1.1.012,6.619,1.9,1.95,1.6" transform="translate(-6751.265 1935.739)" fill="#7c7c7c" stroke="#f2f1ed" stroke-linejoin="round" stroke-width="1"/>
<path id="path5288" d="M7080.672-1311.458l-12.5.219-6.795-1.933-2.862-1.392-1.062-.714-5.178-4.232-3.748-2.235-2.735-1.29-.806-.271-.962-.125-1.305.087-1.194.36-1.591.863-.825.651-1.115,1.185-.946.505-10.988,2.714-2.4,1.145-2.52.431-6.936.1-6.108,1.6-15.758,4.98-16.977.334-.444-.087-.419-.161-.509-.345-.458-.471-.763-1.208-.4-.529-.706-.15-.9.4-4.708,3.6-1.9.7-1.753.447-1.663.047-2.949-.506-.677-.259-.554-.145-.358-.153-.418-.11h-.347l-.319.839-.139,1.639.262,3.824.466,2.616.053,1.13-.627,2.717L6946-1293.2l-1.73.066-4.032-.423.125-.949-.062-1-.713-1.8-1.011-1.008-3.357-2.1-.452-.569-.174-.663-.158-.953.218-3.993-.379-6.216-1.062-1.675-2.121-2.369-1.466-2.232-.815-4.542-.369-1.082-.557-1.243-1.957-3.369-.57-1.243-1.271-5.589-.613-1.38-1.79-2.933,4.866-3.13,1.73-1.483,4.636-6.435.792-.714.817-.444,3.988-.886,8.618.094,2.922.42,2.8,1.22,1.221.8.541.443.84,1,.6,1.035.862,1.553.48.369.667.334.591.109,13.764.973,3.365,1.3,2.934,2.169,9.891-4.413,1.945-1.357.654-1.133-1.593-3.749-2.576-12.911-.11-1.553.123-1.875.6-3.365.674-1.729.719-1.255,1.514-1.369,2.222-1.431,1.1-.565,1.811-.643,1.2-.259,5.216-.6,8.6.408,4.514-.435,5.563-1.181,2.05-.655,13.565-6.447,1.033-.189,1.283.027,8.269,1.3.6-.052,15.028-2.651,15.941-7.459,1.776,2.036.778,1.219,1.625,3.392,2.767,7.459.428,2.393-.267,2.726.024,2.553,1.093,3.256,3.417,6.078.9,2.059.109,1.777-.95,10.479.064,1.082.231,1.1,2.2,5.612.616,1.035,1.306,2.95.891,3.415.181.333.375.381.76.432,5.13,1.9,1.012.569.805.667.626.824.431.9-.04.909-.431.73-.847.432-3.17,1.035-3.158,1.753-1.193.922-2.964,3.059-1.563,1.322-4.046,4.177-3.8,3.208-2.995,1.651" transform="translate(-6595.042 2078.406)" fill="#7c7c7c" stroke="#f2f1ed" stroke-linejoin="round" stroke-width="1"/>
<path id="path5290" d="M7032.733-1248.567l-3.487,2.086-.707.7-1,1.247-2.4,4.055-.522,1.185-.875,1.161-2.008,1.451-1.925-.109-.779-.306-.97-.742-.541-.776-.46-.777-.358-2.835-1.109-3.071-.161-.753-.231-.678-.321-1.381-.36-.741-.467-.725-1-.753-.59-.73-.357-.725-.211-1.208-.161-.345-.187-.224-1.5-1.317-.417-.656-.226-.737.025-1.553-.11-.741-.26-.742-1.247-2.219-.626-.467-.937.012-1.145.627-.645.718-.4.788-.271,1.589.161,5.18-.421,3.233-.626,1.541-.505.738-.669.7-2.156.506-2.648.086-9.893-1.588-1.653-.569-6.025-1.271-2.406-.8-2.293-.223-6.021,1.271-1.06-1.381-.268-.7-.313-1.071-1.511-16.107-.359-1.64-.36-1.086-4.574-5.487-.526-.443-3.169-1.835-1.386-.62-3.1-.922-2.406-1.11-7.605-2.185-1.062-.121-1.439-.012-1.333.7-1,.282-1.431.1-1.887-.479-.862-.667-.461-.788-.247-.718-.391-.662-1.324-1.3-.478-.577-.282-.517-.052-.248.064-.258.229-.506.6-.989.139-.408.109-.663-.034-2.259-.26-.985-.506-1.1-2.846-4.105-1.26-2.651-.53-1.432-.4-1.514-.407-2.96-.006-2.33.3-1.839,1.585-3.918.1-1.051-.11-1.428-.682-1.012-2.019-2.157-1.841-3.012-.6-.749-1.984-1.443-1.272-1.369-1.749-2.408-1.985-4.487-.418-2.294-.127-1.691,1.862-3.82.137-1.062v-1.306l-.557-.984-.775-.839-3.727-2.589-.736-.741-1.714-5.314-.891-1.812-.714-1.023-.937-.973-1.169-.878-.567-.667-.593-.922-.369-1.121-.064-1.581.273-2.208,1.985-6.2.8-6.879-.01-4.095.454-2.381.541-1.137.558-.776,1.862-1.134,1.355.224,1.958.949,2.06,1.243,1.047.482,1.185.322,1.206.1,3.79-.38,1.466.059,2,.259,1.184-.011,4.8-1.256,1.347-.706,1.206-1.094.877-1.765.5-1.333.593-2.192.453-1.087.9-1.172,1.371-1.455,6.251-5.279,1.8-2.341-.063-2.255-1.842-5.388-.4-1.455-.85-1.788-1.776-2.859-1.516-1.753-1.279-.973-2.347-1.22-3.687-1.443-9.062-2.444-2.859-.777-1.973-1.082-1.11-1.051-1.753-2.365-1.822-4.417-6.76-12.4-.689-3.032,1.319-2.047.372-1,.122-1.541-.048-1.231-1.15-6.809v-1.012l.22-.921.437-1.212,2.047-2.922,2.686-2.255,1.48,1.788,3.143,2.318,1.877,1.11,8.348,3.192,4.527,2.381,2.708,2.353.632.914,1.7,1.851,3.682,3.083,2.791,1.455,2.047.467,14.721.706,2.429.75,1.615.764,1.854,1.122,3.622,2.724,1.982,2.369,1.139,2.216,2.269,7.106,1.684,3.24,2.226,2.369,2.091,1.419,1.336.593,1.984.639,1.443.125,1.357-.05,2.106-.467,1.948-.949,10.383-7.275,2.12-.691,1.184.071,1.5.31,1.162.616,1.021.765,1.617,1.862,1.7,2.4,5.613,5.745,1.232.926,1.471.777,2.565.9,1.563.109,1.4-.086,2.887-.6,6.485-.471,4.636.283,8.707,1.827,3.871.961,4.427,1.738,2.171,1.295,4.857,4.87.578.753,1.405,2.53.443.972.259.887.138.914.04.878-2.075,20.393.131,2.636-.046.69-1.347,5.733-.305.851-.493.938-3.664,5.4-1.391,2.847-.582.823-.735.632-.992.478-1.046.16-1.075-.109-.91-.47-.8-.726-6.155-7.7-1.787-1.467-2.143-1.357-1.446-.628-2.7-.765-1.747-.282-1.937.008-1.507.212-1.489.47-.966.416-1.44,1.173-2.257,3.392-3.56,7.546-1.21,3.859-.049.592.072.541.639,1.949.483,1.134.484,1.518.195,2.467-.983,15.6.478,4.055.853,3.616,1.541,4.585,17.224,36.462,2.369,7.165.282,2.456.028,1.76-.369,1.208-.48,1.063-.657.961-6.758,8.149-.517,1.087-.443,1.329-.631,3.577-.638,3.91-1.95,6.828" transform="translate(-6649.545 1852.502)" fill="#7c7c7c" stroke="#f2f1ed" stroke-linejoin="round" stroke-width="1"/>
<path id="path5292" d="M7096-1400.812l-2.294,1.443-2.381-.851-1.071-.024-.074,1.282h0l.762,3.439.446.977,2.145,1.616,3.025,1.208,2.686,1.4,1.161,2.306.49,1.593,2.329,3.142.758,1.678.045,1.369h0l-.407,2.662h0l.207,1.346.9,1.639,2.046,2.7.64,1.891.362,2.922.48,1.341,1.021.949,5.623,3.122.756.639,1.155,1.506.718.655.689.282,1.491.172.632.235,1,1.047.506,1.294.075,1.443h0l-.667,3.18h0l.053,1.346.454,1.181,3.006,3.909,1.293,1.235,1.469.789,4.132.875,1.345.714,1.231,1.2.791,1.345,1.247,3.032,5.486,7.969,1.048.875,2.627,1.737.924.973,1.962,2.95.429,1.169.756,5.985h0l-.315,2.129-.575,1.345-.741.914-3.228,2.565-.05,1.962-.409.863-.963.553-1.159.31-1.014.149-.834.53-.775,1.122-1.161,2.278-1.652,2.208-3.737,3.773-1.514,2.38h0l28.491.138,8.621,1.737.343.161.627.541.409.113.31-.1.571-.38.28-.063,1.365.282,2.88.9,2.941,1.455,1.346.408,3.169.345,4.306-.309,1.467.3,1.368.726,1.973,1.729,1.271.874.7.071.827-.134.726.035.419.6.086.694h0l-.1,2.082h0l.2,1.505.667,1.181,1.926,2.294.428,1.282h0l-.241,1.357-.854,2.7h0l.835,2.713,5,3.118,1.489,2.875.183.777.592,1.459.177.75h0l-.16.885-1.115,1.334-.392.738-.121,1.466h0l.144,1.262h0l-.075,1.256-.788,1.49h0l57.04.09,1.288-.322.69-.557.295-.553.4-.4,1.007-.11.764.259.522.443.575.333.974-.062,1.371-.7,2.5-1.961,3.455-1.161.949-1.381.644-1.663.924-1.553,1.188-.9,4.728-2.094,4.4-1.161,1.3-1,.54-.824.853-1.812.6-.839.829-.678,1.833-1.121.805-.691,2.033-2.961,1.136-1.306,3.566-1.913,1.416-1.118,2.664-2.726,1.453-1.1,4.71-2.628,1.333-1.318,2.48-3.047,1.465-1.267,1.395-.667,1.407-.3,2.984-.322.087.937h0l-.124.188-.73,1.267-.182,1.184-.35.9-1.333.576v.016l.154.219.183.546.146.247h0l-.9.232-.59.706-.138.91h0l.964,1.69h0l-.664.161-.962-.15-.371-.133-1.874.047-.372.1h0l.689,1.3.52,2.33.455,1.321.8,1.071,2.083,1.655.828,1.023.478,1.478h0l-.111,1.334-.552,1.231-.862,1.185-.235.443-.184.878-.349.4-.377.047-.741-.466h-.374l-.727.432-.689.521-.58.612-.409.769-.664,2.871-.027,7.5-9.367,6.864-2.208,2.137-1.1,1.38-.985,3.18-.343,1.616-.672,9.927-.587,2.416-.915,2.353-2.2,3.357-6.795,8.087-1.724,1.345-1.231.753-4.382,3.561-3.646,2.295-4.057,3.38-2.8,1.726-1.365.592-6.118,1.811-31.489,16.288-.729.258-1.628.334-9.891.384-1.772-.4-.57-.3-2.919-2.266-1.231-.541-1.52-.385-2.582-.161-1.293.495-.691.753-.084.718.1.823,3.872,4.836.579,1.2-.062.914-.235,1.121-5.228,9.334-.764,1.8-.469,1.482-.248,2.118.042,1.627v.063l-1.2-.482-.691-.134-.915-.011-1.821.592-.815.035-.836-.443-1.272-.863-.59-.114-.577.275-4.961,1.392-2.538,1.087-1.323.937-2.674,2.329-.627.443-1.764.726-.629.482-.667.392-.471.521-.614.431-.739.392-2.444.361-3.061-.6-.943-.345-.693-.349-1.716-1.267-.6-.31h-.813l-.592-.345-.375-.592-.205-.776-.381-.714-.707-.344-1.328.148-.776.416-.707.482-.589.258-.815.075-.778-.138-2.3.161-.971-.333-1.689-1.443-.643-.357-2.832-.875-1.839-1.408-.307-.69-.174-1.455-.337-.592-.956-1.02-.384-.608-.271-.737-.161-.788-.275-.8-.443-.6-.689-.564-.8.294-.58.459-2.53,3.572-.5.482-.655.444-2.271.863-2.747.741-9.2,1.259-5.091-.075-1.839.294-3.2,1.059-2.064-.456-1.466-.949-1.553-1.91-1.071-2.063-1.455-4.325-.149-.863-.052-.7,1.531-9.483-.038-2.64-.075-.478-2.381-5.118-2.546-4.377-2.651-3.306-1.042-.961-1.154-.851-.667-.321-.766-.259-3.3-.7-1.544-.494-1.565-.714-1.047-.173-.885.788-2.765,4.848-5.362,7.483-.914.9-.958.737-1.064.545-1.035.334-2.133.059-3.219-.431-1.048.121-1.071.271-2.237.349-1.066.024-1.09.149-3.8,1.024-1.306.753-1.145.271-1.528.133-4.093-.208-1.284.223-1.053.49-1.023.695-1.378.725-2.908.742-2.07-.165-1.338-.455-1.03-.667-1.911-2.933-.4-.925-.727-2.562-1.291-6.8,2.993-1.651,3.8-3.208,4.046-4.177,1.563-1.321,2.963-3.059,1.192-.922,3.16-1.753,3.169-1.035.846-.432.432-.73.039-.909-.431-.9-.626-.824-.806-.667-1.011-.569-5.129-1.9-.761-.431-.373-.381-.184-.333-.889-3.416-1.306-2.949-.617-1.036-2.2-5.612-.23-1.1-.065-1.082.95-10.479-.111-1.777-.9-2.059-3.417-6.078-1.093-3.256-.024-2.553.268-2.726-.43-2.392-2.766-7.46-1.625-3.392-.779-1.219-1.776-2.036-9.283-13.66-1.236-1.42-1.058-1.7-1.07-2.753-.214-.91-.009-.608.048-.592.718-3.118,2.007-6,.75-3.267.133-1.788-.068-.864-.765-3.094-.05-.863.127-.84.22-.752.319-.7,1.133-1.863,1.89-4.008.53-2.4.331-7.028.21-.777.321-.678.456-.53.689-.431,4-2.036,1.293-.961.4-.691.219-.815v-.69l-.11-.777-.333-1.529-.506-1.479-.321-.655-.395-.592-.479-.518-.531-.466-1.2-.764-.74-.271-.852-.16-6.521-.518-1.591.208-2.12.615-5.054,2.013-1.114.749-6.191,5.209-.711.442-3.625,1.676-1.678,1.247-3.488,3.451-2.432,2.95-4.289,6.568-1.715,2.11-.568.914-.434.839-.822,2.193-.362.627-1.65,2.311-.693,1.341L6988-1309l-.5.741-2.156,2.243-1.52,2.44-.975.753-1.456.788-3.291,1.248-1.563.42-1.941.294-.716.349-8.556,7.087-.7.432-1.777.839-1.7.369-2.347-.086-.961-.69-.837-1-3.331-6.537-.455-.53-1.058-.973-1.829-1.247-.516-.47-.53-.886-.443-1.231-.516-2.393-.124-1.259.048-1.082.133-.827.063-.875-.048-.89-.248-1.49-.257-.714-1.407-2.69-.739-.9-.707-.655-.674-.333-.668-.232-.6-.286-.359-.208-.372-.384-.16-.356-.144-.6L6941-1333.289l-.288-1.181-.515-1.333-3.145-4.648-1.014-2.074-.321-2.8,7.166-3.342,2.9-2.4,2.159-2.388,2.231-1.926,4.9-3.256,1.333-1.208,1.051-1.271.726-1.133,1.059-1.133,1.246-.53,1.5-.086,1.15.283.983.529.875.6,5.232,4.44,1.059.557,1.5.565,1.566-.023.936-.628.283-.989-.258-1.074-.53-.961-3.675-4.326-1.221-1.776-.465-.973-.742-2.726.012-1.467.206-1.271.719-1.357.952-.9,1.329-.949,1.076-.345.81-.111.879.036,1.688-.157.654-.51.6-.864.355-.961.16-1.1.375-1.157.661-1.385.927-.835.7-.11.875.317,1.2.655,8.892-.05,3.4-.75,1.825-.7,1.395-.717,4.044-2.836,2.366-1.172,5.808-1.934,16.117-2.726,1.812-.628,4.486-2.4,1.3-.867.961-.937.682-.973.419-1.047.183-1.161.261-6.326-1.138-6.436.285-4.463-.111-2.542-1.7-9.569-.665-1.933-.517-1-.322-1.121-.015-1.346.62-1.564.8-.9.977-.444,1.146-.1,2.758.432,6.8,4.145,3.3,1.059,4.912.063,1.845.259,3.6.926,11.582,4.314,3.269,1.577.838.534.886.737.7.776.14.024-2.4,1.016h0l.624,1.243,2.849,1.663,9.262,9.672,1.96,1.33,2.241.972,2.651.793,2.136,1.714.678,2.82h0l-.79,2.726" transform="translate(-6554.043 1954.747)" fill="#7c7c7c" stroke="#f2f1ed" stroke-linejoin="round" stroke-width="1"/>
<path id="path5294" d="M6963.489-1481.921l.81,6.365,1.422,4.318.193,1.023-.009.953-.237,1.737-.086,2.35.139,1.855.281,1.435.318,1.012.321.717,3.109,4.3.516.949.694,1.628.321,1.133.6,4.58.469,1.938.419.9.335,1-.11.875-1.052,2.051-.565,2.667-.8,12.264.181,4.463-.3,5.075-.5,2.106-.571,1.3-1.6,2.906-2.133,4.981-1.822,3.02-.461.569-1.044.9-1.372,1.432-1.317,1.674-1.2,1.914-1.675,4.239-.568,2.444-.307,3.687.059,1.886.162,1.368.3,1.111.758,2.024.818,3.589,1,10.071,1.593,6.711,5.017,11.071-2.686,2.255-2.048,2.922-.435,1.212-.221.921v1.012l1.149,6.809.047,1.231-.122,1.541-.371,1-1.318,2.047.689,3.032,6.759,12.4,1.822,4.416,1.754,2.365,1.11,1.05,1.972,1.083,2.859.777,9.062,2.443,3.688,1.443,2.347,1.22,1.278.973,1.517,1.753,1.776,2.859.85,1.788.4,1.455,1.842,5.388.064,2.256-1.8,2.341-6.251,5.279-1.371,1.455-.9,1.172-.453,1.087-.593,2.192-.506,1.333-.873,1.765-1.208,1.094-1.347.706-4.8,1.255-1.185.012-2-.259-1.468-.059-3.787.38-1.207-.1-1.185-.322-1.049-.482-2.058-1.243-1.958-.949-1.357-.224-1.863,1.134-.558.776-.541,1.137-.453,2.381.01,4.095-.8,6.879-1.985,6.2-.273,2.208.065,1.58.369,1.121.592.922.568.668,1.169.878-4,.514-1.613-.071-2.2-.717-1.506-.306-1.23.062-1.108.232-1.607.592-3.042.58-1.368.483-.926-.89-.186-.753-.171-1.785-.827-1.914.208-1.529.419-1.542.114-1.294-.293-.592-.954-.972-.209-.372.232-.726.495-.306.506-.2.223-.443-.087-3.208-.281-1.428-.594-1.443-3.9-6.424-2.9-7.656-.785-1.212-1.936-1.749-.052-.4-.764-1.886-.369-.616-1.022-.678-3.381-1.259-2.119-1.847-4.056-2.024-1.751-1.875-2.9-6.251-2.529-3.859-1.036-2.859-.666-1.219-1.871-1.311-3.271-1.96-1.489-1.542-.925-.454-.419-.052-.927.063-.651-.047-.977-.2-.987-.554-.526-.384-.289-.38-.145-.334-.3-1.145-.133-.345-.372-.607-4.723-4.758-.58-.839-1.187-2.664-.367-.6-.469-.989-.331-.541-1.446-1.777-.566-1.071-.162-2.086.075-.937.456-1.4.236-.479.205-.349.278-.282.354-.219.656-.286.178-.1.228-.208.8-1.2.065-.49-.127-.345-.322-.185-.823-.333-.188-.173-.1-.246-.086-.557.136-.334.286-.219.956-.357.212-.212.323-.392,1.589-2.565.149-.172,3.564-5.4.333-.408.382-.3,1.194-1.306.682-1.27.227-.6.03-.478-.148-.69-.187-.533-.075-1.271.432-6.338-1.023-7.247-.27-2.392-1.4-3.726-.281-1.232-.111-1.208.126-1.271.393-1.827,1.729-5.251.416-.542,1.231-.925.58-.714.545-1.322.162-1.035-.018-1.157-.529-3.848-.269-.879-.985-1.933-1.652-2.231-.915-2.773-1.282-6.452-2.765-5.13-.961-2.49h0l1.9-1.259.645-1.142.086-1.36h0l-.065-1.4v0l.187-1.3,1.022-1.639,1.1-1.345.188-1.133h0l-1.694-1.031-.862-1.345-.567-2.62-.083-2.651h0l.59-1.486,1.305-1.075.6-1.385.681-3.094,4.324-8.989.755-3.138h0l-.064-4.192v0l.349-1.169.714-.737.792-.208.859-.067.913-.279.988-.545.3-.294h0v-.482l.69-5.232.517-1.345.73-1.369.426-.326.865-.4.568-.361,1.74-1.674.432-1.357v0l-.915-4.557v-.894l.035-.361.333-.121.9-.153.543-.4.052-.686h0l-.3-1.435-.022-2.537v0l.16-1.373.466-1.447,1.308-2.839.1-.282.925-2.887.543-3.047.037-.776v0l-.433-1.38-.06-.443v0l.775-1.338,1.192-.36,1.481.208,3.073.851.887.71.531,1.059.985,4.533.679,1.278.959-.455,1.135-.91,1.25-.274,1.1-.455.65-1.447h0l-.149-1.941-.9-1.011-1.109-.789-.827-1.286h0l.015-1.546.833-1,2.581-1.91.887-1.247,2.18-4.184,1-1.083,3.428-2.839,7.178-9.551,5.216-4.533,1.333-.678,2.783-.965h0l.012.086,1.1,7.687,1.627,5.447.246,1.353.233,5.84.2,1.2.245.973,3.531,6.114,2.035,4.844.766,2.687" transform="translate(-6702.075 1725.235)" fill="#7c7c7c" stroke="#f2f1ed" stroke-linejoin="round" stroke-width="1"/>
<path id="path5296" d="M7101.15-1562.769l2.911,3.134.94.729,1.523.655,2.421.525,1.166.416.72-.055.8-.624,1.765-2.8.853-.2,1.476,1.306,1.011,1.412,2.418,4.883h0l-1.951,1.471-.551.946h0l1.257.428.725.083,1.393.36,1.767.165.441.212.294.3.506.364.359.341.21.361.431.259.971.047.362-.173.454-.341.577-.338.772-.157.676.541,2.009,3.353,2.984,3.129,1.852,1.444,4.3,2.568.838.733.935,1.044.617.984.384.161.958.035.359.3.146.7.091.816.135.631,3.387,7.26h0l-.17.49-.912.788-.321.6-.024,1.353h0l.479,1.02,2.4,2.643.483.318.692.208,1.231.035.544.24h0l-.551,1.129v0l.413.816.718.749.393.89h0l-.419.777-1,0-1.134-.2-.89.16-.483.82v0l.436.643,1.76,1.177.719.945,1.009,3.189,1.578,2.055,1.888,1.028,4.23.765,4.328,1.643,1.933-.062,1.1-2.063.813.753,1.656,4.9.344.6.58.479.874.361.4-.111.369-.36.775-.369.26-.3.245-.455.357-.184.594.5.074.584h0l-.655,1.239h0l.1.581.961.513,2.218-.5,1.17.42.405.659,1.1,2.8,1.271,1.985.688.737.986.647,1.888.659,1.13.243.852.016,1.186-.659,1.15-1.788,1.058-.4.595,1.27,1,1.075,1.34.745,1.641.275.789.228,1.34.993,1.681.482.37.628.175.777.515,1.1.111.769.124.321.28.059.955-.125.27.066.22.5.139.6.075,1.522.142.485.332.569.4.459,1.111.514v0l-.345.737-1.111,1.346v0l.655,1.063,2.639,1.224.791,1.227,1.489,1.1.553.757.126.694v0l-.014.749h0l.1.919.753,2.945v0l-.074,1.342-1.716,1.019-.615,1.067-.814,2.334-.15,2.721h0l1.419,1.753,4.59,2.789.109.263.235.941.1.239.331.058.776-.1,1.014.114.774-.04.866.122.885.564,1.7,1.537.727.1.545-.781,1.148-1.1,1.082-.141,2.369.616.456-.236.294-1.871h.717l1.9,2.11.691.486.655.286.591.385.479.769v0l-.53,2.62h0l.386.974,1.675,1.96.409,1.18h0l-.151.651-.714,1.773-.1.989v0l.271,1.1.478.937,1.226,1.812.488,1.31.385,1.623.552,1.474.95.887h0l-2.081,3.42-.669,1.537-2.577,2.306-.639.769-.235.463-.085.7h0l.148.7.667,1.067.144.419.22.357.977.733.224.377.347,2.11.174.538,1.171.78,3.092.764.629.624.432,1.506.936-.839.84-1.592.172-.757,4.88,2.666.235.392,1.026.9,1.208,3.259.676,1.185.556.439h.655l3.007-.6.972-.36.852-.8,2.024-.718,1.76-.875,1.185.413,1.859,1.313.187-.862.344-.663.583-.506.875-.416.358.5.3.616.2.729.248,1.84.419.165,1.174-.393.9-.834,1.86-3.856.888-1.134,1.31.2,1.245.667,3.219,2.588,1.341.419,7.262,1.138.645.545.37.854.936.851,1.262.663,1.306.3,1.591-.126,2.833-.749,1.654-.176.6-.184.2-.491h0l-.064-1.447v0l.374-.291,1.823-.368.716-.059,4.575,1.052,1.063-.333,3.129-3.565,1.972-1.707,1.983-.765,2.307-.031,4.45.627,1.25-.31.874-.862.323-1.569.527-.553,3.341-2.577,2.567-3.886.345-.729.712-.052,4.134-2.6,1.538-.7.545.376v0l-.11,2.486h0l.616,1.2,1.371-.216,2.375-1.219,1.679.295,1.394.838,1.319,1,1.466.792,4.081.831.8.612.345,1.326.089,2.945.493,1.075,1.132.545.545-.832.7-2.647.988-1.008.719.255,1.245,2.2,1.676,2.121.258.722h0l-.2.6-.973.875-.283.537h0l.8,1.478,2.4-.51,5.081-2.455.544.973,1.318-.31,1.488-.776,1.052-.412.765.185.854.623.749.244.768-.153,1.344-1.039,2-1.016,1.371-3.333,1.61-.757,1.978-.349.923.027,1.788,1.059.884.191.828-.089.64-.362h0l-.64-1.788-.162-1.608v0l.754-.989,2.037.055,3.007,1.271,1.772.338,1.472-.647,2.155,1.3,3.675,3.9,2.443,1.592,2.612.926,1.317.31,1.842.235.365.353.162.553.012,2.043.258.145,2.245,1.843.434.764.094.714v0l-.008.973h0l.135.87.483.373h2.934l.541-.287.062-.67v0l-.062-.8h0l.188-.648,1.231-.783.925.576.877,1.02,1.095.541,1.2.153,1.346.412,1.24.616.888.745.409.769.258.721.386.6.833.4.742-.062,1.669-.718.785-.18,1.517-.02,1.516.165.888.686v0l-.331,1.526-.347.227-1.207.455-.334.325v.008l.037.588.343.647.444.518.362.207,1.738-.462,1.415-.859,1.374-.448,1.548.765.889,1.3,1,3,.789,1.258,1.318.5,1.185-.549,1.206-.345,1.411,1.095.208.7v0l-.025.718h0l.122.611.653.373.617-.156.381-.588.321-.753.391-.647,1.459-.957.766.518.909,3.109.457,1.04.6.855.8.631.4.133v0l-.012.051-1.594,2.51-46.892,72.786h.013l3.081.33,9.619,5.023.763.514,3.79.942,1.887.02,1.823-.781,2.787-2.53,1.526-.917,2-.216,2.726.949,2.661,1.926,2.32,2.423,1.7,2.412.873,2.482.4,2.53.749,2.322,1.893,1.886,7.176,3.643,2.128,1.722,1.445,1.667,1.232,1.82,1.971,3.922v0l.176,1.965h0l-.653,1.882-1.259,1.671-2.369,1.718-1,.141-1-.259-.878-.62-.877-.867-.378-.517-.33-1.761-.771-1.29-1.414-.521-1.594.149-1.3.69-.919,1.29-1.163,2.675-1.354,1.177-.775-.989-.564-1.126-.477-.662-.551-.134-.627.031-.681-.207-3.5-2.757-.69-.93-.123-1.282h0l.637-2.662h0l-.119-1.439-.547-1.028-.833-.929-.893-.263-1.307,2.031-.864-.259-1.774-1.565-1.181-.482-1.038-.1-1.011.232-1.111.505-2.907,2.322-1.063.345-.74-.444-.214-1.034-.338-1.032-1.111-.431-1.121.58-.481,1.2-.295,1.275-.614.745-3.357-1.961-.049-1.051v0l.259-1.3v0l-.1-1.016-1.122-.24-1.145.467-.639.789-.793,2.153-.775.592-1.281-.024-4.4-1.192-.742.09-3.379,1.632-.913.819-.224.949v0l.6,1.714h0l-.21.663-1.1.361-1.1.529-.531,1.052-.381,1.266-.7,1.153-2.121,2.059-.888,1.133-.654,1.357-1.467,1.49-1.5-1.357-1.108-1.313-.321,1.572-1.366,1.129-3.716-1.53-1.736.678-.95,1.6-.644.388-1.107-.184-.59-.534-.754-1.6-.467-.435-1.17.659-1.041,1.659-.937,1.075-1.96-2.177-1.637-.325-1.679.38-1.145.992-.189.844v0l.149.695v0l-.023.726-.7.921-.23-.051-.39-.192-.481-.1-.447.224-.631.832-.258.243-.974.408-.555-.432-.457-.745-.665-.545-.977-.11-3.273.494-2.162.02-1.06.145-.971.412-.482.608-.444,1.553-.385.427-.552-.039-1.789-.369-1,.09-3.234,1.385h0l.275-1.486h0l-.731.212-1.424,1.419-.9.313-.617.06-.57-.278-.722-.714-1.134-.847-.731.224-.815.573-1.354.2-.8-.247-1.617-.75-.75-.074-.581.294-.185.462-.084.479-.272.318-.5.141-5.856.651-1.206.337-1.836,1.29-3.34,3.228-2.1.655-1.157,1-.658.431-.579.149-.7-.259-.658-.322-.6-.035-.531.58-1.271,2.573-.811,1.024-1.345,1.113-3.935,2.168-3.589,2.664-1.268.741-1.3.431-.936.036-2.652-.381-.863.22-.346.482-.183.518-.367.38-2.937.788-.762.828-.522,3.859-.747,1.149-1.163.8-1.529.812-.385.086-.973.028-.332.126-.209.393-.039.431h0l.026.38h0l-.074.263-.367.651-.226.616-.43.408-1.048.035-1.322.2-1.283.569-1.1.835-1.744,1.887-1.96.913-.91.9-.322.765-.049.678-.186.628-.688.632-.667.184h-3.82l-1.483-.419-1.33-.157-.89.69-.91,1.157-1.223.542-2.9.545-.368-.028-.9-.282-.359.024-.206.36-.053,1.031-.081.275-.989.529-.558.126-.937.035-1.7.443-.294,1.047h0l.505,1.247.657,1.036.383,1.1.377,4.314h0l-.12,1.133-.618.988-.776.96-.54,1.012-.471,3.047-.3,1.106-2.1,4.357-.654,2.29h0l.306,2.346.629,2.267h0l-.012,1.984-1.171,6.538-.727,2.082-.994,1.961-7.4,9.79-2.443,2.231-4.039,8.965-1.559,2.491-1.122,2.651-.039,3.255h0l.656,1.725,3.427,3.863.408,1.219.741,5.683.419,1.627,1.548,3.22.485,1.639h0l-.015,1.541-.318,1.578-1.15,2.9-1.676,2.934-1.945,2-2.456,1.306-3.192.816-5,.059-1.532.518-2.528,2.259-2.775,1.7-4.81,4.133-5.722,3.279-3.549,2.836-1.987,1.184-.934.8-.839,1.784-.692.891-2.971,1.835-.766.839-.432,1.2-.158,3.911-1.74,6.447-1.025,2-.4,1.753h0l.254.663.248.69.121.322,4.9,7,.712,3.008.593,1.346.213,1.294h0l-.83,1.431-1.173.691-1.38.208-2.8-.133-1.812.133-1.243.4-2.577,1.565-1.576.592-1.324-.086-2.874-1.122h-1.552l.01.012.234,1.271,2.06,3.467.433,1.811h0l-.4,1.17-.554,1.074-.062,1.541-.909,1.565-.924.38-.14-.024-.7-.776-.887-.737-.837-.533-3.267-1.578-11.583-4.314-3.6-.926-1.845-.259-4.912-.063-3.3-1.059-6.8-4.145-2.758-.432-1.146.1-.977.444-.8.9-.619,1.564.015,1.345.322,1.121.518,1,.666,1.933,1.7,9.569.111,2.542-.285,4.463,1.137,6.436-.26,6.326-.185,1.161-.418,1.047-.682.973-.96.937-1.3.867-4.486,2.4-1.812.627-16.117,2.726-5.809,1.934-2.366,1.172-4.044,2.836-1.4.717-1.824.7-3.4.75-8.891.05-1.2-.655-.875-.317-.7.109-.926.835-.661,1.384-.376,1.157-.16,1.1-.354.961-.6.863-.655.51-1.687.157-.879-.036-.811.11-1.076.345-1.327.949-.952.9-.719,1.357-.206,1.271-.011,1.467.74,2.726.467.973,1.22,1.776,3.675,4.326.531.961.257,1.074-.282.989-.938.628-1.565.023-1.5-.565-1.058-.556-5.234-4.44-.874-.6-.984-.529-1.149-.283-1.5.086-1.246.53-1.058,1.133-.726,1.133-1.052,1.271-1.333,1.208-4.894,3.255-2.233,1.926-2.159,2.388-2.9,2.4-7.167,3.342,1.519-5.491,1.952-6.828.638-3.91.63-3.576.443-1.33.519-1.086,6.757-8.149.657-.961.48-1.063.369-1.208-.027-1.76-.281-2.456-2.37-7.165-17.224-36.462-1.542-4.584-.852-3.616-.479-4.055.984-15.6-.2-2.467-.483-1.518-.483-1.133-.64-1.949-.071-.541.05-.592,1.208-3.859,3.562-7.546,2.257-3.393,1.44-1.173.966-.416,1.489-.47,1.506-.212,1.938-.008,1.747.282,2.7.765,1.447.628,2.144,1.357,1.787,1.467,6.155,7.695.8.725.908.47,1.076.11,1.045-.161.991-.478.736-.632.583-.823,1.389-2.847,3.666-5.4.493-.938.3-.851,1.345-5.733.047-.69-.131-2.636,2.074-20.393-.039-.879-.139-.914-.258-.887-.443-.973-1.405-2.529-.58-.753-4.856-4.87-2.171-1.295-4.428-1.737-3.87-.961-8.708-1.828-4.636-.282-6.484.471-2.886.6-1.406.086-1.563-.109-2.564-.9-1.473-.777-1.232-.925-5.611-5.745-1.7-2.4-1.619-1.863-1.021-.765-1.163-.615-1.5-.31-1.185-.072-2.121.691-10.384,7.275-1.947.949-2.106.467-1.358.05-1.44-.125-1.985-.64-1.335-.592-2.091-1.42-2.226-2.369-1.685-3.239-2.267-7.106-1.141-2.217-1.983-2.369-3.622-2.725-1.854-1.122-1.616-.764-2.428-.749-14.722-.707-2.046-.467-2.79-1.455-3.683-3.083-1.7-1.851-.63-.914-2.709-2.353-4.527-2.381-8.348-3.192-1.875-1.11-3.145-2.318-1.479-1.789-5.014-11.071-1.595-6.711-1-10.071-.817-3.588-.758-2.024-.3-1.11-.161-1.368-.06-1.886.308-3.687.566-2.444,1.676-4.239,1.2-1.914,1.318-1.675,1.37-1.431,1.045-.9.461-.569,1.821-3.02,2.134-4.981,1.6-2.906.57-1.3.506-2.106.3-5.075-.181-4.463.8-12.263.563-2.667,1.054-2.051.11-.875-.334-1-.419-.9-.468-1.938-.6-4.581-.322-1.133-.694-1.628-.515-.949-3.11-4.3-.319-.717-.32-1.012-.28-1.436-.139-1.855.087-2.35.235-1.737.01-.953-.193-1.023-1.423-4.319-.81-6.365-.766-2.687-2.035-4.844-3.531-6.114-.245-.973-.2-1.2-.232-5.84-.245-1.353-1.629-5.448-1.1-7.686-.011-.086h0l79.8-27.752,1.052-.627,3.171-1.906,37.875-28.826,31.185-36.1,3.895-3.6,1.152-1.373.529-.632.908-2.443,10.457-40.776.444-.623,2.012,1.835.971,1.11.409.71.7.557,1.614.048,3.008-.365h3.357l.64-.047h0l-.021-.466-.518-.7-.68-.6-.545-.8-.134-.655h0l.109-1.22h0l-.012-.627-3.155-10.636h0l.022-.886.459-1.263.149-.718h0l-.038-.71-.3-1.3-.076-.69h0l.322-.843.75-.494.815-.42.047-.02.644-.67.148-.624h0l-.1-.534-.171-.513-.056-.577h0l.218-2.765v0l-.254-1.306-.809-1.251-.318-.11-.668.338-.354-.067-.284-.341-.354-.8-.312-.33-2.76-2.13-.293-.42-.4-.227-.876.078-.732-.126-.812-.5-1.321-1.236L7071-1544.6l-1.311-2.993-2.276-7.961-.8-1.028-1.134-.7-1.518-.5-.874-.444-1.492-1.388-.864-.522-.692-.09-1.517.114-.665-.145-.642-.729-.7-1.384-.333-1.549h0l.394-1.223,1.037-.345,1.269.329,1.306.522,1.1.207,1.264-.125,1,.012.958.224,5,2.67,1.827.176,1.911-1.259.588-.047,2.432.337,1.137-.051.934-.318.912-.443,1.606-1.13.835-1.078v0l1.076-.364,1.12-.863.876-1.04.354-.9.248-1.365.68-.73,1.087-.228,1.429.153,3.192.859,1.492.745,1.346,1.067,2.782,3.8.827.785.606.207,1.248.035.649.192.446.337" transform="translate(-6651.08 1570.954)" fill="#7c7c7c" stroke="#f2f1ed" stroke-linejoin="round" stroke-width="1"/>
<path id="path5298" d="M7033.959-1342.194l1.95,3.365,2.7,3.307.471.839.355,1.938.347.9.754.988.467.443.244.53.075,1.259-.344,1.98.3.855,1.231.346.779.455.417,1.024.518,2.008,3.859,5.094,1.033.828.087-.385.248-.69.1-.392,1.16.675,3.438,3.553.605.984.593,2.49.506,1.259,1.069,1.651.287.926.222,2.639.716,2.639.4.529.477.53.5,1.224,1.025,3.721.321.691.578.3.675.219.5.506.159.495-.309.219-.661,1.236,1.4,5.635-1.011,1.565v.491l1.2.521,2.427,1.38,1,.851,1.507,2.8.431.427,2.23.741,2.062,1.777,3.646,4.573,1.83,3.2,1.33,1.42.31.949.528.6,3.395,2.106,1.909,1.777.5.753-.322.738-.625,2.109-.5.753-.678.392-.789.011-2.438-.6-.939-.11-1.184.016-.89-.141-1.4-.577-.708-.173-6.764-1.051-2.023-.961-2.871-2.91-1.134-.9-12.322-7.832-1.406-1.22-.925-1.576-.91-1.023-.828-.471-.824-.133-.665.259-.471.541-.311.691-.5,1.541-.688,1.235-.112.651.183.694.938,1.466-.506,1.33-1.564,2.035-.348,1.047-.1.984.337,2.553.174.655.751,1.444.111,2.554.663,2.749.31,4.969.271,1.173,1.041,2.216.535.765.644.419,1.172.208.692.2.616.333.538.467.438.569,1.539,2.612,1.491,1.886.023,1.04-.4.341-.774.373-3.044.816.344,1.675,8,15.217.579,4.8.891,3.083.581,1.478.526,1.075,1.717,2.294,2.244,3.663.345,1.193.121,1-.052,1.133.4,3.023.069,2.859-.562,4.993-.438,4.463.086,1.31,1.73,3.019,1.124,2.157.1,1.691-1.677,6.078-.531.776-.761.283-1.642-.122-.725.1.07.495,2.779,7.655,1.02,1.1,1.256-.271,1.951-.545,2.184-.168.714-.2.6-.4.432-.564.679-1.381.418-.6,1.515-1.49.409-.6.333-.674.236-.765.292-.706.483-.431.691-.011.74.2,1.639.651,1.111.334.9.126.75.023,1.666-.176,1.672-.318,3-1,1.519-.318,1.207-.125.642-.259.575-.385,1-.973.715-.259.792-.063,1.2.091.912-.091.74-.282.453-.542.669-1.161.516-.725,2.046,1.047,1.467,1.1,1.743.921,2.279,1.816.861.569,4.613,2.141.188,2.334.676,1.714-.1.674-.467.443-.666.325-1.552.443-.9.11-.9.012-3.193-.431-.9.063-.83.2-1.355.568-.627.381-.505.431-.419.471-.716,1.086-.405.812-.606,3.341.532,1.541,1.01,1.27.443.984.114.914-.075.828-.421,1.11-.493,2.823-.321,3.624-.689,2.957-.852,1.137-4.171,3.918-.55.757-2.283,4.514-.851,1.192-.468.483-.558.333-.529.086-.581-.074-2.131-.749-1.6-.385-1.554-.125-.754.1-.666.255-.417.6-.371,2.184.224,3.031.341,1.459.1.675-2.924.075-5.3-.64-1.4-.459-.625-.333-2.125-.836-8.308,3.761-3.083.764-3.218.168-7.325,1.138-7.493-.122-1.312.282-.924.431-.519.53-2.811,4.349-.865,2.2-.5.718-.742.615-5.412,2.851-1.128.121-.736-.3-.3-.616-.1-.765.009-.678.548-3.244-.1-.725-.342-.569-.418-.455-.4-.545-.064-.145-.052-.263-.169-2.043-.172-.753-.644-.615h-.65l-.665.243-1.714,1.3-1.752.937-1.666.6-.937.208-.765.075-1.355-.185-1.542-.443-.726-.333-.644-.357-.593-.432-2.416-2.628-.378-.62-.288-.674-.156-.691-.065-1.541-1.407-.949-2.714-.9-.8-.655-.455-.777-.147-.835-.431-1.22-.7-1.431-1.663-2.581-.619-1.427-.14-1.1.235-.714.152-.69-.152-.655-.515-.42-.7-.235-2.61-.466-5.368-1.812-5.385-.875-1.971-.705-.707-.495-.492-.627-.285-.69-.148-.616-.125-.909,2.394-6.342.136-1.122.036-2.427-.209-2.679-.248-.851-.353-.749-1.248-1.765-.973-2.059-1.323-1.53-.652-2.106-.183-2.219-.275-1.322-.317-.949-.458-.553-.5-.494-3.086-2.172-.664-.624-.679-1.1-.008-.917.477-1.946-.282-.666-.5-.53-.64-.568-.641-.691-.827-1.156-.615-.718-.676-.568-.718-.243-.79-.059-.667.243-.58.42-1.7,2.341-.5.482-.618.392-.65.239-3.709.69-.644-.172-.3-.558-.2-1.835-.877-3.086,1.468-2.906-.022-.729-.1-.9-.7-1.29-.428-.569-.516-.505-3.034-2.059-.571-.593-.567-.753.534-1.357.591-1.133.813-1.1,2.627-5.141.433-1.38-.38-1.286-1.311-2.882-.01-1.208.271-1.121.321-.754.729-1.207.725-1.455,1.7-1.11L6960.9-1211l11.853-2.392,3.83.2,1.123-.122.581-.482.517-.977.3-1.306.748-8.57-.531-3.745-1.667-4.922-2.576-5.761-.38-2.228.22-5.573-.394-1.208-.529-.937-.273-.373-.4-.454-.52-.471-1.184-.852-.5-.49-.378-.593-.27-.639-.275-.851-.135-.239-.306-.4-1.123-.816-2-1.059-.591-.432-.4-.494-.23-.592,2.007-6.8.322-.471.466-.271,3.577-.863,2.674-1.122.72-.1.688.1.625.432.458.58,1.061,2.169.347.506.75.419,1.087.333,2,.161,1.064.368.852.408,1.454.11,2.518-2.581.369-.589-.2-.384-1.053-.318-.909-.137-.878-.282-.64-.287-1.667-2-.49-.663.307-.644.89-.765,3.429-1.937.925-1.008,1.167-2.111.434-.517.506-.271.544.109,1.232.64.725.161.79-.074,1.528-.369.828-.087,1.466.012,2.509-.494.983-.417,1.195-.8.579-.984.161-.851-.061-.679-.208-.679-.632-1.306-.389-1.592-.066-.887.024-.879.133-.823.264-.729.38-.639.494-.506.569-.419.674-.334.89-.12,1.075.172,1.512.823,2.236,1.592.539.259.458.087.566-.792-.095-1.772-.224-1.134-2.036-5.083-1.763-1.737.4-2.267.049-.667-.319-2.255.521-.443.206-.125.224-.063.978.125.119-.027.087-.083.086-.251v-.333l-.038-.353-.012-.361.112-.31.393-.7.086-.345.053-.427v-.929l-.106-.887-.291-.753-1.605-3.157-.345-1.035-.109-.714.28-.741.138-.875.023-1.443-.171-.823-.4-1.075-.718-1.2-3.579-4.4-1.34-2.106-.384-.725-.816-2.086-.182-.306-.356-.322-.524-.282-1.033-.286-.58-.012-.456.09-.617.341-.359.137-.4.1-.431.024-.692-.471-.505-.443-2.617-4,1.656-3.9,1.924-6.165.454-.828.632-.886,2.515-2.479,4.634-3.4,1.306,1.458.3.455.419,1.048.347,1.231.119.286.2.294.233.247.553.3,2.416.847.744.372.488.346,1.419,1.576,1.123.891,1.028,1,.586.42.754.334,3.045.91.542.051.689-.051,1.247-.431,1.063-.627,1.77-1.762.914-.565.678-.322.506-.09.642.04,1.146.357,1.076.53.271.223.565.282,1.037.047,2.982-.306" transform="translate(-6509.537 2211.942)" fill="#7c7c7c" stroke="#f2f1ed" stroke-linejoin="round" stroke-width="1"/>
<path id="path5300" d="M6942.6-1293.873l-.594-.4-.779-1.248.5-2.051-.038-2.874-.222-2.483-1.2-2-3.709-3.773-5.057-3.612-4.07-1.7-.776-.051-.256-.369-1.235-1.157-.444-.705-.162-1.013.184-.627.294-.54.127-.777-1.111-2.847-2.477-1.828-1.814-.557.307-.945.173-1.863-.334-1.687-2.008-1.411-.367-4.845-.593-1.627-.545-2.158-.307-.714-1.1-1.69-.4-1.494-.428-3.071-.664-1.392,1.748-.678v-1.432l-1.217-3.067-.161-.753.148-.039,1.924-1.392,1.847-.529.226-.224-.092-.4-.148-.373.051-.565.236-.667.755-.443.527-.667.692-1.036.7-2.392.2-.236.317-.2.875.11.559.311.5.407.568.369,1.014.988.282.407.036.369-.3.652-.235.839-.5,1.282.065,1.514.245.361.307.293,1.464.385.632-.086.468.086.21.211.019.836.572,1.738.644.764.442.42.374.444.782.435.458-.141.68-.577.408-.6.885-.31,1.157.125,1.408.495,1.876.168.713.333.188.321-.334.6-1.874,2.467-.47.247-.788.109-.531-.035-.5.071-.478.2-.326.506-.094,1.1-.4.666-.728.726-.406.3-.112.538v.757l.188.862.417.283.716-.075.75.048.2.474.045.427-.315.478-.267.251-.182.345-.135,1.157.037.483-.01.369.061.36-.051.451-.221.666.185.915.248.356.231.063.288-.063.616.028.58-.185,1.943-.843,1.128-.255.579-.286.452-.542.532-.443.778-.31.5-.294,2.724-2.726.876-1.134h.471l.923.542.613.517,1.616,1.655.262.443.232.49,1.048,1.541.208.706.09.588-.691.926-1.249.863-.552.086-.468.149-.829.569-.208.663.084,2.219.3.31.266.209.483.039.719.172,1.354,1.075,1,1.008,1.039,1.333.156.456-.206.109-1.949-1.007-.37.023-.5.4-.7.408-.271.844.371.886.887.91.333.666.1.828.453,1.023.519.675.511.361.242.356,1.246,2.255.627.705.666.553.226.431.108.541-.148.557-.069.639-.583,1.667-.728,1.059-.208.741-.31.542-.311.333-.3.581-.278.393-.205.718-.112,1.255.173.286.23.266.323.164.053.259-.2.346-.3.38-.568.459-3.969,1.7-.582,1.965-.012.828.075.725-.063.848-.355.827-.925.9-.579.369-.528.208" transform="translate(-6618.961 2180.094)" fill="#7c7c7c" stroke="#f2f1ed" stroke-linejoin="round" stroke-width="1"/>
<path id="path5302" d="M7039.155-1342.495l-4.636,3.4-2.515,2.479-.632.886-.454.828-1.923,6.165-1.656,3.9,2.617,4,.506.444.692.471.43-.023.4-.1.359-.137.617-.341.457-.091.58.012,1.032.286.524.283.356.322.181.306.816,2.086.384.725,1.34,2.106,3.579,4.4.718,1.2.4,1.075.172.823-.023,1.443-.138.875-.281.741.11.714.345,1.035,1.605,3.157.292.753.1.886v.93l-.053.427-.087.345-.393.7-.112.31.013.361.038.353v.333l-.087.251-.087.082-.118.027-.977-.125-.225.063-.207.125-.521.443.321,2.255-.05.667-.406,2.266,1.765,1.738,2.036,5.083.224,1.134.093,1.772-.564.792-.458-.087-.54-.259-2.235-1.592-1.512-.823-1.075-.172-.889.121-.675.334-.569.419-.494.506-.38.639-.262.729-.134.824-.025.878.067.887.389,1.592.632,1.306.208.678.062.679-.161.851-.58.984-1.193.8-.984.416-2.508.494-1.467-.012-.827.087-1.528.368-.788.075-.727-.161-1.232-.64-.545-.11-.506.271-.434.517-1.165,2.111-.926,1.008-3.43,1.937-.89.764-.306.644.49.663,1.667,2,.639.286.877.283.91.137,1.054.318.2.384-.37.588-2.518,2.581-1.455-.11-.852-.408-1.063-.369-2-.161-1.089-.333-.75-.419-.347-.506-1.06-2.168-.457-.581-.626-.432-.688-.1-.718.1-2.675,1.122-3.578.863-.465.271-.323.471-2.007,6.8.23.592.4.493.592.432,2,1.059,1.124.816.306.4.134.239.275.851.271.64.378.592.5.49,1.184.851.519.471.406.455.273.373.528.937.394,1.208-.221,5.572.381,2.228,2.575,5.761,1.667,4.922.531,3.745-.749,8.569-.3,1.306-.518.977-.58.483-1.123.122-3.831-.2-11.852,2.393-2.909,1.306-1.7,1.11-.726,1.455-1.36-1.863-1.5-1.243-1.274-.706-.986-.341-.9-.211-2.091-.087-1.979-.431-3.2-3.463-3.835-2.651-1.281-1.258-.961-.545-.666-.271-2.675-.235-.984-.2-1.383-.518-1.011-.6-1.2-.926-.829-.466-4.131-1.679-.849-.8-.615-.753-.633-1.317-.212-.655.114-.678.691-1.2.161-.69-.161-.69-1.085-1.863-.221-.725-.113-.6.173-.937,1.039-1.247,2.232-4.255-.075-1.008-.26-.765-.706-1.31-1.353-3.365.8-1.11.94-1.058.775-1.235,2.087-5.165-.437-.8-.64-.436-.766-.306-2.589-.184-1.565-.322-3.636-1.541-2.342-.581-1.457-.121-1.483.039-4.859.244-1.968-.455-.493-.494-.312-.639-.075-.777.124-.8.263-.737.71-1.3,1.25-1.773.319-.69.23-.8.267-1.78.241-.789.447-.564.578-.4,1.407-.6.617-.592.454-.875.323-1.593.036-1.145-.07-1.013-.916-3.984.086-1.047.392-.726.545-.443,2.711-1.271.715-.568.7-.824.754-1.58.317-.937.1-.494-.087-.271-.175-.345-.479-.725.913-2.616.839-4.4.542-1.309.591-.864,2.464-1.443,3.036-2.836,1.85-2.526,1.627-3.255.009-2.11v-.753l.3-1.427.309-.765.407-.616.768-.4.64-.185.7-.345.556-.58.456-1.048.58-1.827.49-.784.753-.918,5.378-5.435.875-.616,1.269-.443.988-.2.9-.283.691-.753,2.122-3.157,1.678-.973,4.487-1-.615-.271-.116-.1-.219-.223-.541-.9-.137-.31-.248-1.7-.737-1.317-.125-.322-.148-.741.187-.133.357-.122,1.11-.234,1.455-.506.761-.6.557-.6.4-.592,2.462-4.738.172-.784v-.855l-.247-1.686-.218-.765-.323-.655-.48-.518-1.648-1.357-.846-1.184-.33-.651-.257-.694-.052-.7.249-.627.47-.506,1.589-1.38.4-.518.3-.545.436-.946.357-.51.49-.317.754.306.494.459,1.283,1.887.5.455.537.4.528.321.925.443,1.421.517,1.008.134h1.155l1.754-.318,2.748-.851.9-.074,1.122.247.852.306.973.235,1.1.075,1.582-.047,3.551-.937.483-.3.3-.318.475-.988.412-.706.446-.5.3-.2.322-.172.506-.063.681.039,2.875.69,1.833.2,1.284.651,3.178,2.479,2.112-.028.444.039.7.455,4.549,4.428,3.7,2.934" transform="translate(-6544.94 2202.858)" fill="#7c7c7c" stroke="#f2f1ed" stroke-linejoin="round" stroke-width="1"/>
<path id="path5304" d="M7022.233-1252.039l-.73,1.208-.322.753-.27,1.122.009,1.208,1.313,2.883.38,1.287-.434,1.38-2.626,5.142-.813,1.1-.591,1.133-.533,1.357.566.753.57.592,3.036,2.059.515.505.428.569.7,1.29.1.9.023.729-1.467,2.906.876,3.087.2,1.835.3.557.644.172,3.709-.69.649-.239.619-.393.5-.482,1.7-2.341.582-.42.666-.243.791.059.718.243.674.568.616.718.825,1.157.642.69.639.569.5.53.283.666-.478,1.946.011.917.678,1.1.662.624,3.087,2.172.5.494.458.553.317.949.275,1.322.184,2.219.652,2.106,1.322,1.529.974,2.059,1.247,1.765.354.749.247.851.208,2.679-.034,2.428-.136,1.122-2.395,6.342-14.981,9.416-1.715,1.545-2.6,4.608-.519,1.2-.478,1.443-.485,1.071-3.982,6.255-1.355-1.494-.791-.615-1.39-.447-1.405-.231-1.091-.443-.428-1.149-.372-.294-1.638-.505-.456-.432.133-.568.555-.345.693-.283.551-.345.534-2.082-2.062-1.283-2.873-1.235-1.9-1.934,1.366.075.79-.408.306-.73-.085-.886-.319-.667-.493-.667-3.439-3.243-1.42-.651-3.7-.518-1.038-.788-.629-1.259-.623-1.678-3.336-4.832-.5-1.444-.545-.729-2.536-1.714-.791-.8-.112-.483.112-2.291-.273-.533-3.122-2.428-5.829-2.847-2.651-.925-1.05-.737-1.405-1.259-4.155-2.479-1.555-.568-.654-.432-.254-.792-.26-.341-.582-.408-.706-.345-.6-.149-.785-.283-.533-.666-.419-.812-.481-.714-.507-.483-.531-.385-2.946-1.49-1.058-1.051-.58-1.415-.312-3.134-.367-1.122-.593-1-1.6-1.785-.5-.443-.466-.176-.282-.392.292-.886.731-1.456-.431-1.6-1.051-1.122-2.388-1.505-.852-.816-1.374-1.918-.944-1.016-.731-.329-1.739-.177-.7-.258-.471-.542-1.516-2.478,1.995-.616.436-.334.23-.58-.183-.38-.322-.483-.366-2.121-.556-1.577-.852-1.306-1.113-.553-1.158-.408-.593-1-.378-1.145-.531-.91-.929-.545-3.871-1,.35,1.663-.753.533-1.052-.741-1.047-5.452.286-.517.676-.311.528-.776.24-.937-.24-.863.461-.482-.037-.4-.248-.467-.176-.671-.018-1.894.018-.09-.971-4.953.074-.522.223-.541.074-.518-.371-.455-.749-.173-.461.345-.344.518-.379.294-1.125.161-1.071-.012-1.013-.271-.926-.615-.713-1.138.173-1.024.518-1.059.741-2.639,1-.863,1.454-.737.288-.2.641-.063,1.257.04.506.184.025.455-.3,1.075.26.8.655.792.8.686.75.471.322-.937.654-3.071,1.231-2.76.323-1.91.667-1.447.247-1.97.827-2.356.823-2.29,1.2-6.02-.472-5.4-.577-2.663-2.713-5.848-1.2-1.847,3.467-2.525,1.184-1.643,2.588-4.969.616-.749,10.122-8.275.7-.812.481-.792.961-2.381.542-.839.568-.333.471-.035.218.051.124.059.286.173,3.351,1.627,1.7.408,4.824-.173,6.7-.938,1-.321,1.938-1.295,1.875-.835.479.725.176.345.086.27-.1.495-.317.937-.753,1.58-.7.824-.715.569-2.711,1.271-.545.443-.391.726-.086,1.047.914,3.984.071,1.012-.037,1.145-.321,1.593-.454.874-.617.592-1.408.6-.576.4-.446.564-.243.789-.265,1.78-.23.8-.32.691-1.247,1.773-.712,1.3-.263.737-.124.8.075.777.312.639.494.494,1.967.455,4.859-.244,1.481-.039,1.457.121,2.343.58,3.637,1.542,1.563.321,2.589.184.766.306.639.436.436.8-2.084,5.165-.777,1.235-.939,1.059-.8,1.11,1.352,3.365.707,1.31.26.764.074,1.008-2.232,4.255-1.038,1.247-.173.937.113.6.221.725,1.085,1.863.161.69-.161.69-.691,1.2-.115.678.213.655.632,1.317.615.753.849.8,4.132,1.679.828.466,1.2.926,1.011.6,1.382.518.984.2,2.673.236.667.271.962.545,1.28,1.259,3.837,2.651,3.2,3.463,1.979.431,2.092.087.9.211.986.341,1.275.706,1.5,1.243,1.363,1.863" transform="translate(-6576.204 2256.857)" fill="#7c7c7c" stroke="#f2f1ed" stroke-linejoin="round" stroke-width="1"/>
<path id="path5306" d="M7067.1-1366.478l1.292,6.8.726,2.562.4.925,1.911,2.933,1.031.667,1.337.455,2.069.165,2.91-.742,1.377-.725,1.024-.694,1.052-.49,1.284-.224,4.093.208,1.528-.133,1.146-.271,1.307-.753,3.8-1.024,1.09-.149,1.065-.024,2.239-.349,1.07-.271,1.049-.122,3.218.431,2.134-.059,1.036-.334,1.063-.545.959-.737.914-.9,5.361-7.483,2.766-4.848.885-.788,1.048.173,1.563.714,1.543.493,3.306.7.766.259.667.321,1.155.851,1.042.961,2.649,3.307,2.547,4.376,2.382,5.118.074.478.037,2.64-1.532,9.483.052.7.148.863,1.456,4.325,1.07,2.063,1.555,1.91,1.467.949-.605,2.11-3.117,6.855-4.118,6.028-6.621,5.365-2.4,1.514-.521.474-.307.565.11.789.5.369.622.137,1.61-.086.841.1.752.223,2.784,1.18,2.11.534.64.333,1.236.753,1.923,1.514.332.384.322.554.171.717.072.726-.021,1.258-1.026,6.138-.221.616-6.854,10.2-.26.663-.319,1.534-.025.616.218,3.118-.109,1.557-.3,1.561-.492,1.533-1.344,2.671-.407.556-.947,1.036-.555.431-.631.361-2.354.9-8.3,2.291-2.565.333-7.166.125-2.98.306-1.039-.047-.565-.282-.271-.223-1.075-.53-1.147-.357-.642-.039-.505.09-.679.321-.913.565-1.771,1.761-1.062.627-1.246.432-.69.051-.542-.051-3.046-.91-.752-.333-.588-.42-1.028-1-1.123-.891-1.42-1.576-.488-.346-.744-.372-2.415-.848-.554-.3-.232-.247-.2-.294-.12-.286-.347-1.231-.419-1.048-.3-.455-1.305-1.458-3.7-2.934-4.55-4.428-.7-.455-.444-.04-2.111.028-3.179-2.479-1.283-.651-1.834-.2-2.875-.69-.681-.039-.5.063-.324.172-.293.2-.447.5-.415.706-.474.989-.3.317-.483.3-3.551.937-1.582.047-1.1-.075-.974-.235-.85-.306-1.123-.247-.9.074-2.749.852-1.753.318h-1.155l-1.009-.134-1.42-.517-.926-.443-.528-.321-.536-.4-.5-.455-1.284-1.887-.492-.459-.754-.306-.49.317-.357.51-.436.946-.305.545-.4.518-1.588,1.38-.471.506-.248.627.053.7.257.694.329.651.847,1.185,1.647,1.356.48.518.322.655.218.765.248,1.686v.855l-.171.784-2.462,4.738-.4.592-.558.6-.761.6-1.455.506-1.109.235-.358.122-.187.133.148.742.126.321.737,1.318.248,1.7.136.31.543.9.218.224.117.1.614.271-4.487,1-1.678.973-2.121,3.157-.691.753-.9.282-.988.2-1.269.443-.875.616-5.377,5.435-.754.918-.489.784-.582,1.827-.455,1.048-.556.58-.7.345-.64.184-.769.4-.406.616-.307.765-.3,1.427v.753l-3.963-2.984-2.64-1.369-.6-.408-.356-.863-.065-1.192.535-2.243,1.071-2.518.409-1.529.615-6.361-.848-2.651-.954-1.1-5.042-10.679-.863-1.318-.183-1.408,1.333-2.576-.409-1.282-.345-.577-3.417-2.8-5.486-2.024-1.885-1.172-.571-.443-.639-.384-5.676-2.5-.9-.188-1.463.126-.966.208-3.411,1.576-1.248.275-.7-.086-1.013-.864-.691-.827-2.648-6.338-2.391-1.9-1.359-.89-.564-.491-.437-.69-.466-2.161-.554-1-3.173-3.095-.415-.705-.28-1.083-.127-2.863-.6-3.2.012-3.232-.151-.9-.418-.663-.741-.569-1.549-.467-.889.161-1.136.777-.552-.016-.8-.973-.678-.663-1.738-.917-.828-.624-.589-1.1-1.138-1.494-2.317-7.264-.235-1.54-.922-1.507-3.479-3.463-.679-3.106-.552-7.338.342-4.969,4.032.423,1.729-.066,9.126-1.44.628-2.717-.053-1.129-.465-2.616-.264-3.824.14-1.639.318-.839h.348l.418.11.357.153.554.145.678.259,2.95.506,1.662-.047,1.754-.447,1.9-.7,4.709-3.6.9-.4.7.149.405.529.761,1.208.458.471.51.345.418.161.443.087,16.979-.334,15.758-4.98,6.108-1.6,6.935-.1,2.52-.431,2.4-1.145,10.99-2.715.944-.505,1.115-1.184.825-.651,1.591-.863,1.194-.361,1.306-.087.961.126.805.271,2.736,1.291,3.746,2.235,5.18,4.232,1.061.714,2.863,1.392,6.793,1.933,12.5-.22" transform="translate(-6581.473 2133.425)" fill="#7c7c7c" stroke="#f2f1ed" stroke-linejoin="round" stroke-width="1"/>
<path id="path5308" d="M6982.042-1374.413l1.788,2.933.616,1.381,1.271,5.589.57,1.243,1.955,3.369.557,1.244.37,1.082.815,4.542,1.467,2.231,2.122,2.369,1.061,1.675.378,6.216-.218,3.992.159.953.173.663.454.569,3.355,2.1,1.011,1.008.714,1.8.062,1-.124.949-.342,4.969.553,7.338.679,3.106,3.479,3.463.923,1.507.235,1.541,2.317,7.264,1.136,1.494.591,1.1.826.624,1.739.918.678.662.8.973.552.016,1.135-.777.89-.161,1.549.467.739.569.419.663.15.9-.012,3.232.6,3.2.127,2.864.28,1.082.416.705,3.172,3.1.555,1,.467,2.161.436.69.564.491,1.358.89,2.392,1.9,2.648,6.338.693.827,1.012.864.7.086,1.247-.275,3.412-1.577.966-.208,1.464-.126.9.188,5.675,2.5.639.384.57.444,1.886,1.172,5.485,2.024,3.418,2.8.344.576.409,1.282-1.334,2.577.183,1.408.863,1.318,5.042,10.679.955,1.1.848,2.651-.615,6.361-.409,1.53-1.071,2.518-.535,2.243.065,1.193.356.862.6.409,2.639,1.368,3.964,2.985-.01,2.11-1.625,3.255-1.852,2.526-3.036,2.836-2.466,1.443-.588.864-.543,1.31-.838,4.4-.913,2.616-1.875.835-1.938,1.295-1,.321-6.7.938-4.826.173-1.7-.408-3.353-1.627-.285-.173-.124-.059-.218-.051-.47.035-.569.333-.542.839-.962,2.382-.479.792-.7.812L7025.284-1177l-.618.749-2.586,4.969-1.184,1.644-3.468,2.525-1.64-2.517-.958-.675-.937-.443-.95-1.011-4.007-6.095-7.706-7.777-.719-1.322-.18-1.675-.937-2.495-1.238-6.224-.234-3.232-.4-1.121-.742-.867-4.883-4.161-1.329-1.714-3.024-5.946-.652-.937.088-1.938-.066-.662-.553-.706-1.911-1.282-2.543-3.871-.368-.8-.542-.416-1.233-.631-.727-.505.529-.208.58-.37.924-.9.357-.827.061-.848-.073-.725.012-.827.578-1.965,3.97-1.7.567-.459.3-.38.2-.345-.051-.259-.323-.165-.23-.266-.173-.286.112-1.255.206-.717.278-.393.305-.58.309-.333.31-.541.209-.741.728-1.059.582-1.667.071-.639.148-.557-.11-.542-.225-.431-.667-.553-.626-.706-1.247-2.255-.244-.356-.51-.361-.517-.674-.455-1.023-.1-.828-.331-.666-.888-.91-.37-.886.27-.843.7-.408.5-.4.368-.023,1.95,1.007.206-.11-.155-.455-1.039-1.333-1-1.008-1.355-1.075-.718-.172-.483-.039-.265-.208-.3-.309-.083-2.22.207-.663.829-.569.467-.148.553-.087,1.248-.863.692-.925-.092-.588-.208-.706-1.048-1.541-.232-.49-.26-.443-1.615-1.655-.615-.517-.922-.542h-.47l-.878,1.134-2.723,2.726-.505.293-.778.31-.533.443-.45.542-.582.286-1.127.254-1.942.844-.583.184-.614-.028-.286.064-.235-.064-.248-.356-.183-.914.221-.667.053-.451-.062-.361.01-.368-.038-.482.137-1.157.184-.345.265-.251.317-.478-.048-.427-.2-.475-.751-.048-.717.075-.415-.283-.189-.863v-.757l.111-.538.406-.3.729-.726.4-.667.094-1.1.324-.506.479-.2.5-.07.53.035.787-.11.471-.247,1.875-2.467.335-.6-.19-.322-.713-.333-1.876-.169-1.407-.495-1.157-.125-.884.31-.409.6-.679.577-.458.141-.784-.435-.374-.444-.44-.419-.645-.764-.569-1.738-.02-.836-.21-.211-.47-.086-.632.086-1.464-.385-.308-.294-.245-.361-.064-1.514.506-1.282.232-.839.3-.651-.034-.369-.283-.407-1.013-.988-.566-.369-.507-.408-.558-.31-.874-.11-.317.2-.2.235-.7,2.392-.691,1.036-.528.667-.752.442-.235.667-.052.565.148.372.091.4-.225.224-1.849.529-1.922,1.393-.148.04-.162-.777-.788-1.713-1.023-1.369-1.042-.568-.921-.318-.794-.764-1.217-1.593-.232-.494.49-.679-.013-.612-.283-.568-1.223-1.4-.958-1.823-.554-.788-.644-.345-.764-.223-.542-.541-.887-1.232-1.233-.816-3.043-1.381-2.32-1.937-11-5.844-1.826-1.357-1.554-1.678-.618-1.095-.244-1.36.4-1.49.97-.271,1.247.059,1.219-.5.371-1.322-.344-1.784-.655-1.655-1.169-2.243-.31-2.961-.753-.91.421-1.259-.769-.926-1.081-.748-.556-.742.16-.776.691-1.306.16-.866-.173-.306-1.282-1.408.378-1.259-.757-1.675-2.086-3,.145-1.122-.945-1.231-2.1-2.048-1.209-3.8-.776-1.146-.443.494-.505-.643-.546-1.467-.4-.788-.539-.6-1.535-1.368-.825-.961-2.282-4.06,2.077-1.592.366-.2,1.245-.455.642-.31.641-.553.54-.8.581-1.341.3-.914.1-.678-.05-.419-.307-1.181-.087-.694.159-.726,1.038-2.926.146-.761.162-2.823.347-.581.861-.4.854-.145,3.982.443,1.081,1.087.3.407.631,1.452-.358,1.282-.553,1.322-.4.628-.444.556-1.058.922-1.767,1.173-1.033.879-.149.243-.2.506.161.644.58.564,1.219.4.986.074,1.73-.172h.8l.765.27,1.307,1.346.716.565,1.961.8.712.51.432.874.083.686-.132.776-.494,1.447-.145.777-.052.662.086.777.186.718.506,1.4.162.741.049.812-.123.8.043.666.409.53,1.249.161,4.327.138,1.108-.212,3.631-1.381,2.315-1.518,2.49-4.537,7.235-4.106,1.764-1.306,3.566-3.44,1.514-2.184.756-1.593.182-.812.331-3.525.235-.777.335-.679,3.17-1.91,12.33-5.11.359,2.349.371.674.725.875.731.361.811.074.936-.074,1.064.024,1.541.454.7.643.368.839.27,1.636.555,1.482,2.679,1.691.456.11,1.321.11" transform="translate(-6655.399 2112.359)" fill="#7c7c7c" stroke="#f2f1ed" stroke-linejoin="round" stroke-width="1"/>
<path id="path5310" d="M6917.915-1348.393l-1.41.682-2.376-1.224.1-1.463.168-1.239.281-1.412,1.379-1.251,2.007,1.412.334,1.686-.173,1.863-.306.945" transform="translate(-6617.121 2203.995)" fill="#7c7c7c" stroke="#f2f1ed" stroke-linejoin="round" stroke-width="1"/>
</g>
</g>
<g id="Grupo_18489" data-name="Grupo 18489">
<g id="lineas_punteadas" data-name="lineas punteadas" transform="translate(609.242 -1194.519)">
<path id="Trazado_4579" data-name="Trazado 4579" d="M-16718.3-2235.18s-6.85,262.727,400.852,364.27" transform="translate(16909 5216)" fill="none" stroke="#ee3f28" stroke-width="1" stroke-dasharray="5 6"/>
<path id="Trazado_4580" data-name="Trazado 4580" d="M-16950.242-1752.8s192.2-190.492,631.133-119.156" transform="translate(16910 5217)" fill="none" stroke="#ee3f28" stroke-width="1" stroke-dasharray="5 6"/>
<path id="Trazado_4581" data-name="Trazado 4581" d="M-16344.953-1239.258s-252.437-329.836,22.7-636.586" transform="translate(16914 5221)" fill="none" stroke="#ee3f28" stroke-width="1" stroke-dasharray="5 6"/>
</g>
<g id="icon_location" transform="translate(465.242 -2139.52)">
<g id="Grupo_3646" data-name="Grupo 3646" transform="translate(717.143 4240)">
<path class="facilities__map-marker" data-facility="1" id="Sustraccin_7" data-name="Sustraccin 7" d="M17.855,52.79v0l-3.567-9.618-3.272-8.815A17.863,17.863,0,0,1,5.228,5.228,17.859,17.859,0,1,1,30.483,30.485,17.715,17.715,0,0,1,24.7,34.353l-3.272,8.815-3.572,9.618Zm0-42.835a7.726,7.726,0,1,0,5.465,2.261A7.682,7.682,0,0,0,17.857,9.954Z" transform="translate(0 0)" fill="#fb5e21" stroke="rgba(0,0,0,0)" stroke-width="1"/>
</g>
<ellipse id="Elipse_24" data-name="Elipse 24" cx="25" cy="4.412" rx="25" ry="4.412" transform="translate(710 4288.529)" opacity="0.2" fill="url(#radial-gradient)"/>
</g>
</g>
<g id="Grupo_18488" data-name="Grupo 18488" transform="translate(-83.758 -322)">
<g id="lineas_punteadas-2" data-name="lineas punteadas" transform="translate(1212 -121.019)">
<path id="Trazado_4579-2" data-name="Trazado 4579" d="M-16718.3-2235.18s-6.85,262.727,400.852,364.27" transform="translate(16909 5216)" fill="none" stroke="#ee3f28" stroke-width="1" stroke-dasharray="4 6"/>
<path id="Trazado_4580-2" data-name="Trazado 4580" d="M-16950.242-1752.8s192.2-190.492,631.133-119.156" transform="translate(16910 5217)" fill="none" stroke="#ee3f28" stroke-width="1" stroke-dasharray="4 6"/>
<path id="Trazado_4581-2" data-name="Trazado 4581" d="M-16344.953-1239.258s-252.437-329.836,22.7-636.586" transform="translate(16914 5221)" fill="none" stroke="#ee3f28" stroke-width="1" stroke-dasharray="4 6"/>
</g>
<g id="icon_location-2" data-name="icon_location" transform="translate(1068 -1066.019)">
<g id="Grupo_3646-2" data-name="Grupo 3646" transform="translate(717.143 4240)">
<path class="facilities__map-marker" data-facility="2" id="Sustraccin_7-2" data-name="Sustraccin 7" d="M17.855,52.79v0l-3.567-9.618-3.272-8.815A17.863,17.863,0,0,1,5.228,5.228,17.859,17.859,0,1,1,30.483,30.485,17.715,17.715,0,0,1,24.7,34.353l-3.272,8.815-3.572,9.618Zm0-42.835a7.726,7.726,0,1,0,5.465,2.261A7.682,7.682,0,0,0,17.857,9.954Z" transform="translate(0 0)" fill="#ee3f28" stroke="rgba(0,0,0,0)" stroke-width="1"/>
</g>
<ellipse id="Elipse_24-2" data-name="Elipse 24" cx="25" cy="4.412" rx="25" ry="4.412" transform="translate(710 4288.529)" fill="#f2f1ed" opacity="0.2"/>
</g>
</g>
</g>
</svg>
