<svg xmlns="http://www.w3.org/2000/svg" width="1069.645" height="794.584" viewBox="0 0 1069.645 794.584">
  <path id="Agua" d="M-148.094,1459.06l1068.886,1.011V674.142c-29.447-11.412-77.363-11.412-106.81,0h-.259c-29.447,11.412-77.1,11.412-106.551,0h-.386c-29.447-11.412-77.363-11.412-106.81,0h-.259c-29.447,11.412-77.1,11.412-106.551,0h-.386c-29.447-11.412-77.363-11.412-106.81,0h-.259c-29.447,11.412-77.1,11.412-106.551,0h-.386c-29.447-11.412-77.363-11.412-106.81,0h-.259c-29.447,11.412-77.1,11.412-106.551,0l-.386-.1c-29.447-11.412-77.363-11.412-106.81,0H-42.3c-29.447,11.412-77.1,11.412-106.551,0Z" transform="translate(148.852 -665.486)" fill="#03033f" opacity="0.77"/>
</svg>
