<svg width="52" height="52" viewBox="0 0 52 52" fill="none" xmlns="http://www.w3.org/2000/svg">
<g clip-path="url(#clip0_2507_12551)">
<path d="M26 52C40.3594 52 52 40.3594 52 26C52 11.6406 40.3594 0 26 0C11.6406 0 0 11.6406 0 26C0 40.3594 11.6406 52 26 52Z" fill="#F0F0F0"/>
<path d="M52.0004 26.0002C52.0004 15.6922 46.0016 6.78558 37.3047 2.58008V49.4202C46.0016 45.2148 52.0004 36.3082 52.0004 26.0002Z" fill="#D80027"/>
<path d="M0 26.0002C0 36.3082 5.99879 45.2148 14.6957 49.4203V2.58008C5.99879 6.78558 0 15.6922 0 26.0002Z" fill="#6DA544"/>
<path d="M19.2178 26.0001C19.2178 29.7461 22.2545 32.7828 26.0004 32.7828C29.7464 32.7828 32.7831 29.7461 32.7831 26.0001V23.7393H19.2178V26.0001Z" fill="#6DA544"/>
<path d="M35.0431 21.4782H28.2605C28.2605 20.2296 27.2482 19.2173 25.9996 19.2173C24.751 19.2173 23.7387 20.2296 23.7387 21.4782H16.9561C16.9561 22.7269 18.0437 23.7391 19.2922 23.7391H19.2169C19.2169 24.9878 20.2291 25.9999 21.4778 25.9999C21.4778 27.2486 22.49 28.2608 23.7387 28.2608H28.2605C29.5092 28.2608 30.5214 27.2486 30.5214 25.9999C31.7701 25.9999 32.7822 24.9878 32.7822 23.7391H32.7069C33.9556 23.7391 35.0431 22.7269 35.0431 21.4782Z" fill="#FF9811"/>
</g>
<defs>
<clipPath id="clip0_2507_12551">
<rect width="52" height="52" fill="white"/>
</clipPath>
</defs>
</svg>
