<svg width="52" height="52" viewBox="0 0 52 52" fill="none" xmlns="http://www.w3.org/2000/svg">
<path fill-rule="evenodd" clip-rule="evenodd" d="M28.2526 11.2369C29.0922 11.7005 29.3332 12.7332 29.1236 13.6691C28.8519 14.8836 28.7945 16.3049 29.4276 17.5861C29.9316 18.5938 30.8011 19.3755 32.0289 19.9237C32.7361 20.2395 33.4817 19.7887 33.761 20.5111C34.2879 21.8734 33.8526 23.0429 33.2689 24.1323C32.8395 24.9338 31.9247 25.3766 31.0383 25.1747C30.2304 24.991 29.4116 24.7412 28.7776 24.4112C28.1276 24.0862 27.391 23.5229 26.5676 22.7429C26.026 22.2229 25.2676 22.0279 24.531 22.2012C23.8376 22.3529 23.3176 22.8078 23.0576 23.4362C22.491 24.9765 22.2345 26.585 22.2635 28.1977C22.2893 29.6292 21.1713 30.9476 19.8138 30.4922C18.5024 30.0521 17.3077 29.3594 16.2894 28.4706C15.6305 27.8958 15.6989 26.8899 16.341 26.2962C17.8794 24.9095 18.486 22.7862 17.9444 20.7711L17.8144 20.2945C17.251 18.2145 18.3127 15.9611 20.306 15.1161C21.5656 14.5668 22.4936 13.5616 22.9571 12.3569C23.4229 11.1454 24.4075 9.94021 25.6704 10.2394C26.5854 10.4562 27.4512 10.7942 28.2526 11.2369ZM23.2093 34.3129C30.8143 34.3129 37.011 28.1162 37.011 20.5111C37.011 12.8845 30.8143 6.70947 23.2093 6.70947C15.6044 6.70947 9.40771 12.8845 9.40771 20.5111C9.40771 28.1162 15.6044 34.3129 23.2093 34.3129Z" fill="#FAC93D"/>
<path fill-rule="evenodd" clip-rule="evenodd" d="M37.8575 35.1609C45.9326 27.0836 45.9326 13.9405 37.8575 5.86529C37.2226 5.23045 36.1935 5.23045 35.5586 5.86529C34.9238 6.49795 34.9238 7.52712 35.5586 8.16195C42.3685 14.974 42.3685 26.0522 35.5586 32.8621C32.261 36.1619 27.8756 37.9797 23.2086 37.9797C18.5439 37.9797 14.1586 36.1619 10.8587 32.8621C10.2239 32.2272 9.19473 32.2272 8.56206 32.8621C7.92723 33.4969 7.92723 34.5261 8.56206 35.1609C12.0872 38.6861 16.6632 40.7704 21.5837 41.1496V43.3617H14.9451C14.0481 43.3617 13.3201 44.0897 13.3201 44.9867C13.3201 45.8837 14.0481 46.6117 14.9451 46.6117H31.4636C32.3606 46.6117 33.0886 45.8837 33.0886 44.9867C33.0886 44.0897 32.3606 43.3617 31.4636 43.3617H24.8336V41.1496C29.7541 40.7704 34.3301 38.6882 37.8575 35.1609Z" fill="#8C1D43"/>
</svg>
