<svg width="52" height="52" viewBox="0 0 52 52" fill="none" xmlns="http://www.w3.org/2000/svg">
<path fill-rule="evenodd" clip-rule="evenodd" d="M37.7507 31.6115C38.1825 31.4016 38.6849 31.716 38.6849 32.1961V37.5057C38.6849 39.8024 37.3416 41.8607 35.2399 42.7491C32.1633 44.0491 29.0433 44.6991 25.9016 44.6991C22.7599 44.6991 19.5966 44.0491 16.4333 42.7491C14.3316 41.8607 12.9449 39.7807 12.9449 37.4624V32.0041C12.9449 31.5233 13.4488 31.209 13.8807 31.4202L21.1349 34.9707C22.5851 35.8406 24.3208 36.1191 25.9883 36.1191C27.6566 36.1191 29.3033 35.7291 30.8416 34.9707L37.7507 31.6115Z" fill="#07C8CC"/>
<path d="M43.8423 25.632C45.8573 24.6353 47.114 22.6203 47.114 20.367C47.114 18.1137 45.8573 16.077 43.8207 15.0803L29.6507 8.147C27.3323 7.02034 24.6673 7.02034 22.3273 8.147L8.17895 15.0803C6.14229 16.077 4.88562 18.092 4.88562 20.3453C4.88562 22.252 5.77395 23.9853 7.26895 25.0686L10.1723 26.5853L13.1406 28.037C13.2056 28.0803 13.249 28.1236 13.314 28.1453L22.3273 32.5436C23.4642 33.1122 24.7137 33.3886 25.989 33.3886C27.2457 33.3886 28.4807 33.107 29.6507 32.5436L43.8423 25.632Z" fill="#FAC93D"/>
<path fill-rule="evenodd" clip-rule="evenodd" d="M10.1621 26.6133C10.4437 25.9416 11.0721 25.4216 11.8521 25.2916L19.9771 24.0133C20.8654 23.8616 21.4721 23.0383 21.3421 22.15C21.1904 21.2615 20.3454 20.6549 19.4787 20.7849L11.3537 22.0633C9.52194 22.3649 8.03311 23.5241 7.27099 25.0715L7.26811 25.0696C6.92144 25.8062 6.72644 26.6079 6.72644 27.4529V36.2929C6.72644 37.2029 7.46311 37.9179 8.35144 37.9179C9.23977 37.9179 9.97644 37.2029 9.97644 36.2929V27.4529C9.97644 27.1593 10.0373 26.8659 10.159 26.6116L10.1621 26.6133Z" fill="#8C1D43"/>
</svg>
