<svg width="52" height="52" viewBox="0 0 52 52" fill="none" xmlns="http://www.w3.org/2000/svg">
<path d="M29.75 7.72157C28.3086 7.38045 26.8089 7.17871 25.2697 7.17871C15.0444 7.17871 6.75977 15.4841 6.75977 25.6887C6.75977 32.8408 10.8129 39.0423 16.7483 42.1242" stroke="#07C8CC" stroke-width="3" stroke-linecap="round" stroke-linejoin="round"/>
<path d="M43.1377 20.8486C43.5558 22.3899 43.7763 24.0102 43.7763 25.6909C43.7763 35.9162 35.4937 44.1989 25.2705 44.1989" stroke="#07C8CC" stroke-width="3" stroke-linecap="round" stroke-linejoin="round"/>
<path d="M35.2523 26.207C35.0131 31.509 30.6118 35.7106 25.2704 35.7106C21.564 35.7106 18.3323 33.709 16.5967 30.7262" stroke="#00877D" stroke-width="3" stroke-linecap="round" stroke-linejoin="round"/>
<path d="M25.289 15.6816H25.2703C20.4683 15.6816 16.4634 19.0431 15.4761 23.5289" stroke="#00877D" stroke-width="3" stroke-linecap="round" stroke-linejoin="round"/>
<path d="M44.2007 11.695H39.5811V7.07324" stroke="#00877D" stroke-width="3" stroke-linecap="round" stroke-linejoin="round"/>
<path d="M27.9946 23.2862L39.5844 11.6963" stroke="#00877D" stroke-width="3" stroke-linecap="round" stroke-linejoin="round"/>
</svg>
