<svg width="52" height="52" viewBox="0 0 52 52" fill="none" xmlns="http://www.w3.org/2000/svg">
<path d="M19.9505 44.0591C19.4091 44.0589 18.8779 43.9112 18.414 43.6319C17.9501 43.3527 17.571 42.9525 17.3173 42.4741C17.0116 41.9011 16.9034 41.243 17.0094 40.6021L17.8165 35.9658L14.4594 32.8458C14.0589 32.4608 13.7751 31.9708 13.6406 31.4316C13.5061 30.8927 13.5264 30.3267 13.6991 29.7986C13.8717 29.2705 14.1898 28.8019 14.6168 28.4466C15.0438 28.0912 15.5623 27.8634 16.1129 27.7893L20.8075 27.1154L22.8126 22.9866C23.1768 22.2794 23.8069 21.7459 24.5644 21.5034C25.3219 21.2606 26.1448 21.3289 26.852 21.6929C27.4042 21.9751 27.8529 22.4252 28.1333 22.9783L30.2403 27.1841L34.8454 27.7831C35.6184 27.8902 36.3177 28.2987 36.7902 28.9194C37.263 29.5403 37.4708 30.323 37.3685 31.0965C37.2799 31.7563 36.9722 32.3672 36.4949 32.8313L33.0837 36.1093L33.9386 40.573C34.029 41.1196 33.965 41.6804 33.7541 42.1927C33.5429 42.7048 33.1933 43.1481 32.744 43.4721C32.2949 43.7964 31.7641 43.9888 31.2117 44.0279C30.659 44.067 30.1066 43.9509 29.6163 43.693L25.4147 41.5173L21.3234 43.6972C20.9026 43.9293 20.431 44.0537 19.9505 44.0591ZM25.475 38.4327C25.9541 38.4321 26.4262 38.5461 26.852 38.7655L30.804 40.8185L30.049 36.5045C29.9649 36.0259 30.0013 35.534 30.1544 35.0731C30.3077 34.612 30.5731 34.1962 30.9267 33.8629L34.1154 30.7991L29.685 30.2063C29.208 30.1404 28.7544 29.9588 28.3637 29.6774C27.9729 29.3961 27.6567 29.0236 27.4427 28.5922L25.3939 24.5009L23.4845 28.5964C23.2686 29.0261 22.9518 29.397 22.5614 29.6778C22.171 29.9584 21.7183 30.1406 21.2422 30.2084L16.8576 30.8324L20.0171 33.8671C20.3671 34.2003 20.6292 34.6151 20.7802 35.0741C20.9311 35.5332 20.9662 36.0224 20.8824 36.4983L20.1315 40.8101L24.0835 38.7593C24.5145 38.5405 24.9916 38.4285 25.475 38.4327Z" fill="#07C8CC"/>
<path d="M39.883 42.3441C39.4008 42.3441 38.926 42.2264 38.4998 42.0009L36.0912 40.7529C35.7378 40.5549 35.4753 40.2273 35.359 39.8394C35.2429 39.4515 35.282 39.0334 35.4684 38.6738C35.655 38.3144 35.9738 38.0412 36.358 37.9125C36.742 37.784 37.1609 37.8097 37.5264 37.9845L39.6916 39.1056L38.9408 34.7937C38.8559 34.3172 38.8904 33.827 39.0414 33.3671C39.1924 32.907 39.4551 32.4918 39.806 32.1584L43.003 29.0883L38.5788 28.4997C38.1036 28.4327 37.6516 28.2517 37.2614 27.9722C36.8714 27.6924 36.5546 27.3226 36.3387 26.8939L34.3627 22.9419L33.4537 24.7473C33.2661 25.1138 32.941 25.3911 32.5495 25.5188C32.1583 25.6467 31.7321 25.6147 31.3644 25.4296C30.9966 25.2447 30.7169 24.9216 30.586 24.5312C30.4554 24.1408 30.4843 23.7146 30.6665 23.3454L31.7065 21.2841C31.9561 20.7937 32.3365 20.3818 32.8058 20.0942C33.2748 19.8066 33.8144 19.6543 34.3648 19.6543C34.9151 19.6543 35.4547 19.8066 35.9237 20.0942C36.393 20.3818 36.7734 20.7937 37.023 21.2841L39.1321 25.4961L43.7352 26.0952C44.5087 26.2011 45.2088 26.6094 45.682 27.2302C46.1554 27.8513 46.3632 28.6347 46.2603 29.4086C46.17 30.0709 45.8595 30.6835 45.3784 31.1475L41.9734 34.4193L42.8283 38.8851C42.8921 39.2718 42.8794 39.6672 42.7904 40.0489C42.7014 40.4305 42.5381 40.791 42.3097 41.1095C42.0816 41.4281 41.7926 41.6985 41.4596 41.9053C41.1268 42.1122 40.7564 42.2514 40.3697 42.315C40.2085 42.3373 40.0459 42.3471 39.883 42.3441Z" fill="#00877D"/>
<path d="M19.9951 18.5972C19.7629 18.5975 19.5335 18.5459 19.3237 18.4462C19.1139 18.3465 18.929 18.2012 18.7826 18.021L17.3785 16.2925C17.1221 15.971 17.003 15.5612 17.0471 15.1523C17.0912 14.7434 17.295 14.3685 17.6142 14.1091C17.9334 13.8497 18.342 13.7269 18.7513 13.7673C19.1606 13.8077 19.5373 14.0081 19.7996 14.3248L21.2037 16.0533C21.3894 16.282 21.5067 16.5586 21.5419 16.8512C21.5771 17.1438 21.5286 17.4404 21.4021 17.7066C21.2757 17.9727 21.0764 18.1976 20.8274 18.3553C20.5784 18.5129 20.2898 18.5968 19.9951 18.5972ZM30.7696 18.5119C30.4599 18.512 30.1571 18.42 29.8998 18.2474C29.6425 18.0748 29.4424 17.8295 29.3251 17.5428C29.2077 17.2562 29.1784 16.941 29.2408 16.6376C29.3032 16.3342 29.4546 16.0562 29.6755 15.8391L31.2605 14.2791C31.4065 14.1354 31.5796 14.0219 31.7697 13.9451C31.9596 13.8683 32.1628 13.8296 32.3677 13.8314C32.5728 13.8331 32.7754 13.8752 32.964 13.9552C33.1527 14.0353 33.3236 14.1516 33.4674 14.2978C33.6111 14.4439 33.7245 14.6169 33.8012 14.8069C33.8782 14.9969 33.9169 15.2002 33.915 15.4051C33.9133 15.61 33.8713 15.8126 33.7912 16.0013C33.7111 16.1899 33.5947 16.361 33.4487 16.5047L31.8637 18.0647C31.5725 18.353 31.1794 18.5151 30.7696 18.516V18.5119ZM25.4095 15.03H25.3824C24.9733 15.0229 24.5835 14.8554 24.2967 14.5636C24.01 14.2718 23.8492 13.879 23.8495 13.47V13.4429L23.8869 11.2194C23.8904 10.8057 24.0583 10.4103 24.3532 10.1203C24.6484 9.83024 25.0467 9.66931 25.4604 9.67291C25.8741 9.67649 26.2695 9.84428 26.5595 10.1394C26.8494 10.4345 27.0104 10.8327 27.0069 11.2464V11.2714L26.9695 13.497C26.9618 13.9059 26.7941 14.2954 26.5025 14.582C26.2107 14.8687 25.8184 15.0295 25.4095 15.03Z" fill="#07C8CC"/>
<path d="M11.0689 42.3434C10.6379 42.3451 10.2118 42.2527 9.82006 42.073C9.42836 41.8933 9.0805 41.6304 8.80076 41.3026C8.52102 40.9746 8.31608 40.5898 8.2002 40.1746C8.08435 39.7596 8.06036 39.3241 8.12988 38.8989L8.93692 34.2585L5.58396 31.1385C5.10175 30.6744 4.79087 30.0608 4.70202 29.3975C4.65031 29.0125 4.67521 28.6212 4.77521 28.246C4.87522 27.8708 5.0484 27.519 5.28479 27.2108C5.52118 26.9027 5.81609 26.6444 6.15265 26.4508C6.48919 26.2569 6.8607 26.1317 7.24584 26.082L11.9321 25.406L13.9331 21.2793C14.2542 20.6465 14.7904 20.149 15.4454 19.876C16.1003 19.6031 16.8311 19.5725 17.5065 19.7899C17.8802 19.9081 18.2267 20.0996 18.5256 20.3532C18.8245 20.6067 19.0699 20.9173 19.2475 21.2668L20.2875 23.3468C20.4697 23.716 20.4987 24.1422 20.368 24.5326C20.2372 24.923 19.9574 25.246 19.5896 25.4309C19.2218 25.6161 18.7958 25.6481 18.4044 25.5202C18.013 25.3925 17.688 25.115 17.5003 24.7487L16.583 22.9225L14.6174 26.8911C14.4006 27.3212 14.0829 27.6927 13.6914 27.9735C13.2998 28.2541 12.846 28.4359 12.3689 28.5031L7.9489 29.1229L11.1479 32.1493C11.4989 32.4834 11.7614 32.8996 11.9117 33.3603C12.062 33.821 12.0955 34.3119 12.0091 34.7889L11.254 39.1236L13.4255 37.9733C13.791 37.7986 14.21 37.7728 14.594 37.9014C14.9781 38.0301 15.297 38.303 15.4834 38.6626C15.6699 39.0223 15.7091 39.4401 15.5929 39.8283C15.4767 40.2162 15.2141 40.5438 14.8607 40.7418L12.4458 41.9898C12.0226 42.2182 11.5499 42.3397 11.0689 42.3434Z" fill="#00877D"/>
</svg>
