<svg width="224" height="55" viewBox="0 0 224 55" fill="none" xmlns="http://www.w3.org/2000/svg">
<g clip-path="url(#clip0_2658_23010)">
<path d="M160.271 1.80325C160.406 1.5726 159.475 0.935161 159.285 0.813544C157 -0.645854 152.497 -0.289391 152.708 3.14942C152.856 5.53981 155.583 5.36368 157.236 5.74111C158.593 6.05144 158.416 7.18373 157.223 7.49826C156.376 7.72052 155.263 7.45632 154.546 6.96566C154.318 6.8105 154.133 6.61759 153.918 6.44984L152.274 7.46471C152.147 7.64504 153.054 8.38312 153.222 8.50054C155.621 10.1654 160.925 9.58671 160.419 5.76208C160.229 4.31945 158.783 3.96299 157.586 3.72815C157.059 3.6233 155.288 3.51427 155.073 3.04038C154.858 2.5665 155.136 2.12197 155.554 1.92487C156.641 1.41743 157.885 2.13036 158.711 2.82231L160.271 1.79906V1.80325Z" fill="#FEFEFE"/>
<path d="M214.021 0.146754C213.09 0.0377186 211.597 -0.104866 211.045 0.847097C210.973 0.972907 210.817 1.5097 210.817 1.63131V2.67973H209.797V3.90848H210.817V9.1925H212.782V3.90848H214.093V2.67973H212.782C212.706 1.69422 213.127 1.58518 214.021 1.66486V0.146754Z" fill="#FEFEFE"/>
<path d="M170.255 0.146729H168.324C168.324 0.146729 168.215 0.247377 168.215 0.255764V9.08344C168.215 9.08344 168.316 9.19248 168.324 9.19248H170.255V5.03236C170.255 5.003 170.411 4.55008 170.441 4.49557C170.829 3.80361 171.916 3.92523 172.186 4.70525C172.203 4.75557 172.296 5.15397 172.296 5.17913V9.19667H174.26V4.16846C174.26 3.66102 173.868 3.0152 173.455 2.72584C172.448 2.0213 171.103 2.31486 170.255 3.12004V0.146729Z" fill="#FEFEFE"/>
<path d="M84.3258 0.218018H82.0703V9.19247H84.2204C84.2204 9.19247 84.33 9.09183 84.33 9.08344V0.218018H84.3258Z" fill="#FEFEFE"/>
<path d="M119.5 0.218018H112.582V9.19247H114.838V5.57334H119.138V3.76586H114.838V1.9542H119.5V0.218018Z" fill="#FEFEFE"/>
<path d="M129.695 0.218018H127.654V9.19247H129.585C129.585 9.19247 129.695 9.09183 129.695 9.08344V0.218018Z" fill="#FEFEFE"/>
<path d="M193.195 0.218018H191.154V9.19247H193.085C193.085 9.19247 193.195 9.09183 193.195 9.08344V0.218018Z" fill="#FEFEFE"/>
<path d="M133.555 0.578735H131.591V2.57073C131.591 2.75106 130.743 2.6588 130.57 2.67976L130.604 3.84141C130.705 3.98819 131.384 3.87496 131.591 3.90851C131.675 5.15822 131.477 6.55052 131.591 7.78346C131.738 9.43996 133.484 9.27222 134.723 9.12124V7.52765C134.449 7.63249 133.559 7.67862 133.559 7.27603V3.9127H134.871V2.68396H133.559V0.578735H133.555Z" fill="#FEFEFE"/>
<path d="M149.577 9.19253V3.87495C149.577 3.8456 149.425 3.40107 149.396 3.33397C148.818 2.0507 146.529 2.10103 145.648 3.0446C145.627 2.97751 145.673 2.53717 145.648 2.53717H143.607V9.08768C143.607 9.08768 143.709 9.19672 143.717 9.19672H145.648V4.81853C145.648 4.74723 145.842 4.27754 145.905 4.20625C146.225 3.85398 147.208 3.90011 147.457 4.31948C147.482 4.36142 147.613 4.72207 147.613 4.74723V9.19672H149.577V9.19253Z" fill="#FEFEFE"/>
<path d="M165.967 6.88596C165.942 6.90274 165.828 7.25501 165.706 7.38501C165.065 8.08955 163.999 7.8547 163.569 7.04532C162.553 5.12462 164.386 2.36938 165.993 4.77235L167.409 3.942C166.267 1.72775 162.725 1.81581 161.621 4.05523C160.145 7.04532 162.73 10.547 165.959 9.08764C166.343 8.9157 167.557 8.00148 167.494 7.57372C167.481 7.48985 166.115 6.79789 165.967 6.88596Z" fill="#FEFEFE"/>
<path d="M196.458 2.3359C193.912 2.63784 193.161 5.72019 196.138 6.44989C196.601 6.56312 197.533 6.60505 197.887 6.81054C198.309 7.05797 198.06 7.55702 197.643 7.7038C196.627 8.06445 195.762 7.52766 194.987 6.94055C194.805 7.07894 193.768 7.92187 193.789 8.05606C193.832 8.30349 195.071 8.94512 195.349 9.04577C196.905 9.59095 199.641 9.38126 200.101 7.46895C200.438 6.07246 199.515 5.38889 198.3 5.02823C197.854 4.89823 196.466 4.76403 196.273 4.44112C195.961 3.92949 196.863 3.74078 197.242 3.76174C197.837 3.79529 198.321 4.16014 198.836 4.40338C198.975 4.20627 200.004 3.45141 199.97 3.30044C199.034 2.49526 197.676 2.18912 196.462 2.3359H196.458Z" fill="#FEFEFE"/>
<path d="M89.4946 2.46165C88.8116 2.44488 88.1792 2.72585 87.6354 3.11167C87.5468 3.04457 87.6269 2.53294 87.5974 2.53294H85.6328V9.19249H87.5974V5.17496C87.5974 5.15399 87.7239 4.79333 87.7534 4.7472C88.0148 4.31106 89.0351 4.29009 89.4946 4.19783V2.46165Z" fill="#FEFEFE"/>
<path d="M122.341 2.53296H120.301V7.63666C120.301 7.89247 120.6 8.54249 120.781 8.75217C121.561 9.67059 123.522 9.48187 124.306 8.61378C124.302 8.73121 124.276 9.19251 124.416 9.19251H126.346V2.53296H124.306V7.05374C124.306 7.39342 123.636 7.72892 123.319 7.74569C123.033 7.76247 122.337 7.51085 122.337 7.20052V2.53296H122.341Z" fill="#FEFEFE"/>
<path d="M110.035 7.02026H107.994V9.19259H110.035V7.02026Z" fill="#FEFEFE"/>
<path d="M95.9786 13.1724H82.0703V31.9139H96.8513V28.2235H86.8006V23.8075H95.3968V20.1926H86.8006V16.8628H95.9786V13.1724Z" fill="#FEFEFE"/>
<path d="M132.608 13.1724H128.531V16.3554H132.608V13.1724Z" fill="#FEFEFE"/>
<path d="M194.067 13.1724H189.99V16.3554H194.067V13.1724Z" fill="#FEFEFE"/>
<path d="M110.979 31.9138C110.933 28.2905 111.08 24.6504 110.899 21.0313C110.587 17.085 104.908 16.8292 102.678 19.249V18.0915H98.5254V31.9138H102.678V23.2665C102.678 22.9478 102.889 22.1174 103.053 21.8323C103.724 20.6664 106.051 20.7084 106.624 21.9539C106.675 22.0629 106.831 22.5326 106.831 22.6165V31.9138H110.983H110.979Z" fill="#FEFEFE"/>
<path d="M147.388 31.9138V21.2409C147.388 20.8593 147.093 19.9032 146.907 19.5467C145.609 17.085 140.836 17.1941 139.159 19.249V18.0915H135.006V31.9138H139.159V22.9058C139.159 22.7591 139.34 22.1636 139.416 22C140.078 20.549 142.742 20.679 143.159 22.1845C143.214 22.3774 143.311 22.9436 143.311 23.1197V31.9138H147.388Z" fill="#FEFEFE"/>
<path d="M208.853 31.9139V21.241C208.853 20.939 208.604 20.0374 208.473 19.7354C207.322 17.0808 202.322 17.1438 200.623 19.249V18.0915H196.471V31.9139H200.623V22.9059C200.623 22.8094 200.822 22.1258 200.876 22C201.492 20.5951 204.072 20.6664 204.586 22.0755C204.645 22.2391 204.772 22.8262 204.772 22.9771V31.9139H208.849H208.853Z" fill="#FEFEFE"/>
<path d="M188.316 17.8734C187.355 17.9992 186.398 18.1796 185.525 18.6115L184.311 19.3957V18.0202H180.234V31.9138H184.387V23.9878C184.387 23.7697 184.501 23.1029 184.589 22.889C185.053 21.7861 187.283 21.7232 188.316 21.5638V17.8734Z" fill="#FEFEFE"/>
<path d="M132.608 18.0203H128.531V31.9139H132.608V18.0203Z" fill="#FEFEFE"/>
<path d="M194.067 18.0203H189.99V31.9139H194.067V18.0203Z" fill="#FEFEFE"/>
<path d="M64.2894 43.7191C63.6191 43.1949 63.0205 42.679 62.2194 42.3435C59.867 41.358 55.9462 41.8151 55.6468 44.9101C55.4402 47.0321 56.9285 47.8163 58.754 48.1727C59.5676 48.3321 62.0677 48.2902 61.8864 49.5147C61.7262 50.5799 60.0061 50.6302 59.2008 50.4793C58.2944 50.3073 57.6662 49.888 56.9959 49.2925C56.7767 49.4812 55.162 50.3702 55.1283 50.4877C55.0777 50.6512 55.63 51.1461 55.7775 51.2761C58.4631 53.6329 65.082 52.9997 64.4244 48.4705C64.0744 46.0717 60.942 46.273 59.184 45.862C57.6705 45.5056 58.1426 44.1007 59.3863 43.9329C60.1452 43.8323 61.1064 44.1259 61.7262 44.562C61.9159 44.6962 62.3122 45.1743 62.4977 45.1449C62.8181 45.0904 63.8594 44.0588 64.281 43.9162V43.7233L64.2894 43.7191Z" fill="#FEFEFE"/>
<path d="M18.7868 42.1171H16.5312V43.8532H18.7868V42.1171Z" fill="#FEFEFE"/>
<path d="M97.1438 42.117H94.5215V48.8101C94.5215 52.8402 100.335 53.8048 102.57 51.0202C102.915 50.5882 103.333 49.5733 103.333 49.0282V42.117H100.71V49.3175C100.71 49.3846 100.415 49.9466 100.348 50.0221C99.7155 50.7182 97.578 50.6176 97.266 49.5566C97.2408 49.4685 97.1438 49.0072 97.1438 48.9527V42.1128V42.117Z" fill="#FEFEFE"/>
<path d="M115.275 42.1171H113.02V43.8532H115.275V42.1171Z" fill="#FEFEFE"/>
<path d="M147.752 42.1171H145.496V43.8532H147.752V42.1171Z" fill="#FEFEFE"/>
<path d="M68.0877 42.6245H65.8322V44.9394H64.7402V46.3149H65.8322V50.7644C65.8322 50.7896 65.9207 51.1712 65.9418 51.2341C66.3887 52.7313 68.2563 52.4167 69.4747 52.3203V50.6176C69.4747 50.4499 69.1164 50.5841 69.0067 50.5841C68.7917 50.5841 68.0919 50.5715 68.0919 50.257V46.3149H69.5464V44.9394H68.0919V42.6245H68.0877Z" fill="#FEFEFE"/>
<path d="M81.1222 42.6245H78.8667V44.9394H77.7031V46.3149H78.7571C78.8372 46.3149 78.8625 46.4911 78.8709 46.5666C79.0269 47.8834 78.7318 49.5021 78.8709 50.8399C78.9553 51.6661 79.5328 52.2825 80.3676 52.3916C80.6163 52.4251 82.5093 52.4503 82.5093 52.2154V50.6218C82.5093 50.4625 81.6998 50.6218 81.4679 50.5715C81.3836 50.5505 81.1264 50.3912 81.1264 50.3325V46.3149H82.5809V44.9394H81.1264V42.6245H81.1222Z" fill="#FEFEFE"/>
<path d="M152.123 42.6245H149.867V44.9394H148.775V46.3149H149.867V50.6218C149.867 50.6554 149.952 51.0999 149.973 51.1712C150.382 52.6935 152.287 52.4503 153.51 52.3245V50.517C153.189 50.6428 152.127 50.6638 152.127 50.1899V46.3191H153.657V45.0526C153.657 45.0526 153.556 44.9436 153.548 44.9436H152.127V42.6287L152.123 42.6245Z" fill="#FEFEFE"/>
<path d="M144.332 45.5936C142.853 44.6458 140.905 44.1216 139.235 44.9016C137.368 45.7781 137.153 48.2482 139.218 49.0492C139.864 49.3008 141.828 49.4895 142.111 49.8627C142.372 50.2108 142.052 50.5673 141.71 50.6931C141.073 50.9237 140.226 50.8231 139.623 50.5253C139.366 50.3995 138.759 49.8208 138.561 49.8711C138.481 49.8921 137.418 50.865 137.338 50.9825C137.283 51.0579 137.25 51.0579 137.3 51.1628C137.519 51.5905 138.902 52.228 139.379 52.358C141.179 52.8528 144.349 52.4335 144.539 50.106C144.644 48.8017 143.793 48.1098 142.65 47.7282C141.976 47.5017 140.901 47.464 140.344 47.1998C139.868 46.9733 139.935 46.4743 140.428 46.3107C141.318 46.0213 142.267 46.4407 142.983 46.9481C143.072 46.9398 144.164 45.9081 144.257 45.7739C144.299 45.711 144.358 45.6984 144.328 45.5936H144.332Z" fill="#FEFEFE"/>
<path d="M43.6181 52.3916V46.4198C43.6181 46.3653 43.4916 45.9501 43.4579 45.8579C42.9562 44.4697 40.9368 44.302 39.769 44.9101C39.2968 45.1575 39.0312 45.8579 39.1071 44.7927H36.8516V52.3916H39.1071V47.5773C39.1071 47.5521 39.2083 47.1034 39.2293 47.0447C39.4949 46.2646 40.7344 46.164 41.1813 46.8182C41.2192 46.8727 41.3668 47.1831 41.3668 47.2124V52.2784C41.3668 52.2784 41.468 52.3874 41.4764 52.3874H43.6265L43.6181 52.3916Z" fill="#FEFEFE"/>
<path d="M111.561 52.3916V46.4198C111.561 46.3653 111.435 45.9501 111.401 45.8579C110.9 44.4697 108.88 44.302 107.712 44.9101C107.24 45.1575 106.975 45.8579 107.05 44.7927H104.795V52.3916H107.05V47.506C107.05 47.4808 107.168 47.053 107.194 46.9943C107.493 46.2604 108.69 46.185 109.125 46.8224C109.163 46.8769 109.31 47.1872 109.31 47.2166V52.2826C109.31 52.2826 109.411 52.3916 109.42 52.3916H111.57H111.561Z" fill="#FEFEFE"/>
<path d="M15.51 44.7214C14.7385 44.7172 13.9206 44.9814 13.3599 45.5182C13.2671 45.4301 13.3599 44.7968 13.3219 44.7968H11.0664V52.2867C11.0664 52.2867 11.1676 52.3958 11.176 52.3958H13.2882C13.2882 52.3958 13.3978 52.2951 13.3978 52.2867V47.5814C13.3978 47.1327 14.203 46.923 14.5488 46.8434C14.8607 46.7721 15.2697 46.8098 15.51 46.6421V44.7256V44.7214Z" fill="#FEFEFE"/>
<path d="M137.051 44.7213C136.242 44.7046 135.453 45.0233 134.829 45.5181C134.736 45.4301 134.829 44.7968 134.791 44.7968H132.607V52.3958H134.863V47.7282C134.863 46.8308 136.44 46.8349 137.047 46.6798V44.7255L137.051 44.7213Z" fill="#FEFEFE"/>
<path d="M18.7868 44.7968H16.5312V52.2867C16.5312 52.2867 16.6324 52.3957 16.6409 52.3957H18.6814C18.6814 52.3957 18.791 52.295 18.791 52.2867V44.7968H18.7868Z" fill="#FEFEFE"/>
<path d="M26.9431 44.7968H20.3874V46.4239C20.3874 46.4239 20.4885 46.5329 20.497 46.5329H24.0299L19.9531 50.6931V52.2867C19.9531 52.2867 20.0543 52.3957 20.0627 52.3957H26.9431V50.5882H22.938L26.9431 46.4994V44.7968Z" fill="#FEFEFE"/>
<path d="M115.275 44.7968H113.02V52.3957H115.17C115.17 52.3957 115.279 52.295 115.279 52.2867V44.7968H115.275Z" fill="#FEFEFE"/>
<path d="M118.552 44.7968H116.221L118.729 52.3999C119.083 52.337 120.841 52.5005 120.989 52.3244L123.426 44.7968H121.094L119.893 49.934L118.548 44.7968H118.552Z" fill="#FEFEFE"/>
<path d="M147.756 44.7968H145.5V52.3957H147.65C147.65 52.3957 147.76 52.295 147.76 52.2867V44.7968H147.756Z" fill="#FEFEFE"/>
<path d="M156.858 44.7968H154.455C155.117 47.422 156.087 49.9634 156.791 52.5802C156.812 53.3351 155.551 53.1715 155.041 53.1925V54.8951C155.041 54.8951 155.142 55.0042 155.151 55.0042H156.681C156.765 55.0042 157.271 54.937 157.394 54.9161C158.001 54.8029 158.481 54.2535 158.747 53.7293C159.544 52.1525 160.239 49.3804 160.817 47.6065C161.12 46.6797 161.445 45.7403 161.673 44.8009H159.27L158.068 50.085L156.867 44.8009L156.858 44.7968Z" fill="#FEFEFE"/>
<path d="M23.4869 0.218061C25.4388 0.520005 25.4515 3.9001 26.0038 5.38886C26.0333 5.46434 26.0375 5.5608 26.1471 5.57338C27.7239 1.35035 32.6438 0.452906 36.6658 0.213867H56.2192V22.9771C56.2192 23.061 56.5439 23.7655 56.624 23.8788C57.7074 25.4053 60.8525 24.9859 61.7379 23.4007C61.8138 23.2623 62.0414 22.7381 62.0414 22.6207V0.218061H72.6023V28.2611C72.6023 28.9405 73.4412 29.9638 73.8755 30.4712C74.1453 30.7815 74.744 31.2638 74.9379 31.5867C75.0053 31.7041 75.0264 31.7838 75.0053 31.918H64.4824C64.3686 31.918 63.7446 31.6287 63.6224 31.5448C62.9015 31.0583 62.7286 30.1567 62.4799 29.385C61.194 31.2135 59.1409 31.8761 56.9823 32.0606C53.8288 32.329 49.5918 31.9725 47.37 29.4563C47.0538 29.0957 46.8641 28.7015 46.5943 28.345C46.3708 28.0473 46.2402 28.5295 46.0589 28.7308C43.7612 31.3225 40.4728 31.6874 37.1759 31.918H22.0998L21.9312 31.7922L20.4893 26.1224H11.0668L9.75563 31.918H0L0.0337273 31.5532L6.69066 5.0953C6.78762 3.92527 6.66958 3.02363 5.96974 2.06328C5.67884 1.66488 4.608 0.767432 4.48152 0.503231C4.43514 0.406776 4.43514 0.318709 4.44357 0.213867H23.4869V0.218061ZM43.7654 8.10636L46.4299 2.60845C46.4889 2.47426 46.354 2.33587 46.2149 2.33167C45.8902 2.32328 42.6524 6.79374 42.0875 7.2802C41.3919 7.13343 40.7342 6.85664 40.0385 6.70986C38.31 6.34921 34.4019 6.18146 33.8074 8.37895C33.213 10.5764 35.8774 11.6668 37.5006 12.3378C41.6322 14.0488 46.7039 15.2901 47.8127 20.3435L53.7993 21.6939C54.1408 21.7987 54.3558 21.5093 54.0101 21.3332C52.1846 20.4064 50.0893 19.7732 48.2807 18.8505C48.1963 18.8086 48.0783 18.7834 48.0614 18.6702L54.8322 19.0686L54.9755 18.8589L54.7268 18.666C52.7706 18.0328 50.4982 17.7686 48.5842 17.0976C48.4662 17.0557 48.3903 17.1353 48.424 16.934C50.6711 16.7537 52.9435 16.5818 55.1653 16.2882L55.1905 15.9988L48.424 15.3069C48.4957 15.2062 48.6095 15.1979 48.7149 15.1601C50.6205 14.5101 52.8676 14.2501 54.8027 13.6085C55.3508 13.1933 54.5202 13.2268 54.2125 13.2394C52.2394 13.3149 50.2537 13.6043 48.2807 13.6462C48.171 13.6462 48.0994 13.6797 48.0657 13.533L54.1745 10.9203C54.2125 10.8616 54.1914 10.698 54.1534 10.6351C53.9637 10.35 48.1879 12.0316 47.4122 12.0149C47.4543 11.889 47.5935 11.822 47.6946 11.7549C49.2377 10.6771 51.2023 9.70834 52.6526 8.57605C52.8887 8.39153 53.0362 8.14829 52.6315 8.11055C50.5699 8.8738 48.5589 9.80899 46.4678 10.4967L51.118 6.10598C51.1896 5.84597 50.8819 5.80823 50.7132 5.92145C49.3473 6.75599 47.9855 7.60731 46.6069 8.42927C46.4552 8.51734 45.2874 9.24704 45.2283 9.19671L48.8751 4.31947L48.9383 4.0343C48.9046 3.95882 48.854 3.91688 48.7655 3.91688C48.4366 3.90849 44.44 7.72054 43.7738 8.11474L43.7654 8.10636ZM25.7635 6.89019C25.7129 6.80213 24.0897 5.86694 23.9886 5.86274C23.6934 5.84177 23.6934 6.0263 23.8452 6.22759C23.9675 6.39115 25.4262 7.76667 25.5358 7.80441C25.5822 7.82119 25.7044 7.85054 25.7087 7.77506C25.6538 7.54441 25.8773 7.07891 25.7635 6.886V6.89019ZM19.0053 20.2638L15.8392 7.38085L12.5972 20.2638H19.0053ZM25.5484 9.41898L22.239 8.10636C21.9734 8.08539 21.9101 8.30346 22.0956 8.47121L25.5232 10.7106C25.6749 10.7568 25.6328 10.6268 25.6328 10.5303C25.6412 10.1948 25.4979 9.78802 25.5442 9.42317L25.5484 9.41898ZM25.7635 11.6668L20.9278 10.568C20.6917 10.5345 20.6453 10.7274 20.6917 10.9161L26.3242 13.3862L25.7592 11.6668H25.7635ZM32.6396 25.1243C32.783 25.0404 33.6894 25.443 33.9381 25.5101C36.1557 26.0972 41.0462 25.5353 40.0891 22.2181C39.4399 19.9786 34.6885 18.926 32.6818 18.146C30.7804 17.4037 28.7315 16.4392 27.3866 14.8707C27.0451 14.4724 26.8006 13.9985 26.4591 13.621C25.0341 13.533 23.6049 13.4743 22.1757 13.3904C21.8342 13.3694 20.0551 13.1262 19.916 13.3149C19.8654 13.3862 19.8612 13.4701 19.916 13.5372L26.5097 15.2691L25.1606 15.483C23.4616 15.6969 21.5981 15.6717 19.9202 15.9234C19.6504 15.9653 19.448 16.1289 19.7347 16.3176L26.4338 16.934C26.4675 17.1353 26.3916 17.0557 26.2736 17.0976C24.3975 17.756 21.9944 17.9531 20.1858 18.6492C20.0635 18.6954 19.9497 18.7331 19.8823 18.8589C19.8654 18.9596 20.013 19.098 20.1183 19.0854C22.3444 18.926 24.5746 18.7667 26.8006 18.6702C26.1977 19.1944 20.7887 21.1445 20.6917 21.4632C20.6285 21.6645 20.8266 21.7484 21.0037 21.7064L27.4583 20.2638C27.5004 20.4525 27.4035 20.3896 27.3191 20.4483C25.6538 21.6687 23.7103 22.6626 22.0324 23.8788L21.9944 24.1681L22.3781 24.1513L28.4026 21.7819L27.4583 22.759L23.8115 26.0846C23.6386 26.2608 23.8536 26.5669 24.0855 26.4327L29.3301 23.2413L29.6463 23.1574C29.2964 23.8536 25.9237 27.825 25.9321 28.1898C25.9321 28.3828 26.1555 28.4121 26.2947 28.3324C27.6733 27.1708 28.9971 25.9462 30.3715 24.7846C30.6244 24.5707 31.2947 23.8788 31.0165 24.5581C30.3251 26.2608 29.1741 27.9634 28.4363 29.6702C28.4195 29.8673 28.4363 30.0015 28.6556 29.9596C28.9928 29.8967 32.1464 25.6778 32.6438 25.1243H32.6396ZM52.8676 24.1723C52.8887 24.1513 52.8676 23.9417 52.8296 23.883L48.0825 20.788L47.8422 20.7L47.9265 22.3523L52.3701 24.122C52.4628 24.1597 52.8339 24.2017 52.8676 24.1723ZM51.1138 26.4075L51.0126 26.0469L47.9139 23.2287C47.9265 23.5517 47.6651 24.4155 47.8338 24.6462L50.7765 26.4327L51.1095 26.4075H51.1138ZM48.9341 28.366L48.8962 28.0053L47.408 26.1224C47.3995 26.395 47.0412 26.8227 47.1508 27.0618C47.2899 27.3721 48.3186 28.0053 48.5758 28.3282L48.9383 28.366H48.9341Z" fill="#7C233C"/>
<path d="M95.9786 13.1724V16.8628H86.8006V20.1926H95.3968V23.8075H86.8006V28.2235H96.8513V31.9139H82.0703V13.1724H95.9786Z" fill="#1A1915"/>
<path d="M122.194 19.2489V18.0202H126.127V31.5867C126.528 37.2356 118.391 37.9275 114.766 35.86C113.851 35.3358 112.801 34.149 112.801 33.0377V31.918H116.987C117.156 32.2493 117.101 32.6141 117.278 33.0042C117.898 34.3587 120.449 34.5223 121.456 33.6122C121.646 33.4403 121.975 32.8406 121.975 32.6058V30.1818C118.809 32.2745 114.331 31.3686 113.016 27.6153C112.067 24.8978 112.51 20.9306 114.837 19.0015C116.814 17.3618 120.373 17.3576 122.194 19.2573V19.2489ZM118.825 20.9348C116.81 21.2241 116.667 24.1681 116.886 25.7197C117.067 27.0114 117.687 28.0305 119.099 28.1521C121.802 28.3827 122.114 25.9504 121.979 23.8452C121.852 21.8783 121.001 20.6244 118.825 20.9348Z" fill="#1A1915"/>
<path d="M220.138 19.249V18.0203H223.995V32.3123C223.995 34.1198 222.676 35.575 221.082 36.2208C217.532 37.655 210.29 37.1476 210.669 31.9181H214.965C214.961 32.1949 215.007 32.5094 215.087 32.7736C215.72 34.7866 219.914 34.5895 219.914 32.4633V30.1819C219.383 30.4167 218.949 30.748 218.384 30.9368C215.125 32.0355 211.74 30.5342 210.795 27.196C209.767 23.5727 210.985 18.62 215.239 17.8986C217.077 17.5883 218.764 17.9993 220.134 19.2532L220.138 19.249ZM216.698 20.9307C214.67 21.2452 214.56 24.3904 214.834 25.9337C215.113 27.5189 216.137 28.3115 217.764 28.1438C219.986 27.9173 220.062 25.0363 219.839 23.3504C219.602 21.5597 218.582 20.6413 216.698 20.9349V20.9307Z" fill="#1A1915"/>
<path d="M178.629 25.8372H168.726C168.401 29.0706 172.457 30.4083 174.514 28.1521C174.721 27.9257 175.311 26.8437 175.459 26.8437L178.482 28.4038C176.66 31.4274 173.637 32.8616 170.096 32.329C165.117 31.5742 163.515 26.5124 164.94 22.1804C166.175 18.4186 169.936 16.8921 173.68 17.8399C177.402 18.7835 178.718 22.3271 178.633 25.8372H178.629ZM174.333 23.2288C174.207 19.5551 169.101 19.7648 168.726 23.2288H174.333Z" fill="#1A1915"/>
<path d="M163.194 25.8372H153.291C152.979 29.0663 157.027 30.4083 159.08 28.1521C159.371 27.8334 159.683 27.1037 159.881 26.9191C159.923 26.8772 159.957 26.8395 160.024 26.8478L163.047 28.4037C161.264 31.4315 158.177 32.87 154.661 32.329C149.864 31.5867 148.207 26.9191 149.383 22.6374C150.492 18.6073 154.236 16.825 158.245 17.8398C161.959 18.7792 163.3 22.3271 163.199 25.8372H163.194ZM158.898 23.2287C158.806 19.5592 153.675 19.7521 153.291 23.2287H158.898Z" fill="#1A1915"/>
<path d="M110.98 31.9138H106.827V22.6165C106.827 22.5326 106.671 22.0629 106.62 21.9539C106.047 20.7084 103.72 20.6664 103.049 21.8323C102.885 22.1216 102.674 22.9478 102.674 23.2665V31.9138H98.5215V18.0915H102.674V19.249C104.904 16.8292 110.583 17.085 110.895 21.0313C111.076 24.6504 110.929 28.2905 110.975 31.9138H110.98Z" fill="#1A1915"/>
<path d="M208.853 31.9139H204.776V22.9771C204.776 22.8262 204.653 22.2391 204.59 22.0755C204.076 20.6706 201.492 20.5951 200.88 22C200.825 22.1258 200.627 22.8094 200.627 22.9059V31.9139H196.475V18.0915H200.627V19.249C202.326 17.1438 207.326 17.0808 208.477 19.7354C208.608 20.0374 208.857 20.939 208.857 21.241V31.9139H208.853Z" fill="#1A1915"/>
<path d="M147.388 31.9138H143.311V23.1197C143.311 22.9436 143.214 22.3774 143.159 22.1845C142.742 20.679 140.073 20.549 139.416 22C139.344 22.1594 139.159 22.7591 139.159 22.9058V31.9138H135.006V18.0915H139.159V19.249C140.832 17.1941 145.605 17.085 146.907 19.5467C147.093 19.9032 147.388 20.8593 147.388 21.2409V31.9138Z" fill="#1A1915"/>
<path d="M188.316 17.8734V21.5638C187.283 21.7232 185.049 21.7861 184.589 22.889C184.501 23.1029 184.387 23.7697 184.387 23.9878V31.9138H180.234V18.0202H184.311V19.3957L185.525 18.6115C186.398 18.1837 187.355 17.9992 188.316 17.8734Z" fill="#1A1915"/>
<path d="M64.2888 43.719V43.9119C63.8672 44.0503 62.8259 45.0819 62.5055 45.1406C62.32 45.1742 61.9237 44.6919 61.734 44.5577C61.1142 44.1216 60.153 43.828 59.3942 43.9287C58.1505 44.0922 57.6783 45.5013 59.1918 45.8578C60.9498 46.2687 64.0822 46.0674 64.4322 48.4662C65.0899 52.9954 58.4667 53.6244 55.7853 51.2718C55.6378 51.1418 55.0855 50.6469 55.1361 50.4834C55.1698 50.3702 56.7803 49.4769 57.0037 49.2882C57.6741 49.8837 58.3022 50.3072 59.2087 50.475C60.0139 50.626 61.734 50.5756 61.8942 49.5104C62.0797 48.2817 59.5754 48.3236 58.7618 48.1685C56.9321 47.812 55.4481 47.032 55.6546 44.9058C55.954 41.8109 59.8748 41.3538 62.2272 42.3393C63.0283 42.6748 63.6269 43.1906 64.2973 43.7148L64.2888 43.719Z" fill="#7D243E"/>
<path d="M97.1438 42.1171V48.9569C97.1438 49.0115 97.2408 49.4728 97.266 49.5608C97.578 50.6218 99.7155 50.7183 100.348 50.0263C100.42 49.9508 100.71 49.3889 100.71 49.3218V42.1213H103.333V49.0324C103.333 49.5776 102.915 50.5925 102.57 51.0244C100.335 53.809 94.5215 52.8445 94.5215 48.8144V42.1213H97.1438V42.1171Z" fill="#7D243E"/>
<path d="M132.608 18.0203H128.531V31.9139H132.608V18.0203Z" fill="#1A1915"/>
<path d="M194.067 18.0203H189.99V31.9139H194.067V18.0203Z" fill="#1A1915"/>
<path d="M0 52.3916L3.71844 42.2303C3.76903 42.1171 3.85756 42.1255 3.96296 42.1129C4.70918 42.029 5.60717 42.1884 6.37446 42.1129L10.1941 52.3958H7.50011L6.99842 50.7728C5.75894 50.6806 4.46887 50.7435 3.21253 50.7393C3.13242 50.7896 2.84574 52.228 2.65603 52.3958H0V52.3916ZM6.33652 48.8479L5.06331 44.6501L3.86178 48.8479H6.33652Z" fill="#7D243E"/>
<path d="M160.271 1.80333L158.711 2.82659C157.885 2.13463 156.641 1.42171 155.554 1.92914C155.136 2.12205 154.871 2.59174 155.073 3.04466C155.288 3.51854 157.059 3.62758 157.586 3.73242C158.779 3.96726 160.225 4.32373 160.419 5.76635C160.925 9.59098 155.621 10.1697 153.222 8.50482C153.054 8.38739 152.147 7.64931 152.274 7.46898L153.918 6.45411C154.133 6.62186 154.318 6.81477 154.546 6.96993C155.263 7.46059 156.38 7.7206 157.223 7.50253C158.416 7.188 158.593 6.05571 157.236 5.74538C155.579 5.36795 152.851 5.54408 152.708 3.15369C152.497 -0.285119 156.996 -0.641581 159.285 0.817817C159.479 0.939433 160.406 1.58106 160.271 1.80752V1.80333Z" fill="#1C1B17"/>
<path d="M98.5254 9.19252L101.81 0.226448L104.171 0.213867L107.556 9.19252H105.191C104.993 9.04155 104.765 7.76667 104.672 7.74151L101.375 7.75409C101.228 8.22797 101.148 8.77315 100.895 9.19252H98.5296H98.5254ZM104.133 6.08081L103.003 2.46167L101.949 6.08081H104.133Z" fill="#1C1B17"/>
<path d="M85.418 49.0659C85.5149 51.3431 88.2342 51.4773 89.1027 49.5775L90.73 50.3701C90.9071 50.6218 89.5791 51.8463 89.3008 52.0183C87.9517 52.8528 85.7847 52.8738 84.5073 51.8841C82.2054 50.0975 82.821 45.4468 85.7763 44.6835C88.7317 43.9203 90.7932 45.7361 90.8818 48.6633C90.8818 48.7556 90.8818 49.0617 90.7679 49.0617H85.4137L85.418 49.0659ZM88.4787 47.6191C88.5124 45.6187 85.6161 45.7361 85.4938 47.6191H88.4787Z" fill="#7D243E"/>
<path d="M125.98 49.0659C126.065 51.3389 128.805 51.4773 129.665 49.5775L131.292 50.3701C131.44 50.5798 130.373 51.6324 130.154 51.8002C128.784 52.8444 126.452 52.9576 125.07 51.8841C122.764 50.0975 123.383 45.4468 126.339 44.6835C129.294 43.9203 131.356 45.7361 131.444 48.6633C131.444 48.7556 131.444 49.0617 131.33 49.0617H125.976L125.98 49.0659ZM129.041 47.6191C129.075 45.6187 126.178 45.7361 126.056 47.6191H129.041Z" fill="#7D243E"/>
<path d="M31.519 44.5243C33.3908 44.4781 35.0308 45.3211 35.6042 47.1495C36.3504 49.5399 35.2332 52.0729 32.6404 52.5174C26.3713 53.5868 25.8654 44.671 31.519 44.5243ZM31.6665 46.3317C28.8882 46.4324 29.5543 51.8212 32.4338 50.647C34.0907 49.9718 33.9347 46.252 31.6665 46.3317Z" fill="#7D243E"/>
<path d="M77.1893 52.3915H75.1151C74.938 52.3915 75.0519 51.8422 74.9718 51.7415C73.5215 53.0709 70.427 52.8277 70.2036 50.5463C69.959 48.0553 72.9481 47.6527 74.7905 47.3969C74.8495 46.4323 74.6598 45.95 73.5974 46.101C72.8933 46.2017 72.8006 46.9649 72.7162 46.9649H70.4945C70.5619 45.8033 71.207 45.0736 72.3157 44.759C73.8925 44.3103 76.7973 44.5116 77.0418 46.5749C77.2357 48.2188 76.8605 50.2192 77.046 51.8505C77.0713 52.0602 77.2062 52.186 77.1936 52.3915H77.1893ZM74.7863 48.7766C74.1918 49.0324 72.5771 49.2337 72.4591 49.976C72.3157 50.865 73.1421 51.0454 73.8377 50.7686C74.6092 50.4624 74.8495 49.5272 74.7863 48.7808V48.7766Z" fill="#7D243E"/>
<path d="M51.7037 52.3916H49.5198C49.4819 52.2867 49.6168 51.6619 49.4102 51.7416C49.2542 51.8045 48.9338 52.1064 48.7188 52.2155C47.3571 52.899 45.3292 52.6516 44.798 51.037C44.3385 49.6321 45.1648 48.4453 46.4886 47.9757C46.9017 47.8289 49.1826 47.4472 49.2627 47.3298C49.3891 47.1537 49.1952 46.3695 49.0224 46.2353C48.7357 46.0088 47.9684 46.0508 47.6648 46.2479C47.3613 46.445 47.298 46.9608 47.2559 46.9608H45.0004C44.9666 45.8872 45.7044 45.0736 46.691 44.7717C48.0906 44.3397 51.2146 44.4823 51.476 46.3527C51.6826 47.8624 51.3664 49.8376 51.476 51.4145C51.5013 51.7541 51.5856 52.0729 51.6995 52.3874L51.7037 52.3916ZM49.3006 48.7766C48.6345 48.9654 46.3284 49.4267 47.0114 50.5086C47.4751 51.2425 48.567 50.8022 48.9675 50.2193C49.2627 49.7915 49.2416 49.2715 49.3006 48.7766Z" fill="#7D243E"/>
<path d="M156.857 44.7968L158.058 50.0808L159.26 44.7968H161.663C161.435 45.7362 161.111 46.6756 160.807 47.6024C160.23 49.3721 159.534 52.1483 158.737 53.7251C158.472 54.2535 157.991 54.7987 157.384 54.9119C157.266 54.9329 156.756 55 156.671 55H155.141C155.141 55 155.031 54.8994 155.031 54.891V53.1883C155.541 53.1716 156.802 53.3309 156.781 52.5761C156.081 49.9592 155.111 47.4178 154.445 44.7926H156.848L156.857 44.7968Z" fill="#7D243E"/>
<path d="M43.6187 52.3916H41.4686C41.4686 52.3916 41.359 52.2909 41.359 52.2825V47.2166C41.359 47.1872 41.2114 46.8769 41.1735 46.8224C40.7266 46.1681 39.4913 46.2688 39.2215 47.0488C39.2004 47.1075 39.0993 47.5521 39.0993 47.5814V52.3957H36.8438V44.7968H39.0993C39.0234 45.862 39.289 45.1575 39.7612 44.9142C40.929 44.3062 42.9484 44.4739 43.4501 45.862C43.4838 45.9543 43.6103 46.3736 43.6103 46.424V52.3957L43.6187 52.3916Z" fill="#7D243E"/>
<path d="M111.562 52.3916H109.412C109.412 52.3916 109.302 52.2909 109.302 52.2826V47.2166C109.302 47.1872 109.155 46.8769 109.117 46.8224C108.683 46.185 107.485 46.2604 107.186 46.9943C107.161 47.053 107.043 47.4766 107.043 47.506V52.3916H104.787V44.7927H107.043C106.967 45.8579 107.232 45.1533 107.705 44.9101C108.872 44.302 110.892 44.4697 111.393 45.8579C111.427 45.9501 111.554 46.3695 111.554 46.4198V52.3916H111.562Z" fill="#7D243E"/>
<path d="M144.332 45.5936C144.362 45.6985 144.302 45.7152 144.26 45.7739C144.168 45.9123 143.071 46.944 142.987 46.9482C142.27 46.4407 141.322 46.0214 140.432 46.3107C139.939 46.4701 139.872 46.9733 140.348 47.1998C140.904 47.464 141.98 47.5059 142.654 47.7282C143.792 48.1098 144.648 48.8018 144.543 50.106C144.353 52.4335 141.183 52.8529 139.383 52.358C138.906 52.228 137.519 51.5906 137.304 51.1628C137.249 51.058 137.287 51.058 137.342 50.9825C137.422 50.8651 138.485 49.8921 138.565 49.8712C138.763 49.8208 139.37 50.3996 139.627 50.5254C140.23 50.8231 141.077 50.9238 141.714 50.6931C142.051 50.5673 142.376 50.2109 142.114 49.8628C141.832 49.4853 139.863 49.2966 139.222 49.0492C137.157 48.2482 137.372 45.7781 139.239 44.9017C140.909 44.1174 142.861 44.6458 144.336 45.5936H144.332Z" fill="#7D243E"/>
<path d="M119.5 0.218018V1.9542H114.838V3.76586H119.138V5.57334H114.838V9.19247H112.582V0.218018H119.5Z" fill="#1C1B17"/>
<path d="M26.9431 44.7968V46.4994L22.938 50.5882H26.9431V52.3957H20.0627C20.0627 52.3957 19.9531 52.295 19.9531 52.2867V50.6931L24.0299 46.5329H20.497C20.497 46.5329 20.3874 46.4323 20.3874 46.4239V44.7968H26.9431Z" fill="#7D243E"/>
<path d="M170.255 0.146729V3.11165C171.099 2.30647 172.448 2.01291 173.455 2.71745C173.868 3.00681 174.26 3.65264 174.26 4.16007V9.18828H172.296V5.17075C172.296 5.14558 172.207 4.75138 172.186 4.69686C171.916 3.91684 170.833 3.79522 170.441 4.48718C170.407 4.5417 170.255 4.99461 170.255 5.02397V9.18409H168.324C168.324 9.18409 168.215 9.08344 168.215 9.07505V0.255764C168.215 0.255764 168.316 0.146729 168.324 0.146729H170.255Z" fill="#1C1B17"/>
<path d="M185.967 2.33585C186.326 2.29391 186.815 2.28972 187.177 2.32327C191.292 2.71328 191.28 8.96604 187.186 9.33089C181.916 9.80059 181.853 2.82651 185.967 2.33166V2.33585ZM186.258 3.92525C184.631 4.19784 184.72 7.51504 186.322 7.7373C187.924 7.95956 188.489 6.4792 188.151 5.12045C187.911 4.15171 187.249 3.75751 186.258 3.92525Z" fill="#1C1B17"/>
<path d="M178.029 2.33589C180.681 2.03814 182.519 3.63593 182.266 6.33246C181.895 10.3206 175.736 10.3164 175.162 6.66376C174.838 4.5837 175.773 2.5917 178.025 2.34008L178.029 2.33589ZM178.248 3.92529C176.857 4.17691 176.701 7.01183 177.999 7.61153C179.049 8.09799 180.116 7.46894 180.234 6.33246C180.377 4.92758 179.926 3.62335 178.248 3.92529Z" fill="#1C1B17"/>
<path d="M205.268 2.33588C208.194 1.98781 210.083 4.03013 209.413 6.89021C208.637 10.199 203.262 10.1864 202.477 6.87763C201.984 4.78918 202.975 2.61267 205.264 2.34008L205.268 2.33588ZM205.555 3.92529C203.907 4.20207 204.016 7.51507 205.618 7.73733C207.22 7.9596 207.781 6.46665 207.448 5.12048C207.208 4.15174 206.546 3.75754 205.555 3.92529Z" fill="#1C1B17"/>
<path d="M138.417 2.33582C141.157 2.02549 142.903 3.66521 142.654 6.40368C142.321 10.0857 136.604 10.3583 135.668 7.0537C135.07 4.94009 136.065 2.60421 138.417 2.33582ZM138.704 3.92522C137.051 4.202 137.161 7.515 138.767 7.73727C140.373 7.95953 140.921 6.46239 140.601 5.12042C140.369 4.15587 139.686 3.76167 138.708 3.92522H138.704Z" fill="#1C1B17"/>
<path d="M96.0522 9.19251H94.0875C94.058 9.19251 94.1381 8.68508 94.0496 8.61378C92.73 9.82156 90.0234 9.55317 89.8632 7.48988C89.6945 5.34272 92.3295 5.08271 93.8599 4.76819C94.0243 3.95042 93.5858 3.46396 92.7637 3.71138C92.144 3.9001 92.2452 4.41592 92.1946 4.41592H90.1541C90.1583 3.9672 90.2974 3.49331 90.5925 3.14943C91.6634 1.89972 95.5715 2.00036 95.8287 3.87913C96.01 5.20852 95.7233 6.91115 95.8287 8.29087C95.854 8.61378 95.9468 8.89057 96.0479 9.19251H96.0522ZM93.8683 6.00951C93.2654 6.23597 91.6297 6.49179 91.8615 7.38504C92.0428 8.08958 92.8986 7.9386 93.3582 7.56537C93.843 7.17116 93.9105 6.60082 93.8641 6.00951H93.8683Z" fill="#1C1B17"/>
<path d="M118.552 44.7968L119.897 49.934L121.098 44.7968H123.43L120.993 52.3244C120.845 52.5005 119.083 52.337 118.733 52.3999L116.225 44.7968H118.556H118.552Z" fill="#7D243E"/>
<path d="M122.341 2.53296V7.20052C122.341 7.51504 123.032 7.76247 123.323 7.74569C123.635 7.72892 124.31 7.39342 124.31 7.05374V2.53296H126.35V9.19251H124.419C124.28 9.19251 124.306 8.73121 124.31 8.61378C123.526 9.48187 121.565 9.67059 120.785 8.75217C120.608 8.54249 120.305 7.89247 120.305 7.63666V2.53296H122.345H122.341Z" fill="#1C1B17"/>
<path d="M149.577 9.19257H147.613V4.74308C147.613 4.72212 147.486 4.36146 147.457 4.31533C147.204 3.89596 146.225 3.84983 145.905 4.2021C145.842 4.27339 145.648 4.74308 145.648 4.81438V9.19257H143.717C143.717 9.19257 143.607 9.09192 143.607 9.08353V2.53302H145.648C145.673 2.53302 145.627 2.97335 145.648 3.04045C146.529 2.09688 148.818 2.04655 149.396 3.32982C149.425 3.39692 149.577 3.84564 149.577 3.8708V9.18838V9.19257Z" fill="#1C1B17"/>
<path d="M196.458 2.3359C197.677 2.18912 199.03 2.49526 199.966 3.30044C200 3.45141 198.971 4.20627 198.832 4.40338C198.318 4.16014 197.833 3.79529 197.238 3.76174C196.855 3.74078 195.957 3.92949 196.269 4.44112C196.467 4.76823 197.85 4.89823 198.297 5.02823C199.511 5.3847 200.434 6.07246 200.097 7.46895C199.637 9.38126 196.901 9.59095 195.345 9.04577C195.067 8.94932 193.828 8.30349 193.785 8.05606C193.764 7.92606 194.802 7.07894 194.983 6.94055C195.759 7.52766 196.627 8.06445 197.639 7.7038C198.056 7.55702 198.309 7.05378 197.883 6.81054C197.529 6.60505 196.597 6.56312 196.134 6.44989C193.162 5.72019 193.908 2.63784 196.454 2.3359H196.458Z" fill="#1C1B17"/>
<path d="M81.1225 42.6245V44.9394H82.577V46.3149H81.1225V50.3325C81.1225 50.387 81.3797 50.5505 81.464 50.5715C81.6959 50.626 82.5054 50.4667 82.5054 50.6218V52.2154C82.5054 52.4503 80.6124 52.4209 80.3637 52.3916C79.5247 52.2825 78.9513 51.6661 78.867 50.8399C78.7321 49.5021 79.0272 47.8834 78.867 46.5666C78.8586 46.4953 78.8333 46.3149 78.7532 46.3149H77.6992V44.9394H78.8628V42.6245H81.1183H81.1225Z" fill="#7D243E"/>
<path d="M152.123 42.6244V44.9393H153.544C153.544 44.9393 153.654 45.04 153.654 45.0484V46.3149H152.123V50.1856C152.123 50.6595 153.186 50.6343 153.506 50.5127V52.3202C152.283 52.446 150.378 52.6892 149.969 51.1669C149.952 51.0998 149.863 50.6553 149.863 50.6176V46.3107H148.771V44.9351H149.863V42.6202H152.119L152.123 42.6244Z" fill="#7D243E"/>
<path d="M68.088 42.6245V44.9394H69.5425V46.3149H68.088V50.257C68.088 50.5715 68.7878 50.5841 69.0028 50.5841C69.1124 50.5841 69.4708 50.4499 69.4708 50.6176V52.3203C68.2524 52.4167 66.3847 52.7313 65.9379 51.2341C65.9168 51.1712 65.8282 50.7896 65.8282 50.7644V46.3149H64.7363V44.9394H65.8282V42.6245H68.0838H68.088Z" fill="#7D243E"/>
<path d="M165.967 6.88596C166.115 6.7937 167.481 7.48985 167.494 7.57372C167.557 8.00148 166.347 8.9157 165.959 9.08764C162.73 10.5428 160.145 7.04532 161.621 4.05523C162.725 1.81581 166.267 1.72775 167.409 3.942L165.993 4.77235C164.386 2.36938 162.553 5.12881 163.569 7.04532C163.999 7.85889 165.065 8.08955 165.706 7.38501C165.828 7.25081 165.942 6.89854 165.967 6.88596Z" fill="#1C1B17"/>
<path d="M214.021 0.146766V1.66488C213.127 1.581 212.706 1.69004 212.782 2.67974H214.093V3.90849H212.782V9.19252H210.817V3.90849H209.797V2.67974H210.817V1.63133C210.817 1.50971 210.973 0.97292 211.045 0.847109C211.597 -0.10066 213.09 0.0377309 214.021 0.146766Z" fill="#1C1B17"/>
<path d="M15.51 44.7213V46.6378C15.2697 46.8097 14.8607 46.7678 14.5488 46.8391C14.203 46.9188 13.3978 47.1285 13.3978 47.5772V52.2825C13.3978 52.2825 13.2966 52.3915 13.2882 52.3915H11.176C11.176 52.3915 11.0664 52.2909 11.0664 52.2825V44.7926H13.3219C13.3599 44.7926 13.2671 45.43 13.3599 45.5139C13.9206 44.9771 14.7385 44.7129 15.51 44.7171V44.7213Z" fill="#7D243E"/>
<path d="M137.051 44.7214V46.6756C136.444 46.8308 134.867 46.8266 134.867 47.724V52.3916H132.611V44.7927H134.795C134.833 44.7927 134.74 45.4301 134.833 45.514C135.457 45.0233 136.245 44.7004 137.055 44.7172L137.051 44.7214Z" fill="#7D243E"/>
<path d="M133.555 0.578735V2.67557H134.867V3.90432H133.555V7.26764C133.555 7.67023 134.445 7.6241 134.719 7.51926V9.11286C133.475 9.26802 131.734 9.43158 131.587 7.77508C131.477 6.54214 131.675 5.14984 131.587 3.90012C131.376 3.86657 130.701 3.9798 130.6 3.83302L130.566 2.67138C130.739 2.65041 131.587 2.74686 131.587 2.56234V0.578735H133.551H133.555Z" fill="#1C1B17"/>
<path d="M84.3261 0.218018V9.08344C84.3261 9.08344 84.225 9.19247 84.2165 9.19247H82.0664V0.218018H84.3219H84.3261Z" fill="#1C1B17"/>
<path d="M129.695 0.218018V9.08344C129.695 9.08344 129.594 9.19247 129.585 9.19247H127.654V0.218018H129.695Z" fill="#1C1B17"/>
<path d="M193.195 0.218018V9.08344C193.195 9.08344 193.094 9.19247 193.085 9.19247H191.154V0.218018H193.195Z" fill="#1C1B17"/>
<path d="M115.275 44.7968V52.2867C115.275 52.2867 115.174 52.3957 115.166 52.3957H113.016V44.7968H115.271H115.275Z" fill="#7D243E"/>
<path d="M147.756 44.7968V52.2867C147.756 52.2867 147.655 52.3957 147.646 52.3957H145.496V44.7968H147.752H147.756Z" fill="#7D243E"/>
<path d="M18.7871 44.7968V52.2867C18.7871 52.2867 18.6859 52.3957 18.6775 52.3957H16.637C16.637 52.3957 16.5273 52.295 16.5273 52.2867V44.7968H18.7829H18.7871Z" fill="#7D243E"/>
<path d="M89.4946 2.46165V4.19783C89.0351 4.29429 88.019 4.31106 87.7534 4.7472C87.7281 4.78914 87.5974 5.14979 87.5974 5.17496V9.19249H85.6328V2.53294H87.5974C87.6269 2.53294 87.5468 3.04038 87.6354 3.11167C88.1792 2.72585 88.8074 2.44488 89.4946 2.46165Z" fill="#1A1915"/>
<path d="M194.067 13.1724H189.99V16.3554H194.067V13.1724Z" fill="#1C1B17"/>
<path d="M132.608 13.1724H128.531V16.3554H132.608V13.1724Z" fill="#1C1B17"/>
<path d="M110.035 7.02026H107.994V9.19259H110.035V7.02026Z" fill="#1C1B17"/>
<path d="M147.752 42.1171H145.496V43.8532H147.752V42.1171Z" fill="#7D243E"/>
<path d="M115.275 42.1171H113.02V43.8532H115.275V42.1171Z" fill="#7D243E"/>
<path d="M18.7868 42.1171H16.5312V43.8532H18.7868V42.1171Z" fill="#7D243E"/>
<path d="M74.9892 0.163552C75.5878 0.0629042 76.1317 0.255813 76.4521 0.771635C77.2447 2.04232 75.6679 3.43462 74.4748 2.59169C73.5347 1.92909 73.8509 0.356461 74.9892 0.159359V0.163552ZM74.4495 0.679374C73.2522 1.93328 75.415 3.49752 76.2792 2.09684C77.0212 0.893251 75.3475 -0.260009 74.4495 0.679374Z" fill="#7D243E"/>
<path d="M43.7662 8.10633C44.4324 7.71212 48.4248 3.90007 48.7579 3.90846C48.8464 3.90846 48.897 3.9504 48.9307 4.02588L48.8675 4.31105L45.2207 9.18829C45.2798 9.24281 46.4476 8.51311 46.5993 8.42085C47.9779 7.59889 49.3355 6.74758 50.7056 5.91304C50.8743 5.79981 51.182 5.83755 51.1104 6.09756L46.4602 10.4883C48.5471 9.80476 50.5581 8.86538 52.6239 8.10213C53.0286 8.13568 52.8811 8.38311 52.645 8.56763C51.1947 9.69992 49.2343 10.6687 47.6871 11.7464C47.5859 11.8177 47.4467 11.8848 47.4046 12.0064C48.1761 12.0232 53.9561 10.3416 54.1458 10.6267C54.188 10.6896 54.2049 10.8532 54.1669 10.9119L48.0581 13.5246C48.096 13.6713 48.1635 13.642 48.2731 13.6378C50.2461 13.5958 52.2318 13.3065 54.2049 13.231C54.5126 13.2184 55.3432 13.1849 54.7951 13.6C52.86 14.2417 50.6171 14.4975 48.7073 15.1517C48.6019 15.1894 48.4881 15.1978 48.4164 15.2985L55.1829 15.9904L55.1577 16.2798C52.9359 16.5775 50.6635 16.7453 48.4164 16.9256C48.3827 17.1269 48.4586 17.0472 48.5766 17.0892C50.4949 17.7644 52.7672 18.0286 54.7192 18.6576L54.9679 18.8505L54.8246 19.0602L48.0538 18.6618C48.0707 18.775 48.1887 18.8002 48.2731 18.8421C50.0817 19.7647 52.177 20.398 54.0025 21.3248C54.3482 21.5009 54.1332 21.7903 53.7917 21.6854L47.8051 20.3351C46.7005 15.2817 41.6246 14.0404 37.493 12.3294C35.8698 11.6584 33.197 10.6099 33.7998 8.37053C34.4027 6.13111 38.3024 6.34079 40.0309 6.70145C40.7308 6.84823 41.3843 7.12501 42.0799 7.27179C42.6448 6.78951 45.8826 2.31487 46.2073 2.32325C46.3464 2.32745 46.4813 2.46584 46.4223 2.60004L43.7578 8.09794L43.7662 8.10633Z" fill="#EEC531"/>
<path d="M32.6403 25.1243C32.1471 25.6779 28.9893 29.8967 28.6521 29.9596C28.4371 29.9974 28.416 29.8674 28.4328 29.6703C29.1706 27.9676 30.3216 26.2608 31.013 24.5582C31.2912 23.8788 30.6209 24.5708 30.368 24.7846C28.9893 25.9463 27.6698 27.1708 26.2912 28.3325C26.152 28.4164 25.9286 28.3828 25.9286 28.1899C25.9202 27.8251 29.2929 23.8536 29.6428 23.1575L29.3266 23.2414L24.082 26.4328C23.8501 26.5711 23.6351 26.265 23.808 26.0847L27.4548 22.7591L28.3991 21.782L22.3746 24.1514L21.9909 24.1682L22.0289 23.8788C23.7068 22.6585 25.6503 21.6687 27.3156 20.4484C27.3957 20.3897 27.4969 20.4484 27.4548 20.2639L21.0002 21.7065C20.8273 21.7484 20.625 21.6687 20.6882 21.4633C20.7894 21.1445 26.1942 19.1987 26.7971 18.6703C24.5711 18.7667 22.3409 18.9261 20.1148 19.0854C20.0094 19.0938 19.8661 18.9596 19.8788 18.859C19.942 18.7332 20.06 18.6954 20.1823 18.6493C21.9909 17.9532 24.3982 17.756 26.2701 17.0976C26.3881 17.0557 26.464 17.1354 26.4303 16.9341L19.7312 16.3176C19.4445 16.1289 19.6469 15.9654 19.9167 15.9234C21.5946 15.6718 23.4581 15.697 25.1571 15.4831L26.5062 15.2692L19.9125 13.5372C19.8577 13.4701 19.8619 13.382 19.9125 13.315C20.0516 13.1262 21.8349 13.3695 22.1722 13.3904C23.5972 13.4743 25.0264 13.5372 26.4556 13.6211C26.7929 13.9985 27.0416 14.4766 27.3831 14.8708C28.728 16.4392 30.7811 17.408 32.6783 18.1461C34.6851 18.9303 39.4364 19.9787 40.0856 22.2181C41.0427 25.5311 36.1522 26.0973 33.9346 25.5101C33.6859 25.443 32.7837 25.0405 32.6361 25.1243H32.6403Z" fill="#EEC531"/>
<path d="M52.8672 24.1723C52.8334 24.2059 52.4624 24.1639 52.3697 24.122L47.9261 22.3523L47.8418 20.7L48.0821 20.788L52.8292 23.8829C52.8672 23.9417 52.8882 24.1513 52.8672 24.1723Z" fill="#EEC531"/>
<path d="M25.7631 11.6668L26.328 13.3862L20.6956 10.9161C20.645 10.7274 20.6956 10.5303 20.9317 10.568L25.7673 11.6668H25.7631Z" fill="#EEC531"/>
<path d="M51.1143 26.4076L50.7812 26.4327L47.8385 24.6462C47.6657 24.4156 47.9271 23.5517 47.9186 23.2288L51.0173 26.0469L51.1185 26.4076H51.1143Z" fill="#EEC531"/>
<path d="M25.5489 9.41895C25.5026 9.7838 25.6459 10.1906 25.6375 10.5261C25.6375 10.6225 25.6796 10.7525 25.5279 10.7064L22.1003 8.46699C21.9106 8.29505 21.9781 8.08117 22.2437 8.10214L25.5532 9.41476L25.5489 9.41895Z" fill="#EEC531"/>
<path d="M48.9341 28.3661L48.5715 28.3283C48.3143 28.0054 47.2857 27.3721 47.1465 27.0618C47.0411 26.8228 47.3953 26.3992 47.4037 26.1224L48.8919 28.0054L48.9299 28.3661H48.9341Z" fill="#EEC531"/>
<path d="M25.7627 6.89024C25.8765 7.07896 25.6531 7.54446 25.7079 7.7793C25.7079 7.85059 25.5856 7.82543 25.535 7.80866C25.4254 7.76672 23.9667 6.3912 23.8444 6.23184C23.6927 6.03054 23.6927 5.84602 23.9878 5.86699C24.089 5.87537 25.7121 6.80637 25.7627 6.89444V6.89024Z" fill="#EEC531"/>
<path d="M74.7852 0.725549C75.2152 0.733936 75.8897 0.599739 75.8855 1.19524C75.8855 1.49299 75.6579 1.56848 75.6705 1.69009C75.6789 1.77397 76.168 2.55399 75.5862 2.21011C75.4344 2.12204 75.4513 1.71106 75.1857 1.66493C74.9496 1.62299 75.1435 2.18075 75.0761 2.24366C75.0676 2.25205 74.7852 2.25624 74.7852 2.24366V0.725549ZM75.582 1.36718C75.7548 1.10717 75.3037 0.901683 75.0803 0.939426V1.44686C75.1098 1.47622 75.5525 1.41331 75.582 1.36718Z" fill="#7D243E"/>
</g>
<defs>
<clipPath id="clip0_2658_23010">
<rect width="224" height="55" fill="white"/>
</clipPath>
</defs>
</svg>
