<svg width="226" height="64" viewBox="0 0 226 64" fill="none" xmlns="http://www.w3.org/2000/svg">
<path d="M20.4408 5.53149C20.6461 5.53328 20.8513 5.53506 21.0628 5.5369C21.1764 5.53679 21.29 5.53667 21.407 5.53655C21.7814 5.53711 22.1554 5.54336 22.5298 5.54966C22.7897 5.55116 23.0497 5.55231 23.3096 5.55311C23.993 5.55618 24.6763 5.56407 25.3596 5.57297C26.0572 5.58121 26.7548 5.58487 27.4525 5.58892C28.8208 5.59754 30.1889 5.61126 31.5571 5.62818C31.5571 5.73431 31.5571 5.84044 31.5571 5.94979C31.2701 6.21172 31.2701 6.21172 30.8698 6.52265C30.726 6.63708 30.5822 6.7515 30.434 6.86939C30.116 7.1172 29.7955 7.36169 29.4727 7.60306C29.3158 7.72411 29.1588 7.84517 28.9971 7.96989C28.7774 8.13437 28.7774 8.13437 28.5532 8.30218C28.1094 8.7954 28.1311 9.15816 28.0508 9.80909C27.7619 10.2381 27.7619 10.2381 27.4133 10.6433C26.6965 11.573 26.5843 12.3493 26.6164 13.5076C27.7052 13.9548 28.6688 14.0612 29.8376 14.0595C30.1009 14.062 30.1009 14.062 30.3695 14.0645C30.9333 14.0693 31.497 14.0709 32.0608 14.0723C32.4106 14.0748 32.7604 14.0775 33.1103 14.0804C34.4022 14.0897 35.6941 14.0949 36.986 14.1005C39.8754 14.1171 42.7649 14.1337 45.7419 14.1508C45.7419 22.8004 45.7419 31.4501 45.7419 40.3619C43.5855 40.3619 41.4291 40.3619 39.2073 40.3619C39.2073 38.823 39.2073 37.2841 39.2073 35.6985C37.3665 35.6985 35.5257 35.6985 33.6291 35.6985C33.6291 34.1596 33.6291 32.6207 33.6291 31.0352C31.691 30.9603 31.691 30.9603 31.069 31.6784C31 31.7794 30.931 31.8803 30.8598 31.9843C29.814 33.3464 28.146 34.0799 26.6164 34.7337C26.4033 34.8398 26.1907 34.9469 25.9788 35.0553C26.0387 35.1834 26.0986 35.3115 26.1604 35.4435C27.423 38.146 28.6716 40.8542 29.8915 43.5767C30.3674 44.6384 30.8463 45.6983 31.3355 46.7538C31.3808 46.8519 31.4262 46.95 31.4729 47.051C31.6857 47.5111 31.8993 47.9707 32.1144 48.4296C32.1884 48.5892 32.2623 48.7489 32.3385 48.9134C32.4034 49.0522 32.4683 49.1911 32.5351 49.3341C32.6728 49.6885 32.6728 49.6885 32.6728 50.1709C26.0458 50.1709 19.4188 50.1709 12.591 50.1709C12.7232 49.5039 12.8563 49.0907 13.1463 48.4969C13.2285 48.3269 13.3108 48.157 13.3955 47.9819C13.485 47.7988 13.5745 47.6158 13.6668 47.4272C13.8583 47.0317 14.0489 46.6359 14.2396 46.24C14.2884 46.1387 14.3373 46.0373 14.3876 45.933C14.8771 44.9159 15.349 43.8909 15.8184 42.8644C16.6625 41.0207 17.5181 39.1828 18.3784 37.3468C18.4398 37.2159 18.5011 37.085 18.5643 36.9502C18.9105 36.2113 19.257 35.4724 19.6037 34.7337C19.511 34.7162 19.4183 34.6987 19.3228 34.6807C17.2564 34.2596 15.2876 32.894 14.0254 31.196C13.3417 31.143 12.6579 31.0899 11.9535 31.0352C11.9535 32.5741 11.9535 34.113 11.9535 35.6985C10.06 35.6985 8.1666 35.6985 6.2158 35.6985C6.2158 37.2374 6.2158 38.7763 6.2158 40.3619C4.16458 40.3619 2.11337 40.3619 0 40.3619C0 31.7122 0 23.0626 0 14.1508C8.7061 14.1005 8.7061 14.1005 11.4533 14.0884C12.2672 14.0825 12.2672 14.0825 13.0811 14.076C13.4431 14.0734 13.8051 14.0718 14.1671 14.0709C14.7161 14.0693 15.2649 14.0647 15.8138 14.0595C16.055 14.0599 16.055 14.0599 16.3011 14.0602C17.1607 14.0486 17.7328 13.9655 18.488 13.5076C18.5932 13.5076 18.6984 13.5076 18.8068 13.5076C18.8068 12.8708 18.8068 12.234 18.8068 11.5779C16.703 11.5779 14.5992 11.5779 12.4316 11.5779C14.0217 9.05692 14.0217 9.05692 14.5013 8.90444C14.6676 8.90429 14.6676 8.90429 14.8373 8.90413C14.9639 8.90201 15.0904 8.89989 15.2208 8.89771C15.356 8.89935 15.4911 8.90099 15.6304 8.90268C15.7702 8.90101 15.9101 8.89934 16.0542 8.89762C16.5003 8.89285 16.9462 8.89339 17.3923 8.89451C17.8395 8.89308 18.2866 8.89053 18.7338 8.88624C19.0119 8.88383 19.2901 8.88323 19.5682 8.88459C20.2996 8.91573 20.2996 8.91573 20.8787 8.52265C19.8794 8.46959 18.8801 8.41652 17.8505 8.36185C18.1264 7.66601 18.2084 7.46087 18.7072 6.99502C19.0435 6.67811 19.2992 6.40995 19.5508 6.01737C19.9224 5.62818 19.9224 5.62818 20.4408 5.53149ZM22.4725 14.1508C22.0222 15.2541 21.769 16.362 21.5162 17.5277C22.2526 17.5277 22.9889 17.5277 23.7475 17.5277C23.4846 16.4133 23.2216 15.2989 22.9506 14.1508C22.7928 14.1508 22.6351 14.1508 22.4725 14.1508ZM18.9662 14.794C18.2449 15.5807 17.6911 16.9275 17.6911 18.0101C18.48 17.904 19.269 17.7978 20.0818 17.6885C20.3974 16.5741 20.7129 15.4597 21.0381 14.3116C20.265 14.3116 19.6618 14.4541 18.9662 14.794ZM24.2257 14.3116C24.5092 15.3971 24.8161 16.4674 25.1819 17.5277C25.4308 17.5823 25.6798 17.6356 25.929 17.6885C26.0677 17.7183 26.2064 17.7482 26.3493 17.7789C26.7657 17.8476 27.1516 17.8615 27.5726 17.8493C27.4291 17.4027 27.2826 16.9575 27.1343 16.5126C27.0941 16.3863 27.0538 16.2599 27.0123 16.1298C26.7113 15.2174 26.7113 15.2174 25.9788 14.6332C25.3636 14.3823 24.884 14.297 24.2257 14.3116ZM28.3695 16.0804C28.4457 16.3652 28.5221 16.65 28.5986 16.9347C28.6412 17.0933 28.6837 17.2519 28.7275 17.4152C28.8127 17.7231 28.9069 18.0285 29.0071 18.3317C29.3612 18.5034 29.3612 18.5034 29.784 18.6131C29.925 18.6554 30.0659 18.6977 30.2111 18.7412C30.6208 18.8506 30.6208 18.8506 31.079 18.6533C30.0037 17.2452 30.0037 17.2452 28.6883 16.0804C28.5831 16.0804 28.4779 16.0804 28.3695 16.0804ZM16.5755 16.2412C15.5868 17.0548 14.8344 17.8645 14.1848 18.9749C14.4704 18.8983 14.756 18.8211 15.0414 18.7438C15.2004 18.7009 15.3595 18.6579 15.5233 18.6137C15.9306 18.5083 15.9306 18.5083 16.2567 18.3317C16.4084 17.9718 16.4084 17.9718 16.5257 17.5478C16.569 17.4056 16.6124 17.2634 16.657 17.1169C16.7722 16.7039 16.7722 16.7039 16.5755 16.2412ZM21.1975 18.9749C20.8968 20.4312 20.7947 21.8335 20.7193 23.3166C21.929 23.3166 23.1387 23.3166 24.385 23.3166C24.385 22.2575 24.3606 21.2798 24.2257 20.2412C24.1468 19.6144 24.1468 19.6144 24.0663 18.9749C23.1196 18.9749 22.1729 18.9749 21.1975 18.9749ZM25.5007 19.1357C25.6585 20.5154 25.8163 21.8951 25.9788 23.3166C26.8204 23.3166 27.6619 23.3166 28.5289 23.3166C28.599 21.9729 28.3312 20.7659 28.0508 19.4573C27.2093 19.3512 26.3677 19.2451 25.5007 19.1357ZM18.498 19.2764C18.3289 19.3025 18.1598 19.3287 17.9856 19.3556C17.5027 19.4349 17.5027 19.4349 17.0536 19.7789C16.6811 20.9185 16.7043 22.1313 16.7348 23.3166C17.5764 23.3166 18.4179 23.3166 19.2849 23.3166C19.4427 21.9369 19.6005 20.5572 19.763 19.1357C19.332 19.1357 18.9237 19.2087 18.498 19.2764ZM29.4852 19.9397C29.5078 20.3217 29.5312 20.7036 29.5549 21.0855C29.5612 21.1924 29.5675 21.2994 29.5739 21.4096C29.615 22.0603 29.6971 22.6698 29.8039 23.3166C30.6981 23.3166 31.5922 23.3166 32.5134 23.3166C32.5379 21.9571 32.5379 21.9571 32.0353 20.7438C31.2528 20.2356 30.3934 20.0789 29.4852 19.9397ZM13.3879 20.7438C12.8484 21.5455 12.9097 22.3714 12.9097 23.3166C13.7513 23.3166 14.5928 23.3166 15.4598 23.3166C15.6176 21.6451 15.6176 21.6451 15.7786 19.9397C14.9788 19.9397 14.0826 20.3691 13.3879 20.7438ZM12.9097 24.7639C12.9481 26.0332 12.9481 26.0332 13.3879 27.1759C14.1701 27.6475 14.8748 27.828 15.7786 27.9799C15.6734 26.9186 15.5682 25.8573 15.4598 24.7639C14.6183 24.7639 13.7768 24.7639 12.9097 24.7639ZM16.5755 24.7639C16.6215 25.195 16.6675 25.6262 16.7149 26.0704C16.7287 26.2043 16.7424 26.3383 16.7565 26.4762C16.8348 27.1758 16.9632 27.7996 17.213 28.4624C17.4884 28.5169 17.764 28.5702 18.0398 28.6232C18.1932 28.653 18.3467 28.6829 18.5048 28.7136C19.0197 28.804 19.0197 28.804 19.763 28.784C19.6053 27.4573 19.4475 26.1307 19.2849 24.7639C18.3908 24.7639 17.4967 24.7639 16.5755 24.7639ZM20.7193 24.7639C20.7972 26.1918 20.9117 27.5414 21.1975 28.9448C22.1442 28.9448 23.0909 28.9448 24.0663 28.9448C24.1189 28.5833 24.1715 28.2217 24.2257 27.8493C24.2553 27.6459 24.2848 27.4426 24.3153 27.2331C24.3969 26.4138 24.385 25.5873 24.385 24.7639C23.1754 24.7639 21.9657 24.7639 20.7193 24.7639ZM25.9788 24.7639C25.9251 25.2529 25.8721 25.742 25.8195 26.2312C25.8043 26.3688 25.7891 26.5065 25.7734 26.6483C25.697 27.3641 25.6413 28.0627 25.6601 28.784C26.5237 28.8203 27.218 28.6982 28.0508 28.4624C28.3802 27.2003 28.5869 26.0703 28.5289 24.7639C27.6874 24.7639 26.8459 24.7639 25.9788 24.7639ZM29.8039 24.7639C29.7514 25.142 29.6988 25.52 29.6446 25.9096C29.6279 26.0267 29.6113 26.1439 29.5941 26.2646C29.5087 26.8952 29.4695 27.5047 29.4852 28.1407C29.8754 28.0313 30.2629 27.9169 30.6507 27.799C30.7607 27.7688 30.8707 27.7385 30.984 27.7073C31.5637 27.5265 31.8395 27.3906 32.1847 26.8794C32.3429 26.4053 32.4303 26.005 32.4636 25.5076C32.48 25.2622 32.4965 25.0167 32.5134 24.7639C31.6193 24.7639 30.7252 24.7639 29.8039 24.7639ZM14.1848 28.9448C14.4149 29.6569 14.7732 30.112 15.2705 30.6634C15.4063 30.8165 15.5421 30.9697 15.6821 31.1276C16.0845 31.5056 16.3742 31.6782 16.8942 31.8392C16.6624 30.5648 16.6624 30.5648 15.9996 29.5139C15.677 29.3702 15.677 29.3702 15.141 29.2664C14.9602 29.2034 14.7795 29.1403 14.5932 29.0754C14.4584 29.0323 14.3236 28.9892 14.1848 28.9448ZM31.079 28.9448C29.8985 29.1905 29.8985 29.1905 28.9442 29.8531C28.8032 30.1815 28.8032 30.1815 28.6883 30.7136C28.6258 30.8595 28.5634 31.0055 28.499 31.1558C28.3425 31.5291 28.3425 31.5291 28.3695 32C29.6477 31.5725 30.5694 30.4108 31.2384 29.2664C31.1858 29.1602 31.1332 29.0541 31.079 28.9448ZM17.6911 30.0704C17.9951 31.8355 17.9951 31.8355 18.9854 33.2381C19.6404 33.5379 20.3224 33.6948 21.0381 33.7689C20.7375 32.6374 20.4214 31.5122 20.0818 30.392C19.833 30.3374 19.5839 30.284 19.3347 30.2312C19.196 30.2013 19.0574 30.1715 18.9145 30.1407C18.498 30.072 18.1122 30.0581 17.6911 30.0704ZM26.0187 30.2312C25.7832 30.276 25.7832 30.276 25.543 30.3216C25.4239 30.3449 25.3047 30.3681 25.1819 30.392C25.1263 30.5953 25.0706 30.7987 25.0132 31.0082C24.94 31.2752 24.8667 31.5421 24.7935 31.8091C24.7384 32.0101 24.7384 32.0101 24.6823 32.2152C24.6469 32.3442 24.6114 32.4732 24.5749 32.6062C24.5261 32.7843 24.5261 32.7843 24.4763 32.966C24.3995 33.2357 24.3136 33.5027 24.2257 33.7689C24.4782 33.7232 24.7305 33.676 24.9827 33.6282C25.1935 33.589 25.1935 33.589 25.4086 33.549C25.9674 33.4133 25.9674 33.4133 26.457 33.1257C26.6545 32.7575 26.8138 32.4165 26.965 32.0302C27.0064 31.931 27.0478 31.8318 27.0905 31.7296C27.3136 31.1821 27.481 30.6552 27.5726 30.0704C27.018 30.0704 26.5597 30.1272 26.0187 30.2312ZM21.5162 30.5528C21.6366 31.0862 21.7598 31.6185 21.8848 32.1508C21.9188 32.3028 21.9528 32.4549 21.9878 32.6115C22.0394 32.8284 22.0394 32.8284 22.0921 33.0497C22.1384 33.2505 22.1384 33.2505 22.1857 33.4554C22.2488 33.6106 22.2488 33.6106 22.3131 33.7689C22.4709 33.8219 22.6287 33.875 22.7913 33.9297C22.951 33.3971 23.1102 32.8644 23.2694 32.3317C23.315 32.1797 23.3606 32.0276 23.4076 31.871C23.4508 31.7264 23.4939 31.5818 23.5383 31.4328C23.5784 31.2989 23.6185 31.165 23.6597 31.0271C23.7548 30.7421 23.7548 30.7421 23.7475 30.5528C23.0112 30.5528 22.2749 30.5528 21.5162 30.5528Z" fill="#163058"/>
<path d="M54.1895 35.6985C109.888 35.6985 165.586 35.6985 222.972 35.6985C222.972 36.123 222.972 36.5475 222.972 36.9849C167.274 36.9849 111.576 36.9849 54.1895 36.9849C54.1895 36.5604 54.1895 36.1359 54.1895 35.6985Z" fill="#173058"/>
<path d="M208.629 14.7939C209.703 14.7816 210.777 14.7732 211.852 14.7674C212.216 14.765 212.581 14.7617 212.946 14.7575C216.149 14.7215 219.079 14.8088 221.544 17.1739C223.035 18.855 223.508 20.8785 223.485 23.0847C223.345 25.3606 222.39 27.2453 220.742 28.7838C218.833 30.2942 216.76 30.7416 214.388 30.7292C214.223 30.729 214.058 30.7287 213.888 30.7285C213.364 30.7276 212.839 30.7256 212.315 30.7235C211.958 30.7227 211.601 30.722 211.245 30.7213C210.373 30.7196 209.501 30.7169 208.629 30.7135C208.8 30.3543 208.973 30.0345 209.203 29.7086C209.495 29.1298 209.493 28.6117 209.488 27.9773C209.489 27.7862 209.489 27.7862 209.49 27.5911C209.492 27.1713 209.491 26.7515 209.489 26.3316C209.49 26.039 209.49 25.7465 209.491 25.4539C209.491 24.8413 209.49 24.2287 209.488 23.6161C209.485 22.8315 209.487 22.047 209.49 21.2624C209.492 20.6584 209.491 20.0545 209.49 19.4506C209.489 19.1613 209.49 18.872 209.491 18.5827C209.492 18.1782 209.49 17.7738 209.488 17.3693C209.489 17.2501 209.49 17.131 209.491 17.0082C209.482 16.2901 209.368 15.8554 208.948 15.2763C208.842 15.1171 208.737 14.9579 208.629 14.7939ZM212.295 16.8843C212.295 20.8112 212.295 24.738 212.295 28.7838C216.006 28.8335 216.006 28.8335 218.995 27.0445C220.187 25.7755 220.643 24.1756 220.617 22.4522C220.468 20.6186 219.951 19.2477 218.65 17.9698C216.788 16.3949 214.572 16.4248 212.295 16.8843Z" fill="#163058"/>
<path d="M168.943 14.7939C169.958 14.7816 170.973 14.7732 171.988 14.7674C172.333 14.765 172.678 14.7617 173.022 14.7575C173.52 14.7516 174.018 14.7489 174.515 14.7468C174.744 14.7431 174.744 14.7431 174.976 14.7393C176.574 14.7389 177.98 15.0926 179.144 16.2411C179.737 17.0904 179.883 18.1438 179.728 19.1639C179.451 20.0944 178.812 20.6887 178.028 21.2261C177.923 21.2261 177.818 21.2261 177.709 21.2261C177.709 21.3322 177.709 21.4383 177.709 21.5477C177.837 21.5543 177.966 21.5609 178.098 21.5678C179.383 21.8862 180.189 22.6685 180.882 23.7751C181.383 24.7676 181.385 26.0321 181.112 27.096C180.494 28.6281 179.509 29.4869 178.054 30.1947C176.86 30.6619 175.814 30.7586 174.547 30.7449C174.386 30.7445 174.225 30.744 174.059 30.7435C173.549 30.7418 173.039 30.7377 172.529 30.7336C172.182 30.732 171.835 30.7305 171.487 30.7292C170.639 30.7257 169.791 30.7203 168.943 30.7135C169.073 30.5635 169.202 30.4134 169.336 30.2589C170.031 29.1262 169.847 27.6962 169.835 26.4101C169.835 26.1146 169.835 25.8192 169.835 25.5237C169.835 24.9064 169.832 24.2892 169.827 23.6719C169.82 22.8813 169.82 22.0909 169.821 21.3003C169.821 20.691 169.819 20.0817 169.817 19.4723C169.816 19.1808 169.815 18.8893 169.815 18.5978C169.815 18.1906 169.811 17.7836 169.807 17.3764C169.808 17.2565 169.808 17.1366 169.809 17.0131C169.797 16.2942 169.683 15.8562 169.262 15.2763C169.157 15.1171 169.052 14.9579 168.943 14.7939ZM172.609 16.5628C172.609 18.0486 172.609 19.5344 172.609 21.0653C174.657 21.0886 174.657 21.0886 176.391 20.2154C176.833 19.7671 176.968 19.3436 177.002 18.7336C176.956 18.0143 176.762 17.5871 176.275 17.0452C175.136 16.1544 173.972 16.2877 172.609 16.5628ZM172.609 22.8341C172.609 24.7445 172.609 26.6548 172.609 28.6231C173.612 29.1292 175.326 29.0525 176.384 28.7537C177.167 28.4596 177.672 28.1002 178.157 27.407C178.454 26.5397 178.53 25.6249 178.231 24.7437C177.721 23.7726 177.008 23.3034 176.006 22.9338C175.355 22.7578 174.713 22.7839 174.044 22.804C173.333 22.8189 173.333 22.8189 172.609 22.8341Z" fill="#173058"/>
<path d="M122.562 14.7939C123.654 14.7775 124.745 14.7663 125.836 14.7586C126.206 14.7554 126.576 14.751 126.946 14.7454C130.07 14.6993 132.462 14.9135 135.124 16.7035C136.452 18.0059 137.367 19.6857 137.433 21.571C137.435 21.8748 137.436 22.1786 137.435 22.4824C137.437 22.6326 137.44 22.7827 137.442 22.9375C137.444 24.9995 136.707 26.7968 135.325 28.3153C133.384 30.1218 130.97 30.7716 128.399 30.7449C128.231 30.7445 128.064 30.744 127.891 30.7436C127.36 30.7418 126.829 30.7378 126.298 30.7336C125.936 30.732 125.574 30.7306 125.212 30.7292C124.329 30.7257 123.446 30.7204 122.562 30.7135C122.646 30.6029 122.646 30.6029 122.731 30.4899C122.804 30.3913 122.876 30.2926 122.951 30.1909C123.023 30.0939 123.095 29.9969 123.17 29.897C123.589 29.2149 123.543 28.5022 123.544 27.7208C123.545 27.5984 123.546 27.4759 123.547 27.3498C123.549 26.9455 123.55 26.5412 123.551 26.1369C123.552 25.8553 123.553 25.5737 123.554 25.2922C123.556 24.702 123.557 24.1118 123.557 23.5216C123.558 22.7664 123.562 22.0113 123.566 21.2561C123.569 20.6745 123.57 20.0929 123.57 19.5113C123.571 19.2329 123.572 18.9545 123.574 18.6762C123.577 18.2863 123.577 17.8965 123.576 17.5066C123.578 17.3352 123.578 17.3352 123.58 17.1603C123.573 16.2732 123.362 15.6369 122.772 14.9749C122.703 14.9152 122.634 14.8555 122.562 14.7939ZM127.055 16.7236C126.899 16.7534 126.744 16.7833 126.584 16.814C126.408 16.8489 126.408 16.8489 126.228 16.8844C126.225 18.4122 126.222 19.9399 126.22 21.4677C126.219 22.177 126.218 22.8863 126.216 23.5956C126.214 24.2796 126.214 24.9636 126.213 25.6475C126.213 25.9091 126.212 26.1706 126.211 26.4321C126.21 26.7972 126.21 27.1622 126.21 27.5273C126.21 27.7354 126.209 27.9436 126.209 28.1581C126.175 28.6061 126.175 28.6061 126.388 28.7839C128.617 29.0102 130.74 28.8124 132.598 27.4585C133.693 26.5042 134.378 25.3644 134.564 23.907C134.585 23.5278 134.59 23.1536 134.586 22.7738C134.585 22.6407 134.584 22.5076 134.583 22.3705C134.543 20.803 134.101 19.3944 133.003 18.2431C131.404 16.7453 129.161 16.3139 127.055 16.7236Z" fill="#163058"/>
<path d="M104.553 14.7939C107.788 14.5068 107.788 14.5068 108.673 15.0973C108.99 15.5682 109.234 16.0577 109.493 16.5628C109.814 17.0001 110.162 17.4134 110.51 17.8291C110.691 18.0511 110.871 18.2735 111.051 18.4962C111.139 18.6043 111.226 18.7125 111.316 18.8239C111.673 19.2703 112.018 19.7247 112.362 20.1809C112.959 20.9705 113.572 21.7439 114.195 22.5125C115.262 23.8293 116.292 25.1714 117.303 26.5326C117.314 25.2731 117.323 24.0137 117.328 22.7541C117.33 22.1692 117.334 21.5843 117.339 20.9994C117.344 20.4343 117.347 19.8692 117.348 19.304C117.35 18.9849 117.353 18.6658 117.357 18.3467C117.358 16.7643 117.185 16.0518 116.187 14.7939C117.608 14.7939 119.028 14.7939 120.491 14.7939C120.491 15.1155 120.491 15.1155 120.102 15.5176C119.967 15.6502 119.833 15.7829 119.694 15.9196C119.424 16.4634 119.506 17.0815 119.502 17.68C119.5 17.8291 119.499 17.9781 119.497 18.1317C119.492 18.6259 119.488 19.1201 119.484 19.6143C119.481 19.9563 119.477 20.2984 119.474 20.6404C119.465 21.5419 119.457 22.4433 119.45 23.3448C119.442 24.2642 119.433 25.1836 119.424 26.103C119.407 27.9078 119.391 29.7127 119.375 31.5175C116.963 31.0555 115.67 28.974 114.279 27.1135C113.683 26.316 113.071 25.5355 112.442 24.7638C111.64 23.7779 110.864 22.7751 110.105 21.7544C109.351 20.7456 108.547 19.7805 107.74 18.814C107.729 20.047 107.721 21.28 107.716 22.513C107.713 23.0856 107.71 23.6583 107.704 24.2309C107.698 24.8907 107.696 25.5505 107.694 26.2104C107.691 26.414 107.689 26.6175 107.686 26.8273C107.686 27.9138 107.715 28.9257 108.218 29.9095C108.542 30.2188 108.542 30.2188 108.856 30.3919C108.856 30.4981 108.856 30.6042 108.856 30.7135C107.436 30.7135 106.016 30.7135 104.553 30.7135C104.553 30.6074 104.553 30.5013 104.553 30.3919C104.678 30.2792 104.803 30.1664 104.931 30.0502C105.956 28.9176 105.715 27.2374 105.711 25.7939C105.711 25.5501 105.711 25.3062 105.712 25.0624C105.712 24.5531 105.711 24.0439 105.71 23.5346C105.708 22.8847 105.709 22.2349 105.711 21.585C105.712 21.082 105.712 20.579 105.711 20.076C105.711 19.8365 105.711 19.597 105.712 19.3575C105.803 17.2595 105.803 17.2595 104.931 15.4572C104.806 15.3445 104.681 15.2317 104.553 15.1155C104.553 15.0094 104.553 14.9033 104.553 14.7939Z" fill="#163058"/>
<path d="M68.373 14.7939C69.8983 14.7939 71.4236 14.7939 72.995 14.7939C72.7321 15.1654 72.4691 15.5369 72.1982 15.9196C71.9181 17.6148 71.9449 19.348 71.8794 21.0653C74.6669 21.0653 77.4545 21.0653 80.3265 21.0653C80.57 17.7035 80.57 17.7035 79.3702 14.7939C80.8955 14.7939 82.4207 14.7939 83.9922 14.7939C83.9922 14.9001 83.9922 15.0062 83.9922 15.1156C83.7797 15.33 83.5672 15.5444 83.3547 15.7588C83.1628 16.3396 83.1706 16.8716 83.1697 17.4763C83.1689 17.6019 83.1681 17.7274 83.1673 17.8568C83.1649 18.2724 83.1638 18.688 83.163 19.1036C83.162 19.3926 83.1611 19.6817 83.1602 19.9707C83.1585 20.577 83.1576 21.1832 83.157 21.7895C83.1562 22.5654 83.1523 23.3413 83.1478 24.1173C83.1448 24.7145 83.144 25.3116 83.1438 25.9088C83.1433 26.1948 83.142 26.4808 83.1399 26.7668C83.1372 27.1675 83.1375 27.5681 83.1385 27.9688C83.1371 28.0863 83.1356 28.2039 83.1341 28.325C83.1401 29.0767 83.2776 29.5936 83.6735 30.2311C83.7787 30.2842 83.8839 30.3373 83.9922 30.3919C83.9922 30.4981 83.9922 30.6042 83.9922 30.7135C82.467 30.7135 80.9417 30.7135 79.3702 30.7135C79.5806 30.4482 79.791 30.1829 80.0077 29.9095C80.4444 28.4249 80.3655 26.8091 80.3464 25.2764C80.3399 24.5235 80.3333 23.7706 80.3265 22.995C77.539 22.995 74.7514 22.995 71.8794 22.995C71.8991 23.8971 71.9188 24.7992 71.9392 25.7286C71.9446 26.0107 71.95 26.2929 71.9556 26.5835C71.9612 26.8111 71.9669 27.0387 71.9728 27.2663C71.9755 27.4387 71.9755 27.4387 71.9783 27.6146C72.0134 28.8695 72.1898 29.698 72.995 30.7135C71.4698 30.7135 69.9445 30.7135 68.373 30.7135C68.373 30.6074 68.373 30.5013 68.373 30.3919C68.5856 30.1775 68.7981 29.9631 69.0106 29.7487C69.2025 29.1679 69.1947 28.6359 69.1956 28.0312C69.1964 27.9056 69.1972 27.7801 69.198 27.6507C69.2004 27.2351 69.2014 26.8195 69.2023 26.4039C69.2032 26.1148 69.2042 25.8258 69.2051 25.5368C69.2067 24.9305 69.2077 24.3243 69.2082 23.718C69.2091 22.942 69.2129 22.1661 69.2175 21.3902C69.2204 20.793 69.2213 20.1958 69.2215 19.5986C69.222 19.3126 69.2233 19.0266 69.2254 18.7406C69.2281 18.34 69.2278 17.9394 69.2268 17.5387C69.2282 17.4212 69.2297 17.3036 69.2312 17.1825C69.2252 16.4308 69.0877 15.9139 68.6918 15.2764C68.5866 15.2233 68.4814 15.1702 68.373 15.1156C68.373 15.0094 68.373 14.9033 68.373 14.7939Z" fill="#173058"/>
<path d="M86.0645 14.7939C87.6423 14.7939 89.2202 14.7939 90.8458 14.7939C90.6355 15.0593 90.4251 15.3246 90.2083 15.598C89.8086 16.5996 89.8407 17.5965 89.8416 18.6652C89.8409 18.8517 89.8403 19.0383 89.8396 19.2305C89.8386 19.6245 89.8386 20.0185 89.8392 20.4125C89.8397 21.0103 89.836 21.6079 89.832 22.2057C89.8316 22.59 89.8315 22.9743 89.8317 23.3586C89.8302 23.5351 89.8287 23.7115 89.8272 23.8933C89.836 25.4006 89.964 27.1342 91.0052 28.3015C92.005 29.0297 92.9848 29.2335 94.1928 29.1055C95.482 28.8191 96.3347 28.2991 97.0616 27.1759C97.2364 26.6468 97.2434 26.2517 97.2467 25.6945C97.2482 25.4884 97.2498 25.2823 97.2513 25.0699C97.2521 24.8446 97.2528 24.6192 97.2534 24.3938C97.2543 24.1625 97.2552 23.9311 97.2561 23.6998C97.2578 23.2147 97.2587 22.7295 97.2593 22.2444C97.2602 21.6242 97.264 21.004 97.2685 20.3838C97.2715 19.9058 97.2723 19.4278 97.2726 18.9498C97.2731 18.7213 97.2743 18.4927 97.2764 18.2642C97.2792 17.9436 97.2786 17.6231 97.2778 17.3025C97.2784 17.1205 97.279 16.9384 97.2796 16.7508C97.2124 16.1661 97.0436 15.778 96.7429 15.2764C96.5851 15.1968 96.5851 15.1968 96.4241 15.1156C96.4241 15.0094 96.4241 14.9033 96.4241 14.7939C97.9494 14.7939 99.4746 14.7939 101.046 14.7939C100.783 15.1654 100.52 15.5369 100.249 15.9196C100.061 16.6243 100.068 17.3208 100.064 18.0485C100.063 18.1608 100.063 18.2732 100.062 18.3889C100.059 18.7578 100.058 19.1267 100.057 19.4956C100.057 19.6224 100.057 19.7492 100.056 19.8799C100.054 20.5509 100.052 21.2219 100.052 21.893C100.051 22.5829 100.047 23.2727 100.042 23.9626C100.039 24.4961 100.039 25.0296 100.038 25.5631C100.038 25.8172 100.037 26.0714 100.034 26.3256C100.022 27.9776 100.029 29.3457 101.046 30.7135C99.8364 30.7135 98.6267 30.7135 97.3804 30.7135C97.3015 30.1564 97.3015 30.1564 97.221 29.5879C97.1456 29.652 97.0702 29.716 96.9925 29.782C95.5821 30.9221 93.9321 31.3591 92.1209 31.196C90.5337 30.9565 89.2499 30.4973 88.1563 29.2764C87.3974 28.1728 87.1625 27.1407 87.155 25.8213C87.1533 25.6158 87.1517 25.4102 87.15 25.1984C87.1495 25.0894 87.1489 24.9803 87.1484 24.8679C87.1465 24.5244 87.1434 24.1809 87.1399 23.8374C87.1301 22.8611 87.1215 21.8848 87.1161 20.9084C87.1128 20.31 87.1072 19.7117 87.1001 19.1133C87.0978 18.8863 87.0964 18.6592 87.0959 18.4321C87.1146 16.42 87.1146 16.42 86.0645 14.7939Z" fill="#173058"/>
<path d="M153.004 14.7939C154.016 14.7775 155.028 14.7663 156.04 14.7586C156.384 14.7554 156.727 14.751 157.071 14.7454C157.567 14.7375 158.064 14.734 158.56 14.7311C158.712 14.7278 158.863 14.7245 159.019 14.7211C160.51 14.7206 161.887 15.1054 162.986 16.1589C163.79 17.0559 163.911 17.973 163.895 19.1444C163.754 20.3924 163.09 21.2909 162.161 22.0835C161.576 22.4843 160.957 22.8175 160.335 23.1558C160.427 23.2673 160.427 23.2673 160.52 23.3812C163.325 26.8081 163.325 26.8081 164.141 27.897C164.504 28.3315 164.887 28.6693 165.326 29.0251C165.479 29.1495 165.632 29.2738 165.79 29.402C166.155 29.6879 166.522 29.9636 166.9 30.2311C167.048 30.3373 167.196 30.4434 167.348 30.5527C167.348 30.6058 167.348 30.6589 167.348 30.7135C166.79 30.7324 166.233 30.7437 165.675 30.7537C165.518 30.7591 165.361 30.7645 165.2 30.7701C164.021 30.7859 163.158 30.6433 162.288 29.8C162.004 29.4811 161.741 29.1526 161.481 28.814C161.338 28.6327 161.338 28.6327 161.191 28.4476C160.903 28.0798 160.618 27.709 160.335 27.3367C160.253 27.2287 160.171 27.1208 160.086 27.0096C159.267 25.9246 158.492 24.812 157.755 23.6683C157.694 23.5729 157.632 23.4775 157.568 23.3793C157.148 22.7132 157.148 22.7132 157.148 22.3517C157.387 22.2815 157.387 22.2815 157.632 22.2098C159.071 21.7697 160.163 21.4039 160.973 20.0502C161.172 19.3107 161.204 18.7437 160.973 18.01C160.484 17.1667 159.994 16.8194 159.06 16.5628C158.635 16.5411 158.229 16.5319 157.805 16.5427C157.641 16.5449 157.641 16.5449 157.473 16.5471C157.205 16.5508 156.937 16.5566 156.67 16.5628C156.683 18.155 156.698 19.7472 156.715 21.3393C156.723 22.0787 156.731 22.8181 156.737 23.5575C156.743 24.2718 156.75 24.9859 156.759 25.7001C156.762 25.972 156.764 26.2438 156.766 26.5156C156.769 26.8978 156.773 27.2799 156.778 27.662C156.779 27.7732 156.779 27.8843 156.779 27.9989C156.793 28.7934 156.916 29.4761 157.148 30.2311C157.462 30.4844 157.462 30.4844 157.785 30.5527C157.785 30.6058 157.785 30.6589 157.785 30.7135C156.207 30.7135 154.63 30.7135 153.004 30.7135C153.267 30.3951 153.53 30.0768 153.801 29.7487C154.045 29.1641 153.985 28.5111 153.986 27.8842C153.987 27.762 153.987 27.6398 153.988 27.5139C153.991 27.1104 153.992 26.7069 153.993 26.3034C153.993 26.0222 153.994 25.741 153.995 25.4598C153.997 24.8703 153.998 24.2808 153.998 23.6913C153.999 22.9375 154.003 22.1838 154.008 21.4301C154.011 20.8492 154.012 20.2683 154.012 19.6873C154.012 19.4095 154.014 19.1318 154.016 18.854C154.018 18.4645 154.018 18.0752 154.017 17.6857C154.019 17.5151 154.019 17.5151 154.021 17.3411C154.014 16.4178 153.824 15.6723 153.213 14.9648C153.144 14.9084 153.075 14.852 153.004 14.7939Z" fill="#163058"/>
<path d="M192.848 14.7939C193.843 14.7819 194.838 14.7732 195.833 14.7674C196.171 14.765 196.509 14.7617 196.847 14.7575C197.335 14.7516 197.823 14.7489 198.311 14.7468C198.535 14.7431 198.535 14.7431 198.764 14.7393C200.143 14.7389 201.315 15.0403 202.41 15.9195C203.238 16.7587 203.572 17.522 203.586 18.7035C203.562 19.977 203.228 20.7248 202.39 21.6582C201.745 22.2773 200.989 22.6381 200.179 22.9949C200.452 23.6359 200.876 24.153 201.305 24.6934C201.422 24.8424 201.422 24.8424 201.542 24.9944C201.702 25.197 201.862 25.3993 202.022 25.6014C202.228 25.8599 202.432 26.1196 202.635 26.3793C203.837 27.8933 205.108 29.142 206.664 30.2713C206.786 30.3642 206.907 30.457 207.032 30.5527C207.032 30.6058 207.032 30.6588 207.032 30.7135C206.468 30.7276 205.904 30.7361 205.339 30.7437C205.18 30.7477 205.021 30.7517 204.857 30.7559C203.711 30.7674 203.019 30.6529 202.155 29.841C200.577 28.0618 199.157 26.225 197.838 24.2411C197.689 24.0168 197.689 24.0168 197.536 23.788C197.445 23.6482 197.353 23.5083 197.259 23.3643C197.176 23.2388 197.094 23.1133 197.009 22.9841C196.832 22.6733 196.832 22.6733 196.832 22.3517C196.994 22.3011 197.155 22.2505 197.321 22.1984C197.537 22.129 197.752 22.0595 197.968 21.9899C198.074 21.9569 198.18 21.924 198.289 21.89C199.106 21.6234 199.866 21.3068 200.412 20.6055C200.834 19.7253 201.03 18.9917 200.717 18.0232C200.41 17.3756 200.002 16.9618 199.348 16.6782C198.758 16.5246 198.186 16.536 197.582 16.5471C197.464 16.5482 197.345 16.5493 197.224 16.5505C196.934 16.5534 196.644 16.5579 196.354 16.5628C196.368 18.0655 196.383 19.5683 196.4 21.071C196.408 21.769 196.415 22.4669 196.421 23.1648C196.427 23.8394 196.435 24.514 196.443 25.1886C196.446 25.4449 196.448 25.7012 196.45 25.9575C196.404 28.5014 196.404 28.5014 197.47 30.7135C195.944 30.7135 194.419 30.7135 192.848 30.7135C192.848 30.6074 192.848 30.5012 192.848 30.3919C193.06 30.1775 193.273 29.9631 193.485 29.7487C193.677 29.1679 193.669 28.6358 193.67 28.0312C193.671 27.9056 193.672 27.78 193.673 27.6507C193.675 27.2351 193.676 26.8195 193.677 26.4038C193.678 26.1148 193.679 25.8258 193.68 25.5368C193.681 24.9305 193.682 24.3242 193.683 23.7179C193.684 22.942 193.688 22.1661 193.692 21.3902C193.695 20.793 193.696 20.1958 193.696 19.5986C193.697 19.3126 193.698 19.0266 193.7 18.7406C193.703 18.3399 193.702 17.9394 193.701 17.5387C193.703 17.4211 193.704 17.3036 193.706 17.1824C193.698 16.1996 193.377 15.5947 192.848 14.7939Z" fill="#163058"/>
<path d="M148.86 14.6333C148.86 15.5885 148.86 16.5437 148.86 17.5278C148.063 17.2062 148.063 17.2062 147.76 17.0315C147.299 16.8289 146.88 16.8145 146.38 16.7841C146.199 16.772 146.018 16.76 145.831 16.7476C145.035 16.7178 144.238 16.7238 143.441 16.7238C143.441 18.1565 143.441 19.5893 143.441 21.0655C145.413 20.9859 145.413 20.9859 147.426 20.9047C147.426 21.8068 147.426 22.7089 147.426 23.6383C147.215 23.5322 147.005 23.4261 146.788 23.3167C145.701 23.0425 144.56 23.0615 143.441 22.9951C143.441 24.8524 143.441 26.7097 143.441 28.6233C143.914 28.6233 144.388 28.6233 144.876 28.6233C145.291 28.6576 145.706 28.6944 146.121 28.7338C147.697 28.8522 149.065 28.6147 150.355 27.6408C150.44 27.5936 150.525 27.5463 150.613 27.4976C150.85 27.5772 150.85 27.5772 151.091 27.6584C150.936 28.1377 150.78 28.6167 150.623 29.0956C150.579 29.2323 150.535 29.369 150.489 29.5099C150.446 29.6399 150.404 29.77 150.36 29.904C150.321 30.0245 150.281 30.1449 150.241 30.2689C150.135 30.5529 150.135 30.5529 149.976 30.7137C149.658 30.7288 149.339 30.7326 149.021 30.732C148.817 30.7319 148.613 30.7319 148.402 30.7319C148.178 30.7311 147.953 30.7303 147.729 30.7294C147.5 30.7291 147.272 30.7289 147.043 30.7287C146.441 30.7281 145.839 30.7265 145.236 30.7247C144.622 30.7231 144.008 30.7224 143.393 30.7216C142.187 30.7198 140.981 30.7171 139.775 30.7137C139.978 30.4782 140.18 30.2426 140.382 30.007C140.823 29.4075 140.756 28.7417 140.757 28.0313C140.758 27.9058 140.759 27.7802 140.76 27.6509C140.762 27.2352 140.763 26.8196 140.764 26.404C140.765 26.115 140.766 25.826 140.767 25.537C140.768 24.9307 140.769 24.3244 140.77 23.7181C140.771 22.9422 140.775 22.1663 140.779 21.3904C140.782 20.7932 140.783 20.196 140.783 19.5988C140.784 19.3128 140.785 19.0268 140.787 18.7408C140.79 18.3401 140.79 17.9396 140.788 17.5389C140.79 17.4213 140.791 17.3037 140.793 17.1826C140.786 16.2852 140.582 15.6453 139.985 14.975C139.916 14.9153 139.847 14.8556 139.775 14.7941C140.992 14.7711 142.209 14.7482 143.426 14.7254C143.84 14.7176 144.255 14.7098 144.669 14.702C145.263 14.6908 145.858 14.6796 146.453 14.6685C146.638 14.665 146.824 14.6614 147.016 14.6578C147.274 14.653 147.274 14.653 147.538 14.6481C147.689 14.6452 147.841 14.6423 147.998 14.6394C148.285 14.6348 148.573 14.6333 148.86 14.6333Z" fill="#173058"/>
<path d="M54.5078 14.6332C58.3999 14.6332 62.2919 14.6332 66.3019 14.6332C66.1226 16.0804 66.1226 16.0804 65.8935 16.804C65.8506 16.9417 65.8076 17.0793 65.7634 17.2211C65.7307 17.3223 65.698 17.4234 65.6644 17.5277C65.267 17.3341 64.9183 17.133 64.5487 16.8844C63.8794 16.7033 63.1958 16.6738 62.5067 16.6332C62.341 16.6228 62.341 16.6228 62.1721 16.6121C61.9018 16.5952 61.6315 16.579 61.3611 16.5628C61.3709 18.1816 61.3832 19.8003 61.3987 21.4189C61.4058 22.1706 61.4121 22.9222 61.4164 23.6739C61.4205 24.3996 61.427 25.1253 61.435 25.851C61.4376 26.1275 61.4395 26.4041 61.4405 26.6807C61.442 27.0687 61.4465 27.4566 61.4516 27.8446C61.4514 27.9584 61.4512 28.0723 61.4509 28.1895C61.4725 29.3418 61.8383 29.9085 62.6362 30.7136C61.0057 30.7136 59.3753 30.7136 57.6954 30.7136C57.9058 30.4483 58.1162 30.1829 58.3329 29.9096C58.7724 28.5528 58.7076 27.1309 58.7177 25.718C58.7207 25.4533 58.7238 25.1885 58.727 24.9238C58.7352 24.2315 58.7415 23.5391 58.7475 22.8468C58.7539 22.1385 58.762 21.4303 58.77 20.7221C58.7854 19.3357 58.7988 17.9493 58.8111 16.5628C58.2794 16.5986 57.7484 16.6405 57.2173 16.6834C56.9939 16.6984 56.9939 16.6984 56.7659 16.7136C55.7544 16.7992 55.0766 17.0359 54.1891 17.5277C54.0313 17.5277 53.8735 17.5277 53.7109 17.5277C53.7835 17.226 53.8567 16.9245 53.9301 16.6231C53.9708 16.4552 54.0114 16.2873 54.0534 16.1143C54.1847 15.6148 54.3458 15.1235 54.5078 14.6332Z" fill="#163058"/>
<path d="M184.561 14.7939C186.138 14.7939 187.716 14.7939 189.342 14.7939C189.132 15.0593 188.921 15.3246 188.704 15.598C188.414 16.3912 188.345 17.0937 188.344 17.9355C188.344 18.051 188.343 18.1665 188.343 18.2854C188.341 18.6639 188.342 19.0423 188.343 19.4208C188.343 19.6861 188.343 19.9515 188.342 20.2168C188.342 20.7718 188.343 21.3267 188.344 21.8817C188.346 22.5898 188.345 23.2979 188.343 24.0059C188.342 24.5536 188.342 25.1013 188.343 25.649C188.343 25.9099 188.343 26.1709 188.342 26.4318C188.311 28.36 188.311 28.36 188.704 30.2311C189.024 30.4317 189.024 30.4317 189.342 30.5527C189.342 30.6058 189.342 30.6589 189.342 30.7135C187.764 30.7135 186.186 30.7135 184.561 30.7135C184.824 30.3952 185.086 30.0768 185.357 29.7487C185.602 29.1641 185.542 28.5111 185.543 27.8842C185.543 27.762 185.544 27.6398 185.545 27.5139C185.547 27.1104 185.548 26.7069 185.549 26.3034C185.55 26.0222 185.551 25.741 185.552 25.4598C185.554 24.8703 185.555 24.2808 185.555 23.6913C185.556 22.9375 185.56 22.1838 185.564 21.4301C185.567 20.8492 185.568 20.2683 185.568 19.6873C185.569 19.4095 185.57 19.1318 185.572 18.854C185.575 18.4645 185.575 18.0752 185.574 17.6857C185.576 17.5151 185.576 17.5151 185.578 17.3411C185.569 16.2729 185.316 15.5561 184.561 14.7939Z" fill="#163058"/>
<path d="M156.988 41.8092C157.356 41.8092 157.725 41.8092 158.104 41.8092C158.682 43.1358 159.261 44.4625 159.857 45.8293C160.326 44.8825 160.771 43.9753 161.172 43.0052C161.593 41.987 161.593 41.987 161.77 41.8092C162.138 41.8092 162.506 41.8092 162.885 41.8092C162.885 44.091 162.885 46.3728 162.885 48.7238C162.465 48.7238 162.044 48.7238 161.61 48.7238C161.531 47.1318 161.531 47.1318 161.451 45.5077C161.135 46.2506 160.82 46.9935 160.495 47.759C160.126 47.759 159.758 47.759 159.379 47.759C159.223 47.4476 159.067 47.136 158.911 46.8243C158.824 46.6508 158.737 46.4773 158.647 46.2985C158.423 45.8293 158.423 45.8293 158.263 45.3469C158.211 46.4613 158.158 47.5756 158.104 48.7238C157.736 48.7238 157.368 48.7238 156.988 48.7238C156.988 46.442 156.988 44.1602 156.988 41.8092Z" fill="#163058"/>
<path d="M196.992 41.8092C197.36 41.8092 197.729 41.8092 198.108 41.8092C198.686 43.1358 199.265 44.4625 199.861 45.8293C200.029 45.4645 200.196 45.0997 200.369 44.7238C200.821 43.7437 201.286 42.772 201.774 41.8092C202.142 41.8092 202.51 41.8092 202.889 41.8092C202.889 44.091 202.889 46.3728 202.889 48.7238C202.468 48.7238 202.048 48.7238 201.614 48.7238C201.535 47.1318 201.535 47.1318 201.455 45.5077C201.139 46.2506 200.824 46.9935 200.499 47.759C200.13 47.759 199.762 47.759 199.383 47.759C199.015 47.016 198.647 46.2731 198.267 45.5077C198.215 46.569 198.162 47.6303 198.108 48.7238C197.74 48.7238 197.372 48.7238 196.992 48.7238C196.992 46.442 196.992 44.1602 196.992 41.8092Z" fill="#173058"/>
<path d="M210.859 41.8092C211.975 41.8092 211.975 41.8092 212.272 42.0705C212.348 42.1965 212.424 42.3226 212.503 42.4524C212.593 42.5963 212.683 42.7401 212.776 42.8883C212.88 43.0629 212.984 43.2374 213.091 43.4172C213.299 43.7517 213.508 44.0853 213.717 44.4189C214.042 44.9409 214.363 45.4658 214.684 45.9901C214.737 44.6104 214.79 43.2307 214.844 41.8092C215.265 41.8092 215.685 41.8092 216.119 41.8092C216.119 44.091 216.119 46.3728 216.119 48.7238C214.844 48.7238 214.844 48.7238 214.499 48.4067C214.415 48.2615 214.33 48.1164 214.242 47.9669C214.1 47.7307 214.1 47.7307 213.954 47.4898C213.813 47.24 213.813 47.24 213.668 46.9851C213.57 46.8204 213.472 46.6557 213.371 46.486C213.19 46.1805 213.01 45.8738 212.833 45.5656C212.663 45.2725 212.481 44.9864 212.294 44.7037C212.241 46.0303 212.189 47.3569 212.134 48.7238C211.714 48.7238 211.293 48.7238 210.859 48.7238C210.859 46.442 210.859 44.1602 210.859 41.8092Z" fill="#173058"/>
<path d="M133.242 41.8092C136.27 41.8092 136.27 41.8092 137.386 42.1308C137.865 42.6515 138.061 43.0589 138.083 43.759C138.032 44.2902 137.993 44.5898 137.705 45.0253C137.6 45.0253 137.494 45.0253 137.386 45.0253C137.488 45.148 137.59 45.2707 137.695 45.3971C138.208 46.0723 138.253 46.6007 138.183 47.4373C137.86 48.0329 137.628 48.3465 137.067 48.7238C136.662 48.7603 136.662 48.7603 136.184 48.7552C136.03 48.7544 135.876 48.7536 135.717 48.7527C135.521 48.7498 135.326 48.7469 135.125 48.7439C134.504 48.7372 133.882 48.7306 133.242 48.7238C133.242 46.442 133.242 44.1602 133.242 41.8092ZM134.517 42.9348C134.517 43.5186 134.517 44.1023 134.517 44.7037C134.826 44.7211 135.135 44.7335 135.444 44.7439C135.616 44.7513 135.788 44.7588 135.965 44.7665C136.444 44.7495 136.444 44.7495 136.731 44.4059C136.941 44.0627 136.941 44.0627 136.898 43.6383C136.785 43.2424 136.785 43.2424 136.473 43.073C136.049 42.9112 135.726 42.9027 135.274 42.9147C134.9 42.9247 134.9 42.9247 134.517 42.9348ZM134.517 45.8293C134.517 46.413 134.517 46.9967 134.517 47.5981C134.856 47.6068 135.195 47.6131 135.533 47.6182C135.816 47.6238 135.816 47.6238 136.105 47.6296C136.607 47.651 136.607 47.651 136.908 47.2765C136.982 46.6235 136.982 46.6235 136.727 46.0416C136.297 45.7344 135.964 45.7822 135.444 45.7992C135.184 45.8057 135.184 45.8057 134.919 45.8123C134.786 45.8179 134.654 45.8235 134.517 45.8293Z" fill="#173058"/>
<path d="M171.174 41.8092C172.289 41.8092 172.289 41.8092 172.545 42.0173C172.599 42.1138 172.652 42.2104 172.708 42.3098C172.771 42.4179 172.834 42.526 172.9 42.6374C172.961 42.7521 173.023 42.8669 173.086 42.9851C173.212 43.2057 173.339 43.4261 173.465 43.6465C173.603 43.8892 173.741 44.132 173.883 44.3821C174.251 44.9658 174.62 45.5495 174.999 46.1509C175.052 44.7181 175.104 43.2854 175.158 41.8092C175.526 41.8092 175.895 41.8092 176.274 41.8092C176.274 44.091 176.274 46.3728 176.274 48.7238C175.158 48.7238 175.158 48.7238 174.861 48.4625C174.785 48.3364 174.709 48.2104 174.63 48.0806C174.495 47.8648 174.495 47.8648 174.358 47.6446C174.254 47.4701 174.15 47.2956 174.043 47.1157C173.835 46.7813 173.625 46.4477 173.416 46.1141C173.091 45.5921 172.77 45.0672 172.449 44.5429C172.396 45.9226 172.344 47.3023 172.289 48.7238C171.921 48.7238 171.553 48.7238 171.174 48.7238C171.174 46.442 171.174 44.1602 171.174 41.8092Z" fill="#163058"/>
<path d="M118.13 42.0603C118.817 42.4372 119.066 42.8621 119.375 43.5779C119.375 43.7371 119.375 43.8963 119.375 44.0603C118.529 44.1315 118.529 44.1315 118.1 44.0603C117.884 43.7956 117.671 43.5276 117.463 43.2563C116.898 43.1357 116.898 43.1357 116.347 43.2563C116.008 43.5472 115.884 43.7862 115.824 44.2309C115.805 44.6342 115.804 45.0335 115.809 45.4372C115.807 45.576 115.806 45.7148 115.804 45.8578C115.804 45.9911 115.805 46.1245 115.806 46.262C115.806 46.3833 115.807 46.5047 115.807 46.6298C115.886 47.0451 116.013 47.1874 116.347 47.4372C117.083 47.5232 117.083 47.5232 117.752 47.2563C118.004 46.8551 118.13 46.4445 118.26 45.99C117.786 45.99 117.313 45.99 116.825 45.99C116.825 45.6185 116.825 45.2471 116.825 44.8644C117.667 44.8644 118.508 44.8644 119.375 44.8644C119.471 47.3909 119.471 47.3909 118.738 48.2412C117.986 48.7895 117.279 49.0188 116.347 48.8845C115.578 48.6506 115.121 48.3886 114.72 47.6747C114.359 46.8944 114.345 46.1757 114.365 45.3267C114.364 45.1872 114.363 45.0477 114.361 44.9039C114.371 43.9565 114.495 43.2362 115.152 42.5095C116.11 41.7569 116.99 41.5579 118.13 42.0603Z" fill="#163058"/>
<path d="M188.546 42.2915C189.108 42.8441 189.271 43.2765 189.343 44.0603C188.922 44.0603 188.501 44.0603 188.068 44.0603C188.022 43.9575 187.976 43.8547 187.928 43.7488C187.776 43.3927 187.776 43.3927 187.43 43.2563C186.889 43.1969 186.587 43.1797 186.128 43.4906C185.698 44.0937 185.749 44.622 185.767 45.3468C185.766 45.4765 185.765 45.6063 185.763 45.74C185.769 46.3008 185.787 46.6956 186.04 47.201C186.458 47.5605 186.762 47.5278 187.291 47.4994C187.618 47.4569 187.618 47.4569 187.898 47.1659C188.078 46.7722 188.168 46.4183 188.227 45.99C187.806 45.99 187.386 45.99 186.952 45.99C186.952 45.6185 186.952 45.2471 186.952 44.8644C187.741 44.8644 188.53 44.8644 189.343 44.8644C189.356 45.2424 189.369 45.6205 189.383 46.0101C189.388 46.1272 189.394 46.2444 189.4 46.3651C189.414 47.1802 189.206 47.615 188.705 48.2412C188.062 48.8114 187.499 48.9342 186.642 48.9184C185.9 48.8415 185.458 48.5021 184.941 47.9843C184.463 47.3888 184.431 46.8471 184.422 46.1005C184.418 45.9794 184.415 45.8583 184.411 45.7335C184.403 45.39 184.401 45.0471 184.402 44.7035C184.399 44.4756 184.399 44.4756 184.396 44.2431C184.432 43.4151 184.706 42.9275 185.262 42.3518C186.26 41.4894 187.459 41.6915 188.546 42.2915Z" fill="#163058"/>
<path d="M130.708 42.2018C131.292 42.6867 131.597 43.2381 131.708 43.9829C131.733 44.4393 131.735 44.8898 131.727 45.3469C131.73 45.5011 131.732 45.6553 131.735 45.8142C131.729 46.8142 131.606 47.4335 131.01 48.2413C130.464 48.6949 129.87 48.865 129.177 48.965C128.332 48.8431 127.634 48.5435 127.036 47.9197C126.616 47.1224 126.667 46.268 126.657 45.3871C126.652 45.2474 126.648 45.1076 126.643 44.9637C126.634 43.9917 126.782 43.2559 127.344 42.4524C128.359 41.5574 129.553 41.6675 130.708 42.2018ZM128.241 43.3569C127.719 44.1268 127.753 45.0827 127.822 45.9901C127.936 46.5259 128.047 46.9602 128.33 47.4273C128.811 47.7114 129.193 47.6653 129.735 47.5981C130.146 47.3033 130.325 47.092 130.492 46.6132C130.594 45.4346 130.676 44.315 130.024 43.2765C129.421 42.8987 128.811 42.9631 128.241 43.3569Z" fill="#163058"/>
<path d="M101.063 42.2015C101.649 42.6878 101.954 43.2373 102.06 43.9852C102.082 44.4441 102.082 44.8974 102.072 45.3567C102.073 45.5122 102.074 45.6678 102.076 45.8281C102.068 46.6934 102.018 47.3412 101.524 48.0803C100.677 48.7395 100.044 48.9728 98.9741 48.8843C98.2048 48.6569 97.7462 48.3853 97.3467 47.6745C96.9863 46.8942 96.9723 46.1755 96.9919 45.3265C96.9907 45.187 96.9896 45.0475 96.9884 44.9038C96.9977 43.9564 97.1218 43.2361 97.7788 42.5093C98.8842 41.6409 99.8168 41.6254 101.063 42.2015ZM98.3366 43.7386C98.0953 44.7717 98.0991 45.9222 98.3366 46.9547C98.5693 47.3771 98.5693 47.3771 98.9741 47.5979C99.6149 47.6902 99.9406 47.7088 100.468 47.3165C100.913 46.6953 100.912 46.1102 100.917 45.3567C100.919 45.1927 100.921 45.0287 100.923 44.8598C100.877 44.2511 100.709 43.795 100.379 43.2863C99.5809 42.759 98.8755 43.045 98.3366 43.7386Z" fill="#163058"/>
<path d="M77.8868 42C78.5364 42.3587 78.8828 42.7535 79.2117 43.4171C79.2589 44.0459 79.256 44.6762 79.2615 45.3066C79.2661 45.4811 79.2707 45.6556 79.2755 45.8355C79.2835 46.8511 79.2578 47.4735 78.5741 48.2413C77.9311 48.8114 77.3677 48.9342 76.5109 48.9184C75.7522 48.8398 75.311 48.4847 74.7789 47.9598C73.9915 46.7795 74.1491 44.971 74.3605 43.598C74.5548 42.8168 75.0424 42.387 75.7053 41.9699C76.4871 41.707 77.1042 41.7458 77.8868 42ZM75.8336 43.4108C75.4442 44.0724 75.4517 44.5917 75.4662 45.3468C75.4638 45.4745 75.4613 45.6022 75.4588 45.7337C75.463 46.3743 75.5026 46.7209 75.8348 47.2815C76.1759 47.6503 76.1759 47.6503 76.7413 47.6784C77.3101 47.5965 77.5432 47.5278 77.9366 47.1156C78.131 46.5273 78.1315 45.9797 78.1358 45.3669C78.1391 45.2531 78.1424 45.1393 78.1458 45.022C78.1512 44.2945 78.0653 43.8327 77.6179 43.2563C76.9799 42.9345 76.37 42.9274 75.8336 43.4108Z" fill="#163058"/>
<path d="M84.2618 41.9999C84.9115 42.3585 85.2578 42.7534 85.5867 43.417C85.6339 44.0458 85.631 44.6761 85.6365 45.3064C85.6411 45.481 85.6457 45.6555 85.6505 45.8353C85.6585 46.8509 85.6329 47.4734 84.9492 48.2411C84.3061 48.8113 83.7427 48.9341 82.886 48.9183C82.132 48.8402 81.6885 48.4851 81.1539 47.9698C80.7497 47.3521 80.6637 46.8706 80.6459 46.1507C80.6398 46.0242 80.6336 45.8978 80.6272 45.7675C80.5618 43.4281 80.5618 43.4281 81.2174 42.6249C82.1609 41.7835 83.0379 41.6023 84.2618 41.9999ZM82.2933 43.4107C81.7906 44.0705 81.8072 44.5378 81.8313 45.3466C81.8296 45.4743 81.8278 45.602 81.826 45.7336C81.8339 46.373 81.8786 46.7225 82.2105 47.2813C82.5509 47.6502 82.5509 47.6502 83.1163 47.6783C83.6851 47.5963 83.9182 47.5277 84.3116 47.1155C84.506 46.5272 84.5065 45.9796 84.5109 45.3667C84.5142 45.2529 84.5174 45.1391 84.5208 45.0219C84.5262 44.2943 84.4403 43.8326 83.9929 43.2562C83.347 42.9304 82.869 42.9831 82.2933 43.4107Z" fill="#163058"/>
<path d="M191.096 41.8091C192.568 41.8091 194.041 41.8091 195.558 41.8091C195.558 42.2336 195.558 42.6581 195.558 43.0955C194.454 43.0955 193.349 43.0955 192.211 43.0955C192.211 43.6792 192.211 44.263 192.211 44.8644C193.158 44.8644 194.105 44.8644 195.08 44.8644C195.08 45.1828 195.08 45.5011 195.08 45.8292C194.133 45.8292 193.187 45.8292 192.211 45.8292C192.211 46.4129 192.211 46.9966 192.211 47.598C193.316 47.598 194.42 47.598 195.558 47.598C195.558 47.9695 195.558 48.3409 195.558 48.7237C194.086 48.7237 192.613 48.7237 191.096 48.7237C191.096 46.4418 191.096 44.16 191.096 41.8091Z" fill="#173058"/>
<path d="M59.9271 42.4524C59.7279 43.0399 59.6608 43.2212 59.1302 43.5781C58.9675 43.5084 58.9675 43.5084 58.8015 43.4374C58.1193 43.1738 57.462 43.231 56.7395 43.2565C56.6996 43.7254 56.6996 43.7254 56.7395 44.2213C57.3865 44.6565 58.0324 44.7159 58.7909 44.8526C59.4847 45.0929 59.7655 45.5033 60.0865 46.1509C60.17 46.7529 60.2113 47.3403 59.942 47.8965C59.4887 48.4902 59.051 48.7453 58.3333 48.8846C57.3515 48.9859 56.4996 48.8789 55.6238 48.4022C55.2254 48.0504 55.2254 48.0504 54.9863 47.759C55.3019 47.361 55.3019 47.361 55.6238 46.9549C56.3809 47.2565 56.3809 47.2565 56.7395 47.4374C57.0011 47.4609 57.2638 47.4729 57.5264 47.4776C57.7357 47.4838 57.7357 47.4838 57.9492 47.4901C58.3393 47.4656 58.3393 47.4656 58.6328 47.2338C58.8511 46.96 58.8511 46.96 58.7616 46.6032C58.7255 46.507 58.6893 46.4108 58.6521 46.3117C58.4887 46.2765 58.3254 46.2413 58.1571 46.2049C56.1976 45.7521 56.1976 45.7521 55.7235 45.2062C55.3348 44.4522 55.2614 43.9946 55.4047 43.156C55.6535 42.5397 55.8649 42.3172 56.4207 41.97C57.6441 41.4593 58.8047 41.9327 59.9271 42.4524Z" fill="#163058"/>
<path d="M204.803 41.8091C206.223 41.8091 207.643 41.8091 209.106 41.8091C209.106 42.2336 209.106 42.6581 209.106 43.0955C208.054 43.0955 207.002 43.0955 205.918 43.0955C205.918 43.6792 205.918 44.263 205.918 44.8644C206.813 44.8644 207.707 44.8644 208.628 44.8644C208.628 45.1828 208.628 45.5011 208.628 45.8292C207.734 45.8292 206.84 45.8292 205.918 45.8292C205.918 46.4129 205.918 46.9966 205.918 47.598C206.97 47.598 208.022 47.598 209.106 47.598C209.106 47.9695 209.106 48.3409 209.106 48.7237C207.686 48.7237 206.266 48.7237 204.803 48.7237C204.803 46.4418 204.803 44.16 204.803 41.8091Z" fill="#173058"/>
<path d="M67.8955 41.8091C68.2637 41.8091 68.6318 41.8091 69.0112 41.8091C69.0112 42.8173 69.0112 43.8256 69.0112 44.8644C69.8527 44.8644 70.6942 44.8644 71.5612 44.8644C71.5612 43.8561 71.5612 42.8479 71.5612 41.8091C71.9294 41.8091 72.2976 41.8091 72.6769 41.8091C72.6769 44.0909 72.6769 46.3727 72.6769 48.7237C72.3087 48.7237 71.9406 48.7237 71.5612 48.7237C71.5612 47.7685 71.5612 46.8133 71.5612 45.8292C70.7197 45.8292 69.8782 45.8292 69.0112 45.8292C69.0112 46.7844 69.0112 47.7395 69.0112 48.7237C68.643 48.7237 68.2748 48.7237 67.8955 48.7237C67.8955 46.4418 67.8955 44.16 67.8955 41.8091Z" fill="#173058"/>
<path d="M141.688 41.8091C142.056 41.8091 142.424 41.8091 142.803 41.8091C143.144 42.7419 143.485 43.6749 143.825 44.6082C143.94 44.9259 144.056 45.2435 144.172 45.561C144.339 46.0166 144.505 46.4725 144.671 46.9284C144.723 47.071 144.776 47.2135 144.829 47.3604C144.877 47.4924 144.925 47.6244 144.974 47.7603C145.017 47.8767 145.059 47.9931 145.103 48.1131C145.194 48.402 145.194 48.402 145.194 48.7237C144.773 48.7237 144.352 48.7237 143.919 48.7237C143.682 48.0073 143.682 48.0073 143.441 47.2764C142.652 47.2764 141.863 47.2764 141.05 47.2764C140.892 47.754 140.734 48.2316 140.572 48.7237C140.151 48.7237 139.73 48.7237 139.297 48.7237C139.704 47.2407 140.236 45.805 140.761 44.3618C140.851 44.1135 140.941 43.8652 141.031 43.6169C141.249 43.0141 141.468 42.4115 141.688 41.8091ZM142.166 43.7387C142.059 44.05 141.953 44.3616 141.847 44.6734C141.788 44.8469 141.729 45.0204 141.668 45.1992C141.505 45.6637 141.505 45.6637 141.528 46.1508C142.002 46.1508 142.475 46.1508 142.963 46.1508C142.789 45.3265 142.608 44.5332 142.325 43.7387C142.272 43.7387 142.22 43.7387 142.166 43.7387Z" fill="#163058"/>
<path d="M180.746 41.7991C180.978 41.804 180.978 41.804 181.214 41.8091C181.813 43.2157 182.349 44.6387 182.858 46.0805C182.931 46.2845 183.004 46.4886 183.077 46.6926C183.146 46.8855 183.214 47.0784 183.284 47.2771C183.346 47.4509 183.408 47.6247 183.471 47.8038C183.605 48.2413 183.605 48.2413 183.605 48.7237C183.184 48.7237 182.763 48.7237 182.33 48.7237C182.225 48.2461 182.119 47.7685 182.011 47.2765C181.17 47.2765 180.328 47.2765 179.461 47.2765C179.356 47.754 179.251 48.2316 179.142 48.7237C178.721 48.7237 178.301 48.7237 177.867 48.7237C177.972 47.9024 178.209 47.1766 178.49 46.404C178.535 46.2772 178.581 46.1505 178.627 46.0199C178.723 45.7537 178.819 45.4876 178.915 45.2216C179.063 44.813 179.209 44.4039 179.356 43.9947C179.449 43.7358 179.542 43.4769 179.635 43.218C179.679 43.0953 179.723 42.9725 179.769 42.846C180.144 41.8115 180.144 41.8115 180.746 41.7991ZM180.577 43.8996C180.47 44.2143 180.364 44.5292 180.258 44.8443C180.199 45.0197 180.14 45.195 180.079 45.3757C179.923 45.8013 179.923 45.8013 179.939 46.1508C180.465 46.1508 180.991 46.1508 181.533 46.1508C181.457 45.866 181.38 45.5813 181.304 45.2966C181.261 45.138 181.219 44.9794 181.175 44.816C181.09 44.5082 180.996 44.2028 180.895 43.8996C180.79 43.8996 180.685 43.8996 180.577 43.8996Z" fill="#163058"/>
<path d="M167.038 41.7991C167.27 41.804 167.27 41.804 167.506 41.8091C167.847 42.7419 168.188 43.675 168.528 44.6083C168.644 44.9259 168.759 45.2435 168.876 45.561C169.042 46.0167 169.208 46.4725 169.374 46.9285C169.426 47.071 169.479 47.2136 169.533 47.3604C169.58 47.4924 169.628 47.6244 169.678 47.7604C169.72 47.8768 169.763 47.9932 169.806 48.1131C169.897 48.4021 169.897 48.4021 169.897 48.7237C169.476 48.7237 169.056 48.7237 168.622 48.7237C168.464 48.2992 168.306 47.8747 168.144 47.4373C167.355 47.3842 166.566 47.3311 165.753 47.2765C165.595 47.754 165.438 48.2316 165.275 48.7237C164.854 48.7237 164.434 48.7237 164 48.7237C164.595 46.9949 165.196 45.2688 165.813 43.5478C165.896 43.3158 165.896 43.3158 165.98 43.0791C166.031 42.9364 166.083 42.7936 166.135 42.6464C166.181 42.5195 166.226 42.3926 166.273 42.2619C166.468 41.7785 166.484 41.8105 167.038 41.7991ZM166.869 43.7388C166.762 44.05 166.656 44.3617 166.55 44.6734C166.491 44.8469 166.432 45.0204 166.371 45.1992C166.208 45.6638 166.208 45.6638 166.231 46.1508C166.757 46.1508 167.283 46.1508 167.825 46.1508C167.562 45.3549 167.299 44.5589 167.028 43.7388C166.976 43.7388 166.923 43.7388 166.869 43.7388Z" fill="#163058"/>
<path d="M64.9769 42C65.5425 42.3123 65.8102 42.5413 66.1423 43.0955C66.2619 43.6282 66.2619 43.6282 66.3017 44.0603C65.8809 44.0603 65.4602 44.0603 65.0267 44.0603C64.9806 43.9575 64.9346 43.8547 64.8872 43.7488C64.7353 43.3927 64.7353 43.3927 64.3892 43.2563C63.838 43.1893 63.838 43.1893 63.2735 43.2563C62.9427 43.5425 62.8128 43.7775 62.7504 44.2134C62.7308 44.5924 62.7302 44.9673 62.7356 45.3468C62.7337 45.4765 62.7319 45.6063 62.73 45.74C62.7328 46.305 62.744 46.6938 63.0039 47.201C63.2843 47.4896 63.2843 47.4896 63.8214 47.5176C64.3959 47.4961 64.3959 47.4961 64.6979 47.1156C65.0853 46.7366 65.1849 46.7501 65.704 46.7538C65.9013 46.7671 66.0985 46.7803 66.3017 46.794C66.2324 47.5861 65.8879 48.0031 65.3454 48.5629C64.6987 48.9509 64.0096 48.9766 63.2735 48.8845C62.4545 48.5928 62.0095 48.1564 61.5203 47.4372C61.2057 46.0308 61.1307 44.2834 61.6797 42.9347C62.6216 41.8697 63.5929 41.5504 64.9769 42Z" fill="#163058"/>
<path d="M103.756 41.8092C105.176 41.8092 106.596 41.8092 108.059 41.8092C108.059 42.2337 108.059 42.6582 108.059 43.0956C107.007 43.0956 105.955 43.0956 104.872 43.0956C104.872 43.6794 104.872 44.2631 104.872 44.8645C105.766 44.8645 106.66 44.8645 107.581 44.8645C107.581 45.2359 107.581 45.6074 107.581 45.9901C106.687 45.9901 105.793 45.9901 104.872 45.9901C104.872 46.8922 104.872 47.7943 104.872 48.7238C104.503 48.7238 104.135 48.7238 103.756 48.7238C103.756 46.442 103.756 44.1602 103.756 41.8092Z" fill="#173058"/>
<path d="M146.311 41.8091C146.731 41.8091 147.152 41.8091 147.586 41.8091C147.586 43.7194 147.586 45.6298 147.586 47.598C148.637 47.598 149.689 47.598 150.773 47.598C150.773 47.9695 150.773 48.3409 150.773 48.7237C149.301 48.7237 147.828 48.7237 146.311 48.7237C146.311 46.4418 146.311 44.16 146.311 41.8091Z" fill="#173058"/>
<path d="M217.234 41.8091C218.865 41.8091 220.495 41.8091 222.175 41.8091C222.175 42.1805 222.175 42.552 222.175 42.9347C221.544 42.9347 220.913 42.9347 220.263 42.9347C220.263 44.8451 220.263 46.7554 220.263 48.7237C219.894 48.7237 219.526 48.7237 219.147 48.7237C219.147 46.8133 219.147 44.903 219.147 42.9347C218.516 42.9347 217.885 42.9347 217.234 42.9347C217.234 42.5633 217.234 42.1918 217.234 41.8091Z" fill="#173058"/>
<path d="M87.3398 41.8091C87.708 41.8091 88.0762 41.8091 88.4555 41.8091C88.4555 43.7194 88.4555 45.6298 88.4555 47.598C89.56 47.598 90.6645 47.598 91.8025 47.598C91.8025 47.9695 91.8025 48.3409 91.8025 48.7237C90.3298 48.7237 88.8571 48.7237 87.3398 48.7237C87.3398 46.4418 87.3398 44.16 87.3398 41.8091Z" fill="#173058"/>
<path d="M121.129 41.8092C121.497 41.8092 121.865 41.8092 122.245 41.8092C122.245 43.7196 122.245 45.6299 122.245 47.5981C123.296 47.5981 124.348 47.5981 125.432 47.5981C125.432 47.9696 125.432 48.3411 125.432 48.7238C124.012 48.7238 122.592 48.7238 121.129 48.7238C121.129 46.442 121.129 44.1602 121.129 41.8092Z" fill="#173058"/>
<path d="M48.3422 14.1005C48.9299 14.1507 48.9299 14.1507 49.3184 14.412C49.6407 14.9062 49.6515 15.177 49.5674 15.7588C49.4081 16.1407 49.4081 16.1407 49.0893 16.402C48.5182 16.5088 48.0078 16.5217 47.5055 16.211C47.2822 15.8268 47.1979 15.5631 47.1768 15.1155C47.647 14.1666 47.647 14.1666 48.3422 14.1005ZM47.9737 14.4723C47.9737 14.5254 47.9737 14.5785 47.9737 14.6331C48.2366 14.6331 48.4996 14.6331 48.7706 14.6331C48.7706 14.5801 48.7706 14.527 48.7706 14.4723C48.5076 14.4723 48.2446 14.4723 47.9737 14.4723ZM47.8143 14.6331C47.7091 14.8985 47.6039 15.1638 47.4955 15.4371C47.6533 15.5963 47.8111 15.7555 47.9737 15.9196C47.9737 15.495 47.9737 15.0705 47.9737 14.6331C47.9211 14.6331 47.8685 14.6331 47.8143 14.6331ZM48.9299 14.6331C48.9299 15.0576 48.9299 15.4822 48.9299 15.9196C49.0351 15.8665 49.1403 15.8134 49.2487 15.7588C49.1961 15.3873 49.1435 15.0158 49.0893 14.6331C49.0367 14.6331 48.9841 14.6331 48.9299 14.6331ZM48.2924 15.598C48.2924 15.7041 48.2924 15.8102 48.2924 15.9196C48.1346 15.9992 48.1346 15.9992 47.9737 16.0804C48.1314 16.1334 48.2892 16.1865 48.4518 16.2412C48.6096 16.135 48.7674 16.0289 48.9299 15.9196C48.7721 15.9196 48.6144 15.9196 48.4518 15.9196C48.3992 15.8134 48.3466 15.7073 48.2924 15.598Z" fill="#163059"/>
</svg>
