<svg width="491" height="101" viewBox="0 0 491 101" fill="none" xmlns="http://www.w3.org/2000/svg">
<g clip-path="url(#clip0_2270_570)">
<path d="M5.34024 53.0305C5.63021 53.1285 6.01682 53.3246 6.59674 53.3246C7.27332 53.3246 8.1432 53.1285 8.91643 52.3441L31.0501 29.7907L4.08375 2.43241C3.79379 2.13823 3.21387 2.33435 3.21387 2.82464V47.7353V49.7945C3.21387 51.8538 4.66367 52.7363 5.34024 53.0305Z" fill="#07C8CC"/>
<path d="M81.5024 61.1687C77.6363 58.8153 75.3166 54.6968 75.3166 49.892V6.94241C75.3166 4.88319 73.8668 4.09873 73.2869 3.80455C72.9969 3.70649 72.6103 3.51038 72.0304 3.51038C71.3538 3.51038 70.4839 3.70649 69.7107 4.49096L15.778 59.2075C13.265 61.757 9.9788 63.1298 6.69254 63.1298C6.59589 63.1298 6.49923 63.1298 6.40258 63.1298C6.30593 63.1298 6.20927 63.1298 6.11262 63.1298C5.91931 63.1298 5.72601 63.1298 5.43605 63.1298C5.24274 63.1298 5.04943 63.1298 4.85612 63.0318C4.75947 63.0318 4.66282 63.0318 4.56616 63.0318C4.37286 63.0318 4.17955 62.9337 3.98624 62.9337C3.11636 62.7376 2.24648 62.5415 1.47325 62.1492C1.08664 61.9531 0.79668 61.8551 0.410066 61.6589C0.120106 61.5609 -0.169855 61.8551 0.120106 62.1492L31.5325 94.0182C36.5585 99.1171 44.6774 99.1171 49.7034 94.0182C49.7034 94.0182 81.4058 61.8551 81.5024 61.757C81.6957 61.3648 81.6957 61.2667 81.5024 61.1687Z" fill="#07C8CC"/>
<path d="M84.8851 6.84484V36.7526V37.439V49.6963C84.8851 51.7555 86.335 52.638 87.0115 52.9322C87.5915 53.1283 88.8479 53.5206 90.201 52.638C90.2977 52.54 90.491 52.4419 90.5876 52.2458L112.625 29.8885C112.722 29.7905 112.722 29.6924 112.625 29.5943L83.532 0.0788209C83.3387 -0.117296 83.0487 0.0788209 83.242 0.372996C84.3051 2.23611 84.8851 4.49145 84.8851 6.84484Z" fill="#07C8CC"/>
<path d="M155.249 2.33439C154.766 1.8441 153.896 1.8441 153.412 2.33439L98.4166 58.1296L97.5467 59.0121C97.1601 59.4043 96.8701 59.6985 96.4833 59.9927L96.3866 60.0907C96.29 60.1888 96.1933 60.2869 96 60.3849C93.777 62.15 91.0707 63.0325 88.2677 63.0325C86.6246 63.0325 84.8849 62.7383 83.2418 61.9538C82.8551 61.7577 82.5652 61.6597 82.2752 61.4636C81.9853 61.3655 81.792 61.6597 82.0819 61.8558C82.3719 62.15 113.495 93.7247 113.495 93.7247C118.52 98.8239 126.639 98.8239 131.665 93.7247L179.412 45.2839C184.535 40.0869 184.535 31.7519 179.412 26.6529L155.249 2.33439Z" fill="#07C8CC"/>
<path d="M211.308 31.2607C217.881 31.2607 223.1 28.1229 223.1 19.7879V2.23547H219.234V19.886C219.234 25.2792 216.431 27.9268 211.405 27.9268C206.379 27.9268 203.673 25.2792 203.673 19.886V2.23547H199.71V19.7879C199.613 28.1229 204.832 31.2607 211.308 31.2607Z" fill="black"/>
<path d="M231.316 19.3959C231.316 15.7677 233.732 13.4143 236.728 13.4143C239.918 13.4143 241.561 15.4735 241.561 18.8075V30.7706H245.427V18.4153C245.427 13.8066 243.301 10.3745 238.082 10.3745C235.085 10.3745 232.379 12.0415 231.413 14.3949V10.8648H227.546V30.5745H231.413V19.3959H231.316Z" fill="black"/>
<path d="M253.447 2.23547H249.485V6.45198H253.447V2.23547Z" fill="black"/>
<path d="M253.449 10.9635H249.583V30.6732H253.449V10.9635Z" fill="black"/>
<path d="M267.465 30.6732L275.68 10.9635H272.007L265.821 26.1625H265.725L259.442 10.9635H255.383L263.695 30.6732H267.465Z" fill="black"/>
<path d="M286.021 31.2614C291.047 31.2614 294.43 28.5157 295.397 24.1031L292.207 23.7109C291.337 26.7507 289.404 28.3196 286.021 28.3196C282.445 28.3196 279.642 25.574 279.449 21.7497H295.493V20.2788C295.493 14.8856 292.207 10.473 285.828 10.473C280.029 10.473 275.679 14.9837 275.679 21.1614C275.679 27.241 280.029 31.2614 286.021 31.2614ZM285.828 13.2187C289.694 13.2187 291.434 16.0623 291.627 19.2983H279.642C280.029 16.0623 282.155 13.2187 285.828 13.2187Z" fill="black"/>
<path d="M302.645 20.2784C302.645 16.4541 304.772 13.9046 307.671 13.9046C308.928 13.9046 309.701 14.1007 310.764 14.6891L311.151 11.257C310.474 10.6687 309.508 10.3745 308.251 10.3745C305.352 10.3745 303.322 12.6299 302.549 14.9832V10.9629H298.683V30.6726H302.549V20.2784H302.645Z" fill="black"/>
<path d="M321.203 28.5157C317.723 28.5157 315.597 26.8488 315.21 23.907L312.021 24.1031C312.407 29.006 316.177 31.2614 321.203 31.2614C325.939 31.2614 329.418 29.1041 329.418 25.1818C329.418 21.6517 327.002 20.0827 322.942 19.4944L319.173 18.906C317.143 18.5138 316.08 17.7293 316.08 16.1604C316.08 14.3954 317.723 13.2187 320.236 13.2187C323.619 13.2187 325.552 14.5915 326.035 17.6313L329.128 17.4352C328.742 12.8264 325.649 10.473 320.333 10.473C315.693 10.473 312.6 12.9245 312.6 16.5526C312.6 19.9847 314.823 21.5536 318.593 22.142L321.976 22.7303C324.489 23.2206 325.842 23.8089 325.842 25.6721C325.842 27.5352 323.909 28.5157 321.203 28.5157Z" fill="black"/>
<path d="M336.667 10.9635H332.801V30.6732H336.667V10.9635Z" fill="black"/>
<path d="M336.668 2.23547H332.705V6.45198H336.668V2.23547Z" fill="black"/>
<path d="M356.192 26.554V30.6724H360.058V2.23547H356.192V15.0811C355.226 12.6297 352.713 10.3743 348.943 10.3743C342.951 10.3743 339.761 14.9831 339.761 20.7685C339.761 26.554 342.951 31.1627 348.943 31.1627C352.713 31.2607 355.226 29.0054 356.192 26.554ZM343.627 20.8666C343.627 16.3559 345.85 13.4141 349.813 13.4141C353.486 13.4141 356.192 15.9637 356.192 20.2782V21.4549C356.192 25.7695 353.389 28.319 349.813 28.319C345.85 28.2209 343.627 25.3773 343.627 20.8666Z" fill="black"/>
<path d="M371.463 19.4944C366.63 20.475 363.344 21.9458 363.344 25.7701C363.344 29.2022 365.857 31.2614 369.82 31.2614C373.106 31.2614 375.909 29.5944 377.069 27.241C377.262 29.5944 378.809 31.1633 380.839 31.1633C382.385 31.1633 383.255 30.673 383.931 29.9866V27.9274C383.352 28.2216 382.675 28.4177 382.192 28.4177C381.225 28.4177 380.645 27.9274 380.645 26.8488V18.0235C380.645 13.0225 377.649 10.473 372.623 10.473C367.887 10.473 364.891 13.2187 364.117 16.8468L367.5 17.3371C368.08 15.0818 369.627 13.3167 372.526 13.3167C375.329 13.3167 376.972 14.9837 376.972 17.7293V18.5138L371.463 19.4944ZM376.876 21.8478C376.876 25.8682 374.169 28.4177 370.593 28.4177C368.274 28.4177 367.114 27.1429 367.114 25.4759C367.114 23.1225 369.143 22.5342 372.333 21.8478L376.876 20.8672V21.8478Z" fill="black"/>
<path d="M393.79 31.2618C397.559 31.2618 400.072 29.0065 401.039 26.6531V30.7715H404.905V2.33459H401.039V15.1803C400.072 12.7288 397.559 10.4735 393.79 10.4735C387.797 10.4735 384.607 15.0822 384.607 20.8676C384.607 26.6531 387.797 31.2618 393.79 31.2618ZM394.659 13.4152C398.332 13.4152 401.039 15.9647 401.039 20.2793V21.456C401.039 25.7706 398.236 28.3201 394.659 28.3201C390.697 28.3201 388.474 25.4764 388.474 20.8676C388.474 16.2589 390.697 13.4152 394.659 13.4152Z" fill="black"/>
<path d="M218.846 61.071L205.314 42.1458H199.708V70.5826H204.928V50.4807L219.619 70.5826H224.162V42.1458H218.846V61.071Z" fill="black"/>
<path d="M237.889 50.088C231.703 50.088 227.354 54.4026 227.354 60.5802C227.354 66.7579 231.703 71.0725 237.889 71.0725C244.075 71.0725 248.424 66.7579 248.424 60.5802C248.521 54.4026 244.171 50.088 237.889 50.088ZM237.889 66.954C234.603 66.954 232.863 64.3065 232.863 60.5802C232.863 56.756 234.603 54.2065 237.889 54.2065C241.272 54.2065 243.012 56.854 243.012 60.5802C243.012 64.4045 241.272 66.954 237.889 66.954Z" fill="black"/>
<path d="M264.66 55.9715L265.047 50.8725C264.467 50.3822 263.5 50.088 262.244 50.088C259.441 50.088 257.411 52.1472 256.638 54.4026V50.5783H251.225V70.5822H256.638V60.7764C256.638 57.1482 258.571 55.187 261.374 55.187C262.727 55.089 263.597 55.3832 264.66 55.9715Z" fill="black"/>
<path d="M279.161 50.0885C275.585 50.0885 273.168 52.0496 272.299 54.5011V42.1458H266.886V70.5826H271.042L272.009 66.7584C273.072 69.2098 275.585 71.171 279.064 71.171C285.057 71.171 288.15 66.5623 288.15 60.6788C288.246 54.7953 285.057 50.0885 279.161 50.0885ZM277.518 66.8564C274.425 66.8564 272.299 64.6011 272.299 60.9729V60.1885C272.299 56.5603 274.522 54.305 277.518 54.305C280.997 54.305 282.737 56.7564 282.737 60.5807C282.737 64.405 280.997 66.8564 277.518 66.8564Z" fill="black"/>
<path d="M305.834 63.6204C305.061 65.8757 303.514 67.0524 300.808 67.0524C297.812 67.0524 295.589 64.9932 295.396 62.0515H310.377V60.0903C310.377 54.6971 306.994 50.1864 300.518 50.1864C294.526 50.1864 289.983 54.6971 289.983 60.9728C289.983 67.2485 294.429 71.1709 300.615 71.1709C305.737 71.1709 309.217 68.5233 310.28 64.1107L305.834 63.6204ZM300.422 54.1087C303.418 54.1087 304.868 56.3641 305.061 58.6194H295.396C295.879 56.0699 297.425 54.1087 300.422 54.1087Z" fill="black"/>
<path d="M323.426 55.089C324.78 55.089 325.649 55.3832 326.713 55.9715L327.099 50.8725C326.519 50.3822 325.553 50.088 324.296 50.088C321.493 50.088 319.464 52.1472 318.69 54.4026V50.5783H313.278V70.5822H318.69V60.7764C318.69 57.1482 320.624 55.089 323.426 55.089Z" fill="black"/>
<path d="M336.186 64.3068V54.501H341.599V50.6767H336.186V45.0874H332.9L332.223 47.833C331.74 49.6961 331.257 50.6767 329.227 50.9709L327.874 51.167V54.4029H330.774V65.4835C330.774 69.7 333.383 71.0728 336.476 71.0728C338.893 71.0728 340.536 70.4845 341.985 69.3078V65.7777C340.826 66.366 339.666 66.7583 338.603 66.7583C336.959 66.7583 336.186 65.9738 336.186 64.3068Z" fill="black"/>
<path d="M382.193 42.1458L376.973 63.0322H376.78L371.174 42.1458H365.955L360.445 63.0322H360.252L355.033 42.1458H349.33L356.676 70.5826H362.958L368.371 50.0885H368.564L373.977 70.5826H380.259L387.605 42.1458H382.193Z" fill="black"/>
<path d="M395.045 42.1458H389.439V47.4409H395.045V42.1458Z" fill="black"/>
<path d="M394.948 50.677H389.536V70.5828H394.948V50.677Z" fill="black"/>
<path d="M408.191 50.088C402.198 50.088 397.655 54.5987 397.655 60.8744C397.655 67.1501 402.101 71.0725 408.287 71.0725C413.41 71.0725 416.889 68.4249 417.953 64.0123L413.506 63.522C412.733 65.7773 411.187 66.954 408.48 66.954C405.484 66.954 403.261 64.8948 403.068 61.9531H418.049V59.9919C418.146 54.5987 414.763 50.088 408.191 50.088ZM403.165 58.6191C403.648 56.1676 405.194 54.1084 408.191 54.1084C411.187 54.1084 412.637 56.3637 412.83 58.6191H403.165Z" fill="black"/>
<path d="M426.459 59.8938C426.459 56.5599 428.199 54.4026 431.002 54.4026C433.708 54.4026 434.868 56.1676 434.868 59.2074V70.5822H440.281V58.1288C440.281 53.7162 438.348 50.088 432.935 50.088C429.939 50.088 427.426 51.6569 426.363 53.9123V50.6764H420.95V70.5822H426.363V59.8938H426.459Z" fill="black"/>
<path d="M453.523 71.0725C458.645 71.0725 462.125 68.4249 463.188 64.0123L458.742 63.522C457.969 65.7773 456.422 66.954 453.716 66.954C450.72 66.954 448.497 64.8948 448.303 61.9531H463.285V59.9919C463.285 54.5987 459.902 50.088 453.426 50.088C447.434 50.088 442.891 54.5987 442.891 60.8744C442.891 67.1501 447.337 71.0725 453.523 71.0725ZM453.329 54.1084C456.326 54.1084 457.776 56.3637 457.969 58.6191H448.303C448.787 56.0696 450.333 54.1084 453.329 54.1084Z" fill="black"/>
<path d="M471.596 60.6783C471.596 57.0501 473.529 55.089 476.332 55.089C477.685 55.089 478.555 55.3832 479.618 55.9715L480.005 50.8725C479.425 50.3822 478.458 50.088 477.202 50.088C474.399 50.088 472.369 52.1472 471.596 54.4026V50.5783H466.183V70.5822H471.596V60.6783Z" fill="black"/>
<path d="M203.962 87.5465H199.613V97.5485H200.966V93.43H203.962C205.895 93.43 206.958 92.3514 206.958 90.4883C207.055 88.6251 205.992 87.5465 203.962 87.5465ZM203.576 92.3514H200.966V88.6252H203.576C205.025 88.6252 205.702 89.3116 205.702 90.4883C205.702 91.665 205.025 92.3514 203.576 92.3514Z" fill="black"/>
<path d="M211.502 90.0966C209.182 90.0966 208.022 91.7635 208.022 93.9208C208.022 96.0781 209.182 97.7451 211.502 97.7451C213.821 97.7451 214.981 96.0781 214.981 93.9208C214.981 91.7635 213.821 90.0966 211.502 90.0966ZM211.502 96.6665C210.245 96.6665 209.279 95.6859 209.279 93.9208C209.279 92.1558 210.245 91.1752 211.502 91.1752C212.758 91.1752 213.725 92.1558 213.725 93.9208C213.725 95.6859 212.758 96.6665 211.502 96.6665Z" fill="black"/>
<path d="M223.002 96.2734H222.906L221.456 90.2919H220.103L218.749 96.2734H218.653L217.01 90.2919H215.753L218.073 97.5482H219.329L220.779 91.7627L222.229 97.5482H223.485L225.805 90.2919H224.549L223.002 96.2734Z" fill="black"/>
<path d="M229.866 90.0966C227.932 90.0966 226.483 91.6655 226.483 93.9208C226.579 96.1762 227.642 97.7451 229.962 97.7451C231.605 97.7451 232.668 96.8626 233.055 95.2936H231.895C231.702 96.2742 231.025 96.6665 230.059 96.6665C228.512 96.6665 227.739 95.5878 227.836 94.3131H233.152C233.248 92.548 232.379 90.0966 229.866 90.0966ZM227.739 93.2344C227.836 92.1558 228.512 91.1752 229.769 91.1752C230.929 91.1752 231.799 92.0577 231.799 93.2344H227.739Z" fill="black"/>
<path d="M235.471 91.8616V90.2927H234.408V97.549H235.568V94.3131C235.568 92.45 236.244 91.3713 238.177 91.3713V90.0966C236.824 90.0966 236.051 90.6849 235.471 91.8616Z" fill="black"/>
<path d="M241.947 90.0966C240.014 90.0966 238.564 91.6655 238.564 93.9208C238.661 96.1762 239.724 97.7451 242.043 97.7451C243.687 97.7451 244.75 96.8626 245.136 95.2936H243.977C243.783 96.2742 243.107 96.6665 242.14 96.6665C240.594 96.6665 239.82 95.5878 239.917 94.3131H245.233C245.233 92.548 244.46 90.0966 241.947 90.0966ZM239.82 93.2344C239.917 92.1558 240.594 91.1752 241.85 91.1752C243.01 91.1752 243.88 92.0577 243.88 93.2344H239.82Z" fill="black"/>
<path d="M251.613 91.2727C251.033 90.3902 249.97 90.096 249.293 90.096C247.07 90.096 246.007 91.8611 246.007 93.9203C246.007 95.9795 247.07 97.7446 249.293 97.7446C250.26 97.7446 251.226 97.3523 251.613 96.5679V97.5485H252.773V87.5465H251.613V91.2727ZM249.486 96.6659C247.94 96.6659 247.263 95.3912 247.263 94.0184C247.263 92.6455 247.843 91.1747 249.39 91.1747C251.033 91.1747 251.613 92.4494 251.613 93.9203C251.709 95.2931 251.033 96.6659 249.486 96.6659Z" fill="black"/>
<path d="M262.052 90.096C261.085 90.096 260.119 90.4883 259.732 91.2727V87.5465H258.572V97.5485H259.732V96.5679C260.215 97.4504 261.279 97.7446 262.052 97.7446C264.275 97.7446 265.338 95.9795 265.338 93.9203C265.338 91.8611 264.178 90.096 262.052 90.096ZM261.955 96.6659C260.312 96.6659 259.732 95.3912 259.732 93.9203C259.732 92.5475 260.312 91.1747 261.955 91.1747C263.502 91.1747 264.178 92.4494 264.178 93.8222C264.082 95.2931 263.502 96.6659 261.955 96.6659Z" fill="black"/>
<path d="M269.398 96.2734L267.271 90.2919H265.918L268.721 97.5482L268.238 98.8228C268.044 99.2151 267.754 99.5092 267.271 99.5092C267.078 99.5092 266.788 99.4112 266.595 99.3131V100.392C266.885 100.49 267.174 100.49 267.368 100.49C268.431 100.49 268.914 99.9995 269.494 98.5287L272.587 90.2919H271.331L269.398 96.2734Z" fill="black"/>
<path d="M280.031 84.6049L275.198 97.5486H278.001L278.968 94.7049H283.8L284.767 97.5486H287.667L282.834 84.6049H280.031ZM279.741 92.5476L281.384 87.7427L283.027 92.5476H279.741Z" fill="black"/>
<path d="M290.951 89.9003V88.1352H288.535V97.5488H291.048V93.3323C291.048 91.6653 291.724 90.2925 293.561 90.2925C293.851 90.2925 294.237 90.2925 294.431 90.3905V88.0371C294.237 87.9391 294.044 87.9391 293.851 87.9391C292.691 87.9391 291.435 88.7236 290.951 89.9003Z" fill="black"/>
<path d="M298.006 88.1355H295.493V97.5491H298.006V88.1355Z" fill="black"/>
<path d="M298.006 84.6049H295.493V86.7621H298.006V84.6049Z" fill="black"/>
<path d="M307.671 90.0965V88.1354H299.842V90.0965H304.288L299.552 95.5878V97.549H308.057V95.5878H302.838L307.671 90.0965Z" fill="black"/>
<path d="M313.858 87.9392C310.958 87.9392 309.025 89.9004 309.025 92.9402C309.025 95.8819 310.862 97.8431 313.858 97.8431C316.757 97.8431 318.691 95.8819 318.691 92.9402C318.691 89.9004 316.757 87.9392 313.858 87.9392ZM313.858 95.8819C312.118 95.8819 311.635 94.4111 311.635 92.8421C311.635 91.3712 312.118 89.8023 313.858 89.8023C315.598 89.8023 316.081 91.2732 316.081 92.8421C316.177 94.4111 315.598 95.8819 313.858 95.8819Z" fill="black"/>
<path d="M325.647 87.9392C324.584 87.9392 323.424 88.4295 322.844 89.5081H322.747V88.2334H320.331V97.647H322.844V92.7441C322.844 90.881 323.424 90.0965 324.777 90.0965C325.937 90.0965 326.42 90.881 326.42 92.4499V97.745H328.933V91.9596C329.03 89.4101 328.353 87.9392 325.647 87.9392Z" fill="black"/>
<path d="M339.276 90.5868C339.276 88.3314 337.053 87.9392 335.217 87.9392C333.091 87.9392 330.964 88.6256 330.868 91.0771H333.381C333.477 90.0965 334.057 89.7043 335.024 89.7043C335.894 89.7043 336.667 89.9004 336.667 90.979C336.667 92.0577 335.217 91.9596 333.671 92.2538C332.124 92.4499 330.481 92.9402 330.481 95.0975C330.481 97.0586 331.834 97.9411 333.671 97.9411C334.83 97.9411 335.99 97.647 336.763 96.7645C336.763 97.0586 336.86 97.3528 336.957 97.647H339.566C339.373 97.2547 339.276 96.3722 339.276 95.5877V90.5868ZM336.667 93.9208C336.667 94.5091 336.57 96.078 334.637 96.078C333.767 96.078 333.091 95.8819 333.091 94.9013C333.091 93.9208 333.767 93.7246 334.637 93.5285C335.41 93.4305 336.28 93.3324 336.763 92.9402V93.9208H336.667Z" fill="black"/>
<path d="M352.616 89.9004C349.427 89.0179 348.847 88.9198 348.847 87.9392C348.847 86.8606 349.91 86.4684 350.78 86.4684C352.133 86.4684 353.196 86.8606 353.293 88.4295H355.999C355.999 85.3897 353.583 84.213 350.876 84.213C348.557 84.213 346.044 85.4878 346.044 88.1353C346.044 90.5868 347.977 91.2732 349.813 91.8616C351.65 92.3519 353.583 92.646 353.583 94.0188C353.583 95.3917 352.036 95.6858 351.07 95.6858C349.523 95.6858 348.267 94.9994 348.267 93.3324H345.561C345.561 96.5684 348.17 97.9412 350.973 97.9412C354.453 97.9412 356.289 96.1761 356.289 93.8227C356.482 90.7829 353.583 90.1946 352.616 89.9004Z" fill="black"/>
<path d="M361.025 85.3892H358.512V88.2329H356.965V89.9979H358.512V95.5872C358.512 97.4503 359.865 97.8426 361.411 97.8426C361.895 97.8426 362.475 97.8426 362.861 97.7445V95.6853C362.571 95.7833 362.378 95.7833 362.088 95.7833C361.218 95.7833 361.025 95.5872 361.025 94.7047V90.096H362.861V88.3309H361.025V85.3892Z" fill="black"/>
<path d="M372.431 90.5868C372.431 88.3314 370.208 87.9392 368.372 87.9392C366.245 87.9392 364.119 88.6256 364.022 91.0771H366.535C366.632 90.0965 367.212 89.7043 368.178 89.7043C369.048 89.7043 369.822 89.9004 369.822 90.979C369.822 92.0577 368.372 91.9596 366.825 92.2538C365.279 92.4499 363.636 92.9402 363.636 95.0975C363.636 97.0586 364.989 97.9411 366.825 97.9411C367.985 97.9411 369.145 97.647 369.918 96.7645C369.918 97.0586 370.015 97.3528 370.112 97.647H372.721C372.528 97.2547 372.431 96.3722 372.431 95.5877V90.5868ZM369.918 93.9208C369.918 94.5091 369.822 96.078 367.888 96.078C367.019 96.078 366.342 95.8819 366.342 94.9013C366.342 93.9208 367.019 93.7246 367.888 93.5285C368.662 93.4305 369.532 93.3324 370.015 92.9402V93.9208H369.918Z" fill="black"/>
<path d="M377.649 85.3892H375.136V88.2329H373.59V89.9979H375.136V95.5872C375.136 97.4503 376.489 97.8426 378.036 97.8426C378.519 97.8426 379.099 97.8426 379.485 97.7445V95.6853C379.196 95.7833 379.002 95.7833 378.712 95.7833C377.842 95.7833 377.649 95.5872 377.649 94.7047V90.096H379.485V88.3309H377.649V85.3892Z" fill="black"/>
<path d="M384.995 87.9392C382.192 87.9392 380.259 90.0965 380.259 92.9402C380.259 95.8819 382.095 97.8431 384.995 97.8431C387.121 97.8431 388.571 96.8625 389.344 94.7052H387.121C386.928 95.2936 386.154 95.8819 385.091 95.8819C383.641 95.8819 382.868 95.0975 382.772 93.5285H389.441C389.634 90.5868 388.184 87.9392 384.995 87.9392ZM382.772 91.8615C382.772 91.1751 383.255 89.9004 384.898 89.9004C386.154 89.9004 386.734 90.5868 386.928 91.8615H382.772Z" fill="black"/>
<path d="M404.324 92.6456C404.324 94.6068 403.647 95.4893 401.714 95.4893C399.395 95.4893 399.105 94.1165 399.105 92.6456V84.6049H396.302V92.6456C396.302 96.1757 398.331 97.8427 401.714 97.8427C405.097 97.8427 407.224 96.1757 407.224 92.6456V84.6049H404.421V92.6456H404.324Z" fill="black"/>
<path d="M414.569 87.9392C413.505 87.9392 412.346 88.4295 411.766 89.5081H411.669V88.2334H409.253V97.647H411.766V92.7441C411.766 90.881 412.346 90.0965 413.699 90.0965C414.859 90.0965 415.342 90.881 415.342 92.4499V97.745H417.855V91.9596C417.951 89.4101 417.275 87.9392 414.569 87.9392Z" fill="black"/>
<path d="M422.495 84.6049H419.982V86.7621H422.495V84.6049Z" fill="black"/>
<path d="M422.495 88.1355H419.982V97.5491H422.495V88.1355Z" fill="black"/>
<path d="M428.295 94.6073H428.198L426.265 88.1355H423.656L426.748 97.5491H429.648L432.741 88.1355H430.228L428.295 94.6073Z" fill="black"/>
<path d="M438.059 87.9392C435.256 87.9392 433.323 90.0965 433.323 92.9402C433.323 95.8819 435.159 97.8431 438.059 97.8431C440.185 97.8431 441.635 96.8625 442.408 94.7052H440.185C439.992 95.2936 439.219 95.8819 438.155 95.8819C436.706 95.8819 435.932 95.0975 435.836 93.5285H442.505C442.795 90.5868 441.248 87.9392 438.059 87.9392ZM435.932 91.8615C435.932 91.1751 436.416 89.9004 438.059 89.9004C439.315 89.9004 439.895 90.5868 440.089 91.8615H435.932Z" fill="black"/>
<path d="M446.561 89.9004V88.1353H444.145V97.5489H446.658V93.3324C446.658 91.6654 447.334 90.2926 449.171 90.2926C449.461 90.2926 449.847 90.2926 450.041 90.3907V88.0373C449.847 87.9392 449.654 87.9392 449.461 87.9392C448.301 87.9392 447.044 88.7237 446.561 89.9004Z" fill="black"/>
<path d="M456.23 91.9596C454.78 91.5674 453.33 91.4693 453.33 90.5868C453.33 89.8023 454.2 89.7043 454.78 89.7043C455.65 89.7043 456.423 89.9984 456.52 90.979H458.936C458.743 88.6256 456.906 87.9392 454.877 87.9392C452.847 87.9392 450.817 88.5276 450.817 90.979C450.817 92.646 452.267 93.1363 453.717 93.5285C455.553 93.9208 456.617 94.2149 456.617 94.9994C456.617 95.8819 455.65 96.1761 454.973 96.1761C454.007 96.1761 453.04 95.6858 453.04 94.6072H450.624C450.721 97.0586 452.847 97.9411 454.973 97.9411C457.1 97.9411 459.226 97.1567 459.226 94.7052C459.226 92.8421 457.776 92.2538 456.23 91.9596Z" fill="black"/>
<path d="M463.284 88.1355H460.771V97.5491H463.284V88.1355Z" fill="black"/>
<path d="M463.284 84.6049H460.771V86.7621H463.284V84.6049Z" fill="black"/>
<path d="M468.504 85.3892H465.991V88.2329H464.444V89.9979H465.991V95.5872C465.991 97.4503 467.344 97.8426 468.89 97.8426C469.373 97.8426 469.953 97.8426 470.34 97.7445V95.6853C470.05 95.7833 469.857 95.7833 469.567 95.7833C468.697 95.7833 468.504 95.5872 468.504 94.7047V90.096H470.34V88.3309H468.504V85.3892Z" fill="black"/>
<path d="M475.365 94.6073L473.238 88.1355H470.532L473.818 96.9607C474.108 97.7452 473.818 98.6278 472.948 98.7259C472.465 98.7259 471.982 98.6278 471.499 98.6278V100.785C471.982 100.883 472.562 100.883 473.045 100.883C474.785 100.883 475.655 100.295 476.235 98.7259L480.101 88.1355H477.491L475.365 94.6073Z" fill="black"/>
<path d="M488.029 88.7238C487.932 88.1354 487.739 87.8412 487.159 87.6451C487.836 87.449 488.126 86.9587 488.126 86.2723C488.126 85.2917 487.352 84.7034 486.289 84.7034H483.776V90.1946H485.033V88.1354H485.903C486.482 88.1354 486.772 88.4296 486.869 88.9199C486.966 89.5082 486.966 90.0966 487.062 90.1946H488.319C488.029 90.0966 488.126 89.5082 488.029 88.7238ZM486.096 87.2529H485.033V85.782H486.192C486.772 85.782 486.966 86.0762 486.966 86.5665C486.869 86.9587 486.579 87.2529 486.096 87.2529Z" fill="black"/>
<path d="M485.997 82.8398C483.484 82.8398 481.454 84.8991 481.454 87.4486C481.454 89.9981 483.484 92.0573 485.997 92.0573C488.51 92.0573 490.54 89.9981 490.54 87.4486C490.54 84.9971 488.51 82.8398 485.997 82.8398ZM485.997 91.469C483.87 91.469 482.034 89.7039 482.034 87.4486C482.034 85.2913 483.774 83.4282 485.997 83.4282C488.123 83.4282 489.96 85.1932 489.96 87.4486C489.96 89.7039 488.123 91.469 485.997 91.469Z" fill="black"/>
</g>
<defs>
<clipPath id="clip0_2270_570">
<rect width="491" height="101" fill="white"/>
</clipPath>
</defs>
</svg>
