<svg width="209" height="60" viewBox="0 0 209 60" fill="none" xmlns="http://www.w3.org/2000/svg">
<path d="M18.9032 5.18555C19.093 5.18722 19.2829 5.18889 19.4785 5.19062C19.5835 5.19051 19.6885 5.1904 19.7967 5.19029C20.143 5.19081 20.4889 5.19667 20.8351 5.20258C21.0754 5.20399 21.3158 5.20506 21.5562 5.20581C22.1882 5.20869 22.8201 5.21609 23.452 5.22443C24.0972 5.23215 24.7423 5.23559 25.3875 5.23939C26.6528 5.24746 27.9181 5.26033 29.1834 5.27619C29.1834 5.37569 29.1834 5.47519 29.1834 5.5777C28.9179 5.82326 28.9179 5.82326 28.5477 6.11476C28.4147 6.22203 28.2817 6.3293 28.1447 6.43982C27.8507 6.67214 27.5543 6.90136 27.2558 7.12764C27.1106 7.24113 26.9655 7.35461 26.8159 7.47154C26.6127 7.62574 26.6127 7.62574 26.4054 7.78306C25.995 8.24546 26.015 8.58555 25.9408 9.19579C25.6736 9.598 25.6736 9.598 25.3512 9.97782C24.6884 10.8494 24.5846 11.5772 24.6142 12.6631C25.6212 13.0824 26.5123 13.1821 27.5932 13.1806C27.8367 13.1829 27.8367 13.1829 28.0851 13.1853C28.6064 13.1897 29.1278 13.1912 29.6491 13.1925C29.9727 13.1949 30.2962 13.1974 30.6197 13.2001C31.8144 13.2088 33.0091 13.2137 34.2039 13.219C36.876 13.2346 39.5481 13.2501 42.3011 13.2661C42.3011 21.3752 42.3011 29.4842 42.3011 37.839C40.3069 37.839 38.3127 37.839 36.2581 37.839C36.2581 36.3963 36.2581 34.9536 36.2581 33.4671C34.5557 33.4671 32.8534 33.4671 31.0994 33.4671C31.0994 32.0244 31.0994 30.5817 31.0994 29.0953C29.3072 29.0251 29.3072 29.0251 28.732 29.6983C28.6681 29.7929 28.6043 29.8876 28.5385 29.9851C27.5714 31.262 26.0288 31.9497 24.6142 32.5626C24.4172 32.6621 24.2206 32.7624 24.0247 32.8641C24.0801 32.9842 24.1355 33.1043 24.1925 33.228C25.3602 35.7617 26.5149 38.3006 27.643 40.8529C28.0831 41.8482 28.526 42.8419 28.9784 43.8315C29.0203 43.9234 29.0623 44.0154 29.1055 44.1101C29.3023 44.5414 29.4998 44.9723 29.6988 45.4025C29.7671 45.5522 29.8355 45.7018 29.9059 45.856C29.9659 45.9862 30.026 46.1164 30.0878 46.2505C30.2151 46.5827 30.2151 46.5827 30.2151 47.035C24.0866 47.035 17.9581 47.035 11.6439 47.035C11.7661 46.4096 11.8893 46.0223 12.1574 45.4656C12.2335 45.3063 12.3095 45.1469 12.3879 44.9828C12.4707 44.8112 12.5535 44.6396 12.6388 44.4627C12.8158 44.092 12.9922 43.7209 13.1684 43.3498C13.2136 43.2548 13.2588 43.1598 13.3054 43.0619C13.758 42.1085 14.1944 41.1475 14.6285 40.1851C15.4091 38.4567 16.2004 36.7336 16.996 35.0124C17.0527 34.8897 17.1094 34.767 17.1678 34.6406C17.4881 33.9478 17.8085 33.2552 18.1291 32.5626C18.0433 32.5462 17.9576 32.5298 17.8693 32.5129C15.9583 32.1182 14.1376 30.8379 12.9704 29.246C12.3381 29.1963 11.7058 29.1465 11.0543 29.0953C11.0543 30.538 11.0543 31.9807 11.0543 33.4671C9.3033 33.4671 7.5523 33.4671 5.74824 33.4671C5.74824 34.9099 5.74824 36.3526 5.74824 37.839C3.85132 37.839 1.9544 37.839 0 37.839C0 29.73 0 21.6209 0 13.2661C8.05122 13.219 8.05122 13.219 10.5918 13.2077C11.3444 13.2021 11.3444 13.2021 12.0971 13.196C12.4319 13.1936 12.7667 13.1921 13.1014 13.1912C13.6091 13.1897 14.1167 13.1855 14.6243 13.1806C14.8473 13.1809 14.8473 13.1809 15.0749 13.1812C15.8699 13.1703 16.3989 13.0924 17.0973 12.6631C17.1946 12.6631 17.2919 12.6631 17.3921 12.6631C17.3921 12.0661 17.3921 11.4692 17.3921 10.8541C15.4465 10.8541 13.501 10.8541 11.4965 10.8541C12.9669 8.49063 12.9669 8.49063 13.4105 8.34768C13.5643 8.34754 13.5643 8.34754 13.7212 8.34739C13.8383 8.34541 13.9553 8.34342 14.0759 8.34137C14.2009 8.34291 14.3259 8.34445 14.4547 8.34603C14.584 8.34447 14.7133 8.3429 14.8465 8.34129C15.2591 8.33682 15.6714 8.33733 16.084 8.33838C16.4976 8.33704 16.9111 8.33464 17.3246 8.33062C17.5818 8.32836 17.839 8.3278 18.0962 8.32908C18.7726 8.35826 18.7726 8.35826 19.3082 7.98976C18.384 7.94001 17.4599 7.89026 16.5078 7.839C16.7629 7.18666 16.8388 6.99433 17.3 6.5576C17.611 6.2605 17.8475 6.0091 18.0802 5.64105C18.4238 5.27619 18.4238 5.27619 18.9032 5.18555ZM20.7821 13.2661C20.3657 14.3005 20.1315 15.3391 19.8977 16.432C20.5787 16.432 21.2596 16.432 21.9612 16.432C21.718 15.3872 21.4748 14.3425 21.2243 13.2661C21.0783 13.2661 20.9324 13.2661 20.7821 13.2661ZM17.5395 13.8692C16.8725 14.6067 16.3604 15.8693 16.3604 16.8842C17.09 16.7847 17.8195 16.6852 18.5712 16.5827C18.8631 15.538 19.1549 14.4933 19.4556 13.4169C18.7407 13.4169 18.1828 13.5505 17.5395 13.8692ZM22.4034 13.4169C22.6656 14.4346 22.9494 15.4379 23.2877 16.432C23.5178 16.4832 23.7482 16.5332 23.9786 16.5827C24.1069 16.6107 24.2351 16.6387 24.3673 16.6675C24.7524 16.7319 25.1092 16.745 25.4986 16.7335C25.3658 16.3148 25.2304 15.8975 25.0933 15.4803C25.056 15.3619 25.0188 15.2434 24.9804 15.1214C24.702 14.2661 24.702 14.2661 24.0247 13.7184C23.4557 13.4831 23.0122 13.4032 22.4034 13.4169ZM26.2355 15.0752C26.306 15.3422 26.3767 15.6091 26.4474 15.8761C26.4867 16.0247 26.5261 16.1734 26.5666 16.3266C26.6454 16.6152 26.7325 16.9015 26.8251 17.1857C27.1526 17.3467 27.1526 17.3467 27.5436 17.4496C27.674 17.4892 27.8043 17.5288 27.9386 17.5697C28.3174 17.6722 28.3174 17.6722 28.7412 17.4872C27.7468 16.1672 27.7468 16.1672 26.5303 15.0752C26.433 15.0752 26.3358 15.0752 26.2355 15.0752ZM15.3286 15.2259C14.4143 15.9886 13.7185 16.7478 13.1178 17.7888C13.3819 17.7169 13.646 17.6446 13.91 17.572C14.0571 17.5318 14.2041 17.4916 14.3556 17.4501C14.7323 17.3513 14.7323 17.3513 15.0339 17.1857C15.1741 16.8484 15.1741 16.8484 15.2826 16.4508C15.3227 16.3175 15.3628 16.1842 15.4041 16.0468C15.5106 15.6597 15.5106 15.6597 15.3286 15.2259ZM19.603 17.7888C19.3249 19.154 19.2305 20.4686 19.1608 21.8591C20.2795 21.8591 21.3982 21.8591 22.5508 21.8591C22.5508 20.8661 22.5282 19.9496 22.4034 18.9759C22.3304 18.3883 22.3304 18.3883 22.256 17.7888C21.3805 17.7888 20.505 17.7888 19.603 17.7888ZM23.5825 17.9395C23.7284 19.233 23.8743 20.5264 24.0247 21.8591C24.8029 21.8591 25.5811 21.8591 26.3829 21.8591C26.4478 20.5993 26.2001 19.4678 25.9408 18.241C25.1625 18.1415 24.3843 18.042 23.5825 17.9395ZM17.1065 18.0714C16.9502 18.0959 16.7938 18.1204 16.6327 18.1456C16.1861 18.22 16.1861 18.22 15.7708 18.5425C15.4263 19.6109 15.4478 20.7478 15.476 21.8591C16.2542 21.8591 17.0325 21.8591 17.8343 21.8591C17.9802 20.5656 18.1261 19.2722 18.2764 17.9395C17.8778 17.9395 17.5003 18.008 17.1065 18.0714ZM27.2673 18.6933C27.2882 19.0514 27.3098 19.4094 27.3318 19.7674C27.3376 19.8677 27.3434 19.9679 27.3493 20.0713C27.3873 20.6813 27.4632 21.2527 27.5621 21.8591C28.3889 21.8591 29.2158 21.8591 30.0677 21.8591C30.0904 20.5845 30.0904 20.5845 29.6255 19.447C28.9019 18.9706 28.1071 18.8237 27.2673 18.6933ZM12.3808 19.447C11.882 20.1987 11.9386 20.973 11.9386 21.8591C12.7169 21.8591 13.4951 21.8591 14.2969 21.8591C14.4428 20.292 14.4428 20.292 14.5917 18.6933C13.852 18.6933 13.0233 19.0958 12.3808 19.447ZM11.9386 23.2159C11.9741 24.4059 11.9741 24.4059 12.3808 25.4772C13.1042 25.9193 13.7559 26.0885 14.5917 26.231C14.4944 25.236 14.3971 24.241 14.2969 23.2159C13.5187 23.2159 12.7405 23.2159 11.9386 23.2159ZM15.3286 23.2159C15.3712 23.6201 15.4138 24.0243 15.4576 24.4408C15.4703 24.5663 15.483 24.6919 15.4961 24.8213C15.5685 25.4771 15.6872 26.0619 15.9182 26.6832C16.1729 26.7343 16.4278 26.7844 16.6828 26.834C16.8247 26.862 16.9666 26.8899 17.1129 26.9188C17.589 27.0035 17.589 27.0035 18.2764 26.9847C18.1305 25.741 17.9846 24.4973 17.8343 23.2159C17.0074 23.2159 16.1805 23.2159 15.3286 23.2159ZM19.1608 23.2159C19.2328 24.5546 19.3387 25.8199 19.603 27.1355C20.4785 27.1355 21.354 27.1355 22.256 27.1355C22.3046 26.7966 22.3533 26.4577 22.4034 26.1085C22.4307 25.9178 22.4581 25.7272 22.4863 25.5308C22.5617 24.7627 22.5508 23.9878 22.5508 23.2159C21.4321 23.2159 20.3134 23.2159 19.1608 23.2159ZM24.0247 23.2159C23.975 23.6744 23.9259 24.1329 23.8773 24.5915C23.8632 24.7206 23.8492 24.8496 23.8347 24.9825C23.764 25.6536 23.7126 26.3085 23.7299 26.9847C24.5285 27.0188 25.1706 26.9043 25.9408 26.6832C26.2454 25.5001 26.4366 24.4407 26.3829 23.2159C25.6047 23.2159 24.8265 23.2159 24.0247 23.2159ZM27.5621 23.2159C27.5134 23.5703 27.4648 23.9248 27.4147 24.29C27.3993 24.3998 27.3839 24.5097 27.368 24.6228C27.289 25.214 27.2527 25.7854 27.2673 26.3817C27.6282 26.2791 27.9865 26.1718 28.3451 26.0614C28.4468 26.033 28.5486 26.0046 28.6534 25.9754C29.1895 25.8059 29.4445 25.6785 29.7637 25.1992C29.91 24.7547 29.9908 24.3795 30.0216 23.9131C30.0368 23.683 30.052 23.4529 30.0677 23.2159C29.2408 23.2159 28.414 23.2159 27.5621 23.2159ZM13.1178 27.1355C13.3306 27.8031 13.662 28.2297 14.1219 28.7467C14.2475 28.8903 14.373 29.0339 14.5024 29.1819C14.8746 29.5362 15.1425 29.6981 15.6234 29.8491C15.409 28.6543 15.409 28.6543 14.7961 27.669C14.4977 27.5344 14.4977 27.5344 14.0021 27.437C13.8349 27.3779 13.6677 27.3188 13.4955 27.258C13.3708 27.2176 13.2462 27.1771 13.1178 27.1355ZM28.7412 27.1355C27.6495 27.3659 27.6495 27.3659 26.767 27.987C26.6366 28.2949 26.6366 28.2949 26.5303 28.7938C26.4726 28.9306 26.4148 29.0674 26.3553 29.2084C26.2105 29.5583 26.2105 29.5583 26.2355 29.9998C27.4175 29.5989 28.2699 28.5099 28.8886 27.437C28.8399 27.3375 28.7913 27.238 28.7412 27.1355ZM16.3604 28.1908C16.6415 29.8456 16.6415 29.8456 17.5573 31.1605C18.163 31.4415 18.7937 31.5887 19.4556 31.6581C19.1776 30.5973 18.8853 29.5425 18.5712 28.4923C18.3411 28.4411 18.1108 28.3911 17.8803 28.3415C17.7521 28.3135 17.6238 28.2855 17.4917 28.2567C17.1066 28.1923 16.7498 28.1793 16.3604 28.1908ZM24.0615 28.3415C23.8438 28.3835 23.8438 28.3835 23.6217 28.4263C23.5115 28.4481 23.4013 28.4698 23.2877 28.4923C23.2362 28.6829 23.1848 28.8735 23.1317 29.07C23.064 29.3202 22.9962 29.5705 22.9285 29.8208C22.8776 30.0092 22.8776 30.0092 22.8257 30.2015C22.7929 30.3225 22.7601 30.4434 22.7264 30.5681C22.6812 30.7351 22.6812 30.7351 22.6352 30.9054C22.5641 31.1582 22.4847 31.4085 22.4034 31.6581C22.637 31.6152 22.8703 31.571 23.1035 31.5262C23.2984 31.4895 23.2984 31.4895 23.4973 31.452C24.0141 31.3247 24.0141 31.3247 24.4669 31.0551C24.6495 30.7099 24.7968 30.3902 24.9367 30.0281C24.9749 29.9351 25.0132 29.8421 25.0527 29.7463C25.2591 29.233 25.4138 28.7391 25.4986 28.1908C24.9857 28.1908 24.5619 28.244 24.0615 28.3415ZM19.8977 28.643C20.0091 29.143 20.123 29.6422 20.2386 30.1411C20.27 30.2837 20.3015 30.4262 20.3339 30.5731C20.3816 30.7764 20.3816 30.7764 20.4303 30.9838C20.4731 31.1721 20.4731 31.1721 20.5168 31.3642C20.5752 31.5097 20.5752 31.5097 20.6347 31.6581C20.7806 31.7078 20.9265 31.7576 21.0769 31.8089C21.2246 31.3096 21.3719 30.8102 21.519 30.3107C21.5612 30.1682 21.6034 30.0257 21.6469 29.8788C21.6868 29.7432 21.7267 29.6077 21.7678 29.468C21.8048 29.3425 21.8419 29.217 21.88 29.0877C21.9679 28.8205 21.9679 28.8205 21.9612 28.643C21.2803 28.643 20.5993 28.643 19.8977 28.643Z" fill="#163058"/>
<path d="M50.1133 33.4673C101.622 33.4673 153.131 33.4673 206.2 33.4673C206.2 33.8653 206.2 34.2633 206.2 34.6733C154.691 34.6733 103.183 34.6733 50.1133 34.6733C50.1133 34.2753 50.1133 33.8773 50.1133 33.4673Z" fill="#173058"/>
<path d="M192.935 13.8695C193.928 13.858 194.921 13.8501 195.915 13.8447C196.252 13.8424 196.589 13.8394 196.927 13.8354C199.889 13.8017 202.598 13.8835 204.878 16.1008C206.257 17.6769 206.694 19.5738 206.674 21.6422C206.543 23.7758 205.66 25.5427 204.136 26.9851C202.371 28.401 200.454 28.8205 198.26 28.8089C198.108 28.8087 197.955 28.8085 197.798 28.8082C197.313 28.8074 196.828 28.8055 196.343 28.8036C196.013 28.8028 195.684 28.8021 195.354 28.8015C194.547 28.7999 193.741 28.7973 192.935 28.7942C193.093 28.4574 193.253 28.1576 193.465 27.8521C193.735 27.3095 193.734 26.8238 193.729 26.229C193.73 26.0498 193.73 26.0498 193.731 25.867C193.733 25.4733 193.732 25.0798 193.73 24.6861C193.731 24.4119 193.731 24.1376 193.732 23.8633C193.732 23.289 193.731 22.7147 193.729 22.1404C193.727 21.4048 193.728 20.6693 193.731 19.9338C193.732 19.3676 193.732 18.8014 193.731 18.2352C193.73 17.964 193.731 17.6928 193.732 17.4216C193.733 17.0423 193.731 16.6632 193.729 16.284C193.73 16.1723 193.731 16.0606 193.731 15.9455C193.723 15.2722 193.618 14.8647 193.229 14.3218C193.132 14.1726 193.035 14.0233 192.935 13.8695ZM196.325 15.8293C196.325 19.5107 196.325 23.1922 196.325 26.9851C199.756 27.0316 199.756 27.0316 202.521 25.3545C203.623 24.1648 204.045 22.6649 204.021 21.0492C203.883 19.3302 203.405 18.045 202.202 16.8469C200.48 15.3705 198.431 15.3985 196.325 15.8293Z" fill="#163058"/>
<path d="M156.234 13.8691C157.173 13.8576 158.112 13.8497 159.05 13.8443C159.369 13.842 159.688 13.8389 160.006 13.835C160.467 13.8295 160.927 13.8269 161.387 13.8249C161.598 13.8214 161.598 13.8214 161.814 13.8179C163.291 13.8175 164.591 14.1491 165.667 15.2259C166.216 16.0221 166.351 17.0096 166.208 17.966C165.951 18.8383 165.361 19.3954 164.636 19.8993C164.538 19.8993 164.441 19.8993 164.341 19.8993C164.341 19.9988 164.341 20.0983 164.341 20.2008C164.459 20.207 164.578 20.2132 164.7 20.2196C165.888 20.5181 166.634 21.2515 167.275 22.2889C167.738 23.2194 167.74 24.4049 167.488 25.4024C166.916 26.8386 166.006 27.6438 164.659 28.3073C163.556 28.7454 162.589 28.836 161.416 28.8232C161.267 28.8228 161.118 28.8223 160.965 28.8219C160.494 28.8202 160.022 28.8164 159.551 28.8126C159.229 28.8111 158.908 28.8097 158.587 28.8085C157.803 28.8051 157.019 28.8001 156.234 28.7937C156.354 28.6531 156.474 28.5124 156.597 28.3675C157.24 27.3056 157.07 25.965 157.059 24.7593C157.059 24.4823 157.059 24.2053 157.059 23.9283C157.059 23.3496 157.056 22.7709 157.051 22.1922C157.045 21.451 157.045 20.71 157.046 19.9689C157.046 19.3976 157.044 18.8264 157.042 18.2551C157.041 17.9818 157.04 17.7085 157.041 17.4353C157.04 17.0535 157.037 16.6719 157.033 16.2902C157.034 16.1778 157.034 16.0654 157.035 15.9496C157.024 15.2757 156.918 14.865 156.529 14.3214C156.432 14.1721 156.335 14.0229 156.234 13.8691ZM159.624 15.5274C159.624 16.9204 159.624 18.3133 159.624 19.7485C161.518 19.7704 161.518 19.7704 163.122 18.9518C163.531 18.5315 163.656 18.1344 163.687 17.5626C163.645 16.8882 163.465 16.4877 163.014 15.9797C161.962 15.1446 160.885 15.2695 159.624 15.5274ZM159.624 21.4068C159.624 23.1978 159.624 24.9887 159.624 26.8339C160.552 27.3085 162.137 27.2365 163.116 26.9564C163.84 26.6807 164.306 26.3437 164.755 25.6939C165.03 24.8808 165.1 24.0231 164.823 23.197C164.351 22.2867 163.692 21.8468 162.766 21.5002C162.164 21.3352 161.57 21.3597 160.951 21.3785C160.294 21.3925 160.294 21.3925 159.624 21.4068Z" fill="#173058"/>
<path d="M113.344 13.8694C114.353 13.854 115.362 13.8435 116.371 13.8363C116.713 13.8333 117.056 13.8292 117.398 13.8239C120.286 13.7807 122.499 13.9815 124.96 15.6596C126.189 16.8806 127.035 18.4555 127.095 20.2229C127.098 20.5077 127.098 20.7925 127.097 21.0773C127.1 21.2181 127.102 21.3589 127.104 21.504C127.106 23.4371 126.424 25.1221 125.146 26.5457C123.352 28.2393 121.119 28.8485 118.741 28.8235C118.586 28.8231 118.431 28.8226 118.271 28.8222C117.78 28.8205 117.289 28.8167 116.798 28.8129C116.463 28.8114 116.129 28.81 115.794 28.8088C114.977 28.8055 114.16 28.8004 113.344 28.7941C113.421 28.6903 113.421 28.6903 113.5 28.5844C113.567 28.4919 113.634 28.3994 113.703 28.3041C113.77 28.2132 113.836 28.1222 113.905 28.0285C114.293 27.3891 114.251 26.7209 114.252 25.9884C114.253 25.8736 114.253 25.7588 114.254 25.6405C114.256 25.2615 114.257 24.8825 114.258 24.5035C114.259 24.2395 114.26 23.9755 114.261 23.7115C114.262 23.1582 114.263 22.6049 114.264 22.0517C114.264 21.3436 114.268 20.6357 114.272 19.9277C114.275 19.3824 114.276 18.8372 114.276 18.2919C114.276 18.031 114.277 17.77 114.279 17.509C114.282 17.1435 114.282 16.7781 114.281 16.4126C114.283 16.2518 114.283 16.2518 114.285 16.0879C114.278 15.2562 114.083 14.6597 113.537 14.039C113.473 13.9831 113.41 13.9271 113.344 13.8694ZM117.498 15.6785C117.354 15.7065 117.211 15.7344 117.062 15.7633C116.9 15.7959 116.9 15.7959 116.734 15.8292C116.73 17.2615 116.728 18.6938 116.726 20.1261C116.725 20.791 116.724 21.456 116.723 22.121C116.721 22.7622 116.72 23.4035 116.72 24.0447C116.719 24.2899 116.719 24.535 116.718 24.7802C116.717 25.1225 116.717 25.4647 116.717 25.8069C116.717 26.0021 116.716 26.1972 116.716 26.3983C116.685 26.8183 116.685 26.8183 116.881 26.985C118.943 27.1972 120.906 27.0117 122.624 25.7425C123.637 24.8478 124.27 23.7793 124.442 22.4129C124.462 22.0574 124.467 21.7066 124.463 21.3506C124.462 21.2258 124.461 21.101 124.46 20.9724C124.423 19.5029 124.014 18.1823 122.999 17.103C121.521 15.6989 119.446 15.2944 117.498 15.6785Z" fill="#163058"/>
<path d="M96.6885 13.8691C99.6806 13.5999 99.6806 13.5999 100.499 14.1536C100.792 14.595 101.017 15.0539 101.258 15.5274C101.554 15.9375 101.876 16.3249 102.197 16.7146C102.365 16.9227 102.532 17.1312 102.698 17.34C102.779 17.4414 102.86 17.5428 102.943 17.6472C103.273 18.0657 103.592 18.4917 103.911 18.9194C104.462 19.6597 105.029 20.3847 105.606 21.1053C106.592 22.3398 107.545 23.598 108.48 24.8742C108.49 23.6934 108.498 22.5126 108.503 21.3318C108.505 20.7834 108.508 20.2351 108.513 19.6867C108.518 19.1569 108.521 18.6272 108.522 18.0974C108.523 17.7982 108.526 17.499 108.53 17.1998C108.53 15.7163 108.37 15.0484 107.448 13.8691C108.761 13.8691 110.074 13.8691 111.428 13.8691C111.428 14.1706 111.428 14.1706 111.068 14.5475C110.944 14.6719 110.819 14.7963 110.691 14.9244C110.441 15.4342 110.517 16.0137 110.513 16.5748C110.511 16.7146 110.51 16.8543 110.509 16.9982C110.504 17.4616 110.5 17.9249 110.497 18.3882C110.494 18.7089 110.49 19.0295 110.487 19.3502C110.479 20.1953 110.472 21.0404 110.465 21.8856C110.457 22.7475 110.449 23.6094 110.441 24.4714C110.425 26.1634 110.41 27.8555 110.396 29.5475C108.165 29.1144 106.969 27.163 105.683 25.4187C105.132 24.6711 104.566 23.9394 103.984 23.2159C103.242 22.2916 102.525 21.3514 101.824 20.3945C101.126 19.4488 100.382 18.5441 99.6363 17.638C99.626 18.7939 99.6182 19.9498 99.6134 21.1057C99.6111 21.6426 99.608 22.1794 99.6029 22.7163C99.5972 23.3349 99.5951 23.9534 99.5931 24.5721C99.5908 24.7629 99.5885 24.9538 99.5862 25.1504C99.586 26.169 99.6131 27.1177 100.078 28.04C100.378 28.3299 100.378 28.3299 100.668 28.4922C100.668 28.5917 100.668 28.6912 100.668 28.7938C99.3548 28.7938 98.0415 28.7938 96.6885 28.7938C96.6885 28.6943 96.6885 28.5948 96.6885 28.4922C96.804 28.3865 96.9195 28.2808 97.0385 28.1719C97.9864 27.1101 97.7635 25.5349 97.7594 24.1816C97.7596 23.953 97.7598 23.7244 97.7602 23.4958C97.7606 23.0184 97.76 22.5409 97.7586 22.0635C97.757 21.4542 97.7579 20.845 97.7597 20.2358C97.7608 19.7642 97.7604 19.2927 97.7597 18.8211C97.7595 18.5966 97.7597 18.372 97.7604 18.1475C97.8448 16.1806 97.8448 16.1806 97.0385 14.491C96.923 14.3853 96.8075 14.2796 96.6885 14.1706C96.6885 14.0711 96.6885 13.9716 96.6885 13.8691Z" fill="#163058"/>
<path d="M63.2305 13.8691C64.641 13.8691 66.0515 13.8691 67.5048 13.8691C67.2616 14.2174 67.0184 14.5656 66.7678 14.9244C66.5089 16.5137 66.5336 18.1386 66.4731 19.7485C69.0509 19.7485 71.6288 19.7485 74.2848 19.7485C74.51 16.5969 74.51 16.5969 73.4004 13.8691C74.811 13.8691 76.2215 13.8691 77.6748 13.8691C77.6748 13.9686 77.6748 14.0681 77.6748 14.1706C77.4782 14.3717 77.2817 14.5727 77.0852 14.7737C76.9077 15.3182 76.9149 15.817 76.9141 16.3839C76.9133 16.5016 76.9126 16.6193 76.9118 16.7406C76.9097 17.1302 76.9087 17.5198 76.9079 17.9095C76.907 18.1804 76.9062 18.4514 76.9053 18.7223C76.9038 19.2907 76.9029 19.8591 76.9024 20.4275C76.9016 21.1549 76.898 21.8823 76.8939 22.6098C76.8911 23.1696 76.8903 23.7295 76.8901 24.2894C76.8897 24.5575 76.8885 24.8256 76.8865 25.0937C76.884 25.4694 76.8843 25.8449 76.8853 26.2205C76.8839 26.3308 76.8826 26.441 76.8812 26.5545C76.8868 27.2593 77.0139 27.7438 77.38 28.3415C77.4773 28.3913 77.5745 28.441 77.6748 28.4923C77.6748 28.5918 77.6748 28.6913 77.6748 28.7938C76.2642 28.7938 74.8537 28.7938 73.4004 28.7938C73.595 28.545 73.7895 28.2963 73.99 28.04C74.3938 26.6481 74.3209 25.1333 74.3032 23.6964C74.2971 22.9906 74.291 22.2848 74.2848 21.5576C71.7069 21.5576 69.129 21.5576 66.4731 21.5576C66.4913 22.4033 66.5095 23.249 66.5283 24.1204C66.5333 24.3849 66.5384 24.6494 66.5435 24.9219C66.5487 25.1352 66.554 25.3486 66.5594 25.562C66.5619 25.7236 66.5619 25.7236 66.5645 25.8885C66.597 27.065 66.7601 27.8417 67.5048 28.7938C66.0943 28.7938 64.6837 28.7938 63.2305 28.7938C63.2305 28.6943 63.2305 28.5948 63.2305 28.4923C63.427 28.2913 63.6235 28.0902 63.82 27.8892C63.9975 27.3447 63.9903 26.8459 63.9912 26.2791C63.9919 26.1613 63.9926 26.0436 63.9934 25.9223C63.9955 25.5327 63.9965 25.1431 63.9974 24.7534C63.9982 24.4825 63.9991 24.2115 63.9999 23.9406C64.0015 23.3722 64.0023 22.8038 64.0028 22.2354C64.0036 21.508 64.0072 20.7806 64.0114 20.0532C64.0141 19.4933 64.0149 18.9334 64.0151 18.3735C64.0156 18.1054 64.0167 17.8373 64.0187 17.5692C64.0212 17.1935 64.0209 16.818 64.02 16.4424C64.0213 16.3322 64.0227 16.2219 64.0241 16.1084C64.0185 15.4037 63.8913 14.9191 63.5253 14.3214C63.428 14.2717 63.3307 14.2219 63.2305 14.1706C63.2305 14.0712 63.2305 13.9717 63.2305 13.8691Z" fill="#173058"/>
<path d="M79.5918 13.8691C81.051 13.8691 82.5101 13.8691 84.0135 13.8691C83.819 14.1179 83.6244 14.3666 83.424 14.6229C83.0543 15.562 83.084 16.4966 83.0848 17.4984C83.0842 17.6733 83.0836 17.8482 83.0829 18.0284C83.0821 18.3978 83.082 18.7672 83.0826 19.1365C83.0831 19.6969 83.0797 20.2572 83.0759 20.8177C83.0756 21.1779 83.0755 21.5382 83.0756 21.8985C83.0743 22.064 83.0729 22.2294 83.0715 22.3998C83.0797 23.8128 83.198 25.4382 84.1609 26.5325C85.0855 27.2152 85.9916 27.4062 87.1087 27.2862C88.3009 27.0177 89.0895 26.5302 89.7618 25.4772C89.9234 24.9812 89.9298 24.6108 89.9329 24.0884C89.9343 23.8952 89.9357 23.702 89.9372 23.5029C89.9379 23.2916 89.9385 23.0803 89.9391 22.869C89.9399 22.6521 89.9408 22.4353 89.9416 22.2184C89.9432 21.7636 89.944 21.3087 89.9446 20.8539C89.9454 20.2725 89.9489 19.6911 89.9531 19.1097C89.9559 18.6615 89.9566 18.2134 89.9568 17.7653C89.9573 17.551 89.9585 17.3367 89.9604 17.1225C89.9629 16.822 89.9624 16.5215 89.9617 16.221C89.9622 16.0502 89.9628 15.8795 89.9633 15.7037C89.9012 15.1555 89.7451 14.7917 89.467 14.3214C89.3211 14.2468 89.3211 14.2468 89.1722 14.1706C89.1722 14.0712 89.1722 13.9717 89.1722 13.8691C90.5827 13.8691 91.9932 13.8691 93.4465 13.8691C93.2033 14.2174 92.9601 14.5656 92.7096 14.9244C92.5359 15.5851 92.5421 16.2381 92.5384 16.9203C92.5377 17.0256 92.537 17.1309 92.5362 17.2394C92.5341 17.5852 92.5331 17.9311 92.5322 18.2769C92.5318 18.3958 92.5314 18.5147 92.531 18.6372C92.5288 19.2663 92.5274 19.8954 92.5268 20.5245C92.526 21.1713 92.5224 21.818 92.5182 22.4648C92.5155 22.9649 92.5147 23.465 92.5145 23.9652C92.514 24.2035 92.5129 24.4418 92.5109 24.6801C92.4992 26.2288 92.5062 27.5114 93.4465 28.7938C92.3278 28.7938 91.2091 28.7938 90.0565 28.7938C89.9836 28.2714 89.9836 28.2714 89.9091 27.7385C89.8394 27.7985 89.7697 27.8586 89.6978 27.9205C88.3935 28.9893 86.8676 29.3989 85.1926 29.246C83.7248 29.0215 82.5377 28.591 81.5263 27.4464C80.8244 26.4118 80.6073 25.4442 80.6003 24.2073C80.5988 24.0146 80.5973 23.8219 80.5957 23.6233C80.5952 23.5211 80.5947 23.4188 80.5942 23.3135C80.5924 22.9914 80.5895 22.6694 80.5863 22.3474C80.5773 21.4321 80.5693 20.5168 80.5644 19.6015C80.5613 19.0405 80.5561 18.4795 80.5495 17.9186C80.5474 17.7057 80.5462 17.4928 80.5457 17.2799C80.563 15.3936 80.563 15.3936 79.5918 13.8691Z" fill="#173058"/>
<path d="M141.495 13.8691C142.431 13.8537 143.367 13.8432 144.303 13.836C144.621 13.833 144.938 13.8289 145.256 13.8236C145.715 13.8162 146.174 13.8129 146.634 13.8102C146.774 13.8071 146.914 13.804 147.058 13.8008C148.436 13.8003 149.71 14.1611 150.727 15.1487C151.47 15.9897 151.582 16.8494 151.567 17.9477C151.437 19.1176 150.822 19.96 149.963 20.7031C149.423 21.0788 148.85 21.3911 148.275 21.7083C148.36 21.8129 148.36 21.8129 148.446 21.9196C151.04 25.1324 151.04 25.1324 151.795 26.1532C152.13 26.5606 152.484 26.8773 152.89 27.2108C153.032 27.3274 153.174 27.444 153.32 27.5641C153.657 27.8322 153.996 28.0906 154.346 28.3415C154.483 28.441 154.619 28.5405 154.76 28.643C154.76 28.6927 154.76 28.7425 154.76 28.7937C154.244 28.8114 153.729 28.822 153.213 28.8314C153.068 28.8365 152.923 28.8415 152.774 28.8467C151.683 28.8616 150.885 28.7279 150.081 27.9373C149.818 27.6383 149.575 27.3304 149.334 27.0129C149.202 26.8429 149.202 26.8429 149.067 26.6694C148.8 26.3246 148.537 25.977 148.275 25.6279C148.199 25.5267 148.123 25.4255 148.045 25.3212C147.287 24.3041 146.571 23.2611 145.889 22.1888C145.832 22.0994 145.775 22.01 145.716 21.9178C145.327 21.2934 145.327 21.2934 145.327 20.9545C145.549 20.8886 145.549 20.8886 145.775 20.8214C147.105 20.4088 148.116 20.0659 148.865 18.7969C149.048 18.1036 149.078 17.572 148.865 16.8842C148.413 16.0935 147.959 15.7679 147.096 15.5274C146.703 15.5071 146.327 15.4985 145.935 15.5085C145.783 15.5106 145.783 15.5106 145.628 15.5127C145.38 15.5162 145.133 15.5216 144.885 15.5274C144.898 17.0201 144.912 18.5128 144.927 20.0054C144.935 20.6986 144.942 21.3918 144.947 22.085C144.953 22.7545 144.96 23.4241 144.967 24.0937C144.97 24.3485 144.972 24.6033 144.974 24.8582C144.977 25.2164 144.981 25.5747 144.985 25.9329C144.986 26.0371 144.986 26.1413 144.986 26.2487C144.999 26.9936 145.113 27.6336 145.327 28.3415C145.618 28.5789 145.618 28.5789 145.917 28.643C145.917 28.6927 145.917 28.7425 145.917 28.7937C144.458 28.7937 142.999 28.7937 141.495 28.7937C141.738 28.4952 141.982 28.1967 142.232 27.8892C142.458 27.3411 142.402 26.729 142.403 26.1412C142.404 26.0267 142.405 25.9121 142.405 25.7941C142.408 25.4158 142.409 25.0375 142.409 24.6592C142.41 24.3956 142.411 24.1319 142.412 23.8683C142.413 23.3157 142.414 22.763 142.415 22.2104C142.416 21.5037 142.419 20.7971 142.423 20.0905C142.426 19.5459 142.427 19.0013 142.427 18.4567C142.428 18.1962 142.429 17.9358 142.431 17.6754C142.433 17.3103 142.433 16.9453 142.432 16.5801C142.434 16.4202 142.434 16.4202 142.436 16.257C142.429 15.3914 142.253 14.6925 141.689 14.0293C141.625 13.9764 141.561 13.9236 141.495 13.8691Z" fill="#163058"/>
<path d="M178.343 13.8691C179.263 13.8579 180.183 13.8497 181.104 13.8443C181.416 13.842 181.729 13.8389 182.042 13.835C182.493 13.8295 182.944 13.8269 183.395 13.8249C183.602 13.8214 183.602 13.8214 183.814 13.8179C185.089 13.8175 186.173 14.1001 187.186 14.9244C187.951 15.7111 188.26 16.4267 188.273 17.5343C188.251 18.7282 187.943 19.4293 187.168 20.3044C186.57 20.8848 185.872 21.223 185.123 21.5576C185.375 22.1585 185.768 22.6433 186.164 23.1499C186.272 23.2896 186.272 23.2896 186.383 23.4321C186.531 23.622 186.679 23.8117 186.827 24.0011C187.017 24.2435 187.206 24.4869 187.394 24.7304C188.505 26.1498 189.681 27.3204 191.12 28.3792C191.233 28.4662 191.345 28.5533 191.461 28.643C191.461 28.6927 191.461 28.7425 191.461 28.7937C190.939 28.8069 190.417 28.8149 189.895 28.822C189.747 28.8258 189.6 28.8296 189.448 28.8335C188.389 28.8442 187.749 28.7369 186.95 27.9758C185.491 26.3078 184.178 24.5858 182.958 22.7259C182.82 22.5156 182.82 22.5156 182.679 22.3011C182.594 22.17 182.509 22.0389 182.422 21.9038C182.346 21.7862 182.27 21.6686 182.191 21.5474C182.028 21.256 182.028 21.256 182.028 20.9545C182.177 20.9071 182.326 20.8597 182.48 20.8108C182.679 20.7458 182.879 20.6806 183.078 20.6153C183.176 20.5844 183.274 20.5535 183.375 20.5217C184.13 20.2717 184.833 19.9749 185.338 19.3174C185.728 18.4923 185.909 17.8045 185.62 16.8966C185.337 16.2895 184.959 15.9015 184.354 15.6356C183.808 15.4917 183.28 15.5023 182.721 15.5127C182.611 15.5137 182.502 15.5148 182.389 15.5159C182.121 15.5187 181.853 15.5229 181.585 15.5274C181.598 16.9363 181.612 18.3451 181.628 19.7539C181.635 20.4082 181.642 21.0625 181.648 21.7168C181.653 22.3493 181.66 22.9817 181.668 23.6141C181.67 23.8544 181.673 24.0947 181.674 24.3349C181.631 26.7199 181.631 26.7199 182.617 28.7937C181.207 28.7937 179.796 28.7937 178.343 28.7937C178.343 28.6942 178.343 28.5947 178.343 28.4922C178.539 28.2912 178.736 28.0902 178.932 27.8892C179.11 27.3447 179.103 26.8459 179.103 26.279C179.104 26.1613 179.105 26.0436 179.106 25.9223C179.108 25.5327 179.109 25.1431 179.11 24.7534C179.111 24.4825 179.111 24.2115 179.112 23.9405C179.114 23.3721 179.115 22.8038 179.115 22.2354C179.116 21.508 179.119 20.7806 179.124 20.0531C179.126 19.4933 179.127 18.9334 179.127 18.3735C179.128 18.1054 179.129 17.8373 179.131 17.5691C179.134 17.1935 179.133 16.818 179.132 16.4423C179.134 16.3321 179.135 16.2219 179.136 16.1083C179.129 15.1869 178.832 14.6198 178.343 13.8691Z" fill="#163058"/>
<path d="M137.663 13.7188C137.663 14.6142 137.663 15.5097 137.663 16.4323C136.926 16.1308 136.926 16.1308 136.646 15.9671C136.219 15.7771 135.832 15.7637 135.369 15.7351C135.202 15.7238 135.034 15.7125 134.862 15.7009C134.126 15.673 133.389 15.6785 132.652 15.6785C132.652 17.0218 132.652 18.365 132.652 19.7489C134.476 19.6743 134.476 19.6743 136.336 19.5981C136.336 20.4439 136.336 21.2896 136.336 22.161C136.142 22.0615 135.947 21.962 135.747 21.8595C134.741 21.6024 133.686 21.6202 132.652 21.5579C132.652 23.2992 132.652 25.0404 132.652 26.8343C133.089 26.8343 133.527 26.8343 133.978 26.8343C134.362 26.8665 134.746 26.901 135.13 26.938C136.587 27.049 137.853 26.8263 139.045 25.9133C139.124 25.869 139.203 25.8247 139.284 25.7791C139.503 25.8537 139.503 25.8537 139.726 25.9298C139.583 26.3792 139.438 26.8282 139.293 27.2772C139.253 27.4053 139.212 27.5335 139.169 27.6655C139.13 27.7875 139.091 27.9094 139.05 28.0351C139.014 28.148 138.977 28.2608 138.94 28.3772C138.842 28.6434 138.842 28.6434 138.695 28.7941C138.401 28.8083 138.106 28.8118 137.812 28.8112C137.623 28.8112 137.434 28.8112 137.24 28.8112C137.032 28.8104 136.825 28.8097 136.617 28.8089C136.406 28.8086 136.194 28.8084 135.983 28.8082C135.426 28.8076 134.869 28.8061 134.312 28.8045C133.744 28.8029 133.176 28.8022 132.608 28.8015C131.492 28.7999 130.377 28.7973 129.262 28.7941C129.449 28.5733 129.636 28.3525 129.823 28.1316C130.231 27.5696 130.169 26.9454 130.17 26.2794C130.171 26.1617 130.171 26.044 130.172 25.9227C130.174 25.5331 130.175 25.1434 130.176 24.7538C130.177 24.4828 130.178 24.2119 130.179 23.9409C130.18 23.3725 130.181 22.8042 130.181 22.2358C130.182 21.5083 130.186 20.7809 130.19 20.0535C130.193 19.4936 130.194 18.9338 130.194 18.3739C130.194 18.1058 130.195 17.8377 130.197 17.5695C130.2 17.1939 130.2 16.8184 130.199 16.4427C130.2 16.3325 130.201 16.2223 130.203 16.1087C130.196 15.2674 130.008 14.6675 129.455 14.0391C129.391 13.9831 129.327 13.9272 129.262 13.8695C130.387 13.848 131.513 13.8265 132.638 13.8051C133.021 13.7978 133.404 13.7905 133.787 13.7832C134.337 13.7726 134.887 13.7622 135.437 13.7517C135.608 13.7484 135.78 13.7451 135.957 13.7417C136.196 13.7372 136.196 13.7372 136.44 13.7326C136.58 13.7299 136.721 13.7272 136.865 13.7245C137.131 13.7202 137.397 13.7188 137.663 13.7188Z" fill="#173058"/>
<path d="M50.4079 13.7188C54.0071 13.7188 57.6064 13.7188 61.3148 13.7188C61.1489 15.0755 61.1489 15.0755 60.9371 15.7539C60.8974 15.883 60.8577 16.012 60.8167 16.1449C60.7865 16.2398 60.7563 16.3346 60.7252 16.4323C60.3577 16.2508 60.0352 16.0623 59.6935 15.8293C59.0745 15.6595 58.4423 15.6318 57.805 15.5938C57.6518 15.584 57.6518 15.584 57.4956 15.574C57.2456 15.5582 56.9956 15.5429 56.7457 15.5278C56.7547 17.0454 56.7661 18.5629 56.7804 20.0804C56.787 20.7851 56.7928 21.4898 56.7967 22.1945C56.8006 22.8748 56.8065 23.5551 56.8139 24.2354C56.8164 24.4947 56.8181 24.754 56.819 25.0133C56.8204 25.3771 56.8246 25.7407 56.8293 26.1045C56.8291 26.2112 56.8289 26.3179 56.8287 26.4278C56.8486 27.5081 57.1869 28.0394 57.9248 28.7941C56.417 28.7941 54.9092 28.7941 53.3557 28.7941C53.5502 28.5454 53.7448 28.2966 53.9452 28.0404C54.3516 26.7684 54.2917 25.4354 54.301 24.1108C54.3038 23.8626 54.3067 23.6144 54.3097 23.3662C54.3172 22.7172 54.3231 22.0681 54.3286 21.419C54.3345 20.755 54.342 20.0911 54.3494 19.4271C54.3636 18.1273 54.3761 16.8276 54.3874 15.5278C53.8957 15.5613 53.4047 15.6006 52.9135 15.6409C52.7069 15.6549 52.7069 15.6549 52.4961 15.6691C51.5607 15.7494 50.9339 15.9713 50.1131 16.4323C49.9672 16.4323 49.8212 16.4323 49.6709 16.4323C49.738 16.1495 49.8057 15.8669 49.8736 15.5843C49.9112 15.4269 49.9488 15.2695 49.9876 15.1073C50.109 14.639 50.258 14.1784 50.4079 13.7188Z" fill="#163058"/>
<path d="M170.679 13.8691C172.138 13.8691 173.597 13.8691 175.1 13.8691C174.906 14.1179 174.711 14.3666 174.511 14.6229C174.242 15.3666 174.179 16.0251 174.178 16.8144C174.177 16.9226 174.177 17.0309 174.176 17.1424C174.175 17.4972 174.176 17.852 174.177 18.2068C174.177 18.4556 174.176 18.7043 174.176 18.9531C174.176 19.4734 174.176 19.9936 174.178 20.5139C174.179 21.1778 174.178 21.8416 174.177 22.5054C174.176 23.0189 174.176 23.5323 174.177 24.0458C174.177 24.2904 174.177 24.535 174.176 24.7796C174.147 26.5873 174.147 26.5873 174.511 28.3415C174.806 28.5295 174.806 28.5295 175.1 28.643C175.1 28.6928 175.1 28.7425 175.1 28.7938C173.641 28.7938 172.182 28.7938 170.679 28.7938C170.922 28.4953 171.165 28.1968 171.416 27.8892C171.642 27.3411 171.586 26.729 171.587 26.1413C171.588 26.0267 171.588 25.9121 171.589 25.7941C171.591 25.4158 171.592 25.0375 171.593 24.6592C171.594 24.3956 171.595 24.132 171.596 23.8683C171.597 23.3157 171.598 22.763 171.598 22.2104C171.599 21.5038 171.603 20.7972 171.607 20.0905C171.61 19.5459 171.611 19.0013 171.611 18.4567C171.611 18.1963 171.612 17.9358 171.614 17.6754C171.617 17.3103 171.617 16.9453 171.616 16.5802C171.618 16.4202 171.618 16.4202 171.62 16.2571C171.612 15.2556 171.377 14.5837 170.679 13.8691Z" fill="#163058"/>
<path d="M145.18 39.1963C145.52 39.1963 145.861 39.1963 146.211 39.1963C146.746 40.44 147.281 41.6837 147.833 42.9651C148.267 42.0775 148.678 41.227 149.049 40.3175C149.438 39.3629 149.438 39.3629 149.601 39.1963C149.942 39.1963 150.282 39.1963 150.633 39.1963C150.633 41.3355 150.633 43.4747 150.633 45.6787C150.244 45.6787 149.855 45.6787 149.454 45.6787C149.381 44.1862 149.381 44.1862 149.307 42.6636C149.015 43.3601 148.723 44.0566 148.422 44.7742C148.082 44.7742 147.741 44.7742 147.391 44.7742C147.246 44.4823 147.102 44.1902 146.958 43.8979C146.877 43.7353 146.797 43.5726 146.714 43.405C146.506 42.9651 146.506 42.9651 146.359 42.5129C146.31 43.5576 146.262 44.6023 146.211 45.6787C145.871 45.6787 145.53 45.6787 145.18 45.6787C145.18 43.5395 145.18 41.4003 145.18 39.1963Z" fill="#163058"/>
<path d="M182.175 39.1963C182.515 39.1963 182.856 39.1963 183.207 39.1963C183.742 40.44 184.277 41.6837 184.828 42.9651C184.983 42.6231 185.138 42.2811 185.298 41.9287C185.716 41.0099 186.146 40.0989 186.597 39.1963C186.937 39.1963 187.277 39.1963 187.628 39.1963C187.628 41.3355 187.628 43.4747 187.628 45.6787C187.239 45.6787 186.85 45.6787 186.449 45.6787C186.376 44.1862 186.376 44.1862 186.302 42.6636C186.01 43.3601 185.718 44.0566 185.417 44.7742C185.077 44.7742 184.736 44.7742 184.386 44.7742C184.045 44.0777 183.705 43.3812 183.354 42.6636C183.305 43.6586 183.257 44.6536 183.207 45.6787C182.866 45.6787 182.526 45.6787 182.175 45.6787C182.175 43.5395 182.175 41.4003 182.175 39.1963Z" fill="#173058"/>
<path d="M194.998 39.1963C196.03 39.1963 196.03 39.1963 196.304 39.4413C196.375 39.5594 196.445 39.6776 196.518 39.7993C196.601 39.9342 196.684 40.069 196.77 40.208C196.866 40.3716 196.962 40.5352 197.062 40.7038C197.254 41.0174 197.447 41.3301 197.641 41.6429C197.942 42.1323 198.238 42.6244 198.535 43.1159C198.584 41.8224 198.633 40.529 198.683 39.1963C199.072 39.1963 199.461 39.1963 199.862 39.1963C199.862 41.3355 199.862 43.4747 199.862 45.6787C198.683 45.6787 198.683 45.6787 198.364 45.3814C198.286 45.2454 198.207 45.1093 198.127 44.9691C197.995 44.7477 197.995 44.7477 197.86 44.5218C197.729 44.2876 197.729 44.2876 197.596 44.0487C197.505 43.8943 197.415 43.7399 197.321 43.5808C197.153 43.2944 196.987 43.0068 196.824 42.7179C196.666 42.4432 196.497 42.1749 196.325 41.9099C196.276 43.1536 196.227 44.3973 196.177 45.6787C195.788 45.6787 195.399 45.6787 194.998 45.6787C194.998 43.5395 194.998 41.4003 194.998 39.1963Z" fill="#173058"/>
<path d="M123.219 39.1963C126.019 39.1963 126.019 39.1963 127.051 39.4978C127.494 39.9859 127.675 40.3678 127.696 41.0242C127.649 41.5222 127.612 41.8031 127.346 42.2114C127.248 42.2114 127.151 42.2114 127.051 42.2114C127.145 42.3264 127.239 42.4415 127.336 42.56C127.811 43.193 127.853 43.6883 127.788 44.4727C127.489 45.031 127.275 45.325 126.756 45.6787C126.381 45.7129 126.381 45.7129 125.939 45.7081C125.797 45.7074 125.654 45.7066 125.507 45.7059C125.327 45.7031 125.146 45.7004 124.96 45.6975C124.385 45.6913 123.811 45.6851 123.219 45.6787C123.219 43.5395 123.219 41.4003 123.219 39.1963ZM124.398 40.2516C124.398 40.7988 124.398 41.346 124.398 41.9099C124.683 41.9261 124.969 41.9378 125.255 41.9475C125.414 41.9545 125.573 41.9615 125.736 41.9687C126.179 41.9528 126.179 41.9528 126.445 41.6307C126.64 41.309 126.64 41.309 126.6 40.9111C126.495 40.5399 126.495 40.5399 126.206 40.3811C125.814 40.2294 125.516 40.2215 125.098 40.2327C124.751 40.242 124.751 40.242 124.398 40.2516ZM124.398 42.9651C124.398 43.5124 124.398 44.0596 124.398 44.6234C124.711 44.6315 125.024 44.6374 125.337 44.6423C125.599 44.6475 125.599 44.6475 125.866 44.6529C126.33 44.673 126.33 44.673 126.609 44.3219C126.677 43.7097 126.677 43.7097 126.442 43.1642C126.044 42.8762 125.736 42.921 125.255 42.9369C125.014 42.943 125.014 42.943 124.769 42.9492C124.647 42.9545 124.524 42.9597 124.398 42.9651Z" fill="#173058"/>
<path d="M158.297 39.1963C159.329 39.1963 159.329 39.1963 159.565 39.3914C159.614 39.4819 159.664 39.5724 159.716 39.6656C159.774 39.767 159.833 39.8683 159.893 39.9727C159.95 40.0803 160.007 40.1879 160.066 40.2987C160.182 40.5055 160.299 40.7122 160.416 40.9188C160.543 41.1463 160.671 41.3739 160.803 41.6083C161.143 42.1556 161.483 42.7028 161.834 43.2666C161.883 41.9234 161.932 40.5802 161.982 39.1963C162.322 39.1963 162.663 39.1963 163.013 39.1963C163.013 41.3355 163.013 43.4747 163.013 45.6787C161.982 45.6787 161.982 45.6787 161.707 45.4337C161.637 45.3156 161.566 45.1974 161.493 45.0757C161.369 44.8734 161.369 44.8734 161.241 44.667C161.145 44.5034 161.049 44.3397 160.95 44.1712C160.758 43.8576 160.564 43.5449 160.37 43.2321C160.07 42.7427 159.773 42.2506 159.476 41.7591C159.427 43.0526 159.379 44.346 159.329 45.6787C158.988 45.6787 158.648 45.6787 158.297 45.6787C158.297 43.5395 158.297 41.4003 158.297 39.1963Z" fill="#163058"/>
<path d="M109.244 39.4317C109.879 39.785 110.109 40.1833 110.396 40.8544C110.396 41.0037 110.396 41.1529 110.396 41.3067C109.613 41.3734 109.613 41.3734 109.216 41.3067C109.016 41.0585 108.82 40.8072 108.627 40.5529C108.105 40.4398 108.105 40.4398 107.595 40.5529C107.281 40.8256 107.167 41.0497 107.111 41.4666C107.093 41.8447 107.093 42.2191 107.098 42.5975C107.096 42.7276 107.094 42.8577 107.092 42.9918C107.093 43.1168 107.094 43.2419 107.094 43.3707C107.095 43.4845 107.095 43.5983 107.096 43.7155C107.169 44.1049 107.286 44.2383 107.595 44.4725C108.276 44.5531 108.276 44.5531 108.894 44.3029C109.127 43.9268 109.243 43.5418 109.364 43.1157C108.926 43.1157 108.488 43.1157 108.037 43.1157C108.037 42.7675 108.037 42.4192 108.037 42.0605C108.816 42.0605 109.594 42.0605 110.396 42.0605C110.484 44.429 110.484 44.429 109.806 45.2263C109.11 45.7402 108.457 45.9552 107.595 45.8293C106.884 45.61 106.461 45.3644 106.09 44.6951C105.757 43.9636 105.744 43.2898 105.762 42.4939C105.761 42.3631 105.76 42.2323 105.759 42.0976C105.767 41.2094 105.882 40.5341 106.49 39.8527C107.376 39.1472 108.189 38.9607 109.244 39.4317Z" fill="#163058"/>
<path d="M174.363 39.6482C174.883 40.1662 175.033 40.5716 175.1 41.3065C174.711 41.3065 174.321 41.3065 173.921 41.3065C173.878 41.2101 173.835 41.1137 173.792 41.0144C173.651 40.6805 173.651 40.6805 173.331 40.5527C172.83 40.497 172.551 40.4809 172.127 40.7724C171.729 41.3377 171.776 41.8331 171.793 42.5125C171.792 42.6342 171.791 42.7558 171.789 42.8811C171.795 43.4069 171.812 43.777 172.045 44.2509C172.432 44.5879 172.713 44.5572 173.203 44.5306C173.505 44.4908 173.505 44.4908 173.764 44.2179C173.93 43.8489 174.013 43.517 174.068 43.1155C173.679 43.1155 173.29 43.1155 172.889 43.1155C172.889 42.7673 172.889 42.419 172.889 42.0602C173.618 42.0602 174.348 42.0602 175.1 42.0602C175.112 42.4147 175.124 42.7692 175.137 43.1344C175.142 43.2442 175.147 43.354 175.153 43.4672C175.165 44.2314 174.973 44.6389 174.51 45.2261C173.915 45.7606 173.394 45.8757 172.602 45.8609C171.915 45.7888 171.507 45.4707 171.029 44.9852C170.587 44.4269 170.558 43.919 170.549 43.2192C170.546 43.1056 170.542 42.992 170.539 42.875C170.532 42.553 170.53 42.2316 170.531 41.9095C170.528 41.6958 170.528 41.6958 170.525 41.4778C170.558 40.7016 170.811 40.2445 171.326 39.7047C172.249 38.8963 173.358 39.0857 174.363 39.6482Z" fill="#163058"/>
<path d="M120.876 39.564C121.416 40.0186 121.698 40.5355 121.801 41.2338C121.824 41.6617 121.825 42.084 121.818 42.5125C121.821 42.6571 121.823 42.8017 121.825 42.9506C121.82 43.8881 121.706 44.4687 121.155 45.2261C120.65 45.6513 120.101 45.8108 119.46 45.9044C118.678 45.7902 118.033 45.5093 117.48 44.9245C117.091 44.1771 117.138 43.376 117.13 42.5502C117.125 42.4192 117.121 42.2882 117.117 42.1533C117.108 41.2421 117.245 40.5523 117.765 39.7989C118.704 38.9598 119.807 39.0631 120.876 39.564ZM118.594 40.6469C118.111 41.3687 118.143 42.2648 118.207 43.1155C118.312 43.6178 118.415 44.025 118.677 44.4629C119.121 44.7293 119.475 44.686 119.976 44.623C120.356 44.3467 120.521 44.1485 120.676 43.6997C120.77 42.5948 120.846 41.5451 120.243 40.5715C119.685 40.2174 119.122 40.2777 118.594 40.6469Z" fill="#163058"/>
<path d="M93.4613 39.5638C94.0032 40.0197 94.2853 40.5348 94.3837 41.2361C94.404 41.6663 94.4033 42.0912 94.3946 42.5218C94.3956 42.6676 94.3967 42.8135 94.3978 42.9637C94.3907 43.7749 94.345 44.3822 93.8879 45.0752C93.1041 45.6932 92.5195 45.9119 91.5297 45.8289C90.8182 45.6158 90.3941 45.3612 90.0247 44.6947C89.6914 43.9632 89.6784 43.2894 89.6965 42.4935C89.6955 42.3627 89.6944 42.2319 89.6934 42.0972C89.7019 41.209 89.8166 40.5337 90.4243 39.8524C91.4465 39.0382 92.309 39.0237 93.4613 39.5638ZM90.9401 41.0048C90.7169 41.9734 90.7205 43.052 90.9401 44.0199C91.1553 44.4159 91.1553 44.4159 91.5297 44.6229C92.1223 44.7095 92.4234 44.7269 92.9115 44.3591C93.3227 43.7767 93.3217 43.2282 93.326 42.5218C93.3281 42.3681 93.3302 42.2143 93.3324 42.056C93.2891 41.4853 93.134 41.0577 92.8286 40.5808C92.0908 40.0864 91.4385 40.3546 90.9401 41.0048Z" fill="#163058"/>
<path d="M72.0276 39.375C72.6283 39.7112 72.9486 40.0814 73.2527 40.7035C73.2964 41.293 73.2937 41.8839 73.2988 42.4749C73.3031 42.6385 73.3074 42.8021 73.3118 42.9707C73.3192 43.9228 73.2955 44.5064 72.6632 45.2261C72.0685 45.7606 71.5475 45.8758 70.7552 45.8609C70.0535 45.7873 69.6455 45.4544 69.1534 44.9623C68.4252 43.8557 68.571 42.1603 68.7665 40.8731C68.9462 40.1407 69.3971 39.7377 70.0102 39.3467C70.7331 39.1002 71.3038 39.1366 72.0276 39.375ZM70.1288 40.6976C69.7687 41.3178 69.7756 41.8047 69.7891 42.5126C69.7868 42.6323 69.7845 42.752 69.7822 42.8753C69.7861 43.4759 69.8227 43.8008 70.1299 44.3263C70.4453 44.6721 70.4453 44.6721 70.9682 44.6985C71.4942 44.6216 71.7098 44.5573 72.0736 44.1708C72.2534 43.6193 72.2538 43.1059 72.2579 42.5314C72.2609 42.4247 72.2639 42.318 72.2671 42.2081C72.272 41.526 72.1926 41.0931 71.7788 40.5528C71.1889 40.251 70.6248 40.2444 70.1288 40.6976Z" fill="#163058"/>
<path d="M77.9229 39.3751C78.5236 39.7113 78.844 40.0815 79.1481 40.7036C79.1918 41.2931 79.1891 41.884 79.1941 42.475C79.1984 42.6386 79.2027 42.8022 79.2071 42.9708C79.2145 43.923 79.1908 44.5065 78.5585 45.2263C77.9639 45.7608 77.4428 45.8759 76.6505 45.8611C75.9533 45.7879 75.5431 45.455 75.0488 44.9719C74.6749 44.3928 74.5954 43.9414 74.579 43.2665C74.5733 43.1479 74.5676 43.0294 74.5617 42.9072C74.5012 40.7141 74.5012 40.7141 75.1075 39.9611C75.98 39.1722 76.7911 39.0023 77.9229 39.3751ZM76.1024 40.6978C75.6376 41.3163 75.6529 41.7544 75.6752 42.5127C75.6736 42.6324 75.672 42.7521 75.6703 42.8754C75.6776 43.4749 75.7189 43.8026 76.0258 44.3264C76.3407 44.6723 76.3407 44.6723 76.8635 44.6986C77.3895 44.6218 77.6051 44.5574 77.9689 44.171C78.1487 43.6194 78.1491 43.106 78.1532 42.5315C78.1562 42.4248 78.1593 42.3182 78.1624 42.2082C78.1674 41.5261 78.088 41.0932 77.6742 40.5529C77.0769 40.2474 76.6349 40.2969 76.1024 40.6978Z" fill="#163058"/>
<path d="M176.722 39.1958C178.084 39.1958 179.445 39.1958 180.849 39.1958C180.849 39.5938 180.849 39.9918 180.849 40.4018C179.827 40.4018 178.806 40.4018 177.753 40.4018C177.753 40.9491 177.753 41.4963 177.753 42.0601C178.629 42.0601 179.504 42.0601 180.406 42.0601C180.406 42.3586 180.406 42.6571 180.406 42.9646C179.531 42.9646 178.655 42.9646 177.753 42.9646C177.753 43.5119 177.753 44.0591 177.753 44.6229C178.775 44.6229 179.796 44.6229 180.849 44.6229C180.849 44.9712 180.849 45.3194 180.849 45.6782C179.487 45.6782 178.125 45.6782 176.722 45.6782C176.722 43.539 176.722 41.3998 176.722 39.1958Z" fill="#173058"/>
<path d="M55.4187 39.799C55.2345 40.3497 55.1724 40.5197 54.6818 40.8542C54.5313 40.7889 54.5313 40.7889 54.3778 40.7223C53.7469 40.4752 53.139 40.5288 52.4709 40.5527C52.434 40.9924 52.434 40.9924 52.4709 41.4573C53.0692 41.8652 53.6666 41.9209 54.368 42.0491C55.0096 42.2744 55.2693 42.6591 55.5661 43.2663C55.6434 43.8306 55.6816 44.3813 55.4325 44.9028C55.0133 45.4594 54.6086 45.6986 53.9448 45.8291C53.0369 45.924 52.2491 45.8238 51.4392 45.3769C51.0707 45.0471 51.0707 45.0471 50.8496 44.7738C51.1414 44.4007 51.1414 44.4007 51.4392 44.0201C52.1393 44.3027 52.1393 44.3027 52.4709 44.4723C52.7128 44.4944 52.9558 44.5056 53.1986 44.51C53.3922 44.5158 53.3922 44.5158 53.5896 44.5218C53.9504 44.4988 53.9504 44.4988 54.2217 44.2815C54.4236 44.0248 54.4236 44.0248 54.3409 43.6903C54.3075 43.6001 54.274 43.51 54.2396 43.4171C54.0885 43.384 53.9375 43.351 53.7819 43.3169C51.9698 42.8924 51.9698 42.8924 51.5313 42.3806C51.1719 41.6737 51.104 41.2447 51.2365 40.4585C51.4666 39.8808 51.6621 39.6721 52.1761 39.3467C53.3074 38.8679 54.3808 39.3117 55.4187 39.799Z" fill="#163058"/>
<path d="M189.397 39.1958C190.711 39.1958 192.024 39.1958 193.377 39.1958C193.377 39.5938 193.377 39.9918 193.377 40.4018C192.404 40.4018 191.431 40.4018 190.429 40.4018C190.429 40.9491 190.429 41.4963 190.429 42.0601C191.256 42.0601 192.083 42.0601 192.935 42.0601C192.935 42.3586 192.935 42.6571 192.935 42.9646C192.108 42.9646 191.281 42.9646 190.429 42.9646C190.429 43.5119 190.429 44.0591 190.429 44.6229C191.402 44.6229 192.375 44.6229 193.377 44.6229C193.377 44.9712 193.377 45.3194 193.377 45.6782C192.064 45.6782 190.751 45.6782 189.397 45.6782C189.397 43.539 189.397 41.3998 189.397 39.1958Z" fill="#173058"/>
<path d="M62.7881 39.1958C63.1286 39.1958 63.469 39.1958 63.8198 39.1958C63.8198 40.141 63.8198 41.0863 63.8198 42.0601C64.598 42.0601 65.3763 42.0601 66.1781 42.0601C66.1781 41.1149 66.1781 40.1697 66.1781 39.1958C66.5185 39.1958 66.859 39.1958 67.2098 39.1958C67.2098 41.335 67.2098 43.4742 67.2098 45.6782C66.8693 45.6782 66.5289 45.6782 66.1781 45.6782C66.1781 44.7827 66.1781 43.8873 66.1781 42.9646C65.3998 42.9646 64.6216 42.9646 63.8198 42.9646C63.8198 43.8601 63.8198 44.7556 63.8198 45.6782C63.4793 45.6782 63.1389 45.6782 62.7881 45.6782C62.7881 43.539 62.7881 41.3998 62.7881 39.1958Z" fill="#173058"/>
<path d="M131.03 39.1958C131.371 39.1958 131.711 39.1958 132.062 39.1958C132.377 40.0703 132.692 40.945 133.007 41.82C133.114 42.1178 133.221 42.4155 133.328 42.7132C133.482 43.1404 133.636 43.5677 133.789 43.9952C133.838 44.1288 133.886 44.2625 133.936 44.4002C133.98 44.5239 134.024 44.6476 134.07 44.7751C134.109 44.8842 134.148 44.9934 134.189 45.1058C134.273 45.3767 134.273 45.3767 134.273 45.6782C133.884 45.6782 133.495 45.6782 133.094 45.6782C132.875 45.0066 132.875 45.0066 132.651 44.3214C131.922 44.3214 131.192 44.3214 130.441 44.3214C130.295 44.7692 130.149 45.2169 129.998 45.6782C129.609 45.6782 129.22 45.6782 128.819 45.6782C129.195 44.2879 129.688 42.9419 130.173 41.589C130.257 41.3562 130.34 41.1234 130.423 40.8906C130.625 40.3255 130.827 39.7606 131.03 39.1958ZM131.472 41.0048C131.373 41.2966 131.275 41.5888 131.178 41.8811C131.123 42.0438 131.068 42.2064 131.012 42.374C130.862 42.8096 130.862 42.8096 130.883 43.2662C131.321 43.2662 131.758 43.2662 132.209 43.2662C132.049 42.4934 131.881 41.7497 131.62 41.0048C131.571 41.0048 131.522 41.0048 131.472 41.0048Z" fill="#163058"/>
<path d="M167.15 39.1865C167.364 39.1912 167.364 39.1912 167.583 39.1959C168.136 40.5147 168.632 41.8487 169.102 43.2003C169.17 43.3916 169.238 43.5829 169.305 43.7742C169.369 43.955 169.432 44.1359 169.497 44.3222C169.554 44.4851 169.611 44.6481 169.67 44.816C169.793 45.2261 169.793 45.2261 169.793 45.6784C169.404 45.6784 169.015 45.6784 168.614 45.6784C168.517 45.2306 168.42 44.7829 168.319 44.3216C167.541 44.3216 166.763 44.3216 165.961 44.3216C165.864 44.7693 165.767 45.2171 165.666 45.6784C165.277 45.6784 164.888 45.6784 164.487 45.6784C164.584 44.9084 164.804 44.228 165.063 43.5036C165.105 43.3848 165.147 43.266 165.19 43.1435C165.279 42.8939 165.367 42.6445 165.456 42.3952C165.593 42.0121 165.729 41.6286 165.864 41.245C165.95 41.0022 166.036 40.7595 166.122 40.5168C166.163 40.4017 166.204 40.2866 166.246 40.168C166.593 39.1981 166.593 39.1981 167.15 39.1865ZM166.993 41.1557C166.894 41.4508 166.796 41.7461 166.698 42.0414C166.643 42.2058 166.589 42.3702 166.532 42.5396C166.389 42.9386 166.389 42.9386 166.403 43.2663C166.89 43.2663 167.376 43.2663 167.877 43.2663C167.807 42.9993 167.736 42.7323 167.665 42.4654C167.626 42.3168 167.587 42.1681 167.546 42.0149C167.467 41.7263 167.38 41.44 167.288 41.1557C167.19 41.1557 167.093 41.1557 166.993 41.1557Z" fill="#163058"/>
<path d="M154.475 39.1865C154.689 39.1912 154.689 39.1912 154.908 39.1959C155.223 40.0705 155.538 40.9452 155.852 41.8202C155.959 42.1179 156.067 42.4157 156.174 42.7133C156.328 43.1405 156.482 43.5679 156.635 43.9953C156.683 44.129 156.732 44.2626 156.781 44.4003C156.826 44.524 156.87 44.6478 156.916 44.7752C156.955 44.8844 156.994 44.9935 157.035 45.1059C157.118 45.3769 157.118 45.3769 157.118 45.6784C156.729 45.6784 156.34 45.6784 155.939 45.6784C155.793 45.2804 155.648 44.8824 155.497 44.4723C154.768 44.4226 154.038 44.3728 153.286 44.3216C153.14 44.7693 152.995 45.2171 152.844 45.6784C152.455 45.6784 152.066 45.6784 151.665 45.6784C152.215 44.0576 152.771 42.4394 153.342 40.826C153.418 40.6085 153.418 40.6085 153.496 40.3866C153.543 40.2527 153.591 40.1189 153.64 39.9809C153.682 39.862 153.724 39.743 153.767 39.6204C153.947 39.1672 153.962 39.1972 154.475 39.1865ZM154.318 41.005C154.219 41.2968 154.121 41.5889 154.023 41.8812C153.969 42.0439 153.914 42.2066 153.857 42.3741C153.707 42.8097 153.707 42.8097 153.729 43.2663C154.215 43.2663 154.701 43.2663 155.202 43.2663C154.959 42.5201 154.716 41.7738 154.465 41.005C154.417 41.005 154.368 41.005 154.318 41.005Z" fill="#163058"/>
<path d="M60.0891 39.3749C60.6122 39.6676 60.8597 39.8824 61.1669 40.4019C61.2774 40.9013 61.2774 40.9013 61.3142 41.3064C60.9251 41.3064 60.536 41.3064 60.1351 41.3064C60.0926 41.21 60.05 41.1136 60.0062 41.0143C59.8657 40.6805 59.8657 40.6805 59.5456 40.5526C59.0359 40.4898 59.0359 40.4898 58.5138 40.5526C58.2079 40.8209 58.0878 41.0412 58.0301 41.4499C58.012 41.8053 58.0114 42.1567 58.0164 42.5124C58.0147 42.6341 58.013 42.7557 58.0112 42.8811C58.0138 43.4107 58.0242 43.7753 58.2645 44.2508C58.5238 44.5214 58.5238 44.5214 59.0205 44.5476C59.5518 44.5274 59.5518 44.5274 59.8311 44.1707C60.1893 43.8154 60.2814 43.8281 60.7615 43.8315C60.9439 43.844 61.1263 43.8564 61.3142 43.8692C61.2502 44.6119 60.9316 45.0027 60.4299 45.5275C59.8318 45.8913 59.1946 45.9154 58.5138 45.829C57.7564 45.5556 57.3449 45.1465 56.8925 44.4722C56.6016 43.1537 56.5322 41.5155 57.0399 40.2511C57.911 39.2527 58.8092 38.9533 60.0891 39.3749Z" fill="#163058"/>
<path d="M95.9512 39.1963C97.2644 39.1963 98.5777 39.1963 99.9307 39.1963C99.9307 39.5943 99.9307 39.9923 99.9307 40.4023C98.9579 40.4023 97.9852 40.4023 96.9829 40.4023C96.9829 40.9496 96.9829 41.4968 96.9829 42.0606C97.8098 42.0606 98.6366 42.0606 99.4885 42.0606C99.4885 42.4089 99.4885 42.7571 99.4885 43.1159C98.6617 43.1159 97.8348 43.1159 96.9829 43.1159C96.9829 43.9616 96.9829 44.8073 96.9829 45.6787C96.6424 45.6787 96.302 45.6787 95.9512 45.6787C95.9512 43.5395 95.9512 41.4003 95.9512 39.1963Z" fill="#173058"/>
<path d="M135.305 39.1958C135.694 39.1958 136.083 39.1958 136.484 39.1958C136.484 40.9868 136.484 42.7777 136.484 44.6229C137.457 44.6229 138.429 44.6229 139.432 44.6229C139.432 44.9712 139.432 45.3194 139.432 45.6782C138.07 45.6782 136.708 45.6782 135.305 45.6782C135.305 43.539 135.305 41.3998 135.305 39.1958Z" fill="#173058"/>
<path d="M200.894 39.1958C202.401 39.1958 203.909 39.1958 205.463 39.1958C205.463 39.544 205.463 39.8923 205.463 40.2511C204.879 40.2511 204.295 40.2511 203.694 40.2511C203.694 42.042 203.694 43.833 203.694 45.6782C203.354 45.6782 203.013 45.6782 202.662 45.6782C202.662 43.8873 202.662 42.0963 202.662 40.2511C202.079 40.2511 201.495 40.2511 200.894 40.2511C200.894 39.9028 200.894 39.5546 200.894 39.1958Z" fill="#173058"/>
<path d="M80.7705 39.1958C81.111 39.1958 81.4515 39.1958 81.8022 39.1958C81.8022 40.9868 81.8022 42.7777 81.8022 44.6229C82.8237 44.6229 83.8451 44.6229 84.8974 44.6229C84.8974 44.9712 84.8974 45.3194 84.8974 45.6782C83.5356 45.6782 82.1737 45.6782 80.7705 45.6782C80.7705 43.539 80.7705 41.3998 80.7705 39.1958Z" fill="#173058"/>
<path d="M112.018 39.1963C112.358 39.1963 112.699 39.1963 113.049 39.1963C113.049 40.9872 113.049 42.7782 113.049 44.6234C114.022 44.6234 114.995 44.6234 115.997 44.6234C115.997 44.9717 115.997 45.3199 115.997 45.6787C114.684 45.6787 113.371 45.6787 112.018 45.6787C112.018 43.5395 112.018 41.4003 112.018 39.1963Z" fill="#173058"/>
<path d="M44.7057 13.2192C45.2492 13.2663 45.2492 13.2663 45.6085 13.5113C45.9065 13.9746 45.9165 14.2285 45.8388 14.7739C45.6914 15.1319 45.6914 15.1319 45.3966 15.3769C44.8685 15.4771 44.3965 15.4891 43.9319 15.1979C43.7255 14.8377 43.6475 14.5905 43.6279 14.1709C44.0628 13.2813 44.0628 13.2813 44.7057 13.2192ZM44.3649 13.5679C44.3649 13.6176 44.3649 13.6674 44.3649 13.7186C44.6081 13.7186 44.8513 13.7186 45.1018 13.7186C45.1018 13.6689 45.1018 13.6191 45.1018 13.5679C44.8586 13.5679 44.6154 13.5679 44.3649 13.5679ZM44.2175 13.7186C44.1202 13.9674 44.0229 14.2161 43.9227 14.4724C44.0686 14.6216 44.2145 14.7709 44.3649 14.9246C44.3649 14.5267 44.3649 14.1287 44.3649 13.7186C44.3162 13.7186 44.2676 13.7186 44.2175 13.7186ZM45.2492 13.7186C45.2492 14.1166 45.2492 14.5146 45.2492 14.9246C45.3465 14.8749 45.4438 14.8251 45.544 14.7739C45.4954 14.4256 45.4467 14.0774 45.3966 13.7186C45.348 13.7186 45.2993 13.7186 45.2492 13.7186ZM44.6597 14.6231C44.6597 14.7226 44.6597 14.8221 44.6597 14.9246C44.5137 14.9993 44.5137 14.9993 44.3649 15.0754C44.5108 15.1251 44.6567 15.1749 44.8071 15.2261C44.953 15.1267 45.0989 15.0272 45.2492 14.9246C45.1033 14.9246 44.9574 14.9246 44.8071 14.9246C44.7584 14.8251 44.7098 14.7256 44.6597 14.6231Z" fill="#163059"/>
</svg>
