<svg width="179.45203044275317" height="181.984" viewBox="0.9789456141325537 42.487999999999985 179.45203044275317 181.984" fill="none" xmlns="http://www.w3.org/2000/svg">
<circle cx="90" cy="132" r="90" fill="white"></circle>
<path d="M62.4716 170.72L64.3916 162.88H57.5116L55.5916 170.72H62.4716ZM57.4316 192L60.6316 178.72H53.7516L50.5516 192H40.8716L44.0716 178.72H36.9516L38.6316 170.72H45.9116L47.8316 162.88H40.1516L41.8316 154.88H49.6716L52.8716 141.6H62.5516L59.3516 154.88H66.2316L69.4316 141.6H79.1116L75.9116 154.88H83.0316L81.3516 162.88H74.0716L72.1516 170.72H79.8316L78.1516 178.72H70.3116L67.1116 192H57.4316Z" fill="black"></path>
<path d="M76.6531 107.6V85.2C94.2531 85.2 103.053 79 107.653 66H134.253V192H100.253V107.6H76.6531Z" fill="black"></path>
</svg>