<svg width="52" height="52" viewBox="0 0 52 52" fill="none" xmlns="http://www.w3.org/2000/svg">
<path d="M22.9385 44.7473C23.8831 45.2976 24.9448 45.5728 26.0021 45.5728C27.0595 45.5728 28.1168 45.2976 29.0571 44.7516C31.8001 43.1765 36.0728 41.2286 40.859 40.8841C44.07 40.674 46.5833 38.0285 46.5833 34.863V12.4596C46.5833 10.7544 45.8553 9.1229 44.5835 7.9854C43.2921 6.8284 41.561 6.2759 39.8298 6.46657C34.8811 7.00173 30.6496 8.96907 27.9716 10.5291C26.7583 11.2354 25.246 11.2376 24.0283 10.5269C21.3503 8.96907 17.121 7.00173 12.1745 6.46657C10.4455 6.26723 8.70779 6.8284 7.41863 7.9854C6.14679 9.1229 5.41663 10.7544 5.41663 12.4596V34.863C5.41663 38.0263 7.92996 40.6718 11.1388 40.8841C15.9293 41.2286 20.2041 43.1765 22.9385 44.7473Z" fill="#FFC627"/>
<path d="M27.6265 10.7083V45.3531C27.0961 45.4995 26.5494 45.5732 26.0028 45.5732C25.4563 45.5732 24.9086 45.4998 24.3765 45.3526V10.7074C25.408 11.1777 26.5979 11.1765 27.6265 10.7083Z" fill="#07C8CC"/>
<path d="M18.6678 23.464C19.3135 23.464 19.9245 23.0761 20.178 22.4391C20.5095 21.6071 20.1021 20.6603 19.268 20.3288L14.5338 18.4438C13.7018 18.1166 12.755 18.5175 12.4235 19.3538C12.092 20.1858 12.4993 21.1326 13.3335 21.4641L18.0676 23.3491C18.2626 23.4271 18.4663 23.464 18.6678 23.464Z" fill="#8C1D43"/>
<path d="M18.6678 33.2139C19.3135 33.2139 19.9245 32.8261 20.178 32.1891C20.5095 31.3571 20.1021 30.4102 19.268 30.0787L14.5338 28.1937C13.7018 27.8622 12.755 28.2696 12.4235 29.1037C12.092 29.9357 12.4993 30.8826 13.3335 31.2141L18.0676 33.0991C18.2626 33.1771 18.4663 33.2139 18.6678 33.2139Z" fill="#8C1D43"/>
<path d="M33.3352 23.464C32.6896 23.464 32.0786 23.0761 31.8251 22.4391C31.4936 21.6071 31.9009 20.6603 32.7351 20.3288L37.4692 18.4438C38.3012 18.1166 39.2481 18.5175 39.5796 19.3538C39.9111 20.1858 39.5037 21.1326 38.6696 21.4641L33.9354 23.3491C33.7404 23.4271 33.5367 23.464 33.3352 23.464Z" fill="#8C1D43"/>
<path d="M33.3352 33.2139C32.6896 33.2139 32.0786 32.8261 31.8251 32.1891C31.4936 31.3571 31.9009 30.4102 32.7351 30.0787L37.4692 28.1937C38.3012 27.8622 39.2481 28.2696 39.5796 29.1037C39.9111 29.9357 39.5037 30.8826 38.6696 31.2141L33.9354 33.0991C33.7404 33.1771 33.5367 33.2139 33.3352 33.2139Z" fill="#8C1D43"/>
</svg>
