<svg width="52" height="52" viewBox="0 0 52 52" fill="none" xmlns="http://www.w3.org/2000/svg">
<path d="M18.1141 35.6845C18.1141 36.0435 18.4051 36.3345 18.7641 36.3345H38.1983C38.5569 36.3345 38.8476 36.6246 38.8483 36.9832L38.86 42.8779C38.86 43.426 38.4288 43.8529 37.8763 43.8529H13.6444C12.3704 43.8529 11.4994 43.2527 10.9967 42.75C10.2991 42.0502 9.91122 41.1402 9.89172 40.1739C9.89389 40.15 9.89389 40.1284 9.89389 40.1045V39.9767C9.96106 37.9574 11.6186 36.3345 13.6444 36.3345H14.2141C14.573 36.3345 14.8641 36.0435 14.8641 35.6845V5.54612C14.8641 5.18712 14.573 4.89612 14.2141 4.89612H13.8589C9.88089 4.89612 6.64389 8.14179 6.64389 12.1328V39.9312C6.64172 39.9875 6.64172 40.0482 6.64172 40.1045C6.64172 41.9614 7.37189 43.7164 8.69572 45.0445C10.0217 46.3727 11.7811 47.1029 13.6444 47.1029H37.8763C40.2098 47.1029 42.11 45.207 42.11 42.8735L42.1039 32.2523C42.1037 31.9878 41.9408 31.7538 41.707 31.6298C41.3367 31.434 40.989 31.1809 40.6765 30.8702L40.3006 30.4967C40.126 30.3231 39.8688 30.265 39.6326 30.3341C38.7211 30.6013 37.7559 30.7445 36.7592 30.7445C31.1215 30.7445 26.5347 26.1642 26.5347 20.5395C26.5347 14.8996 31.1215 10.3128 36.7592 10.3128C38.4358 10.3128 40.0194 10.7181 41.4171 11.4358C41.7185 11.5906 42.0918 11.3796 42.0916 11.0408L42.0905 9.12112C42.0905 6.79195 40.199 4.89612 37.8763 4.89612H18.7641C18.4051 4.89612 18.1141 5.18712 18.1141 5.54612V35.6845Z" fill="#FAC93D"/>
<path fill-rule="evenodd" clip-rule="evenodd" d="M42.5861 28.9505C42.9046 29.2669 43.3184 29.4228 43.7344 29.4228C44.1504 29.4228 44.5686 29.2647 44.8849 28.9462C45.5198 28.3092 45.5154 27.28 44.8806 26.6474L42.9761 24.7515C43.7994 23.5512 44.2804 22.0995 44.2804 20.5395C44.2804 16.3946 40.9069 13.0211 36.7599 13.0211C32.6151 13.0211 29.2438 16.3946 29.2438 20.5395C29.2438 24.6735 32.6151 28.0362 36.7599 28.0362C38.1639 28.0362 39.4813 27.6505 40.6058 26.9789L42.5861 28.9505ZM32.4938 20.5395C32.4938 18.1865 34.4069 16.2711 36.7599 16.2711C39.1151 16.2711 41.0304 18.1865 41.0304 20.5395C41.0304 22.8817 39.1151 24.7862 36.7599 24.7862C34.4069 24.7862 32.4938 22.8817 32.4938 20.5395Z" fill="#8C1D43"/>
</svg>
