<svg width="103" height="104" viewBox="0 0 103 104" fill="none" xmlns="http://www.w3.org/2000/svg">
<path d="M100.729 48.029C102.136 50.4894 102.136 53.5106 100.729 55.9711L79.5537 93.0044C78.1291 95.4959 75.479 97.0333 72.6089 97.0333L30.3911 97.0333C27.521 97.0333 24.8709 95.4959 23.4463 93.0044L2.27064 55.971C0.86376 53.5106 0.86376 50.4894 2.27065 48.0289L23.4463 10.9956C24.8709 8.50412 27.521 6.96668 30.3911 6.96668L72.6089 6.96668C75.479 6.96668 78.1291 8.50412 79.5538 10.9956L100.729 48.029Z" fill="#00B7BD"/>
<path d="M56.4198 69.9223H52.1761C51.5722 69.9223 51.0825 70.4119 51.0825 71.016C51.0825 71.62 51.5722 72.1096 52.1761 72.1096H56.4198C57.0747 72.1096 57.6076 72.6424 57.6076 73.2973C57.6076 73.9522 57.0748 74.485 56.4198 74.485H44.9962C43.2791 74.485 41.6642 73.7279 40.5661 72.4078L37.8343 69.1241C36.3684 67.3621 34.2351 66.3301 31.9524 66.2648V59.8044H35.9792C37.965 59.8044 39.8452 60.5639 41.2738 61.9429L47.17 67.6342C47.5868 68.0366 47.6062 68.7103 47.2133 69.136C46.8127 69.5698 46.1329 69.5981 45.6977 69.1993L41.0686 64.956C40.6235 64.5479 39.9316 64.5778 39.5236 65.0231C39.1154 65.4684 39.1455 66.1602 39.5907 66.5682L44.2198 70.8115C44.8441 71.3838 45.6341 71.6664 46.4222 71.6664C47.302 71.6664 48.1793 71.3141 48.8205 70.6195C50.0134 69.3272 49.9544 67.2821 48.6891 66.0606L42.7929 60.3693C40.9544 58.5946 38.5346 57.6172 35.9792 57.6172H31.74C31.3286 56.6434 30.3635 55.9581 29.2416 55.9581H24.0936C23.4897 55.9581 23 56.4477 23 57.0518V65.0489C23 65.6529 23.4897 66.1426 24.0936 66.1426C24.6976 66.1426 25.1873 65.653 25.1873 65.0489V58.1453H29.2417C29.5304 58.1453 29.7653 58.3802 29.7653 58.6689V67.4345C29.7653 67.7231 29.5304 67.9581 29.2417 67.9581H28.1058C27.5019 67.9581 27.0122 68.4476 27.0122 69.0517C27.0122 69.6557 27.5019 70.1453 28.1058 70.1453H29.2416C30.3786 70.1453 31.3537 69.4414 31.7557 68.4466C33.4606 68.4564 35.0617 69.2114 36.1529 70.523L38.8847 73.8067C40.3998 75.6279 42.6273 76.6723 44.9962 76.6723H56.4198C58.2807 76.6723 59.7947 75.1583 59.7947 73.2973C59.7947 71.4363 58.2807 69.9223 56.4198 69.9223Z" fill="white"/>
<path d="M77.9062 39.4303C77.3023 39.4303 76.8126 39.9198 76.8126 40.5239V47.8547H72.7582C72.4694 47.8547 72.2346 47.6198 72.2346 47.3312V38.5655C72.2346 38.2769 72.4694 38.042 72.7582 38.042H73.8138C74.4177 38.042 74.9074 37.5524 74.9074 36.9483C74.9074 36.3444 74.4177 35.8547 73.8138 35.8547H72.7582C71.6211 35.8547 70.646 36.5586 70.2441 37.5534C68.5392 37.5437 66.938 36.7886 65.8469 35.477L63.115 32.1935C61.6001 30.3723 59.3725 29.3278 57.0034 29.3278H45.5801C43.7192 29.3278 42.2051 30.8417 42.2051 32.7026C42.2051 34.5635 43.7192 36.0775 45.5801 36.0775H50.2513C50.8552 36.0775 51.3449 35.5879 51.3449 34.9839C51.3449 34.3798 50.8552 33.8902 50.2513 33.8902H45.5801C44.9252 33.8902 44.3923 33.3575 44.3923 32.7025C44.3923 32.0477 44.925 31.5148 45.5801 31.5148H57.0035C58.7208 31.5148 60.3356 32.2719 61.4337 33.5921L64.1656 36.8756C65.6313 38.6376 67.7648 39.6696 70.0474 39.735V46.1954H66.0207C64.0349 46.1954 62.1546 45.4359 60.7261 44.0569L54.8299 38.3656C54.4131 37.9632 54.3936 37.2896 54.7866 36.8638C55.1871 36.4299 55.867 36.4017 56.3022 36.8006L60.9314 41.0439C61.3766 41.4519 62.0682 41.422 62.4765 40.9767C62.8846 40.5314 62.8545 39.8397 62.4093 39.4316L57.7801 35.1884C56.4588 33.9773 54.3951 34.0636 53.1793 35.3804C51.9865 36.6728 52.0454 38.7179 53.3108 39.9393L59.207 45.6306C61.0455 47.4053 63.4653 48.3827 66.0207 48.3827H70.2598C70.6713 49.3566 71.6363 50.0418 72.7583 50.0418H77.9063C78.5103 50.0418 79 49.5522 79 48.9482V40.5237C78.9999 39.9198 78.5102 39.4303 77.9062 39.4303Z" fill="white"/>
<path d="M58.3103 66.5234C58.0616 65.973 57.4152 65.7275 56.8652 65.9761C56.3114 66.2173 56.058 66.8617 56.2992 67.4153C56.4784 67.8269 56.8804 68.0726 57.3024 68.0726C57.4482 68.0726 57.5963 68.0433 57.7385 67.9814C57.7431 67.9794 57.7575 67.9729 57.762 67.971C58.3125 67.7224 58.5589 67.0739 58.3103 66.5234Z" fill="white"/>
<path d="M61.0288 64.6823C60.6713 64.1967 59.9841 64.0956 59.4979 64.4515C59.0106 64.8083 58.9048 65.4927 59.2615 65.9799C59.4758 66.2725 59.8079 66.4276 60.1447 66.4276C60.369 66.4276 60.5953 66.3589 60.7899 66.2164C60.7917 66.2152 60.802 66.2075 60.8036 66.2063C61.288 65.8476 61.3863 65.1677 61.0288 64.6823Z" fill="white"/>
<path d="M55.2529 67.7512C55.1283 67.1622 54.55 66.7851 53.9605 66.9069C53.3716 67.0238 52.9866 67.5942 53.0995 68.1848C53.1997 68.7087 53.6581 69.0733 54.1725 69.0733C54.2405 69.0733 54.3097 69.0668 54.379 69.0536C54.3861 69.0522 54.404 69.0486 54.4112 69.047C55.0019 68.9218 55.3779 68.3419 55.2529 67.7512Z" fill="white"/>
<path d="M63.3134 62.3035C62.865 61.899 62.1736 61.9346 61.7689 62.3831C61.7636 62.3891 61.751 62.4034 61.7458 62.4094C61.3511 62.8667 61.4021 63.5573 61.8594 63.9518C62.066 64.1301 62.3202 64.2173 62.5732 64.2173C62.8769 64.2173 63.1789 64.0916 63.3948 63.8461C63.7975 63.3976 63.7613 62.7074 63.3134 62.3035ZM62.7027 63.2256L62.5811 63.1156L62.7127 63.2344L62.7027 63.2256Z" fill="white"/>
<path d="M66.097 56.3767C65.5191 56.2013 64.9077 56.5311 64.7323 57.1092C64.5547 57.6864 64.8787 58.2984 65.456 58.476C65.5631 58.509 65.6713 58.5247 65.7779 58.5247C66.2453 58.5247 66.6781 58.2226 66.8227 57.7524L66.8273 57.7374C67.0025 57.1594 66.675 56.5519 66.097 56.3767Z" fill="white"/>
<path d="M67.4978 50.7323C67.4954 50.7184 67.4928 50.7045 67.4898 50.6906C67.3663 50.0996 66.7871 49.7214 66.1962 49.8447C65.6075 49.9674 65.2289 50.5432 65.3475 51.1318C65.4478 51.6537 65.9051 52.0189 66.42 52.0189C66.484 52.0189 66.549 52.0133 66.6141 52.0016C67.2086 51.8952 67.6042 51.3268 67.4978 50.7323Z" fill="white"/>
<path d="M66.4948 53.1052C65.8951 53.0523 65.3625 53.4969 65.3094 54.0985C65.3084 54.1091 65.3069 54.1306 65.3063 54.1412C65.2708 54.7442 65.7307 55.2618 66.3337 55.2972C66.3556 55.2985 66.3772 55.2992 66.3989 55.2992C66.9683 55.2992 67.4468 54.8588 67.4887 54.2854C67.5386 53.686 67.0947 53.1582 66.4948 53.1052Z" fill="white"/>
<path d="M65.0265 59.4886C64.5015 59.191 63.8336 59.3754 63.5359 59.9009L63.5207 59.9283C63.2327 60.4592 63.4271 61.1278 63.9579 61.4158C64.1249 61.5063 64.3046 61.5493 64.4817 61.5493C64.8676 61.5493 65.2405 61.3446 65.4379 60.9806L64.4872 60.44L65.4387 60.9792C65.7365 60.4537 65.552 59.7864 65.0265 59.4886Z" fill="white"/>
<path d="M45.1916 38.6609C44.9215 38.1206 44.2643 37.9015 43.7244 38.1718L43.7147 38.1766C43.1744 38.4468 42.9603 39.1012 43.2305 39.6414C43.4218 40.0241 43.8094 40.2443 44.2112 40.2443C44.3768 40.2443 44.5448 40.2069 44.7024 40.1282C45.2428 39.8581 45.4616 39.2012 45.1916 38.6609Z" fill="white"/>
<path d="M48.3554 37.7491C48.2131 37.1623 47.6227 36.8016 47.0348 36.944C47.0298 36.9452 47.0143 36.9492 47.0093 36.9505C46.4243 37.1012 46.0701 37.6981 46.2207 38.2829C46.3479 38.7764 46.7905 39.1044 47.2771 39.1044C47.3672 39.1044 47.4589 39.0931 47.5503 39.0696C48.1372 38.9273 48.4977 38.3362 48.3554 37.7491Z" fill="white"/>
<path d="M42.2998 40.238C41.9216 39.7681 41.233 39.6942 40.7624 40.0716L41.4404 40.9296L40.7591 40.0741C40.2866 40.4503 40.2087 41.1383 40.5848 41.6108C40.8009 41.8821 41.1195 42.0233 41.4412 42.0233C41.6799 42.0233 41.9204 41.9454 42.1217 41.7851L42.1362 41.7736C42.6054 41.3946 42.678 40.708 42.2998 40.238Z" fill="white"/>
<path d="M36.4687 48.0191C35.886 47.8603 35.2849 48.2036 35.1259 48.7864C35.1232 48.7963 35.1179 48.817 35.1154 48.8271C34.9732 49.4139 35.3337 50.0039 35.9204 50.1465C36.0071 50.1675 36.0937 50.1775 36.179 50.1775C36.6697 50.1775 37.1155 49.8446 37.2397 49.3484C37.3897 48.77 37.047 48.1768 36.4687 48.0191Z" fill="white"/>
<path d="M35.772 51.2324C35.1675 51.1989 34.6519 51.6581 34.6169 52.261C34.616 52.2751 34.6155 52.2891 34.6151 52.3031C34.5973 52.9065 35.0721 53.4093 35.6757 53.4274C35.6868 53.4277 35.6978 53.4279 35.7088 53.4279C36.2951 53.4279 36.7795 52.9628 36.8011 52.3739C36.8285 51.7768 36.3704 51.2672 35.772 51.2324Z" fill="white"/>
<path d="M37.8451 45.0305C37.3101 44.7498 36.6492 44.956 36.3686 45.4908L36.3508 45.526C36.0842 46.0678 36.3078 46.7221 36.8494 46.9888C37.0045 47.0653 37.1689 47.1014 37.3311 47.1014C37.7327 47.1014 38.1194 46.8791 38.311 46.4963C38.5833 45.9633 38.3764 45.3093 37.8451 45.0305Z" fill="white"/>
<path d="M39.8202 42.3993C39.3555 42.0135 38.666 42.0775 38.2802 42.5421C38.275 42.5486 38.2629 42.5634 38.2577 42.5699C37.8827 43.0432 37.9629 43.7298 38.436 44.105C38.6368 44.2643 38.8763 44.3416 39.1143 44.3416C39.4351 44.3416 39.7532 44.2011 39.9692 43.9318C40.348 43.4673 40.2824 42.7831 39.8202 42.3993Z" fill="white"/>
<path d="M37.0079 55.4093C36.9015 54.8147 36.3329 54.4191 35.7386 54.5256C35.1441 54.6322 34.7484 55.2004 34.8549 55.7949L34.8568 55.8056C34.9516 56.3343 35.4106 56.7014 35.9291 56.7014C35.9938 56.7014 36.0593 56.6957 36.1251 56.6839C36.7197 56.5775 37.1144 56.0038 37.0079 55.4093Z" fill="white"/>
<path d="M54.755 47.1074C53.3315 47.1074 52.0125 47.6944 51.0726 48.685C50.1327 47.6944 48.8138 47.1074 47.3903 47.1074C44.59 47.1074 42.3118 49.3856 42.3118 52.1859C42.3118 53.6969 42.9783 55.119 44.14 56.0876C44.147 56.0935 44.1543 56.0993 44.1615 56.1051L50.3938 61.0392C50.5926 61.1967 50.8326 61.2754 51.0725 61.2754C51.3136 61.2754 51.5547 61.196 51.7539 61.0372L58.2503 55.8626C58.2821 55.8374 58.3124 55.8103 58.3411 55.7816C59.3035 54.8218 59.8335 53.5449 59.8335 52.1859C59.8335 49.3856 57.5553 47.1074 54.755 47.1074ZM56.8361 54.193L51.0707 58.7855L45.5308 54.3997C44.875 53.848 44.4991 53.042 44.4991 52.1861C44.499 50.5918 45.7961 49.2947 47.3903 49.2947C48.564 49.2947 49.6128 49.9957 50.0624 51.0805C50.2318 51.489 50.6304 51.7554 51.0726 51.7554C51.5149 51.7554 51.9135 51.4891 52.0829 51.0805C52.5325 49.9957 53.5813 49.2947 54.755 49.2947C56.3492 49.2947 57.6463 50.5918 57.6463 52.186C57.6463 52.9409 57.359 53.6514 56.8361 54.193Z" fill="white"/>
</svg>
