<svg width="61" height="62" viewBox="0 0 61 62" fill="none" xmlns="http://www.w3.org/2000/svg">
<path d="M58.2103 26.5629C59.6172 29.0234 59.6172 32.0446 58.2103 34.505L47.6645 52.9482C46.2399 55.4398 43.5897 56.9772 40.7197 56.9772L19.7615 56.9772C16.8914 56.9772 14.2413 55.4398 12.8166 52.9482L2.27082 34.505C0.863938 32.0446 0.86394 29.0234 2.27082 26.5629L12.8166 8.11972C14.2413 5.62821 16.8914 4.09078 19.7615 4.09078L40.7197 4.09078C43.5897 4.09078 46.2399 5.62822 47.6645 8.11973L58.2103 26.5629Z" fill="#00B7BD"/>
<mask id="path-2-inside-1" fill="white">
<path d="M42.55 44.2949H34.4193V40.4159H40.7432C41.2421 40.4159 41.6466 40.0114 41.6466 39.5124C41.6466 39.0135 41.2421 38.609 40.7432 38.609H34.4193V37.7056C34.4193 37.2067 34.0148 36.8022 33.5158 36.8022H28.9987C27.0062 36.8022 25.3851 35.1811 25.3851 33.1885C25.3851 31.1959 27.0062 29.5748 28.9987 29.5748H30.4745L31.5388 31.9475C31.7427 32.4018 32.277 32.6064 32.7329 32.4019L33.5572 32.0321L34.6665 34.505C34.8714 34.9617 35.4066 35.1631 35.8606 34.9595L39.1577 33.4803C39.613 33.2761 39.8165 32.7415 39.6122 32.2862L38.5029 29.8134L39.3272 29.4436C39.7824 29.2394 39.9859 28.7048 39.7816 28.2495L35.3444 18.3583C35.1402 17.9034 34.6055 17.6997 34.1503 17.9039L33.326 18.2737L32.2167 15.8008C32.0125 15.3456 31.478 15.1421 31.0226 15.3463L27.7255 16.8255C27.2703 17.0297 27.0668 17.5643 27.271 18.0196L28.3804 20.4924L27.5561 20.8622C27.1008 21.0664 26.8974 21.601 27.1016 22.0563L28.0645 24.2026C23.5203 24.6716 19.9646 28.5226 19.9646 33.1886C19.9646 35.3427 20.7381 37.4301 22.1427 39.0663C23.3045 40.4199 24.8355 41.3959 26.5287 41.8787L25.6546 44.295H22.6749C22.1759 44.295 21.7714 44.6995 21.7714 45.1984C21.7714 45.6974 22.1759 46.1019 22.6749 46.1019H42.5501C43.049 46.1019 43.4535 45.6974 43.4535 45.1984C43.4535 44.6995 43.049 44.2949 42.55 44.2949ZM35.9454 32.9412L35.2058 31.2926L36.8544 30.5531L37.5939 32.2016L35.9454 32.9412ZM30.9379 17.3646L31.6774 19.0132L30.0289 19.7527L29.2894 18.1042L30.9379 17.3646ZM34.0656 19.9222L37.7633 28.1649L36.9391 28.5347H36.9391C36.9391 28.5347 36.9391 28.5347 36.939 28.5347L32.8177 30.3836C31.9247 28.393 29.883 23.8418 29.1199 22.1408L34.0656 19.9222ZM21.7714 33.1885C21.7714 29.2516 24.9355 26.0403 28.8542 25.963L29.664 27.768H28.9988C26.0099 27.768 23.5783 30.1996 23.5783 33.1885C23.5783 35.7523 25.3675 37.9059 27.7628 38.4667L27.1446 40.1757C23.9927 39.3478 21.7714 36.5125 21.7714 33.1885V33.1885ZM32.6124 44.2949H27.576L29.6326 38.609H32.6124V44.2949Z"/>
</mask>
<path d="M42.55 44.2949H34.4193V40.4159H40.7432C41.2421 40.4159 41.6466 40.0114 41.6466 39.5124C41.6466 39.0135 41.2421 38.609 40.7432 38.609H34.4193V37.7056C34.4193 37.2067 34.0148 36.8022 33.5158 36.8022H28.9987C27.0062 36.8022 25.3851 35.1811 25.3851 33.1885C25.3851 31.1959 27.0062 29.5748 28.9987 29.5748H30.4745L31.5388 31.9475C31.7427 32.4018 32.277 32.6064 32.7329 32.4019L33.5572 32.0321L34.6665 34.505C34.8714 34.9617 35.4066 35.1631 35.8606 34.9595L39.1577 33.4803C39.613 33.2761 39.8165 32.7415 39.6122 32.2862L38.5029 29.8134L39.3272 29.4436C39.7824 29.2394 39.9859 28.7048 39.7816 28.2495L35.3444 18.3583C35.1402 17.9034 34.6055 17.6997 34.1503 17.9039L33.326 18.2737L32.2167 15.8008C32.0125 15.3456 31.478 15.1421 31.0226 15.3463L27.7255 16.8255C27.2703 17.0297 27.0668 17.5643 27.271 18.0196L28.3804 20.4924L27.5561 20.8622C27.1008 21.0664 26.8974 21.601 27.1016 22.0563L28.0645 24.2026C23.5203 24.6716 19.9646 28.5226 19.9646 33.1886C19.9646 35.3427 20.7381 37.4301 22.1427 39.0663C23.3045 40.4199 24.8355 41.3959 26.5287 41.8787L25.6546 44.295H22.6749C22.1759 44.295 21.7714 44.6995 21.7714 45.1984C21.7714 45.6974 22.1759 46.1019 22.6749 46.1019H42.5501C43.049 46.1019 43.4535 45.6974 43.4535 45.1984C43.4535 44.6995 43.049 44.2949 42.55 44.2949ZM35.9454 32.9412L35.2058 31.2926L36.8544 30.5531L37.5939 32.2016L35.9454 32.9412ZM30.9379 17.3646L31.6774 19.0132L30.0289 19.7527L29.2894 18.1042L30.9379 17.3646ZM34.0656 19.9222L37.7633 28.1649L36.9391 28.5347H36.9391C36.9391 28.5347 36.9391 28.5347 36.939 28.5347L32.8177 30.3836C31.9247 28.393 29.883 23.8418 29.1199 22.1408L34.0656 19.9222ZM21.7714 33.1885C21.7714 29.2516 24.9355 26.0403 28.8542 25.963L29.664 27.768H28.9988C26.0099 27.768 23.5783 30.1996 23.5783 33.1885C23.5783 35.7523 25.3675 37.9059 27.7628 38.4667L27.1446 40.1757C23.9927 39.3478 21.7714 36.5125 21.7714 33.1885V33.1885ZM32.6124 44.2949H27.576L29.6326 38.609H32.6124V44.2949Z" fill="white"/>
<path d="M34.4193 44.2949H33.9193V44.7949H34.4193V44.2949ZM34.4193 40.4159V39.9159H33.9193V40.4159H34.4193ZM34.4193 38.609H33.9193V39.109H34.4193V38.609ZM30.4745 29.5748L30.9307 29.3702L30.7982 29.0748H30.4745V29.5748ZM31.5388 31.9475L31.9951 31.7428L31.995 31.7428L31.5388 31.9475ZM32.7329 32.4019L32.9375 32.8582L32.9376 32.8581L32.7329 32.4019ZM33.5572 32.0321L34.0134 31.8275L33.8087 31.3713L33.3525 31.5759L33.5572 32.0321ZM34.6665 34.505L34.2103 34.7096L34.2104 34.7096L34.6665 34.505ZM35.8606 34.9595L36.0652 35.4157L36.0653 35.4157L35.8606 34.9595ZM39.1577 33.4803L38.9531 33.0241L38.9531 33.0241L39.1577 33.4803ZM39.6122 32.2862L40.0684 32.0816L40.0684 32.0816L39.6122 32.2862ZM38.5029 29.8134L38.2982 29.3572L37.842 29.5619L38.0467 30.018L38.5029 29.8134ZM39.3272 29.4436L39.1225 28.9874L39.1225 28.9874L39.3272 29.4436ZM39.7816 28.2495L40.2378 28.0449L40.2378 28.0449L39.7816 28.2495ZM35.3444 18.3583L35.8006 18.1537L35.8005 18.1537L35.3444 18.3583ZM34.1503 17.9039L33.9456 17.4476L33.9456 17.4477L34.1503 17.9039ZM33.326 18.2737L32.8698 18.4783L33.0744 18.9345L33.5307 18.7299L33.326 18.2737ZM32.2167 15.8008L32.6729 15.5962L32.6729 15.5961L32.2167 15.8008ZM31.0226 15.3463L30.818 14.8901L30.818 14.8901L31.0226 15.3463ZM27.7255 16.8255L27.9302 17.2817L27.9302 17.2817L27.7255 16.8255ZM27.271 18.0196L26.8148 18.2242L26.8148 18.2242L27.271 18.0196ZM28.3804 20.4924L28.585 20.9486L29.0412 20.7439L28.8366 20.2877L28.3804 20.4924ZM27.5561 20.8622L27.7607 21.3184L27.7608 21.3184L27.5561 20.8622ZM27.1016 22.0563L26.6454 22.2609L26.6454 22.2609L27.1016 22.0563ZM28.0645 24.2026L28.1158 24.6999L28.8038 24.6289L28.5207 23.9979L28.0645 24.2026ZM22.1427 39.0663L22.5221 38.7407L22.5221 38.7407L22.1427 39.0663ZM26.5287 41.8787L26.9988 42.0488L27.1811 41.5449L26.6658 41.3979L26.5287 41.8787ZM25.6546 44.295V44.795H26.0055L26.1248 44.4651L25.6546 44.295ZM35.9454 32.9412L35.4892 33.1458L35.6938 33.602L36.15 33.3974L35.9454 32.9412ZM35.2058 31.2926L35.0012 30.8364L34.545 31.041L34.7496 31.4972L35.2058 31.2926ZM36.8544 30.5531L37.3106 30.3484L37.1059 29.8922L36.6497 30.0969L36.8544 30.5531ZM37.5939 32.2016L37.7986 32.6578L38.2548 32.4532L38.0501 31.997L37.5939 32.2016ZM30.9379 17.3646L31.3941 17.16L31.1894 16.7038L30.7332 16.9084L30.9379 17.3646ZM31.6774 19.0132L31.8821 19.4694L32.3383 19.2647L32.1336 18.8085L31.6774 19.0132ZM30.0289 19.7527L29.5727 19.9574L29.7774 20.4136L30.2336 20.2089L30.0289 19.7527ZM29.2894 18.1042L29.0847 17.648L28.6285 17.8526L28.8332 18.3088L29.2894 18.1042ZM34.0656 19.9222L34.5218 19.7175L34.3171 19.2613L33.8609 19.466L34.0656 19.9222ZM37.7633 28.1649L37.968 28.6211L38.4242 28.4164L38.2195 27.9602L37.7633 28.1649ZM36.9391 28.5347V29.0347H37.0462L37.1438 28.9909L36.9391 28.5347ZM36.939 28.5347V28.0347H36.832L36.7344 28.0785L36.939 28.5347ZM32.8177 30.3836L32.3615 30.5882L32.5661 31.0444L33.0223 30.8398L32.8177 30.3836ZM29.1199 22.1408L28.9153 21.6846L28.4591 21.8893L28.6637 22.3455L29.1199 22.1408ZM28.8542 25.963L29.3104 25.7583L29.1751 25.4565L28.8444 25.4631L28.8542 25.963ZM29.664 27.768V28.268H30.4363L30.1202 27.5633L29.664 27.768ZM27.7628 38.4667L28.233 38.6368L28.4242 38.108L27.8768 37.9799L27.7628 38.4667ZM27.1446 40.1757L27.0176 40.6593L27.4594 40.7753L27.6148 40.3458L27.1446 40.1757ZM32.6124 44.2949V44.7949H33.1124V44.2949H32.6124ZM27.576 44.2949L27.1058 44.1248L26.8634 44.7949H27.576V44.2949ZM29.6326 38.609V38.109H29.2818L29.1624 38.439L29.6326 38.609ZM32.6124 38.609H33.1124V38.109H32.6124V38.609ZM42.55 43.7949H34.4193V44.7949H42.55V43.7949ZM34.9193 44.2949V40.4159H33.9193V44.2949H34.9193ZM34.4193 40.9159H40.7432V39.9159H34.4193V40.9159ZM40.7432 40.9159C41.5183 40.9159 42.1466 40.2875 42.1466 39.5124H41.1466C41.1466 39.7352 40.966 39.9159 40.7432 39.9159V40.9159ZM42.1466 39.5124C42.1466 38.7374 41.5183 38.109 40.7432 38.109V39.109C40.966 39.109 41.1466 39.2897 41.1466 39.5124H42.1466ZM40.7432 38.109H34.4193V39.109H40.7432V38.109ZM34.9193 38.609V37.7056H33.9193V38.609H34.9193ZM34.9193 37.7056C34.9193 36.9305 34.2909 36.3022 33.5158 36.3022V37.3022C33.7386 37.3022 33.9193 37.4828 33.9193 37.7056H34.9193ZM33.5158 36.3022H28.9987V37.3022H33.5158V36.3022ZM28.9987 36.3022C27.2823 36.3022 25.8851 34.905 25.8851 33.1885H24.8851C24.8851 35.4572 26.73 37.3022 28.9987 37.3022V36.3022ZM25.8851 33.1885C25.8851 31.4721 27.2823 30.0748 28.9987 30.0748V29.0748C26.73 29.0748 24.8851 30.9198 24.8851 33.1885H25.8851ZM28.9987 30.0748H30.4745V29.0748H28.9987V30.0748ZM30.0183 29.7795L31.0826 32.1521L31.995 31.7428L30.9307 29.3702L30.0183 29.7795ZM31.0826 32.1521C31.3993 32.8579 32.2292 33.1758 32.9375 32.8582L32.5283 31.9457C32.3248 32.037 32.0861 31.9457 31.9951 31.7428L31.0826 32.1521ZM32.9376 32.8581L33.7619 32.4883L33.3525 31.5759L32.5283 31.9457L32.9376 32.8581ZM33.101 32.2368L34.2103 34.7096L35.1227 34.3003L34.0134 31.8275L33.101 32.2368ZM34.2104 34.7096C34.5287 35.4193 35.3603 35.7318 36.0652 35.4157L35.656 34.5032C35.4529 34.5943 35.2141 34.5041 35.1227 34.3003L34.2104 34.7096ZM36.0653 35.4157L39.3624 33.9365L38.9531 33.0241L35.656 34.5033L36.0653 35.4157ZM39.3624 33.9365C40.0696 33.6192 40.3857 32.7888 40.0684 32.0816L39.156 32.4909C39.2472 32.6942 39.1564 32.9329 38.9531 33.0241L39.3624 33.9365ZM40.0684 32.0816L38.9591 29.6087L38.0467 30.018L39.156 32.4909L40.0684 32.0816ZM38.7076 30.2696L39.5318 29.8998L39.1225 28.9874L38.2982 29.3572L38.7076 30.2696ZM39.5318 29.8998C40.2391 29.5825 40.5551 28.7521 40.2378 28.0449L39.3254 28.4542C39.4167 28.6575 39.3258 28.8962 39.1225 28.9874L39.5318 29.8998ZM40.2378 28.0449L35.8006 18.1537L34.8882 18.563L39.3255 28.4542L40.2378 28.0449ZM35.8005 18.1537C35.4834 17.4468 34.6528 17.1305 33.9456 17.4476L34.3549 18.3601C34.5581 18.2689 34.7971 18.3599 34.8882 18.563L35.8005 18.1537ZM33.9456 17.4477L33.1213 17.8175L33.5307 18.7299L34.3549 18.3601L33.9456 17.4477ZM33.7822 18.069L32.6729 15.5962L31.7605 16.0055L32.8698 18.4783L33.7822 18.069ZM32.6729 15.5961C32.3556 14.889 31.5253 14.5729 30.818 14.8901L31.2272 15.8026C31.4307 15.7113 31.6693 15.8022 31.7605 16.0055L32.6729 15.5961ZM30.818 14.8901L27.5209 16.3693L27.9302 17.2817L31.2273 15.8025L30.818 14.8901ZM27.5209 16.3693C26.8136 16.6866 26.4976 17.517 26.8148 18.2242L27.7272 17.8149C27.636 17.6116 27.7269 17.3729 27.9302 17.2817L27.5209 16.3693ZM26.8148 18.2242L27.9242 20.6971L28.8366 20.2877L27.7272 17.8149L26.8148 18.2242ZM28.1757 20.0362L27.3514 20.406L27.7608 21.3184L28.585 20.9486L28.1757 20.0362ZM27.3514 20.406C26.6442 20.7233 26.3282 21.5537 26.6454 22.2609L27.5578 21.8516C27.4666 21.6483 27.5575 21.4096 27.7607 21.3184L27.3514 20.406ZM26.6454 22.2609L27.6083 24.4072L28.5207 23.9979L27.5578 21.8516L26.6454 22.2609ZM28.0131 23.7052C23.217 24.2002 19.4646 28.2634 19.4646 33.1886H20.4646C20.4646 28.7817 23.8237 25.1429 28.1158 24.6999L28.0131 23.7052ZM19.4646 33.1886C19.4646 35.4623 20.281 37.6652 21.7633 39.392L22.5221 38.7407C21.1952 37.1949 20.4646 35.2231 20.4646 33.1886H19.4646ZM21.7633 39.392C22.989 40.82 24.6042 41.8499 26.3915 42.3596L26.6658 41.3979C25.0667 40.9419 23.6201 40.0198 22.5221 38.7407L21.7633 39.392ZM26.0585 41.7087L25.1845 44.125L26.1248 44.4651L26.9988 42.0488L26.0585 41.7087ZM25.6546 43.795H22.6749V44.795H25.6546V43.795ZM22.6749 43.795C21.8998 43.795 21.2714 44.4234 21.2714 45.1984H22.2714C22.2714 44.9757 22.4521 44.795 22.6749 44.795V43.795ZM21.2714 45.1984C21.2714 45.9735 21.8998 46.6019 22.6749 46.6019V45.6019C22.4521 45.6019 22.2714 45.4212 22.2714 45.1984H21.2714ZM22.6749 46.6019H42.5501V45.6019H22.6749V46.6019ZM42.5501 46.6019C43.3252 46.6019 43.9535 45.9735 43.9535 45.1984H42.9535C42.9535 45.4212 42.7729 45.6019 42.5501 45.6019V46.6019ZM43.9535 45.1984C43.9535 44.4234 43.3251 43.7949 42.55 43.7949V44.7949C42.7728 44.7949 42.9535 44.9756 42.9535 45.1984H43.9535ZM36.4016 32.7365L35.662 31.0879L34.7496 31.4972L35.4892 33.1458L36.4016 32.7365ZM35.4105 31.7488L37.059 31.0093L36.6497 30.0969L35.0012 30.8364L35.4105 31.7488ZM36.3982 30.7577L37.1377 32.4063L38.0501 31.997L37.3106 30.3484L36.3982 30.7577ZM37.3893 31.7454L35.7407 32.485L36.15 33.3974L37.7986 32.6578L37.3893 31.7454ZM30.4817 17.5693L31.2212 19.2178L32.1336 18.8085L31.3941 17.16L30.4817 17.5693ZM31.4728 18.557L29.8243 19.2965L30.2336 20.2089L31.8821 19.4694L31.4728 18.557ZM30.4851 19.5481L29.7456 17.8995L28.8332 18.3088L29.5727 19.9574L30.4851 19.5481ZM29.4941 18.5604L31.1426 17.8208L30.7332 16.9084L29.0847 17.648L29.4941 18.5604ZM33.6094 20.1268L37.3072 28.3695L38.2195 27.9602L34.5218 19.7175L33.6094 20.1268ZM37.5587 27.7087L36.7345 28.0785L37.1438 28.9909L37.968 28.6211L37.5587 27.7087ZM36.9391 28.0347H36.9391V29.0347H36.9391V28.0347ZM36.9391 28.5347C36.9391 29.0347 36.9391 29.0347 36.9391 29.0347C36.9391 29.0347 36.9391 29.0347 36.9391 29.0347C36.9391 29.0347 36.9391 29.0347 36.9391 29.0347C36.9391 29.0347 36.9391 29.0347 36.9391 29.0347C36.9391 29.0347 36.9391 29.0347 36.9391 29.0347C36.9391 29.0347 36.9391 29.0347 36.9391 29.0347C36.9391 29.0347 36.9391 29.0347 36.9391 29.0347C36.9391 29.0347 36.9391 29.0347 36.9391 29.0347C36.9391 29.0347 36.9391 29.0347 36.9391 29.0347C36.9391 29.0347 36.9391 29.0347 36.9391 29.0347C36.9391 29.0347 36.9391 29.0347 36.9391 29.0347C36.9391 29.0347 36.9391 29.0347 36.9391 29.0347C36.9391 29.0347 36.9391 29.0347 36.9391 29.0347C36.9391 29.0347 36.9391 29.0347 36.9391 29.0347C36.9391 29.0347 36.9391 29.0347 36.9391 29.0347C36.9391 29.0347 36.9391 29.0347 36.9391 29.0347C36.9391 29.0347 36.9391 29.0347 36.9391 29.0347C36.9391 29.0347 36.9391 29.0347 36.9391 29.0347C36.9391 29.0347 36.9391 29.0347 36.9391 29.0347C36.9391 29.0347 36.9391 29.0347 36.9391 29.0347C36.9391 29.0347 36.9391 29.0347 36.9391 29.0347C36.9391 29.0347 36.9391 29.0347 36.9391 29.0347C36.9391 29.0347 36.9391 28.5347 36.9391 28.0347C36.9391 28.0347 36.9391 28.0347 36.9391 28.0347C36.9391 28.0347 36.9391 28.0347 36.9391 28.0347C36.9391 28.0347 36.9391 28.0347 36.9391 28.0347C36.9391 28.0347 36.9391 28.0347 36.9391 28.0347C36.9391 28.0347 36.9391 28.0347 36.9391 28.0347C36.9391 28.0347 36.9391 28.0347 36.9391 28.0347C36.9391 28.0347 36.9391 28.0347 36.9391 28.0347C36.9391 28.0347 36.9391 28.0347 36.9391 28.0347C36.9391 28.0347 36.9391 28.0347 36.9391 28.0347C36.9391 28.0347 36.9391 28.0347 36.9391 28.0347C36.9391 28.0347 36.9391 28.0347 36.9391 28.0347C36.9391 28.0347 36.9391 28.0347 36.9391 28.0347C36.9391 28.0347 36.9391 28.0347 36.9391 28.0347C36.9391 28.0347 36.9391 28.0347 36.9391 28.0347C36.9391 28.0347 36.9391 28.0347 36.9391 28.0347C36.9391 28.0347 36.9391 28.0347 36.9391 28.0347C36.9391 28.0347 36.9391 28.0347 36.9391 28.0347C36.9391 28.0347 36.9391 28.0347 36.9391 28.0347C36.9391 28.0347 36.9391 28.0347 36.9391 28.0347C36.9391 28.0347 36.9391 28.0347 36.9391 28.0347C36.9391 28.0347 36.9391 28.0347 36.9391 28.0347C36.9391 28.0347 36.9391 28.0347 36.9391 28.0347C36.9391 28.0347 36.9391 28.0347 36.9391 28.0347C36.9391 28.0347 36.9391 28.0347 36.9391 28.0347C36.9391 28.0347 36.9391 28.0347 36.9391 28.0347C36.9391 28.0347 36.9391 28.0347 36.9391 28.0347C36.9391 28.0347 36.9391 28.0347 36.9391 28.0347C36.9391 28.0347 36.9391 28.0347 36.9391 28.0347C36.9391 28.0347 36.9391 28.0347 36.9391 28.0347C36.9391 28.0347 36.9391 28.0347 36.9391 28.0347C36.9391 28.0347 36.9391 28.0347 36.9391 28.0347C36.9391 28.0347 36.9391 28.0347 36.9391 28.0347C36.9391 28.0347 36.9391 28.0347 36.9391 28.0347C36.9391 28.0347 36.9391 28.0347 36.9391 28.0347C36.9391 28.0347 36.9391 28.0347 36.9391 28.0347C36.9391 28.0347 36.9391 28.0347 36.9391 28.0347C36.9391 28.0347 36.9391 28.0347 36.9391 28.0347C36.9391 28.0347 36.9391 28.0347 36.9391 28.0347C36.9391 28.0347 36.9391 28.0347 36.9391 28.0347C36.9391 28.0347 36.9391 28.0347 36.9391 28.0347C36.9391 28.0347 36.9391 28.0347 36.9391 28.0347C36.9391 28.0347 36.9391 28.0347 36.9391 28.0347C36.9391 28.0347 36.9391 28.0347 36.9391 28.0347C36.9391 28.0347 36.9391 28.0347 36.9391 28.0347C36.9391 28.0347 36.9391 28.0347 36.9391 28.0347C36.9391 28.0347 36.9391 28.0347 36.9391 28.0347C36.9391 28.0347 36.9391 28.0347 36.9391 28.0347C36.9391 28.0347 36.9391 28.0347 36.9391 28.0347C36.9391 28.0347 36.9391 28.0347 36.9391 28.0347C36.9391 28.0347 36.9391 28.0347 36.9391 28.0347C36.9391 28.0347 36.9391 28.0347 36.9391 28.0347C36.9391 28.0347 36.9391 28.0347 36.9391 28.0347C36.9391 28.0347 36.9391 28.0347 36.9391 28.0347C36.9391 28.0347 36.9391 28.0347 36.9391 28.0347C36.9391 28.0347 36.9391 28.0347 36.9391 28.0347C36.9391 28.0347 36.9391 28.0347 36.9391 28.0347C36.9391 28.0347 36.9391 28.0347 36.9391 28.0347C36.9391 28.0347 36.9391 28.0347 36.9391 28.0347C36.9391 28.0347 36.9391 28.0347 36.9391 28.0347C36.9391 28.0347 36.9391 28.0347 36.9391 28.0347C36.9391 28.0347 36.9391 28.0347 36.9391 28.0347C36.9391 28.0347 36.9391 28.0347 36.9391 28.0347C36.9391 28.0347 36.9391 28.0347 36.9391 28.0347C36.9391 28.0347 36.9391 28.0347 36.9391 28.0347C36.9391 28.0347 36.9391 28.0347 36.9391 28.0347C36.9391 28.0347 36.9391 28.0347 36.9391 28.0347C36.9391 28.0347 36.9391 28.0347 36.9391 28.0347C36.9391 28.0347 36.9391 28.0347 36.9391 28.0347C36.9391 28.0347 36.9391 28.0347 36.9391 28.0347C36.9391 28.0347 36.9391 28.0347 36.9391 28.0347C36.9391 28.0347 36.9391 28.0347 36.9391 28.0347C36.9391 28.0347 36.9391 28.0347 36.9391 28.0347C36.9391 28.0347 36.9391 28.0347 36.9391 28.0347C36.9391 28.0347 36.9391 28.0347 36.9391 28.0347C36.9391 28.0347 36.9391 28.0347 36.9391 28.0347C36.9391 28.0347 36.9391 28.0347 36.9391 28.0347C36.9391 28.0347 36.9391 28.0347 36.9391 28.0347C36.9391 28.0347 36.9391 28.0347 36.9391 28.0347C36.9391 28.0347 36.9391 28.0347 36.9391 28.0347C36.9391 28.0347 36.9391 28.0347 36.9391 28.0347C36.9391 28.0347 36.9391 28.0347 36.9391 28.0347C36.9391 28.0347 36.9391 28.0347 36.9391 28.0347C36.9391 28.0347 36.9391 28.0347 36.9391 28.0347C36.9391 28.0347 36.9391 28.0347 36.9391 28.0347C36.9391 28.0347 36.9391 28.0347 36.9391 28.0347C36.9391 28.0347 36.9391 28.0347 36.9391 28.0347C36.9391 28.0347 36.9391 28.0347 36.9391 28.0347C36.9391 28.0347 36.9391 28.0347 36.9391 28.0347C36.9391 28.0347 36.9391 28.0347 36.9391 28.0347C36.9391 28.0347 36.9391 28.0347 36.9391 28.0347C36.9391 28.0347 36.9391 28.0347 36.9391 28.0347C36.9391 28.0347 36.9391 28.0347 36.9391 28.0347C36.9391 28.0347 36.9391 28.0347 36.9391 28.0347C36.9391 28.0347 36.9391 28.0347 36.9391 28.0347C36.9391 28.0347 36.9391 28.0347 36.9391 28.0347C36.9391 28.0347 36.9391 28.0347 36.9391 28.0347C36.9391 28.0347 36.9391 28.0347 36.9391 28.0347C36.9391 28.0347 36.9391 28.0347 36.9391 28.0347C36.9391 28.0347 36.9391 28.0347 36.9391 28.0347C36.9391 28.0347 36.9391 28.0347 36.9391 28.0347C36.9391 28.0347 36.9391 28.0347 36.9391 28.0347C36.9391 28.0347 36.9391 28.0347 36.9391 28.0347C36.9391 28.0347 36.9391 28.0347 36.9391 28.0347C36.9391 28.0347 36.9391 28.0347 36.9391 28.0347C36.9391 28.0347 36.9391 28.0347 36.9391 28.0347C36.9391 28.0347 36.9391 28.0347 36.9391 28.0347C36.9391 28.0347 36.9391 28.0347 36.9391 28.0347C36.9391 28.0347 36.9391 28.0347 36.9391 28.0347C36.9391 28.0347 36.9391 28.0347 36.9391 28.0347C36.9391 28.0347 36.9391 28.0347 36.9391 28.0347C36.9391 28.0347 36.9391 28.0347 36.9391 28.0347C36.9391 28.0347 36.9391 28.0347 36.9391 28.0347C36.9391 28.0347 36.9391 28.0347 36.9391 28.0347C36.9391 28.0347 36.9391 28.0347 36.9391 28.0347C36.9391 28.0347 36.9391 28.0347 36.9391 28.0347C36.9391 28.0347 36.9391 28.0347 36.9391 28.0347C36.9391 28.0347 36.9391 28.0347 36.9391 28.0347C36.9391 28.0347 36.9391 28.0347 36.9391 28.0347C36.9391 28.0347 36.9391 28.0347 36.9391 28.0347C36.9391 28.0347 36.9391 28.0347 36.9391 28.0347C36.9391 28.0347 36.9391 28.0347 36.9391 28.0347C36.9391 28.0347 36.9391 28.0347 36.9391 28.0347C36.9391 28.0347 36.9391 28.0347 36.9391 28.0347C36.9391 28.0347 36.9391 28.0347 36.9391 28.0347C36.9391 28.0347 36.9391 28.0347 36.9391 28.0347C36.9391 28.0347 36.9391 28.0347 36.9391 28.0347C36.9391 28.0347 36.9391 28.0347 36.9391 28.0347C36.9391 28.0347 36.9391 28.0347 36.9391 28.0347C36.9391 28.0347 36.9391 28.0347 36.9391 28.0347C36.9391 28.0347 36.9391 28.0347 36.9391 28.0347C36.9391 28.0347 36.9391 28.0347 36.9391 28.0347C36.9391 28.0347 36.9391 28.0347 36.9391 28.0347C36.9391 28.0347 36.9391 28.0347 36.9391 28.0347C36.9391 28.0347 36.9391 28.0347 36.9391 28.0347C36.9391 28.0347 36.9391 28.0347 36.9391 28.0347C36.9391 28.0347 36.9391 28.0347 36.9391 28.0347C36.9391 28.0347 36.9391 28.0347 36.9391 28.0347C36.9391 28.0347 36.9391 28.0347 36.9391 28.0347C36.9391 28.0347 36.9391 28.0347 36.9391 28.0347C36.9391 28.0347 36.9391 28.0347 36.9391 28.0347C36.9391 28.0347 36.9391 28.0347 36.9391 28.0347C36.9391 28.0347 36.9391 28.0347 36.9391 28.0347C36.9391 28.0347 36.9391 28.0347 36.9391 28.0347C36.9391 28.0347 36.9391 28.0347 36.9391 28.0347C36.9391 28.0347 36.9391 28.0347 36.9391 28.0347C36.9391 28.0347 36.9391 28.0347 36.9391 28.0347C36.9391 28.0347 36.9391 28.0347 36.9391 28.0347C36.9391 28.0347 36.9391 28.0347 36.9391 28.0347C36.9391 28.0347 36.9391 28.0347 36.9391 28.0347C36.9391 28.0347 36.9391 28.0347 36.9391 28.0347C36.9391 28.0347 36.9391 28.0347 36.9391 28.0347C36.9391 28.0347 36.9391 28.0347 36.9391 28.0347C36.9391 28.0347 36.9391 28.0347 36.9391 28.0347C36.9391 28.0347 36.9391 28.0347 36.9391 28.0347C36.9391 28.0347 36.9391 28.0347 36.9391 28.0347C36.9391 28.0347 36.9391 28.0347 36.9391 28.0347C36.9391 28.0347 36.9391 28.0347 36.9391 28.0347C36.9391 28.0347 36.9391 28.0347 36.9391 28.0347C36.9391 28.0347 36.9391 28.0347 36.9391 28.0347C36.9391 28.0347 36.9391 28.0347 36.9391 28.0347C36.9391 28.0347 36.9391 28.0347 36.9391 28.0347C36.9391 28.0347 36.9391 28.0347 36.9391 28.0347C36.9391 28.0347 36.9391 28.0347 36.9391 28.0347C36.9391 28.0347 36.9391 28.0347 36.9391 28.0347C36.9391 28.0347 36.9391 28.0347 36.9391 28.0347C36.9391 28.0347 36.9391 28.0347 36.9391 28.0347C36.9391 28.0347 36.9391 28.0347 36.9391 28.0347C36.9391 28.0347 36.9391 28.0347 36.9391 28.0347C36.9391 28.0347 36.9391 28.0347 36.9391 28.0347C36.9391 28.0347 36.9391 28.0347 36.9391 28.0347C36.9391 28.0347 36.9391 28.0347 36.9391 28.0347C36.9391 28.0347 36.9391 28.0347 36.9391 28.0347C36.9391 28.0347 36.9391 28.0347 36.9391 28.0347C36.9391 28.0347 36.9391 28.0347 36.9391 28.0347C36.9391 28.0347 36.9391 28.0347 36.9391 28.0347C36.9391 28.0347 36.9391 28.0347 36.9391 28.0347C36.9391 28.0347 36.9391 28.0347 36.9391 28.0347C36.9391 28.0347 36.9391 28.0347 36.9391 28.0347C36.9391 28.0347 36.9391 28.0347 36.9391 28.0347C36.9391 28.0347 36.9391 28.0347 36.9391 28.0347C36.9391 28.0347 36.9391 28.0347 36.9391 28.0347C36.9391 28.0347 36.9391 28.0347 36.9391 28.0347C36.9391 28.0347 36.9391 28.0347 36.9391 28.0347C36.9391 28.0347 36.9391 28.0347 36.9391 28.0347C36.9391 28.0347 36.9391 28.0347 36.9391 28.0347C36.9391 28.0347 36.9391 28.0347 36.9391 28.0347C36.9391 28.0347 36.9391 28.0347 36.9391 28.0347C36.9391 28.0347 36.9391 28.0347 36.9391 28.0347C36.9391 28.0347 36.9391 28.0347 36.9391 28.0347C36.9391 28.0347 36.9391 28.0347 36.9391 28.0347C36.9391 28.0347 36.9391 28.0347 36.9391 28.0347C36.9391 28.0347 36.9391 28.0347 36.9391 28.0347C36.9391 28.0347 36.9391 28.0347 36.9391 28.0347C36.9391 28.0347 36.9391 28.0347 36.9391 28.0347C36.9391 28.0347 36.9391 28.0347 36.9391 28.0347C36.9391 28.0347 36.9391 28.0347 36.9391 28.0347C36.9391 28.0347 36.9391 28.0347 36.9391 28.0347C36.9391 28.0347 36.9391 28.0347 36.9391 28.0347C36.9391 28.0347 36.9391 28.0347 36.9391 28.0347C36.9391 28.0347 36.9391 28.0347 36.9391 28.0347C36.9391 28.0347 36.9391 28.0347 36.9391 28.0347C36.9391 28.0347 36.9391 28.0347 36.9391 28.0347C36.9391 28.0347 36.9391 28.0347 36.9391 28.0347C36.9391 28.0347 36.9391 28.0347 36.9391 28.0347C36.9391 28.0347 36.9391 28.0347 36.9391 28.0347C36.9391 28.0347 36.9391 28.0347 36.9391 28.0347C36.9391 28.0347 36.9391 28.0347 36.9391 28.0347C36.9391 28.0347 36.9391 28.0347 36.9391 28.0347C36.9391 28.0347 36.9391 28.0347 36.9391 28.0347C36.9391 28.0347 36.9391 28.0347 36.9391 28.0347C36.9391 28.0347 36.9391 28.0347 36.9391 28.0347C36.9391 28.0347 36.9391 28.0347 36.9391 28.0347C36.9391 28.0347 36.9391 28.0347 36.9391 28.0347C36.9391 28.0347 36.9391 28.0347 36.9391 28.0347C36.9391 28.0347 36.9391 28.0347 36.9391 28.0347C36.9391 28.0347 36.9391 28.0347 36.9391 28.0347C36.9391 28.0347 36.9391 28.0347 36.9391 28.0347C36.9391 28.0347 36.9391 28.0347 36.9391 28.0347C36.9391 28.0347 36.9391 28.0347 36.9391 28.0347C36.9391 28.0347 36.9391 28.0347 36.9391 28.0347C36.9391 28.0347 36.9391 28.0347 36.9391 28.0347C36.9391 28.0347 36.9391 28.0347 36.9391 28.0347C36.9391 28.0347 36.9391 28.0347 36.9391 28.0347C36.9391 28.0347 36.9391 28.0347 36.9391 28.0347C36.9391 28.0347 36.9391 28.0347 36.9391 28.0347C36.9391 28.0347 36.9391 28.0347 36.9391 28.0347C36.9391 28.0347 36.9391 28.0347 36.9391 28.0347C36.9391 28.0347 36.9391 28.0347 36.9391 28.0347C36.9391 28.0347 36.9391 28.0347 36.9391 28.0347C36.9391 28.0347 36.9391 28.0347 36.9391 28.0347C36.9391 28.0347 36.9391 28.0347 36.9391 28.0347C36.9391 28.0347 36.9391 28.0347 36.9391 28.0347C36.9391 28.0347 36.9391 28.0347 36.9391 28.0347C36.9391 28.0347 36.9391 28.0347 36.9391 28.0347C36.9391 28.0347 36.9391 28.0347 36.9391 28.0347C36.9391 28.0347 36.9391 28.0347 36.9391 28.0347C36.9391 28.0347 36.9391 28.0347 36.9391 28.0347C36.9391 28.0347 36.9391 28.0347 36.9391 28.0347C36.9391 28.0347 36.9391 28.0347 36.9391 28.0347C36.9391 28.0347 36.9391 28.0347 36.9391 28.0347C36.9391 28.0347 36.9391 28.0347 36.9391 28.0347C36.9391 28.0347 36.9391 28.0347 36.9391 28.0347C36.9391 28.0347 36.9391 28.0347 36.9391 28.0347C36.9391 28.0347 36.9391 28.0347 36.9391 28.0347C36.9391 28.0347 36.9391 28.0347 36.9391 28.0347C36.9391 28.0347 36.9391 28.0347 36.9391 28.0347C36.9391 28.0347 36.9391 28.0347 36.9391 28.0347C36.9391 28.0347 36.9391 28.0347 36.9391 28.0347C36.9391 28.0347 36.9391 28.0347 36.9391 28.0347C36.9391 28.0347 36.9391 28.0347 36.9391 28.0347C36.9391 28.0347 36.9391 28.0347 36.9391 28.0347C36.9391 28.0347 36.9391 28.0347 36.9391 28.0347C36.9391 28.0347 36.9391 28.0347 36.9391 28.0347C36.9391 28.0347 36.9391 28.0347 36.9391 28.0347C36.9391 28.0347 36.9391 28.0347 36.9391 28.0347C36.9391 28.0347 36.9391 28.0347 36.9391 28.0347C36.9391 28.0347 36.9391 28.0347 36.9391 28.0347C36.9391 28.0347 36.9391 28.0347 36.9391 28.0347C36.9391 28.0347 36.9391 28.0347 36.9391 28.0347C36.9391 28.0347 36.9391 28.0347 36.9391 28.0347C36.9391 28.0347 36.9391 28.0347 36.9391 28.0347C36.9391 28.0347 36.9391 28.0347 36.9391 28.0347C36.9391 28.0347 36.9391 28.0347 36.9391 28.0347C36.9391 28.0347 36.9391 28.0347 36.9391 28.0347C36.9391 28.0347 36.9391 28.0347 36.9391 28.0347C36.9391 28.0347 36.9391 28.0347 36.9391 28.0347C36.9391 28.0347 36.9391 28.0347 36.9391 28.0347C36.9391 28.0347 36.9391 28.0347 36.9391 28.0347C36.9391 28.0347 36.9391 28.0347 36.9391 28.0347C36.9391 28.0347 36.9391 28.0347 36.9391 28.0347C36.9391 28.0347 36.9391 28.0347 36.9391 28.0347C36.9391 28.0347 36.9391 28.0347 36.9391 28.0347C36.9391 28.0347 36.9391 28.0347 36.9391 28.0347C36.9391 28.0347 36.9391 28.0347 36.9391 28.0347C36.9391 28.0347 36.9391 28.0347 36.9391 28.0347C36.9391 28.0347 36.9391 28.0347 36.9391 28.0347C36.9391 28.0347 36.9391 28.0347 36.9391 28.0347C36.9391 28.0347 36.9391 28.0347 36.9391 28.0347C36.9391 28.0347 36.9391 28.0347 36.9391 28.0347C36.9391 28.0347 36.9391 28.0347 36.9391 28.0347C36.9391 28.0347 36.9391 28.0347 36.9391 28.0347C36.9391 28.0347 36.9391 28.0347 36.9391 28.0347C36.9391 28.0347 36.9391 28.0347 36.9391 28.0347C36.9391 28.0347 36.9391 28.0347 36.9391 28.0347C36.9391 28.0347 36.9391 28.0347 36.9391 28.0347C36.9391 28.0347 36.9391 28.0347 36.9391 28.0347C36.9391 28.0347 36.9391 28.0347 36.9391 28.0347C36.9391 28.0347 36.9391 28.0347 36.9391 28.0347C36.9391 28.0347 36.9391 28.0347 36.9391 28.0347C36.9391 28.0347 36.9391 28.0347 36.9391 28.0347C36.9391 28.0347 36.9391 28.0347 36.9391 28.0347C36.9391 28.0347 36.9391 28.0347 36.9391 28.0347C36.9391 28.0347 36.9391 28.0347 36.9391 28.0347C36.9391 28.0347 36.9391 28.0347 36.9391 28.0347C36.9391 28.0347 36.9391 28.0347 36.9391 28.0347C36.9391 28.0347 36.9391 28.0347 36.9391 28.0347C36.9391 28.0347 36.9391 28.0347 36.9391 28.0347C36.9391 28.0347 36.9391 28.0347 36.9391 28.0347C36.9391 28.0347 36.9391 28.0347 36.9391 28.0347C36.9391 28.0347 36.9391 28.0347 36.9391 28.0347C36.9391 28.0347 36.9391 28.0347 36.9391 28.0347C36.9391 28.0347 36.9391 28.0347 36.9391 28.0347C36.9391 28.0347 36.9391 28.0347 36.9391 28.0347C36.9391 28.0347 36.9391 28.0347 36.9391 28.0347C36.9391 28.0347 36.9391 28.0347 36.9391 28.0347C36.9391 28.0347 36.9391 28.0347 36.9391 28.0347C36.9391 28.0347 36.9391 28.0347 36.9391 28.0347C36.9391 28.0347 36.9391 28.0347 36.9391 28.0347C36.9391 28.0347 36.9391 28.0347 36.9391 28.0347C36.9391 28.0347 36.9391 28.0347 36.9391 28.0347C36.9391 28.0347 36.9391 28.0347 36.9391 28.0347C36.9391 28.0347 36.9391 28.0347 36.9391 28.0347C36.9391 28.0347 36.9391 28.0347 36.9391 28.0347C36.9391 28.0347 36.9391 28.0347 36.9391 28.0347C36.9391 28.0347 36.9391 28.0347 36.9391 28.0347C36.9391 28.0347 36.9391 28.0347 36.9391 28.0347C36.9391 28.0347 36.9391 28.0347 36.9391 28.0347C36.9391 28.0347 36.9391 28.0347 36.9391 28.0347C36.9391 28.0347 36.9391 28.0347 36.9391 28.0347C36.9391 28.0347 36.9391 28.0347 36.9391 28.0347C36.9391 28.0347 36.9391 28.0347 36.9391 28.0347C36.9391 28.0347 36.9391 28.0347 36.9391 28.0347C36.9391 28.0347 36.9391 28.0347 36.9391 28.0347C36.9391 28.0347 36.9391 28.0347 36.9391 28.0347C36.9391 28.0347 36.9391 28.0347 36.9391 28.0347C36.939 28.0347 36.939 28.0347 36.939 28.0347C36.939 28.0347 36.939 28.0347 36.939 28.0347C36.939 28.0347 36.939 28.0347 36.939 28.0347C36.939 28.0347 36.939 28.0347 36.939 28.0347C36.939 28.0347 36.939 28.0347 36.939 28.0347C36.939 28.0347 36.939 28.0347 36.939 28.0347C36.939 28.0347 36.939 28.0347 36.939 28.0347C36.939 28.0347 36.939 28.0347 36.939 28.0347C36.939 28.0347 36.939 28.0347 36.939 28.0347C36.939 28.0347 36.939 28.0347 36.939 28.0347C36.939 28.0347 36.939 28.0347 36.939 28.0347C36.939 28.0347 36.939 28.0347 36.939 28.0347C36.939 28.0347 36.939 28.0347 36.939 28.0347C36.939 28.0347 36.939 28.0347 36.939 28.0347C36.939 28.0347 36.939 28.0347 36.939 28.0347C36.939 28.0347 36.939 28.0347 36.939 28.0347C36.939 28.0347 36.939 28.0347 36.939 28.0347C36.939 28.0347 36.939 28.0347 36.939 28.0347C36.939 28.0347 36.939 28.0347 36.939 28.0347C36.939 28.0347 36.939 28.0347 36.939 28.0347C36.939 28.0347 36.939 28.0347 36.939 28.0347C36.939 28.0347 36.939 28.0347 36.939 28.0347C36.939 28.0347 36.939 28.0347 36.939 28.0347C36.939 28.0347 36.939 28.0347 36.939 28.0347C36.939 28.0347 36.939 28.0347 36.939 28.0347C36.939 28.0347 36.939 28.0347 36.939 28.0347C36.939 28.0347 36.939 28.0347 36.939 28.0347C36.939 28.0347 36.939 28.0347 36.939 28.0347C36.939 28.0347 36.939 28.0347 36.939 28.0347C36.939 28.0347 36.939 28.0347 36.939 28.0347C36.939 28.0347 36.939 28.0347 36.939 28.0347C36.939 28.0347 36.939 28.0347 36.939 28.0347C36.939 28.0347 36.939 28.0347 36.939 28.0347C36.939 28.0347 36.939 28.0347 36.939 28.0347C36.939 28.0347 36.939 28.0347 36.939 28.0347C36.939 28.0347 36.939 28.0347 36.939 28.0347C36.939 28.0347 36.939 28.0347 36.939 28.0347C36.939 28.0347 36.939 28.0347 36.939 28.0347C36.939 28.0347 36.939 28.0347 36.939 28.0347C36.939 28.0347 36.939 28.0347 36.939 28.0347C36.939 28.0347 36.939 28.0347 36.939 28.0347C36.939 28.0347 36.939 28.0347 36.939 28.0347C36.939 28.0347 36.939 28.0347 36.939 28.0347C36.939 28.0347 36.939 28.0347 36.939 28.0347C36.939 28.0347 36.939 28.0347 36.939 28.0347C36.939 28.0347 36.939 28.0347 36.939 28.0347C36.939 28.0347 36.939 28.0347 36.939 28.0347C36.939 28.0347 36.939 28.0347 36.939 28.0347C36.939 28.0347 36.939 28.0347 36.939 28.0347C36.939 28.0347 36.939 28.0347 36.939 28.0347C36.939 28.0347 36.939 28.0347 36.939 28.0347C36.939 28.0347 36.939 28.0347 36.939 28.0347C36.939 28.0347 36.939 28.0347 36.939 28.0347C36.939 28.0347 36.939 28.0347 36.939 28.0347C36.939 28.0347 36.939 28.0347 36.939 28.0347C36.939 28.0347 36.939 28.0347 36.939 28.0347C36.939 28.0347 36.939 28.0347 36.939 28.0347C36.939 28.0347 36.939 28.0347 36.939 28.0347C36.939 28.0347 36.939 28.0347 36.939 28.0347C36.939 28.0347 36.939 28.0347 36.939 28.0347C36.939 28.0347 36.939 28.0347 36.939 28.0347C36.939 28.0347 36.939 28.0347 36.939 28.0347C36.939 28.0347 36.939 28.0347 36.939 28.0347C36.939 28.0347 36.939 28.0347 36.939 28.0347C36.939 28.0347 36.939 28.0347 36.939 28.0347C36.939 28.0347 36.939 28.0347 36.939 28.0347C36.939 28.0347 36.939 28.0347 36.939 28.0347C36.939 28.0347 36.939 28.0347 36.939 28.0347C36.939 28.0347 36.939 28.0347 36.939 28.0347C36.939 28.0347 36.939 28.0347 36.939 28.0347C36.939 28.0347 36.939 28.0347 36.939 28.0347C36.939 28.0347 36.939 28.0347 36.939 28.0347C36.939 28.0347 36.939 28.0347 36.939 28.0347C36.939 28.0347 36.939 28.0347 36.939 28.0347C36.939 28.0347 36.939 28.0347 36.939 28.0347C36.939 28.0347 36.939 28.0347 36.939 28.0347C36.939 28.0347 36.939 28.0347 36.939 28.0347C36.939 28.0347 36.939 28.0347 36.939 28.0347C36.939 28.0347 36.939 28.0347 36.939 28.0347C36.939 28.0347 36.939 28.0347 36.939 28.0347C36.939 28.0347 36.939 28.0347 36.939 28.0347C36.939 28.0347 36.939 28.0347 36.939 28.0347C36.939 28.0347 36.939 28.0347 36.939 28.0347C36.939 28.0347 36.939 28.0347 36.939 28.0347C36.939 28.0347 36.939 28.0347 36.939 28.0347C36.939 28.0347 36.939 28.0347 36.939 28.0347C36.939 28.0347 36.939 28.0347 36.939 28.0347C36.939 28.0347 36.939 28.0347 36.939 28.0347C36.939 28.0347 36.939 28.0347 36.939 28.0347C36.939 28.0347 36.939 28.0347 36.939 28.0347C36.939 28.0347 36.939 28.0347 36.939 28.0347C36.939 28.0347 36.939 28.0347 36.939 28.0347C36.939 28.0347 36.939 28.0347 36.939 28.0347C36.939 28.0347 36.939 28.0347 36.939 28.0347C36.939 28.0347 36.939 28.0347 36.939 28.0347C36.939 28.0347 36.939 28.0347 36.939 28.0347C36.939 28.0347 36.939 28.0347 36.939 28.0347C36.939 28.0347 36.939 28.0347 36.939 28.0347C36.939 28.0347 36.939 28.0347 36.939 28.0347C36.939 28.0347 36.939 28.0347 36.939 28.0347C36.939 28.0347 36.939 28.0347 36.939 28.0347C36.939 28.0347 36.939 28.0347 36.939 28.0347C36.939 28.0347 36.939 28.0347 36.939 28.0347C36.939 28.0347 36.939 28.0347 36.939 28.0347C36.939 28.0347 36.939 28.0347 36.939 28.0347C36.939 28.0347 36.939 28.0347 36.939 28.0347C36.939 28.0347 36.939 28.0347 36.939 28.0347C36.939 28.0347 36.939 28.0347 36.939 28.0347C36.939 28.0347 36.939 28.0347 36.939 28.0347C36.939 28.0347 36.939 28.0347 36.939 28.0347C36.939 28.0347 36.939 28.0347 36.939 28.0347C36.939 28.0347 36.939 28.0347 36.939 28.0347C36.939 28.0347 36.939 28.0347 36.939 28.0347C36.939 28.0347 36.939 28.0347 36.939 28.0347C36.939 28.0347 36.939 28.0347 36.939 28.0347C36.939 28.0347 36.939 28.0347 36.939 28.0347C36.939 28.0347 36.939 28.0347 36.939 28.0347C36.939 28.0347 36.939 28.0347 36.939 28.0347C36.939 28.0347 36.939 28.0347 36.939 28.0347C36.939 28.0347 36.939 28.0347 36.939 28.0347C36.939 28.0347 36.939 28.0347 36.939 28.0347C36.939 28.0347 36.939 28.0347 36.939 28.0347C36.939 28.0347 36.939 28.0347 36.939 28.0347C36.939 28.0347 36.939 28.0347 36.939 28.0347C36.939 28.0347 36.939 28.0347 36.939 28.0347C36.939 28.0347 36.939 28.0347 36.939 28.0347C36.939 28.0347 36.939 28.0347 36.939 28.0347C36.939 28.0347 36.939 28.0347 36.939 28.0347C36.939 28.0347 36.939 28.0347 36.939 28.0347C36.939 28.0347 36.939 28.0347 36.939 28.0347C36.939 28.0347 36.939 28.0347 36.939 28.0347C36.939 28.0347 36.939 28.0347 36.939 28.0347C36.939 28.0347 36.939 28.0347 36.939 28.0347C36.939 28.0347 36.939 28.0347 36.939 28.0347C36.939 28.0347 36.939 28.0347 36.939 28.0347C36.939 28.0347 36.939 28.0347 36.939 28.0347C36.939 28.0347 36.939 28.0347 36.939 28.0347C36.939 28.0347 36.939 28.0347 36.939 28.0347C36.939 28.0347 36.939 28.0347 36.939 28.0347C36.939 28.0347 36.939 28.0347 36.939 28.0347C36.939 28.0347 36.939 28.0347 36.939 28.0347C36.939 28.0347 36.939 28.0347 36.939 28.0347C36.939 28.0347 36.939 28.0347 36.939 28.0347C36.939 28.0347 36.939 28.0347 36.939 28.0347C36.939 28.0347 36.939 28.0347 36.939 28.0347C36.939 28.0347 36.939 28.0347 36.939 28.0347C36.939 28.0347 36.939 28.0347 36.939 28.0347C36.939 28.0347 36.939 28.0347 36.939 28.0347C36.939 28.0347 36.939 28.0347 36.939 28.0347C36.939 28.0347 36.939 28.0347 36.939 28.0347C36.939 28.0347 36.939 28.0347 36.939 28.0347C36.939 28.0347 36.939 28.0347 36.939 28.0347C36.939 28.0347 36.939 28.0347 36.939 28.0347C36.939 28.0347 36.939 28.0347 36.939 28.0347C36.939 28.0347 36.939 28.0347 36.939 28.0347C36.939 28.0347 36.939 28.0347 36.939 28.0347C36.939 28.0347 36.939 28.0347 36.939 28.0347C36.939 28.0347 36.939 28.0347 36.939 28.0347C36.939 28.0347 36.939 28.0347 36.939 28.0347C36.939 28.0347 36.939 28.0347 36.939 28.0347C36.939 28.0347 36.939 28.0347 36.939 28.0347C36.939 28.0347 36.939 28.0347 36.939 28.0347C36.939 28.0347 36.939 28.0347 36.939 28.0347C36.939 28.0347 36.939 28.0347 36.939 28.0347V29.0347C36.939 29.0347 36.939 29.0347 36.939 29.0347C36.939 29.0347 36.939 29.0347 36.939 29.0347C36.939 29.0347 36.939 29.0347 36.939 29.0347C36.939 29.0347 36.939 29.0347 36.939 29.0347C36.939 29.0347 36.939 29.0347 36.939 29.0347C36.939 29.0347 36.939 29.0347 36.939 29.0347C36.939 29.0347 36.939 29.0347 36.939 29.0347C36.939 29.0347 36.939 29.0347 36.939 29.0347C36.939 29.0347 36.939 29.0347 36.939 29.0347C36.939 29.0347 36.939 29.0347 36.939 29.0347C36.939 29.0347 36.939 29.0347 36.939 29.0347C36.939 29.0347 36.939 29.0347 36.939 29.0347C36.939 29.0347 36.939 29.0347 36.939 29.0347C36.939 29.0347 36.939 29.0347 36.939 29.0347C36.939 29.0347 36.939 29.0347 36.939 29.0347C36.939 29.0347 36.939 29.0347 36.939 29.0347C36.939 29.0347 36.939 29.0347 36.939 29.0347C36.939 29.0347 36.939 29.0347 36.939 29.0347C36.939 29.0347 36.939 29.0347 36.939 29.0347C36.939 29.0347 36.939 29.0347 36.939 29.0347C36.939 29.0347 36.939 29.0347 36.939 29.0347C36.939 29.0347 36.939 29.0347 36.939 29.0347C36.939 29.0347 36.939 29.0347 36.939 29.0347C36.939 29.0347 36.939 29.0347 36.939 29.0347C36.939 29.0347 36.939 29.0347 36.939 29.0347C36.939 29.0347 36.939 29.0347 36.939 29.0347C36.939 29.0347 36.939 29.0347 36.939 29.0347C36.939 29.0347 36.939 29.0347 36.939 29.0347C36.939 29.0347 36.939 29.0347 36.939 29.0347C36.939 29.0347 36.939 29.0347 36.939 29.0347C36.939 29.0347 36.939 29.0347 36.939 29.0347C36.939 29.0347 36.939 29.0347 36.939 29.0347C36.939 29.0347 36.939 29.0347 36.939 29.0347C36.939 29.0347 36.939 29.0347 36.939 29.0347C36.939 29.0347 36.939 29.0347 36.939 29.0347C36.939 29.0347 36.939 29.0347 36.939 29.0347C36.939 29.0347 36.939 29.0347 36.939 29.0347C36.939 29.0347 36.939 29.0347 36.939 29.0347C36.939 29.0347 36.939 29.0347 36.939 29.0347C36.939 29.0347 36.939 29.0347 36.939 29.0347C36.939 29.0347 36.939 29.0347 36.939 29.0347C36.939 29.0347 36.939 29.0347 36.939 29.0347C36.939 29.0347 36.939 29.0347 36.939 29.0347C36.939 29.0347 36.939 29.0347 36.939 29.0347C36.939 29.0347 36.939 29.0347 36.939 29.0347C36.939 29.0347 36.939 29.0347 36.939 29.0347C36.939 29.0347 36.939 29.0347 36.939 29.0347C36.939 29.0347 36.939 29.0347 36.939 29.0347C36.939 29.0347 36.939 29.0347 36.939 29.0347C36.939 29.0347 36.939 29.0347 36.939 29.0347C36.939 29.0347 36.939 29.0347 36.939 29.0347C36.939 29.0347 36.939 29.0347 36.939 29.0347C36.939 29.0347 36.939 29.0347 36.939 29.0347C36.939 29.0347 36.939 29.0347 36.939 29.0347C36.939 29.0347 36.939 29.0347 36.939 29.0347C36.939 29.0347 36.939 29.0347 36.939 29.0347C36.939 29.0347 36.939 29.0347 36.939 29.0347C36.939 29.0347 36.939 29.0347 36.939 29.0347C36.939 29.0347 36.939 29.0347 36.939 29.0347C36.939 29.0347 36.939 29.0347 36.939 29.0347C36.939 29.0347 36.939 29.0347 36.939 29.0347C36.939 29.0347 36.939 29.0347 36.939 29.0347C36.939 29.0347 36.939 29.0347 36.939 29.0347C36.939 29.0347 36.939 29.0347 36.939 29.0347C36.939 29.0347 36.939 29.0347 36.939 29.0347C36.939 29.0347 36.939 29.0347 36.939 29.0347C36.939 29.0347 36.939 29.0347 36.939 29.0347C36.939 29.0347 36.939 29.0347 36.939 29.0347C36.939 29.0347 36.939 29.0347 36.939 29.0347C36.939 29.0347 36.939 29.0347 36.939 29.0347C36.939 29.0347 36.939 29.0347 36.939 29.0347C36.939 29.0347 36.939 29.0347 36.939 29.0347C36.939 29.0347 36.939 29.0347 36.939 29.0347C36.939 29.0347 36.939 29.0347 36.939 29.0347C36.939 29.0347 36.939 29.0347 36.939 29.0347C36.939 29.0347 36.939 29.0347 36.939 29.0347C36.939 29.0347 36.939 29.0347 36.939 29.0347C36.939 29.0347 36.939 29.0347 36.939 29.0347C36.939 29.0347 36.939 29.0347 36.939 29.0347C36.939 29.0347 36.939 29.0347 36.939 29.0347C36.939 29.0347 36.939 29.0347 36.939 29.0347C36.939 29.0347 36.939 29.0347 36.939 29.0347C36.939 29.0347 36.939 29.0347 36.939 29.0347C36.939 29.0347 36.939 29.0347 36.939 29.0347C36.939 29.0347 36.939 29.0347 36.939 29.0347C36.939 29.0347 36.939 29.0347 36.939 29.0347C36.939 29.0347 36.939 29.0347 36.939 29.0347C36.939 29.0347 36.939 29.0347 36.939 29.0347C36.939 29.0347 36.939 29.0347 36.939 29.0347C36.939 29.0347 36.939 29.0347 36.939 29.0347C36.939 29.0347 36.939 29.0347 36.939 29.0347C36.939 29.0347 36.939 29.0347 36.939 29.0347C36.939 29.0347 36.939 29.0347 36.939 29.0347C36.939 29.0347 36.939 29.0347 36.939 29.0347C36.939 29.0347 36.939 29.0347 36.939 29.0347C36.939 29.0347 36.939 29.0347 36.939 29.0347C36.939 29.0347 36.939 29.0347 36.939 29.0347C36.939 29.0347 36.939 29.0347 36.939 29.0347C36.939 29.0347 36.939 29.0347 36.939 29.0347C36.939 29.0347 36.939 29.0347 36.939 29.0347C36.939 29.0347 36.939 29.0347 36.939 29.0347C36.939 29.0347 36.939 29.0347 36.939 29.0347C36.939 29.0347 36.939 29.0347 36.939 29.0347C36.939 29.0347 36.939 29.0347 36.939 29.0347C36.939 29.0347 36.939 29.0347 36.939 29.0347C36.939 29.0347 36.939 29.0347 36.939 29.0347C36.939 29.0347 36.939 29.0347 36.939 29.0347C36.939 29.0347 36.939 29.0347 36.939 29.0347C36.939 29.0347 36.939 29.0347 36.939 29.0347C36.939 29.0347 36.939 29.0347 36.939 29.0347C36.939 29.0347 36.939 29.0347 36.939 29.0347C36.939 29.0347 36.939 29.0347 36.939 29.0347C36.939 29.0347 36.939 29.0347 36.939 29.0347C36.939 29.0347 36.939 29.0347 36.939 29.0347C36.939 29.0347 36.939 29.0347 36.939 29.0347C36.939 29.0347 36.939 29.0347 36.939 29.0347C36.939 29.0347 36.939 29.0347 36.939 29.0347C36.939 29.0347 36.939 29.0347 36.939 29.0347C36.939 29.0347 36.939 29.0347 36.939 29.0347C36.939 29.0347 36.939 29.0347 36.939 29.0347C36.939 29.0347 36.939 29.0347 36.939 29.0347C36.939 29.0347 36.939 29.0347 36.939 29.0347C36.939 29.0347 36.939 29.0347 36.939 29.0347C36.939 29.0347 36.939 29.0347 36.939 29.0347C36.939 29.0347 36.939 29.0347 36.939 29.0347C36.939 29.0347 36.939 29.0347 36.939 29.0347C36.939 29.0347 36.939 29.0347 36.939 29.0347C36.939 29.0347 36.939 29.0347 36.939 29.0347C36.939 29.0347 36.939 29.0347 36.939 29.0347C36.939 29.0347 36.939 29.0347 36.939 29.0347C36.939 29.0347 36.939 29.0347 36.939 29.0347C36.939 29.0347 36.939 29.0347 36.939 29.0347C36.939 29.0347 36.939 29.0347 36.939 29.0347C36.939 29.0347 36.939 29.0347 36.939 29.0347C36.939 29.0347 36.939 29.0347 36.939 29.0347C36.939 29.0347 36.939 29.0347 36.939 29.0347C36.939 29.0347 36.939 29.0347 36.939 29.0347C36.939 29.0347 36.939 29.0347 36.939 29.0347C36.939 29.0347 36.939 29.0347 36.939 29.0347C36.939 29.0347 36.939 29.0347 36.939 29.0347C36.939 29.0347 36.939 29.0347 36.939 29.0347C36.939 29.0347 36.939 29.0347 36.939 29.0347C36.939 29.0347 36.939 29.0347 36.939 29.0347C36.939 29.0347 36.939 29.0347 36.939 29.0347C36.939 29.0347 36.939 29.0347 36.939 29.0347C36.939 29.0347 36.939 29.0347 36.939 29.0347C36.939 29.0347 36.939 29.0347 36.939 29.0347C36.939 29.0347 36.939 29.0347 36.939 29.0347C36.939 29.0347 36.939 29.0347 36.939 29.0347C36.939 29.0347 36.939 29.0347 36.939 29.0347C36.939 29.0347 36.939 29.0347 36.939 29.0347C36.939 29.0347 36.939 29.0347 36.939 29.0347C36.939 29.0347 36.939 29.0347 36.939 29.0347C36.939 29.0347 36.939 29.0347 36.939 29.0347C36.939 29.0347 36.939 29.0347 36.939 29.0347C36.939 29.0347 36.939 29.0347 36.939 29.0347C36.939 29.0347 36.939 29.0347 36.939 29.0347C36.939 29.0347 36.939 29.0347 36.939 29.0347C36.939 29.0347 36.939 29.0347 36.939 29.0347C36.939 29.0347 36.939 29.0347 36.939 29.0347C36.939 29.0347 36.939 29.0347 36.939 29.0347C36.939 29.0347 36.939 29.0347 36.939 29.0347C36.939 29.0347 36.939 29.0347 36.939 29.0347C36.939 29.0347 36.939 29.0347 36.9391 29.0347C36.9391 29.0347 36.9391 29.0347 36.9391 29.0347C36.9391 29.0347 36.9391 29.0347 36.9391 29.0347C36.9391 29.0347 36.9391 29.0347 36.9391 29.0347C36.9391 29.0347 36.9391 29.0347 36.9391 29.0347C36.9391 29.0347 36.9391 29.0347 36.9391 29.0347C36.9391 29.0347 36.9391 29.0347 36.9391 29.0347C36.9391 29.0347 36.9391 29.0347 36.9391 29.0347C36.9391 29.0347 36.9391 29.0347 36.9391 29.0347C36.9391 29.0347 36.9391 29.0347 36.9391 29.0347C36.9391 29.0347 36.9391 29.0347 36.9391 29.0347C36.9391 29.0347 36.9391 29.0347 36.9391 29.0347C36.9391 29.0347 36.9391 29.0347 36.9391 29.0347C36.9391 29.0347 36.9391 29.0347 36.9391 29.0347C36.9391 29.0347 36.9391 29.0347 36.9391 29.0347C36.9391 29.0347 36.9391 29.0347 36.9391 29.0347C36.9391 29.0347 36.9391 29.0347 36.9391 29.0347C36.9391 29.0347 36.9391 29.0347 36.9391 29.0347C36.9391 29.0347 36.9391 29.0347 36.9391 29.0347C36.9391 29.0347 36.9391 29.0347 36.9391 29.0347C36.9391 29.0347 36.9391 29.0347 36.9391 29.0347C36.9391 29.0347 36.9391 29.0347 36.9391 29.0347C36.9391 29.0347 36.9391 29.0347 36.9391 29.0347C36.9391 29.0347 36.9391 29.0347 36.9391 29.0347C36.9391 29.0347 36.9391 29.0347 36.9391 29.0347C36.9391 29.0347 36.9391 29.0347 36.9391 29.0347C36.9391 29.0347 36.9391 29.0347 36.9391 29.0347C36.9391 29.0347 36.9391 29.0347 36.9391 29.0347C36.9391 29.0347 36.9391 29.0347 36.9391 29.0347C36.9391 29.0347 36.9391 29.0347 36.9391 29.0347C36.9391 29.0347 36.9391 29.0347 36.9391 29.0347C36.9391 29.0347 36.9391 29.0347 36.9391 29.0347C36.9391 29.0347 36.9391 29.0347 36.9391 29.0347C36.9391 29.0347 36.9391 29.0347 36.9391 29.0347C36.9391 29.0347 36.9391 29.0347 36.9391 29.0347C36.9391 29.0347 36.9391 29.0347 36.9391 29.0347C36.9391 29.0347 36.9391 29.0347 36.9391 29.0347C36.9391 29.0347 36.9391 29.0347 36.9391 29.0347C36.9391 29.0347 36.9391 29.0347 36.9391 29.0347C36.9391 29.0347 36.9391 29.0347 36.9391 29.0347C36.9391 29.0347 36.9391 29.0347 36.9391 29.0347C36.9391 29.0347 36.9391 29.0347 36.9391 29.0347C36.9391 29.0347 36.9391 29.0347 36.9391 29.0347C36.9391 29.0347 36.9391 29.0347 36.9391 29.0347C36.9391 29.0347 36.9391 29.0347 36.9391 29.0347C36.9391 29.0347 36.9391 29.0347 36.9391 29.0347C36.9391 29.0347 36.9391 29.0347 36.9391 29.0347C36.9391 29.0347 36.9391 29.0347 36.9391 29.0347C36.9391 29.0347 36.9391 29.0347 36.9391 29.0347C36.9391 29.0347 36.9391 29.0347 36.9391 29.0347C36.9391 29.0347 36.9391 29.0347 36.9391 29.0347C36.9391 29.0347 36.9391 29.0347 36.9391 29.0347C36.9391 29.0347 36.9391 29.0347 36.9391 29.0347C36.9391 29.0347 36.9391 29.0347 36.9391 29.0347C36.9391 29.0347 36.9391 29.0347 36.9391 29.0347C36.9391 29.0347 36.9391 29.0347 36.9391 29.0347C36.9391 29.0347 36.9391 29.0347 36.9391 29.0347C36.9391 29.0347 36.9391 29.0347 36.9391 29.0347C36.9391 29.0347 36.9391 29.0347 36.9391 29.0347C36.9391 29.0347 36.9391 29.0347 36.9391 29.0347C36.9391 29.0347 36.9391 29.0347 36.9391 29.0347C36.9391 29.0347 36.9391 29.0347 36.9391 29.0347C36.9391 29.0347 36.9391 29.0347 36.9391 29.0347C36.9391 29.0347 36.9391 29.0347 36.9391 29.0347C36.9391 29.0347 36.9391 29.0347 36.9391 29.0347C36.9391 29.0347 36.9391 29.0347 36.9391 29.0347C36.9391 29.0347 36.9391 29.0347 36.9391 29.0347C36.9391 29.0347 36.9391 29.0347 36.9391 29.0347C36.9391 29.0347 36.9391 29.0347 36.9391 29.0347C36.9391 29.0347 36.9391 29.0347 36.9391 29.0347C36.9391 29.0347 36.9391 29.0347 36.9391 29.0347C36.9391 29.0347 36.9391 29.0347 36.9391 29.0347C36.9391 29.0347 36.9391 29.0347 36.9391 29.0347C36.9391 29.0347 36.9391 29.0347 36.9391 29.0347C36.9391 29.0347 36.9391 29.0347 36.9391 29.0347C36.9391 29.0347 36.9391 29.0347 36.9391 29.0347C36.9391 29.0347 36.9391 29.0347 36.9391 29.0347C36.9391 29.0347 36.9391 29.0347 36.9391 29.0347C36.9391 29.0347 36.9391 29.0347 36.9391 29.0347C36.9391 29.0347 36.9391 29.0347 36.9391 29.0347C36.9391 29.0347 36.9391 29.0347 36.9391 29.0347C36.9391 29.0347 36.9391 29.0347 36.9391 29.0347C36.9391 29.0347 36.9391 29.0347 36.9391 29.0347C36.9391 29.0347 36.9391 29.0347 36.9391 29.0347C36.9391 29.0347 36.9391 29.0347 36.9391 29.0347C36.9391 29.0347 36.9391 29.0347 36.9391 29.0347C36.9391 29.0347 36.9391 29.0347 36.9391 29.0347C36.9391 29.0347 36.9391 29.0347 36.9391 29.0347C36.9391 29.0347 36.9391 29.0347 36.9391 29.0347C36.9391 29.0347 36.9391 29.0347 36.9391 29.0347C36.9391 29.0347 36.9391 29.0347 36.9391 29.0347C36.9391 29.0347 36.9391 29.0347 36.9391 29.0347C36.9391 29.0347 36.9391 29.0347 36.9391 29.0347C36.9391 29.0347 36.9391 29.0347 36.9391 29.0347C36.9391 29.0347 36.9391 29.0347 36.9391 29.0347C36.9391 29.0347 36.9391 29.0347 36.9391 29.0347C36.9391 29.0347 36.9391 29.0347 36.9391 29.0347C36.9391 29.0347 36.9391 29.0347 36.9391 29.0347C36.9391 29.0347 36.9391 29.0347 36.9391 29.0347C36.9391 29.0347 36.9391 29.0347 36.9391 29.0347C36.9391 29.0347 36.9391 29.0347 36.9391 29.0347C36.9391 29.0347 36.9391 29.0347 36.9391 29.0347C36.9391 29.0347 36.9391 29.0347 36.9391 29.0347C36.9391 29.0347 36.9391 29.0347 36.9391 29.0347C36.9391 29.0347 36.9391 29.0347 36.9391 29.0347C36.9391 29.0347 36.9391 29.0347 36.9391 29.0347C36.9391 29.0347 36.9391 29.0347 36.9391 29.0347C36.9391 29.0347 36.9391 29.0347 36.9391 29.0347C36.9391 29.0347 36.9391 29.0347 36.9391 29.0347C36.9391 29.0347 36.9391 29.0347 36.9391 29.0347C36.9391 29.0347 36.9391 29.0347 36.9391 29.0347C36.9391 29.0347 36.9391 29.0347 36.9391 29.0347C36.9391 29.0347 36.9391 29.0347 36.9391 29.0347C36.9391 29.0347 36.9391 29.0347 36.9391 29.0347C36.9391 29.0347 36.9391 29.0347 36.9391 29.0347C36.9391 29.0347 36.9391 29.0347 36.9391 29.0347C36.9391 29.0347 36.9391 29.0347 36.9391 29.0347C36.9391 29.0347 36.9391 29.0347 36.9391 29.0347C36.9391 29.0347 36.9391 29.0347 36.9391 29.0347C36.9391 29.0347 36.9391 29.0347 36.9391 29.0347C36.9391 29.0347 36.9391 29.0347 36.9391 29.0347C36.9391 29.0347 36.9391 29.0347 36.9391 29.0347C36.9391 29.0347 36.9391 29.0347 36.9391 29.0347C36.9391 29.0347 36.9391 29.0347 36.9391 29.0347C36.9391 29.0347 36.9391 29.0347 36.9391 29.0347C36.9391 29.0347 36.9391 29.0347 36.9391 29.0347C36.9391 29.0347 36.9391 29.0347 36.9391 29.0347C36.9391 29.0347 36.9391 29.0347 36.9391 29.0347C36.9391 29.0347 36.9391 29.0347 36.9391 29.0347C36.9391 29.0347 36.9391 29.0347 36.9391 29.0347C36.9391 29.0347 36.9391 29.0347 36.9391 29.0347C36.9391 29.0347 36.9391 29.0347 36.9391 29.0347C36.9391 29.0347 36.9391 29.0347 36.9391 29.0347C36.9391 29.0347 36.9391 29.0347 36.9391 29.0347C36.9391 29.0347 36.9391 29.0347 36.9391 29.0347C36.9391 29.0347 36.9391 29.0347 36.9391 29.0347C36.9391 29.0347 36.9391 29.0347 36.9391 29.0347C36.9391 29.0347 36.9391 29.0347 36.9391 29.0347C36.9391 29.0347 36.9391 29.0347 36.9391 29.0347C36.9391 29.0347 36.9391 29.0347 36.9391 29.0347C36.9391 29.0347 36.9391 29.0347 36.9391 29.0347C36.9391 29.0347 36.9391 29.0347 36.9391 29.0347C36.9391 29.0347 36.9391 29.0347 36.9391 29.0347C36.9391 29.0347 36.9391 29.0347 36.9391 29.0347C36.9391 29.0347 36.9391 29.0347 36.9391 29.0347C36.9391 29.0347 36.9391 29.0347 36.9391 29.0347C36.9391 29.0347 36.9391 29.0347 36.9391 29.0347C36.9391 29.0347 36.9391 29.0347 36.9391 29.0347C36.9391 29.0347 36.9391 29.0347 36.9391 29.0347C36.9391 29.0347 36.9391 29.0347 36.9391 29.0347C36.9391 29.0347 36.9391 29.0347 36.9391 29.0347C36.9391 29.0347 36.9391 29.0347 36.9391 29.0347C36.9391 29.0347 36.9391 29.0347 36.9391 29.0347C36.9391 29.0347 36.9391 29.0347 36.9391 29.0347C36.9391 29.0347 36.9391 29.0347 36.9391 29.0347C36.9391 29.0347 36.9391 29.0347 36.9391 29.0347C36.9391 29.0347 36.9391 29.0347 36.9391 29.0347C36.9391 29.0347 36.9391 29.0347 36.9391 29.0347C36.9391 29.0347 36.9391 29.0347 36.9391 29.0347C36.9391 29.0347 36.9391 29.0347 36.9391 29.0347C36.9391 29.0347 36.9391 29.0347 36.9391 29.0347C36.9391 29.0347 36.9391 29.0347 36.9391 29.0347C36.9391 29.0347 36.9391 29.0347 36.9391 29.0347C36.9391 29.0347 36.9391 29.0347 36.9391 29.0347C36.9391 29.0347 36.9391 29.0347 36.9391 29.0347C36.9391 29.0347 36.9391 29.0347 36.9391 29.0347C36.9391 29.0347 36.9391 29.0347 36.9391 29.0347C36.9391 29.0347 36.9391 29.0347 36.9391 29.0347C36.9391 29.0347 36.9391 29.0347 36.9391 29.0347C36.9391 29.0347 36.9391 29.0347 36.9391 29.0347C36.9391 29.0347 36.9391 29.0347 36.9391 29.0347C36.9391 29.0347 36.9391 29.0347 36.9391 29.0347C36.9391 29.0347 36.9391 29.0347 36.9391 29.0347C36.9391 29.0347 36.9391 29.0347 36.9391 29.0347C36.9391 29.0347 36.9391 29.0347 36.9391 29.0347C36.9391 29.0347 36.9391 29.0347 36.9391 29.0347C36.9391 29.0347 36.9391 29.0347 36.9391 29.0347C36.9391 29.0347 36.9391 29.0347 36.9391 29.0347C36.9391 29.0347 36.9391 29.0347 36.9391 29.0347C36.9391 29.0347 36.9391 29.0347 36.9391 29.0347C36.9391 29.0347 36.9391 29.0347 36.9391 29.0347C36.9391 29.0347 36.9391 29.0347 36.9391 29.0347C36.9391 29.0347 36.9391 29.0347 36.9391 29.0347C36.9391 29.0347 36.9391 29.0347 36.9391 29.0347C36.9391 29.0347 36.9391 29.0347 36.9391 29.0347C36.9391 29.0347 36.9391 29.0347 36.9391 29.0347C36.9391 29.0347 36.9391 29.0347 36.9391 29.0347C36.9391 29.0347 36.9391 29.0347 36.9391 29.0347C36.9391 29.0347 36.9391 29.0347 36.9391 29.0347C36.9391 29.0347 36.9391 29.0347 36.9391 29.0347C36.9391 29.0347 36.9391 29.0347 36.9391 29.0347C36.9391 29.0347 36.9391 29.0347 36.9391 29.0347C36.9391 29.0347 36.9391 29.0347 36.9391 29.0347C36.9391 29.0347 36.9391 29.0347 36.9391 29.0347C36.9391 29.0347 36.9391 29.0347 36.9391 29.0347C36.9391 29.0347 36.9391 29.0347 36.9391 29.0347C36.9391 29.0347 36.9391 29.0347 36.9391 29.0347C36.9391 29.0347 36.9391 29.0347 36.9391 29.0347C36.9391 29.0347 36.9391 29.0347 36.9391 29.0347C36.9391 29.0347 36.9391 29.0347 36.9391 29.0347C36.9391 29.0347 36.9391 29.0347 36.9391 29.0347C36.9391 29.0347 36.9391 29.0347 36.9391 29.0347C36.9391 29.0347 36.9391 29.0347 36.9391 29.0347C36.9391 29.0347 36.9391 29.0347 36.9391 29.0347C36.9391 29.0347 36.9391 29.0347 36.9391 29.0347C36.9391 29.0347 36.9391 29.0347 36.9391 29.0347C36.9391 29.0347 36.9391 29.0347 36.9391 29.0347C36.9391 29.0347 36.9391 29.0347 36.9391 29.0347C36.9391 29.0347 36.9391 29.0347 36.9391 29.0347C36.9391 29.0347 36.9391 29.0347 36.9391 29.0347C36.9391 29.0347 36.9391 29.0347 36.9391 29.0347C36.9391 29.0347 36.9391 29.0347 36.9391 29.0347C36.9391 29.0347 36.9391 29.0347 36.9391 29.0347C36.9391 29.0347 36.9391 29.0347 36.9391 29.0347C36.9391 29.0347 36.9391 29.0347 36.9391 29.0347C36.9391 29.0347 36.9391 29.0347 36.9391 29.0347C36.9391 29.0347 36.9391 29.0347 36.9391 29.0347C36.9391 29.0347 36.9391 29.0347 36.9391 29.0347C36.9391 29.0347 36.9391 29.0347 36.9391 29.0347C36.9391 29.0347 36.9391 29.0347 36.9391 29.0347C36.9391 29.0347 36.9391 29.0347 36.9391 29.0347C36.9391 29.0347 36.9391 29.0347 36.9391 29.0347C36.9391 29.0347 36.9391 29.0347 36.9391 29.0347C36.9391 29.0347 36.9391 29.0347 36.9391 29.0347C36.9391 29.0347 36.9391 29.0347 36.9391 29.0347C36.9391 29.0347 36.9391 29.0347 36.9391 29.0347C36.9391 29.0347 36.9391 29.0347 36.9391 29.0347C36.9391 29.0347 36.9391 29.0347 36.9391 29.0347C36.9391 29.0347 36.9391 29.0347 36.9391 29.0347C36.9391 29.0347 36.9391 29.0347 36.9391 29.0347C36.9391 29.0347 36.9391 29.0347 36.9391 29.0347C36.9391 29.0347 36.9391 29.0347 36.9391 29.0347C36.9391 29.0347 36.9391 29.0347 36.9391 29.0347C36.9391 29.0347 36.9391 29.0347 36.9391 29.0347C36.9391 29.0347 36.9391 29.0347 36.9391 29.0347C36.9391 29.0347 36.9391 29.0347 36.9391 29.0347C36.9391 29.0347 36.9391 29.0347 36.9391 29.0347C36.9391 29.0347 36.9391 29.0347 36.9391 29.0347C36.9391 29.0347 36.9391 29.0347 36.9391 29.0347C36.9391 29.0347 36.9391 29.0347 36.9391 29.0347C36.9391 29.0347 36.9391 29.0347 36.9391 29.0347C36.9391 29.0347 36.9391 29.0347 36.9391 29.0347C36.9391 29.0347 36.9391 29.0347 36.9391 29.0347C36.9391 29.0347 36.9391 29.0347 36.9391 29.0347C36.9391 29.0347 36.9391 29.0347 36.9391 29.0347C36.9391 29.0347 36.9391 29.0347 36.9391 29.0347C36.9391 29.0347 36.9391 29.0347 36.9391 29.0347C36.9391 29.0347 36.9391 29.0347 36.9391 29.0347C36.9391 29.0347 36.9391 29.0347 36.9391 29.0347C36.9391 29.0347 36.9391 29.0347 36.9391 29.0347C36.9391 29.0347 36.9391 29.0347 36.9391 29.0347C36.9391 29.0347 36.9391 29.0347 36.9391 29.0347C36.9391 29.0347 36.9391 29.0347 36.9391 29.0347C36.9391 29.0347 36.9391 29.0347 36.9391 29.0347C36.9391 29.0347 36.9391 29.0347 36.9391 29.0347C36.9391 29.0347 36.9391 29.0347 36.9391 29.0347C36.9391 29.0347 36.9391 29.0347 36.9391 29.0347C36.9391 29.0347 36.9391 29.0347 36.9391 29.0347C36.9391 29.0347 36.9391 29.0347 36.9391 29.0347C36.9391 29.0347 36.9391 29.0347 36.9391 29.0347C36.9391 29.0347 36.9391 29.0347 36.9391 29.0347C36.9391 29.0347 36.9391 29.0347 36.9391 29.0347C36.9391 29.0347 36.9391 29.0347 36.9391 29.0347C36.9391 29.0347 36.9391 29.0347 36.9391 29.0347C36.9391 29.0347 36.9391 29.0347 36.9391 29.0347C36.9391 29.0347 36.9391 29.0347 36.9391 29.0347C36.9391 29.0347 36.9391 29.0347 36.9391 29.0347C36.9391 29.0347 36.9391 29.0347 36.9391 29.0347C36.9391 29.0347 36.9391 29.0347 36.9391 29.0347C36.9391 29.0347 36.9391 29.0347 36.9391 29.0347C36.9391 29.0347 36.9391 29.0347 36.9391 29.0347C36.9391 29.0347 36.9391 29.0347 36.9391 29.0347C36.9391 29.0347 36.9391 29.0347 36.9391 29.0347C36.9391 29.0347 36.9391 29.0347 36.9391 29.0347C36.9391 29.0347 36.9391 29.0347 36.9391 29.0347C36.9391 29.0347 36.9391 29.0347 36.9391 29.0347C36.9391 29.0347 36.9391 29.0347 36.9391 29.0347C36.9391 29.0347 36.9391 29.0347 36.9391 29.0347C36.9391 29.0347 36.9391 29.0347 36.9391 29.0347C36.9391 29.0347 36.9391 29.0347 36.9391 29.0347C36.9391 29.0347 36.9391 29.0347 36.9391 29.0347C36.9391 29.0347 36.9391 29.0347 36.9391 29.0347C36.9391 29.0347 36.9391 29.0347 36.9391 29.0347C36.9391 29.0347 36.9391 29.0347 36.9391 29.0347C36.9391 29.0347 36.9391 29.0347 36.9391 29.0347C36.9391 29.0347 36.9391 29.0347 36.9391 29.0347C36.9391 29.0347 36.9391 29.0347 36.9391 29.0347C36.9391 29.0347 36.9391 29.0347 36.9391 29.0347C36.9391 29.0347 36.9391 29.0347 36.9391 29.0347C36.9391 29.0347 36.9391 29.0347 36.9391 29.0347C36.9391 29.0347 36.9391 29.0347 36.9391 29.0347C36.9391 29.0347 36.9391 29.0347 36.9391 29.0347C36.9391 29.0347 36.9391 29.0347 36.9391 29.0347C36.9391 29.0347 36.9391 29.0347 36.9391 29.0347C36.9391 29.0347 36.9391 29.0347 36.9391 29.0347C36.9391 29.0347 36.9391 29.0347 36.9391 29.0347C36.9391 29.0347 36.9391 29.0347 36.9391 29.0347C36.9391 29.0347 36.9391 29.0347 36.9391 29.0347C36.9391 29.0347 36.9391 29.0347 36.9391 29.0347C36.9391 29.0347 36.9391 29.0347 36.9391 29.0347C36.9391 29.0347 36.9391 29.0347 36.9391 29.0347C36.9391 29.0347 36.9391 29.0347 36.9391 29.0347C36.9391 29.0347 36.9391 29.0347 36.9391 29.0347C36.9391 29.0347 36.9391 29.0347 36.9391 29.0347C36.9391 29.0347 36.9391 29.0347 36.9391 29.0347C36.9391 29.0347 36.9391 29.0347 36.9391 29.0347C36.9391 29.0347 36.9391 29.0347 36.9391 29.0347C36.9391 29.0347 36.9391 29.0347 36.9391 29.0347C36.9391 29.0347 36.9391 29.0347 36.9391 29.0347C36.9391 29.0347 36.9391 29.0347 36.9391 29.0347C36.9391 29.0347 36.9391 29.0347 36.9391 29.0347C36.9391 29.0347 36.9391 29.0347 36.9391 29.0347C36.9391 29.0347 36.9391 29.0347 36.9391 29.0347C36.9391 29.0347 36.9391 29.0347 36.9391 29.0347C36.9391 29.0347 36.9391 29.0347 36.9391 29.0347C36.9391 29.0347 36.9391 29.0347 36.9391 29.0347C36.9391 29.0347 36.9391 29.0347 36.9391 29.0347C36.9391 29.0347 36.9391 29.0347 36.9391 29.0347C36.9391 29.0347 36.9391 29.0347 36.9391 29.0347C36.9391 29.0347 36.9391 29.0347 36.9391 29.0347C36.9391 29.0347 36.9391 29.0347 36.9391 29.0347C36.9391 29.0347 36.9391 29.0347 36.9391 29.0347C36.9391 29.0347 36.9391 29.0347 36.9391 29.0347C36.9391 29.0347 36.9391 29.0347 36.9391 29.0347C36.9391 29.0347 36.9391 29.0347 36.9391 29.0347C36.9391 29.0347 36.9391 29.0347 36.9391 29.0347C36.9391 28.5347 36.9391 28.0347 36.9391 28.0347C36.9391 28.0347 36.9391 28.0347 36.9391 28.0347C36.9391 28.0347 36.9391 28.0347 36.9391 28.0347C36.9391 28.0347 36.9391 28.0347 36.9391 28.0347C36.9391 28.0347 36.9391 28.0347 36.9391 28.0347C36.9391 28.0347 36.9391 28.0347 36.9391 28.0347C36.9391 28.0347 36.9391 28.0347 36.9391 28.0347C36.9391 28.0347 36.9391 28.0347 36.9391 28.0347C36.9391 28.0347 36.9391 28.0347 36.9391 28.0347C36.9391 28.0347 36.9391 28.0347 36.9391 28.0347C36.9391 28.0347 36.9391 28.0347 36.9391 28.0347C36.9391 28.0347 36.9391 28.0347 36.9391 28.0347C36.9391 28.0347 36.9391 28.0347 36.9391 28.0347C36.9391 28.0347 36.9391 28.0347 36.9391 28.0347C36.9391 28.0347 36.9391 28.0347 36.9391 28.0347C36.9391 28.0347 36.9391 28.0347 36.9391 28.0347C36.9391 28.0347 36.9391 28.0347 36.9391 28.0347C36.9391 28.0347 36.9391 28.0347 36.9391 28.0347C36.9391 28.0347 36.9391 28.0347 36.9391 28.0347C36.9391 28.0347 36.9391 28.0347 36.9391 28.0347C36.9391 28.0347 36.9391 28.0347 36.9391 28.0347C36.9391 28.0347 36.9391 28.0347 36.9391 28.0347C36.9391 28.0347 36.9391 28.0347 36.9391 28.5347ZM36.7344 28.0785L32.613 29.9274L33.0223 30.8398L37.1437 28.9909L36.7344 28.0785ZM33.2739 30.1789C32.3809 28.1884 30.3392 23.6371 29.5761 21.9362L28.6637 22.3455C29.4268 24.0464 31.4685 28.5977 32.3615 30.5882L33.2739 30.1789ZM29.3246 22.597L34.2702 20.3784L33.8609 19.466L28.9153 21.6846L29.3246 22.597ZM22.2714 33.1885C22.2714 29.5246 25.217 26.5348 28.8641 26.4629L28.8444 25.4631C24.654 25.5458 21.2714 28.9787 21.2714 33.1885H22.2714ZM28.3981 26.1676L29.2078 27.9726L30.1202 27.5633L29.3104 25.7583L28.3981 26.1676ZM29.664 27.268H28.9988V28.268H29.664V27.268ZM28.9988 27.268C25.7338 27.268 23.0783 29.9235 23.0783 33.1885H24.0783C24.0783 30.4758 26.2861 28.268 28.9988 28.268V27.268ZM23.0783 33.1885C23.0783 35.9902 25.0329 38.3411 27.6488 38.9535L27.8768 37.9799C25.702 37.4707 24.0783 35.5144 24.0783 33.1885H23.0783ZM27.2926 38.2966L26.6744 40.0056L27.6148 40.3458L28.233 38.6368L27.2926 38.2966ZM27.2716 39.6921C24.3385 38.9217 22.2714 36.2843 22.2714 33.1885H21.2714C21.2714 36.7407 23.6469 39.774 27.0176 40.6593L27.2716 39.6921ZM32.6124 43.7949H27.576V44.7949H32.6124V43.7949ZM28.0462 44.465L30.1028 38.7791L29.1624 38.439L27.1058 44.1248L28.0462 44.465ZM29.6326 39.109H32.6124V38.109H29.6326V39.109ZM32.1124 38.609V44.2949H33.1124V38.609H32.1124Z" fill="white" mask="url(#path-2-inside-1)"/>
</svg>
