<svg width="103" height="104" viewBox="0 0 103 104" fill="none" xmlns="http://www.w3.org/2000/svg">
<path d="M100.729 48.029C102.136 50.4894 102.136 53.5106 100.729 55.9711L79.5537 93.0044C78.1291 95.4959 75.479 97.0333 72.6089 97.0333L30.3911 97.0333C27.521 97.0333 24.8709 95.4959 23.4463 93.0044L2.27064 55.971C0.86376 53.5106 0.86376 50.4894 2.27065 48.0289L23.4463 10.9956C24.8709 8.50412 27.521 6.96668 30.3911 6.96668L72.6089 6.96668C75.479 6.96668 78.1291 8.50412 79.5538 10.9956L100.729 48.029Z" fill="#00B7BD"/>
<path d="M58.8281 60.2715H51.7969C51.0688 60.2715 50.4785 60.8618 50.4785 61.5898C50.4785 62.3179 51.0688 62.9082 51.7969 62.9082H58.8281C59.5562 62.9082 60.1465 62.3179 60.1465 61.5898C60.1465 60.8618 59.5562 60.2715 58.8281 60.2715Z" fill="white"/>
<path d="M51.7969 57.2832H56.7188C57.4468 57.2832 58.0371 56.6929 58.0371 55.9648C58.0371 55.2368 57.4468 54.6465 56.7188 54.6465H51.7969C51.0688 54.6465 50.4785 55.2368 50.4785 55.9648C50.4785 56.6929 51.0688 57.2832 51.7969 57.2832Z" fill="white"/>
<path d="M75 41.1992C75 35.4321 70.3081 30.7402 64.541 30.7402C59.974 30.7402 56.0819 33.6828 54.6596 37.7715H33.9551C31.7742 37.7715 30 39.5457 30 41.7266V64.5781C30 66.759 31.7742 68.5332 33.9551 68.5332H66.7383C68.9191 68.5332 70.6934 66.759 70.6934 64.5781V49.6517C73.3017 47.7479 75 44.6684 75 41.1992ZM64.541 33.377C68.8542 33.377 72.3633 36.886 72.3633 41.1992C72.3633 45.5125 68.8542 49.0215 64.541 49.0215C60.2278 49.0215 56.7188 45.5125 56.7188 41.1992C56.7188 36.886 60.2278 33.377 64.541 33.377ZM68.0566 64.5781C68.0566 65.3051 67.4652 65.8965 66.7383 65.8965H33.9551C33.2281 65.8965 32.6367 65.3051 32.6367 64.5781V41.7266C32.6367 40.9996 33.2281 40.4082 33.9551 40.4082H54.1118C54.0922 40.6694 54.082 40.9332 54.082 41.1992C54.082 46.9663 58.7739 51.6582 64.541 51.6582C65.7739 51.6582 66.9574 51.4431 68.0566 51.0496V64.5781Z" fill="white"/>
<path d="M61.9555 43.8981C62.1545 44.2961 62.5408 44.5668 62.9827 44.6181C63.0336 44.6239 63.0843 44.6269 63.1348 44.6269C63.5234 44.6269 63.8955 44.455 64.1475 44.1526L67.6631 39.9338C68.1292 39.3745 68.0536 38.5432 67.4943 38.077C66.9351 37.611 66.1037 37.6866 65.6375 38.2459L63.4124 40.9161L62.9076 39.9066C62.582 39.2553 61.79 38.9912 61.1388 39.317C60.4876 39.6426 60.2236 40.4345 60.5493 41.0857L61.9555 43.8981Z" fill="white"/>
<path d="M44.6855 53.7366C45.5494 52.8628 46.084 51.6628 46.084 50.3398C46.084 47.6744 43.9155 45.5059 41.25 45.5059C38.5845 45.5059 36.416 47.6744 36.416 50.3398C36.416 51.6628 36.9506 52.8628 37.8145 53.7366C36.5355 54.7517 35.7129 56.3183 35.7129 58.0742V61.5898C35.7129 62.3179 36.3032 62.9082 37.0312 62.9082H45.4688C46.1968 62.9082 46.7871 62.3179 46.7871 61.5898V58.0742C46.7871 56.3183 45.9645 54.7517 44.6855 53.7366ZM39.0527 50.3398C39.0527 49.1283 40.0384 48.1426 41.25 48.1426C42.4616 48.1426 43.4473 49.1283 43.4473 50.3398C43.4473 51.5514 42.4616 52.5371 41.25 52.5371C40.0384 52.5371 39.0527 51.5514 39.0527 50.3398ZM44.1504 60.2715H38.3496V58.0742C38.3496 56.475 39.6507 55.1738 41.25 55.1738C42.8493 55.1738 44.1504 56.475 44.1504 58.0742V60.2715Z" fill="white"/>
</svg>
