<svg width="103" height="104" viewBox="0 0 103 104" fill="none" xmlns="http://www.w3.org/2000/svg">
<path d="M99.8613 48.5253C101.092 50.6782 101.092 53.3218 99.8613 55.4747L78.6856 92.508C77.4391 94.6881 75.1202 96.0333 72.6089 96.0333L30.3911 96.0333C27.8798 96.0333 25.5609 94.6881 24.3144 92.508L3.13875 55.4747C1.90773 53.3218 1.90773 50.6782 3.13875 48.5253L24.3144 11.492C25.5609 9.31194 27.8798 7.96668 30.3911 7.96668L72.6089 7.96668C75.1202 7.96668 77.4391 9.31194 78.6856 11.492L99.8613 48.5253Z" fill="#00B7BD" stroke="url(#paint0_linear)" stroke-width="2"/>
<path d="M70.4187 63.5641L64.1103 61.6247C64.1206 61.4341 64.1066 61.2413 64.0616 61.0509C63.9235 60.4661 63.5362 59.9766 62.9988 59.7078L59.0975 57.7573V54.9755C62.0163 52.9455 64.0706 49.7545 64.5843 46.0772H65.1045C66.8103 46.0772 68.2734 44.8098 68.4354 43.1916C68.5262 42.2847 68.2295 41.3794 67.6215 40.7076C67.3274 40.3824 66.9718 40.1251 66.581 39.9452V30.2349C66.581 26.6576 63.6706 23.7471 60.0931 23.7471C60.0885 23.7471 60.0276 23.7471 59.9451 23.7472C58.3694 22.5849 56.0545 21.8762 53.4867 21.8762C48.0196 21.8762 45.508 23.0152 42.6 24.3339C41.0464 25.0384 39.4401 25.7668 37.1632 26.4327C36.9242 26.5026 36.7261 26.671 36.6189 26.8958C36.5117 27.1206 36.5052 27.3805 36.6013 27.6103C36.6279 27.674 37.0189 28.5817 38.0278 29.6845C37.5921 30.2207 36.7676 31.592 36.7676 34.2885V39.9842C35.7605 40.4644 35.0254 41.4156 34.9133 42.5348C34.8224 43.4416 35.1189 44.3471 35.7269 45.0191C36.3352 45.6915 37.204 46.0771 38.1105 46.0771H38.7637C39.277 49.7555 41.3314 52.9469 44.251 54.9767V57.7572L40.3495 59.7077C39.8121 59.9766 39.4247 60.4661 39.2867 61.0509C39.2417 61.2412 39.2278 61.434 39.238 61.6246L32.9296 63.564C30.1895 64.4066 28.3484 66.8986 28.3484 69.7654V80.7487C28.3484 81.2322 28.7402 81.6239 29.2236 81.6239C29.7069 81.6239 30.0988 81.2322 30.0988 80.7487V69.7655C30.0988 67.6723 31.4431 65.8525 33.4441 65.2373L40.006 63.2199L41.1642 64.7642L39.8483 66.0802C39.0111 66.9172 38.8044 68.1911 39.3338 69.2501L41.8392 74.2608H39.4534V73.2652C39.4534 72.7817 39.0615 72.39 38.5782 72.39C38.0949 72.39 37.703 72.7817 37.703 73.2652V74.2608H33.901C33.4176 74.2608 33.0257 74.6526 33.0257 75.1361V80.7487C33.0257 81.2322 33.4176 81.6239 33.901 81.6239H43.2554C43.7388 81.6239 44.1307 81.2322 44.1307 80.7487V78.8436L45.2789 81.1402C45.4323 81.4469 45.7413 81.6242 46.0624 81.6242C46.1939 81.6242 46.3274 81.5943 46.4531 81.5315C46.8855 81.3153 47.0607 80.7897 46.8445 80.3572L40.8995 68.4671C40.7075 68.0831 40.7826 67.6214 41.0861 67.3177L42.9389 65.4649C43.2468 65.1569 43.2815 64.6694 43.0202 64.3209L41.0373 61.6772C40.9714 61.5892 40.9797 61.499 40.9905 61.453C41.0014 61.4069 41.0343 61.3225 41.1326 61.2733L44.5798 59.5497L47.0134 67.8933C47.1487 68.3575 47.6344 68.6236 48.0986 68.4885C48.5627 68.3532 48.8291 67.8674 48.6938 67.4033L48.3102 66.0881C49.3864 66.4621 50.5242 66.6568 51.6745 66.6568C52.8252 66.6568 53.9627 66.4627 55.0386 66.0887L51.6744 77.6228L49.7856 71.147C49.6502 70.6827 49.1644 70.4163 48.7003 70.5517C48.2362 70.6871 47.9698 71.173 48.1052 71.637L50.8342 80.9935C50.9432 81.367 51.2854 81.6237 51.6744 81.6237C52.0633 81.6237 52.4057 81.367 52.5146 80.9935L58.7691 59.5497L62.2161 61.2733C62.3146 61.3225 62.3474 61.407 62.3584 61.4529C62.3692 61.499 62.3775 61.5892 62.3116 61.6772L60.3287 64.3209C60.0674 64.6692 60.1021 65.1569 60.4099 65.465L62.2628 67.3179C62.5664 67.6214 62.6412 68.0833 62.4494 68.4671L56.504 80.3573C56.2878 80.7897 56.4631 81.3154 56.8954 81.5316C57.0211 81.5945 57.1547 81.6243 57.2862 81.6243C57.6073 81.6243 57.9164 81.4469 58.0697 81.1403L64.0147 69.2502C64.5442 68.1913 64.3375 66.9175 63.5005 66.0803L62.1844 64.7642L63.3425 63.22L69.9044 65.2375C71.9053 65.8526 73.2496 67.6724 73.2496 69.7658V80.7487C73.2496 81.2322 73.6414 81.6239 74.1248 81.6239C74.6083 81.6239 75 81.2322 75 80.7487V69.7655C74.9999 66.8987 73.1589 64.4066 70.4187 63.5641ZM42.38 79.8735H34.7759V76.0113H37.7028V76.0715C37.7028 76.5549 38.0946 76.9467 38.578 76.9467C39.0613 76.9467 39.4532 76.5549 39.4532 76.0715V76.0113H42.38V79.8735ZM43.3228 25.9281C46.1583 24.6422 48.3979 23.6266 53.4867 23.6266C56.7156 23.6266 59.601 24.978 60.1984 26.77C60.3513 27.2287 60.8466 27.4762 61.3054 27.3235C61.7639 27.1707 62.0118 26.6749 61.8589 26.2164C61.8086 26.0654 61.7485 25.9174 61.6805 25.772C63.5142 26.4261 64.8307 28.1794 64.8307 30.2349V39.6496H63.835C63.286 39.6496 62.8394 39.2031 62.8394 38.654V37.7185C62.8394 33.6609 59.9017 30.6766 59.7766 30.5515C59.5459 30.3207 59.2057 30.238 58.8942 30.3358C54.0357 31.8701 47.1854 33.1632 42.1421 30.6114C40.3474 29.7033 39.2877 28.5493 38.7304 27.7788C40.5883 27.1682 42.0284 26.5151 43.3228 25.9281ZM57.3471 58.1732L55.6756 63.9043C54.4508 64.5606 53.0747 64.9066 51.6744 64.9066C50.2749 64.9066 48.8975 64.5611 47.6733 63.9052L46.0014 58.1732V56.0019C47.7174 56.8347 49.6421 57.3026 51.6743 57.3026C53.7062 57.3026 55.6309 56.8345 57.3471 56.001V58.1732ZM51.6743 55.5521C45.4514 55.5521 40.3888 50.4894 40.3888 44.2666C40.3888 43.7831 39.997 43.3913 39.5136 43.3913C39.0303 43.3913 38.6384 43.7831 38.6384 44.2666V44.3268H38.1105C37.6977 44.3268 37.302 44.151 37.0249 43.8447C36.7441 43.5344 36.6127 43.1312 36.655 42.7094C36.7286 41.9751 37.4267 41.4 38.2442 41.4H39.5136C41.0279 41.4 42.2597 40.168 42.2597 38.6539V35.3505C42.2597 34.867 41.8678 34.4753 41.3845 34.4753C40.9011 34.4753 40.5093 34.867 40.5093 35.3505V38.6539C40.5093 39.2029 40.0626 39.6495 39.5136 39.6495H38.518V34.2885C38.518 32.252 39.0653 31.2393 39.318 30.8803C39.8527 31.302 40.4799 31.7198 41.2139 32.1023C43.1973 33.1361 45.5581 33.7086 48.2304 33.8038C51.3626 33.9164 54.9425 33.367 58.8776 32.1732C59.5722 33.0144 61.0891 35.146 61.0891 37.7184V38.6539C61.0891 40.1681 62.321 41.4 63.8351 41.4H65.2383C65.651 41.4 66.0467 41.5757 66.3239 41.882C66.6047 42.1923 66.7361 42.5954 66.6938 43.0172C66.6203 43.7516 65.9223 44.3268 65.1048 44.3268H64.7099V44.2757C64.7099 43.7924 64.3183 43.4007 63.835 43.4005C63.8349 43.4005 63.8348 43.4005 63.8347 43.4005C63.3516 43.4005 62.9598 43.7918 62.9595 44.275C62.9547 50.4932 57.8922 55.5521 51.6743 55.5521Z" fill="white"/>
<defs>
<linearGradient id="paint0_linear" x1="51.6625" y1="-7.52859" x2="56.1141" y2="122.91" gradientUnits="userSpaceOnUse">
<stop stop-color="#92E8FF" stop-opacity="0.5"/>
<stop offset="1" stop-color="white" stop-opacity="0"/>
</linearGradient>
</defs>
</svg>
