<svg width="72" height="72" viewBox="0 0 72 72" fill="none" xmlns="http://www.w3.org/2000/svg">
<path d="M19.9249 36.6584C19.9249 37.0214 19.6637 37.3118 19.3373 37.3118C19.0109 37.3118 18.7715 37.0214 18.7715 36.6584C18.7715 36.2954 19.0326 36.0292 19.3373 36.0292C19.6637 36.005 19.9249 36.2954 19.9249 36.6584Z" stroke="#00B7BD" stroke-width="2.5" stroke-miterlimit="10" stroke-linecap="round" stroke-linejoin="round"/>
<path d="M25.7296 36.6584C25.7296 37.0214 25.4684 37.3118 25.142 37.3118C24.8156 37.3118 24.5762 37.0214 24.5762 36.6584C24.5762 36.2954 24.8373 36.0292 25.142 36.0292C25.4684 36.005 25.7296 36.2954 25.7296 36.6584Z" stroke="#00B7BD" stroke-width="2.5" stroke-miterlimit="10" stroke-linecap="round" stroke-linejoin="round"/>
<path d="M31.5479 36.6584C31.5479 37.0214 31.2868 37.3118 30.9604 37.3118C30.6339 37.3118 30.3945 37.0214 30.3945 36.6584C30.3945 36.2954 30.6557 36.0292 30.9604 36.0292C31.3085 36.005 31.5479 36.2954 31.5479 36.6584Z" stroke="#00B7BD" stroke-width="2.5" stroke-miterlimit="10" stroke-linecap="round" stroke-linejoin="round"/>
<path d="M43.6863 37.627H47.9517L55.5032 47.3792V37.627H57.5489C59.8557 37.627 61.7272 35.5458 61.7272 32.9807V16.6462C61.7272 14.0811 59.8557 12 57.5489 12H35.569C33.2622 12 31.3906 14.1053 31.3906 16.6462V20.2519" stroke="#212120" stroke-width="2.5" stroke-miterlimit="10" stroke-linecap="round" stroke-linejoin="round"/>
<path d="M16.2022 59.2608V49.5085H14.1784C11.8716 49.5085 10 47.4032 10 44.8623V28.552C10 25.9869 11.8933 23.9058 14.1784 23.9058H36.18C38.4868 23.9058 40.3583 25.9869 40.3583 28.552V44.8623C40.3583 47.4274 38.465 49.5085 36.18 49.5085H23.7755L16.2022 59.2608Z" stroke="#212120" stroke-width="2.5" stroke-miterlimit="10" stroke-linecap="round" stroke-linejoin="round"/>
<path d="M46.7979 24.7523C46.7979 25.1152 46.5368 25.4056 46.2104 25.4056C45.8839 25.4056 45.6445 25.1152 45.6445 24.7523C45.6445 24.3893 45.9057 24.123 46.2104 24.123C46.5585 24.123 46.7979 24.3893 46.7979 24.7523Z" stroke="#00B7BD" stroke-width="2.5" stroke-miterlimit="10" stroke-linecap="round" stroke-linejoin="round"/>
<path d="M52.6261 24.7523C52.6261 25.1152 52.3649 25.4056 52.0385 25.4056C51.712 25.4056 51.4727 25.1152 51.4727 24.7523C51.4727 24.3893 51.7338 24.123 52.0385 24.123C52.3649 24.123 52.6261 24.3893 52.6261 24.7523Z" stroke="#00B7BD" stroke-width="2.5" stroke-miterlimit="10" stroke-linecap="round" stroke-linejoin="round"/>
</svg>
