<svg width="537" height="603" viewBox="0 0 537 603" fill="none" xmlns="http://www.w3.org/2000/svg">
<path d="M383.305 567.988L389.722 571.947L394.995 569.678L393.803 568.947C392.885 568.382 392.456 567.363 392.854 566.676C393.238 565.996 394.295 565.884 395.193 566.441L397.231 567.697C397.533 567.888 397.791 568.136 397.984 568.396L405.54 565.14L409.446 567.55L396.901 576.361L405.113 581.434C405.659 581.768 406.139 582.151 406.519 582.545L408.271 583.715L414.594 581.394L416.826 582.762L410.856 587.173L410.133 594.784L407.843 593.369L406.802 586.351L404.899 585.456C404.381 585.294 403.835 585.034 403.29 584.7L395.185 579.706L394.004 595.523L390.099 593.114L389.099 584.468C388.768 584.439 388.416 584.328 388.086 584.114L386.047 582.858C385.143 582.286 384.714 581.268 385.098 580.587C385.481 579.907 386.539 579.795 387.436 580.352L388.707 581.139L388.036 575.278L381.503 571.262C379.687 570.141 378.606 568.487 379.113 567.582C379.59 566.691 381.489 566.867 383.305 567.988Z" fill="#0F398B"/>
<path d="M62.1683 28.6453L73.9918 31.3573L81.3675 24.7744L79.1614 24.2709C77.4882 23.8866 76.3773 22.4955 76.6921 21.1873C77.0069 19.8791 78.6349 19.1107 80.3081 19.495L84.0618 20.3557C84.6245 20.4856 85.1273 20.7362 85.5363 21.0598L96.1187 11.6085L103.314 13.2542L87.1923 34.3832L102.317 37.8477C103.317 38.0803 104.227 38.4229 105.013 38.8279L108.285 39.7118L117.296 32.4342L121.411 33.3709L113.825 43.7674L115.893 56.3147L111.688 55.3459L107.069 44.7292L103.677 44.3707C102.784 44.4071 101.82 44.3115 100.82 44.0788L85.8959 40.6683L90.7176 66.5934L83.5218 64.9477L78.2813 51.7118C77.7449 51.8399 77.1465 51.8571 76.5387 51.7112L72.7851 50.8505C71.1119 50.4662 70.001 49.0752 70.3158 47.7669C70.6306 46.4587 72.2586 45.6904 73.9318 46.0747L76.2636 46.6053L72.716 37.6319L60.6862 34.8818C57.3396 34.1132 54.9494 32.0878 55.3597 30.3698C55.7494 28.6621 58.8367 27.8821 62.1683 28.6453Z" fill="#0F398B"/>
<path d="M396.677 549.13C396.722 549.146 396.782 549.168 396.833 549.168C397.221 549.218 397.602 548.91 397.647 548.5C398.01 545.682 398.165 542.594 398.072 539.347C398.051 538.931 397.723 538.618 397.327 538.637C396.931 538.655 396.614 539.022 396.62 539.432C396.705 542.606 396.584 545.599 396.213 548.343C396.17 548.701 396.377 549.023 396.677 549.13ZM396.301 531.132C396.406 531.169 396.537 531.181 396.665 531.155C397.062 531.084 397.34 530.686 397.284 530.275C396.874 527.394 396.295 524.417 395.597 521.398C395.505 520.992 395.113 520.763 394.719 520.871C394.325 520.979 394.092 521.394 394.184 521.799C394.879 524.782 395.439 527.717 395.845 530.561C395.881 530.84 396.061 531.046 396.301 531.132ZM392.243 513.683C392.393 513.737 392.56 513.743 392.719 513.676C393.089 513.541 393.312 513.106 393.184 512.705C392.291 509.9 391.292 507.058 390.181 504.246C390.027 503.871 389.618 503.69 389.237 503.856C388.857 504.022 388.678 504.473 388.832 504.848C389.925 507.617 390.92 510.423 391.789 513.202C391.881 513.465 392.048 513.614 392.243 513.683ZM200.976 433.445C201.126 433.499 201.314 433.495 201.473 433.427C204.208 432.308 206.967 431.215 209.671 430.228C210.061 430.083 210.264 429.658 210.136 429.257C210.009 428.856 209.605 428.659 209.215 428.804C206.49 429.802 203.701 430.884 200.961 432.019C200.586 432.169 200.393 432.615 200.526 433C200.629 433.232 200.781 433.375 200.976 433.445ZM385.752 497.124C385.932 497.189 386.141 497.174 386.326 497.081C386.683 496.888 386.846 496.432 386.671 496.067C385.423 493.402 384.064 490.715 382.657 488.117C382.462 487.763 382.015 487.639 381.668 487.853C381.321 488.066 381.188 488.534 381.383 488.888C382.781 491.465 384.121 494.109 385.36 496.754C385.445 496.944 385.587 497.065 385.752 497.124ZM217.543 427.373C217.678 427.422 217.845 427.428 217.999 427.376C220.807 426.479 223.628 425.639 226.405 424.873C226.799 424.765 227.047 424.356 226.955 423.95C226.863 423.544 226.476 423.3 226.082 423.408C223.29 424.169 220.433 425.014 217.62 425.927C217.235 426.056 217.003 426.47 217.115 426.866C217.162 427.113 217.333 427.298 217.543 427.373ZM377.305 481.59C377.516 481.665 377.744 481.64 377.947 481.499C378.284 481.264 378.382 480.802 378.172 480.443C376.609 477.949 374.974 475.465 373.27 473.081C373.034 472.748 372.58 472.693 372.252 472.949C371.924 473.204 371.856 473.677 372.093 474.01C373.766 476.384 375.412 478.836 376.951 481.303C377.037 481.441 377.155 481.536 377.305 481.59ZM234.504 422.757C234.624 422.8 234.756 422.811 234.883 422.785C237.732 422.151 240.619 421.601 243.447 421.12C243.845 421.048 244.132 420.671 244.076 420.261C244.019 419.85 243.665 419.563 243.267 419.635C240.403 420.121 237.511 420.687 234.631 421.311C234.243 421.403 233.981 421.806 234.043 422.201C234.099 422.47 234.279 422.676 234.504 422.757ZM367.115 467.243C367.355 467.329 367.625 467.283 367.829 467.09C368.148 466.813 368.18 466.345 367.938 466.028C366.099 463.738 364.177 461.489 362.202 459.345C361.933 459.054 361.463 459.046 361.174 459.333C360.885 459.621 360.868 460.094 361.131 460.401C363.077 462.534 364.989 464.762 366.803 467.026C366.901 467.131 367.009 467.206 367.115 467.243ZM251.774 419.884C251.864 419.916 251.974 419.938 252.081 419.923C254.97 419.604 257.881 419.365 260.743 419.215C261.139 419.196 261.471 418.836 261.45 418.42C261.444 418.009 261.101 417.691 260.705 417.71C257.822 417.87 254.881 418.099 251.972 418.427C251.565 418.477 251.284 418.839 251.304 419.255C251.335 419.549 251.518 419.793 251.774 419.884ZM355.333 454.318C355.588 454.409 355.9 454.343 356.115 454.118C356.395 453.809 356.382 453.325 356.093 453.044C353.991 451.015 351.807 449.028 349.599 447.157C349.299 446.907 348.841 446.957 348.577 447.271C348.307 447.601 348.361 448.064 348.656 448.329C350.84 450.174 352.999 452.135 355.091 454.143C355.159 454.238 355.243 454.286 355.333 454.318ZM269.186 418.98C269.261 419.006 269.342 419.017 269.407 419.023C272.309 419.047 275.207 419.176 278.041 419.389C278.435 419.423 278.801 419.11 278.831 418.694C278.876 418.284 278.585 417.914 278.185 417.895C275.321 417.672 272.382 417.564 269.45 417.529C269.045 417.526 268.709 417.85 268.694 418.271C268.698 418.592 268.901 418.878 269.186 418.98ZM342.054 443.078C342.354 443.185 342.697 443.077 342.9 442.794C343.14 442.453 343.07 441.984 342.749 441.746C340.404 440.02 337.986 438.358 335.549 436.795C335.208 436.567 334.757 436.69 334.542 437.057C334.332 437.408 334.416 437.883 334.763 438.095C337.176 439.631 339.564 441.283 341.885 442.982C341.924 443.014 341.979 443.051 342.054 443.078ZM286.496 420.259C286.541 420.275 286.586 420.291 286.636 420.291C289.474 420.683 292.333 421.206 295.134 421.798C295.526 421.884 295.91 421.613 296.006 421.203C296.102 420.794 295.858 420.387 295.46 420.316C292.629 419.714 289.75 419.201 286.882 418.798C286.478 418.743 286.103 419.035 286.043 419.44C285.98 419.808 286.181 420.146 286.496 420.259ZM327.415 433.749C327.745 433.867 328.12 433.717 328.31 433.376C328.51 433.004 328.384 432.55 328.026 432.369C325.477 430.979 322.863 429.674 320.226 428.483C319.856 428.334 319.425 428.499 319.254 428.882C319.084 429.265 319.245 429.713 319.609 429.879C322.202 431.053 324.8 432.354 327.325 433.717C327.355 433.728 327.385 433.738 327.415 433.749ZM303.438 423.893L303.483 423.909C305.8 424.576 308.134 425.338 310.415 426.152L311.661 426.597C312.036 426.731 312.448 426.523 312.589 426.13C312.729 425.736 312.547 425.298 312.172 425.164L310.917 424.698C308.606 423.873 306.237 423.116 303.905 422.443C303.524 422.325 303.115 422.57 302.99 422.969C302.885 423.358 303.078 423.764 303.438 423.893Z" fill="#FFD756"/>
<path d="M407.598 551.573C407.973 551.707 408.386 551.499 408.526 551.105C408.835 550.239 409.16 549.378 409.469 548.512C410.178 546.527 410.871 544.537 411.535 542.537C411.675 542.143 411.514 541.695 411.092 541.597C410.711 541.479 410.298 541.687 410.173 542.086C409.494 544.081 408.821 546.061 408.118 548.029C407.809 548.896 407.5 549.762 407.176 550.623C407.041 551.001 407.228 551.423 407.598 551.573ZM413.378 534.387C413.393 534.392 413.393 534.392 413.408 534.398C413.789 534.516 414.192 534.287 414.318 533.888C415.195 531.005 416.059 528.064 416.87 525.175C416.981 524.77 416.758 524.353 416.371 524.251C415.985 524.148 415.576 524.393 415.465 524.797C414.654 527.686 413.816 530.601 412.93 533.463C412.825 533.852 413.018 534.258 413.378 534.387ZM418.247 516.912C418.262 516.917 418.292 516.928 418.322 516.938C418.708 517.041 419.108 516.775 419.203 516.365C419.94 513.45 420.648 510.471 421.3 507.507C421.396 507.097 421.161 506.711 420.754 506.619C420.362 506.533 419.977 506.804 419.882 507.214C419.221 510.156 418.518 513.119 417.802 516.025C417.712 516.419 417.902 516.788 418.247 516.912ZM422.208 499.183C422.238 499.194 422.283 499.21 422.318 499.205C422.716 499.276 423.1 499.005 423.181 498.589C423.767 495.62 424.314 492.619 424.82 489.639C424.901 489.223 424.63 488.843 424.227 488.788C423.824 488.732 423.454 489.009 423.389 489.43C422.889 492.394 422.327 495.39 421.746 498.343C421.682 498.711 421.877 499.065 422.208 499.183ZM425.257 481.306C425.302 481.322 425.347 481.339 425.397 481.339C425.786 481.389 426.161 481.096 426.226 480.676C426.666 477.69 427.052 474.667 427.411 471.67C427.456 471.26 427.18 470.895 426.771 470.855C426.378 470.821 426.018 471.119 425.967 471.545C425.613 474.526 425.213 477.544 424.778 480.514C424.741 480.856 424.942 481.194 425.257 481.306ZM427.424 463.293C427.484 463.314 427.55 463.32 427.61 463.341C428.009 463.36 428.369 463.062 428.399 462.646C428.687 459.659 428.932 456.604 429.14 453.606C429.17 453.19 428.873 452.836 428.474 452.817C428.074 452.799 427.724 453.118 427.694 453.533C427.486 456.531 427.232 459.566 426.949 462.537C426.912 462.879 427.109 463.18 427.424 463.293ZM428.676 445.236C428.751 445.263 428.817 445.269 428.898 445.28C429.303 445.282 429.638 444.958 429.653 444.537C429.789 441.549 429.892 438.514 429.959 435.483C429.974 435.063 429.651 434.734 429.246 434.732C428.84 434.729 428.514 435.074 428.499 435.495C428.438 438.51 428.336 441.545 428.205 444.518C428.194 444.833 428.391 445.134 428.676 445.236ZM429.058 427.153C429.133 427.18 429.229 427.196 429.315 427.192C429.711 427.173 430.037 426.828 430.031 426.418C430.021 423.413 429.977 420.361 429.896 417.366C429.89 416.956 429.547 416.638 429.151 416.656C428.75 416.69 428.438 417.041 428.444 417.451C428.531 420.43 428.581 423.467 428.576 426.466C428.58 426.787 428.773 427.051 429.058 427.153ZM428.567 409.096C428.657 409.128 428.753 409.145 428.86 409.13C429.261 409.095 429.578 408.729 429.543 408.308C429.396 405.308 429.194 402.27 428.97 399.296C428.934 398.874 428.585 398.572 428.193 398.628C427.792 398.662 427.484 399.049 427.526 399.455C427.75 402.429 427.942 405.446 428.089 408.446C428.113 408.756 428.297 409 428.567 409.096ZM427.218 391.123C427.323 391.161 427.434 391.182 427.546 391.151C427.938 391.096 428.24 390.724 428.204 390.303C427.905 387.302 427.576 384.29 427.21 381.336C427.153 380.925 426.799 380.638 426.401 380.71C426.003 380.781 425.717 381.158 425.773 381.569C426.13 384.502 426.465 387.498 426.764 390.499C426.773 390.804 426.963 391.032 427.218 391.123ZM425.034 373.26C425.139 373.298 425.27 373.309 425.398 373.284C425.795 373.213 426.073 372.814 426.016 372.404C425.584 369.444 425.098 366.447 424.603 363.518C424.532 363.102 424.166 362.847 423.763 362.933C423.36 363.02 423.097 363.424 423.174 363.824C423.674 366.737 424.146 369.729 424.583 372.673C424.598 372.963 424.794 373.175 425.034 373.26ZM421.998 355.555C422.118 355.598 422.249 355.61 422.397 355.574C422.786 355.481 423.048 355.078 422.956 354.672C422.385 351.769 421.786 348.803 421.14 345.873C421.048 345.467 420.662 345.223 420.268 345.331C419.874 345.439 419.626 345.848 419.718 346.253C420.364 349.183 420.975 352.118 421.531 355.016C421.593 355.269 421.773 355.475 421.998 355.555ZM418.165 338.045C418.3 338.093 418.452 338.094 418.6 338.059C418.994 337.951 419.232 337.521 419.134 337.131C418.417 334.211 417.664 331.296 416.904 328.45C416.791 328.054 416.399 327.826 416.015 327.955C415.63 328.084 415.398 328.498 415.51 328.893C416.276 331.724 417.014 334.633 417.737 337.537C417.763 337.795 417.955 337.97 418.165 338.045ZM413.518 320.777C413.668 320.831 413.82 320.832 413.989 320.785C414.373 320.656 414.596 320.221 414.469 319.82C413.622 316.979 412.757 314.095 411.839 311.263C411.705 310.878 411.302 310.681 410.917 310.81C410.527 310.955 410.325 311.38 410.453 311.781C411.355 314.607 412.227 317.475 413.064 320.295C413.146 320.538 413.308 320.702 413.518 320.777ZM408.081 303.778C408.231 303.831 408.413 303.843 408.578 303.76C408.954 303.61 409.162 303.169 409.013 302.779C408.048 299.984 407.044 297.157 406.008 294.372C405.875 293.987 405.445 293.816 405.07 293.966C404.689 294.132 404.502 294.562 404.65 294.952C405.677 297.716 406.681 300.543 407.652 303.322C407.719 303.56 407.886 303.708 408.081 303.778ZM401.874 287.089C402.039 287.148 402.227 287.144 402.407 287.066C402.772 286.895 402.965 286.449 402.812 286.074C401.714 283.32 400.57 280.551 399.42 277.849C399.266 277.474 398.831 277.319 398.465 277.49C398.099 277.662 397.936 278.118 398.09 278.493C399.241 281.195 400.374 283.943 401.472 286.697C401.542 286.882 401.694 287.025 401.874 287.089ZM394.92 270.738C395.1 270.802 395.293 270.782 395.479 270.689C395.85 270.501 395.993 270.055 395.839 269.681C394.623 266.973 393.356 264.266 392.082 261.627C391.907 261.262 391.466 261.123 391.11 261.315C390.753 261.508 390.605 261.97 390.78 262.334C392.039 264.968 393.312 267.66 394.534 270.351C394.597 270.551 394.755 270.679 394.92 270.738ZM387.233 254.781C387.413 254.846 387.636 254.837 387.827 254.727C388.189 254.519 388.317 254.067 388.127 253.698C386.782 251.069 385.406 248.429 384.008 245.852C383.813 245.498 383.366 245.374 383.019 245.588C382.672 245.802 382.545 246.253 382.735 246.623C384.118 249.194 385.499 251.818 386.844 254.447C386.925 254.6 387.068 254.722 387.233 254.781ZM378.833 239.21C379.028 239.28 379.257 239.255 379.454 239.13C379.801 238.916 379.919 238.443 379.709 238.084C378.254 235.523 376.749 232.961 375.242 230.452C375.027 230.109 374.589 230.006 374.252 230.241C373.914 230.475 373.802 230.932 374.012 231.291C375.51 233.779 377.015 236.341 378.469 238.902C378.535 239.05 378.683 239.156 378.833 239.21ZM369.733 224.081C369.944 224.156 370.187 224.137 370.375 223.991C370.713 223.756 370.816 223.278 370.594 222.95C369.035 220.493 367.421 217.999 365.79 215.553C365.575 215.209 365.111 215.133 364.783 215.388C364.445 215.623 364.357 216.107 364.594 216.44C366.224 218.886 367.838 221.38 369.388 223.816C369.465 223.932 369.598 224.033 369.733 224.081ZM359.974 209.427C360.199 209.508 360.448 209.472 360.657 209.316C360.985 209.06 361.052 208.587 360.831 208.259C359.163 205.87 357.434 203.46 355.704 201.102C355.468 200.769 355.008 200.729 354.68 200.985C354.367 201.246 354.3 201.719 354.536 202.052C356.266 204.41 357.979 206.815 359.653 209.189C359.715 209.299 359.839 209.379 359.974 209.427ZM349.569 195.253C349.794 195.334 350.064 195.288 350.278 195.116C350.591 194.855 350.644 194.376 350.402 194.059C348.595 191.727 346.767 189.405 344.962 187.163C344.705 186.84 344.255 186.821 343.942 187.082C343.623 187.359 343.591 187.827 343.833 188.145C345.638 190.387 347.471 192.693 349.248 195.015C349.34 195.136 349.449 195.21 349.569 195.253ZM338.553 181.607C338.793 181.693 339.063 181.647 339.283 181.459C339.587 181.177 339.618 180.709 339.361 180.386C337.485 178.153 335.567 175.942 333.623 173.756C333.361 173.449 332.89 173.441 332.601 173.728C332.297 174.011 332.275 174.5 332.543 174.791C334.487 176.977 336.39 179.183 338.257 181.395C338.339 181.495 338.448 181.569 338.553 181.607ZM326.956 168.499C327.211 168.59 327.502 168.534 327.712 168.325C328 168.037 328.023 167.548 327.754 167.257C325.779 165.113 323.777 162.995 321.734 160.899C321.45 160.602 320.989 160.615 320.709 160.924C320.415 161.227 320.413 161.706 320.702 161.986C322.73 164.078 324.732 166.196 326.699 168.318C326.766 168.413 326.851 168.461 326.956 168.499ZM314.801 155.955C315.056 156.046 315.368 155.98 315.583 155.755C315.863 155.446 315.865 154.968 315.576 154.687C313.51 152.653 311.409 150.624 309.287 148.606C308.992 148.341 308.531 148.354 308.266 148.668C307.987 148.976 308 149.46 308.295 149.725C310.407 151.723 312.494 153.746 314.559 155.78C314.617 155.854 314.711 155.923 314.801 155.955ZM302.126 143.971C302.396 144.068 302.713 143.986 302.919 143.74C303.183 143.426 303.17 142.942 302.861 142.671C300.71 140.732 298.525 138.797 296.313 136.888C296.003 136.618 295.561 136.673 295.29 137.003C295.02 137.333 295.06 137.791 295.37 138.061C297.567 139.964 299.737 141.893 301.887 143.833C301.951 143.891 302.036 143.939 302.126 143.971ZM288.938 132.569C289.223 132.67 289.546 132.572 289.752 132.326C290.007 131.991 289.968 131.533 289.658 131.263C287.423 129.417 285.168 127.582 282.887 125.773C282.572 125.519 282.124 125.59 281.869 125.925C281.613 126.26 281.668 126.723 281.983 126.978C284.265 128.787 286.51 130.601 288.73 132.441C288.809 132.505 288.863 132.542 288.938 132.569ZM275.304 121.752C275.604 121.859 275.948 121.751 276.129 121.478C276.369 121.138 276.315 120.675 275.994 120.436C273.69 118.69 271.366 116.954 269 115.239C268.679 115.001 268.225 115.087 267.985 115.428C267.745 115.768 267.815 116.237 268.151 116.481C270.501 118.191 272.816 119.905 275.12 121.651C275.184 121.709 275.244 121.731 275.304 121.752ZM261.248 111.549C261.549 111.656 261.912 111.537 262.1 111.249C262.325 110.903 262.255 110.434 261.914 110.206C259.541 108.559 257.147 106.923 254.721 105.329C254.38 105.101 253.935 105.208 253.704 105.57C253.479 105.916 253.564 106.39 253.905 106.618C256.326 108.228 258.71 109.843 261.083 111.49C261.128 111.506 261.188 111.527 261.248 111.549ZM246.776 101.942C247.091 102.055 247.455 101.936 247.639 101.611C247.849 101.26 247.759 100.801 247.417 100.573C244.975 99.0261 242.527 97.4949 240.037 95.9846C239.69 95.7719 239.255 95.9006 239.039 96.2676C238.829 96.6188 238.934 97.0826 239.282 97.2953C241.756 98.8002 244.21 100.316 246.638 101.857C246.686 101.91 246.731 101.926 246.776 101.942ZM231.948 92.9545C232.278 93.0724 232.648 92.938 232.831 92.6129C233.032 92.2406 232.921 91.7926 232.569 91.5956C230.072 90.1537 227.554 88.7221 225.01 87.3166C224.657 87.1197 224.217 87.2642 224.016 87.6365C223.815 88.0088 223.941 88.4622 224.294 88.6591C226.838 90.0646 229.34 91.4908 231.822 92.9274C231.858 92.9224 231.903 92.9385 231.948 92.9545ZM216.775 84.554C217.105 84.6719 217.495 84.527 217.669 84.1809C217.855 83.8032 217.729 83.3498 217.371 83.1686C214.825 81.8158 212.253 80.4891 209.655 79.1885C209.302 78.9916 208.865 79.173 208.685 79.5349C208.5 79.9126 208.64 80.3713 209.004 80.5367C211.588 81.8319 214.16 83.1586 216.69 84.5061C216.715 84.5326 216.745 84.5433 216.775 84.554ZM201.302 76.7566C201.647 76.8799 202.043 76.7193 202.207 76.352C202.378 75.969 202.232 75.526 201.873 75.3448C199.273 74.0969 196.668 72.8647 194.021 71.6533C193.651 71.5036 193.22 71.6692 193.055 72.0365C192.884 72.4195 193.045 72.8678 193.409 73.0333C196.041 74.2393 198.653 75.4558 201.238 76.6984C201.262 76.7248 201.272 76.7459 201.302 76.7566ZM185.555 69.5364C185.915 69.665 186.316 69.4887 186.466 69.116C186.637 68.733 186.47 68.3004 186.106 68.135C183.472 66.9815 180.812 65.8542 178.125 64.753C177.797 64.5826 177.334 64.7901 177.163 65.1731C177.008 65.5615 177.175 65.994 177.544 66.1437C180.225 67.2607 182.87 68.3826 185.51 69.5203C185.525 69.5257 185.54 69.531 185.555 69.5364ZM128.615 48.8343C128.63 48.8397 128.645 48.8451 128.645 48.8451C131.427 49.6785 134.173 50.5169 136.908 51.3869C137.289 51.5051 137.707 51.2815 137.833 50.8824C137.958 50.4832 137.72 50.0608 137.375 49.9375C134.64 49.0676 131.878 48.2238 129.096 47.3904C128.716 47.2722 128.307 47.5169 128.181 47.916C128.076 48.3047 128.269 48.7111 128.615 48.8343ZM169.543 62.9143C169.904 63.0429 170.326 62.8561 170.466 62.4624C170.622 62.074 170.44 61.6361 170.07 61.4864C167.403 60.4275 164.694 59.3893 161.974 58.3826L161.959 58.3773C161.583 58.2433 161.171 58.4512 161.03 58.8449C160.89 59.2387 161.072 59.6766 161.447 59.8105C164.167 60.8172 166.861 61.85 169.528 62.9089L169.543 62.9143ZM145.132 54.0389C147.901 54.9565 150.613 55.8894 153.315 56.8538C153.69 56.9878 154.103 56.78 154.243 56.3862C154.384 55.9925 154.196 55.5703 153.821 55.4363C151.114 54.4876 148.371 53.544 145.623 52.6161C145.242 52.4979 144.83 52.7057 144.704 53.1048C144.564 53.4986 144.772 53.9103 145.132 54.0389Z" fill="#FFD756"/>
</svg>
