<svg width="476" height="636" viewBox="0 0 476 636" fill="none" xmlns="http://www.w3.org/2000/svg">
<path d="M23.9996 377.338L19.8916 383.662L14.155 383.866L14.9193 382.695C15.5084 381.791 15.4601 380.688 14.8065 380.236C14.1688 379.785 13.1651 380.137 12.5919 381.023L11.2863 383.031C11.0952 383.332 10.9679 383.667 10.9043 383.984L2.68189 384.273L0.182076 388.121L15.29 390.722L10.0356 398.819C9.68532 399.354 9.41471 399.906 9.2397 400.425L8.15704 402.231L1.44864 402.837L0.0156132 405.029L7.29875 406.463L11.2063 413.033L12.6712 410.775L10.612 403.986L11.9497 402.363C12.3479 401.995 12.7301 401.527 13.0804 400.991L18.2711 393.011L26.1025 406.804L28.6023 402.957L25.8093 394.713C26.0961 394.546 26.3668 394.295 26.5738 393.96L27.8795 391.953C28.4527 391.05 28.4043 389.946 27.7666 389.495C27.129 389.043 26.1253 389.395 25.552 390.282L24.74 391.536L22.8408 385.952L27.0284 379.528C28.1907 377.738 28.4606 375.781 27.6157 375.179C26.8027 374.578 25.1619 375.548 23.9996 377.338Z" fill="#0F398B"/>
<path d="M440.322 28.6453L428.499 31.3573L421.123 24.7744L423.329 24.2709C425.002 23.8866 426.113 22.4955 425.799 21.1873C425.484 19.8791 423.856 19.1107 422.183 19.495L418.429 20.3557C417.866 20.4856 417.363 20.7362 416.954 21.0598L406.372 11.6085L399.176 13.2542L415.298 34.3832L400.173 37.8477C399.173 38.0803 398.264 38.4229 397.478 38.8279L394.206 39.7118L385.195 32.4342L381.079 33.3709L388.666 43.7674L386.597 56.3147L390.803 55.3459L395.422 44.7292L398.814 44.3707C399.706 44.4071 400.671 44.3115 401.67 44.0788L416.595 40.6683L411.773 66.5934L418.969 64.9477L424.209 51.7118C424.746 51.8399 425.344 51.8571 425.952 51.7112L429.706 50.8505C431.379 50.4662 432.49 49.0752 432.175 47.7669C431.86 46.4587 430.232 45.6904 428.559 46.0747L426.227 46.6053L429.775 37.6319L441.805 34.8818C445.151 34.1132 447.541 32.0878 447.131 30.3698C446.741 28.6621 443.654 27.8821 440.322 28.6453Z" fill="#0F398B"/>
<path d="M367.5 52C267.333 119.333 90.0001 304.7 182 507.5C274 710.3 410 626 475 558.5" stroke="#FFD756" stroke-width="1.5" stroke-linecap="round" stroke-linejoin="round" stroke-dasharray="10 10"/>
</svg>
