<svg width="40" height="40" viewBox="0 0 40 40" fill="none" xmlns="http://www.w3.org/2000/svg">
<path d="M20 40C31.0457 40 40 31.0457 40 20C40 8.9543 31.0457 0 20 0C8.9543 0 0 8.9543 0 20C0 31.0457 8.9543 40 20 40Z" fill="#F0F0F0"/>
<path d="M19.9998 0C12.0706 0 5.21938 4.61445 1.98438 11.3044H38.0152C34.7803 4.61445 27.929 0 19.9998 0Z" fill="#338AF3"/>
<path d="M19.9998 39.9997C27.929 39.9997 34.7803 35.3852 38.0153 28.6953H1.98438C5.21938 35.3852 12.0706 39.9997 19.9998 39.9997Z" fill="#338AF3"/>
<path d="M25.9777 20.0009L23.5351 21.1499L24.8358 23.5155L22.1835 23.0081L21.8474 25.6874L19.9999 23.7168L18.1524 25.6874L17.8164 23.0081L15.1641 23.5154L16.4647 21.1499L14.0222 20.0009L16.4648 18.852L15.1641 16.4865L17.8164 16.9938L18.1525 14.3145L19.9999 16.2851L21.8474 14.3145L22.1835 16.9938L24.8359 16.4865L23.5352 18.852L25.9777 20.0009Z" fill="#FFDA44"/>
</svg>
