<svg width="48" height="48" viewBox="0 0 48 48" fill="none" xmlns="http://www.w3.org/2000/svg">
<path d="M44.6971 16.9631C41.1826 5.73653 29.1928 -0.537323 17.9641 2.97579C6.73681 6.49033 0.462193 18.4829 3.97606 29.7095L5.35572 29.2773C2.07961 18.8118 7.92928 7.63146 18.3962 4.35468C23.4668 2.76835 28.8517 3.25109 33.5573 5.7134C38.265 8.17715 41.7311 12.3254 43.3182 17.3953C44.9045 22.4651 44.4225 27.8493 41.9595 32.5563C39.4972 37.264 35.3489 40.7302 30.2784 42.3173C21.7916 44.9732 12.4889 41.6191 7.65034 34.1593L6.43761 34.9457C10.4371 41.1133 17.2826 44.6647 24.3789 44.6639C26.4892 44.6639 28.6233 44.3502 30.7098 43.6955C36.1482 41.9935 40.598 38.2752 43.2402 33.2263C45.8824 28.1774 46.3991 22.4015 44.6971 16.9631Z" fill="#00B7BD" stroke="#00B7BD" stroke-width="0.5"/>
<path d="M20.1466 12.1182L20.5615 10.7334L13.3344 8.56531C13.0814 8.48871 12.8046 8.55811 12.616 8.74673L11.1706 10.1921C11.0022 10.3605 10.9277 10.6012 10.9711 10.8354C11.0145 11.0695 11.1706 11.2668 11.3881 11.3637L17.8925 14.2545L18.4794 12.9334L12.937 10.4696L13.333 10.0736L20.1466 12.1182Z" fill="#00B7BD" stroke="#00B7BD" stroke-width="0.5"/>
<path d="M26.8597 7.81267C26.8597 7.41374 26.5366 7.08997 26.137 7.08997C26.1363 7.08997 26.1363 7.08997 26.1356 7.08997C24.5456 7.08997 23.0503 7.70929 21.9258 8.83389L15.7972 14.9618L13.3032 14.338C13.0567 14.2766 12.7965 14.3481 12.6165 14.5281L11.1711 15.9735C11.0136 16.131 10.937 16.3522 10.9645 16.5726C10.9919 16.793 11.1191 16.9896 11.3099 17.1039L14.7688 19.1794L16.8444 22.6383C16.9586 22.8291 17.1544 22.9563 17.3756 22.9838C17.4045 22.9874 17.4341 22.9889 17.4638 22.9889C17.6539 22.9889 17.8382 22.9137 17.9755 22.7779L19.4209 21.3325C19.6001 21.1525 19.6724 20.8923 19.611 20.6459L18.988 18.1546L25.2142 11.9899C26.2765 10.8776 26.8612 9.41636 26.8597 7.81267ZM17.6777 17.416C17.4963 17.5952 17.4233 17.8569 17.4847 18.1047L18.1085 20.5988L17.6069 21.1004L15.915 18.2804C15.8536 18.1785 15.769 18.0932 15.6672 18.0325L12.8472 16.3406L13.3487 15.8391L15.8428 16.4628C16.0892 16.5243 16.3495 16.4527 16.5294 16.2728L22.9471 9.85512C23.612 9.18953 24.4488 8.75806 25.3566 8.60121C25.2135 9.49449 24.8066 10.3227 24.1822 10.9768L17.6777 17.416Z" fill="#00B7BD" stroke="#00B7BD" stroke-width="0.5"/>
<path d="M25.3862 20.7094L23.2181 13.3884L21.8319 13.799L23.8692 20.6777L23.4305 21.0652L21.021 15.4757L19.6934 16.0481L22.4975 22.5525C22.5893 22.765 22.7772 22.9211 23.0034 22.9717C23.0561 22.9832 23.1089 22.9891 23.1616 22.9891C23.3359 22.9891 23.5063 22.9262 23.6394 22.8084L25.1716 21.457C25.3825 21.271 25.4657 20.9797 25.3862 20.7094Z" fill="#00B7BD" stroke="#00B7BD" stroke-width="0.5"/>
<path d="M16.7636 41.8496C11.6164 44.2886 7.57866 44.6038 5.68805 42.7139C2.41127 39.4371 5.96988 29.9169 13.9652 20.568L12.8667 19.6284C4.09741 29.8822 0.724539 39.7956 4.66547 43.7358C5.76618 44.8358 7.32073 45.3843 9.24887 45.3843C11.4965 45.3843 14.2514 44.6393 17.3822 43.1555L16.7636 41.8496Z" fill="#00B7BD" stroke="#00B7BD" stroke-width="0.5"/>
<path d="M41.229 26.984C41.1033 26.7491 40.8583 26.6024 40.5915 26.6024H38.1474L36.1787 22.6658C36.0559 22.4208 35.8058 22.2661 35.5319 22.2661H28.3047C27.905 22.2661 27.582 22.5899 27.582 22.9888V28.7705C27.582 29.1702 27.9051 29.4932 28.3047 29.4932H30.4728V37.4431C30.4728 37.8428 30.7959 38.1658 31.1955 38.1658H34.8091C35.0006 38.1658 35.1842 38.0898 35.3208 37.9533L38.2116 35.0624C38.3474 34.9273 38.4234 34.7437 38.4234 34.5515V31.8796L41.1927 27.7255C41.3403 27.5043 41.3548 27.2189 41.229 26.984ZM37.0987 31.2603C37.0199 31.3788 36.9773 31.519 36.9773 31.6614V34.253L34.51 36.7204H31.9183H31.9176V28.7705C31.9176 28.3708 31.5946 28.0478 31.1949 28.0478H29.0268V23.7116H35.0845L37.0532 27.6482C37.1761 27.8932 37.4261 28.0479 37.7 28.0479H39.2408L37.0987 31.2603Z" fill="#00B7BD" stroke="#00B7BD" stroke-width="0.5"/>
<path d="M41.7344 20.8207L39.0517 16.126C38.9231 15.9005 38.6831 15.7617 38.4244 15.7617H34.0882C33.8468 15.7617 33.6213 15.8824 33.4869 16.0833L32.2562 17.9298H30.4747V14.3163H34.0882C34.2805 14.3163 34.4633 14.2404 34.5992 14.1046L37.2782 11.4255H40.5926V9.9801H36.979C36.7868 9.9801 36.6039 10.056 36.4681 10.1919L33.789 12.8709H29.752C29.3523 12.8709 29.0293 13.1947 29.0293 13.5936V18.6525C29.0293 19.0515 29.3524 19.3753 29.752 19.3753H32.6428C32.8842 19.3753 33.1097 19.2546 33.2441 19.0537L34.4749 17.2071H38.0053L40.6881 21.9019C40.8167 22.1274 41.0567 22.2662 41.3153 22.2662H44.2062V20.8207H41.7344Z" fill="#00B7BD" stroke="#00B7BD" stroke-width="0.5"/>
<path d="M23.9714 28.0479H19.9344L17.978 26.0915C17.8429 25.9556 17.6586 25.8798 17.4671 25.8798H13.8536C13.4546 25.8798 13.1309 26.2029 13.1309 26.6025V31.6614C13.1309 32.0611 13.4546 32.3841 13.8536 32.3841H16.7444V39.6112C16.7444 39.8852 16.899 40.1352 17.1441 40.258C17.246 40.3086 17.3573 40.3339 17.4672 40.3339C17.6204 40.3339 17.7729 40.2855 17.9008 40.1894L20.7916 38.0213C20.9737 37.8847 21.0807 37.67 21.0807 37.4431V35.6219L24.4232 32.9486C24.5945 32.8113 24.6942 32.6039 24.6942 32.3842V28.7707C24.6941 28.371 24.3703 28.0479 23.9714 28.0479ZM23.2487 32.0373L19.9062 34.7106C19.7349 34.8479 19.6352 35.0553 19.6352 35.275V37.0818L18.1898 38.1659V31.6615C18.1898 31.2618 17.866 30.9388 17.4671 30.9388H14.5763V27.3253H17.1679L19.1242 29.2816C19.2594 29.4174 19.4437 29.4934 19.6352 29.4934H23.2487V32.0373Z" fill="#00B7BD" stroke="#00B7BD" stroke-width="0.5"/>
<path d="M9.41271 17.5582L7.2446 13.9447C7.11453 13.7272 6.87889 13.5941 6.62528 13.5941H5.90257V15.0395H6.21626L7.88359 17.8183L6.11441 19.5875C5.97849 19.7227 5.90266 19.9069 5.90266 20.0985V22.2666H3.73438V23.712H6.62519C7.02412 23.712 7.34789 23.3882 7.34789 22.9893V20.3977L9.30425 18.4413C9.53846 18.2064 9.58329 17.8429 9.41271 17.5582Z" fill="#00B7BD" stroke="#00B7BD" stroke-width="0.5"/>
<path d="M25.4162 2.7533V3.63496L23.0725 4.22107C22.9922 4.24133 22.9156 4.2753 22.847 4.32081L21.0279 5.53353L17.0667 3.5526L16.4199 4.84549L20.7561 7.0136C20.8581 7.06418 20.9687 7.08952 21.0792 7.08952C21.2195 7.08952 21.359 7.04834 21.4796 6.96809L23.5437 5.59208L26.3138 4.89972C26.6354 4.81947 26.8616 4.53044 26.8616 4.1987V2.7533H25.4162Z" fill="#00B7BD" stroke="#00B7BD" stroke-width="0.5"/>
</svg>
