<svg width="105" height="78" viewBox="0 0 105 78" fill="none" xmlns="http://www.w3.org/2000/svg">
<path d="M38.4743 22.0882L37.4618 18.2246C35.2711 18.8217 33.0922 19.5622 30.9863 20.4247L32.4477 24.1356C34.4092 23.3326 36.436 22.6442 38.4743 22.0882Z" fill="#00B7BD"/>
<path d="M26.7039 26.9077L24.8171 23.4021C22.8298 24.515 20.8866 25.7634 19.041 27.113L21.3272 30.3619C23.0459 29.1057 24.8544 27.9435 26.7039 26.9077Z" fill="#00B7BD"/>
<path d="M9 36.516L11.9808 39.1139C13.3533 37.4765 14.8389 35.9077 16.3949 34.4513L13.7434 31.5056C12.071 33.0705 10.475 34.7557 9 36.516Z" fill="#00B7BD"/>
<path d="M93.6355 34.9062L90.748 37.6113C92.178 39.1988 93.527 40.891 94.7589 42.6397L97.9452 40.3084C96.6211 38.4285 95.1722 36.6108 93.6355 34.9062Z" fill="#00B7BD"/>
<path d="M81.0977 29.2091C82.8564 30.3988 84.5647 31.7125 86.172 33.112L88.7181 30.0711C86.9908 28.5664 85.1556 27.1547 83.2635 25.8765L81.0977 29.2091Z" fill="#00B7BD"/>
<path d="M77.3516 22.3863C75.3254 21.3538 73.2133 20.4356 71.0703 19.6565L69.7539 23.4233C71.748 24.1477 73.7137 25.0021 75.5988 25.9633L77.3516 22.3863Z" fill="#00B7BD"/>
<path d="M41.8852 25.082L44.5503 25.0832L46.7718 21.6477L51.0495 21.6777L48.3562 31.1469V31.3709C48.3562 32.5667 49.3103 33.5402 50.4829 33.5402H54.3467L60.4782 21.9443L65.2172 22.1043C67.67 22.1043 69.6659 20.1415 69.6659 17.7303C69.6671 16.5455 69.1933 15.4356 68.3326 14.606C67.4974 13.8009 66.3922 13.3564 65.1706 13.3564C65.1686 13.3564 65.1674 13.3564 65.1668 13.3564L60.4376 13.5176L54.3479 2.00121L50.4776 2C49.3077 2.00333 48.3562 2.97716 48.3562 4.16988V4.393L51.0278 13.7866L46.7321 13.8247L44.5491 10.457L41.8858 10.4576C40.7918 10.4576 39.9023 11.3646 39.9023 12.4796V23.0603C39.9023 24.1756 40.7909 25.082 41.8852 25.082ZM42.9864 13.7543H42.9875L45.0828 16.9866L55.1267 16.898L51.7839 5.14703H52.5055L58.6299 16.7281L65.219 16.5034C65.5988 16.5034 65.9516 16.6422 66.2131 16.8935C66.4503 17.122 66.5804 17.4186 66.5804 17.7297C66.5804 18.4076 65.9688 18.9581 65.2688 18.9587L58.6706 18.7362L52.5049 30.3941H51.7833L55.1484 18.5612L45.1184 18.4898L42.9864 21.7841V13.7543Z" fill="#00B7BD"/>
<path d="M59.7902 40.5061C57.2235 39.9096 54.5996 39.6069 51.99 39.6069C35.5762 39.6069 21.5611 51.022 17.9097 67.3658C17.3425 69.9063 17.0588 72.465 17.0371 75.0095H20.959C20.9759 73.4186 21.1072 71.821 21.3622 70.2271C23.5674 70.8037 25.8391 71.7285 26.569 72.3359C26.5349 72.5938 26.4958 72.855 26.4561 73.1184C26.3677 73.7016 26.2725 74.3468 26.2331 75.0098H30.1674C30.2086 74.5566 30.2786 74.0789 30.3314 73.7276C30.404 73.2456 30.4758 72.7658 30.5208 72.3021C30.7645 69.7908 27.972 67.7827 22.2312 66.3279C25.389 55.3439 33.9265 47.1732 44.5148 44.5272C43.9313 45.6776 43.4614 47.101 43.2651 48.9017C43.1697 49.7842 43.0454 50.5812 42.9363 51.2829C42.4972 54.1128 42.043 57.0391 45.7956 58.7425C47.9 59.7009 49.3724 59.8596 50.5547 59.9854C51.1299 60.0468 51.6369 60.1015 52.1756 60.2421C52.3657 60.8918 52.2696 62.4794 52.2311 63.114C52.1821 63.9197 52.1323 64.7421 52.3737 65.4139C52.6135 66.7868 53.6088 71.1353 56.9113 75.0083H62.8128C57.1399 71.2315 56.2362 64.7747 56.1989 64.4908L56.1185 63.8324C56.1262 63.6764 56.1363 63.5058 56.1452 63.3598C56.2712 61.2785 56.5066 57.4022 53.5969 56.4958C52.5919 56.1832 51.7279 56.0913 50.9657 56.0094C49.8728 55.8921 48.9297 55.7908 47.3928 55.0918C46.3868 54.6346 46.3868 54.6346 46.8099 51.9088C46.9255 51.1629 47.0568 50.3166 47.1621 49.341C47.4615 46.5879 48.5991 44.8431 49.6267 43.7C50.4077 43.6407 51.1951 43.6047 51.99 43.6047C54.3067 43.6047 56.638 43.8732 58.9197 44.4032C67.0113 46.2832 73.9012 51.263 78.3185 58.425C81.3124 63.2797 82.9235 68.7432 83.0797 74.3295C82.7536 74.5475 82.3477 74.7773 81.9113 75.0086H87.0031C86.9666 68.44 85.1527 61.996 81.6379 56.2969C76.6624 48.2317 68.9034 42.6234 59.7902 40.5061Z" fill="#00B7BD"/>
</svg>
