<svg width="78" height="78" viewBox="0 0 78 78" fill="none" xmlns="http://www.w3.org/2000/svg">
<path d="M73.2485 60.4354C73.7958 59.6438 74.1173 58.6849 74.1173 57.6517V53.2592C74.1173 50.553 71.9157 48.3514 69.2096 48.3514H67.5154C64.5866 48.3514 62.2038 50.7343 62.2038 53.6631V57.2477C62.2038 58.4076 62.5784 59.4811 63.2118 60.3555C62.2986 60.8513 61.5019 61.5343 60.8703 62.3511C60.2712 61.5764 59.5227 60.9236 58.668 60.4352C59.2153 59.6436 59.5368 58.6847 59.5368 57.6516V53.259C59.5368 50.5529 57.3352 48.3512 54.629 48.3512H52.9353C52.3254 48.3512 51.7397 48.4559 51.1937 48.646V42.6097H55.0663C55.9216 42.6097 56.6152 41.9162 56.6152 41.0607V33.3157C56.6152 32.4603 55.9216 31.7668 55.0663 31.7668H52.8976V25.0414C52.8976 20.3852 49.3373 16.994 44.038 16.3595C44.7965 15.1707 45.2299 13.69 45.2299 12.0296V9.31901C45.2299 5.07815 42.4124 2 38.5305 2H37.5236C33.6417 2 30.8242 5.07815 30.8242 9.31901V12.0298C30.8242 13.6902 31.2576 15.1709 32.0162 16.3597C26.7169 16.994 23.1565 20.3853 23.1565 25.0415V31.7669H20.9879C20.1324 31.7669 19.4389 32.4604 19.4389 33.3159V41.0609C19.4389 41.9165 20.1326 42.6098 20.9879 42.6098H24.8604V48.3514H23.7745C20.8456 48.3514 18.4628 50.7343 18.4628 53.6631V57.2477C18.4628 58.4076 18.8374 59.4811 19.4708 60.3555C18.5576 60.8513 17.761 61.5343 17.1294 62.3511C16.5303 61.5764 15.7817 60.9236 14.927 60.4352C15.4743 59.6436 15.7958 58.6847 15.7958 57.6516V53.259C15.7958 50.5529 13.5942 48.3512 10.888 48.3512H9.19419C6.26537 48.3512 3.88251 50.7341 3.88251 53.6629V57.2475C3.88251 58.4074 4.25716 59.4809 4.89055 60.3554C2.57537 61.6127 1 64.0659 1 66.8805V73.8151C1 74.6705 1.69365 75.364 2.54895 75.364H17.1294H31.7098H46.2902H60.8706H75.4511C76.3064 75.364 77 74.6705 77 73.8151V66.8805C77 64.1233 75.487 61.7142 73.2485 60.4354ZM6.9804 53.6632C6.9804 52.4426 7.97345 51.4496 9.19405 51.4496H10.8882C11.8858 51.4496 12.6979 52.2614 12.6979 53.2593V57.6519C12.6979 58.6495 11.8861 59.4615 10.8882 59.4615H9.19419C7.97359 59.4615 6.98055 58.4684 6.98055 57.2478V53.6632H6.9804ZM15.5806 72.2662H4.09804V66.8805C4.09804 64.4978 6.03648 62.5594 8.4192 62.5594H11.2594C13.6421 62.5594 15.5806 64.4978 15.5806 66.8805V72.2662ZM52.9353 51.4496H54.6294C55.6271 51.4496 56.4392 52.2614 56.4392 53.2593V57.6519C56.4392 58.6495 55.6274 59.4615 54.6294 59.4615H52.9353C51.7147 59.4615 50.7217 58.4684 50.7217 57.2478V53.6632C50.7217 52.4426 51.7147 51.4496 52.9353 51.4496ZM33.9223 9.31901C33.9223 7.21788 35.0358 5.09789 37.5236 5.09789H38.5305C41.0183 5.09789 42.1319 7.21788 42.1319 9.31901V12.0298C42.1319 14.1309 41.0183 16.2509 38.5305 16.2509H37.5236C35.0358 16.2509 33.9223 14.1309 33.9223 12.0298V9.31901ZM40.1514 19.3489L38.0271 22.6861L35.9029 19.3489H40.1514ZM26.2547 25.0415C26.2547 21.6513 29.0909 19.8769 32.296 19.4516L36.7204 26.4025C37.0047 26.8493 37.4975 27.1198 38.0271 27.1198C38.5568 27.1198 39.0496 26.8493 39.3338 26.4025L43.7583 19.4516C46.9634 19.8769 49.7996 21.6512 49.7996 25.0415V31.7669H47.0888V27.791C47.0888 26.9356 46.3952 26.2421 45.5399 26.2421C44.6846 26.2421 43.9909 26.9356 43.9909 27.791V31.7669H32.0635V27.791C32.0635 26.9356 31.3699 26.2421 30.5146 26.2421C29.6593 26.2421 28.9656 26.9356 28.9656 27.791V31.7669H26.2549V25.0415H26.2547ZM22.5369 39.5119V34.865H53.5172V39.5119H22.5369ZM21.5608 53.6632C21.5608 52.4426 22.5539 51.4496 23.7745 51.4496H25.4686C26.4662 51.4496 27.2783 52.2614 27.2783 53.2593V57.6519C27.2783 58.6495 26.4665 59.4615 25.4686 59.4615H23.7745C22.5539 59.4615 21.5608 58.4684 21.5608 57.2478V53.6632ZM30.161 72.2662H18.6786V66.8805H18.6785C18.6785 64.4978 20.6169 62.5594 22.9996 62.5594H25.8398C28.2225 62.5594 30.161 64.4978 30.161 66.8805V72.2662ZM44.7413 72.2662H33.2589V66.8805H33.2587C33.2587 64.4978 35.1972 62.5594 37.5799 62.5594H40.4201C42.8028 62.5594 44.7413 64.4978 44.7413 66.8805V72.2662ZM36.1412 57.2478V53.6632C36.1412 52.4426 37.1343 51.4496 38.3549 51.4496H40.049C41.0467 51.4496 41.8588 52.2614 41.8588 53.2593V57.6519C41.8588 58.6495 41.047 59.4615 40.049 59.4615H38.3549C37.1343 59.4613 36.1412 58.4683 36.1412 57.2478ZM46.2902 62.3511C45.6911 61.5764 44.9425 60.9236 44.0878 60.4352C44.6351 59.6438 44.9566 58.6847 44.9566 57.6516V53.259C44.9566 50.5529 42.755 48.3512 40.0489 48.3512H38.3547C35.4259 48.3512 33.0431 50.7341 33.0431 53.6629V57.2475C33.0431 58.4074 33.4177 59.4809 34.0511 60.3554C33.1379 60.8512 32.3412 61.5341 31.7096 62.351C31.1105 61.5763 30.362 60.9235 29.5073 60.4351C30.0546 59.6435 30.3761 58.6846 30.3761 57.6514V53.2589C30.3761 51.4613 29.404 49.8871 27.9583 49.0323V42.6095H48.0957V51.4779C47.7933 52.145 47.6235 52.8841 47.6235 53.6628V57.2474C47.6235 58.4073 47.9981 59.4808 48.6315 60.3552C47.7185 60.8515 46.9218 61.5344 46.2902 62.3511ZM59.3217 72.2662H47.8393V66.8805H47.8392C47.8392 64.4978 49.7776 62.5594 52.1603 62.5594H55.0005C57.3832 62.5594 59.3217 64.4978 59.3217 66.8805V72.2662ZM65.3019 53.6632C65.3019 52.4426 66.295 51.4496 67.5156 51.4496H69.2097C70.2074 51.4496 71.0195 52.2614 71.0195 53.2593V57.6519C71.0195 58.6495 70.2076 59.4615 69.2097 59.4615H67.5156C66.295 59.4615 65.3019 58.4684 65.3019 57.2478V53.6632ZM73.9021 72.2662H73.902H62.4196V66.8805C62.4196 64.4978 64.358 62.5594 66.7407 62.5594H69.5809C71.9637 62.5594 73.9021 64.4978 73.9021 66.8805V72.2662Z" fill="#00B7BD"/>
<path d="M38.0255 30.993C38.881 30.993 39.5744 30.2995 39.5744 29.4441C39.5744 28.5886 38.881 27.8951 38.0255 27.8951C37.17 27.8951 36.4766 28.5886 36.4766 29.4441C36.4766 30.2995 37.17 30.993 38.0255 30.993Z" fill="#00B7BD"/>
</svg>
