<svg width="48" height="48" viewBox="0 0 48 48" fill="none" xmlns="http://www.w3.org/2000/svg">
<path d="M40.3738 5H12.0702C11.7608 5 11.51 5.24955 11.51 5.55747V21.2094C11.51 21.5173 11.7608 21.7669 12.0702 21.7669C12.3792 21.7669 12.6303 21.5173 12.6303 21.2094V6.11494H39.8137V38.633C39.8137 40.2516 38.4901 41.5687 36.8637 41.5687C35.2371 41.5687 33.9138 40.2516 33.9138 38.633C33.9138 38.3251 33.6631 38.0755 33.3537 38.0755H21.9182C21.6091 38.0755 21.3581 38.3251 21.3581 38.633C21.3581 38.9406 21.6091 39.1902 21.9182 39.1902H32.832C32.9614 40.1208 33.4094 40.9511 34.0629 41.5687H12.0702C10.6348 41.5687 9.43596 40.5437 9.17367 39.1902H23.076C23.3851 39.1902 23.6362 38.9406 23.6362 38.633C23.6362 38.3251 23.3851 38.0755 23.076 38.0755H12.5852L12.63 20.0134C12.6311 19.7054 12.381 19.455 12.0716 19.4542H12.0699C11.7614 19.4542 11.5109 19.7026 11.51 20.0096L11.465 38.0752H8.56012C8.25074 38.0752 8 38.3248 8 38.6327C8 40.8663 9.82594 42.6836 12.0699 42.6836H36.8634C39.1079 42.6836 40.9336 40.8663 40.9336 38.6327V5.55747C40.9336 5.24955 40.6829 5 40.3738 5Z" fill="#00B7BD" stroke="#00B7BD" stroke-width="0.5"/>
<path d="M22.8252 13.3822C22.4995 13.0863 21.9786 13.0935 21.6621 13.3985L18.6436 16.3062L17.5887 15.2535C17.2778 14.9438 16.7573 14.9283 16.426 15.2186C16.0947 15.509 16.0777 15.9956 16.3882 16.3058L18.0332 17.9463C18.1872 18.0998 18.4014 18.1874 18.6262 18.1894H18.6334C18.8557 18.1894 19.0687 18.1049 19.2235 17.9558L22.8426 14.4694C23.1586 14.1648 23.151 13.6777 22.8252 13.3822Z" fill="#00B7BD" stroke="#00B7BD" stroke-width="0.5"/>
<path d="M22.8252 20.9188C22.4995 20.6229 21.9786 20.6301 21.6621 20.9351L18.6436 23.8428L17.5887 22.7905C17.2778 22.4808 16.7573 22.4649 16.426 22.7552C16.0947 23.046 16.0777 23.5326 16.3882 23.8424L18.0332 25.4829C18.1872 25.6364 18.4014 25.7244 18.6262 25.726H18.6334C18.8557 25.726 19.0687 25.6419 19.2235 25.4924L22.8426 22.0064C23.1586 21.7014 23.151 21.2147 22.8252 20.9188Z" fill="#00B7BD" stroke="#00B7BD" stroke-width="0.5"/>
<path d="M21.6621 29.0996L18.6436 32.0078L17.5887 30.9551C17.2778 30.6453 16.7573 30.6295 16.426 30.9202C16.0947 31.2106 16.0777 31.6972 16.3882 32.007L18.0332 33.6479C18.1872 33.8014 18.4014 33.8891 18.6262 33.8907H18.6334C18.8557 33.8907 19.0687 33.8066 19.2235 33.6575L22.8426 30.171C23.1586 29.8663 23.151 29.3793 22.8252 29.0834C22.4995 28.7879 21.9786 28.7946 21.6621 29.0996Z" fill="#00B7BD" stroke="#00B7BD" stroke-width="0.5"/>
</svg>
