<svg width="35" height="35" viewBox="0 0 35 35" fill="none" xmlns="http://www.w3.org/2000/svg">
<path fill-rule="evenodd" clip-rule="evenodd" d="M-6.6843e-07 17.5C-2.99266e-07 27.165 7.83502 35 17.5 35C27.165 35 35 27.165 35 17.5C35 7.83502 27.165 6.27052e-06 17.5 6.75399e-06C12.8587 6.98616e-06 8.40752 1.84375 5.12563 5.12564C1.84374 8.40752 -8.45709e-07 12.8587 -6.6843e-07 17.5ZM32.4998 17.5C32.4998 25.7842 25.7841 32.5 17.4998 32.5C9.21554 32.5 2.49982 25.7842 2.49982 17.5C2.49982 9.2157 9.21554 2.49997 17.4998 2.49997C21.4781 2.49997 25.2934 4.08032 28.1064 6.89337C30.9195 9.70642 32.4998 13.5217 32.4998 17.5ZM15.7372 17.4999L11.3122 13.0749L13.0747 11.3124L17.4997 15.7374L21.9247 11.3124L23.6872 13.0749L19.2622 17.4999L23.6872 21.9249L21.9247 23.6874L17.4997 19.2624L13.0747 23.6874L11.3122 21.9249L15.7372 17.4999Z" fill="#00B7BD"/>
</svg>
