<svg width="78" height="78" viewBox="0 0 78 78" fill="none" xmlns="http://www.w3.org/2000/svg">
<path d="M63.9494 53.361C65.967 51.6132 67.25 49.0153 67.25 46.1172C67.25 40.867 63.0444 36.5957 57.875 36.5957C52.7056 36.5957 48.5 40.867 48.5 46.1172C48.5 49.0153 49.783 51.6132 51.8006 53.361C47.6135 55.612 44.75 60.1128 44.75 65.2871V69.0957C44.75 70.1474 45.5895 71 46.625 71H69.125C70.1605 71 71 70.1474 71 69.0957V65.2871C71 60.1128 68.1365 55.612 63.9494 53.361ZM57.875 40.4043C60.9766 40.4043 63.5 42.9671 63.5 46.1172C63.5 49.2673 60.9766 51.8301 57.875 51.8301C54.7734 51.8301 52.25 49.2673 52.25 46.1172C52.25 42.9671 54.7734 40.4043 57.875 40.4043ZM67.25 67.1914H48.5V65.2871C48.5 59.9669 52.7056 55.6387 57.875 55.6387C63.0444 55.6387 67.25 59.9669 67.25 65.2871V67.1914Z" fill="#00B7BD"/>
<path d="M26.1994 22.7653C28.217 21.0175 29.5 18.4196 29.5 15.5215C29.5 10.2713 25.2944 6 20.125 6C14.9556 6 10.75 10.2713 10.75 15.5215C10.75 18.4196 12.033 21.0175 14.0506 22.7653C9.8635 25.0163 7 29.5171 7 34.6914V38.5C7 39.5517 7.8395 40.4043 8.875 40.4043H31.375C32.4105 40.4043 33.25 39.5517 33.25 38.5V34.6914C33.25 29.5171 30.3865 25.0163 26.1994 22.7653ZM20.125 9.80859C23.2266 9.80859 25.75 12.3714 25.75 15.5215C25.75 18.6716 23.2266 21.2344 20.125 21.2344C17.0234 21.2344 14.5 18.6716 14.5 15.5215C14.5 12.3714 17.0234 9.80859 20.125 9.80859ZM29.5 36.5957H10.75V34.6914C10.75 29.3712 14.9556 25.043 20.125 25.043C25.2944 25.043 29.5 29.3712 29.5 34.6914V36.5957Z" fill="#00B7BD"/>
<path d="M67.0623 22.3083C66.7489 21.6515 66.0936 21.2344 65.375 21.2344H63.3965C62.4608 12.6771 55.2961 6 46.625 6H39.125C38.0895 6 37.25 6.85262 37.25 7.9043C37.25 8.95598 38.0895 9.80859 39.125 9.80859C45.7256 9.80859 51.2039 14.783 52.1165 21.2344H50.375C49.6564 21.2344 49.0011 21.6515 48.6878 22.3081C48.3743 22.9649 48.4581 23.7458 48.9034 24.3186L56.4034 33.967C56.7589 34.4246 57.3011 34.6914 57.875 34.6914C58.4489 34.6914 58.9911 34.4246 59.3466 33.9671L66.8466 24.3187C67.2919 23.7459 67.3756 22.965 67.0623 22.3083ZM57.875 29.7138L54.2414 25.0393C55.2228 24.9783 56 24.1506 56 23.1385C56 18.064 53.8176 13.4979 50.3554 10.3569C55.781 11.9933 59.75 17.1042 59.75 23.1387C59.75 24.1507 60.5274 24.9783 61.5086 25.0394L57.875 29.7138Z" fill="#00B7BD"/>
<path d="M39.1251 67.1914C32.5158 67.1914 26.8416 62.0702 25.8902 55.6387H27.6251C28.3458 55.6387 29.0028 55.2191 29.3151 54.5593C29.6273 53.8995 29.5394 53.1164 29.0892 52.5447L21.5892 43.0232C21.2333 42.5715 20.6947 42.3086 20.1251 42.3086C19.5554 42.3086 19.0168 42.5715 18.6609 43.0232L11.1609 52.5447C10.7107 53.1164 10.6228 53.8994 10.9351 54.5593C11.2473 55.2191 11.9043 55.6387 12.6251 55.6387H14.6019C15.5311 64.2667 22.6988 71 31.3751 71H39.1251C40.1606 71 41.0001 70.1474 41.0001 69.0957C41.0001 68.044 40.1606 67.1914 39.1251 67.1914ZM18.2501 53.7344C18.2501 52.7328 17.4887 51.9118 16.5217 51.8358L20.1251 47.2613L23.7284 51.8359C22.7614 51.9118 22.0001 52.7328 22.0001 53.7344C22.0001 58.3088 23.8024 62.6378 27.0752 65.9244C27.3489 66.1994 27.6297 66.4637 27.9173 66.7176C22.3522 65.158 18.2501 59.9282 18.2501 53.7344Z" fill="#00B7BD"/>
</svg>
