<svg width="72" height="72" viewBox="0 0 72 72" fill="none" xmlns="http://www.w3.org/2000/svg">
<path d="M18.9813 49.1712L8.87312 43.5367C7.12313 42.5492 6 40.5451 6 38.3668V32.4999C6 30.3216 7.12313 28.3176 8.87312 27.3301L36.8469 11.7624C38.6752 10.7459 40.817 10.7459 42.6453 11.7624L63.6452 23.4382C65.5519 24.5128 65.5519 27.5334 63.6452 28.608L35.6715 44.1466C34.9663 44.5532 34.1305 44.5532 33.3991 44.1757L11.7201 32.7613C10.8582 32.2966 9.86565 32.9937 9.86565 34.0683V38.4249" stroke="#212120" stroke-width="2.5" stroke-miterlimit="10" stroke-linecap="round" stroke-linejoin="round"/>
<path d="M62.5432 42.2593L52.3044 47.9519L35.7187 57.188C34.9873 57.5946 34.1254 57.5946 33.3941 57.188L26.7598 53.4994" stroke="#212120" stroke-width="2.5" stroke-miterlimit="10" stroke-linecap="round" stroke-linejoin="round"/>
<path d="M63.123 29.7991V37.002" stroke="#212120" stroke-width="2.5" stroke-miterlimit="10" stroke-linecap="round" stroke-linejoin="round"/>
<path d="M34.5 44.6401V51.8721" stroke="#212120" stroke-width="2.5" stroke-miterlimit="10" stroke-linecap="round" stroke-linejoin="round"/>
<path d="M26.7601 61.8929L22.8683 56.7811L18.9766 57.4782V43.0432L26.7601 47.4579V61.8929Z" stroke="#00B7BD" stroke-width="2.5" stroke-miterlimit="10" stroke-linecap="round" stroke-linejoin="round"/>
</svg>
