<svg width="72" height="72" viewBox="0 0 72 72" fill="none" xmlns="http://www.w3.org/2000/svg">
<path d="M35.8613 68.3044V55.8828" stroke="#212120" stroke-width="2.52" stroke-miterlimit="10" stroke-linecap="round" stroke-linejoin="round"/>
<path d="M47.8821 25.3045V30.1609C47.8821 37.4332 42.5047 43.339 35.883 43.339C29.2612 43.339 23.8838 37.4332 23.8838 30.1609V29.1115C22.6173 29.1115 20.7285 28.0866 20.7285 24.9629C20.7285 22.5469 22.9284 20.7898 24.506 22.5469C24.506 22.5469 26.3948 21.4975 27.0392 19.0815" stroke="#212120" stroke-width="2.52" stroke-miterlimit="10" stroke-linecap="round" stroke-linejoin="round"/>
<path d="M44.728 47.5126C48.1944 47.8542 52.3052 46.1216 54.194 45.0966C51.3497 38.5076 51.1053 24.6462 51.1053 20.9124V19.4482C51.1053 10.37 44.128 3 35.8619 3C27.5959 3 20.6186 10.37 20.6186 19.4482V24.9634C20.6186 24.9634 20.4186 40.2158 18.2188 45.0722C18.2188 45.0722 21.063 48.5376 25.796 48.1959" stroke="#212120" stroke-width="2.52" stroke-miterlimit="10" stroke-linecap="round" stroke-linejoin="round"/>
<path d="M28.3086 13.5186C33.3527 26.0133 47.885 18.7166 47.885 25.3056" stroke="#212120" stroke-width="2.52" stroke-miterlimit="10" stroke-linecap="round" stroke-linejoin="round"/>
<path d="M29.3086 46.4638V41.6807" stroke="#212120" stroke-width="2.52" stroke-miterlimit="10" stroke-linecap="round" stroke-linejoin="round"/>
<path d="M42.3984 41.6807V46.4638" stroke="#212120" stroke-width="2.52" stroke-miterlimit="10" stroke-linecap="round" stroke-linejoin="round"/>
<path d="M45.9322 49.3186L42.1325 57.9819L38.3105 53.8089L42.3991 46.3169" stroke="#00B7BD" stroke-width="2.52" stroke-miterlimit="10" stroke-linecap="round" stroke-linejoin="round"/>
<path d="M25.7754 49.3186L29.5973 57.9819L33.3971 53.8089L29.3085 46.3169" stroke="#00B7BD" stroke-width="2.52" stroke-miterlimit="10" stroke-linecap="round" stroke-linejoin="round"/>
<path d="M33.3965 53.8086L35.863 56.2002L38.3072 53.8086" stroke="#00B7BD" stroke-width="2.52" stroke-miterlimit="10" stroke-linecap="round" stroke-linejoin="round"/>
<path d="M42.3984 45.4141L46.487 49.2943C46.487 49.2943 55.1975 54.0774 56.5752 54.9804C57.9307 55.8833 57.664 58.8606 57.664 60.0564C57.664 61.2521 57.664 67.9632 57.664 67.9632" stroke="#212120" stroke-width="2.52" stroke-miterlimit="10" stroke-linecap="round" stroke-linejoin="round"/>
<path d="M29.5989 44.9751L25.4214 48.416C25.4214 48.416 16.5109 52.6623 15.1333 53.4432C13.7556 54.2486 14.0222 56.8842 14.0222 57.9335C14.0222 58.9829 14 64.913 14 64.913" stroke="#212120" stroke-width="2.52" stroke-miterlimit="10" stroke-linecap="round" stroke-linejoin="round"/>
</svg>
