<svg width="72" height="72" viewBox="0 0 72 72" fill="none" xmlns="http://www.w3.org/2000/svg">
<path d="M32.3672 46.8163C35.9362 51.6319 42.3343 52.3337 46.665 48.365C50.9957 44.3963 51.6268 37.2818 48.0578 32.4662C44.4888 27.6505 38.0907 26.9487 33.76 30.9174C29.4293 34.8861 28.7982 42.0006 32.3672 46.8163Z" stroke="#212120" stroke-width="2.5" stroke-miterlimit="10" stroke-linecap="round" stroke-linejoin="round"/>
<path d="M45.5499 35.9988C45.2235 35.176 44.7447 34.4259 44.0918 33.7967C42.7426 32.4657 41.0016 31.9817 39.3477 32.2721" stroke="#00B7BD" stroke-width="2.5" stroke-miterlimit="10" stroke-linecap="round" stroke-linejoin="round"/>
<path d="M53.9753 63.1012L58.1972 59.1567L51.0374 49.3076L46.7285 53.2521L53.9753 63.1012Z" stroke="#212120" stroke-width="2.5" stroke-miterlimit="10" stroke-linecap="round" stroke-linejoin="round"/>
<path d="M47.998 47.4692L50.0655 50.228" stroke="#212120" stroke-width="2.5" stroke-miterlimit="10" stroke-linecap="round" stroke-linejoin="round"/>
<path d="M45.5566 49.647L47.6241 52.4541" stroke="#212120" stroke-width="2.5" stroke-miterlimit="10" stroke-linecap="round" stroke-linejoin="round"/>
<path d="M43.8361 25.7138V10.0086C43.8361 8.89541 43.0308 8 42.0298 8H21.2251L14 16.0342V49.2113C14 50.3244 14.8052 51.2198 15.8063 51.2198H32.0627" stroke="#212120" stroke-width="2.5" stroke-miterlimit="10" stroke-linecap="round" stroke-linejoin="round"/>
<path d="M17.334 17.4382H22.7528V11.4126" stroke="#212120" stroke-width="2.5" stroke-miterlimit="10" stroke-linecap="round" stroke-linejoin="round"/>
<path d="M20.0547 24.5518H37.1816" stroke="#212120" stroke-width="2.5" stroke-miterlimit="10" stroke-linecap="round" stroke-linejoin="round"/>
<path d="M20.0547 29.5854H30.0653" stroke="#212120" stroke-width="2.5" stroke-miterlimit="10" stroke-linecap="round" stroke-linejoin="round"/>
<path d="M20.0547 34.644H27.0839" stroke="#212120" stroke-width="2.5" stroke-miterlimit="10" stroke-linecap="round" stroke-linejoin="round"/>
<path d="M20.0547 39.7012H27.0839" stroke="#212120" stroke-width="2.5" stroke-miterlimit="10" stroke-linecap="round" stroke-linejoin="round"/>
</svg>
