<svg width="72" height="72" viewBox="0 0 72 72" fill="none" xmlns="http://www.w3.org/2000/svg">
<path d="M57.41 53.85V62.3936C57.41 62.9974 56.9756 63.4804 56.4326 63.4804H15.0031C14.4601 63.4804 14.0257 62.9974 14.0257 62.3936V33.5024H32.3242C32.7043 32.7477 33.1658 32.0232 33.736 31.359H13.8628L9.9262 9.41141C9.8719 9.10951 9.95334 8.77741 10.1162 8.53589C10.3063 8.29438 10.5778 8.14341 10.8493 8.14341H60.5322C60.8308 8.14341 61.1023 8.29438 61.2652 8.53589C61.4552 8.77741 61.5095 9.10951 61.4552 9.41141L58.0887 28.2495C58.3602 28.4005 58.6589 28.5816 58.9304 28.7325C59.2562 28.9439 59.5548 29.1552 59.8534 29.3967L63.3557 9.83401C63.5186 8.86795 63.3014 7.90188 62.7584 7.17734C62.2154 6.4226 61.4009 6 60.5322 6H10.8764C10.0076 6 9.19317 6.4226 8.65019 7.17734C8.1072 7.93207 7.89001 8.89814 8.05291 9.83401L12.1253 32.5363V62.3936C12.1253 64.1748 13.4284 65.6239 15.0302 65.6239H56.4869C58.0887 65.6239 59.3919 64.1748 59.3919 62.3936V52.733C59.2562 52.8236 59.1476 52.9142 59.0118 52.9746C58.4688 53.3066 57.953 53.5783 57.41 53.85Z" fill="#212120"/>
<path d="M19.8008 49.6832C19.8008 55.7513 24.2261 60.6721 29.6831 60.6721C33.7283 60.6721 37.2034 57.955 38.7509 54.0606C38.1536 53.7889 37.5563 53.4568 37.0133 53.1248C35.7916 56.2946 32.9681 58.4985 29.6831 58.4985C25.2849 58.4985 21.7284 54.5135 21.7284 49.653C21.7284 44.7623 25.2849 40.8076 29.6831 40.8076C30.226 40.8076 30.769 40.8679 31.312 40.9887V38.8151C30.7962 38.7245 30.2532 38.6641 29.6831 38.6641C24.2261 38.6641 19.8008 43.6152 19.8008 49.6832Z" fill="#00B7BD"/>
<path d="M23.6602 49.684C23.6602 50.5897 23.8231 51.4651 24.1488 52.2803C24.4475 53.0652 24.8819 53.7898 25.4249 54.3935L26.7823 52.8841C26.4022 52.4614 26.1036 51.9784 25.9135 51.435C25.6963 50.8614 25.5877 50.2878 25.5877 49.6538C25.5877 49.05 25.6963 48.4462 25.9135 47.8726L24.1488 47.0273C23.8231 47.9028 23.6602 48.7783 23.6602 49.684Z" fill="#00B7BD"/>
<path d="M29.694 54.2428C29.151 54.2428 28.608 54.122 28.0922 53.8805L27.332 55.8428C28.0651 56.2051 28.8795 56.3863 29.6669 56.3863V54.2428H29.694Z" fill="#00B7BD"/>
<path d="M33.9458 54.424L32.5883 52.9146C32.2082 53.3372 31.7738 53.6693 31.2852 53.8806L32.0453 55.8429C32.7512 55.5108 33.4028 55.0278 33.9458 54.424Z" fill="#00B7BD"/>
<path d="M27.3573 43.4945C26.6242 43.8266 25.9998 44.3096 25.4297 44.9436L26.7871 46.4531C27.1672 46.0304 27.6016 45.6983 28.0903 45.487C29.0948 45.004 30.2622 45.004 31.2667 45.487C31.321 45.5172 31.3753 45.5474 31.4296 45.5775C31.3482 45.0643 31.2939 44.5511 31.2939 44.0077V43.2228C29.9907 42.8303 28.6061 42.8907 27.3573 43.4945Z" fill="#00B7BD"/>
<path d="M26.4844 24.2645H37.0725C36.9639 23.7513 36.8825 23.238 36.8825 22.7248V22.1211H26.4844V24.2645Z" fill="#212120"/>
<path d="M19.5898 17.8343H38.0784C38.6214 17.0494 39.3001 16.3249 40.1417 15.6909H19.5898V17.8343Z" fill="#212120"/>
<path d="M58.0104 30.6348C57.0602 30.0311 55.9742 29.5178 54.8339 29.0952V29.3065V31.3594C55.6213 31.6914 56.3814 32.0537 57.0602 32.5066C59.3407 33.9557 60.5624 35.8274 60.5624 37.7897C60.5624 39.7218 59.3135 41.5935 57.0602 43.0728C54.6168 44.6427 51.3589 45.4879 47.8838 45.4879V47.6313C51.6846 47.6313 55.2955 46.6653 58.0375 44.9143C59.0421 44.2502 59.9108 43.5257 60.5896 42.7106V44.0087C60.5896 45.9408 59.3407 47.8125 57.0873 49.2918C54.6439 50.8617 51.386 51.7069 47.9109 51.7069C44.4358 51.7069 41.1779 50.8315 38.7345 49.2918C36.454 47.8427 35.2051 45.971 35.2051 44.0087V37.7595C35.2051 35.8274 36.454 33.9556 38.7345 32.4763C39.4132 32.0537 40.1463 31.6612 40.9607 31.3291V29.2763V29.0649C39.8205 29.4876 38.7345 30.0008 37.7843 30.6046C34.8793 32.4764 33.3047 34.982 33.3047 37.7293V43.9785C33.3047 46.7257 34.9065 49.2616 37.7843 51.1032C40.4992 52.8542 44.11 53.8202 47.9381 53.8202C51.7389 53.8202 55.3498 52.8542 58.0918 51.1032C60.9696 49.2315 62.5714 46.7257 62.5714 43.9785V37.7293C62.49 35.0122 60.8882 32.4764 58.0104 30.6348Z" fill="#212120"/>
<path d="M41.6593 27.314C42.0122 27.5555 42.3923 27.7366 42.8267 27.9479V32.416C42.8267 34.2877 41.4692 35.7972 39.786 35.7972V37.9406C42.528 37.9406 44.7542 35.4651 44.7542 32.416V26.4385L44.1027 26.197C43.5325 25.9857 43.0439 25.7441 42.6366 25.4724C41.4149 24.6875 40.7633 23.7214 40.7633 22.7252V21.7592C40.7633 20.7629 41.4421 19.7969 42.6366 19.0119C44.0212 18.1364 45.8674 17.6232 47.8764 17.6232C49.8583 17.6232 51.7316 18.1063 53.1162 19.0119C54.3379 19.7969 54.9895 20.7629 54.9895 21.7592V22.7252C54.9895 23.7214 54.3107 24.6875 53.1162 25.4724C51.7316 26.3479 49.8854 26.8612 47.8764 26.8612V29.0046C48.9624 29.0046 49.994 28.8838 50.9714 28.6423V32.4461C50.9714 35.4952 53.1976 37.9708 55.9397 37.9708V35.8274C54.2564 35.8274 52.899 34.3179 52.899 32.4461V27.9782H52.9261C53.1162 27.8876 53.3062 27.797 53.4691 27.7065C53.6592 27.5857 53.8764 27.4951 54.0393 27.3743C55.8854 26.197 56.8899 24.5668 56.8899 22.7856V21.8195C56.8899 20.0384 55.8854 18.4082 54.0393 17.2308C52.3832 16.144 50.1569 15.5703 47.8493 15.5703C45.5144 15.5703 43.3153 16.1742 41.6593 17.2308C39.8131 18.4082 38.8086 20.0384 38.8086 21.8195V22.7856C38.8086 24.4762 39.8403 26.1366 41.6593 27.314Z" fill="#212120"/>
</svg>
