<svg width="72" height="72" viewBox="0 0 72 72" fill="none" xmlns="http://www.w3.org/2000/svg">
<path d="M20 32.6451L27.745 40.2005C27.93 40.3623 27.9993 40.6164 27.9531 40.8706L26.1266 51.5222L35.6981 46.4852C35.9062 46.3697 36.1836 46.3697 36.3917 46.4852L45.9631 51.5222L44.1367 40.8706C44.0904 40.6164 44.1829 40.3854 44.3448 40.2005L52.0898 32.6451L41.3855 31.097C41.1312 31.0739 40.9231 30.9122 40.8306 30.6812L36.0449 21L31.2592 30.6812C31.1436 30.9122 30.9355 31.0508 30.7043 31.097L20 32.6451Z" stroke="#00B7BD" stroke-width="2.5" stroke-miterlimit="10" stroke-linecap="round" stroke-linejoin="round"/>
<path d="M36.0152 61C22.2129 61 11 49.7939 11 36C11 22.2061 22.2129 11 36.0152 11C49.8175 11 61.0305 22.2061 61.0305 36C61.0305 49.7939 49.8175 61 36.0152 61Z" stroke="#212120" stroke-width="2.5" stroke-miterlimit="10" stroke-linecap="round" stroke-linejoin="round"/>
</svg>
