<svg width="72" height="72" viewBox="0 0 72 72" fill="none" xmlns="http://www.w3.org/2000/svg">
<path d="M52.4553 61.6416H50.7148V55.7418C50.7148 55.2361 51.1093 54.8508 51.5735 54.8508H57.2589V56.6569H52.4553V61.6416Z" fill="#212120"/>
<path d="M54.6846 66.0001H29.0188C28.5315 66.0001 28.1602 65.5907 28.1602 65.1091V24.4847C28.1602 23.979 28.5547 23.5938 29.0188 23.5938H48.5118V25.3998H29.8774V64.2181H54.3133L59.7203 58.6073V26.941H61.4607V58.9926C61.4607 59.2334 61.3679 59.4501 61.2055 59.6187L55.2879 65.7593C55.1487 65.9038 54.9166 66.0001 54.6846 66.0001Z" fill="#212120" stroke="black" stroke-width="0.5"/>
<path d="M17.1627 61.9315C16.9771 61.9315 16.8146 61.8833 16.6754 61.787C16.4897 61.6425 16.3505 61.4498 16.3041 61.209L9.0174 21.283C8.97099 21.0422 9.0174 20.8014 9.15664 20.6087C9.27267 20.4161 9.48152 20.2716 9.71358 20.2234L40.74 14.131C41.2041 14.0347 41.6682 14.3718 41.761 14.8534L42.8981 21.0903L41.1809 21.4275L40.2062 16.0816L10.8739 21.8369L17.8357 59.9809L26.0042 58.3675L26.3291 60.1495L17.3251 61.9074C17.2555 61.9315 17.2091 61.9315 17.1627 61.9315Z" fill="#212120" stroke="black" stroke-width="0.5"/>
<path d="M62.0174 23.2813C61.9246 23.2813 61.8318 23.2572 61.7621 23.2331L48.3491 18.8745C48.0474 18.7781 47.8386 18.5374 47.7689 18.2243C47.6993 17.9113 47.7922 17.5982 48.001 17.3815L52.7118 12.4931L54.4755 6.6414C54.6147 6.15978 55.102 5.89489 55.5662 6.03938L62.9224 8.42339C63.1545 8.49564 63.3169 8.66422 63.433 8.85687C63.549 9.07359 63.549 9.31439 63.4794 9.5552L61.7157 15.4068L62.8992 22.1976C62.9457 22.5107 62.8528 22.8238 62.6208 23.0405C62.4351 23.209 62.2263 23.2813 62.0174 23.2813ZM50.2056 17.6223L60.9035 21.0899L59.9289 15.5513C59.9057 15.4069 59.9057 15.2623 59.9521 15.1179L61.5069 9.91639L55.8214 8.0622L54.2666 13.2636C54.2202 13.4081 54.1506 13.5285 54.0578 13.6249L50.2056 17.6223Z" fill="#00B7BD"/>
<path d="M54.5553 19.5902L51.5391 29.6118L53.2003 30.1501L56.2165 20.1286L54.5553 19.5902Z" fill="#00B7BD"/>
</svg>
