<svg width="72" height="72" viewBox="0 0 72 72" fill="none" xmlns="http://www.w3.org/2000/svg">
<path d="M59.1195 61.9552H12.3742C9.9586 61.9552 8 59.7772 8 57.0669V22.946C8 20.2599 9.9586 18.082 12.3742 18.082H59.1195C61.5351 18.082 63.4937 20.2599 63.4937 22.946V57.0669C63.5155 59.7772 61.5351 61.9552 59.1195 61.9552Z" stroke="#212120" stroke-width="2.5" stroke-miterlimit="10" stroke-linecap="round" stroke-linejoin="round"/>
<path d="M8 31.1021H21.1444V42.4756H8" stroke="#212120" stroke-width="2.5" stroke-miterlimit="10" stroke-linecap="round" stroke-linejoin="round"/>
<path d="M63.518 45.6211L50.6348 31.2951L56.4235 24.8823L63.518 32.7712" stroke="#212120" stroke-width="2.5" stroke-miterlimit="10" stroke-linecap="round" stroke-linejoin="round"/>
<path d="M8 54.0181C12.0043 54.0181 15.2904 57.5269 15.4645 61.9554" stroke="#212120" stroke-width="2.5" stroke-miterlimit="10" stroke-linecap="round" stroke-linejoin="round"/>
<path d="M63.5094 54.0181C59.5051 54.0181 56.219 57.5269 56.0449 61.9554" stroke="#212120" stroke-width="2.5" stroke-miterlimit="10" stroke-linecap="round" stroke-linejoin="round"/>
<path d="M45.9699 18.1067V12.2747C45.9699 11.0164 45.0559 10 43.9243 10H27.5808C26.4492 10 25.5352 11.0164 25.5352 12.2747V18.1067" stroke="#212120" stroke-width="2.5" stroke-miterlimit="10" stroke-linecap="round" stroke-linejoin="round"/>
<path d="M32.0918 43.9276L44.801 35.9419" stroke="#00B7BD" stroke-width="2.5" stroke-miterlimit="10" stroke-linecap="round" stroke-linejoin="round"/>
<path d="M30.5059 34.6836L39.0802 39.3782L38.2532 49.9533" stroke="#00B7BD" stroke-width="2.5" stroke-miterlimit="10" stroke-linecap="round" stroke-linejoin="round"/>
<path d="M26.6914 41.5796L31.5444 44.2415L31.0874 50.2671" stroke="#00B7BD" stroke-width="2.5" stroke-miterlimit="10" stroke-linecap="round" stroke-linejoin="round"/>
</svg>
