<svg width="875" height="29" viewBox="0 0 875 29" fill="none" xmlns="http://www.w3.org/2000/svg">
<g clip-path="url(#clip0)">
<path fill-rule="evenodd" clip-rule="evenodd" d="M0.595644 25.3989L0.134766 26.2118L0.93999 25.7376L13.5971 18.2835L26.3824 25.5155L27.1957 25.9756L26.7208 25.1709L13.6891 3.09193C13.6415 3.01129 13.554 2.96542 13.4635 2.9692C13.3728 2.96698 13.2861 3.01437 13.2399 3.09585L0.595644 25.3989ZM13.3351 17.8575L1.49148 24.8325L13.2155 4.15268L13.3351 17.8575ZM25.8152 24.6202L13.8516 17.853L13.732 4.14817L25.8152 24.6202Z" fill="#42C4C8"/>
<path fill-rule="evenodd" clip-rule="evenodd" d="M20.8583 3.66376L20.3975 2.85083L21.2027 3.32505L33.8598 10.7792L46.6451 3.54708L47.4584 3.08699L46.9834 3.89176L33.9518 25.9707C33.9042 26.0513 33.8167 26.0972 33.7262 26.0934C33.6355 26.0956 33.5488 26.0482 33.5026 25.9668L20.8583 3.66376ZM33.5978 11.2052L21.7542 4.23011L33.4782 24.9099L33.5978 11.2052ZM46.0779 4.44237L34.1143 11.2097L33.9947 24.9145L46.0779 4.44237Z" fill="#42C4C8"/>
<path fill-rule="evenodd" clip-rule="evenodd" d="M39.663 25.3989L39.2021 26.2118L40.0074 25.7376L52.6645 18.2835L65.4498 25.5155L66.2631 25.9756L65.7881 25.1709L52.7565 3.09193C52.7089 3.01129 52.6214 2.96542 52.5308 2.9692C52.4402 2.96698 52.3535 3.01437 52.3073 3.09585L39.663 25.3989ZM52.4025 17.8575L40.5589 24.8325L52.2829 4.15268L52.4025 17.8575ZM64.8825 24.6202L52.9189 17.853L52.7993 4.14817L64.8825 24.6202Z" fill="#42C4C8"/>
<path fill-rule="evenodd" clip-rule="evenodd" d="M59.9257 3.66376L59.4648 2.85083L60.2701 3.32505L72.9272 10.7792L85.7124 3.54708L86.5258 3.08699L86.0508 3.89176L73.0192 25.9707C72.9716 26.0513 72.8841 26.0972 72.7935 26.0934C72.7029 26.0956 72.6162 26.0482 72.57 25.9668L59.9257 3.66376ZM72.6652 11.2052L60.8216 4.23011L72.5456 24.9099L72.6652 11.2052ZM85.1452 4.44237L73.1816 11.2097L73.062 24.9145L85.1452 4.44237Z" fill="#42C4C8"/>
<path fill-rule="evenodd" clip-rule="evenodd" d="M78.7304 25.3989L78.2695 26.2118L79.0748 25.7376L91.7318 18.2835L104.517 25.5155L105.331 25.9756L104.856 25.1709L91.8239 3.09193C91.7763 3.01129 91.6888 2.96542 91.5982 2.9692C91.5076 2.96698 91.4209 3.01437 91.3747 3.09585L78.7304 25.3989ZM91.4699 17.8575L79.6262 24.8325L91.3503 4.15268L91.4699 17.8575ZM103.95 24.6202L91.9863 17.853L91.8667 4.14817L103.95 24.6202Z" fill="#42C4C8"/>
<path fill-rule="evenodd" clip-rule="evenodd" d="M98.9931 3.66376L98.5322 2.85083L99.3375 3.32505L111.995 10.7792L124.78 3.54708L125.593 3.08699L125.118 3.89176L112.087 25.9707C112.039 26.0513 111.951 26.0972 111.861 26.0934C111.77 26.0956 111.684 26.0482 111.637 25.9668L98.9931 3.66376ZM111.733 11.2052L99.8889 4.23011L111.613 24.9099L111.733 11.2052ZM124.213 4.44237L112.249 11.2097L112.129 24.9145L124.213 4.44237Z" fill="#42C4C8"/>
<path fill-rule="evenodd" clip-rule="evenodd" d="M117.798 25.3989L117.337 26.2118L118.142 25.7376L130.799 18.2835L143.585 25.5155L144.398 25.9756L143.923 25.1709L130.891 3.09193C130.844 3.01129 130.756 2.96542 130.666 2.9692C130.575 2.96698 130.488 3.01437 130.442 3.09585L117.798 25.3989ZM130.537 17.8575L118.694 24.8325L130.418 4.15268L130.537 17.8575ZM143.017 24.6202L131.054 17.853L130.934 4.14817L143.017 24.6202Z" fill="#42C4C8"/>
<path fill-rule="evenodd" clip-rule="evenodd" d="M138.06 3.66376L137.6 2.85083L138.405 3.32505L151.062 10.7792L163.847 3.54708L164.661 3.08699L164.186 3.89176L151.154 25.9707C151.106 26.0513 151.019 26.0972 150.928 26.0934C150.838 26.0956 150.751 26.0482 150.705 25.9668L138.06 3.66376ZM150.8 11.2052L138.956 4.23011L150.68 24.9099L150.8 11.2052ZM163.28 4.44237L151.316 11.2097L151.197 24.9145L163.28 4.44237Z" fill="#42C4C8"/>
<path fill-rule="evenodd" clip-rule="evenodd" d="M156.865 25.3989L156.404 26.2118L157.21 25.7376L169.867 18.2835L182.652 25.5155L183.465 25.9756L182.99 25.1709L169.959 3.09193C169.911 3.01129 169.824 2.96542 169.733 2.9692C169.642 2.96698 169.556 3.01437 169.509 3.09585L156.865 25.3989ZM169.605 17.8575L157.761 24.8325L169.485 4.15268L169.605 17.8575ZM182.085 24.6202L170.121 17.853L170.001 4.14817L182.085 24.6202Z" fill="#42C4C8"/>
<path fill-rule="evenodd" clip-rule="evenodd" d="M177.128 3.66376L176.667 2.85083L177.472 3.32505L190.129 10.7792L202.915 3.54708L203.728 3.08699L203.253 3.89176L190.221 25.9707C190.174 26.0513 190.086 26.0972 189.996 26.0934C189.905 26.0956 189.818 26.0482 189.772 25.9668L177.128 3.66376ZM189.867 11.2052L178.024 4.23011L189.748 24.9099L189.867 11.2052ZM202.347 4.44237L190.384 11.2097L190.264 24.9145L202.347 4.44237Z" fill="#42C4C8"/>
<path fill-rule="evenodd" clip-rule="evenodd" d="M195.933 25.3989L195.472 26.2118L196.277 25.7376L208.934 18.2835L221.719 25.5155L222.533 25.9756L222.058 25.1709L209.026 3.09193C208.978 3.01129 208.891 2.96542 208.8 2.9692C208.71 2.96698 208.623 3.01437 208.577 3.09585L195.933 25.3989ZM208.672 17.8575L196.828 24.8325L208.552 4.15268L208.672 17.8575ZM221.152 24.6202L209.188 17.853L209.069 4.14817L221.152 24.6202Z" fill="#42C4C8"/>
<path fill-rule="evenodd" clip-rule="evenodd" d="M216.195 3.66376L215.734 2.85083L216.54 3.32505L229.197 10.7792L241.982 3.54708L242.795 3.08699L242.32 3.89176L229.289 25.9707C229.241 26.0513 229.154 26.0972 229.063 26.0934C228.972 26.0956 228.886 26.0482 228.84 25.9668L216.195 3.66376ZM228.935 11.2052L217.091 4.23011L228.815 24.9099L228.935 11.2052ZM241.415 4.44237L229.451 11.2097L229.332 24.9145L241.415 4.44237Z" fill="#42C4C8"/>
<path fill-rule="evenodd" clip-rule="evenodd" d="M235 25.3989L234.539 26.2118L235.344 25.7376L248.001 18.2835L260.787 25.5155L261.6 25.9756L261.125 25.1709L248.093 3.09193C248.046 3.01129 247.958 2.96542 247.868 2.9692C247.777 2.96698 247.69 3.01437 247.644 3.09585L235 25.3989ZM247.739 17.8575L235.896 24.8325L247.62 4.15268L247.739 17.8575ZM260.219 24.6202L248.256 17.853L248.136 4.14817L260.219 24.6202Z" fill="#42C4C8"/>
<path fill-rule="evenodd" clip-rule="evenodd" d="M255.263 3.66376L254.802 2.85083L255.607 3.32505L268.264 10.7792L281.049 3.54708L281.863 3.08699L281.388 3.89176L268.356 25.9707C268.309 26.0513 268.221 26.0972 268.13 26.0934C268.04 26.0956 267.953 26.0482 267.907 25.9668L255.263 3.66376ZM268.002 11.2052L256.158 4.23011L267.883 24.9099L268.002 11.2052ZM280.482 4.44237L268.519 11.2097L268.399 24.9145L280.482 4.44237Z" fill="#42C4C8"/>
<path fill-rule="evenodd" clip-rule="evenodd" d="M274.067 25.3989L273.606 26.2118L274.412 25.7376L287.069 18.2835L299.854 25.5155L300.667 25.9756L300.192 25.1709L287.161 3.09193C287.113 3.01129 287.026 2.96542 286.935 2.9692C286.845 2.96698 286.758 3.01437 286.712 3.09585L274.067 25.3989ZM286.807 17.8575L274.963 24.8325L286.687 4.15268L286.807 17.8575ZM299.287 24.6202L287.323 17.853L287.204 4.14817L299.287 24.6202Z" fill="#42C4C8"/>
<path fill-rule="evenodd" clip-rule="evenodd" d="M294.33 3.66376L293.869 2.85083L294.674 3.32505L307.331 10.7792L320.117 3.54708L320.93 3.08699L320.455 3.89176L307.424 25.9707C307.376 26.0513 307.288 26.0972 307.198 26.0934C307.107 26.0956 307.02 26.0482 306.974 25.9668L294.33 3.66376ZM307.07 11.2052L295.226 4.23011L306.95 24.9099L307.07 11.2052ZM319.55 4.44237L307.586 11.2097L307.466 24.9145L319.55 4.44237Z" fill="#42C4C8"/>
<path fill-rule="evenodd" clip-rule="evenodd" d="M313.135 25.3989L312.674 26.2118L313.479 25.7376L326.136 18.2835L338.921 25.5155L339.735 25.9756L339.26 25.1709L326.228 3.09193C326.181 3.01129 326.093 2.96542 326.003 2.9692C325.912 2.96698 325.825 3.01437 325.779 3.09585L313.135 25.3989ZM325.874 17.8575L314.031 24.8325L325.755 4.15268L325.874 17.8575ZM338.354 24.6202L326.391 17.853L326.271 4.14817L338.354 24.6202Z" fill="#42C4C8"/>
<path fill-rule="evenodd" clip-rule="evenodd" d="M333.397 3.66376L332.937 2.85083L333.742 3.32505L346.399 10.7792L359.184 3.54708L359.998 3.08699L359.523 3.89176L346.491 25.9707C346.443 26.0513 346.356 26.0972 346.265 26.0934C346.175 26.0956 346.088 26.0482 346.042 25.9668L333.397 3.66376ZM346.137 11.2052L334.293 4.23011L346.017 24.9099L346.137 11.2052ZM358.617 4.44237L346.653 11.2097L346.534 24.9145L358.617 4.44237Z" fill="#42C4C8"/>
<path fill-rule="evenodd" clip-rule="evenodd" d="M352.202 25.3989L351.741 26.2118L352.546 25.7376L365.204 18.2835L377.989 25.5155L378.802 25.9756L378.327 25.1709L365.296 3.09193C365.248 3.01129 365.16 2.96542 365.07 2.9692C364.979 2.96698 364.893 3.01437 364.846 3.09585L352.202 25.3989ZM364.942 17.8575L353.098 24.8325L364.822 4.15268L364.942 17.8575ZM377.422 24.6202L365.458 17.853L365.338 4.14817L377.422 24.6202Z" fill="#42C4C8"/>
<path fill-rule="evenodd" clip-rule="evenodd" d="M372.465 3.66376L372.004 2.85083L372.809 3.32505L385.466 10.7792L398.252 3.54708L399.065 3.08699L398.59 3.89176L385.558 25.9707C385.511 26.0513 385.423 26.0972 385.333 26.0934C385.242 26.0956 385.155 26.0482 385.109 25.9668L372.465 3.66376ZM385.204 11.2052L373.361 4.23011L385.085 24.9099L385.204 11.2052ZM397.684 4.44237L385.721 11.2097L385.601 24.9145L397.684 4.44237Z" fill="#42C4C8"/>
<path fill-rule="evenodd" clip-rule="evenodd" d="M391.269 25.3989L390.809 26.2118L391.614 25.7376L404.271 18.2835L417.056 25.5155L417.87 25.9756L417.395 25.1709L404.363 3.09193C404.315 3.01129 404.228 2.96542 404.137 2.9692C404.047 2.96698 403.96 3.01437 403.914 3.09585L391.269 25.3989ZM404.009 17.8575L392.165 24.8325L403.889 4.15268L404.009 17.8575ZM416.489 24.6202L404.525 17.853L404.406 4.14817L416.489 24.6202Z" fill="#42C4C8"/>
<path fill-rule="evenodd" clip-rule="evenodd" d="M411.532 3.66376L411.071 2.85083L411.877 3.32505L424.534 10.7792L437.319 3.54708L438.132 3.08699L437.657 3.89176L424.626 25.9707C424.578 26.0513 424.491 26.0972 424.4 26.0934C424.309 26.0956 424.223 26.0482 424.176 25.9668L411.532 3.66376ZM424.272 11.2052L412.428 4.23011L424.152 24.9099L424.272 11.2052ZM436.752 4.44237L424.788 11.2097L424.668 24.9145L436.752 4.44237Z" fill="#42C4C8"/>
<path fill-rule="evenodd" clip-rule="evenodd" d="M430.337 25.3989L429.876 26.2118L430.681 25.7376L443.338 18.2835L456.124 25.5155L456.937 25.9756L456.462 25.1709L443.43 3.09193C443.383 3.01129 443.295 2.96542 443.205 2.9692C443.114 2.96698 443.027 3.01437 442.981 3.09585L430.337 25.3989ZM443.076 17.8575L431.233 24.8325L442.957 4.15268L443.076 17.8575ZM455.556 24.6202L443.593 17.853L443.473 4.14817L455.556 24.6202Z" fill="#42C4C8"/>
<path fill-rule="evenodd" clip-rule="evenodd" d="M450.6 3.66376L450.139 2.85083L450.944 3.32505L463.601 10.7792L476.386 3.54708L477.2 3.08699L476.725 3.89176L463.693 25.9707C463.645 26.0513 463.558 26.0972 463.467 26.0934C463.377 26.0956 463.29 26.0482 463.244 25.9668L450.6 3.66376ZM463.339 11.2052L451.495 4.23011L463.219 24.9099L463.339 11.2052ZM475.819 4.44237L463.855 11.2097L463.736 24.9145L475.819 4.44237Z" fill="#42C4C8"/>
<path fill-rule="evenodd" clip-rule="evenodd" d="M469.404 25.3989L468.943 26.2118L469.749 25.7376L482.406 18.2835L495.191 25.5155L496.004 25.9756L495.529 25.1709L482.498 3.09193C482.45 3.01129 482.363 2.96542 482.272 2.9692C482.181 2.96698 482.095 3.01437 482.049 3.09585L469.404 25.3989ZM482.144 17.8575L470.3 24.8325L482.024 4.15268L482.144 17.8575ZM494.624 24.6202L482.66 17.853L482.541 4.14817L494.624 24.6202Z" fill="#42C4C8"/>
<path fill-rule="evenodd" clip-rule="evenodd" d="M489.667 3.66376L489.206 2.85083L490.011 3.32505L502.668 10.7792L515.454 3.54708L516.267 3.08699L515.792 3.89176L502.76 25.9707C502.713 26.0513 502.625 26.0972 502.535 26.0934C502.444 26.0956 502.357 26.0482 502.311 25.9668L489.667 3.66376ZM502.406 11.2052L490.563 4.23011L502.287 24.9099L502.406 11.2052ZM514.886 4.44237L502.923 11.2097L502.803 24.9145L514.886 4.44237Z" fill="#42C4C8"/>
<path fill-rule="evenodd" clip-rule="evenodd" d="M508.472 25.3989L508.011 26.2118L508.816 25.7376L521.473 18.2835L534.258 25.5155L535.072 25.9756L534.597 25.1709L521.565 3.09193C521.518 3.01129 521.43 2.96542 521.339 2.9692C521.249 2.96698 521.162 3.01437 521.116 3.09585L508.472 25.3989ZM521.211 17.8575L509.367 24.8325L521.092 4.15268L521.211 17.8575ZM533.691 24.6202L521.728 17.853L521.608 4.14817L533.691 24.6202Z" fill="#42C4C8"/>
<path fill-rule="evenodd" clip-rule="evenodd" d="M528.734 3.66376L528.273 2.85083L529.079 3.32505L541.736 10.7792L554.521 3.54708L555.334 3.08699L554.859 3.89176L541.828 25.9707C541.78 26.0513 541.693 26.0972 541.602 26.0934C541.512 26.0956 541.425 26.0482 541.379 25.9668L528.734 3.66376ZM541.474 11.2052L529.63 4.23011L541.354 24.9099L541.474 11.2052ZM553.954 4.44237L541.99 11.2097L541.871 24.9145L553.954 4.44237Z" fill="#42C4C8"/>
<path fill-rule="evenodd" clip-rule="evenodd" d="M547.539 25.3989L547.078 26.2118L547.883 25.7376L560.54 18.2835L573.326 25.5155L574.139 25.9756L573.664 25.1709L560.632 3.09193C560.585 3.01129 560.497 2.96542 560.407 2.9692C560.316 2.96698 560.229 3.01437 560.183 3.09585L547.539 25.3989ZM560.278 17.8575L548.435 24.8325L560.159 4.15268L560.278 17.8575ZM572.759 24.6202L560.795 17.853L560.675 4.14817L572.759 24.6202Z" fill="#42C4C8"/>
<path fill-rule="evenodd" clip-rule="evenodd" d="M567.802 3.66376L567.341 2.85083L568.146 3.32505L580.803 10.7792L593.588 3.54708L594.402 3.08699L593.927 3.89176L580.895 25.9707C580.848 26.0513 580.76 26.0972 580.67 26.0934C580.579 26.0956 580.492 26.0482 580.446 25.9668L567.802 3.66376ZM580.541 11.2052L568.698 4.23011L580.422 24.9099L580.541 11.2052ZM593.021 4.44237L581.058 11.2097L580.938 24.9145L593.021 4.44237Z" fill="#42C4C8"/>
<path fill-rule="evenodd" clip-rule="evenodd" d="M586.606 25.3989L586.146 26.2118L586.951 25.7376L599.608 18.2835L612.393 25.5155L613.206 25.9756L612.731 25.1709L599.7 3.09193C599.652 3.01129 599.565 2.96542 599.474 2.9692C599.384 2.96698 599.297 3.01437 599.251 3.09585L586.606 25.3989ZM599.346 17.8575L587.502 24.8325L599.226 4.15268L599.346 17.8575ZM611.826 24.6202L599.862 17.853L599.743 4.14817L611.826 24.6202Z" fill="#42C4C8"/>
<path fill-rule="evenodd" clip-rule="evenodd" d="M606.869 3.66376L606.408 2.85083L607.213 3.32505L619.871 10.7792L632.656 3.54708L633.469 3.08699L632.994 3.89176L619.963 25.9707C619.915 26.0513 619.827 26.0972 619.737 26.0934C619.646 26.0956 619.56 26.0482 619.513 25.9668L606.869 3.66376ZM619.609 11.2052L607.765 4.23011L619.489 24.9099L619.609 11.2052ZM632.089 4.44237L620.125 11.2097L620.005 24.9145L632.089 4.44237Z" fill="#42C4C8"/>
<path fill-rule="evenodd" clip-rule="evenodd" d="M625.674 25.3989L625.213 26.2118L626.018 25.7376L638.675 18.2835L651.46 25.5155L652.274 25.9756L651.799 25.1709L638.767 3.09193C638.72 3.01129 638.632 2.96542 638.542 2.9692C638.451 2.96698 638.364 3.01437 638.318 3.09585L625.674 25.3989ZM638.413 17.8575L626.57 24.8325L638.294 4.15268L638.413 17.8575ZM650.893 24.6202L638.93 17.853L638.81 4.14817L650.893 24.6202Z" fill="#42C4C8"/>
<path fill-rule="evenodd" clip-rule="evenodd" d="M645.936 3.66376L645.476 2.85083L646.281 3.32505L658.938 10.7792L671.723 3.54708L672.537 3.08699L672.062 3.89176L659.03 25.9707C658.982 26.0513 658.895 26.0972 658.804 26.0934C658.714 26.0956 658.627 26.0482 658.581 25.9668L645.936 3.66376ZM658.676 11.2052L646.832 4.23011L658.556 24.9099L658.676 11.2052ZM671.156 4.44237L659.192 11.2097L659.073 24.9145L671.156 4.44237Z" fill="#42C4C8"/>
<path fill-rule="evenodd" clip-rule="evenodd" d="M664.741 25.3989L664.28 26.2118L665.085 25.7376L677.743 18.2835L690.528 25.5155L691.341 25.9756L690.866 25.1709L677.835 3.09193C677.787 3.01129 677.7 2.96542 677.609 2.9692C677.518 2.96698 677.432 3.01437 677.385 3.09585L664.741 25.3989ZM677.481 17.8575L665.637 24.8325L677.361 4.15268L677.481 17.8575ZM689.961 24.6202L677.997 17.853L677.877 4.14817L689.961 24.6202Z" fill="#42C4C8"/>
<path fill-rule="evenodd" clip-rule="evenodd" d="M685.004 3.66376L684.543 2.85083L685.348 3.32505L698.005 10.7792L710.791 3.54708L711.604 3.08699L711.129 3.89176L698.097 25.9707C698.05 26.0513 697.962 26.0972 697.872 26.0934C697.781 26.0956 697.694 26.0482 697.648 25.9668L685.004 3.66376ZM697.743 11.2052L685.9 4.23011L697.624 24.9099L697.743 11.2052ZM710.223 4.44237L698.26 11.2097L698.14 24.9145L710.223 4.44237Z" fill="#42C4C8"/>
<path fill-rule="evenodd" clip-rule="evenodd" d="M703.809 25.3989L703.348 26.2118L704.153 25.7376L716.81 18.2835L729.595 25.5155L730.409 25.9756L729.934 25.1709L716.902 3.09193C716.854 3.01129 716.767 2.96542 716.676 2.9692C716.586 2.96698 716.499 3.01437 716.453 3.09585L703.809 25.3989ZM716.548 17.8575L704.704 24.8325L716.428 4.15268L716.548 17.8575ZM729.028 24.6202L717.064 17.853L716.945 4.14817L729.028 24.6202Z" fill="#42C4C8"/>
<path fill-rule="evenodd" clip-rule="evenodd" d="M724.071 3.66376L723.61 2.85083L724.416 3.32505L737.073 10.7792L749.858 3.54708L750.671 3.08699L750.196 3.89176L737.165 25.9707C737.117 26.0513 737.03 26.0972 736.939 26.0934C736.848 26.0956 736.762 26.0482 736.716 25.9668L724.071 3.66376ZM736.811 11.2052L724.967 4.23011L736.691 24.9099L736.811 11.2052ZM749.291 4.44237L737.327 11.2097L737.208 24.9145L749.291 4.44237Z" fill="#42C4C8"/>
<path fill-rule="evenodd" clip-rule="evenodd" d="M742.876 25.3989L742.415 26.2118L743.22 25.7376L755.877 18.2835L768.663 25.5155L769.476 25.9756L769.001 25.1709L755.969 3.09193C755.922 3.01129 755.834 2.96542 755.744 2.9692C755.653 2.96698 755.566 3.01437 755.52 3.09585L742.876 25.3989ZM755.615 17.8575L743.772 24.8325L755.496 4.15268L755.615 17.8575ZM768.095 24.6202L756.132 17.853L756.012 4.14817L768.095 24.6202Z" fill="#42C4C8"/>
<path fill-rule="evenodd" clip-rule="evenodd" d="M763.139 3.66376L762.678 2.85083L763.483 3.32505L776.14 10.7792L788.925 3.54708L789.739 3.08699L789.264 3.89176L776.232 25.9707C776.185 26.0513 776.097 26.0972 776.006 26.0934C775.916 26.0956 775.829 26.0482 775.783 25.9668L763.139 3.66376ZM775.878 11.2052L764.034 4.23011L775.759 24.9099L775.878 11.2052ZM788.358 4.44237L776.395 11.2097L776.275 24.9145L788.358 4.44237Z" fill="#42C4C8"/>
<path fill-rule="evenodd" clip-rule="evenodd" d="M781.943 25.3989L781.482 26.2118L782.288 25.7376L794.945 18.2835L807.73 25.5155L808.543 25.9756L808.068 25.1709L795.037 3.09193C794.989 3.01129 794.902 2.96542 794.811 2.9692C794.72 2.96698 794.634 3.01437 794.588 3.09585L781.943 25.3989ZM794.683 17.8575L782.839 24.8325L794.563 4.15268L794.683 17.8575ZM807.163 24.6202L795.199 17.853L795.08 4.14817L807.163 24.6202Z" fill="#42C4C8"/>
<path fill-rule="evenodd" clip-rule="evenodd" d="M802.206 3.66376L801.745 2.85083L802.55 3.32505L815.207 10.7792L827.993 3.54708L828.806 3.08699L828.331 3.89176L815.299 25.9707C815.252 26.0513 815.164 26.0972 815.074 26.0934C814.983 26.0956 814.896 26.0482 814.85 25.9668L802.206 3.66376ZM814.945 11.2052L803.102 4.23011L814.826 24.9099L814.945 11.2052ZM827.426 4.44237L815.462 11.2097L815.342 24.9145L827.426 4.44237Z" fill="#42C4C8"/>
<path fill-rule="evenodd" clip-rule="evenodd" d="M821.011 25.3989L820.55 26.2118L821.355 25.7376L834.012 18.2835L846.797 25.5155L847.611 25.9756L847.136 25.1709L834.104 3.09193C834.057 3.01129 833.969 2.96542 833.879 2.9692C833.788 2.96698 833.701 3.01437 833.655 3.09585L821.011 25.3989ZM833.75 17.8575L821.907 24.8325L833.631 4.15268L833.75 17.8575ZM846.23 24.6202L834.267 17.853L834.147 4.14817L846.23 24.6202Z" fill="#42C4C8"/>
<path fill-rule="evenodd" clip-rule="evenodd" d="M841.273 3.66376L840.812 2.85083L841.618 3.32505L854.275 10.7792L867.06 3.54708L867.873 3.08699L867.398 3.89176L854.367 25.9707C854.319 26.0513 854.232 26.0972 854.141 26.0934C854.051 26.0956 853.964 26.0482 853.918 25.9668L841.273 3.66376ZM854.013 11.2052L842.169 4.23011L853.893 24.9099L854.013 11.2052ZM866.493 4.44237L854.529 11.2097L854.41 24.9145L866.493 4.44237Z" fill="#42C4C8"/>
</g>
<defs>
<clipPath id="clip0">
<rect width="875" height="29" fill="white"/>
</clipPath>
</defs>
</svg>
