<svg width="30" height="30" viewBox="0 0 30 30" fill="none" xmlns="http://www.w3.org/2000/svg">
<g clip-path="url(#clip0_49_1524)">
<path d="M29.5 14.624C29.4999 11.8293 28.6989 9.0931 27.192 6.7394C25.6852 4.38571 23.5354 2.5131 20.9973 1.34327C18.4592 0.173447 15.6389 -0.244591 12.8706 0.138643C10.1022 0.521878 7.50168 1.69034 5.3768 3.50569C3.25192 5.32103 1.69176 7.70723 0.880947 10.3818C0.0701354 13.0563 0.0426404 15.9072 0.801785 18.5969C1.56093 21.2865 3.07488 23.7023 5.16439 25.5583C7.25391 27.4142 9.8315 28.6326 12.5919 29.069V18.85H8.87893V14.624H12.5919V11.402C12.5919 7.73703 14.775 5.71204 18.115 5.71204C19.2115 5.72735 20.3054 5.82294 21.388 5.99803V9.59803H19.544C19.2298 9.55644 18.9102 9.58603 18.609 9.68462C18.3078 9.7832 18.0326 9.94826 17.8037 10.1676C17.5749 10.3869 17.3983 10.6548 17.2871 10.9516C17.1758 11.2484 17.1327 11.5664 17.1609 11.882V14.626H21.214L20.5659 18.852H17.159V29.071C20.5992 28.5267 23.7323 26.7725 25.9946 24.1242C28.2569 21.4758 29.4999 18.1071 29.5 14.624Z" fill="#03033F"/>
<path d="M20.5689 18.85L21.2169 14.624H17.1619V11.884C17.1336 11.5683 17.1768 11.2503 17.288 10.9535C17.3993 10.6568 17.5759 10.3888 17.8047 10.1695C18.0335 9.95021 18.3087 9.78516 18.6099 9.68658C18.9111 9.58799 19.2307 9.5584 19.5449 9.59999H21.3889V5.99999C20.3064 5.8249 19.2124 5.72931 18.1159 5.71399C14.7759 5.71399 12.5929 7.73799 12.5929 11.404V14.626H8.87988V18.852H12.5929V29.071C14.1066 29.309 15.6482 29.309 17.1619 29.071V18.85H20.5689Z" fill="white"/>
</g>
<defs>
<clipPath id="clip0_49_1524">
<rect width="29.247" height="29.247" fill="white" transform="translate(0.25293)"/>
</clipPath>
</defs>
</svg>
