<svg width="30" height="30" viewBox="0 0 30 30" fill="none" xmlns="http://www.w3.org/2000/svg">
<g clip-path="url(#clip0_145_282)">
<path d="M29.247 14.624C29.2469 11.8293 28.446 9.09307 26.9391 6.73937C25.4322 4.38568 23.2825 2.51307 20.7444 1.34324C18.2062 0.173416 15.386 -0.244622 12.6176 0.138613C9.8493 0.521848 7.24875 1.69031 5.12387 3.50566C2.99899 5.321 1.43883 7.7072 0.628018 10.3817C-0.182794 13.0563 -0.210289 15.9072 0.548855 18.5968C1.308 21.2865 2.82195 23.7023 4.91146 25.5582C7.00098 27.4142 9.57857 28.6325 12.339 29.069V18.85H8.626V14.624H12.339V11.402C12.339 7.737 14.522 5.71201 17.862 5.71201C18.9585 5.72732 20.0525 5.82291 21.135 5.998V9.598H19.291C18.9768 9.55641 18.6573 9.586 18.356 9.68459C18.0548 9.78317 17.7796 9.94823 17.5508 10.1675C17.322 10.3868 17.1454 10.6548 17.0341 10.9516C16.9229 11.2483 16.8798 11.5663 16.908 11.882V14.626H20.961L20.313 18.852H16.906V29.071C20.3463 28.5267 23.4794 26.7725 25.7417 24.1242C28.004 21.4758 29.247 18.1071 29.247 14.624Z" fill="#F2F1ED"/>
<path d="M20.316 18.85L20.964 14.624H16.9089V11.884C16.8807 11.5683 16.9238 11.2503 17.0351 10.9535C17.1464 10.6568 17.3229 10.3888 17.5518 10.1695C17.7806 9.95021 18.0558 9.78516 18.357 9.68658C18.6582 9.58799 18.9778 9.5584 19.292 9.59999H21.136V5.99999C20.0534 5.8249 18.9595 5.72931 17.863 5.71399C14.523 5.71399 12.34 7.73799 12.34 11.404V14.626H8.62695V18.852H12.34V29.071C13.8537 29.309 15.3952 29.309 16.9089 29.071V18.85H20.316Z" fill="#03033F"/>
</g>
<defs>
<clipPath id="clip0_145_282">
<rect width="29.247" height="29.247" fill="white"/>
</clipPath>
</defs>
</svg>
