<svg width="30" height="30" viewBox="0 0 30 30" fill="none" xmlns="http://www.w3.org/2000/svg">
<g clip-path="url(#clip0_145_285)">
<path d="M14.8701 29.246C22.9461 29.246 29.4931 22.6991 29.4931 14.623C29.4931 6.54694 22.9461 0 14.8701 0C6.79401 0 0.24707 6.54694 0.24707 14.623C0.24707 22.6991 6.79401 29.246 14.8701 29.246Z" fill="#F2F1ED"/>
<path d="M22.9499 9.61202C22.434 9.83342 21.8919 9.988 21.3369 10.072C21.5969 10.028 21.9769 9.55901 22.1299 9.37201C22.3687 9.08346 22.5506 8.75228 22.666 8.39601C22.68 8.36901 22.69 8.33301 22.666 8.31301C22.6521 8.30723 22.637 8.30484 22.622 8.30606C22.607 8.30728 22.5926 8.31207 22.5799 8.32002C21.9756 8.64283 21.3333 8.88873 20.6679 9.05201C20.6448 9.05911 20.6201 9.0595 20.5967 9.05313C20.5734 9.04676 20.5523 9.03389 20.5359 9.01601C20.4847 8.95519 20.4289 8.89836 20.369 8.84601C20.0927 8.60787 19.7796 8.41606 19.442 8.27802C18.9916 8.09561 18.5058 8.01732 18.0209 8.04901C17.5503 8.08092 17.0915 8.21068 16.6739 8.43001C16.2544 8.64869 15.8842 8.95089 15.5859 9.31801C15.2768 9.6985 15.0553 10.1423 14.937 10.618C14.8349 11.0689 14.8229 11.5355 14.9019 11.991C14.9119 12.068 14.9019 12.078 14.8359 12.068C12.3054 11.8103 9.96221 10.6174 8.26489 8.72302C8.18789 8.63601 8.14689 8.63601 8.08289 8.73001C7.74194 9.36023 7.61321 10.0835 7.7157 10.7927C7.81819 11.5019 8.14648 12.1591 8.65192 12.667C8.77992 12.789 8.91294 12.912 9.05194 13.022C8.60991 12.9889 8.17882 12.8683 7.78387 12.667C7.70687 12.619 7.66893 12.646 7.66193 12.734C7.65753 12.8598 7.66487 12.9856 7.6839 13.11C7.7613 13.7014 7.99428 14.2616 8.35901 14.7335C8.72373 15.2054 9.20718 15.572 9.75995 15.796C9.89534 15.8544 10.0369 15.8974 10.1819 15.924C9.77237 16.0064 9.35186 16.0196 8.93793 15.963C8.84793 15.946 8.8129 15.991 8.8479 16.078C9.06091 16.6351 9.41274 17.1286 9.87006 17.5115C10.3274 17.8945 10.875 18.1542 11.4609 18.266C11.5789 18.287 11.6969 18.287 11.8159 18.315C11.8079 18.326 11.8019 18.326 11.7949 18.336C11.2874 18.7938 10.6746 19.1188 10.0109 19.282C9.14316 19.5917 8.21869 19.71 7.3009 19.629C7.1559 19.608 7.1249 19.609 7.0849 19.629C7.0449 19.649 7.08492 19.689 7.12592 19.729C7.31092 19.851 7.49892 19.959 7.69092 20.063C8.26654 20.3703 8.87414 20.6134 9.50287 20.788C11.1196 21.2744 12.8355 21.328 14.4794 20.9435C16.1233 20.559 17.6376 19.7499 18.8709 18.597C19.7588 17.6346 20.4455 16.5045 20.8906 15.2731C21.3357 14.0417 21.5303 12.7337 21.463 11.426C21.463 11.326 21.5839 11.266 21.6569 11.211C22.1442 10.8334 22.5737 10.3867 22.9319 9.88501C22.9883 9.81249 23.0179 9.72281 23.0159 9.63101V9.61701C23.0159 9.57001 23.0149 9.58301 22.9499 9.61202Z" fill="#03033F"/>
</g>
<defs>
<clipPath id="clip0_145_285">
<rect width="29.247" height="29.247" fill="white" transform="translate(0.24707)"/>
</clipPath>
</defs>
</svg>
