<svg width="30" height="30" viewBox="0 0 30 30" fill="none" xmlns="http://www.w3.org/2000/svg">
<g clip-path="url(#clip0_49_1527)">
<path d="M15.123 29.246C23.1991 29.246 29.746 22.6991 29.746 14.623C29.746 6.54694 23.1991 0 15.123 0C7.04694 0 0.5 6.54694 0.5 14.623C0.5 22.6991 7.04694 29.246 15.123 29.246Z" fill="#03033F"/>
<path d="M23.2028 9.61198C22.6869 9.83339 22.1448 9.98797 21.5898 10.072C21.8498 10.028 22.2299 9.55898 22.3829 9.37198C22.6216 9.08343 22.8035 8.75225 22.9189 8.39598C22.9329 8.36898 22.9429 8.33298 22.9189 8.31298C22.905 8.3072 22.8899 8.30481 22.8749 8.30603C22.86 8.30725 22.8456 8.31204 22.8328 8.31998C22.2285 8.6428 21.5862 8.8887 20.9208 9.05198C20.8977 9.05908 20.873 9.05947 20.8497 9.0531C20.8263 9.04673 20.8052 9.03386 20.7889 9.01598C20.7376 8.95516 20.6818 8.89833 20.6219 8.84598C20.3456 8.60784 20.0325 8.41603 19.6949 8.27798C19.2445 8.09558 18.7587 8.01729 18.2739 8.04898C17.8032 8.08088 17.3444 8.21065 16.9268 8.42998C16.5074 8.64866 16.1371 8.95086 15.8388 9.31798C15.5298 9.69847 15.3083 10.1423 15.1899 10.618C15.0878 11.0689 15.0759 11.5355 15.1548 11.991C15.1648 12.068 15.1548 12.078 15.0888 12.068C12.5583 11.8102 10.2151 10.6174 8.51782 8.72298C8.44082 8.63598 8.39982 8.63598 8.33582 8.72998C7.99487 9.3602 7.86614 10.0835 7.96863 10.7927C8.07112 11.5018 8.39941 12.1591 8.90485 12.667C9.03285 12.789 9.16587 12.912 9.30487 13.022C8.86284 12.9889 8.43175 12.8682 8.0368 12.667C7.9598 12.619 7.92186 12.646 7.91486 12.734C7.91046 12.8597 7.9178 12.9856 7.93683 13.11C8.01423 13.7013 8.24721 14.2616 8.61194 14.7335C8.97666 15.2054 9.46011 15.572 10.0129 15.796C10.1483 15.8544 10.2898 15.8973 10.4349 15.924C10.0253 16.0064 9.60479 16.0196 9.19086 15.963C9.10086 15.946 9.06583 15.991 9.10083 16.078C9.31384 16.6351 9.66567 17.1286 10.123 17.5115C10.5803 17.8944 11.1279 18.1541 11.7138 18.266C11.8318 18.287 11.9498 18.287 12.0688 18.315C12.0608 18.326 12.0548 18.326 12.0478 18.336C11.5403 18.7938 10.9275 19.1188 10.2639 19.282C9.39609 19.5916 8.47162 19.71 7.55383 19.629C7.40883 19.608 7.37783 19.609 7.33783 19.629C7.29783 19.649 7.33784 19.689 7.37884 19.729C7.56384 19.851 7.75185 19.959 7.94385 20.063C8.51947 20.3703 9.12707 20.6134 9.7558 20.788C11.3725 21.2743 13.0885 21.3279 14.7324 20.9435C16.3763 20.559 17.8905 19.7499 19.1238 18.597C20.0118 17.6346 20.6984 16.5045 21.1435 15.2731C21.5886 14.0416 21.7833 12.7337 21.7159 11.426C21.7159 11.326 21.8369 11.266 21.9099 11.211C22.3971 10.8334 22.8266 10.3866 23.1849 9.88498C23.2412 9.81246 23.2708 9.72278 23.2689 9.63098V9.61698C23.2689 9.56998 23.2678 9.58298 23.2028 9.61198Z" fill="white"/>
</g>
<defs>
<clipPath id="clip0_49_1527">
<rect width="29.247" height="29.247" fill="white" transform="translate(0.5)"/>
</clipPath>
</defs>
</svg>
