<svg width="81" height="80" viewBox="0 0 81 80" fill="none" xmlns="http://www.w3.org/2000/svg">
<path d="M40.4863 -1.74846e-06C48.9335 -2.11769e-06 57.1638 2.6742 63.9977 7.63932L46.3642 31.9098C44.6557 30.6685 42.5981 30 40.4863 30L40.4863 -1.74846e-06Z" fill="#07C8CC"/>
<path d="M63.9977 7.63932C71.7029 13.2375 77.1578 21.4012 79.3811 30.6622C81.6045 39.9232 80.4504 49.6736 76.1266 58.1596C71.8027 66.6457 64.5928 73.3105 55.7937 76.9552C46.9945 80.5999 37.1836 80.9854 28.1256 78.0423C19.0677 75.0991 11.3571 69.0206 6.38072 60.8999C1.40438 52.7793 -0.511109 43.1495 0.978793 33.7426C2.4687 24.3357 7.26621 15.7692 14.5084 9.58376C21.7506 3.39833 30.9622 -2.99739e-06 40.4863 -1.74846e-06L40.4863 30C38.1053 30 35.8024 30.8496 33.9918 32.3959C32.1813 33.9423 30.9819 36.0839 30.6094 38.4357C30.237 40.7874 30.7158 43.1948 31.9599 45.225C33.204 47.2551 35.1317 48.7748 37.3962 49.5106C39.6607 50.2463 42.1134 50.15 44.3132 49.2388C46.5129 48.3276 48.3154 46.6614 49.3964 44.5399C50.4774 42.4184 50.7659 39.9808 50.21 37.6655C49.6542 35.3503 48.2905 33.3094 46.3642 31.9098L63.9977 7.63932Z" fill="#07C8CC" fill-opacity="0.15"/>
<path d="M63.9933 7.63623C70.8279 12.6004 75.9156 19.6008 78.5271 27.6341L49.9967 36.9088C49.3438 34.9004 48.0719 33.1503 46.3633 31.9093L63.9933 7.63623Z" fill="#07C8CC"/>
<circle cx="40.4863" cy="40" r="30" fill="white"/>
<path d="M37.3562 36.054H44.1602V40.002H30.4962V36.586L35.3682 32.75C38.0562 30.594 38.9522 29.67 38.9522 27.99C38.9522 26.898 38.4482 26.058 37.0482 26.058C35.5922 26.058 35.0322 27.178 35.0322 28.606C35.0322 29.278 35.1162 29.698 35.2282 30.062L30.5802 29.922C30.4682 29.362 30.3562 28.802 30.3562 28.27C30.3562 24.49 33.1562 22.026 37.2162 22.026C41.5002 22.026 43.9362 24.434 43.9362 27.71C43.9362 30.762 42.3682 32.19 39.5402 34.374L37.3562 36.054Z" fill="black"/>
<path d="M50.385 25.282C50.385 26.1886 50.145 26.8926 49.665 27.394C49.185 27.8846 48.5343 28.13 47.713 28.13C46.945 28.13 46.3103 27.8846 45.809 27.394C45.3183 26.8926 45.073 26.1886 45.073 25.282C45.073 24.3753 45.313 23.6766 45.793 23.186C46.273 22.6953 46.9237 22.45 47.745 22.45C48.2463 22.45 48.6943 22.562 49.089 22.786C49.4943 22.9993 49.809 23.3193 50.033 23.746C50.2677 24.162 50.385 24.674 50.385 25.282ZM46.657 25.282C46.657 25.8046 46.7423 26.1993 46.913 26.466C47.0837 26.722 47.3557 26.85 47.729 26.85C48.1023 26.85 48.369 26.722 48.529 26.466C48.6997 26.1993 48.785 25.8046 48.785 25.282C48.785 24.7593 48.6997 24.37 48.529 24.114C48.369 23.858 48.1023 23.73 47.729 23.73C47.3557 23.73 47.0837 23.858 46.913 24.114C46.7423 24.37 46.657 24.7593 46.657 25.282Z" fill="black"/>
<path d="M21.1491 54.592C21.1491 51.876 23.0951 50.014 25.6711 50.014C28.3731 50.014 29.8151 51.736 29.9831 53.934L27.7011 54.018C27.5611 53.038 27.0291 52.128 25.6571 52.128C24.3551 52.128 23.5991 53.094 23.5991 54.592C23.5991 56.09 24.3551 57.056 25.6571 57.056C27.0291 57.056 27.5611 56.146 27.7011 55.166L29.9831 55.264C29.8151 57.462 28.3731 59.17 25.6711 59.17C23.0951 59.17 21.1491 57.308 21.1491 54.592ZM30.9064 50.182H33.2864V59.002H30.9064V50.182ZM34.2331 54.592C34.2331 51.876 36.1791 50.014 38.7551 50.014C41.4571 50.014 42.8991 51.736 43.0671 53.934L40.7851 54.018C40.6451 53.038 40.1131 52.128 38.7411 52.128C37.4391 52.128 36.6831 53.094 36.6831 54.592C36.6831 56.09 37.4391 57.056 38.7411 57.056C40.1131 57.056 40.6451 56.146 40.7851 55.166L43.0671 55.264C42.8991 57.462 41.4571 59.17 38.7551 59.17C36.1791 59.17 34.2331 57.308 34.2331 54.592ZM43.9904 50.182H46.3704V57.042H50.7384V59.002H43.9904V50.182ZM60.0962 54.592C60.0962 57.308 58.0802 59.17 55.5182 59.17C52.9562 59.17 50.9402 57.308 50.9402 54.592C50.9402 51.876 52.9562 50.014 55.5182 50.014C58.0802 50.014 60.0962 51.876 60.0962 54.592ZM57.6462 54.592C57.6462 53.094 56.8202 52.114 55.5182 52.114C54.2162 52.114 53.3902 53.094 53.3902 54.592C53.3902 56.09 54.2162 57.07 55.5182 57.07C56.8202 57.07 57.6462 56.09 57.6462 54.592Z" fill="black"/>
</svg>
