<svg width="81" height="80" viewBox="0 0 81 80" fill="none" xmlns="http://www.w3.org/2000/svg">
<path d="M40.916 -0.00049003C49.3632 -0.000490399 57.5935 2.67371 64.4274 7.63883L46.7939 31.9093C45.0854 30.6681 43.0278 29.9995 40.916 29.9995L40.916 -0.00049003Z" fill="#07C8CC"/>
<path d="M64.4274 7.63883C72.1326 13.237 77.5874 21.4007 79.8108 30.6617C82.0342 39.9227 80.8801 49.6731 76.5563 58.1591C72.2324 66.6452 65.0225 73.31 56.2233 76.9547C47.4242 80.5994 37.6133 80.9849 28.5553 78.0418C19.4974 75.0987 11.7867 69.0201 6.81041 60.8995C1.83406 52.7788 -0.0814215 43.149 1.40848 33.7421C2.89838 24.3353 7.69589 15.7687 14.9381 9.58327C22.1803 3.39784 31.3919 -0.000491279 40.916 -0.00049003L40.916 29.9995C38.535 29.9995 36.2321 30.8491 34.4215 32.3954C32.611 33.9418 31.4116 36.0834 31.0391 38.4352C30.6667 40.7869 31.1455 43.1943 32.3896 45.2245C33.6337 47.2547 35.5613 48.7743 37.8258 49.5101C40.0903 50.2459 42.5431 50.1495 44.7428 49.2383C46.9426 48.3271 48.7451 46.6609 49.8261 44.5394C50.907 42.4179 51.1956 39.9803 50.6397 37.6651C50.0839 35.3498 48.7202 33.3089 46.7939 31.9093L64.4274 7.63883Z" fill="#DAF7F7"/>
<path d="M64.423 7.63623C71.2576 12.6004 76.3453 19.6008 78.9568 27.6341L50.4264 36.9088C49.7735 34.9004 48.5016 33.1503 46.793 31.9093L64.423 7.63623Z" fill="#07C8CC"/>
<path d="M78.908 27.4854C81.5508 35.5084 81.5859 44.1623 79.0081 52.2065L50.4391 43.0517C51.0835 41.0406 51.0748 38.8772 50.4141 36.8714L78.908 27.4854Z" fill="#07C8CC"/>
<path d="M79.052 52.0653C76.504 60.119 71.4717 67.1594 64.6765 72.1773L46.8555 48.0441C48.5543 46.7896 49.8123 45.0295 50.4493 43.0161L79.052 52.0653Z" fill="#07C8CC"/>
<path d="M64.6786 72.1767C57.8835 77.1948 49.6742 79.9328 41.2273 79.9985L40.9941 49.9994C43.1059 49.983 45.1582 49.2985 46.857 48.0439L64.6786 72.1767Z" fill="#07C8CC"/>
<path d="M64.6786 72.1767C57.8835 77.1948 49.6742 79.9328 41.2273 79.9985L40.9941 49.9994C43.1059 49.983 45.1582 49.2985 46.857 48.0439L64.6786 72.1767Z" fill="#07C8CC"/>
<path d="M41.5546 80.002C33.1076 80.0562 24.4202 77.4231 17.5546 72.502L35.0904 48.1276C36.8068 49.3579 38.8687 50.0132 40.9804 49.9996L41.5546 80.002Z" fill="#07C8CC"/>
<path d="M17.5535 72.5018C10.6951 67.5706 5.58392 60.5688 2.93384 52.5481L31.4193 43.1364C32.0818 45.1416 31.5535 47.502 35.0767 48.1183L17.5535 72.5018Z" fill="#07C8CC"/>
<circle cx="40.916" cy="40" r="30" fill="white"/>
<path d="M39.1403 26.616H30.8243V22.36H44.2923V26.112C39.6723 30.648 39.5323 34.54 39.5043 40H34.2963C34.3803 34.26 35.5843 30.508 39.1403 26.616Z" fill="black"/>
<path d="M50.8147 25.28C50.8147 26.1867 50.5747 26.8907 50.0947 27.392C49.6147 27.8827 48.964 28.128 48.1427 28.128C47.3747 28.128 46.74 27.8827 46.2387 27.392C45.748 26.8907 45.5027 26.1867 45.5027 25.28C45.5027 24.3733 45.7427 23.6747 46.2227 23.184C46.7027 22.6933 47.3534 22.448 48.1747 22.448C48.676 22.448 49.124 22.56 49.5187 22.784C49.924 22.9973 50.2387 23.3173 50.4627 23.744C50.6974 24.16 50.8147 24.672 50.8147 25.28ZM47.0867 25.28C47.0867 25.8027 47.172 26.1973 47.3427 26.464C47.5134 26.72 47.7854 26.848 48.1587 26.848C48.532 26.848 48.7987 26.72 48.9587 26.464C49.1294 26.1973 49.2147 25.8027 49.2147 25.28C49.2147 24.7573 49.1294 24.368 48.9587 24.112C48.7987 23.856 48.532 23.728 48.1587 23.728C47.7854 23.728 47.5134 23.856 47.3427 24.112C47.172 24.368 47.0867 24.7573 47.0867 25.28Z" fill="black"/>
<path d="M21.5788 54.59C21.5788 51.874 23.5248 50.012 26.1008 50.012C28.8028 50.012 30.2448 51.734 30.4128 53.932L28.1308 54.016C27.9908 53.036 27.4588 52.126 26.0868 52.126C24.7848 52.126 24.0288 53.092 24.0288 54.59C24.0288 56.088 24.7848 57.054 26.0868 57.054C27.4588 57.054 27.9908 56.144 28.1308 55.164L30.4128 55.262C30.2448 57.46 28.8028 59.168 26.1008 59.168C23.5248 59.168 21.5788 57.306 21.5788 54.59ZM31.3361 50.18H33.7161V59H31.3361V50.18ZM34.6628 54.59C34.6628 51.874 36.6088 50.012 39.1848 50.012C41.8868 50.012 43.3288 51.734 43.4968 53.932L41.2148 54.016C41.0748 53.036 40.5428 52.126 39.1708 52.126C37.8688 52.126 37.1128 53.092 37.1128 54.59C37.1128 56.088 37.8688 57.054 39.1708 57.054C40.5428 57.054 41.0748 56.144 41.2148 55.164L43.4968 55.262C43.3288 57.46 41.8868 59.168 39.1848 59.168C36.6088 59.168 34.6628 57.306 34.6628 54.59ZM44.42 50.18H46.8V57.04H51.168V59H44.42V50.18ZM60.5258 54.59C60.5258 57.306 58.5098 59.168 55.9478 59.168C53.3858 59.168 51.3698 57.306 51.3698 54.59C51.3698 51.874 53.3858 50.012 55.9478 50.012C58.5098 50.012 60.5258 51.874 60.5258 54.59ZM58.0758 54.59C58.0758 53.092 57.2498 52.112 55.9478 52.112C54.6458 52.112 53.8198 53.092 53.8198 54.59C53.8198 56.088 54.6458 57.068 55.9478 57.068C57.2498 57.068 58.0758 56.088 58.0758 54.59Z" fill="black"/>
</svg>
