<svg width="81" height="80" viewBox="0 0 81 80" fill="none" xmlns="http://www.w3.org/2000/svg">
<path d="M40.8887 -1.74846e-06C49.3358 -2.11769e-06 57.5662 2.6742 64.4001 7.63932L46.7665 31.9098C45.058 30.6685 43.0005 30 40.8887 30L40.8887 -1.74846e-06Z" fill="#07C8CC"/>
<path d="M3.00191 52.825C0.293466 44.8238 0.187557 36.1706 2.69936 28.1055L31.3424 37.0261C30.7144 39.0424 30.7409 41.2057 31.418 43.206L3.00191 52.825Z" fill="#07C8CC"/>
<path d="M64.4001 7.63932C72.1053 13.2375 77.5601 21.4012 79.7835 30.6622C82.0068 39.9232 80.8528 49.6736 76.5289 58.1596C72.2051 66.6457 64.9952 73.3105 56.196 76.9552C47.3969 80.5999 37.586 80.9854 28.528 78.0423C19.47 75.0991 11.7594 69.0206 6.78306 60.8999C1.80672 52.7793 -0.108765 43.1495 1.38114 33.7426C2.87104 24.3357 7.66855 15.7692 14.9108 9.58376C22.153 3.39833 31.3646 -2.99739e-06 40.8887 -1.74846e-06L40.8887 30C38.5076 30 36.2047 30.8496 34.3942 32.3959C32.5836 33.9423 31.3843 36.0839 31.0118 38.4357C30.6393 40.7874 31.1182 43.1948 32.3623 45.225C33.6064 47.2551 35.534 48.7748 37.7985 49.5106C40.063 50.2463 42.5157 50.15 44.7155 49.2388C46.9153 48.3276 48.7178 46.6614 49.7987 44.5399C50.8797 42.4184 51.1682 39.9808 50.6124 37.6655C50.0565 35.3503 48.6928 33.3094 46.7665 31.9098L64.4001 7.63932Z" fill="#DAF7F7"/>
<path d="M64.3957 7.63672C71.2303 12.6008 76.3179 19.6013 78.9294 27.6346L50.3991 36.9093C49.7462 34.9009 48.4743 33.1508 46.7656 31.9098L64.3957 7.63672Z" fill="#07C8CC"/>
<path d="M2.98991 52.7904C0.288918 44.7867 0.191067 36.1333 2.71038 28.0706L31.3451 37.0179C30.7152 39.0336 30.7397 41.1969 31.415 43.1978L2.98991 52.7904Z" fill="#07C8CC"/>
<path d="M78.8806 27.4854C81.5235 35.5084 81.5585 44.1623 78.9808 52.2065L50.4118 43.0517C51.0562 41.0406 51.0474 38.8772 50.3867 36.8714L78.8806 27.4854Z" fill="#07C8CC"/>
<path d="M79.0266 52.0658C76.4786 60.1195 71.4464 67.1599 64.6511 72.1778L46.8301 48.0446C48.5289 46.7901 49.7869 45.03 50.424 43.0166L79.0266 52.0658Z" fill="#07C8CC"/>
<path d="M64.6513 72.1767C57.8562 77.1948 49.6469 79.9328 41.1999 79.9985L40.9668 49.9994C43.0785 49.983 45.1309 49.2985 46.8296 48.0439L64.6513 72.1767Z" fill="#07C8CC"/>
<path d="M64.6513 72.1767C57.8562 77.1948 49.6469 79.9328 41.1999 79.9985L40.9668 49.9994C43.0785 49.983 45.1309 49.2985 46.8296 48.0439L64.6513 72.1767Z" fill="#07C8CC"/>
<path d="M41.5272 80.002C33.0802 80.0562 24.3929 77.4231 17.5272 72.502L35.0631 48.1276C36.7795 49.3579 38.8413 50.0132 40.9531 49.9996L41.5272 80.002Z" fill="#07C8CC"/>
<path d="M17.5281 72.5023C10.6697 67.5711 5.55853 60.5693 2.90845 52.5486L31.3939 43.1369C32.0564 45.1421 31.5281 47.5024 35.0513 48.1188L17.5281 72.5023Z" fill="#07C8CC"/>
<path d="M2.70293 28.0926C5.21761 20.0285 10.2207 12.9674 16.9951 7.92141L34.9158 31.9807C33.2222 33.2422 31.9714 35.0075 31.3428 37.0235L2.70293 28.0926Z" fill="#07C8CC"/>
<circle cx="40.8887" cy="40" r="30" fill="white"/>
<path d="M36.9473 36.556C38.9073 36.556 40.0553 34.792 40.2233 32.216C39.4113 33.224 37.9553 33.84 36.2473 33.84C32.3833 33.84 30.0873 31.488 30.0873 28.128C30.0873 24.32 32.9713 22.024 36.9753 22.024C41.9313 22.024 44.5913 25.496 44.5913 31.096C44.5913 36.472 41.9873 40.336 36.8633 40.336C33.0553 40.336 30.5913 38.348 30.2553 34.82L34.6793 34.736C34.8193 35.94 35.6313 36.556 36.9473 36.556ZM39.4673 28.016C39.4673 26.7 38.5713 25.748 37.0593 25.748C35.4913 25.748 34.5953 26.672 34.5953 28.016C34.5953 29.416 35.4913 30.34 37.0593 30.34C38.5713 30.34 39.4673 29.416 39.4673 28.016Z" fill="black"/>
<path d="M51.1487 25.28C51.1487 26.1867 50.9087 26.8907 50.4287 27.392C49.9487 27.8827 49.298 28.128 48.4767 28.128C47.7087 28.128 47.074 27.8827 46.5727 27.392C46.082 26.8907 45.8367 26.1867 45.8367 25.28C45.8367 24.3733 46.0767 23.6747 46.5567 23.184C47.0367 22.6933 47.6873 22.448 48.5087 22.448C49.01 22.448 49.458 22.56 49.8527 22.784C50.258 22.9973 50.5727 23.3173 50.7967 23.744C51.0313 24.16 51.1487 24.672 51.1487 25.28ZM47.4207 25.28C47.4207 25.8027 47.506 26.1973 47.6767 26.464C47.8473 26.72 48.1193 26.848 48.4927 26.848C48.866 26.848 49.1327 26.72 49.2927 26.464C49.4633 26.1973 49.5487 25.8027 49.5487 25.28C49.5487 24.7573 49.4633 24.368 49.2927 24.112C49.1327 23.856 48.866 23.728 48.4927 23.728C48.1193 23.728 47.8473 23.856 47.6767 24.112C47.506 24.368 47.4207 24.7573 47.4207 25.28Z" fill="black"/>
<path d="M21.4128 54.59C21.4128 51.874 23.3588 50.012 25.9348 50.012C28.6368 50.012 30.0788 51.734 30.2468 53.932L27.9648 54.016C27.8248 53.036 27.2928 52.126 25.9208 52.126C24.6188 52.126 23.8628 53.092 23.8628 54.59C23.8628 56.088 24.6188 57.054 25.9208 57.054C27.2928 57.054 27.8248 56.144 27.9648 55.164L30.2468 55.262C30.0788 57.46 28.6368 59.168 25.9348 59.168C23.3588 59.168 21.4128 57.306 21.4128 54.59ZM31.17 50.18H33.55V59H31.17V50.18ZM34.4968 54.59C34.4968 51.874 36.4428 50.012 39.0188 50.012C41.7208 50.012 43.1628 51.734 43.3308 53.932L41.0488 54.016C40.9088 53.036 40.3768 52.126 39.0048 52.126C37.7028 52.126 36.9468 53.092 36.9468 54.59C36.9468 56.088 37.7028 57.054 39.0048 57.054C40.3768 57.054 40.9088 56.144 41.0488 55.164L43.3308 55.262C43.1628 57.46 41.7208 59.168 39.0188 59.168C36.4428 59.168 34.4968 57.306 34.4968 54.59ZM44.254 50.18H46.634V57.04H51.002V59H44.254V50.18ZM60.3598 54.59C60.3598 57.306 58.3438 59.168 55.7818 59.168C53.2198 59.168 51.2038 57.306 51.2038 54.59C51.2038 51.874 53.2198 50.012 55.7818 50.012C58.3438 50.012 60.3598 51.874 60.3598 54.59ZM57.9098 54.59C57.9098 53.092 57.0838 52.112 55.7818 52.112C54.4798 52.112 53.6538 53.092 53.6538 54.59C53.6538 56.088 54.4798 57.068 55.7818 57.068C57.0838 57.068 57.9098 56.088 57.9098 54.59Z" fill="black"/>
</svg>
