<svg width="505" height="266" viewBox="0 0 505 266" fill="none" xmlns="http://www.w3.org/2000/svg">
<path d="M14.9866 143.695C15.7837 143.96 16.8465 144.492 18.4407 144.492C20.3007 144.492 22.692 143.96 24.8176 141.835L85.6637 80.7231L11.5324 6.5918C10.7353 5.79469 9.14111 6.3261 9.14111 7.65462V129.347V134.927C9.14111 140.506 13.1267 142.898 14.9866 143.695Z" fill="#07C8CC"/>
<path d="M224.361 165.746C213.733 159.369 207.356 148.21 207.356 135.19V18.812C207.356 13.2322 203.37 11.1065 201.776 10.3094C200.979 10.0437 199.916 9.51233 198.322 9.51233C196.462 9.51233 194.07 10.0437 191.945 12.1694L43.6823 160.432C36.774 167.34 27.7401 171.06 18.7061 171.06C18.4404 171.06 18.1747 171.06 17.909 171.06C17.6433 171.06 17.3776 171.06 17.1119 171.06C16.5805 171.06 16.0491 171.06 15.252 171.06C14.7206 171.06 14.1891 171.06 13.6577 170.794C13.392 170.794 13.1263 170.794 12.8606 170.794C12.3292 170.794 11.7978 170.529 11.2664 170.529C8.87508 169.997 6.48374 169.466 4.35812 168.403C3.2953 167.872 2.4982 167.606 1.43539 167.075C0.638279 166.809 -0.158831 167.606 0.638279 168.403L86.992 254.757C100.809 268.573 123.128 268.573 136.944 254.757C136.944 254.757 224.095 167.606 224.361 167.34C224.892 166.277 224.892 166.012 224.361 165.746Z" fill="#07C8CC"/>
<path d="M233.661 18.5475V99.587V101.447V134.66C233.661 140.24 237.647 142.631 239.507 143.428C241.101 143.959 244.555 145.022 248.275 142.631C248.54 142.365 249.072 142.1 249.337 141.568L309.919 80.9877C310.185 80.722 310.185 80.4563 309.919 80.1906L229.941 0.213908C229.41 -0.317499 228.613 0.213908 229.144 1.01102C232.067 6.05939 233.661 12.1706 233.661 18.5475Z" fill="#07C8CC"/>
<path d="M427.092 6.32622C425.764 4.9977 423.373 4.9977 422.044 6.32622L270.859 157.512L268.467 159.903C267.405 160.966 266.608 161.763 265.544 162.56L265.278 162.826C265.013 163.091 264.747 163.357 264.216 163.623C258.104 168.405 250.665 170.797 242.959 170.797C238.442 170.797 233.66 170 229.143 167.874C228.08 167.343 227.283 167.077 226.486 166.546C225.689 166.28 225.157 167.077 225.954 167.608C226.751 168.405 312.309 253.962 312.309 253.962C326.125 267.779 348.444 267.779 362.261 253.962L493.518 122.704C507.601 108.622 507.601 86.0374 493.518 72.2208L427.092 6.32622Z" fill="#07C8CC"/>
</svg>
