<svg width="52" height="52" viewBox="0 0 52 52" fill="none" xmlns="http://www.w3.org/2000/svg">
<path fill-rule="evenodd" clip-rule="evenodd" d="M42.9021 23.5215C44.4496 22.2431 44.7824 21.9658 44.9384 21.7881L45.0861 21.6214C45.5042 21.1577 45.6019 20.9497 45.6893 20.317L45.7205 20.0939C45.7517 19.8989 45.76 19.5782 45.76 18.9412V17.9684C45.76 16.7269 45.76 16.1029 45.6747 15.5244C45.1838 12.2505 42.7419 9.70688 39.6032 9.19769C39.0457 9.10669 38.4405 9.10669 37.2382 9.10669C36.9096 9.10669 36.7453 9.10888 36.5893 9.11971C35.5534 9.19338 34.5758 9.58336 33.7605 10.2399C33.6502 10.3287 33.5421 10.4262 33.2654 10.6797C32.839 11.0762 32.6289 11.2777 32.4209 11.4229C31.3622 12.1595 29.9977 12.1595 28.939 11.4229C28.7331 11.2777 28.521 11.0762 28.0072 10.5995C27.82 10.4262 27.7097 10.3287 27.6037 10.242C26.7841 9.58336 25.8065 9.19338 24.7749 9.11971C24.6168 9.10888 24.4504 9.10669 24.1238 9.10669H15.6853C13.5865 9.10669 12.532 9.10669 11.5731 9.38404C9.12911 10.0925 7.19055 12.1162 6.51247 14.6642C6.24415 15.6609 6.24623 16.7572 6.24831 18.9824C6.24831 19.589 6.25663 19.8967 6.28575 20.0939L6.31903 20.3214C6.40847 20.9497 6.50415 21.1555 6.92431 21.6214L7.06575 21.7795C7.22175 21.9593 7.56287 22.2475 9.22895 23.6298C9.92991 24.2148 10.3168 25.0555 10.3168 26.0846C10.2856 26.9405 9.90911 27.7465 9.20815 28.3596C7.45263 29.898 7.15935 30.158 7.01999 30.3226L6.84111 30.5306C6.47503 30.9445 6.37935 31.1568 6.31071 31.7158L6.27535 31.9888C6.24831 32.1773 6.23999 32.4828 6.23999 33.0938C6.23999 35.254 6.23999 36.3373 6.49999 37.3231C7.17807 39.8863 9.12703 41.9186 11.5918 42.6271C12.5382 42.8958 13.5782 42.8958 15.6499 42.8958H24.1238C24.4504 42.8958 24.6168 42.8937 24.7686 42.8828C25.8024 42.8113 26.7821 42.4235 27.6016 41.7626C27.7098 41.6738 27.82 41.5763 28.0945 41.3228C28.5189 40.9285 28.7289 40.727 28.9411 40.5796C29.9977 39.8386 31.3622 39.843 32.4251 40.584C32.6331 40.727 32.8411 40.9285 33.3528 41.403C33.5421 41.5763 33.6502 41.6738 33.7584 41.7605C34.5779 42.4235 35.5576 42.8113 36.5851 42.8828C36.7453 42.8937 36.9096 42.8958 37.2382 42.8958C38.4405 42.8958 39.0437 42.8958 39.597 42.8048C42.7419 42.2978 45.1838 39.7563 45.6726 36.4781C45.76 35.8996 45.76 35.2756 45.76 34.0341V33.0613C45.76 32.4243 45.7517 32.1058 45.7205 31.913L45.6893 31.6855C45.5998 31.055 45.5042 30.8491 45.0861 30.3855L44.9426 30.223C44.7865 30.0453 44.4454 29.755 42.771 28.3661C42.068 27.779 41.6811 26.9405 41.6832 25.9958C41.6832 25.0533 42.068 24.2148 42.9021 23.5215Z" fill="black"/>
<path fill-rule="evenodd" clip-rule="evenodd" d="M42.9021 23.5215C44.4496 22.2431 44.7824 21.9658 44.9384 21.7881L45.0861 21.6214C45.5042 21.1577 45.6019 20.9497 45.6893 20.317L45.7205 20.0939C45.7517 19.8989 45.76 19.5782 45.76 18.9412V17.9684C45.76 16.7269 45.76 16.1029 45.6747 15.5244C45.1838 12.2505 42.7419 9.70688 39.6032 9.19769C39.0458 9.10669 38.4405 9.10669 37.2382 9.10669C36.9096 9.10669 36.7453 9.10888 36.5893 9.11971C35.5534 9.19338 34.5758 9.58336 33.7605 10.2399C33.6502 10.3287 33.5421 10.4262 33.2654 10.6797C32.839 11.0762 32.629 11.2777 32.421 11.4229C31.3622 12.1595 29.9978 12.1595 28.939 11.4229C28.7331 11.2777 28.521 11.0762 28.0072 10.5995C27.82 10.4262 27.7098 10.3287 27.6037 10.242C26.7842 9.58336 25.8066 9.19338 24.7749 9.11971C24.6168 9.10888 24.4504 9.10669 24.1238 9.10669H15.6853C13.5866 9.10669 12.532 9.10669 11.5731 9.38404C9.12911 10.0925 7.19055 12.1162 6.51247 14.6642C6.24415 15.6609 6.24623 16.7572 6.24831 18.9824C6.24831 19.589 6.25663 19.8967 6.28575 20.0939L6.31903 20.3214C6.40847 20.9497 6.50415 21.1555 6.92431 21.6214L7.06575 21.7795C7.22175 21.9593 7.56287 22.2475 9.22895 23.6298C9.92991 24.2148 10.3168 25.0555 10.3168 26.0846C10.2856 26.9405 9.90911 27.7465 9.20815 28.3596C7.45263 29.898 7.15935 30.158 7.01999 30.3226L6.84111 30.5306C6.47503 30.9445 6.37935 31.1568 6.31071 31.7158L6.27535 31.9888C6.24831 32.1773 6.23999 32.4828 6.23999 33.0938C6.23999 35.254 6.23999 36.3373 6.49999 37.3231C7.17807 39.8863 9.12703 41.9186 11.5918 42.6271C12.5382 42.8958 13.5782 42.8958 15.6499 42.8958H24.1238C24.4504 42.8958 24.6168 42.8937 24.7686 42.8828C25.8024 42.8113 26.7821 42.4235 27.6016 41.7626C27.7098 41.6738 27.82 41.5763 28.0946 41.3228C28.5189 40.9285 28.729 40.727 28.9411 40.5796C29.9978 39.8386 31.3622 39.843 32.4251 40.584C32.6331 40.727 32.8411 40.9285 33.3528 41.403C33.5421 41.5763 33.6502 41.6738 33.7584 41.7605C34.5779 42.4235 35.5576 42.8113 36.5851 42.8828C36.7453 42.8937 36.9096 42.8958 37.2382 42.8958C38.4405 42.8958 39.0437 42.8958 39.597 42.8048C42.7419 42.2978 45.1838 39.7563 45.6726 36.4781C45.76 35.8996 45.76 35.2756 45.76 34.0341V33.0613C45.76 32.4243 45.7517 32.1058 45.7205 31.913L45.6893 31.6855C45.5998 31.055 45.5042 30.8491 45.0861 30.3855L44.9426 30.223C44.7866 30.0453 44.4454 29.755 42.771 28.3661C42.068 27.779 41.6811 26.9405 41.6832 25.9958C41.6832 25.0533 42.068 24.2148 42.9021 23.5215Z" fill="#FAC93D"/>
<path fill-rule="evenodd" clip-rule="evenodd" d="M33.6735 27.6211H29.0143C29.0101 27.6211 29.0081 27.6233 29.0039 27.6233C28.9997 27.6233 28.9977 27.6211 28.9935 27.6211H19.6523C19.1385 27.6211 18.658 27.3589 18.3668 26.9169L17.0419 24.9106C16.5552 24.1718 16.734 23.1599 17.4433 22.6508C18.1505 22.1459 19.124 22.3301 19.6128 23.0689L20.4718 24.3711H25.5137L22.766 21.1666C22.1898 20.4993 22.246 19.4701 22.8887 18.8721C23.5314 18.2741 24.5173 18.3326 25.0914 19L29.6986 24.3711H33.6735C34.5346 24.3711 35.2335 25.0991 35.2335 25.9961C35.2335 26.8931 34.5346 27.6211 33.6735 27.6211ZM26.7221 30.6393L25.1954 32.8536C24.8917 33.2956 24.4133 33.5318 23.9266 33.5318C23.6125 33.5318 23.2943 33.4321 23.0177 33.2263C22.3188 32.7041 22.1586 31.6879 22.662 30.9578L24.1866 28.7434C24.69 28.0133 25.6613 27.8464 26.3644 28.3708C27.0653 28.8929 27.2255 29.9091 26.7221 30.6393Z" fill="black"/>
<path fill-rule="evenodd" clip-rule="evenodd" d="M33.6735 27.6211H29.0143C29.0101 27.6211 29.0081 27.6233 29.0039 27.6233C28.9997 27.6233 28.9977 27.6211 28.9935 27.6211H19.6523C19.1385 27.6211 18.658 27.3589 18.3668 26.9169L17.0419 24.9106C16.5552 24.1718 16.734 23.1599 17.4433 22.6508C18.1505 22.1459 19.124 22.3301 19.6128 23.0689L20.4718 24.3711H25.5137L22.766 21.1666C22.1898 20.4993 22.246 19.4701 22.8887 18.8721C23.5314 18.2741 24.5173 18.3326 25.0914 19L29.6986 24.3711H33.6735C34.5346 24.3711 35.2335 25.0991 35.2335 25.9961C35.2335 26.8931 34.5346 27.6211 33.6735 27.6211ZM26.7221 30.6393L25.1954 32.8536C24.8917 33.2956 24.4133 33.5318 23.9266 33.5318C23.6125 33.5318 23.2943 33.4321 23.0177 33.2263C22.3188 32.7041 22.1586 31.6879 22.662 30.9578L24.1866 28.7434C24.69 28.0133 25.6613 27.8464 26.3644 28.3708C27.0653 28.8929 27.2255 29.9091 26.7221 30.6393Z" fill="#8C1D43"/>
</svg>
