<svg width="52" height="52" viewBox="0 0 52 52" fill="none" xmlns="http://www.w3.org/2000/svg">
<path fill-rule="evenodd" clip-rule="evenodd" d="M23.4882 22.4359C26.2338 19.7112 29.8738 18.1928 33.7426 18.1928C35.8189 18.1928 37.8196 18.6319 39.6542 19.4584C39.9963 19.6126 40.3722 19.2902 40.2349 18.9407C39.3746 16.7513 38.0565 14.7066 36.2802 12.9304C32.9106 9.53997 28.4178 7.66797 23.6338 7.66797C18.8498 7.66797 14.357 9.53997 10.9874 12.9304C5.7042 18.2344 4.2482 26.3671 7.389 33.1687C7.7426 34.0215 8.0338 34.7703 8.0338 35.4359C8.0338 36.1431 7.7426 36.9959 7.4722 37.8071C6.973 39.2423 6.4738 40.7399 7.5138 41.8007C8.5746 42.8615 10.0722 42.3415 11.5074 41.8423C12.3186 41.5511 13.1506 41.2807 13.837 41.2807C14.5026 41.2807 15.2514 41.5719 16.1042 41.9047C18.1803 42.8796 20.7052 43.6241 23.0826 43.6091C23.4626 43.6068 23.6007 43.1269 23.3166 42.8746C17.5617 37.7637 18.3388 27.6234 23.4882 22.4359Z" fill="#8C1D43"/>
<path fill-rule="evenodd" clip-rule="evenodd" d="M44.0702 38.8486C44.0702 38.5158 44.2075 38.1456 44.4259 37.6006C46.3291 33.476 45.4576 28.5464 42.2544 25.3328C40.2098 23.2798 37.487 22.1504 34.5896 22.1504C31.6942 22.1504 28.9715 23.2798 26.9269 25.3328C22.7003 29.5718 22.7003 36.4691 26.9269 40.7082C29.0006 42.7923 31.7962 43.8926 34.6187 43.8926C36.1517 43.8926 37.693 43.5682 39.1323 42.9005C39.6274 42.6987 40.0558 42.5261 40.4011 42.5261C40.788 42.5282 41.2622 42.6925 41.7219 42.8506C42.6038 43.1522 43.6002 43.4974 44.3157 42.7778C45.0312 42.0602 44.6922 41.0638 44.3926 40.1861C44.2346 39.7202 44.0702 39.2397 44.0702 38.8486Z" fill="#FAC93D"/>
</svg>
