<svg width="52" height="52" viewBox="0 0 52 52" fill="none" xmlns="http://www.w3.org/2000/svg">
<path d="M15.8971 38.4153H35.1994C40.0874 38.4153 44.0623 34.2748 44.0623 29.1853V18.157C44.0623 13.0675 40.0874 8.927 35.1994 8.927H15.8971C11.0111 8.927 7.03625 13.0675 7.03625 18.157V29.1853C7.03625 34.2748 11.0111 38.4153 15.8971 38.4153Z" fill="#FFC627"/>
<path d="M23.989 8.92693H27.109V6.5C27.109 5.603 26.4101 4.875 25.549 4.875C24.6879 4.875 23.989 5.603 23.989 6.5V8.92693Z" fill="#07C8CC"/>
<path d="M22.4041 38.4153L16.7983 44.3628C16.1951 45.0041 16.2034 46.0311 16.8191 46.6595C17.4348 47.29 18.4207 47.2791 19.0239 46.6378L25.5509 39.7153L32.0759 46.6378C32.3816 46.9628 32.7852 47.1253 33.1887 47.1253C33.5818 47.1253 33.977 46.9715 34.2807 46.6595C34.8964 46.0311 34.9047 45.0041 34.3015 44.3628L28.6971 38.4153H22.4041Z" fill="#07C8CC"/>
<path d="M18.8988 19.6016H31.0212M18.8988 27.1282H25.1745" stroke="#8C1D43" stroke-width="1.5" stroke-linecap="round" stroke-linejoin="round"/>
</svg>
